<?xml version="1.0" encoding="UTF-8"?>
<!DOCTYPE svg PUBLIC "-//W3C//DTD SVG 1.1//EN" "http://www.w3.org/Graphics/SVG/1.1/DTD/svg11.dtd">
<!-- Creator: CorelDRAW X7 -->
<svg xmlns="http://www.w3.org/2000/svg" xml:space="preserve" width="40px" height="40px" version="1.1" style="shape-rendering:geometricPrecision; text-rendering:geometricPrecision; image-rendering:optimizeQuality; fill-rule:evenodd; clip-rule:evenodd"
viewBox="0 0 40 40"
 xmlns:xlink="http://www.w3.org/1999/xlink">
 <defs>
  <style type="text/css">
   <![CDATA[
    .fil0 {fill:none}
    .fil1 {fill:#145C9B}
    .fil2 {fill:#23A99C}
   ]]>
  </style>
 </defs>
 <g id="Layer_x0020_1">
  <metadata id="CorelCorpID_0Corel-Layer"/>
  <rect class="fil0" width="39.9976" height="39.9976"/>
  <g id="_741477448">
   <path class="fil1" d="M31 13c1,1 1,3 1,4 0,2 2,0 2,-1l4 -4c3,-3 3,-1 -2,-6 -1,-1 -1,-2 -2,-2 -1,-1 -2,-2 -2,-2 -1,1 0,4 -1,5 -5,1 -9,-2 -14,5 -4,5 -5,14 -10,15 -3,0 -7,-1 -7,1 0,0 0,0 0,0l0 3c0,2 0,2 6,2 5,0 8,-3 10,-7 5,-8 4,-15 15,-13z"/>
   <path class="fil2" d="M24 33c2,0 5,0 7,0 0,1 0,2 0,3 0,1 0,1 1,2 1,0 3,-3 4,-4l3 -3c2,-1 1,-1 -2,-5 -1,0 -3,-2 -3,-3 -1,0 -2,-2 -3,0l0 4c-3,0 -7,1 -9,-2 -2,-2 -2,-2 -2,-3 0,0 0,0 0,0 0,0 0,0 0,0 -1,1 -1,2 -2,3 0,1 -1,2 -1,3 1,3 4,4 7,5z"/>
   <path class="fil2" d="M0 8c0,1 0,4 0,5 3,1 8,-3 11,4 0,0 1,1 1,1 0,-1 1,-2 1,-3 1,-1 2,-2 2,-3 -4,-5 -8,-5 -14,-5 -1,0 -1,0 -1,1z"/>
  </g>
 </g>
</svg>
