<?xml version="1.0" encoding="UTF-8"?>
<!DOCTYPE svg PUBLIC "-//W3C//DTD SVG 1.1//EN" "http://www.w3.org/Graphics/SVG/1.1/DTD/svg11.dtd">
<!-- Creator: CorelDRAW X7 -->
<svg xmlns="http://www.w3.org/2000/svg" xml:space="preserve" width="40px" height="40px" version="1.1" style="shape-rendering:geometricPrecision; text-rendering:geometricPrecision; image-rendering:optimizeQuality; fill-rule:evenodd; clip-rule:evenodd"
viewBox="0 0 40 40"
 xmlns:xlink="http://www.w3.org/1999/xlink">
 <defs>
  <style type="text/css">
   <![CDATA[
    .fil0 {fill:none}
    .fil3 {fill:white}
    .fil1 {fill:url(#id0)}
    .fil2 {fill:url(#id1)}
   ]]>
  </style>
  <linearGradient id="id0" gradientUnits="userSpaceOnUse" x1="14.0011" y1="12.0522" x2="27.5403" y2="25.5903">
   <stop offset="0" style="stop-opacity:1; stop-color:#FFC75E"/>
   <stop offset="1" style="stop-opacity:1; stop-color:#BF800A"/>
  </linearGradient>
  <linearGradient id="id1" gradientUnits="userSpaceOnUse" x1="5.99776" y1="6.1454" x2="33.8546" y2="34.0034">
   <stop offset="0" style="stop-opacity:1; stop-color:#0063A9"/>
   <stop offset="1" style="stop-opacity:1; stop-color:#00487B"/>
  </linearGradient>
 </defs>
 <g id="Layer_x0020_1">
  <metadata id="CorelCorpID_0Corel-Layer"/>
  <rect class="fil0" width="40" height="40"/>
  <path id="left" class="fil1" d="M14 13l0 14 -2 0c-1,0 -2,-1 -2,-2l0 -10c0,-1 1,-2 2,-2l2 0zm4 0l0 -1c0,-1 0,-2 1,-2l3 0c1,0 2,1 2,2l0 1 -1 0 0 -1c0,0 0,-1 -1,-1l-3 0c0,0 0,1 0,1l0 1 -1 0zm10 0l1 0c2,0 3,1 3,2l0 10c0,1 -1,2 -3,2l-1 0 0 -14zm-14 14l13 0 0 -14 -13 0 0 14z"/>
  <path class="fil2" d="M18 5c9,-2 16,5 17,13 2,9 -5,16 -13,18 -9,1 -16,-6 -18,-13 -1,-10 6,-17 14,-18zm-5 34c9,2 17,0 22,-6 14,-16 -3,-39 -22,-31 -4,1 -7,3 -9,6 -4,5 -5,12 -3,18 1,3 2,4 3,7 3,2 6,5 9,6z"/>
  <path class="fil3" d="M20 23c-1,0 0,2 1,1 1,0 1,-2 -1,-1zm0 -8c-1,0 -1,0 -2,1 -1,1 0,2 1,1 1,0 1,-1 1,-1 2,0 4,2 1,3 -1,0 -1,0 -1,1 0,1 0,2 1,2 0,0 0,-1 1,-1 0,-1 0,-1 0,-1 0,0 0,0 1,0 0,0 1,-1 1,-1 1,-3 -1,-5 -4,-4z"/>
 </g>
</svg>
