<?xml version="1.0" encoding="UTF-8"?>
<!DOCTYPE svg PUBLIC "-//W3C//DTD SVG 1.1//EN" "http://www.w3.org/Graphics/SVG/1.1/DTD/svg11.dtd">
<!-- Creator: CorelDRAW X8 -->
<svg xmlns="http://www.w3.org/2000/svg" xml:space="preserve" width="40px" height="40px" version="1.1" style="shape-rendering:geometricPrecision; text-rendering:geometricPrecision; image-rendering:optimizeQuality; fill-rule:evenodd; clip-rule:evenodd"
viewBox="0 0 40 40"
 xmlns:xlink="http://www.w3.org/1999/xlink">
 <defs>
  <style type="text/css">
   <![CDATA[
    .fil2 {fill:url(#id0)}
    .fil0 {fill:url(#id1)}
    .fil1 {fill:url(#id2)}
   ]]>
  </style>
  <linearGradient id="id0" gradientUnits="userSpaceOnUse" x1="5.89382" y1="34.1109" x2="34.1487" y2="5.8513">
   <stop offset="0" style="stop-opacity:1; stop-color:#8C8C8C"/>
   <stop offset="1" style="stop-opacity:1; stop-color:#E3E3E3"/>
  </linearGradient>
  <linearGradient id="id1" gradientUnits="userSpaceOnUse" x1="15.9558" y1="37.2633" x2="2.73903" y2="24.0418">
   <stop offset="0" style="stop-opacity:1; stop-color:#B92E11"/>
   <stop offset="1" style="stop-opacity:1; stop-color:#DB593F"/>
  </linearGradient>
  <linearGradient id="id2" gradientUnits="userSpaceOnUse" x1="25.2088" y1="14.7912" x2="37.4629" y2="2.53942">
   <stop offset="0" style="stop-opacity:1; stop-color:#9D9E9E"/>
   <stop offset="1" style="stop-opacity:1; stop-color:#DBDBDB"/>
  </linearGradient>
 </defs>
 <g id="Layer_x0020_1">
  <metadata id="CorelCorpID_0Corel-Layer"/>
  <g id="_1616692609680">
   <path class="fil0" d="M1 34c-1,1 -1,3 0,5 1,1 2,1 3,1 1,0 2,0 2,-1l13 -12 -6 -6 -12 13z"/>
   <polygon class="fil1" points="32,11 37,8 40,3 37,0 32,3 29,8 23,15 25,17 "/>
   <path class="fil2" d="M33 25l0 0c-1,0 -2,0 -3,0l-15 -15c0,-1 0,-2 0,-3l0 0c0,-4 -3,-7 -7,-7 -2,0 -3,0 -4,1l5 5c1,0 1,0 1,1 0,1 0,2 -1,2 0,1 -1,1 -1,1 -1,0 -1,0 -1,0 -1,0 -1,0 -1,-1l-5 -5c-1,1 -1,2 -1,3 0,4 3,8 7,8l1 0c0,0 1,0 2,0l15 15c0,1 0,2 0,2l0 1c0,4 4,7 8,7 1,0 2,0 3,-1l-5 -5c-1,0 -1,0 -1,-1 0,-1 0,-2 1,-2 0,-1 1,-1 2,-1 0,0 0,0 0,0 1,0 1,0 1,1l5 5c1,-1 1,-2 1,-4 0,-3 -3,-7 -7,-7z"/>
  </g>
 </g>
</svg>
