<?xml version="1.0" encoding="UTF-8"?>
<!DOCTYPE svg PUBLIC "-//W3C//DTD SVG 1.1//EN" "http://www.w3.org/Graphics/SVG/1.1/DTD/svg11.dtd">
<!-- Creator: CorelDRAW X8 -->
<svg xmlns="http://www.w3.org/2000/svg" xml:space="preserve" width="40px" height="40px" version="1.1" style="shape-rendering:geometricPrecision; text-rendering:geometricPrecision; image-rendering:optimizeQuality; fill-rule:evenodd; clip-rule:evenodd"
viewBox="0 0 40 40"
 xmlns:xlink="http://www.w3.org/1999/xlink">
 <defs>
  <style type="text/css">
   <![CDATA[
    .str0 {stroke:#B4B4B4;stroke-width:0.900018}
    .fil4 {fill:#4E7AB5}
    .fil5 {fill:#967A44}
    .fil1 {fill:#B4B4B4}
    .fil0 {fill:url(#id0)}
    .fil2 {fill:url(#id1)}
    .fil3 {fill:url(#id2)}
   ]]>
  </style>
  <linearGradient id="id0" gradientUnits="userSpaceOnUse" x1="2.8973" y1="9.36987" x2="30.127" y2="30.6266">
   <stop offset="0" style="stop-opacity:1; stop-color:#FAFAFA"/>
   <stop offset="1" style="stop-opacity:1; stop-color:#F0F0F0"/>
  </linearGradient>
  <linearGradient id="id1" gradientUnits="userSpaceOnUse" x1="11.3364" y1="23.0568" x2="35.7373" y2="23.0568">
   <stop offset="0" style="stop-opacity:1; stop-color:#F4CD84"/>
   <stop offset="1" style="stop-opacity:1; stop-color:#E8AD79"/>
  </linearGradient>
  <linearGradient id="id2" gradientUnits="userSpaceOnUse" x1="24.7871" y1="6.39225" x2="37.0413" y2="16.4117">
   <stop offset="0" style="stop-opacity:1; stop-color:#8BB7F0"/>
   <stop offset="1" style="stop-opacity:1; stop-color:#4687DB"/>
  </linearGradient>
 </defs>
 <g id="Layer_x0020_1">
  <metadata id="CorelCorpID_0Corel-Layer"/>
  <g id="_1616692653456">
   <polygon class="fil0 str0" points="1,0 24,0 32,8 32,40 1,40 "/>
   <rect class="fil1" x="8" y="14" width="16.9507" height="1.44064"/>
   <rect class="fil1" x="8" y="19" width="16.9507" height="1.44064"/>
   <rect class="fil1" x="8" y="25" width="16.9507" height="1.44064"/>
   <g>
    <path class="fil2" d="M36 21c-1,-1 -11,-6 -13,-7 0,0 -2,3 -3,3 0,1 0,1 -1,1 -2,1 -4,2 -6,3 0,0 -1,0 -1,0 0,0 -1,0 -1,0l6 4c0,0 0,0 1,0 0,0 1,0 1,-1 2,-1 3,-1 4,-2 0,0 1,-1 1,-1l-1 1c-1,1 -1,1 -1,2 -1,0 -2,1 -2,1 0,1 -1,1 -1,1 0,0 0,0 0,0l3 3c0,0 0,0 0,0 1,-1 2,-1 3,-2l1 -1c0,0 1,0 1,0 0,0 0,0 0,0 0,0 0,0 0,0 -1,0 -1,1 -1,1 0,0 -1,1 -2,2 0,0 0,0 0,0 0,0 0,0 0,0l-1 1c0,0 2,1 3,1 0,1 0,1 1,1 0,0 2,-2 2,-2l1 -2c1,-1 1,-1 2,-2 0,0 4,-5 4,-5z"/>
    <path class="fil3" d="M33 15c0,0 0,0 0,0 0,-1 1,-2 1,-3 1,0 1,-1 1,-2 1,-1 1,-3 2,-4 0,-1 1,-1 1,-2 0,0 0,-1 0,-1 0,0 0,0 -1,0 0,-1 -1,0 -1,1l-5 8c-1,0 -1,1 -1,1 -1,0 -1,0 -1,0 0,0 -1,0 -1,0 0,-1 -1,-1 -1,-1 -2,0 -3,0 -3,1 0,0 0,1 0,1 1,0 1,0 1,0 1,1 1,1 2,1 0,0 9,5 9,5 0,0 0,-1 0,-2 0,0 0,-1 0,-1 -1,0 -1,-1 -2,-1 0,0 0,0 -1,0 0,0 0,-1 0,-1z"/>
    <path class="fil4" d="M33 15c0,0 0,1 0,1 1,0 1,0 1,0 1,0 1,1 2,1 0,0 0,1 0,1 0,1 0,2 0,2 0,0 -9,-5 -9,-5 -1,0 -1,0 -2,-1 0,0 0,0 -1,0 0,0 0,-1 0,-1 0,-1 1,-1 3,-1 0,0 1,0 1,1 0,0 1,0 1,0 0,0 0,0 1,0 0,0 0,-1 1,-1l5 -8c0,-1 1,-2 1,-1 1,0 1,0 1,0 0,0 0,1 0,1 0,1 -1,1 -1,2 -1,1 -1,3 -2,4 0,1 0,2 -1,2 0,1 -1,2 -1,3 0,0 0,0 0,0zm-10 -2c0,0 0,1 0,1l0 0c0,0 1,0 1,0l2 2c1,0 2,1 3,2 1,0 2,1 3,1l3 2c0,0 0,0 0,0 1,0 1,0 1,0 0,0 0,0 0,0 0,0 0,0 0,0 1,0 1,-1 1,-1 0,0 0,0 0,0 0,-1 0,-1 0,-2 0,0 0,-1 0,-1 -1,0 -1,-1 -1,-1 -1,0 -1,0 -1,0l-1 -1c0,0 0,0 0,0l0 0 2 -5c0,0 0,-1 1,-1 0,0 0,-1 0,-1l0 0c0,0 0,0 0,0l1 -1c0,0 0,0 0,0 0,0 0,-1 0,-1 0,0 0,-1 0,-1 0,0 1,0 1,0 0,-1 0,-1 0,-2 0,0 0,0 0,-1 -1,0 -1,0 -1,0 -1,0 -2,0 -2,1l-6 8c0,0 0,1 -1,1 0,0 -1,-1 -2,-1 -1,0 -2,0 -2,0 -1,0 -1,0 -1,0l0 1c0,0 0,0 0,0 0,0 -1,0 -1,1 0,0 0,0 0,0z"/>
    <path class="fil5" d="M36 21l-1 2c-1,1 -1,1 -1,2 -1,1 -1,1 -1,1l-2 2c0,1 0,1 0,1 0,0 0,0 0,0l-2 1c0,0 0,1 0,1l0 0c-1,0 -1,1 -1,1l-1 1c0,0 0,0 0,0 -1,0 -1,0 -1,0l-4 -3c-1,-1 -2,-1 -2,-2l-9 -6c0,0 -1,0 -1,-1l0 0c0,0 -1,0 -1,0 0,0 1,0 1,0 1,-1 2,-1 3,-1 0,0 1,0 1,0 1,-1 1,-1 1,-1l1 0c0,0 0,0 0,0l1 -1 2 -1c1,0 1,0 1,-1l1 0c0,0 0,-1 0,-1 0,0 0,0 0,0 0,0 0,0 0,0 1,0 1,1 1,1 0,0 0,0 -1,0 0,1 -1,1 -1,1 0,1 0,1 -1,1 -2,1 -4,2 -6,3 0,0 -1,0 -1,0 0,0 -1,0 -1,0l3 2c1,0 2,-1 3,-1l4 -2 -6 4 1 1c0,0 1,0 2,0 0,0 1,0 1,-1 2,-1 3,-1 4,-2 0,0 1,-1 1,-1l-1 1c-1,1 -1,1 -1,2 -1,0 -2,1 -2,1 0,1 -1,1 -1,1 0,0 0,0 0,0l3 3c0,0 0,0 0,0 1,-1 2,-1 3,-2l1 -1c0,0 1,0 1,0 0,0 0,0 0,0 0,0 0,0 0,0 -1,0 -1,1 -1,1 0,0 -1,1 -2,2 0,0 0,0 0,0 0,0 0,0 0,0l-1 1c0,0 2,1 3,1 0,1 0,1 1,1 0,0 2,-2 2,-2l1 -2c1,-1 1,-1 2,-2 0,-1 1,-2 2,-3 1,-1 1,-2 1,-2 1,0 1,0 1,0z"/>
    <path class="fil5" d="M21 15c0,0 0,0 1,0 0,1 0,1 0,1 0,0 0,0 0,-1 0,0 0,0 1,0 0,0 0,-1 0,-1l0 0c0,0 0,-1 0,-1 0,0 0,0 0,0 -1,1 -1,1 -1,2l-1 0z"/>
   </g>
  </g>
 </g>
</svg>
