<?xml version="1.0" encoding="UTF-8"?>
<!DOCTYPE svg PUBLIC "-//W3C//DTD SVG 1.1//EN" "http://www.w3.org/Graphics/SVG/1.1/DTD/svg11.dtd">
<!-- Creator: CorelDRAW X7 -->
<svg xmlns="http://www.w3.org/2000/svg" xml:space="preserve" width="47px" height="48px" version="1.1" style="shape-rendering:geometricPrecision; text-rendering:geometricPrecision; image-rendering:optimizeQuality; fill-rule:evenodd; clip-rule:evenodd"
viewBox="0 0 47 48"
 xmlns:xlink="http://www.w3.org/1999/xlink">
 <defs>
  <style type="text/css">
   <![CDATA[
    .fil8 {fill:#FEFEFE}
    .fil5 {fill:#FEFEFE}
    .fil3 {fill:#51A8B1}
    .fil2 {fill:#2887D2}
    .fil4 {fill:#FC4D44}
    .fil6 {fill:#FCBC44}
    .fil9 {fill:#00A859;fill-rule:nonzero}
    .fil1 {fill:#0098DA;fill-rule:nonzero}
    .fil7 {fill:#E32210;fill-rule:nonzero}
    .fil0 {fill:url(#id0)}
   ]]>
  </style>
  <linearGradient id="id0" gradientUnits="userSpaceOnUse" x1="1.15637" y1="12.122" x2="34.1842" y2="30.3109">
   <stop offset="0" style="stop-opacity:1; stop-color:#B8E5FA"/>
   <stop offset="1" style="stop-opacity:1; stop-color:#FEFEFE"/>
  </linearGradient>
 </defs>
 <g id="Layer_x0020_1">
  <metadata id="CorelCorpID_0Corel-Layer"/>
  <g id="_794546832">
   <g>
    <g>
     <path class="fil0" d="M0 0l0 42c0,0 35,-1 35,0 0,1 0,-30 0,-30l-8 -11 0 -1c0,0 -27,0 -27,0z"/>
     <path id="1" class="fil1" d="M0 42l0 -42 0 0 0 42 0 0 0 0zm0 0l0 0 0 0 0 0zm35 0l0 0 0 0 0 0 0 0 -1 0 0 0 -1 0 -1 0 -1 0 -1 0 -2 0 -1 0 -1 0 -2 0 -1 0 -2 0 -2 0 -1 0 -2 0 -2 0 -1 0 -2 0 -1 0 -2 0 -1 0 -1 0 -2 0 -1 0 -1 0 0 0 -1 0 0 0 -1 0 0 0 0 0 0 0 1 0 0 0 1 0 0 0 1 0 1 0 2 0 1 0 1 0 2 0 1 0 2 0 1 0 2 0 2 0 1 0 2 0 2 0 1 0 2 0 1 0 1 0 2 0 1 0 1 0 1 0 1 0 0 0 1 0 0 0 0 0 0 0zm0 -30l0 -1 0 1 0 0 0 0 0 0 0 1 0 1 0 1 0 0 0 2 0 1 0 1 0 1 0 2 0 1 0 1 0 2 0 1 0 2 0 1 0 2 0 1 0 1 0 1 0 2 0 1 0 1 0 1 0 0 0 1 0 1 0 0 0 0 0 0 0 0 0 0 0 0 0 0 0 -1 0 -1 0 0 0 -1 0 -1 0 -1 0 -2 0 -1 0 -1 0 -1 0 -2 0 -1 0 -2 0 -1 0 -2 0 -1 0 -1 0 -2 0 -1 0 -1 0 -1 0 -2 0 0 0 -1 0 -1 0 -1 0 0 0 0 0 0 0 0zm-8 -12l8 11 0 1 -8 -11 0 0 0 -1zm0 0l0 0 0 1 0 -1 0 0 0 0zm0 0l0 0 0 0 0 0zm-27 0l0 0 0 0 0 0 0 0 1 0 0 0 1 0 1 0 0 0 1 0 1 0 1 0 1 0 2 0 1 0 1 0 1 0 2 0 1 0 1 0 1 0 1 0 2 0 1 0 1 0 1 0 1 0 0 0 1 0 1 0 0 0 1 0 0 0 0 0 0 0 0 0 0 0 -1 0 0 0 -1 0 -1 0 0 0 -1 0 -1 0 -1 0 -1 0 -2 0 -1 0 -1 0 -1 0 -1 0 -2 0 -1 0 -1 0 -1 0 -2 0 -1 0 -1 0 -1 0 -1 0 0 0 -1 0 -1 0 0 0 -1 0 0 0 0 0 0 0z"/>
    </g>
    <path class="fil2" d="M27 1l0 7c0,0 0,3 1,3 2,1 7,0 7,0l-8 -11 0 1z"/>
   </g>
   <g id="_794547960">
    <path class="fil3" d="M5 8l17 0c0,0 0,0 0,0l0 14c0,0 0,1 0,1l-17 0c0,0 -1,-1 -1,-1l0 -14c0,0 1,0 1,0z"/>
    <path class="fil4" d="M5 5l16 0c1,0 1,1 1,1l0 3 -18 0 0 -3c0,0 1,-1 1,-1z"/>
    <g>
     <rect class="fil2" x="8" y="3" width="1.41463" height="4.11812"/>
     <rect class="fil2" x="11" y="3" width="1.41463" height="4.11812"/>
     <rect class="fil2" x="14" y="3" width="1.41463" height="4.11812"/>
     <rect class="fil2" x="17" y="3" width="1.41463" height="4.11812"/>
    </g>
    <rect class="fil5" x="8" y="10" width="1.44258" height="1.85329"/>
    <rect class="fil5" x="11" y="10" width="1.44258" height="1.85329"/>
    <rect class="fil5" x="14" y="10" width="1.44258" height="1.85329"/>
    <rect class="fil5" x="17" y="10" width="1.44258" height="1.85329"/>
    <rect class="fil5" x="20" y="10" width="1.44258" height="1.85329"/>
    <rect class="fil5" x="6" y="14" width="1.44258" height="1.85329"/>
    <rect class="fil5" x="8" y="14" width="1.44258" height="1.85329"/>
    <rect class="fil5" x="11" y="14" width="1.44258" height="1.85329"/>
    <rect class="fil5" x="14" y="14" width="1.44258" height="1.85329"/>
    <rect class="fil5" x="17" y="14" width="1.44258" height="1.85329"/>
    <rect class="fil5" x="20" y="14" width="1.44258" height="1.85329"/>
    <rect class="fil5" x="6" y="18" width="1.44258" height="1.85329"/>
    <rect class="fil5" x="8" y="18" width="1.44258" height="1.85329"/>
    <rect class="fil5" x="11" y="18" width="1.44258" height="1.85329"/>
    <rect class="fil5" x="14" y="18" width="1.44258" height="1.85329"/>
    <rect class="fil5" x="17" y="18" width="1.44258" height="1.85329"/>
    <rect class="fil5" x="20" y="18" width="1.44258" height="1.85329"/>
   </g>
   <g id="_794547528">
    <rect class="fil6" x="4" y="25" width="7.67896" height="7.02461"/>
    <rect class="fil6" x="14" y="25" width="7.59671" height="7.02461"/>
    <rect class="fil6" x="4" y="33" width="7.67896" height="7.02461"/>
    <rect class="fil6" x="14" y="33" width="7.59671" height="7.02461"/>
    <path class="fil7" d="M9 38l-1 -1 -1 1c0,0 0,0 0,0 0,0 0,0 0,0 0,0 0,0 -1,0 0,0 0,0 0,0 0,0 0,0 1,0l1 -2 -1 -1c0,0 -1,0 -1,0 0,0 1,0 1,0 0,0 0,-1 0,-1 0,0 0,1 0,1 0,0 0,0 1,0l0 1 1 -1c0,0 0,0 0,0 0,0 0,-1 0,-1 1,0 1,1 1,1 0,0 0,0 0,0 0,0 0,0 0,0 0,0 0,0 0,0l-1 1 1 2c0,0 0,0 0,0 0,0 0,0 0,0 0,0 0,0 -1,0 0,0 0,0 0,0 0,0 0,0 0,0z"/>
    <polygon class="fil7" points="9,30 8,30 8,29 6,29 6,28 8,28 8,26 9,26 9,28 10,28 10,29 9,29 "/>
    <path class="fil7" d="M19 29l-3 0c0,0 0,0 0,0 0,-1 -1,-1 -1,-1 0,0 1,0 1,-1 0,0 0,0 0,0l3 0c0,0 0,0 0,0 0,1 1,1 1,1 0,0 -1,0 -1,1 0,0 0,0 0,0z"/>
    <path class="fil7" d="M19 38l-3 0 0 -1 3 0 0 1zm0 -2l-3 0 0 -1 3 0 0 1z"/>
   </g>
   <g id="_794546952">
    <g>
     <circle class="fil8" cx="35" cy="36" r="4"/>
     <path class="fil2" d="M47 35c0,-1 -1,-1 -1,-1 -1,0 -2,0 -2,-1 -1,-1 -1,-2 0,-3 1,0 1,-1 0,-1 0,-1 -1,-1 -1,-2 -1,0 -1,0 -1,0 -1,1 -2,1 -3,1 -1,-1 -2,-2 -2,-3 0,0 0,0 0,0 -1,0 -1,0 -2,0l0 0c0,0 -1,0 -1,0 0,0 -1,0 -1,0 0,1 0,2 -1,3 -1,0 -2,0 -3,-1 0,0 -1,0 -1,0 -1,1 -1,1 -2,2 0,0 0,1 0,1 1,0 1,2 1,3 0,1 -1,1 -3,1 0,0 0,0 0,1 0,0 0,1 0,1l0 0c0,1 0,1 0,1 0,1 0,1 1,1 1,0 1,1 2,2 0,1 0,2 -1,2 0,1 0,1 0,1 1,1 1,2 2,2 0,0 1,0 1,0 1,-1 2,-1 3,-1 1,1 1,2 1,3 0,0 1,1 1,1 0,0 1,0 1,0 1,0 1,0 2,0 0,0 0,-1 0,-1 0,-1 1,-2 2,-3 1,0 2,0 3,1 0,0 0,0 0,0 1,0 2,-1 2,-2 1,0 0,0 0,-1 -1,0 -1,-1 0,-2 0,-1 1,-2 2,-2l0 0c0,0 1,0 1,-1 0,0 0,-1 0,-2zm-12 5c-2,0 -4,-2 -4,-4 0,-2 2,-4 4,-4 2,0 4,2 4,4 0,2 -2,4 -4,4z"/>
    </g>
    <g>
     <circle class="fil6" cx="35" cy="36" r="6"/>
     <path class="fil9" d="M36 38c0,0 0,-1 0,-1 0,0 0,0 -1,0 0,0 0,-1 -1,-1 0,0 0,0 0,0 0,0 -1,0 -1,-1 0,0 0,0 0,-1 0,0 0,0 1,-1 0,0 0,0 1,0l0 -1 1 0 0 1c0,0 1,0 1,0 0,1 1,1 1,2l-2 0c0,-1 0,-1 0,-1 0,0 0,0 -1,0 0,0 0,0 0,0 0,0 0,0 0,0 0,1 0,1 0,1 0,0 0,0 1,1 0,0 0,0 0,0 1,0 1,0 1,0 0,1 0,1 1,1 0,0 0,1 0,1 0,0 -1,1 -1,1 0,0 -1,1 -1,1l0 1 -1 0 0 -1c-1,0 -1,-1 -2,-1 0,0 0,-1 0,-2l1 0c0,1 0,1 1,1 0,1 0,1 0,1 1,0 1,0 1,-1 0,0 0,0 0,0z"/>
    </g>
   </g>
  </g>
 </g>
</svg>
