<?xml version="1.0" encoding="UTF-8"?>
<!DOCTYPE svg PUBLIC "-//W3C//DTD SVG 1.1//EN" "http://www.w3.org/Graphics/SVG/1.1/DTD/svg11.dtd">
<!-- Creator: CorelDRAW X7 -->
<svg xmlns="http://www.w3.org/2000/svg" xml:space="preserve" width="42px" height="48px" version="1.1" style="shape-rendering:geometricPrecision; text-rendering:geometricPrecision; image-rendering:optimizeQuality; fill-rule:evenodd; clip-rule:evenodd"
viewBox="0 0 42 48"
 xmlns:xlink="http://www.w3.org/1999/xlink">
 <defs>
  <style type="text/css">
   <![CDATA[
    .fil8 {fill:#FEFEFE}
    .fil0 {fill:#FEFEFE}
    .fil4 {fill:#B8E5FA}
    .fil6 {fill:#51A8B1}
    .fil2 {fill:#2887D2}
    .fil7 {fill:#FC4D44}
    .fil9 {fill:#FCBC44}
    .fil3 {fill:white}
    .fil10 {fill:#00A859;fill-rule:nonzero}
    .fil1 {fill:#2887D2;fill-rule:nonzero}
    .fil5 {fill:#E32210;fill-rule:nonzero}
   ]]>
  </style>
 </defs>
 <g id="Layer_x0020_1">
  <metadata id="CorelCorpID_0Corel-Layer"/>
  <g id="_598152784">
   <g>
    <g>
     <polygon class="fil0" points="40,11 6,11 6,40 40,40 "/>
     <path id="1" class="fil1" d="M6 12l0 -1 0 0 34 0 0 1 -34 0zm0 -1l0 0 0 0 0 0zm1 29l-1 0 0 0 0 -29 1 0 0 29zm-1 0l0 0 0 0 0 0zm34 -1l0 1 0 0 -34 0 0 -1 34 0zm0 1l0 0 0 0 0 0zm0 -29l0 0 0 0 0 29 0 0 0 -29zm0 0l0 0 0 0 0 0z"/>
    </g>
    <path class="fil2" d="M6 10c0,0 0,0 0,0l0 -4c0,0 1,-1 2,-1l31 0c0,0 1,1 1,1l0 4c0,0 0,0 0,0l-34 0z"/>
    <circle class="fil3" cx="37" cy="8" r="1"/>
    <circle class="fil3" cx="33" cy="8" r="1"/>
    <circle class="fil3" cx="30" cy="8" r="1"/>
   </g>
   <g id="_787612056">
    <rect class="fil2" x="2" width="19.946" height="26.4762" rx="2" ry="3"/>
    <path class="fil4" d="M5 2l14 0c1,0 1,0 1,1l0 3 -16 0 0 -3c0,-1 0,-1 1,-1z"/>
    <g>
     <rect class="fil4" x="4" y="8" width="7.99053" height="7.30973"/>
     <rect class="fil4" x="12" y="8" width="7.90494" height="7.30973"/>
     <rect class="fil4" x="4" y="16" width="7.99053" height="7.30973"/>
     <rect class="fil4" x="12" y="16" width="7.90494" height="7.30973"/>
     <path class="fil5" d="M9 21l-1 -1 -1 1c0,0 0,1 0,1 0,0 0,0 -1,0 0,0 0,0 0,0 0,0 0,-1 0,-1 0,0 0,0 0,0l1 -1 -1 -1c0,-1 0,-1 0,-1 0,0 0,0 0,0 0,0 0,0 1,0 0,0 0,0 0,0 0,0 0,0 0,0l1 1 1 -1c0,0 0,0 0,0 0,0 0,0 0,0 0,0 0,0 1,0 0,0 0,0 0,0 0,0 0,0 0,0 0,0 -1,0 -1,1l0 1 1 1c0,0 0,0 0,0 0,0 0,1 0,1 0,0 -1,0 -1,0 0,0 0,0 0,0 0,0 0,-1 0,-1z"/>
     <polygon class="fil5" points="8,14 7,14 7,13 6,13 6,11 7,11 7,10 8,10 8,11 10,11 10,13 8,13 "/>
     <path class="fil5" d="M17 13l-2 0c0,0 -1,0 -1,0 0,-1 0,-1 0,-1 0,0 0,0 0,-1 0,0 1,0 1,0l2 0c1,0 1,0 1,0 0,1 0,1 0,1 0,0 0,0 0,1 0,0 0,0 -1,0z"/>
     <path class="fil5" d="M18 21l-4 0 0 -1 4 0 0 1zm0 -2l-4 0 0 0 4 0 0 0z"/>
    </g>
   </g>
   <g id="_598156744">
    <path class="fil6" d="M24 29l17 0c1,0 1,1 1,1l0 14c0,1 0,1 -1,1l-17 0c0,0 -1,0 -1,-1l0 -14c0,0 1,-1 1,-1z"/>
    <path class="fil7" d="M24 27l17 0c1,0 1,1 1,1l0 3 -19 0 0 -3c0,0 1,-1 1,-1z"/>
    <g>
     <rect class="fil2" x="27" y="25" width="1.467" height="4.27062"/>
     <rect class="fil2" x="30" y="25" width="1.467" height="4.27062"/>
     <rect class="fil2" x="34" y="25" width="1.467" height="4.27062"/>
     <rect class="fil2" x="37" y="25" width="1.467" height="4.27062"/>
    </g>
    <rect class="fil0" x="28" y="32" width="1.49598" height="1.92193"/>
    <rect class="fil0" x="30" y="32" width="1.49598" height="1.92193"/>
    <rect class="fil0" x="33" y="32" width="1.49598" height="1.92193"/>
    <rect class="fil0" x="36" y="32" width="1.49598" height="1.92193"/>
    <rect class="fil0" x="39" y="32" width="1.49598" height="1.92193"/>
    <rect class="fil0" x="25" y="36" width="1.49598" height="1.92193"/>
    <rect class="fil0" x="28" y="36" width="1.49598" height="1.92193"/>
    <rect class="fil0" x="30" y="36" width="1.49598" height="1.92193"/>
    <rect class="fil0" x="33" y="36" width="1.49598" height="1.92193"/>
    <rect class="fil0" x="36" y="36" width="1.49598" height="1.92193"/>
    <rect class="fil0" x="39" y="36" width="1.49598" height="1.92193"/>
    <rect class="fil0" x="25" y="40" width="1.49598" height="1.92193"/>
    <rect class="fil0" x="28" y="40" width="1.49598" height="1.92193"/>
    <rect class="fil0" x="30" y="40" width="1.49598" height="1.92193"/>
    <rect class="fil0" x="33" y="40" width="1.49598" height="1.92193"/>
    <rect class="fil0" x="36" y="40" width="1.49598" height="1.92193"/>
    <rect class="fil0" x="39" y="40" width="1.49598" height="1.92193"/>
   </g>
   <g id="_598154656">
    <circle class="fil8" cx="9" cy="38" r="4"/>
    <path class="fil2" d="M19 37c0,0 -1,0 -1,0 -1,0 -1,-1 -2,-1 0,-1 0,-2 1,-3 0,0 0,0 0,0 -1,-1 -1,-1 -2,-2 0,0 0,0 0,0 -1,1 -2,1 -3,1 -1,-1 -1,-1 -1,-2 0,-1 0,-1 0,-1 -1,0 -1,0 -2,0l0 0c0,0 0,0 -1,0 0,0 0,0 0,1 0,0 -1,1 -1,2 -1,0 -2,0 -3,-1 0,0 0,0 0,0 -1,0 -1,1 -2,2 0,0 0,0 0,0 1,1 1,2 1,3 -1,0 -1,1 -2,1 -1,0 -1,0 -1,0 0,1 0,1 0,1l0 0c0,1 0,1 0,1 0,1 0,1 1,1 0,0 1,0 2,1 0,1 0,2 -1,3 0,0 0,0 0,0 0,1 1,1 2,2 0,0 0,0 0,0 1,-1 2,-1 3,-1 0,1 1,1 1,2 0,1 0,1 0,1 1,0 1,0 1,0 1,0 1,0 1,0 1,0 1,0 1,-1 0,-1 0,-1 1,-2 1,0 2,0 3,1 0,0 0,0 0,0 1,-1 1,-1 2,-2 0,0 0,0 0,0 -1,-1 -1,-2 -1,-3 0,-1 1,-1 2,-1l0 0c0,0 1,0 1,0 0,-1 0,-2 0,-3zm-10 5c-1,0 -3,-2 -3,-4 0,-1 2,-3 3,-3 2,0 4,2 4,3 0,2 -2,4 -4,4z"/>
   </g>
   <g id="_598153384">
    <circle class="fil9" cx="31" cy="18" r="5"/>
    <path class="fil10" d="M32 19c0,0 0,0 0,0 0,-1 0,-1 -1,-1 0,0 0,0 0,0 0,0 -1,0 -1,0 0,-1 0,-1 0,-1 0,0 0,0 0,-1 0,0 0,0 0,-1 0,0 1,0 1,0l0 -1 1 0 0 1c0,0 1,0 1,0 0,1 0,1 0,2l-1 0c0,-1 0,-1 0,-1 0,0 0,0 0,0 -1,0 -1,0 -1,0 0,0 0,0 0,0 0,1 0,1 0,1 0,0 0,0 1,0 0,0 0,0 0,1 1,0 1,0 1,0 0,0 0,0 0,0 0,1 0,1 0,1 0,0 0,1 0,1 0,0 -1,0 -1,1l0 0 -1 0 0 0c0,-1 -1,-1 -1,-1 0,0 0,-1 0,-1l1 0c0,0 0,0 0,0 0,1 0,1 0,1 1,0 1,0 1,-1 0,0 0,0 0,0z"/>
   </g>
  </g>
 </g>
</svg>
