<?xml version="1.0" encoding="UTF-8"?>
<!DOCTYPE svg PUBLIC "-//W3C//DTD SVG 1.1//EN" "http://www.w3.org/Graphics/SVG/1.1/DTD/svg11.dtd">
<!-- Creator: CorelDRAW X7 -->
<svg xmlns="http://www.w3.org/2000/svg" xml:space="preserve" width="45px" height="48px" version="1.1" style="shape-rendering:geometricPrecision; text-rendering:geometricPrecision; image-rendering:optimizeQuality; fill-rule:evenodd; clip-rule:evenodd"
viewBox="0 0 45 48"
 xmlns:xlink="http://www.w3.org/1999/xlink">
 <defs>
  <style type="text/css">
   <![CDATA[
    .fil1 {fill:#FEFEFE}
    .fil3 {fill:black}
    .fil2 {fill:#1CC8EB}
    .fil0 {fill:#2887D2}
    .fil12 {fill:#ED3237;fill-rule:nonzero}
    .fil8 {fill:#0083FD;fill-rule:nonzero}
    .fil7 {fill:#0094FD;fill-rule:nonzero}
    .fil9 {fill:#22A7FF;fill-rule:nonzero}
    .fil5 {fill:#60B8FF;fill-rule:nonzero}
    .fil4 {fill:#B4DBFF;fill-rule:nonzero}
    .fil6 {fill:#D9EDFF;fill-rule:nonzero}
    .fil11 {fill:url(#id0);fill-rule:nonzero}
    .fil10 {fill:url(#id1);fill-rule:nonzero}
   ]]>
  </style>
  <linearGradient id="id0" gradientUnits="userSpaceOnUse" x1="2.93077" y1="45.714" x2="14.7995" y2="32.8033">
   <stop offset="0" style="stop-opacity:1; stop-color:#1CC8EB"/>
   <stop offset="1" style="stop-opacity:1; stop-color:white"/>
  </linearGradient>
  <linearGradient id="id1" gradientUnits="userSpaceOnUse" x1="17.034" y1="24.7428" x2="27.4841" y2="13.3761">
   <stop offset="0" style="stop-opacity:1; stop-color:#FCE550"/>
   <stop offset="1" style="stop-opacity:1; stop-color:#F9FFAB"/>
  </linearGradient>
 </defs>
 <g id="Layer_x0020_1">
  <metadata id="CorelCorpID_0Corel-Layer"/>
  <g id="_789138120">
   <g>
    <g>
     <path class="fil0" d="M8 46l29 0c1,0 2,-1 2,-3l0 -37c0,-1 -1,-2 -2,-2l-29 0 0 0 -3 0 0 42 3 0z"/>
     <rect class="fil1" x="8" y="5" width="30.2311" height="39.5657"/>
     <path class="fil2" d="M8 4l26 -4c1,0 2,1 2,2l0 36c0,1 -1,2 -2,2l-26 4 0 -40z"/>
     <g>
      <path class="fil3" d="M43 44l0 0c0,0 0,0 0,0l0 2 0 0c0,0 0,0 0,0l0 -2c0,0 0,0 0,0z"/>
      <path class="fil4" d="M44 44c0,0 -1,1 -1,1l0 0c0,0 0,-1 0,-1l-1 -4c0,1 0,1 0,1l2 0c0,0 1,0 1,-1l-1 4z"/>
      <path class="fil5" d="M44 42l-1 -1 -1 0c0,0 0,0 0,-1l1 4c0,0 0,1 0,1l0 0c0,0 1,-1 1,-1 0,-1 0,-1 0,-1 0,0 0,0 0,-1z"/>
      <path class="fil4" d="M44 5l-2 0c0,0 0,0 0,0l0 -3c0,0 0,-1 1,-1l1 0c0,0 1,1 1,2l0 2c0,0 -1,0 -1,0z"/>
      <path class="fil5" d="M44 3c0,0 0,0 0,0 0,0 -1,0 -1,0l0 -2 0 0c-1,0 -1,1 -1,1l0 3c0,0 0,0 0,0l2 0c0,0 1,0 1,0l0 -2 -1 0z"/>
      <path class="fil6" d="M44 41l-2 0c0,0 0,-1 0,-1l0 -34c0,-1 0,-1 0,-1l2 0c1,0 1,0 1,1l0 34c0,0 0,1 -1,1z"/>
      <path class="fil4" d="M44 39c-1,0 -1,0 -1,-1l0 -33 -1 0c0,0 0,0 0,1l0 34c0,0 0,1 0,1l2 0c1,0 1,-1 1,-1l0 -1 -1 0z"/>
      <polygon class="fil7" points="42,30 45,30 45,35 42,35 "/>
      <polygon class="fil8" points="42,35 42,30 43,30 43,35 "/>
      <polygon class="fil5" points="42,5 45,5 45,30 42,30 "/>
      <polygon class="fil9" points="42,5 42,30 42,30 43,30 43,5 "/>
     </g>
    </g>
    <path class="fil10" d="M16 19l2 0c0,0 1,0 1,-1 0,0 0,0 0,-1 0,0 0,-1 0,-1 0,0 -1,0 -1,0 -1,0 -1,0 -1,0 -1,0 -1,0 -1,1l-2 0c0,-1 0,-1 0,-2 1,0 1,-1 2,-1 0,0 1,0 2,0 1,0 2,0 3,0 0,1 1,2 1,3 0,1 0,1 -1,2 0,0 -1,0 -1,1 1,0 1,0 1,1 1,0 1,1 1,1 0,2 0,2 -1,3 -1,1 -2,1 -3,1 -2,0 -3,0 -3,-1 -1,-1 -1,-1 -1,-2l2 0c0,0 0,0 0,1 1,0 1,0 2,0 0,0 1,0 1,0 0,-1 1,-1 1,-2 0,-1 -1,-1 -2,-1l-2 0 0 -2zm15 0c0,2 0,3 -1,4 -1,1 -2,2 -3,2 -1,0 -2,-1 -3,-2 -1,-1 -1,-2 -1,-4l0 -2c0,-1 0,-3 1,-4 1,0 2,-1 3,-1 1,0 2,1 3,1 1,1 1,2 1,4l0 2zm-2 -2c0,-1 -1,-2 -1,-2 0,-1 -1,-1 -1,-1 -1,0 -1,0 -1,1 -1,0 -1,1 -1,2l0 3c0,1 0,1 1,2 0,0 0,1 1,1 0,0 1,-1 1,-1 0,-1 1,-1 1,-2l0 -3z"/>
   </g>
   <g>
    <path class="fil11" d="M0 39c0,-5 4,-9 9,-9 5,0 9,4 9,9 0,5 -4,9 -9,9 -5,0 -9,-4 -9,-9z"/>
    <path class="fil12" d="M14 36c0,0 0,0 -1,0 -1,1 0,1 0,1 0,1 0,2 0,2 0,3 -2,5 -4,5 -2,0 -4,-2 -4,-5 0,-2 1,-4 3,-4l0 1c0,0 0,0 0,0 1,0 1,0 1,0l3 -2c0,0 0,0 0,0 0,0 0,0 0,0l-3 -2c0,0 0,0 -1,0 0,0 0,0 0,0l0 1c-3,0 -5,3 -5,6 0,4 2,6 6,6 3,0 6,-2 6,-6 0,-1 0,-2 -1,-3z"/>
   </g>
  </g>
 </g>
</svg>
