<?xml version="1.0" encoding="UTF-8"?>
<!DOCTYPE svg PUBLIC "-//W3C//DTD SVG 1.1//EN" "http://www.w3.org/Graphics/SVG/1.1/DTD/svg11.dtd">
<!-- Creator: CorelDRAW X7 -->
<svg xmlns="http://www.w3.org/2000/svg" xml:space="preserve" width="120px" height="120px" version="1.1" style="shape-rendering:geometricPrecision; text-rendering:geometricPrecision; image-rendering:optimizeQuality; fill-rule:evenodd; clip-rule:evenodd"
viewBox="0 0 120 120"
 xmlns:xlink="http://www.w3.org/1999/xlink">
 <defs>
  <style type="text/css">
   <![CDATA[
    .fil0 {fill:none}
    .fil2 {fill:#FEFEFE}
    .fil3 {fill:#1CC8EB}
    .fil1 {fill:#2887D2}
    .fil5 {fill:#FC4D44}
    .fil4 {fill:url(#id0);fill-rule:nonzero}
   ]]>
  </style>
  <linearGradient id="id0" gradientUnits="userSpaceOnUse" x1="36.6858" y1="74.8267" x2="63.1701" y2="46.019">
   <stop offset="0" style="stop-opacity:1; stop-color:#FCE550"/>
   <stop offset="1" style="stop-opacity:1; stop-color:#F9FFAB"/>
  </linearGradient>
 </defs>
 <g id="Layer_x0020_1">
  <metadata id="CorelCorpID_0Corel-Layer"/>
  <rect class="fil0" width="120" height="120"/>
  <g id="_690118808">
   <g>
    <g>
     <path class="fil1" d="M18 118l74 0c3,0 5,-3 5,-6l0 -95c0,-3 -2,-6 -5,-6l-74 0 0 0 -8 0 0 107 8 0z"/>
     <rect class="fil2" x="18" y="14" width="76.6205" height="100.277"/>
     <path class="fil3" d="M18 11l58 -9c3,0 5,3 5,6l0 89c0,4 -2,6 -5,6l-58 10 0 -102z"/>
    </g>
    <path class="fil4" d="M35 60l3 0c2,0 3,-1 4,-2 0,0 1,-1 1,-3 0,-1 -1,-2 -1,-3 -1,0 -2,-1 -4,-1 -1,0 -2,1 -2,1 -1,1 -2,2 -2,3l-6 0c0,-2 1,-3 2,-4 0,-2 2,-3 3,-3 2,-1 3,-1 5,-1 4,0 6,0 8,2 2,1 3,4 3,6 0,2 -1,3 -2,4 0,1 -2,2 -3,3 2,1 3,1 4,3 1,1 1,2 1,4 0,3 -1,5 -3,7 -2,1 -4,2 -8,2 -3,0 -5,-1 -7,-2 -2,-2 -3,-4 -3,-7l6 0c0,1 0,2 1,3 1,1 2,1 3,1 2,0 3,0 4,-1 1,-1 1,-2 1,-3 0,-3 -2,-5 -5,-5l-3 0 0 -4zm37 1c0,4 -1,8 -3,10 -1,2 -4,3 -7,3 -4,0 -6,-1 -8,-3 -2,-2 -3,-5 -3,-10l0 -5c0,-4 1,-8 3,-10 2,-2 4,-3 8,-3 3,0 5,1 7,3 2,2 3,5 3,10l0 5zm-6 -6c0,-3 0,-4 -1,-6 -1,-1 -2,-1 -3,-1 -2,0 -3,0 -4,1 0,1 -1,3 -1,5l0 8c0,2 1,4 1,6 1,1 2,1 4,1 1,0 2,0 3,-1 1,-2 1,-3 1,-6l0 -7z"/>
   </g>
   <path class="fil5" d="M98 79c15,-14 16,-38 2,-53 -14,-15 -37,-17 -52,-4l-6 -6 -1 20 21 1 -7 -7c11,-9 27,-8 37,3 10,11 16,36 5,46l1 0z"/>
  </g>
 </g>
</svg>
