<?xml version="1.0" encoding="UTF-8"?>
<!DOCTYPE svg PUBLIC "-//W3C//DTD SVG 1.1//EN" "http://www.w3.org/Graphics/SVG/1.1/DTD/svg11.dtd">
<!-- Creator: CorelDRAW X7 -->
<svg xmlns="http://www.w3.org/2000/svg" xml:space="preserve" width="42px" height="48px" version="1.1" style="shape-rendering:geometricPrecision; text-rendering:geometricPrecision; image-rendering:optimizeQuality; fill-rule:evenodd; clip-rule:evenodd"
viewBox="0 0 42 48"
 xmlns:xlink="http://www.w3.org/1999/xlink">
 <defs>
  <style type="text/css">
   <![CDATA[
    .fil1 {fill:#FEFEFE}
    .fil3 {fill:black}
    .fil2 {fill:#1CC8EB}
    .fil0 {fill:#2887D2}
    .fil8 {fill:#0083FD;fill-rule:nonzero}
    .fil7 {fill:#0094FD;fill-rule:nonzero}
    .fil9 {fill:#22A7FF;fill-rule:nonzero}
    .fil5 {fill:#60B8FF;fill-rule:nonzero}
    .fil4 {fill:#B4DBFF;fill-rule:nonzero}
    .fil6 {fill:#D9EDFF;fill-rule:nonzero}
    .fil10 {fill:#F9FFAB;fill-rule:nonzero}
    .fil11 {fill:url(#id0);fill-rule:nonzero}
   ]]>
  </style>
  <linearGradient id="id0" gradientUnits="userSpaceOnUse" x1="8.2681" y1="32.2518" x2="26.4866" y2="12.4345">
   <stop offset="0" style="stop-opacity:1; stop-color:#FCE550"/>
   <stop offset="1" style="stop-opacity:1; stop-color:#F9FFAB"/>
  </linearGradient>
 </defs>
 <g id="Layer_x0020_1">
  <metadata id="CorelCorpID_0Corel-Layer"/>
  <g id="_684749856">
   <g>
    <path class="fil0" d="M3 47l30 0c2,0 3,-1 3,-2l0 -39c0,-1 -1,-2 -3,-2l-30 0 0 0 -3 0 0 43 3 0z"/>
    <rect class="fil1" x="3" y="5" width="31.3742" height="41.0609"/>
    <path class="fil2" d="M3 4l27 -4c2,0 3,1 3,2l0 37c0,1 -1,2 -3,2l-27 4 0 -41z"/>
    <g>
     <path class="fil3" d="M40 45l0 0c0,0 0,0 0,1l0 1 0 1c0,-1 0,-1 0,-1l0 -1c0,-1 0,-1 0,-1z"/>
     <path class="fil4" d="M41 46c-1,0 -1,0 -1,0l0 0c0,0 0,0 0,0l-1 -4c0,0 0,0 0,0l2 0c0,0 1,0 1,0l-1 4z"/>
     <path class="fil5" d="M41 44l-1 -2 -1 0c0,0 0,0 0,0l1 4c0,0 0,0 0,0l0 0c0,0 0,0 1,0 0,-1 0,-1 0,-1 0,-1 0,0 0,-1z"/>
     <path class="fil4" d="M41 5l-2 0c0,0 0,0 0,0l0 -2c0,-1 0,-2 0,-2l2 1c0,0 1,0 1,1l0 2c0,0 -1,0 -1,0z"/>
     <path class="fil5" d="M41 3c0,0 0,0 0,0 0,0 -1,0 -1,0l0 -1 -1 -1c0,0 0,1 0,2l0 2c0,0 0,0 0,0l2 0c0,0 1,0 1,0l0 -2 -1 0z"/>
     <path class="fil6" d="M41 43l-2 0c0,0 -1,-1 -1,-2l1 -35c0,0 0,-1 0,-1l2 0c1,0 1,1 1,1l0 35c0,1 0,2 -1,2z"/>
     <path class="fil4" d="M40 41c0,0 0,-1 0,-2l0 -34 -1 0c0,0 0,1 0,1l-1 35c0,1 1,2 1,2l2 0c1,0 1,-1 1,-2l0 0 -2 0z"/>
     <polygon class="fil7" points="38,31 42,31 42,37 38,37 "/>
     <polygon class="fil8" points="38,37 38,31 40,31 40,37 "/>
     <polygon class="fil5" points="38,6 42,6 42,31 38,31 "/>
     <polygon class="fil9" points="38,6 38,31 38,31 40,31 40,6 "/>
    </g>
   </g>
   <path class="fil10" d="M10 22l1 0c1,0 1,0 2,0 0,-1 0,-1 0,-1 0,-1 0,-1 0,-1 -1,-1 -1,-1 -1,-1 -1,0 -1,0 -1,0 -1,1 -1,1 -1,1l-2 0c0,0 0,-1 0,-1 1,-1 1,-1 2,-1 0,0 1,-1 2,-1 1,0 2,1 2,1 1,1 1,2 1,3 0,0 0,0 0,1 -1,0 -1,1 -1,1 0,0 1,0 1,1 0,0 0,1 0,1 0,1 0,2 -1,3 0,0 -1,1 -2,1 -2,0 -2,-1 -3,-1 -1,-1 -1,-2 -1,-2l2 0c0,0 0,0 0,1 1,0 1,0 2,0 0,0 1,0 1,-1 0,0 0,0 0,-1 0,-1 0,-1 -2,-1l-1 0 0 -2zm14 1c0,1 -1,2 -1,3 -1,1 -2,1 -3,1 -1,0 -2,0 -3,-1 -1,-1 -1,-2 -1,-3l0 -2c0,-2 0,-3 1,-4 1,-1 2,-1 3,-1 1,0 2,0 3,1 0,1 1,2 1,4l0 2zm-3 -3c0,-1 0,-1 0,-2 0,0 -1,0 -1,0 -1,0 -1,0 -1,0 -1,1 -1,1 -1,2l0 3c0,1 0,1 1,2 0,0 0,1 1,1 0,0 1,-1 1,-1 0,0 0,-1 0,-2l0 -3z"/>
   <path class="fil11" d="M31 20c0,0 0,0 0,0l-2 0c-1,-6 -6,-11 -13,-11 -7,0 -13,6 -13,13 0,8 6,13 13,13 5,0 9,-2 12,-6 0,-1 0,-1 -1,-2 0,0 -1,0 -1,1 -2,3 -6,5 -10,5 -6,0 -10,-5 -10,-11 0,-6 4,-10 10,-10 5,0 10,3 11,8l-2 0c0,0 0,0 -1,0 0,1 0,1 1,1l3 4c0,0 0,0 0,0 0,0 0,0 0,0l3 -4c1,0 1,0 0,-1z"/>
  </g>
 </g>
</svg>
