<?xml version="1.0" encoding="UTF-8"?>
<!DOCTYPE svg PUBLIC "-//W3C//DTD SVG 1.1//EN" "http://www.w3.org/Graphics/SVG/1.1/DTD/svg11.dtd">
<!-- Creator: CorelDRAW X7 -->
<svg xmlns="http://www.w3.org/2000/svg" xml:space="preserve" width="120px" height="120px" version="1.1" style="shape-rendering:geometricPrecision; text-rendering:geometricPrecision; image-rendering:optimizeQuality; fill-rule:evenodd; clip-rule:evenodd"
viewBox="0 0 120 120"
 xmlns:xlink="http://www.w3.org/1999/xlink">
 <defs>
  <style type="text/css">
   <![CDATA[
    .fil0 {fill:none}
    .fil2 {fill:#FEFEFE}
    .fil3 {fill:#1CC8EB}
    .fil1 {fill:#2887D2}
    .fil5 {fill:#FC4D44}
    .fil4 {fill:url(#id0);fill-rule:nonzero}
   ]]>
  </style>
  <linearGradient id="id0" gradientUnits="userSpaceOnUse" x1="36.5251" y1="77.411" x2="64.1741" y2="47.336">
   <stop offset="0" style="stop-opacity:1; stop-color:#FCE550"/>
   <stop offset="1" style="stop-opacity:1; stop-color:#F9FFAB"/>
  </linearGradient>
 </defs>
 <g id="Layer_x0020_1">
  <metadata id="CorelCorpID_0Corel-Layer"/>
  <rect class="fil0" width="120" height="120"/>
  <g id="_679898704">
   <g>
    <g>
     <path class="fil1" d="M18 118l74 0c3,0 5,-3 5,-6l0 -95c0,-3 -2,-6 -5,-6l-74 0 0 0 -8 0 0 107 8 0z"/>
     <rect class="fil2" x="18" y="14" width="76.6199" height="100.277"/>
     <path class="fil3" d="M18 11l58 -9c3,0 5,3 5,6l0 89c0,4 -2,6 -5,6l-58 10 0 -102z"/>
    </g>
    <path class="fil4" d="M30 64l3 0c1,0 2,0 2,-1 1,0 1,-1 1,-2 0,-1 0,-2 -1,-2 0,-1 -1,-1 -2,-1 -1,0 -2,0 -2,1 -1,0 -1,1 -1,2l-5 0c0,-2 0,-3 1,-4 1,-1 2,-1 3,-2 1,0 2,-1 4,-1 2,0 4,1 6,2 1,1 2,3 2,5 0,1 -1,2 -1,3 -1,1 -2,2 -3,2 2,1 3,1 3,2 1,1 1,2 1,4 0,2 -1,3 -2,5 -2,1 -4,1 -6,1 -3,0 -4,0 -6,-1 -1,-2 -2,-3 -2,-5l4 0c0,1 1,1 1,2 1,0 2,1 3,1 1,0 2,-1 3,-1 0,-1 0,-2 0,-3 0,-2 -1,-3 -3,-3l-3 0 0 -4zm25 -14l0 4 0 0c-2,0 -4,1 -5,2 -2,1 -2,2 -3,4 2,-1 3,-2 5,-2 2,0 4,1 5,2 1,2 2,4 2,6 0,2 0,3 -1,4 -1,2 -2,3 -3,3 -1,1 -3,1 -4,1 -3,0 -5,-1 -6,-2 -2,-2 -2,-4 -2,-7l0 -2c0,-2 0,-5 1,-7 1,-2 2,-3 4,-4 2,-1 4,-2 7,-2l0 0zm-4 12c-1,0 -2,0 -2,1 -1,0 -1,1 -2,1l0 2c0,1 1,2 1,3 1,1 2,2 3,2 1,0 2,-1 2,-2 1,0 1,-1 1,-3 0,-1 0,-2 -1,-3 0,-1 -1,-1 -2,-1zm10 -4l1 -12 13 0 0 4 -9 0 -1 5c1,0 2,-1 4,-1 2,0 4,1 5,2 1,2 2,4 2,6 0,2 0,3 -1,4 -1,2 -2,3 -3,3 -1,1 -2,1 -4,1 -1,0 -3,0 -4,-1 -1,0 -2,-1 -3,-2 -1,-1 -1,-2 -1,-4l5 0c0,1 0,2 1,3 0,0 1,0 2,0 1,0 2,0 2,-1 1,-1 1,-2 1,-3 0,-1 0,-2 -1,-3 0,-1 -1,-1 -3,-1 -1,0 -2,0 -2,1l-1 0 -3 -1z"/>
   </g>
   <path class="fil5" d="M98 79c15,-14 16,-38 2,-53 -14,-16 -37,-17 -52,-4l-6 -6 -1 20 21 1 -7 -7c11,-9 27,-8 37,3 10,11 16,35 5,45l1 1z"/>
  </g>
 </g>
</svg>
