<?xml version="1.0" encoding="UTF-8"?>
<!DOCTYPE svg PUBLIC "-//W3C//DTD SVG 1.1//EN" "http://www.w3.org/Graphics/SVG/1.1/DTD/svg11.dtd">
<!-- Creator: CorelDRAW X7 -->
<svg xmlns="http://www.w3.org/2000/svg" xml:space="preserve" width="42px" height="48px" version="1.1" style="shape-rendering:geometricPrecision; text-rendering:geometricPrecision; image-rendering:optimizeQuality; fill-rule:evenodd; clip-rule:evenodd"
viewBox="0 0 42 48"
 xmlns:xlink="http://www.w3.org/1999/xlink">
 <defs>
  <style type="text/css">
   <![CDATA[
    .fil1 {fill:#FEFEFE}
    .fil3 {fill:black}
    .fil2 {fill:#1CC8EB}
    .fil0 {fill:#2887D2}
    .fil8 {fill:#0083FD;fill-rule:nonzero}
    .fil7 {fill:#0094FD;fill-rule:nonzero}
    .fil9 {fill:#22A7FF;fill-rule:nonzero}
    .fil5 {fill:#60B8FF;fill-rule:nonzero}
    .fil4 {fill:#B4DBFF;fill-rule:nonzero}
    .fil6 {fill:#D9EDFF;fill-rule:nonzero}
    .fil10 {fill:url(#id0);fill-rule:nonzero}
    .fil11 {fill:url(#id1);fill-rule:nonzero}
   ]]>
  </style>
  <linearGradient id="id0" gradientUnits="userSpaceOnUse" x1="11.0884" y1="29.0353" x2="20.2464" y2="19.0732">
   <stop offset="0" style="stop-opacity:1; stop-color:#FCE550"/>
   <stop offset="1" style="stop-opacity:1; stop-color:#F9FFAB"/>
  </linearGradient>
  <linearGradient id="id1" gradientUnits="userSpaceOnUse" xlink:href="#id0" x1="8.27045" y1="33.7966" x2="26.4866" y2="13.9816">
  </linearGradient>
 </defs>
 <g id="Layer_x0020_1">
  <metadata id="CorelCorpID_0Corel-Layer"/>
  <g id="_789141456">
   <g>
    <g>
     <path class="fil0" d="M3 48l30 0c2,0 3,-2 3,-3l0 -39c0,-1 -1,-2 -3,-2l-30 0 0 0 -3 0 0 44 3 0z"/>
     <rect class="fil1" x="3" y="5" width="31.3744" height="41.0611"/>
     <path class="fil2" d="M3 4l27 -4c2,0 3,1 3,2l0 37c0,1 -1,2 -3,2l-27 4 0 -41z"/>
     <g>
      <path class="fil3" d="M40 45l0 0c0,0 0,0 0,1l0 1 0 1c0,-1 0,-1 0,-1l0 -1c0,-1 0,-1 0,-1z"/>
      <path class="fil4" d="M41 46c-1,0 -1,0 -1,0l0 0c0,0 0,0 0,0l-1 -4c0,0 0,0 0,0l2 0c0,0 1,0 1,0l-1 4z"/>
      <path class="fil5" d="M41 44l-1 -2 -1 0c0,0 0,0 0,0l1 4c0,0 0,0 0,0l0 0c0,0 0,0 1,0 0,-1 0,-1 0,-1 0,-1 0,0 0,-1z"/>
      <path class="fil4" d="M41 5l-2 0c0,0 0,0 0,0l0 -2c0,-1 0,-2 0,-2l2 1c0,0 1,0 1,1l0 2c0,0 -1,0 -1,0z"/>
      <path class="fil5" d="M41 3c0,0 0,0 0,0 0,0 -1,0 -1,0l0 -1 -1 -1c0,0 0,1 0,2l0 2c0,0 0,0 0,0l2 0c0,0 1,0 1,0l0 -2 -1 0z"/>
      <path class="fil6" d="M41 43l-2 0c0,0 -1,-1 -1,-2l1 -35c0,0 0,-1 0,-1l2 0c1,0 1,1 1,1l0 35c0,1 0,2 -1,2z"/>
      <path class="fil4" d="M40 41c0,0 0,-1 0,-2l0 -34 -1 0c0,0 0,1 0,1l-1 35c0,1 1,2 1,2l2 0c1,0 1,-1 1,-2l0 0 -2 0z"/>
      <polygon class="fil7" points="38,31 42,31 42,37 38,37 "/>
      <polygon class="fil8" points="38,37 38,31 40,31 40,37 "/>
      <polygon class="fil5" points="38,6 42,6 42,31 38,31 "/>
      <polygon class="fil9" points="38,6 38,31 38,31 40,31 40,6 "/>
     </g>
    </g>
    <path class="fil10" d="M9 25l1 0c0,0 0,0 1,-1 0,0 0,0 0,0 0,-1 0,-1 0,-1 -1,0 -1,0 -1,0 0,0 -1,0 -1,0 0,0 0,0 0,0l-2 0c0,0 0,0 1,-1 0,0 0,0 1,0 0,-1 0,-1 1,-1 1,0 1,1 2,1 0,0 0,1 0,2 0,0 0,0 0,1 0,0 0,0 -1,0 1,0 1,1 1,1 1,0 1,1 1,1 0,1 -1,1 -1,2 -1,0 -1,0 -2,0 -1,0 -2,0 -2,0 -1,-1 -1,-1 -1,-2l2 0c0,0 0,1 0,1 0,0 1,0 1,0 0,0 1,0 1,0 0,0 0,-1 0,-1 0,-1 0,-1 -1,-1l-1 0 0 -1zm8 -5l0 1 0 0c-1,0 -1,0 -2,1 0,0 0,1 0,1 0,0 1,0 1,0 1,0 1,0 2,0 0,1 0,2 0,2 0,1 0,1 0,2 0,0 0,0 -1,1 0,0 -1,0 -1,0 -1,0 -2,0 -2,-1 -1,0 -1,-1 -1,-2l0 -1c0,-1 0,-1 1,-2 0,-1 0,-1 1,-1 1,-1 1,-1 2,-1l0 0zm-1 4c0,0 -1,0 -1,0 0,0 0,0 0,1l0 0c0,1 0,1 0,1 0,1 0,1 1,1 0,0 0,0 1,-1 0,0 0,0 0,-1 0,0 0,0 0,-1 -1,0 -1,0 -1,0zm3 -1l1 -4 4 0 0 1 -3 0 0 2c0,-1 0,-1 1,-1 1,0 1,1 2,1 0,1 0,1 0,2 0,1 0,1 0,1 0,1 -1,1 -1,1 0,1 -1,1 -2,1 0,0 0,0 -1,-1 0,0 -1,0 -1,0 0,-1 0,-1 0,-2l1 0c0,1 1,1 1,1 0,0 0,0 0,0 1,0 1,0 1,0 0,0 1,-1 1,-1 0,-1 -1,-1 -1,-1 0,0 0,0 -1,0 0,0 0,0 -1,0l0 0 -1 0z"/>
   </g>
   <path class="fil11" d="M31 22c0,0 0,0 0,0l-2 0c-1,-7 -6,-11 -13,-11 -7,0 -13,6 -13,13 0,7 6,13 13,13 5,0 9,-3 12,-7 0,0 0,-1 -1,-1 0,-1 -1,0 -1,0 -2,4 -6,6 -10,6 -6,0 -10,-5 -10,-11 0,-6 4,-11 10,-11 5,0 10,4 11,9l-2 0c0,0 0,0 -1,0 0,0 0,0 1,0l3 4c0,0 0,0 0,0 0,0 0,0 0,0l3 -4c1,0 1,0 0,0z"/>
  </g>
 </g>
</svg>
