<?xml version="1.0" encoding="UTF-8"?>
<!DOCTYPE svg PUBLIC "-//W3C//DTD SVG 1.1//EN" "http://www.w3.org/Graphics/SVG/1.1/DTD/svg11.dtd">
<!-- Creator: CorelDRAW X7 -->
<svg xmlns="http://www.w3.org/2000/svg" xml:space="preserve" width="116px" height="115px" version="1.1" style="shape-rendering:geometricPrecision; text-rendering:geometricPrecision; image-rendering:optimizeQuality; fill-rule:evenodd; clip-rule:evenodd"
viewBox="0 0 116 115"
 xmlns:xlink="http://www.w3.org/1999/xlink">
 <defs>
  <style type="text/css">
   <![CDATA[
    .fil2 {fill:black}
    .fil0 {fill:#1DC0E8;fill-rule:nonzero}
    .fil1 {fill:url(#id0)}
   ]]>
  </style>
  <linearGradient id="id0" gradientUnits="userSpaceOnUse" x1="29.225" y1="77.5696" x2="107.096" y2="41.7918">
   <stop offset="0" style="stop-opacity:1; stop-color:#2887D2"/>
   <stop offset="0.329412" style="stop-opacity:1; stop-color:#22A7DE"/>
   <stop offset="1" style="stop-opacity:1; stop-color:#1CC8EB"/>
  </linearGradient>
 </defs>
 <g id="Layer_x0020_1">
  <metadata id="CorelCorpID_0Corel-Layer"/>
  <g id="_639945992">
   <g>
    <polygon class="fil0" points="113,60 112,50 113,50 113,60 "/>
   </g>
   <g>
    <polygon class="fil0" points="110,58 75,78 75,78 109,57 "/>
   </g>
   <path class="fil1" d="M27 44c0,0 33,-14 39,-15 5,-1 16,5 48,16 2,1 1,3 -1,5 -1,0 -2,1 -3,1 -4,2 -37,21 -39,23 -2,2 -3,7 -1,10 1,2 8,-2 12,-4 20,-12 28,-18 30,-20 1,-1 2,-1 3,-1 0,0 1,0 1,1 -1,2 -16,12 -21,15 -5,4 -21,14 -24,15 -3,1 -6,0 -9,-2 -2,-2 -36,-25 -39,-27 -3,-3 -3,-9 -2,-12 1,-3 6,-5 6,-5z"/>
   <path class="fil2" d="M83 15c0,0 -17,-15 -36,-8 -61,20 -44,121 10,100 16,-6 27,-18 27,-18 0,0 -12,22 -35,25 -66,10 -64,-104 -1,-114 16,-2 31,8 35,10 1,2 3,3 3,3l7 -4 0 19 -17 -9 7 -4 0 0z"/>
  </g>
 </g>
</svg>
