<?xml version="1.0" encoding="UTF-8"?>
<!DOCTYPE svg PUBLIC "-//W3C//DTD SVG 1.1//EN" "http://www.w3.org/Graphics/SVG/1.1/DTD/svg11.dtd">
<!-- Creator: CorelDRAW X7 -->
<svg xmlns="http://www.w3.org/2000/svg" xml:space="preserve" width="120px" height="120px" version="1.1" style="shape-rendering:geometricPrecision; text-rendering:geometricPrecision; image-rendering:optimizeQuality; fill-rule:evenodd; clip-rule:evenodd"
viewBox="0 0 120 120"
 xmlns:xlink="http://www.w3.org/1999/xlink">
 <defs>
  <style type="text/css">
   <![CDATA[
    .fil0 {fill:none}
    .fil2 {fill:#FEFEFE}
    .fil4 {fill:black}
    .fil3 {fill:#1CC8EB}
    .fil1 {fill:#2887D2}
    .fil12 {fill:#FC4D44}
    .fil9 {fill:#0083FD;fill-rule:nonzero}
    .fil8 {fill:#0094FD;fill-rule:nonzero}
    .fil10 {fill:#22A7FF;fill-rule:nonzero}
    .fil6 {fill:#60B8FF;fill-rule:nonzero}
    .fil5 {fill:#B4DBFF;fill-rule:nonzero}
    .fil7 {fill:#D9EDFF;fill-rule:nonzero}
    .fil11 {fill:url(#id0);fill-rule:nonzero}
   ]]>
  </style>
  <linearGradient id="id0" gradientUnits="userSpaceOnUse" x1="46.736" y1="77.9165" x2="76.1283" y2="45.947">
   <stop offset="0" style="stop-opacity:1; stop-color:#FCE550"/>
   <stop offset="1" style="stop-opacity:1; stop-color:#F9FFAB"/>
  </linearGradient>
 </defs>
 <g id="Layer_x0020_1">
  <metadata id="CorelCorpID_0Corel-Layer"/>
  <rect class="fil0" width="120" height="120"/>
  <g id="_647560776">
   <g>
    <g>
     <path class="fil1" d="M28 117l70 0c3,0 5,-3 5,-6l0 -90c0,-3 -2,-6 -5,-6l-70 0 0 0 -8 0 0 102 8 0z"/>
     <rect class="fil2" x="28" y="18" width="73.0066" height="95.5488"/>
     <path class="fil3" d="M28 15l63 -9c3,0 5,3 5,6l0 85c0,3 -2,5 -5,6l-63 9 0 -97z"/>
     <g>
      <path class="fil4" d="M113 111l0 0c0,0 0,1 0,1l0 5 1 0c0,0 0,0 0,-1l0 -4c0,0 -1,-1 -1,-1z"/>
      <path class="fil5" d="M115 113c0,1 -1,1 -1,1l-1 0c0,0 -1,0 -1,-1l-2 -10c0,1 1,2 1,2l5 0c0,0 1,-1 1,-1l-2 9z"/>
      <path class="fil6" d="M115 109l-1 -4 -3 0c0,0 -1,-1 -1,-2l2 10c0,1 1,1 1,1l1 0c0,0 1,0 1,-1 0,-2 0,-3 0,-3 0,0 0,0 0,-1z"/>
      <path class="fil5" d="M117 18l-5 0c-1,0 -1,0 -1,0l0 -6c0,-1 0,-2 1,-2l4 0c1,0 1,1 1,2l0 7c0,-1 0,-1 0,-1z"/>
      <path class="fil6" d="M115 14c0,0 0,0 0,0 0,0 -1,-1 -1,-1l0 -3 -2 0c-1,0 -1,1 -1,2l0 6c0,0 0,0 1,0l5 0c0,0 0,0 0,1l0 -5 -2 0z"/>
      <path class="fil7" d="M116 105l-5 0c-1,0 -1,-1 -1,-3l0 -81c0,-2 1,-3 2,-3l5 0c0,0 1,1 1,3l0 81c0,2 -1,3 -2,3z"/>
      <path class="fil5" d="M115 101c-1,0 -2,-1 -2,-3l0 -80 -1 0c-1,0 -2,1 -2,3l0 81c0,2 0,3 1,3l5 0c1,0 2,-1 2,-3l0 -1 -3 0z"/>
      <polygon class="fil8" points="110,79 118,79 118,92 110,92 "/>
      <polygon class="fil9" points="110,92 110,79 113,79 113,92 "/>
      <polygon class="fil6" points="110,19 118,19 118,79 110,79 "/>
      <polygon class="fil10" points="110,19 110,78 110,79 113,79 113,19 "/>
     </g>
    </g>
    <path class="fil11" d="M40 64l3 0c1,0 2,0 2,-1 1,-1 1,-1 1,-2 0,-1 0,-2 -1,-3 0,0 -1,-1 -2,-1 -1,0 -2,1 -3,1 0,1 0,1 0,2l-5 0c0,-1 0,-2 1,-3 0,-1 1,-2 3,-3 1,0 2,-1 4,-1 2,0 5,1 6,2 2,1 2,3 2,5 0,2 0,3 -1,4 0,1 -1,1 -3,2 2,0 3,1 4,2 0,1 1,2 1,4 0,2 -1,4 -3,5 -1,1 -4,2 -6,2 -3,0 -5,-1 -6,-2 -2,-1 -3,-3 -3,-5l5 0c0,1 1,2 1,2 1,1 2,1 3,1 1,0 2,0 3,-1 0,-1 1,-1 1,-2 0,-3 -2,-4 -4,-4l-3 0 0 -4zm27 -15l0 4 -1 0c-2,0 -4,1 -5,2 -2,1 -2,3 -3,5 2,-2 3,-2 5,-2 3,0 4,0 6,2 1,1 1,3 1,6 0,2 0,3 -1,4 0,2 -1,3 -3,4 -1,0 -2,1 -4,1 -3,0 -5,-1 -6,-3 -2,-2 -3,-4 -3,-7l0 -2c0,-3 1,-5 2,-7 1,-3 2,-4 4,-5 2,-1 4,-2 7,-2l1 0zm-5 13c-1,0 -2,0 -2,0 -1,1 -1,1 -2,2l0 1c0,2 1,3 1,4 1,1 2,2 3,2 1,0 2,-1 3,-2 0,0 1,-2 1,-3 0,-1 -1,-2 -1,-3 -1,-1 -2,-1 -3,-1zm10 -4l2 -13 14 0 0 4 -10 0 -1 5c1,0 3,-1 4,-1 2,0 4,1 6,3 1,1 2,3 2,6 0,1 -1,3 -1,4 -1,1 -2,2 -3,3 -2,1 -3,1 -5,1 -1,0 -3,0 -4,-1 -1,0 -2,-1 -3,-2 -1,-1 -1,-3 -1,-4l5 0c0,1 0,2 1,2 0,1 1,1 2,1 1,0 2,0 3,-1 0,-1 1,-2 1,-3 0,-2 -1,-3 -1,-4 -1,0 -2,-1 -3,-1 -2,0 -3,0 -3,1l-1 1 -4 -1z"/>
   </g>
   <path class="fil12" d="M20 73c-17,-9 -23,-31 -13,-49 9,-17 30,-23 47,-14l4 -7 5 18 -18 5 4 -7c-12,-6 -27,-2 -33,10 -7,12 -8,37 5,44l-1 0z"/>
  </g>
 </g>
</svg>
