<?xml version="1.0" encoding="UTF-8"?>
<!DOCTYPE svg PUBLIC "-//W3C//DTD SVG 1.1//EN" "http://www.w3.org/Graphics/SVG/1.1/DTD/svg11.dtd">
<!-- Creator: CorelDRAW X7 -->
<svg xmlns="http://www.w3.org/2000/svg" xml:space="preserve" width="120px" height="120px" version="1.1" style="shape-rendering:geometricPrecision; text-rendering:geometricPrecision; image-rendering:optimizeQuality; fill-rule:evenodd; clip-rule:evenodd"
viewBox="0 0 120 120"
 xmlns:xlink="http://www.w3.org/1999/xlink">
 <defs>
  <style type="text/css">
   <![CDATA[
    .fil0 {fill:none}
    .fil2 {fill:#F58634}
    .fil10 {fill:#ED3237}
    .fil3 {fill:#C73538}
    .fil6 {fill:#51A8B1}
    .fil8 {fill:#0098DA}
    .fil1 {fill:#1CC8EB}
    .fil4 {fill:#2887D2}
    .fil5 {fill:#E32210}
    .fil9 {fill:#FCBC44}
    .fil7 {fill:#2887D2;fill-rule:nonzero}
   ]]>
  </style>
 </defs>
 <g id="Layer_x0020_1">
  <metadata id="CorelCorpID_0Corel-Layer"/>
  <rect class="fil0" width="120" height="120"/>
  <rect class="fil0" x="35" y="35" width="49.9994" height="49.9994"/>
  <g id="_690104672">
   <rect class="fil1" x="2" y="53" width="13.1068" height="13.1069"/>
   <rect class="fil2" x="44" y="12" width="13.1068" height="13.1069"/>
   <rect class="fil3" x="44" y="53" width="13.1068" height="13.1069"/>
   <rect class="fil4" x="44" y="95" width="13.1068" height="13.1069"/>
   <g>
    <rect class="fil5" x="93" y="2" width="25.1658" height="13.1069"/>
    <rect class="fil6" x="93" y="23" width="25.1658" height="13.1069"/>
   </g>
   <g>
    <g>
     <polygon class="fil7" points="90,8 61,21 60,20 89,7 "/>
    </g>
    <g>
     <polygon class="fil7" points="90,30 89,31 60,21 61,20 "/>
    </g>
   </g>
   <g>
    <rect class="fil8" x="93" y="43" width="25.1658" height="13.1069"/>
    <rect class="fil9" x="93" y="64" width="25.1658" height="13.1069"/>
   </g>
   <g>
    <g>
     <polygon class="fil7" points="90,49 61,62 60,61 89,48 "/>
    </g>
    <g>
     <polygon class="fil7" points="90,71 89,72 60,62 61,61 "/>
    </g>
   </g>
   <g>
    <rect class="fil10" x="93" y="84" width="25.1658" height="13.1069"/>
    <rect class="fil1" x="93" y="105" width="25.1658" height="13.1069"/>
   </g>
   <g>
    <g>
     <polygon class="fil7" points="90,91 61,104 60,103 89,90 "/>
    </g>
    <g>
     <polygon class="fil7" points="90,113 89,114 60,104 61,103 "/>
    </g>
   </g>
   <g>
    <g>
     <polygon class="fil7" points="42,18 18,60 17,60 41,18 "/>
    </g>
    <g>
     <polygon class="fil7" points="42,101 41,101 17,60 18,60 "/>
    </g>
   </g>
   <g>
    <polygon class="fil7" points="17,59 39,59 39,60 17,60 "/>
   </g>
  </g>
 </g>
</svg>
