<?xml version="1.0" encoding="UTF-8"?>
<!DOCTYPE svg PUBLIC "-//W3C//DTD SVG 1.1//EN" "http://www.w3.org/Graphics/SVG/1.1/DTD/svg11.dtd">
<!-- Creator: CorelDRAW X7 -->
<svg xmlns="http://www.w3.org/2000/svg" xml:space="preserve" width="120px" height="120px" version="1.1" style="shape-rendering:geometricPrecision; text-rendering:geometricPrecision; image-rendering:optimizeQuality; fill-rule:evenodd; clip-rule:evenodd"
viewBox="0 0 120 120"
 xmlns:xlink="http://www.w3.org/1999/xlink">
 <defs>
  <style type="text/css">
   <![CDATA[
    .fil0 {fill:none}
    .fil7 {fill:#FEFEFE}
    .fil1 {fill:#FEFEFE}
    .fil3 {fill:#BDBFC1}
    .fil2 {fill:#00AFEF}
    .fil5 {fill:#2887D2}
    .fil6 {fill:#FC4D44}
    .fil4 {fill:#FEFEFE;fill-rule:nonzero}
   ]]>
  </style>
 </defs>
 <g id="Layer_x0020_1">
  <metadata id="CorelCorpID_0Corel-Layer"/>
  <rect class="fil0" width="120" height="120"/>
  <g id="_714856936">
   <g>
    <circle class="fil1" transform="matrix(1.31382 0.258004 -0.258003 1.31383 27.0376 91.0342)" r="10"/>
    <path class="fil2" d="M52 93c0,-1 -1,-1 -1,-1 -3,-1 -4,-3 -5,-5 0,-2 1,-4 3,-6 0,0 1,-1 0,-1 0,-2 -2,-4 -3,-5 0,-1 -1,-1 -2,0 -1,1 -4,1 -6,0 -2,-2 -3,-4 -2,-6 0,-1 -1,-2 -1,-2 -1,0 -2,0 -3,-1l0 0c-1,0 -2,0 -3,0 -1,0 -1,0 -1,1 -1,2 -2,4 -5,5 -2,0 -4,-1 -6,-3 0,0 -1,-1 -1,0 -2,1 -4,2 -5,3 -1,0 -1,1 0,2 1,2 1,4 0,6 -1,2 -4,3 -6,2 -1,0 -2,1 -2,1 0,1 0,2 -1,3l0 0c0,1 0,2 0,3 0,1 1,1 1,1 3,1 4,3 5,5 0,2 -1,4 -3,6 0,0 -1,1 0,2 1,1 2,3 3,4 0,1 1,1 2,0 2,-1 4,-1 6,0 2,2 3,4 2,6 0,1 1,2 1,2 1,0 2,0 3,1 1,0 2,0 3,0 1,0 1,0 1,-1 1,-2 3,-4 5,-5 2,0 4,1 6,3 0,1 1,1 1,0 2,0 4,-2 5,-3 1,0 1,-1 0,-2 -1,-2 -1,-4 0,-6 2,-2 4,-3 6,-2l0 0c1,0 2,-1 2,-1 1,-2 1,-4 1,-6zm-23 -11c5,1 8,6 7,11 -1,5 -6,8 -11,7 -5,-1 -8,-6 -7,-11 1,-5 6,-8 11,-7z"/>
   </g>
   <g>
    <path class="fil3" d="M41 29l74 0c2,0 3,2 3,4l0 66c0,2 -1,3 -3,3l-74 0c-1,0 -3,-1 -3,-3l0 -66c0,-2 2,-4 3,-4z"/>
    <path id="1" class="fil4" d="M115 30l-74 0 0 -2 74 0 0 0 0 2zm4 3l-2 0 0 0 0 0 0 0 0 0 0 -1 0 0 0 0 0 0 0 0 0 0 0 0 0 -1 -1 0 0 0 0 0 0 0 0 0 0 0 0 0 0 0 0 0 0 0 0 -1 0 0 0 0 -1 0 0 0 0 0 0 0 0 0 0 0 0 0 0 0 0 -2 0 0 0 0 1 0 0 0 0 0 0 0 0 0 1 0 0 0 0 0 0 0 0 1 0 0 1 0 0 0 0 0 0 0 0 1 0 0 0 0 1 0 0 0 0 1 0 0 0 0 0 0 0 1 0 0 0 0 0 0 0 1 0 0 0 0zm-2 66l0 -66 2 0 0 66 0 0 -2 0zm-2 5l0 -3 0 0 0 0 0 0 0 0 0 0 0 0 0 0 1 0 0 0 0 0 0 0 0 0 0 0 0 0 0 0 0 0 0 0 0 -1 0 0 0 0 0 0 1 0 0 0 0 0 0 0 0 0 0 -1 0 0 0 0 0 0 0 0 0 0 0 0 2 0 0 0 0 0 0 0 0 1 0 0 0 0 0 0 0 1 0 0 0 0 0 0 -1 0 0 1 0 0 0 0 0 0 0 0 0 1 0 0 -1 0 0 0 0 0 0 0 0 0 -1 0 0 1 0 0 0 0 0 0 -1 0 0 0 0 0 0 0zm-74 -3l74 0 0 3 -74 0 0 0 0 -3zm-4 -2l2 0 0 0 0 0 0 0 0 0 0 0 1 0 0 0 0 1 0 0 0 0 0 0 0 0 0 0 0 0 0 0 0 0 0 1 0 0 0 0 0 0 0 0 0 0 1 0 0 0 0 0 0 0 0 0 0 0 0 0 0 0 0 0 0 0 0 0 0 3 0 0 0 0 0 0 -1 0 0 0 0 0 0 -1 0 0 -1 0 0 0 0 0 0 0 0 0 0 0 -1 -1 0 0 0 0 0 0 0 0 0 -1 0 0 0 0 0 0 -1 0 0 -1 0 0 0 0 0 0 0 -1 0 0 0 0 0 0 0 0zm2 -66l0 66 -2 0 0 -66 0 0 2 0zm2 -5l0 2 0 0 0 0 0 0 0 0 0 0 0 0 0 0 0 0 0 0 0 0 0 0 -1 1 0 0 0 0 0 0 0 0 0 0 0 0 0 0 0 0 0 0 0 0 0 1 0 0 0 0 0 0 0 0 0 0 -1 0 0 1 0 0 0 0 0 0 -2 0 0 0 0 -1 0 0 0 0 0 0 0 -1 0 0 0 0 1 0 0 -1 0 0 0 0 0 0 0 0 0 -1 0 0 1 0 0 0 0 0 0 0 0 -1 0 0 1 0 0 0 0 0 0 0 0 0 1 0 0 0 0 0 0 0 0 0 0 0z"/>
   </g>
   <g>
    <path class="fil3" d="M36 23l73 0c2,0 4,1 4,4l0 65c0,2 -2,4 -4,4l-73 0c-2,0 -3,-2 -3,-4l0 -65c0,-3 1,-4 3,-4z"/>
    <path id="1" class="fil4" d="M109 24l-73 0 0 -3 73 0 0 0 0 3zm5 3l-3 0 0 0 0 -1 0 0 0 0 0 0 0 0 0 0 0 0 0 -1 0 0 0 0 0 0 0 0 0 0 0 0 0 0 0 0 0 -1 0 0 -1 0 0 0 0 0 0 0 0 0 0 0 0 0 0 0 0 0 0 0 0 0 0 0 -1 0 0 0 0 -3 1 0 0 0 0 0 0 0 0 0 1 1 0 0 0 0 0 0 0 0 1 0 0 0 0 0 0 1 0 0 0 0 1 0 0 0 0 0 0 1 0 0 0 0 0 0 0 1 0 0 0 0 1 0 0 1 0 0 0 0 0 0 0 1 0 0zm-3 65l0 -65 3 0 0 65 0 0 -3 0zm-2 5l0 -2 0 0 1 0 0 0 0 0 0 0 0 0 0 0 0 0 0 0 0 0 0 0 0 0 0 -1 1 0 0 0 0 0 0 0 0 0 0 0 0 0 0 0 0 0 0 0 0 -1 0 0 0 0 0 0 0 0 0 0 0 0 0 -1 0 0 0 0 3 0 0 0 0 1 0 0 0 0 0 0 -1 1 0 0 0 0 0 0 0 1 0 0 0 0 0 0 0 0 0 1 -1 0 0 0 0 0 0 0 0 0 0 1 0 0 -1 0 0 0 0 0 0 0 0 0 -1 0 0 0 0 0 0 0 -1 0 0 0zm-73 -2l73 0 0 2 -73 0 0 0 0 -2zm-4 -3l2 0 0 0 0 0 0 0 0 1 0 0 0 0 0 0 0 0 0 0 0 0 0 1 0 0 0 0 0 0 0 0 1 0 0 0 0 0 0 0 0 0 0 0 0 1 0 0 0 0 0 0 0 0 0 0 0 0 1 0 0 0 0 0 0 0 0 0 0 2 0 0 -1 0 0 0 0 0 0 0 0 0 -1 0 0 0 0 0 0 0 0 0 -1 -1 0 0 0 0 0 0 0 0 0 0 0 -1 -1 0 0 0 0 0 0 0 0 -1 0 0 0 0 0 0 0 -1 0 0 0 0 0 0 0 -1 0 0 0 0zm2 -65l0 65 -2 0 0 -65 0 0 2 0zm2 -6l0 3 0 0 0 0 0 0 0 0 0 0 0 0 -1 0 0 0 0 0 0 0 0 0 0 0 0 0 0 0 0 0 0 0 0 1 0 0 -1 0 0 0 0 0 0 0 0 0 0 0 0 0 0 1 0 0 0 0 0 0 0 0 0 0 0 0 0 1 -2 0 0 -1 0 0 0 0 0 0 0 -1 0 0 0 0 0 0 0 -1 0 0 0 0 0 0 0 -1 1 0 0 0 0 0 0 0 0 0 0 -1 0 0 1 0 0 0 0 0 0 0 0 0 1 0 0 -1 0 0 0 0 1 0 0 0 0 0 0 0z"/>
   </g>
   <g>
    <g>
     <path class="fil5" d="M30 22l74 0c1,0 3,2 3,4l0 59c0,2 -2,4 -3,4l-74 0c-2,0 -3,-2 -3,-4l0 -59c0,-2 1,-4 3,-4z"/>
     <path id="1" class="fil4" d="M104 24l-74 0 0 -4 74 0 0 0 0 4zm5 2l-4 0 0 0 0 0 0 0 0 0 0 0 0 -1 0 0 0 0 0 0 0 0 0 0 0 0 0 0 0 0 -1 0 0 0 0 0 0 0 0 0 0 -1 0 0 0 0 0 0 0 0 0 0 0 0 0 0 0 0 0 0 0 0 0 0 0 0 0 0 0 -4 0 0 0 0 0 0 1 1 0 0 0 0 0 0 1 0 0 0 0 0 0 0 1 0 0 1 0 0 0 0 0 0 0 0 1 1 0 0 0 0 0 0 0 0 0 1 0 0 0 0 0 0 1 1 0 0 0 0 0 0 0 1 0 0 0 0zm-4 59l0 -59 4 0 0 59 0 0 -4 0zm-1 6l0 -4 0 0 0 0 0 0 0 0 0 0 0 0 0 0 0 0 0 0 0 0 0 0 0 0 0 0 0 0 0 0 0 -1 0 0 0 0 1 0 0 0 0 0 0 0 0 0 0 0 0 0 0 0 0 0 0 0 0 0 0 -1 0 0 0 0 0 0 4 0 0 0 0 1 0 0 0 0 0 0 -1 1 0 0 0 0 0 0 0 1 0 0 0 0 0 0 0 1 -1 0 0 0 0 0 0 0 0 0 0 1 -1 0 0 0 0 0 0 0 0 0 -1 0 0 0 0 1 0 0 -1 0 0 0 0 0 0 0zm-74 -4l74 0 0 4 -74 0 0 0 0 -4zm-5 -2l4 0 0 0 0 0 0 0 0 0 0 1 0 0 0 0 0 0 0 0 0 0 0 0 0 0 0 0 0 0 0 0 0 0 0 0 0 0 1 1 0 0 0 0 0 0 0 0 0 0 0 0 0 0 0 0 0 0 0 0 0 0 0 0 0 0 0 0 0 4 0 0 0 0 -1 0 0 0 0 -1 0 0 -1 0 0 0 0 0 0 0 -1 0 0 0 0 -1 0 0 0 0 0 0 -1 0 0 0 0 -1 0 0 0 0 0 0 0 -1 0 0 -1 0 0 0 0 -1 0 0 0 0 0 0 0 -1 0 0 0 0zm4 -59l0 59 -4 0 0 -59 0 0 4 0zm1 -6l0 4 0 0 0 0 0 0 0 0 0 0 0 0 0 0 0 0 0 0 0 0 0 0 0 0 0 0 0 0 0 1 -1 0 0 0 0 0 0 0 0 0 0 0 0 0 0 0 0 0 0 0 0 0 0 0 0 0 0 1 0 0 0 0 0 0 0 0 -4 0 0 0 0 -1 0 0 0 0 0 0 0 -1 0 0 1 0 0 0 0 -1 0 0 0 0 0 0 0 0 0 -1 1 0 0 0 0 0 0 0 0 -1 0 0 1 0 0 0 0 0 0 0 1 0 0 0 0 0 0 -1 1 0 0 0 0 0 0 0z"/>
    </g>
    <g>
     <path class="fil6" d="M31 13l71 0c3,0 5,2 5,5l0 11 -80 0 0 -11c0,-3 2,-5 4,-5z"/>
     <path id="1" class="fil4" d="M102 15l-71 0 0 -4 71 0 0 0 0 4zm7 3l-4 0 0 0 0 -1 0 0 0 0 0 0 0 0 0 0 0 0 0 0 0 0 0 -1 0 0 -1 0 0 0 0 0 0 0 0 0 0 0 0 0 0 0 0 0 0 -1 0 0 -1 0 0 0 0 0 0 0 0 0 0 0 0 0 0 0 0 0 -1 0 0 -4 1 0 0 0 0 0 1 0 0 0 0 1 1 0 0 0 0 0 0 0 1 0 0 0 0 1 0 0 1 0 0 0 0 0 0 1 0 0 1 0 0 0 0 1 0 0 0 0 0 0 0 1 0 0 1 0 0 1 0 0 0 0 0 1 0 0zm-4 11l0 -11 4 0 0 11 -2 2 -2 -2zm4 0l0 2 -2 0 2 -2zm-82 -2l80 0 0 4 -80 0 -2 -2 2 -2zm0 4l-2 0 0 -2 2 2zm2 -13l0 11 -4 0 0 -11 0 0 4 0zm2 -7l0 4 0 0 0 0 0 0 0 0 0 0 0 0 0 0 0 0 -1 0 0 0 0 0 0 0 0 1 0 0 0 0 0 0 0 0 0 0 0 0 -1 0 0 0 0 0 0 0 0 1 0 0 0 0 0 0 0 0 0 0 0 0 0 0 0 0 0 1 -4 0 0 -1 0 0 0 0 0 -1 0 0 0 0 1 -1 0 0 0 0 0 0 0 -1 0 0 0 0 1 0 0 -1 0 0 0 0 0 0 1 0 0 -1 0 0 0 0 1 0 0 0 0 0 1 0 0 -1 0 0 0 0 1 0 0 0 0 0 0 0z"/>
    </g>
    <g>
     <rect class="fil5" x="43" y="4" width="6.251" height="18.1973" rx="2" ry="2"/>
     <rect class="fil5" x="57" y="4" width="6.251" height="18.1973" rx="2" ry="2"/>
     <rect class="fil5" x="71" y="4" width="6.251" height="18.1973" rx="2" ry="2"/>
     <rect class="fil5" x="85" y="4" width="6.251" height="18.1973" rx="2" ry="2"/>
    </g>
    <rect class="fil7" x="45" y="35" width="6.37449" height="8.18941"/>
    <rect class="fil7" x="57" y="35" width="6.37449" height="8.18941"/>
    <rect class="fil7" x="70" y="35" width="6.37449" height="8.18941"/>
    <rect class="fil7" x="82" y="35" width="6.37449" height="8.18941"/>
    <rect class="fil7" x="95" y="35" width="6.37449" height="8.18941"/>
    <rect class="fil7" x="33" y="50" width="6.37449" height="8.18941"/>
    <rect class="fil7" x="45" y="50" width="6.37449" height="8.18941"/>
    <rect class="fil7" x="58" y="50" width="6.37449" height="8.18941"/>
    <rect class="fil7" x="70" y="50" width="6.37449" height="8.18941"/>
    <rect class="fil7" x="82" y="50" width="6.37449" height="8.18941"/>
    <rect class="fil7" x="95" y="50" width="6.37449" height="8.18941"/>
    <rect class="fil7" x="33" y="67" width="6.37449" height="8.18941"/>
    <rect class="fil7" x="45" y="67" width="6.37449" height="8.18941"/>
    <rect class="fil7" x="58" y="67" width="6.37449" height="8.18941"/>
    <rect class="fil7" x="70" y="67" width="6.37449" height="8.18941"/>
    <rect class="fil7" x="82" y="67" width="6.37449" height="8.18941"/>
    <rect class="fil7" x="95" y="67" width="6.37449" height="8.18941"/>
   </g>
  </g>
 </g>
</svg>
