<?xml version="1.0" encoding="UTF-8"?>
<!DOCTYPE svg PUBLIC "-//W3C//DTD SVG 1.1//EN" "http://www.w3.org/Graphics/SVG/1.1/DTD/svg11.dtd">
<!-- Creator: CorelDRAW X7 -->
<svg xmlns="http://www.w3.org/2000/svg" xml:space="preserve" width="110px" height="108px" version="1.1" style="shape-rendering:geometricPrecision; text-rendering:geometricPrecision; image-rendering:optimizeQuality; fill-rule:evenodd; clip-rule:evenodd"
viewBox="0 0 110 108"
 xmlns:xlink="http://www.w3.org/1999/xlink">
 <defs>
  <style type="text/css">
   <![CDATA[
    .fil4 {fill:#FEFEFE}
    .fil0 {fill:#2887D2}
    .fil1 {fill:#FEFEFE;fill-rule:nonzero}
    .fil3 {fill:#00A859;fill-rule:nonzero}
    .fil5 {fill:#1CC8EB;fill-rule:nonzero}
    .fil2 {fill:#FC4D44;fill-rule:nonzero}
   ]]>
  </style>
 </defs>
 <g id="Layer_x0020_1">
  <metadata id="CorelCorpID_0Corel-Layer"/>
  <g id="_575433608">
   <rect class="fil0" y="23" width="85.1796" height="85.3291" rx="7" ry="7"/>
   <g>
    <polygon class="fil1" points="12,36 74,36 74,94 12,94 "/>
    <path class="fil2" d="M73 96l-62 0c-1,0 -2,-1 -2,-2l0 -58c0,-1 1,-2 2,-2l9 0 0 4 -7 0 0 29 7 0 0 4 -7 0 0 22 22 0 0 -22 -7 0 0 -4 20 0 0 -11 3 0 0 11 8 0 0 4 -20 0 0 22 32 0 0 -22 -5 0 0 -4 5 0 0 -29 -20 0 0 11 -3 0 0 -11 -20 0 0 -4 45 0c1,0 2,1 2,2l0 58c0,1 -1,2 -2,2z"/>
   </g>
   <g>
    <path class="fil3" d="M32 41c-4,-3 -9,-3 -13,0 -2,2 -2,5 -2,7 0,2 0,4 1,6l7 10 7 -10c3,-4 3,-10 0,-13zm-7 9c-1,0 -2,-1 -2,-2 0,-2 1,-3 2,-3 2,0 3,1 3,3 0,1 -1,2 -3,2z"/>
    <circle class="fil4" cx="25" cy="47" r="5"/>
   </g>
   <path class="fil5" d="M78 48c0,0 1,0 1,0 13,4 27,-4 30,-17 4,-13 -4,-27 -17,-30 -13,-4 -27,4 -30,17 -3,10 1,19 8,25 -3,2 -6,4 -8,7 16,-2 11,-2 16,-2z"/>
   <path class="fil1" d="M92 37l0 2c-2,1 -3,1 -3,1 -1,1 -2,1 -3,1 -2,0 -3,-1 -4,-1 -1,-1 -1,-2 -1,-3 0,-1 0,-1 0,-2 0,0 0,-1 0,-2l2 -6c0,0 0,-1 0,-1 0,-1 0,-1 0,-2 0,0 0,-1 0,-1 -1,0 -1,-1 -2,-1 0,0 -1,1 -1,1 -1,0 -1,0 -2,0l1 -2c1,0 2,-1 3,-1 1,0 2,0 3,0 2,0 3,0 4,1 1,1 1,2 1,3 0,0 0,1 0,1 0,1 0,1 0,2l-2 6c0,0 0,1 -1,1 0,1 0,2 0,2 0,1 1,1 1,1 0,1 1,1 2,1 0,0 1,0 1,0 1,-1 1,-1 1,-1zm1 -24c0,1 -1,1 -2,2 0,1 -1,1 -2,1 -1,0 -2,0 -3,-1 -1,-1 -1,-1 -1,-2 0,-1 0,-2 1,-3 1,-1 2,-1 3,-1 1,0 2,0 2,1 1,1 2,2 2,3z"/>
  </g>
 </g>
</svg>
