<?xml version="1.0" encoding="UTF-8"?>
<!DOCTYPE svg PUBLIC "-//W3C//DTD SVG 1.1//EN" "http://www.w3.org/Graphics/SVG/1.1/DTD/svg11.dtd">
<!-- Creator: CorelDRAW X7 -->
<svg xmlns="http://www.w3.org/2000/svg" xml:space="preserve" width="48px" height="42px" version="1.1" style="shape-rendering:geometricPrecision; text-rendering:geometricPrecision; image-rendering:optimizeQuality; fill-rule:evenodd; clip-rule:evenodd"
viewBox="0 0 48 42"
 xmlns:xlink="http://www.w3.org/1999/xlink">
 <defs>
  <style type="text/css">
   <![CDATA[
    .fil1 {fill:#FEFEFE}
    .fil6 {fill:black}
    .fil4 {fill:#1CC8EB}
    .fil0 {fill:#2887D2}
    .fil3 {fill:#2887D2}
    .fil5 {fill:#00AFEF;fill-rule:nonzero}
    .fil11 {fill:#0083FD;fill-rule:nonzero}
    .fil10 {fill:#0094FD;fill-rule:nonzero}
    .fil12 {fill:#22A7FF;fill-rule:nonzero}
    .fil2 {fill:#2887D2;fill-rule:nonzero}
    .fil8 {fill:#60B8FF;fill-rule:nonzero}
    .fil7 {fill:#B4DBFF;fill-rule:nonzero}
    .fil9 {fill:#D9EDFF;fill-rule:nonzero}
   ]]>
  </style>
 </defs>
 <g id="Layer_x0020_1">
  <metadata id="CorelCorpID_0Corel-Layer"/>
  <g id="_786675112">
   <path class="fil0" d="M23 40l23 0c1,0 2,-1 2,-2l0 -32c0,-1 -1,-2 -2,-2l-23 0 0 0 -2 0 0 36 2 0z"/>
   <rect class="fil1" x="23" y="6" width="23.4759" height="32.5813"/>
   <g>
    <g>
     <g>
      <polygon class="fil2" points="45,13 26,13 26,12 45,12 "/>
     </g>
     <g>
      <polygon class="fil2" points="35,36 35,12 35,12 35,36 "/>
     </g>
     <rect class="fil3" x="37" y="15" width="7.92142" height="1.13033"/>
     <rect class="fil3" x="37" y="18" width="7.92142" height="1.13033"/>
     <rect class="fil3" x="37" y="21" width="7.92142" height="1.13033"/>
     <rect class="fil3" x="26" y="24" width="7.92142" height="1.13033"/>
     <rect class="fil3" x="37" y="24" width="7.92142" height="1.13033"/>
     <rect class="fil3" x="26" y="15" width="7.92142" height="1.13033"/>
     <rect class="fil3" x="26" y="18" width="7.92142" height="1.13033"/>
     <rect class="fil3" x="26" y="21" width="7.92142" height="1.13033"/>
     <rect class="fil3" x="26" y="27" width="7.92142" height="1.13033"/>
     <rect class="fil3" x="37" y="27" width="7.92142" height="1.13033"/>
     <rect class="fil3" x="26" y="30" width="7.92142" height="1.13033"/>
     <rect class="fil3" x="37" y="30" width="7.92142" height="1.13033"/>
     <rect class="fil3" x="26" y="34" width="7.92142" height="1.13033"/>
     <rect class="fil3" x="37" y="34" width="7.92142" height="1.13033"/>
    </g>
    <path class="fil2" d="M29 11l0 -3 1 0c0,0 0,0 1,0 0,0 0,0 0,1 0,0 0,0 0,0l0 1c0,0 0,0 0,0 0,1 0,1 0,1 -1,0 -1,0 -1,0l-1 0zm0 -3l0 3 1 0c0,0 0,0 0,-1 0,0 1,0 1,0l0 -1c0,0 -1,0 -1,0 0,0 0,-1 0,-1l-1 0z"/>
    <path class="fil2" d="M42 10c0,0 0,1 0,1 -1,0 -1,0 -1,0 -1,0 -1,0 -1,0 -1,0 -1,-1 -1,-1l0 -1c0,0 0,0 1,0 0,-1 0,-1 0,-1 0,0 0,0 1,0 0,0 0,0 1,0 0,0 0,1 0,1l-1 0c0,0 0,0 0,0 0,-1 0,-1 0,-1 -1,0 -1,0 -1,1 0,0 0,0 0,0l0 1c0,0 0,0 0,0 0,1 0,1 1,1 0,0 0,0 0,0 0,-1 0,-1 0,-1l1 0z"/>
   </g>
   <path class="fil0" d="M21 40l-19 0c-1,0 -2,-1 -2,-2l0 -32c0,-1 1,-2 2,-2l19 0 0 0 2 0 0 36 -2 0z"/>
   <rect class="fil4" x="1" y="6" width="19.7948" height="32.5813"/>
   <g>
    <polygon class="fil1" points="4,1 22,6 22,38 4,33 "/>
    <path id="1" class="fil5" d="M22 6l-18 -5 0 -1 18 5 1 1 -1 0zm0 -1l1 1 0 0 -1 -1zm0 33l0 -32 1 0 0 32 -1 1 0 -1zm1 0l0 1 -1 0 1 -1zm-19 -5l18 5 0 1 -18 -5 0 -1 0 0zm0 1l0 0 0 -1 0 1zm1 -33l0 32 -1 0 0 -32 0 -1 1 1zm-1 0l0 -1 0 0 0 1z"/>
   </g>
   <g>
    <path class="fil6" d="M18 40l0 0c0,0 0,0 0,0l0 2 0 0c0,0 0,0 0,0l0 -2c0,0 0,0 0,0z"/>
    <path class="fil7" d="M18 41c0,0 0,0 0,0l0 0c0,0 -1,0 -1,0l0 -4c0,0 0,0 0,0l2 0c0,0 0,0 0,0l-1 4z"/>
    <path class="fil8" d="M18 39l0 -2 -1 0c0,0 0,0 0,0l0 4c0,0 1,0 1,0l0 0c0,0 0,0 0,0 1,-1 1,-2 1,-2 0,0 0,0 -1,0z"/>
    <path class="fil7" d="M19 4l-2 0c0,0 0,0 0,0l0 -2c0,-1 0,-1 0,-1l2 0c0,0 0,0 0,1l0 2c0,0 0,0 0,0z"/>
    <path class="fil8" d="M18 3c0,0 0,0 0,0 0,0 0,-1 0,-1l0 -1 -1 0c0,0 0,0 0,1l0 2c0,0 0,0 0,0l2 0c0,0 0,0 0,0l0 -1 -1 0z"/>
    <path class="fil9" d="M19 38l-2 0c0,0 -1,-1 -1,-2l1 -31c0,0 0,-1 0,-1l2 0c0,0 1,1 1,1l-1 31c0,1 0,2 0,2z"/>
    <path class="fil7" d="M18 36c0,0 0,-1 0,-1l0 -31 -1 0c0,0 0,1 0,1l-1 31c0,1 1,2 1,2l2 0c0,0 0,-1 0,-2l0 0 -1 0z"/>
    <polygon class="fil10" points="16,27 19,27 19,32 16,32 "/>
    <polygon class="fil11" points="16,32 16,27 18,27 18,32 "/>
    <polygon class="fil8" points="16,4 19,5 19,28 16,27 "/>
    <polygon class="fil12" points="16,4 16,27 16,27 18,28 18,4 "/>
   </g>
  </g>
 </g>
</svg>
