<?xml version="1.0" encoding="UTF-8"?>
<!DOCTYPE svg PUBLIC "-//W3C//DTD SVG 1.1//EN" "http://www.w3.org/Graphics/SVG/1.1/DTD/svg11.dtd">
<!-- Creator: CorelDRAW X7 -->
<svg xmlns="http://www.w3.org/2000/svg" xml:space="preserve" width="49px" height="44px" version="1.1" style="shape-rendering:geometricPrecision; text-rendering:geometricPrecision; image-rendering:optimizeQuality; fill-rule:evenodd; clip-rule:evenodd"
viewBox="0 0 49 43"
 xmlns:xlink="http://www.w3.org/1999/xlink">
 <defs>
  <style type="text/css">
   <![CDATA[
    .fil0 {fill:#FEFEFE}
    .fil6 {fill:#00A859}
    .fil4 {fill:#2887D2}
    .fil2 {fill:#2887D2}
    .fil3 {fill:white}
    .fil7 {fill:#FEFEFE;fill-rule:nonzero}
    .fil5 {fill:#00A859;fill-rule:nonzero}
    .fil1 {fill:#2887D2;fill-rule:nonzero}
    .fil8 {fill:#FC4D44;fill-rule:nonzero}
   ]]>
  </style>
 </defs>
 <g id="Layer_x0020_1">
  <metadata id="CorelCorpID_0Corel-Layer"/>
  <g id="_796665032">
   <g>
    <g>
     <polygon class="fil0" points="48,20 22,20 22,43 48,43 "/>
     <path id="1" class="fil1" d="M22 21l-1 -1 1 0 26 0 0 1 -26 0zm-1 -1l0 0 1 0 -1 0zm2 23l-1 0 -1 0 0 -23 2 0 0 23zm-1 0l-1 0 0 0 1 0zm26 -1l1 1 -1 0 -26 0 0 -1 26 0zm1 1l0 0 -1 0 1 0zm-1 -23l0 0 1 0 0 23 -1 0 0 -23zm0 0l1 0 0 0 -1 0z"/>
    </g>
    <path class="fil2" d="M22 20c0,0 0,0 0,-1l0 -3c0,0 0,0 1,0l24 0c1,0 1,0 1,0l0 3c0,1 0,1 0,1l-26 0z"/>
    <circle class="fil3" cx="46" cy="18" r="1"/>
    <circle class="fil3" cx="43" cy="18" r="1"/>
    <circle class="fil3" cx="41" cy="18" r="1"/>
    <g>
     <g>
      <rect class="fil4" x="42" y="25" width="3.94" height="3.77577"/>
      <rect class="fil4" x="33" y="25" width="3.94" height="3.77577"/>
      <rect class="fil4" x="25" y="25" width="3.94" height="3.77577"/>
     </g>
     <g>
      <rect class="fil4" x="42" y="34" width="3.94" height="3.77577"/>
      <rect class="fil4" x="33" y="34" width="3.94" height="3.77577"/>
      <rect class="fil4" x="25" y="34" width="3.94" height="3.77577"/>
     </g>
    </g>
   </g>
   <g>
    <polygon class="fil0" points="1,6 37,6 37,33 1,33 "/>
    <path id="1" class="fil5" d="M37 6l-36 0 0 -1 36 0 0 1 0 0zm0 -1l0 0 0 1 0 -1zm-1 28l0 -27 1 0 0 27 0 1 -1 -1zm1 0l0 1 0 0 0 -1zm-36 -1l36 0 0 2 -36 0 -1 -1 1 -1zm0 2l-1 0 0 -1 1 1zm0 -28l0 27 -1 0 0 -27 1 -1 0 1zm-1 0l0 -1 1 0 -1 1z"/>
   </g>
   <path class="fil6" d="M37 5c0,0 0,0 0,0l0 -4c0,-1 -1,-1 -1,-1l-34 0c-1,0 -1,0 -1,1l0 4c0,0 0,0 0,0l36 0z"/>
   <circle class="fil3" cx="28" cy="2" r="1"/>
   <circle class="fil3" cx="31" cy="2" r="1"/>
   <circle class="fil3" cx="34" cy="2" r="1"/>
   <g>
    <polygon class="fil6" points="3,11 7,11 7,16 3,16 "/>
    <path id="1" class="fil7" d="M7 12l-4 0 0 -1 4 0 0 0 0 1zm0 -1l0 0 0 0 0 0zm0 5l0 -5 0 0 0 5 0 0 0 0zm0 0l0 0 0 0 0 0zm-4 0l4 0 0 0 -4 0 0 0 0 0zm0 0l0 0 0 0 0 0zm0 -5l0 5 0 0 0 -5 0 0 0 0zm0 0l0 0 0 0 0 0z"/>
   </g>
   <g>
    <polygon class="fil6" points="7,11 11,11 11,16 7,16 "/>
    <path id="1" class="fil7" d="M11 12l-4 0 0 -1 4 0 0 0 0 1zm0 -1l0 0 0 0 0 0zm0 5l0 -5 0 0 0 5 0 0 0 0zm0 0l0 0 0 0 0 0zm-4 0l4 0 0 0 -4 0 0 0 0 0zm0 0l0 0 0 0 0 0zm0 -5l0 5 0 0 0 -5 0 0 0 0zm0 0l0 0 0 0 0 0z"/>
   </g>
   <g>
    <polygon class="fil6" points="11,11 15,11 15,16 11,16 "/>
    <path id="1" class="fil7" d="M15 12l-4 0 0 -1 4 0 0 0 0 1zm0 -1l0 0 0 0 0 0zm0 5l0 -5 0 0 0 5 0 0 0 0zm0 0l0 0 0 0 0 0zm-4 0l4 0 0 0 -4 0 0 0 0 0zm0 0l0 0 0 0 0 0zm0 -5l0 5 0 0 0 -5 0 0 0 0zm0 0l0 0 0 0 0 0z"/>
   </g>
   <g>
    <polygon class="fil6" points="3,16 7,16 7,21 3,21 "/>
    <path id="1" class="fil7" d="M7 16l-4 0 0 0 4 0 0 0 0 0zm0 0l0 0 0 0 0 0zm0 5l0 -5 0 0 0 5 0 0 0 0zm0 0l0 0 0 0 0 0zm-4 -1l4 0 0 1 -4 0 0 0 0 -1zm0 1l0 0 0 0 0 0zm0 -5l0 5 0 0 0 -5 0 0 0 0zm0 0l0 0 0 0 0 0z"/>
   </g>
   <g>
    <polygon class="fil6" points="7,16 11,16 11,21 7,21 "/>
    <path id="1" class="fil7" d="M11 16l-4 0 0 0 4 0 0 0 0 0zm0 0l0 0 0 0 0 0zm0 5l0 -5 0 0 0 5 0 0 0 0zm0 0l0 0 0 0 0 0zm-4 -1l4 0 0 1 -4 0 0 0 0 -1zm0 1l0 0 0 0 0 0zm0 -5l0 5 0 0 0 -5 0 0 0 0zm0 0l0 0 0 0 0 0z"/>
   </g>
   <g>
    <polygon class="fil6" points="11,16 15,16 15,21 11,21 "/>
    <path id="1" class="fil7" d="M15 16l-4 0 0 0 4 0 0 0 0 0zm0 0l0 0 0 0 0 0zm0 5l0 -5 0 0 0 5 0 0 0 0zm0 0l0 0 0 0 0 0zm-4 -1l4 0 0 1 -4 0 0 0 0 -1zm0 1l0 0 0 0 0 0zm0 -5l0 5 0 0 0 -5 0 0 0 0zm0 0l0 0 0 0 0 0z"/>
   </g>
   <g>
    <polygon class="fil6" points="3,21 7,21 7,25 3,25 "/>
    <path id="1" class="fil7" d="M7 21l-4 0 0 -1 4 0 0 1 0 0zm0 -1l0 0 0 1 0 -1zm0 5l0 -4 0 0 0 4 0 0 0 0zm0 0l0 0 0 0 0 0zm-4 0l4 0 0 0 -4 0 0 0 0 0zm0 0l0 0 0 0 0 0zm0 -4l0 4 0 0 0 -4 0 -1 0 1zm0 0l0 -1 0 0 0 1z"/>
   </g>
   <g>
    <polygon class="fil6" points="7,21 11,21 11,25 7,25 "/>
    <path id="1" class="fil7" d="M11 21l-4 0 0 -1 4 0 0 1 0 0zm0 -1l0 0 0 1 0 -1zm0 5l0 -4 0 0 0 4 0 0 0 0zm0 0l0 0 0 0 0 0zm-4 0l4 0 0 0 -4 0 0 0 0 0zm0 0l0 0 0 0 0 0zm0 -4l0 4 0 0 0 -4 0 -1 0 1zm0 0l0 -1 0 0 0 1z"/>
   </g>
   <g>
    <polygon class="fil6" points="11,21 15,21 15,25 11,25 "/>
    <path id="1" class="fil7" d="M15 21l-4 0 0 -1 4 0 0 1 0 0zm0 -1l0 0 0 1 0 -1zm0 5l0 -4 0 0 0 4 0 0 0 0zm0 0l0 0 0 0 0 0zm-4 0l4 0 0 0 -4 0 0 0 0 0zm0 0l0 0 0 0 0 0zm0 -4l0 4 0 0 0 -4 0 -1 0 1zm0 0l0 -1 0 0 0 1z"/>
   </g>
   <g>
    <polygon class="fil6" points="15,11 19,11 19,16 15,16 "/>
    <path id="1" class="fil7" d="M19 12l-4 0 0 -1 4 0 0 0 0 1zm0 -1l0 0 0 0 0 0zm-1 5l0 -5 1 0 0 5 0 0 -1 0zm1 0l0 0 0 0 0 0zm-4 0l4 0 0 0 -4 0 0 0 0 0zm0 0l0 0 0 0 0 0zm0 -5l0 5 0 0 0 -5 0 0 0 0zm0 0l0 0 0 0 0 0z"/>
   </g>
   <g>
    <polygon class="fil6" points="19,11 23,11 23,16 19,16 "/>
    <path id="1" class="fil7" d="M23 12l-4 0 0 -1 4 0 0 0 0 1zm0 -1l0 0 0 0 0 0zm-1 5l0 -5 1 0 0 5 0 0 -1 0zm1 0l0 0 0 0 0 0zm-4 0l4 0 0 0 -4 0 -1 0 1 0zm0 0l-1 0 0 0 1 0zm0 -5l0 5 -1 0 0 -5 1 0 0 0zm-1 0l0 0 1 0 -1 0z"/>
   </g>
   <g>
    <polygon class="fil6" points="23,11 27,11 27,16 23,16 "/>
    <path id="1" class="fil7" d="M27 12l-4 0 0 -1 4 0 0 0 0 1zm0 -1l0 0 0 0 0 0zm-1 5l0 -5 1 0 0 5 0 0 -1 0zm1 0l0 0 0 0 0 0zm-4 0l4 0 0 0 -4 0 -1 0 1 0zm0 0l-1 0 0 0 1 0zm0 -5l0 5 -1 0 0 -5 1 0 0 0zm-1 0l0 0 1 0 -1 0z"/>
   </g>
   <g>
    <polygon class="fil6" points="15,16 19,16 19,21 15,21 "/>
    <path id="1" class="fil7" d="M19 16l-4 0 0 0 4 0 0 0 0 0zm0 0l0 0 0 0 0 0zm-1 5l0 -5 1 0 0 5 0 0 -1 0zm1 0l0 0 0 0 0 0zm-4 -1l4 0 0 1 -4 0 0 0 0 -1zm0 1l0 0 0 0 0 0zm0 -5l0 5 0 0 0 -5 0 0 0 0zm0 0l0 0 0 0 0 0z"/>
   </g>
   <g>
    <polygon class="fil6" points="19,16 23,16 23,21 19,21 "/>
    <path id="1" class="fil7" d="M23 16l-4 0 0 0 4 0 0 0 0 0zm0 0l0 0 0 0 0 0zm-1 5l0 -5 1 0 0 5 0 0 -1 0zm1 0l0 0 0 0 0 0zm-4 -1l4 0 0 1 -4 0 -1 0 1 -1zm0 1l-1 0 0 0 1 0zm0 -5l0 5 -1 0 0 -5 1 0 0 0zm-1 0l0 0 1 0 -1 0z"/>
   </g>
   <g>
    <polygon class="fil6" points="23,16 27,16 27,21 23,21 "/>
    <path id="1" class="fil7" d="M27 16l-4 0 0 0 4 0 0 0 0 0zm0 0l0 0 0 0 0 0zm-1 5l0 -5 1 0 0 5 0 0 -1 0zm1 0l0 0 0 0 0 0zm-4 -1l4 0 0 1 -4 0 -1 0 1 -1zm0 1l-1 0 0 0 1 0zm0 -5l0 5 -1 0 0 -5 1 0 0 0zm-1 0l0 0 1 0 -1 0z"/>
   </g>
   <g>
    <polygon class="fil6" points="15,21 19,21 19,25 15,25 "/>
    <path id="1" class="fil7" d="M19 21l-4 0 0 -1 4 0 0 1 0 0zm0 -1l0 0 0 1 0 -1zm-1 5l0 -4 1 0 0 4 0 0 -1 0zm1 0l0 0 0 0 0 0zm-4 0l4 0 0 0 -4 0 0 0 0 0zm0 0l0 0 0 0 0 0zm0 -4l0 4 0 0 0 -4 0 -1 0 1zm0 0l0 -1 0 0 0 1z"/>
   </g>
   <g>
    <polygon class="fil6" points="19,21 23,21 23,25 19,25 "/>
    <path id="1" class="fil7" d="M23 21l-4 0 0 -1 4 0 0 1 0 0zm0 -1l0 0 0 1 0 -1zm-1 5l0 -4 1 0 0 4 0 0 -1 0zm1 0l0 0 0 0 0 0zm-4 0l4 0 0 0 -4 0 -1 0 1 0zm0 0l-1 0 0 0 1 0zm0 -4l0 4 -1 0 0 -4 1 -1 0 1zm-1 0l0 -1 1 0 -1 1z"/>
   </g>
   <g>
    <polygon class="fil6" points="23,21 27,21 27,25 23,25 "/>
    <path id="1" class="fil7" d="M27 21l-4 0 0 -1 4 0 0 1 0 0zm0 -1l0 0 0 1 0 -1zm-1 5l0 -4 1 0 0 4 0 0 -1 0zm1 0l0 0 0 0 0 0zm-4 0l4 0 0 0 -4 0 -1 0 1 0zm0 0l-1 0 0 0 1 0zm0 -4l0 4 -1 0 0 -4 1 -1 0 1zm-1 0l0 -1 1 0 -1 1z"/>
   </g>
   <g>
    <polygon class="fil6" points="27,11 31,11 31,16 27,16 "/>
    <path id="1" class="fil7" d="M31 12l-4 0 0 -1 4 0 0 0 0 1zm0 -1l0 0 0 0 0 0zm-1 5l0 -5 1 0 0 5 0 0 -1 0zm1 0l0 0 0 0 0 0zm-4 0l4 0 0 0 -4 0 -1 0 1 0zm0 0l-1 0 0 0 1 0zm0 -5l0 5 -1 0 0 -5 1 0 0 0zm-1 0l0 0 1 0 -1 0z"/>
   </g>
   <g>
    <polygon class="fil6" points="31,11 34,11 34,16 31,16 "/>
    <path id="1" class="fil7" d="M34 12l-3 0 0 -1 3 0 1 0 -1 1zm0 -1l1 0 0 0 -1 0zm0 5l0 -5 1 0 0 5 -1 0 0 0zm1 0l0 0 -1 0 1 0zm-4 0l3 0 0 0 -3 0 -1 0 1 0zm0 0l-1 0 0 0 1 0zm0 -5l0 5 -1 0 0 -5 1 0 0 0zm-1 0l0 0 1 0 -1 0z"/>
   </g>
   <g>
    <polygon class="fil6" points="27,16 31,16 31,21 27,21 "/>
    <path id="1" class="fil7" d="M31 16l-4 0 0 0 4 0 0 0 0 0zm0 0l0 0 0 0 0 0zm-1 5l0 -5 1 0 0 5 0 0 -1 0zm1 0l0 0 0 0 0 0zm-4 -1l4 0 0 1 -4 0 -1 0 1 -1zm0 1l-1 0 0 0 1 0zm0 -5l0 5 -1 0 0 -5 1 0 0 0zm-1 0l0 0 1 0 -1 0z"/>
   </g>
   <g>
    <polygon class="fil6" points="31,16 34,16 34,21 31,21 "/>
    <path id="1" class="fil7" d="M34 16l-3 0 0 0 3 0 1 0 -1 0zm0 0l1 0 0 0 -1 0zm0 5l0 -5 1 0 0 5 -1 0 0 0zm1 0l0 0 -1 0 1 0zm-4 -1l3 0 0 1 -3 0 -1 0 1 -1zm0 1l-1 0 0 0 1 0zm0 -5l0 5 -1 0 0 -5 1 0 0 0zm-1 0l0 0 1 0 -1 0z"/>
   </g>
   <g>
    <polygon class="fil6" points="27,21 31,21 31,25 27,25 "/>
    <path id="1" class="fil7" d="M31 21l-4 0 0 -1 4 0 0 1 0 0zm0 -1l0 0 0 1 0 -1zm-1 5l0 -4 1 0 0 4 0 0 -1 0zm1 0l0 0 0 0 0 0zm-4 0l4 0 0 0 -4 0 -1 0 1 0zm0 0l-1 0 0 0 1 0zm0 -4l0 4 -1 0 0 -4 1 -1 0 1zm-1 0l0 -1 1 0 -1 1z"/>
   </g>
   <g>
    <polygon class="fil6" points="31,21 34,21 34,25 31,25 "/>
    <path id="1" class="fil7" d="M34 21l-3 0 0 -1 3 0 1 1 -1 0zm0 -1l1 0 0 1 -1 -1zm0 5l0 -4 1 0 0 4 -1 0 0 0zm1 0l0 0 -1 0 1 0zm-4 0l3 0 0 0 -3 0 -1 0 1 0zm0 0l-1 0 0 0 1 0zm0 -4l0 4 -1 0 0 -4 1 -1 0 1zm-1 0l0 -1 1 0 -1 1z"/>
   </g>
   <path class="fil8" d="M28 10l0 16 -2 0 5 6 5 -6 -2 0 0 -16 -6 0zm0 8m-1 8m1 3m5 0m2 -3m-1 -8m-3 -8"/>
   <g>
    <polygon class="fil7" points="28,26 28,10 29,10 29,26 "/>
   </g>
   <g>
    <polygon class="fil7" points="33,26 33,10 34,10 34,26 "/>
   </g>
  </g>
 </g>
</svg>
