<?xml version="1.0" encoding="UTF-8"?>
<!DOCTYPE svg PUBLIC "-//W3C//DTD SVG 1.1//EN" "http://www.w3.org/Graphics/SVG/1.1/DTD/svg11.dtd">
<!-- Creator: CorelDRAW X7 -->
<svg xmlns="http://www.w3.org/2000/svg" xml:space="preserve" width="120px" height="120px" version="1.1" style="shape-rendering:geometricPrecision; text-rendering:geometricPrecision; image-rendering:optimizeQuality; fill-rule:evenodd; clip-rule:evenodd"
viewBox="0 0 120 120"
 xmlns:xlink="http://www.w3.org/1999/xlink">
 <defs>
  <style type="text/css">
   <![CDATA[
    .fil0 {fill:none}
    .fil1 {fill:#FEFEFE}
    .fil4 {fill:#ED3237}
    .fil9 {fill:#999999}
    .fil11 {fill:#FFF212;fill-rule:nonzero}
    .fil5 {fill:#26A6D1;fill-rule:nonzero}
    .fil2 {fill:#2887D2;fill-rule:nonzero}
    .fil7 {fill:#CB4E44;fill-rule:nonzero}
    .fil6 {fill:#E2574C;fill-rule:nonzero}
    .fil8 {fill:#EAE5E4;fill-rule:nonzero}
    .fil10 {fill:url(#id0)}
    .fil3 {fill:url(#id1);fill-rule:nonzero}
   ]]>
  </style>
  <linearGradient id="id0" gradientUnits="userSpaceOnUse" x1="77.3933" y1="37.6" x2="101.051" y2="5.76862">
   <stop offset="0" style="stop-opacity:1; stop-color:#1CC8EB"/>
   <stop offset="0.631373" style="stop-opacity:1; stop-color:#0E96E0"/>
   <stop offset="1" style="stop-opacity:1; stop-color:#0063D4"/>
  </linearGradient>
  <linearGradient id="id1" gradientUnits="objectBoundingBox" x1="67.3427%" y1="100.524%" x2="32.6613%" y2="0%">
   <stop offset="0" style="stop-opacity:1; stop-color:#119E54"/>
   <stop offset="0.619608" style="stop-opacity:1; stop-color:#13BC69"/>
   <stop offset="1" style="stop-opacity:1; stop-color:#15DB7F"/>
  </linearGradient>
 </defs>
 <g id="Layer_x0020_1">
  <metadata id="CorelCorpID_0Corel-Layer"/>
  <rect class="fil0" width="120" height="120"/>
  <g id="_856332624">
   <g>
    <g>
     <polygon class="fil1" points="4,8 101,8 101,118 4,118 "/>
     <path id="1" class="fil2" d="M101 10l-97 0 0 -3 97 0 1 1 -1 2zm0 -3l1 0 0 1 -1 -1zm-1 111l0 -110 2 0 0 110 -1 1 -1 -1zm2 0l0 1 -1 0 1 -1zm-98 -1l97 0 0 2 -97 0 0 -1 0 -1zm0 2l0 0 0 -1 0 1zm1 -111l0 110 -1 0 0 -110 0 -1 1 1zm-1 0l0 -1 0 0 0 1z"/>
    </g>
    <g>
     <g>
      <polygon class="fil2" points="92,49 13,49 13,45 92,45 "/>
     </g>
     <g>
      <polygon class="fil2" points="50,111 50,47 55,47 55,111 "/>
     </g>
    </g>
    <polygon class="fil3" points="25,40 21,40 21,23 15,24 15,21 24,17 25,17 "/>
    <path id="1" class="fil3" d="M45 40l-15 0 0 -3 7 -8c1,-1 2,-2 2,-3 1,-1 1,-1 1,-2 0,-1 0,-2 -1,-3 0,0 -1,0 -2,0 -1,0 -2,0 -2,1 -1,0 -1,1 -1,2l-4 0c0,-1 0,-2 0,-3 1,-1 2,-2 3,-3 1,-1 3,-1 4,-1 3,0 4,1 6,2 1,1 1,2 1,4 0,1 0,3 0,4 -1,1 -2,2 -3,4l-5 5 9 0 0 4z"/>
    <g>
     <rect class="fil4" transform="matrix(0.979525 -0.979519 0.979525 0.979519 20.8935 90.784)" width="3.51503" height="18.3594" rx="1" ry="1"/>
     <rect class="fil4" transform="matrix(-0.979525 -0.979519 -0.979525 0.979519 42.32 90.784)" width="3.51503" height="18.3594" rx="1" ry="1"/>
    </g>
    <g>
     <g id="_856302504">
      <path class="fil5" d="M97 64l18 17c1,1 1,3 0,4l-30 28c-1,1 -3,1 -4,0l-17 -16c-1,-1 -1,-3 0,-4l29 -29c1,-1 3,-1 4,0z"/>
      <path class="fil6" d="M79 78l-15 15c-1,1 -1,3 0,4l17 16c1,1 3,1 4,0l15 -14 -21 -21z"/>
      <path class="fil7" d="M71 87l-7 6c-1,1 -1,3 0,4l17 16c1,1 3,1 4,0l6 -6 -20 -20z"/>
      <polygon class="fil8" points="67,90 88,112 86,114 65,92 "/>
     </g>
     <ellipse class="fil9" cx="81" cy="113" rx="16" ry="1"/>
    </g>
   </g>
   <path class="fil2" d="M24 76l0 -20 7 0c1,0 3,1 4,2 2,0 3,1 3,3 1,1 2,3 2,5l0 1c0,2 -1,3 -2,5 0,1 -1,2 -3,3 -1,1 -3,1 -4,1l-7 0zm4 -16l0 13 2 0c2,0 3,-1 4,-2 1,-1 1,-2 1,-4l0 -1c0,-2 0,-4 -1,-5 -1,-1 -2,-1 -3,-1l-3 0z"/>
   <path class="fil2" d="M82 69c0,3 -1,4 -3,5 -1,2 -3,2 -5,2 -3,0 -5,-1 -6,-2 -2,-2 -3,-4 -3,-7l0 -2c0,-2 1,-3 1,-5 1,-1 2,-2 3,-3 2,-1 3,-1 5,-1 2,0 4,0 5,2 2,1 3,3 3,5l-4 0c0,-1 -1,-2 -1,-3 -1,-1 -2,-1 -3,-1 -2,0 -3,1 -3,2 -1,1 -1,2 -1,4l0 2c0,2 0,3 1,4 0,1 1,2 3,2 1,0 2,0 3,-1 0,0 1,-1 1,-3l4 0z"/>
   <g>
    <circle class="fil10" cx="89" cy="22" r="20"/>
    <path class="fil11" d="M92 27c0,-1 0,-1 0,-2 -1,0 -2,-1 -3,-1 -1,-1 -2,-1 -3,-1 -1,-1 -1,-1 -2,-2 0,-1 -1,-1 -1,-2 -1,-1 -1,-2 -1,-3 0,-1 1,-3 2,-4 1,-1 3,-2 5,-2l0 -1 0 -2 0 0 0 0c0,0 0,0 0,0l1 0c1,0 1,0 1,0l0 0 0 0 0 2 0 1c2,0 3,1 4,2 1,2 2,3 2,5l0 0 0 0c0,1 -1,1 -1,1l-2 0c-1,0 -1,0 -2,-1l0 0 0 0 0 0 0 0 0 0c0,-1 0,-2 0,-2 -1,-1 -2,-1 -2,-1 -1,0 -2,0 -2,0 -1,1 -1,2 -1,2 0,1 0,2 1,2 0,1 1,1 2,2 1,0 2,1 3,1 1,1 2,1 2,2 1,0 1,1 2,2 0,0 0,1 0,2 0,2 -1,4 -2,5 -1,1 -2,1 -4,2l0 1c0,0 0,0 0,0l0 1c0,0 -1,1 -1,1l-1 0c0,0 -1,-1 -1,-1l0 -1c0,0 0,0 0,0l0 -1c-2,-1 -4,-1 -5,-3 -1,-1 -2,-2 -2,-4l0 0c0,-1 1,-2 2,-2l1 0c1,0 2,1 2,2l0 0 0 0 0 0 0 0 0 0 0 0c0,1 0,1 1,2 0,1 1,1 2,1 1,0 2,0 3,-1 0,0 0,-1 0,-2z"/>
   </g>
  </g>
 </g>
</svg>
