<?xml version="1.0" encoding="UTF-8"?>
<!DOCTYPE svg PUBLIC "-//W3C//DTD SVG 1.1//EN" "http://www.w3.org/Graphics/SVG/1.1/DTD/svg11.dtd">
<!-- Creator: CorelDRAW X7 -->
<svg xmlns="http://www.w3.org/2000/svg" xml:space="preserve" width="48px" height="48px" version="1.1" style="shape-rendering:geometricPrecision; text-rendering:geometricPrecision; image-rendering:optimizeQuality; fill-rule:evenodd; clip-rule:evenodd"
viewBox="0 0 48 48"
 xmlns:xlink="http://www.w3.org/1999/xlink">
 <defs>
  <style type="text/css">
   <![CDATA[
    .fil2 {fill:#FEFEFE}
    .fil12 {fill:#ED3237}
    .fil11 {fill:#00A859}
    .fil4 {fill:black}
    .fil1 {fill:#2887D2}
    .fil0 {fill:#2887D2}
    .fil17 {fill:#999999}
    .fil9 {fill:#0083FD;fill-rule:nonzero}
    .fil8 {fill:#0094FD;fill-rule:nonzero}
    .fil10 {fill:#22A7FF;fill-rule:nonzero}
    .fil13 {fill:#26A6D1;fill-rule:nonzero}
    .fil6 {fill:#60B8FF;fill-rule:nonzero}
    .fil5 {fill:#B4DBFF;fill-rule:nonzero}
    .fil15 {fill:#CB4E44;fill-rule:nonzero}
    .fil7 {fill:#D9EDFF;fill-rule:nonzero}
    .fil14 {fill:#E2574C;fill-rule:nonzero}
    .fil16 {fill:#EAE5E4;fill-rule:nonzero}
    .fil3 {fill:url(#id0);fill-rule:nonzero}
   ]]>
  </style>
  <linearGradient id="id0" gradientUnits="objectBoundingBox" x1="67.9837%" y1="99.4607%" x2="32.0163%" y2="0.539262%">
   <stop offset="0" style="stop-opacity:1; stop-color:#119E54"/>
   <stop offset="0.619608" style="stop-opacity:1; stop-color:#13BC69"/>
   <stop offset="1" style="stop-opacity:1; stop-color:#15DB7F"/>
  </linearGradient>
 </defs>
 <g id="Layer_x0020_1">
  <metadata id="CorelCorpID_0Corel-Layer"/>
  <g id="_783045184">
   <g>
    <g>
     <path class="fil0" d="M9 45l31 0c1,0 2,-2 2,-3l0 -40c0,-1 -1,-2 -2,-2l-31 0 0 0 -3 0 0 45 3 0z"/>
     <rect class="fil0" x="8" y="1" width="33.2322" height="41.9846"/>
    </g>
    <g>
     <path class="fil1" d="M11 48l31 0c2,0 3,-1 3,-2l0 -40c0,-1 -1,-2 -3,-2l-31 0 0 0 -3 0 0 44 3 0z"/>
     <rect class="fil2" x="10" y="5" width="33.2322" height="41.9846"/>
    </g>
    <polygon class="fil3" points="24,20 21,20 21,11 18,12 18,10 24,8 24,8 "/>
    <path id="1" class="fil3" d="M34 20l-8 0 0 -1 4 -5c0,0 1,-1 1,-1 0,-1 0,-1 0,-1 0,-1 0,-1 0,-2 0,0 -1,0 -1,0 -1,0 -1,0 -2,0 0,1 0,1 0,2l-3 0c0,-1 1,-1 1,-2 0,-1 1,-1 2,-2 0,0 1,0 2,0 1,0 2,0 3,1 0,0 1,1 1,2 0,1 0,2 -1,2 0,1 -1,2 -1,2l-3 3 5 0 0 2z"/>
    <rect class="fil0" x="13" y="10" width="4.08531" height="1.50057"/>
    <rect class="fil0" x="13" y="14" width="4.08531" height="1.50057"/>
    <rect class="fil0" x="13" y="17" width="4.08531" height="1.50057"/>
    <rect class="fil0" x="36" y="10" width="4.08531" height="1.50057"/>
    <rect class="fil0" x="36" y="14" width="4.08531" height="1.50057"/>
    <rect class="fil0" x="36" y="17" width="4.08531" height="1.50057"/>
    <rect class="fil0" x="13" y="24" width="26.9732" height="1.50057"/>
    <g>
     <path class="fil4" d="M1 44l0 0c0,0 0,0 0,1l0 1 0 0c1,0 1,0 1,0l0 -2c0,0 -1,0 -1,0z"/>
     <path class="fil5" d="M2 45c0,0 0,0 0,0l-1 0c0,0 0,0 0,0l-1 -4c0,0 0,1 1,1l1 0c1,0 1,0 1,-1l-1 4z"/>
     <path class="fil6" d="M2 43l0 -1 -1 0c-1,0 -1,-1 -1,-1l1 4c0,0 0,0 0,0l1 0c0,0 0,0 0,0 0,-1 0,-1 0,-1 0,0 0,0 0,-1z"/>
     <path class="fil5" d="M3 9l-2 0c0,0 0,0 -1,0l0 -2c0,-1 1,-1 1,-1l1 0c1,0 1,0 1,1l0 2c0,0 0,0 0,0z"/>
     <path class="fil6" d="M2 8c0,0 0,0 0,0 0,0 0,-1 0,-1l0 -1 -1 0c0,0 -1,0 -1,1l0 2c1,0 1,0 1,0l2 0c0,0 0,0 0,0l0 -1 -1 0z"/>
     <path class="fil7" d="M2 42l-1 0c-1,0 -1,-1 -1,-1l0 -31c0,0 0,-1 1,-1l2 0c0,0 0,1 0,1l0 31c0,0 0,1 -1,1z"/>
     <path class="fil5" d="M2 40c0,0 -1,0 -1,-1l0 -30 0 0c-1,0 -1,1 -1,1l0 31c0,0 0,1 1,1l1 0c1,0 1,-1 1,-1l0 -1 -1 0z"/>
     <polygon class="fil8" points="0,32 3,32 3,37 0,37 "/>
     <polygon class="fil9" points="0,37 0,32 1,32 1,37 "/>
     <polygon class="fil6" points="0,10 3,10 3,32 0,32 "/>
     <polygon class="fil10" points="0,10 0,32 0,32 1,32 1,10 "/>
    </g>
    <path class="fil11" d="M14 32c0,0 0,0 0,-1 0,0 0,0 0,0l1 0c0,-1 0,-1 0,0l0 0 3 2c0,0 0,0 0,0l7 -6 0 0 0 0c0,0 0,0 0,0l1 0c0,1 0,1 0,1l0 0 -7 8c-1,0 -1,0 -1,0 0,0 0,0 0,0l-4 -4 0 0 0 0z"/>
    <g>
     <rect class="fil12" transform="matrix(0.45193 -0.451931 0.45193 0.451931 13.3064 37.6888)" width="3.5455" height="18.5185" rx="1" ry="1"/>
     <rect class="fil12" transform="matrix(-0.45193 -0.451931 -0.45193 0.451931 23.2778 37.6888)" width="3.5455" height="18.5185" rx="1" ry="1"/>
    </g>
   </g>
   <g>
    <path class="fil13" d="M40 24l8 7c0,0 0,1 0,2l-13 11c0,1 -1,1 -2,0l-7 -6c0,-1 0,-1 0,-2l13 -12c0,-1 1,-1 1,0z"/>
    <path class="fil14" d="M32 30l-6 6c0,1 0,1 0,2l7 6c1,1 2,1 2,0l6 -5 -9 -9z"/>
    <path class="fil15" d="M29 33l-3 3c0,1 0,1 0,2l7 6c1,1 2,1 2,0l3 -2 -9 -9z"/>
    <polygon class="fil16" points="27,35 36,44 36,45 26,36 "/>
   </g>
   <ellipse class="fil17" cx="33" cy="44" rx="7" ry="1"/>
  </g>
 </g>
</svg>
