<?xml version="1.0" encoding="UTF-8"?>
<!DOCTYPE svg PUBLIC "-//W3C//DTD SVG 1.1//EN" "http://www.w3.org/Graphics/SVG/1.1/DTD/svg11.dtd">
<!-- Creator: CorelDRAW X7 -->
<svg xmlns="http://www.w3.org/2000/svg" xml:space="preserve" width="48px" height="48px" version="1.1" style="shape-rendering:geometricPrecision; text-rendering:geometricPrecision; image-rendering:optimizeQuality; fill-rule:evenodd; clip-rule:evenodd"
viewBox="0 0 48 47"
 xmlns:xlink="http://www.w3.org/1999/xlink">
 <defs>
  <style type="text/css">
   <![CDATA[
    .fil0 {fill:#FEFEFE}
    .fil6 {fill:#ED3237}
    .fil5 {fill:#00A859}
    .fil2 {fill:#2887D2}
    .fil11 {fill:#999999}
    .fil3 {fill:white}
    .fil7 {fill:#26A6D1;fill-rule:nonzero}
    .fil1 {fill:#2887D2;fill-rule:nonzero}
    .fil9 {fill:#CB4E44;fill-rule:nonzero}
    .fil8 {fill:#E2574C;fill-rule:nonzero}
    .fil10 {fill:#EAE5E4;fill-rule:nonzero}
    .fil4 {fill:url(#id0);fill-rule:nonzero}
   ]]>
  </style>
  <linearGradient id="id0" gradientUnits="objectBoundingBox" x1="67.3451%" y1="100.522%" x2="32.6641%" y2="0%">
   <stop offset="0" style="stop-opacity:1; stop-color:#119E54"/>
   <stop offset="0.619608" style="stop-opacity:1; stop-color:#13BC69"/>
   <stop offset="1" style="stop-opacity:1; stop-color:#15DB7F"/>
  </linearGradient>
 </defs>
 <g id="Layer_x0020_1">
  <metadata id="CorelCorpID_0Corel-Layer"/>
  <g id="_789151176">
   <g>
    <g>
     <polygon class="fil0" points="0,7 41,7 41,47 0,47 "/>
     <path id="1" class="fil1" d="M41 8l-41 0 0 -1 41 0 1 0 -1 1zm0 -1l1 0 0 0 -1 0zm0 40l0 -40 1 0 0 40 -1 0 0 0zm1 0l0 0 -1 0 1 0zm-42 -1l41 0 0 1 -41 0 0 0 0 -1zm0 1l0 0 0 0 0 0zm1 -40l0 40 -1 0 0 -40 0 0 1 0zm-1 0l0 0 0 0 0 0z"/>
    </g>
    <path class="fil2" d="M41 6c0,0 0,0 0,0l0 -5c0,0 0,-1 -1,-1l-38 0c-1,0 -2,1 -2,1l0 5c0,0 0,0 0,0l41 0z"/>
    <circle class="fil3" cx="4" cy="3" r="1"/>
    <circle class="fil3" cx="8" cy="3" r="1"/>
    <circle class="fil3" cx="12" cy="3" r="1"/>
   </g>
   <g id="_789152496">
    <g>
     <polygon class="fil1" points="29,23 5,23 5,22 29,22 "/>
    </g>
    <g>
     <polygon class="fil1" points="16,36 16,23 17,23 17,36 "/>
    </g>
    <rect class="fil2" x="19" y="26" width="10.1414" height="1.44708"/>
    <rect class="fil2" x="19" y="30" width="10.1414" height="1.44708"/>
    <rect class="fil2" x="5" y="26" width="10.1414" height="1.44708"/>
    <rect class="fil2" x="5" y="30" width="10.1414" height="1.44708"/>
   </g>
   <polygon class="fil4" points="15,20 13,20 13,13 11,14 11,12 15,11 15,11 "/>
   <path id="1" class="fil4" d="M24 20l-7 0 0 -1 3 -3c1,-1 1,-1 1,-2 0,0 0,0 0,-1 0,0 0,0 0,-1 0,0 0,0 -1,0 0,0 0,0 -1,0 0,1 0,1 0,2l-2 0c0,-1 0,-1 0,-2 1,0 1,-1 2,-1 0,0 1,0 1,0 1,0 2,0 3,0 0,1 0,1 0,2 0,1 0,1 0,2 0,0 -1,1 -1,1l-2 3 4 0 0 1z"/>
   <path class="fil5" d="M5 40c0,0 0,0 0,0 0,0 0,0 0,0l1 -1c0,0 0,0 0,0l1 0 2 3c0,0 0,0 0,0l5 -6 0 0 0 0c0,0 0,0 0,0l1 1c0,0 0,0 0,0l0 0 -6 7c0,0 0,0 0,0 0,0 0,0 -1,0l-2 -4 -1 0 0 0z"/>
   <g>
    <rect class="fil6" transform="matrix(0.360811 -0.360809 0.360811 0.360809 18.7105 37.4135)" width="3.45528" height="18.0473" rx="1" ry="1"/>
    <rect class="fil6" transform="matrix(-0.360811 -0.360809 -0.360811 0.360809 26.4688 37.4135)" width="3.45528" height="18.0473" rx="1" ry="1"/>
   </g>
   <g>
    <g>
     <path class="fil7" d="M40 20l7 7c1,0 1,1 0,2l-12 11c-1,1 -2,1 -2,0l-7 -6c-1,-1 -1,-1 0,-2l12 -12c1,-1 1,-1 2,0z"/>
     <path class="fil8" d="M32 26l-6 6c-1,1 -1,1 0,2l7 6c0,1 1,1 2,0l6 -5 -9 -9z"/>
     <path class="fil9" d="M29 29l-3 3c-1,1 -1,1 0,2l7 6c0,1 1,1 2,0l2 -2 -8 -9z"/>
     <polygon class="fil10" points="27,31 36,40 35,41 26,32 "/>
    </g>
    <ellipse class="fil11" cx="33" cy="40" rx="7" ry="1"/>
   </g>
  </g>
 </g>
</svg>
