<?xml version="1.0" encoding="UTF-8"?>
<!DOCTYPE svg PUBLIC "-//W3C//DTD SVG 1.1//EN" "http://www.w3.org/Graphics/SVG/1.1/DTD/svg11.dtd">
<!-- Creator: CorelDRAW X7 -->
<svg xmlns="http://www.w3.org/2000/svg" xml:space="preserve" width="44px" height="49px" version="1.1" style="shape-rendering:geometricPrecision; text-rendering:geometricPrecision; image-rendering:optimizeQuality; fill-rule:evenodd; clip-rule:evenodd"
viewBox="0 0 44 50"
 xmlns:xlink="http://www.w3.org/1999/xlink">
 <defs>
  <style type="text/css">
   <![CDATA[
    .fil0 {fill:#FEFEFE}
    .fil2 {fill:#2887D2}
    .fil1 {fill:#0098DA;fill-rule:nonzero}
    .fil3 {fill:#2887D2;fill-rule:nonzero}
    .fil4 {fill:#FCBC44;fill-rule:nonzero}
    .fil7 {fill:url(#id0);fill-rule:nonzero}
    .fil5 {fill:url(#id1);fill-rule:nonzero}
    .fil6 {fill:url(#id2);fill-rule:nonzero}
   ]]>
  </style>
  <linearGradient id="id0" gradientUnits="objectBoundingBox" x1="67.9826%" y1="99.4548%" x2="32.0174%" y2="0.545244%">
   <stop offset="0" style="stop-opacity:1; stop-color:#119E54"/>
   <stop offset="0.619608" style="stop-opacity:1; stop-color:#13BC69"/>
   <stop offset="1" style="stop-opacity:1; stop-color:#15DB7F"/>
  </linearGradient>
  <linearGradient id="id1" gradientUnits="userSpaceOnUse" xlink:href="#id0" x1="7.38416" y1="13.4997" x2="3.89637" y2="5.85468">
  </linearGradient>
  <linearGradient id="id2" gradientUnits="userSpaceOnUse" xlink:href="#id0" x1="15.5259" y1="12.9958" x2="13.1364" y2="7.75938">
  </linearGradient>
 </defs>
 <g id="Layer_x0020_1">
  <metadata id="CorelCorpID_0Corel-Layer"/>
  <g id="_462901560">
   <g>
    <g>
     <path class="fil0" d="M0 1l0 48c0,0 44,-1 44,0 0,1 -1,-37 -1,-37l-8 -11 -1 0c0,0 -34,0 -34,0z"/>
     <path id="1" class="fil1" d="M0 49l0 -48 1 0 0 48 -1 0 0 0zm0 0l0 0 0 0 0 0zm44 0l-1 0 0 0 0 1 0 -1 -1 0 0 0 -1 0 -1 0 -2 0 -1 0 -2 0 -1 0 -2 0 -2 0 -2 0 -2 0 -2 0 -2 0 -2 0 -2 0 -2 0 -2 0 -2 0 -2 0 -1 0 -2 0 -1 0 -2 0 -1 0 -1 0 0 0 -1 0 0 0 -1 0 0 -1 1 0 0 0 1 0 0 0 1 0 1 0 2 0 1 0 2 0 1 0 2 0 2 0 2 0 2 0 2 0 2 0 2 0 2 0 2 0 2 0 2 0 2 0 1 0 2 0 1 0 2 0 1 0 1 0 0 0 1 0 1 0 0 1 0 0zm-1 -37l1 -1 0 1 0 0 0 0 0 1 0 0 0 1 0 1 0 1 0 2 0 1 0 2 0 1 0 2 0 2 0 1 0 2 0 2 0 2 0 1 0 2 0 2 0 1 0 2 0 1 0 2 0 1 0 1 0 1 0 1 0 0 0 1 0 0 -1 0 1 0 -1 0 0 0 0 -1 0 0 0 -1 0 -1 0 -1 0 -1 0 -2 0 -1 0 -2 0 -1 0 -2 0 -2 0 -1 0 -2 0 -2 0 -2 0 -1 0 -2 0 -2 0 -1 0 -2 0 -1 0 -2 0 -1 0 -1 0 -1 0 0 0 -1 0 0 0 0 0 0zm-8 -11l9 10 -1 1 -9 -11 0 0 1 0zm-1 0l0 0 0 0 0 0zm1 -1l0 1 -1 0 0 0 0 -1 1 0zm-1 0l1 0 0 0 -1 0zm-33 1l-1 0 0 0 1 -1 0 0 0 0 1 0 1 0 1 0 1 0 1 0 1 0 1 0 2 0 1 0 2 0 1 0 2 0 1 0 2 0 2 0 1 0 2 0 1 0 2 0 1 0 1 0 1 0 1 0 1 0 1 0 1 0 0 0 0 0 0 0 1 1 -1 0 0 0 0 0 -1 0 -1 0 -1 0 -1 0 -1 0 -1 0 -1 0 -2 0 -1 0 -2 0 -1 0 -2 0 -2 0 -1 0 -2 0 -1 0 -2 0 -1 0 -2 0 -1 0 -1 0 -1 0 -1 0 -1 1 -1 0 -1 0 0 0 0 0 0 -1 0 0z"/>
    </g>
    <path class="fil2" d="M35 2l0 7c0,0 0,2 1,3 2,0 7,0 7,0l-8 -11 0 1z"/>
   </g>
   <g id="_462902784">
    <path class="fil3" d="M5 47l3 0 0 -15 -3 0c0,0 0,0 0,0l0 15z"/>
    <path class="fil4" d="M9 47l3 0 0 -12 -3 0c0,0 0,0 0,0l0 12z"/>
    <path class="fil3" d="M18 47l3 0 0 -23 -3 0c0,0 0,0 0,0l0 23z"/>
    <path class="fil4" d="M22 47l3 0 0 -17 -3 0c0,0 0,0 0,0l0 17z"/>
    <path class="fil3" d="M32 47l3 0 0 -12 -3 0c0,0 0,1 0,1l0 11z"/>
    <path class="fil4" d="M36 47l3 0 0 -9 -3 0c0,0 0,0 0,0l0 9z"/>
   </g>
   <g id="_462902064">
    <polygon class="fil5" points="8,15 6,15 6,7 3,8 3,6 8,5 8,5 "/>
    <path class="fil6" d="M10 11l6 0 0 2 2 -3 -2 -2 0 1 -6 0 0 2zm3 0m3 1m1 0m0 -3m-1 0m-3 0m-3 1"/>
    <polygon class="fil7" points="23,15 21,15 21,7 19,8 19,6 23,5 23,5 "/>
    <path id="1" class="fil7" d="M32 15l-7 0 0 -2 3 -3c0,-1 1,-1 1,-1 0,-1 0,-1 0,-1 0,-1 0,-1 0,-2 0,0 -1,0 -1,0 0,0 -1,0 -1,1 0,0 0,0 0,1l-2 0c0,-1 0,-1 0,-2 0,0 1,-1 1,-1 1,0 1,-1 2,-1 1,0 2,1 2,1 1,1 1,1 1,2 0,1 0,1 0,2 0,0 -1,1 -1,2l-3 2 5 0 0 2z"/>
   </g>
  </g>
 </g>
</svg>
