<?xml version="1.0" encoding="UTF-8"?>
<!DOCTYPE svg PUBLIC "-//W3C//DTD SVG 1.1//EN" "http://www.w3.org/Graphics/SVG/1.1/DTD/svg11.dtd">
<!-- Creator: CorelDRAW X7 -->
<svg xmlns="http://www.w3.org/2000/svg" xml:space="preserve" width="48px" height="48px" version="1.1" style="shape-rendering:geometricPrecision; text-rendering:geometricPrecision; image-rendering:optimizeQuality; fill-rule:evenodd; clip-rule:evenodd"
viewBox="0 0 48 49"
 xmlns:xlink="http://www.w3.org/1999/xlink">
 <defs>
  <style type="text/css">
   <![CDATA[
    .fil0 {fill:#FEFEFE}
    .fil2 {fill:#2887D2}
    .fil3 {fill:white}
    .fil1 {fill:#2887D2;fill-rule:nonzero}
    .fil7 {fill:#FCBC44;fill-rule:nonzero}
    .fil6 {fill:url(#id0);fill-rule:nonzero}
    .fil5 {fill:url(#id1);fill-rule:nonzero}
    .fil4 {fill:url(#id2);fill-rule:nonzero}
   ]]>
  </style>
  <linearGradient id="id0" gradientUnits="objectBoundingBox" x1="67.9828%" y1="99.46%" x2="32.0172%" y2="0.551708%">
   <stop offset="0" style="stop-opacity:1; stop-color:#119E54"/>
   <stop offset="0.619608" style="stop-opacity:1; stop-color:#13BC69"/>
   <stop offset="1" style="stop-opacity:1; stop-color:#15DB7F"/>
  </linearGradient>
  <linearGradient id="id1" gradientUnits="userSpaceOnUse" xlink:href="#id0" x1="22.0006" y1="19.2073" x2="19.6557" y2="14.0657">
  </linearGradient>
  <linearGradient id="id2" gradientUnits="userSpaceOnUse" xlink:href="#id0" x1="14.0101" y1="19.7007" x2="10.5862" y2="12.1964">
  </linearGradient>
 </defs>
 <g id="Layer_x0020_1">
  <metadata id="CorelCorpID_0Corel-Layer"/>
  <g id="_235130808">
   <g>
    <g>
     <polygon class="fil0" points="0,8 48,8 48,48 0,48 "/>
     <path id="1" class="fil1" d="M48 9l-48 0 0 -1 48 0 0 0 0 1zm0 -1l0 0 0 0 0 0zm-1 40l0 -40 1 0 0 40 0 1 -1 -1zm1 0l0 1 0 0 0 -1zm-48 0l48 0 0 1 -48 0 0 -1 0 0zm0 1l0 0 0 -1 0 1zm1 -41l0 40 -1 0 0 -40 0 0 1 0zm-1 0l0 0 0 0 0 0z"/>
    </g>
    <path class="fil2" d="M47 7c1,0 1,0 1,0l0 -6c0,0 -1,-1 -2,-1l-44 0c-1,0 -2,1 -2,1l0 6c0,0 0,0 1,0l46 0z"/>
    <circle class="fil3" cx="5" cy="4" r="2"/>
    <circle class="fil3" cx="10" cy="4" r="2"/>
    <circle class="fil3" cx="14" cy="4" r="2"/>
   </g>
   <g id="_235131816">
    <polygon class="fil4" points="14,21 12,21 12,13 10,14 10,12 14,11 14,11 "/>
    <path class="fil5" d="M17 18l5 0 0 1 3 -2 -3 -3 0 2 -5 0 0 2zm2 0m3 0m1 0m0 -2m-1 -1m-3 1m-2 1"/>
    <polygon class="fil6" points="30,21 28,21 28,13 25,14 25,12 29,11 30,11 "/>
    <path id="1" class="fil6" d="M38 21l-7 0 0 -1 3 -4c1,0 1,-1 1,-1 0,0 1,-1 1,-1 0,-1 -1,-1 -1,-1 0,0 0,-1 -1,-1 0,0 -1,1 -1,1 0,0 0,1 0,1l-2 0c0,0 0,-1 0,-2 1,0 1,0 2,-1 0,0 1,0 1,0 1,0 2,0 3,1 0,0 1,1 1,2 0,0 -1,1 -1,1 0,1 -1,1 -1,2l-2 2 4 0 0 2z"/>
   </g>
   <g id="_235130688">
    <path class="fil1" d="M8 45l4 0 0 -14 -3 0c-1,0 -1,0 -1,0l0 14z"/>
    <path class="fil7" d="M12 45l4 0 0 -11 -3 0c-1,0 -1,0 -1,0l0 11z"/>
    <path class="fil1" d="M21 45l3 0 0 -22 -3 0c0,0 0,0 0,1l0 21z"/>
    <path class="fil7" d="M25 45l3 0 0 -16 -3 0c0,0 0,0 0,0l0 16z"/>
    <path class="fil1" d="M35 45l3 0 0 -11 -3 0c0,0 0,0 0,0l0 11z"/>
    <path class="fil7" d="M39 45l3 0 0 -8 -3 0c0,0 0,0 0,0l0 8z"/>
   </g>
  </g>
 </g>
</svg>
