<?xml version="1.0" encoding="UTF-8"?>
<!DOCTYPE svg PUBLIC "-//W3C//DTD SVG 1.1//EN" "http://www.w3.org/Graphics/SVG/1.1/DTD/svg11.dtd">
<!-- Creator: CorelDRAW X7 -->
<svg xmlns="http://www.w3.org/2000/svg" xml:space="preserve" width="48px" height="40px" version="1.1" style="shape-rendering:geometricPrecision; text-rendering:geometricPrecision; image-rendering:optimizeQuality; fill-rule:evenodd; clip-rule:evenodd"
viewBox="0 0 48 40"
 xmlns:xlink="http://www.w3.org/1999/xlink">
 <defs>
  <style type="text/css">
   <![CDATA[
    .fil3 {fill:#FEFEFE}
    .fil5 {fill:#2887D2}
    .fil1 {fill:#E32210}
    .fil0 {fill:#F0A71F}
    .fil2 {fill:white}
    .fil4 {fill:#2887D2;fill-rule:nonzero}
    .fil6 {fill:#F0A71F;fill-rule:nonzero}
   ]]>
  </style>
 </defs>
 <g id="Layer_x0020_1">
  <metadata id="CorelCorpID_0Corel-Layer"/>
  <g id="_807755920">
   <g>
    <g>
     <g>
      <rect class="fil0" y="15" width="29.7065" height="25.099"/>
      <path class="fil1" d="M30 14c0,0 0,0 0,0l0 -4c0,0 -1,0 -2,0l-27 0c0,0 -1,0 -1,0l0 4c0,0 0,0 0,0l30 0z"/>
      <circle class="fil2" cx="3" cy="12" r="1"/>
      <circle class="fil2" cx="6" cy="12" r="1"/>
      <circle class="fil2" cx="9" cy="12" r="1"/>
     </g>
     <g>
      <g>
       <g>
        <polygon class="fil3" points="14,6 48,6 48,35 14,35 "/>
        <path id="1" class="fil4" d="M48 6l-34 0 0 0 34 0 0 0 0 0zm0 0l0 0 0 0 0 0zm0 29l0 -29 0 0 0 29 0 0 0 0zm0 0l0 0 0 0 0 0zm-34 -1l34 0 0 1 -34 0 0 0 0 -1zm0 1l0 0 0 0 0 0zm0 -29l0 29 0 0 0 -29 0 0 0 0zm0 0l0 0 0 0 0 0z"/>
       </g>
       <path class="fil5" d="M48 5c0,0 0,0 0,0l0 -4c0,-1 -1,-1 -1,-1l-32 0c0,0 -1,0 -1,1l0 4c0,0 0,0 0,0l34 0z"/>
       <circle class="fil2" cx="17" cy="3" r="1"/>
       <circle class="fil2" cx="21" cy="3" r="1"/>
       <circle class="fil2" cx="24" cy="3" r="1"/>
      </g>
      <g>
       <polygon class="fil4" points="43,17 18,17 18,16 43,16 "/>
      </g>
      <g>
       <polygon class="fil4" points="30,32 30,16 31,16 31,32 "/>
      </g>
      <path class="fil4" d="M22 15l0 -5 2 0c0,0 0,0 1,0 0,1 0,1 1,1 0,1 0,1 0,1l0 1c0,0 0,0 0,1 -1,0 -1,0 -1,1 -1,0 -1,0 -1,0l-2 0zm1 -4l0 3 1 0c0,0 0,0 0,0 1,-1 1,-1 1,-1l0 -1c0,0 0,0 0,-1 -1,0 -1,0 -1,0l-1 0z"/>
      <path class="fil4" d="M39 13c0,1 0,1 -1,1 0,1 0,1 -1,1 -1,0 -1,0 -1,-1 -1,0 -1,-1 -1,-1l0 -1c0,0 0,-1 0,-1 1,0 1,0 1,-1 0,0 1,0 1,0 1,0 1,0 1,1 1,0 1,0 1,1l-1 0c0,-1 0,-1 0,-1 0,0 -1,0 -1,0 0,0 -1,0 -1,0 0,0 0,1 0,1l0 1c0,0 0,1 0,1 0,0 1,0 1,0 0,0 1,0 1,0 0,0 0,0 0,-1l1 0z"/>
      <rect class="fil5" x="32" y="20" width="10.6815" height="1.35461"/>
      <rect class="fil5" x="32" y="23" width="10.6815" height="1.35461"/>
      <rect class="fil5" x="32" y="27" width="10.6815" height="1.35461"/>
      <rect class="fil5" x="18" y="31" width="10.6815" height="1.35461"/>
      <rect class="fil5" x="32" y="31" width="10.6815" height="1.35461"/>
     </g>
    </g>
    <g>
     <path class="fil4" d="M47 34l0 -28 1 0 0 28 0 0 -1 0zm0 1l0 -1 1 0 0 1 -1 0z"/>
    </g>
   </g>
   <g>
    <path class="fil4" d="M14 34l0 -28 1 0 0 28 0 0 -1 0zm0 1l0 -1 1 0 0 1 -1 0z"/>
   </g>
   <path class="fil6" d="M0 27l23 0 0 3 7 -7 -7 -6 0 3 -23 0 0 7zm12 0m11 2m3 -2m0 -7m-3 -2m-11 2m-12 3"/>
  </g>
 </g>
</svg>
