<?xml version="1.0" encoding="UTF-8"?>
<!DOCTYPE svg PUBLIC "-//W3C//DTD SVG 1.1//EN" "http://www.w3.org/Graphics/SVG/1.1/DTD/svg11.dtd">
<!-- Creator: CorelDRAW X7 -->
<svg xmlns="http://www.w3.org/2000/svg" xml:space="preserve" width="120px" height="120px" version="1.1" style="shape-rendering:geometricPrecision; text-rendering:geometricPrecision; image-rendering:optimizeQuality; fill-rule:evenodd; clip-rule:evenodd"
viewBox="0 0 120 120"
 xmlns:xlink="http://www.w3.org/1999/xlink">
 <defs>
  <style type="text/css">
   <![CDATA[
    .fil0 {fill:none}
    .fil3 {fill:#2887D2}
    .fil2 {fill:#FEFEFE;fill-rule:nonzero}
    .fil5 {fill:#FFF212;fill-rule:nonzero}
    .fil1 {fill:#2887D2;fill-rule:nonzero}
    .fil6 {fill:url(#id0)}
    .fil4 {fill:url(#id1)}
   ]]>
  </style>
  <linearGradient id="id0" gradientUnits="userSpaceOnUse" x1="65.8277" y1="72.1254" x2="22.6457" y2="65.6789">
   <stop offset="0" style="stop-opacity:1; stop-color:#FC4D44"/>
   <stop offset="1" style="stop-opacity:1; stop-color:#C73538"/>
  </linearGradient>
  <linearGradient id="id1" gradientUnits="userSpaceOnUse" x1="96.231" y1="36.1117" x2="112.574" y2="14.1215">
   <stop offset="0" style="stop-opacity:1; stop-color:#1CC8EB"/>
   <stop offset="0.631373" style="stop-opacity:1; stop-color:#0E96E0"/>
   <stop offset="1" style="stop-opacity:1; stop-color:#0063D4"/>
  </linearGradient>
 </defs>
 <g id="Layer_x0020_1">
  <metadata id="CorelCorpID_0Corel-Layer"/>
  <rect class="fil0" width="120" height="120"/>
  <g id="_690107816">
   <g>
    <g>
     <polygon class="fil1" points="71,12 71,22 71,98 5,98 5,12 "/>
     <g>
      <polygon class="fil2" points="67,10 67,21 67,95 2,95 2,10 "/>
      <path id="1" class="fil1" d="M66 21l0 -11 2 0 0 11 -2 0 0 0zm0 74l0 -74 2 0 0 74 -1 1 -1 -1zm2 0l0 1 -1 0 1 -1zm-66 -2l65 0 0 3 -65 0 -1 -1 1 -2zm0 3l-1 0 0 -1 1 1zm1 -86l0 85 -2 0 0 -85 1 -1 1 1zm-2 0l0 -1 1 0 -1 1zm66 1l-65 0 0 -2 65 0 1 1 -1 1zm0 -2l1 0 0 1 -1 -1z"/>
     </g>
    </g>
    <g>
     <polygon class="fil1" points="18,24 16,24 16,17 14,18 14,16 17,15 18,15 "/>
     <path id="1" class="fil1" d="M19 37l-6 0 0 -1 3 -3c1,-1 1,-1 1,-1 0,-1 0,-1 0,-1 0,-1 0,-1 0,-1 0,0 0,-1 -1,-1 0,0 0,1 -1,1 0,0 0,0 0,1l-2 0c0,-1 0,-1 1,-2 0,0 0,0 1,-1 0,0 1,0 1,0 1,0 2,0 2,1 1,0 1,1 1,2 0,0 0,0 0,1 0,0 -1,1 -1,1l-2 2 3 0 0 2z"/>
     <path id="2" class="fil1" d="M14 49c0,0 0,0 0,-1 0,0 0,0 1,0 0,0 0,0 0,0 1,1 1,1 1,1 0,0 0,1 -1,1 0,0 0,0 0,0 -1,0 -1,0 -1,0 0,0 0,-1 0,-1z"/>
     <path id="3" class="fil1" d="M14 62c0,0 0,0 0,0 0,-1 0,-1 1,-1 0,0 0,0 0,1 1,0 1,0 1,0 0,0 0,1 -1,1 0,0 0,0 0,0 -1,0 -1,0 -1,0 0,0 0,-1 0,-1z"/>
     <path id="4" class="fil1" d="M14 75c0,0 0,0 0,0 0,-1 0,-1 1,-1 0,0 0,0 0,1 1,0 1,0 1,0 0,1 0,1 -1,1 0,0 0,0 0,0 -1,0 -1,0 -1,0 0,0 0,0 0,-1z"/>
     <path id="5" class="fil1" d="M15 84l1 0c1,0 1,0 1,0 0,0 0,-1 0,-1 0,0 0,-1 0,-1 0,0 0,0 -1,0 0,0 0,0 -1,0 0,0 0,0 0,1l-2 0c0,-1 0,-1 1,-2 0,0 0,0 1,0 0,-1 1,-1 1,-1 1,0 2,1 2,1 1,0 1,1 1,2 0,0 0,1 0,1 0,0 -1,1 -1,1 0,0 1,0 1,1 0,0 0,0 0,1 0,1 0,1 -1,2 0,0 -1,0 -2,0 -1,0 -1,0 -2,0 0,-1 -1,-1 -1,-2l2 0c0,0 0,0 0,1 1,0 1,0 1,0 1,0 1,0 1,0 0,-1 1,-1 1,-1 0,-1 -1,-2 -2,-2l-1 0 0 -1z"/>
     <path id="6" class="fil1" d="M26 86c0,1 0,2 0,2 -1,1 -2,1 -3,1 0,0 -1,0 -2,-1 0,0 0,-1 0,-2l0 -2c0,-1 0,-2 0,-3 1,0 2,-1 2,-1 1,0 2,1 3,1 0,1 0,2 0,3l0 2zm-1 -2c0,-1 0,-1 -1,-2 0,0 0,0 -1,0 0,0 0,0 0,0 -1,1 -1,1 -1,2l0 2c0,1 0,1 1,1 0,1 0,1 0,1 1,0 1,0 1,-1 1,0 1,0 1,-1l0 -2z"/>
     <rect class="fil3" x="25" y="18" width="25.6986" height="3.90431"/>
     <rect class="fil3" x="25" y="31" width="34.319" height="3.90431"/>
     <rect class="fil3" x="31" y="82" width="28.4177" height="3.90431"/>
    </g>
   </g>
   <g id="_690109496">
    <g>
     <polygon class="fil1" points="109,24 109,34 109,110 44,110 44,24 "/>
     <g>
      <polygon class="fil2" points="105,22 105,33 105,107 40,107 40,22 "/>
      <path id="1" class="fil1" d="M104 33l0 -11 2 0 0 11 -2 0 0 0zm0 74l0 -74 2 0 0 74 -1 1 -1 -1zm2 0l0 1 -1 0 1 -1zm-66 -2l65 0 0 3 -65 0 -1 -1 1 -2zm0 3l-1 0 0 -1 1 1zm2 -86l0 85 -3 0 0 -85 1 -2 2 2zm-3 0l0 -2 1 0 -1 2zm66 1l-65 0 0 -3 65 0 1 2 -1 1zm0 -3l2 0 -1 2 -1 -2z"/>
     </g>
    </g>
    <polygon class="fil3" points="52,32 90,32 90,36 75,36 75,101 71,101 71,36 52,36 "/>
    <path class="fil1" d="M53 60l0 -17 5 0c1,0 3,1 4,1 1,1 2,2 3,3 1,1 1,3 1,4l0 1c0,2 0,3 -1,5 -1,1 -2,2 -3,2 -1,1 -2,1 -4,1l-5 0zm3 -14l0 12 2 0c1,0 2,-1 3,-2 1,-1 1,-2 1,-4l0 -1c0,-1 0,-3 -1,-4 -1,0 -2,-1 -3,-1l-2 0z"/>
    <path class="fil1" d="M95 55c0,1 -1,3 -2,4 -2,1 -3,1 -5,1 -2,0 -4,0 -5,-2 -2,-1 -2,-3 -2,-6l0 -1c0,-2 0,-3 1,-4 0,-2 1,-3 2,-3 1,-1 2,-1 4,-1 2,0 3,0 5,1 1,1 2,3 2,5l-4 0c0,-1 0,-2 -1,-3 0,0 -1,0 -2,0 -1,0 -2,0 -3,1 0,1 -1,2 -1,4l0 1c0,2 1,3 1,4 1,1 2,2 3,2 1,0 2,-1 2,-1 1,-1 1,-1 1,-2l4 0z"/>
   </g>
   <g>
    <circle class="fil4" cx="104" cy="25" r="14"/>
    <path class="fil5" d="M107 29c0,-1 -1,-1 -1,-1 0,-1 -1,-1 -2,-1 0,-1 -1,-1 -2,-1 0,-1 -1,-1 -1,-1 -1,-1 -1,-1 -1,-2 0,0 0,-1 0,-2 0,-1 0,-2 1,-3 1,0 2,-1 3,-1l0 -1 0 -1 0 0 0 0c0,0 0,0 0,0l1 0c0,0 1,0 1,0l0 0 0 0 0 1 0 1c1,0 2,1 3,2 0,1 1,1 1,3l0 0 0 0c0,0 -1,1 -1,1l-1 0c-1,0 -1,-1 -1,-1l0 0 0 0 0 0 0 0 0 0c0,-1 -1,-1 -1,-2 0,0 -1,0 -1,0 -1,0 -1,0 -2,0 0,0 0,1 0,1 0,1 0,1 0,2 1,0 1,0 2,1 1,0 2,1 2,1 1,0 1,0 2,1 0,0 0,1 0,1 1,1 1,1 1,2 0,1 -1,2 -1,3 -1,1 -2,1 -4,1l0 1c0,0 0,0 0,0l0 1c0,0 0,1 0,1l-1 0c0,0 0,-1 0,-1l0 -1c0,0 0,0 0,0l0 -1c-2,0 -3,0 -4,-1 -1,-1 -1,-2 -1,-3l0 0c0,-1 0,-1 1,-1l1 0c1,0 1,0 1,1l0 0 0 0 0 0 0 0 0 0 0 0c0,0 0,1 1,1 0,1 1,1 2,1 0,0 1,0 1,-1 0,0 1,0 1,-1z"/>
   </g>
   <path class="fil6" d="M45 65l1 0 0 0c2,1 11,6 11,5l4 -5 6 19 -21 1 4 -5c-4,-4 -5,-5 -9,-9 -2,-2 -17,-16 -19,-18 -5,-4 21,10 23,12l0 0z"/>
  </g>
 </g>
</svg>
