<?xml version="1.0" encoding="UTF-8"?>
<!DOCTYPE svg PUBLIC "-//W3C//DTD SVG 1.1//EN" "http://www.w3.org/Graphics/SVG/1.1/DTD/svg11.dtd">
<!-- Creator: CorelDRAW X7 -->
<svg xmlns="http://www.w3.org/2000/svg" xml:space="preserve" width="48px" height="41px" version="1.1" style="shape-rendering:geometricPrecision; text-rendering:geometricPrecision; image-rendering:optimizeQuality; fill-rule:evenodd; clip-rule:evenodd"
viewBox="0 0 48 41"
 xmlns:xlink="http://www.w3.org/1999/xlink">
 <defs>
  <style type="text/css">
   <![CDATA[
    .fil3 {fill:#FEFEFE}
    .fil6 {fill:#2887D2}
    .fil5 {fill:#2887D2}
    .fil1 {fill:#E32210}
    .fil0 {fill:#F0A71F}
    .fil2 {fill:white}
    .fil4 {fill:#2887D2;fill-rule:nonzero}
    .fil7 {fill:#F0A71F;fill-rule:nonzero}
   ]]>
  </style>
 </defs>
 <g id="Layer_x0020_1">
  <metadata id="CorelCorpID_0Corel-Layer"/>
  <g id="_689233144">
   <g>
    <rect class="fil0" y="14" width="32.8516" height="27.7567"/>
    <path class="fil1" d="M33 13c0,0 0,0 0,0l0 -4c0,-1 -1,-1 -1,-1l-31 0c0,0 -1,0 -1,1l0 4c0,0 0,0 0,0l33 0z"/>
    <circle class="fil2" cx="3" cy="10" r="1"/>
    <circle class="fil2" cx="6" cy="10" r="1"/>
    <circle class="fil2" cx="9" cy="10" r="1"/>
   </g>
   <g>
    <g>
     <polygon class="fil3" points="48,6 15,6 15,34 48,34 "/>
     <path id="1" class="fil4" d="M15 6l0 0 0 -1 33 0 0 1 -33 0zm0 0l0 -1 0 0 0 1zm0 28l0 0 0 0 0 -28 0 0 0 28zm0 0l0 0 0 0 0 0zm33 -1l0 1 0 0 -33 0 0 -1 33 0zm0 1l0 0 0 0 0 0zm0 -28l0 -1 0 1 0 28 0 0 0 -28zm0 -1l0 0 0 1 0 -1z"/>
    </g>
    <path class="fil5" d="M15 5c0,0 0,0 0,0l0 -4c0,-1 1,-1 1,-1l31 0c0,0 1,0 1,1l0 4c0,0 0,0 0,0l-33 0z"/>
    <circle class="fil2" cx="45" cy="3" r="1"/>
    <circle class="fil2" cx="42" cy="3" r="1"/>
    <circle class="fil2" cx="39" cy="3" r="1"/>
    <g>
     <g>
      <rect class="fil6" x="39" y="9" width="4.87591" height="4.67272"/>
      <rect class="fil6" x="29" y="9" width="4.87591" height="4.67272"/>
      <rect class="fil6" x="19" y="9" width="4.87591" height="4.67272"/>
     </g>
     <g>
      <rect class="fil6" x="39" y="27" width="4.87591" height="4.67272"/>
      <rect class="fil6" x="29" y="27" width="4.87591" height="4.67272"/>
      <rect class="fil6" x="19" y="27" width="4.87591" height="4.67272"/>
      <rect class="fil6" x="39" y="17" width="4.87591" height="4.67272"/>
     </g>
    </g>
   </g>
   <path class="fil7" d="M1 24l26 0 0 3 7 -6 -7 -6 0 3 -26 0 0 6zm13 0m13 1m3 -1m0 -6m-3 -2m-13 2m-13 3"/>
  </g>
 </g>
</svg>
