<?xml version="1.0" encoding="UTF-8"?>
<!DOCTYPE svg PUBLIC "-//W3C//DTD SVG 1.1//EN" "http://www.w3.org/Graphics/SVG/1.1/DTD/svg11.dtd">
<!-- Creator: CorelDRAW X7 -->
<svg xmlns="http://www.w3.org/2000/svg" xml:space="preserve" width="48px" height="31px" version="1.1" style="shape-rendering:geometricPrecision; text-rendering:geometricPrecision; image-rendering:optimizeQuality; fill-rule:evenodd; clip-rule:evenodd"
viewBox="0 0 48 31"
 xmlns:xlink="http://www.w3.org/1999/xlink">
 <defs>
  <style type="text/css">
   <![CDATA[
    .fil0 {fill:#FEFEFE}
    .fil6 {fill:#2887D2}
    .fil2 {fill:#2887D2}
    .fil5 {fill:#E32210}
    .fil4 {fill:#FCBC44}
    .fil3 {fill:white}
    .fil1 {fill:#2887D2;fill-rule:nonzero}
    .fil7 {fill:url(#id0)}
   ]]>
  </style>
  <linearGradient id="id0" gradientUnits="userSpaceOnUse" x1="36.4913" y1="19.2154" x2="21.8504" y2="17.0303">
   <stop offset="0" style="stop-opacity:1; stop-color:#FC4D44"/>
   <stop offset="1" style="stop-opacity:1; stop-color:#C73538"/>
  </linearGradient>
 </defs>
 <g id="Layer_x0020_1">
  <metadata id="CorelCorpID_0Corel-Layer"/>
  <g id="_788241840">
   <g>
    <g>
     <g>
      <g>
       <polygon class="fil0" points="23,4 48,4 48,25 23,25 "/>
       <path id="1" class="fil1" d="M48 5l-25 0 0 -1 25 0 0 0 0 1zm0 -1l0 0 0 0 0 0zm0 21l0 -21 0 0 0 21 0 1 0 -1zm0 0l0 1 0 0 0 -1zm-25 0l25 0 0 1 -25 0 0 -1 0 0zm0 1l0 0 0 -1 0 1zm1 -22l0 21 -1 0 0 -21 0 0 1 0zm-1 0l0 0 0 0 0 0z"/>
      </g>
      <path class="fil2" d="M48 4c0,0 0,0 0,0l0 -3c0,-1 0,-1 -1,-1l-23 0c0,0 -1,0 -1,1l0 3c0,0 0,0 0,0l25 0z"/>
      <circle class="fil3" cx="26" cy="2" r="1"/>
      <circle class="fil3" cx="28" cy="2" r="1"/>
      <circle class="fil3" cx="30" cy="2" r="1"/>
     </g>
     <g>
      <polygon class="fil1" points="44,12 26,12 26,12 44,12 "/>
     </g>
     <g>
      <polygon class="fil1" points="35,23 35,12 36,12 36,23 "/>
     </g>
     <path class="fil1" d="M29 11l0 -4 1 0c1,0 1,0 1,0 0,1 1,1 1,1 0,0 0,1 0,1l0 0c0,0 0,1 0,1 0,0 -1,0 -1,0 0,1 0,1 -1,1l-1 0zm1 -3l0 2 0 0c1,0 1,0 1,0 0,0 0,-1 0,-1l0 0c0,0 0,-1 0,-1 0,0 0,0 -1,0l0 0z"/>
     <path class="fil1" d="M41 10c0,0 0,0 0,0 0,1 0,1 -1,1 0,0 -1,0 -1,-1 0,0 0,0 0,-1l0 0c0,0 0,-1 0,-1 0,0 0,0 0,-1 1,0 1,0 1,0 1,0 1,0 1,1 0,0 0,0 0,0l0 0c0,0 0,0 0,0 -1,0 -1,0 -1,0 0,0 0,0 0,0 -1,0 -1,1 -1,1l0 0c0,0 0,1 1,1 0,0 0,0 0,0 0,0 0,0 1,0 0,0 0,0 0,0l0 0z"/>
     <rect class="fil2" x="26" y="14" width="7.69939" height="0.976425"/>
     <rect class="fil2" x="37" y="14" width="7.69939" height="0.976425"/>
     <rect class="fil2" x="26" y="17" width="7.69939" height="0.976425"/>
     <rect class="fil2" x="37" y="17" width="7.69939" height="0.976425"/>
     <rect class="fil2" x="26" y="20" width="7.69939" height="0.976425"/>
     <rect class="fil2" x="37" y="20" width="7.69939" height="0.976425"/>
     <rect class="fil2" x="26" y="22" width="7.69939" height="0.976425"/>
     <rect class="fil2" x="37" y="22" width="7.69939" height="0.976425"/>
    </g>
    <g>
     <rect class="fil4" y="13" width="21.6342" height="18.2788"/>
     <path class="fil5" d="M22 12c0,0 0,0 0,0l0 -3c0,0 -1,0 -1,0l-20 0c-1,0 -1,0 -1,0l0 3c0,0 0,0 0,0l22 0z"/>
     <circle class="fil3" cx="2" cy="10" r="1"/>
     <circle class="fil3" cx="4" cy="10" r="1"/>
     <circle class="fil3" cx="6" cy="10" r="1"/>
     <g id="_788241240">
      <g>
       <rect class="fil6" x="2" y="16" width="3.211" height="3.07715"/>
       <rect class="fil6" x="9" y="16" width="3.211" height="3.07715"/>
       <rect class="fil6" x="16" y="16" width="3.211" height="3.07715"/>
      </g>
      <g>
       <rect class="fil6" x="2" y="24" width="3.211" height="3.07715"/>
       <rect class="fil6" x="9" y="24" width="3.211" height="3.07715"/>
       <rect class="fil6" x="16" y="24" width="3.211" height="3.07715"/>
      </g>
     </g>
    </g>
    <path class="fil7" d="M22 16c0,0 4,-1 6,-1 2,0 2,0 2,0l0 -3 7 6 -7 7 0 -4c0,0 -5,0 -7,0 -1,0 -1,0 -1,0l0 -5z"/>
   </g>
   <g>
    <path class="fil1" d="M47 25l0 -21 1 0 0 21 0 0 -1 0zm0 0l0 0 1 0 0 0 -1 0z"/>
   </g>
  </g>
 </g>
</svg>
