<?xml version="1.0" encoding="UTF-8"?>
<!DOCTYPE svg PUBLIC "-//W3C//DTD SVG 1.1//EN" "http://www.w3.org/Graphics/SVG/1.1/DTD/svg11.dtd">
<!-- Creator: CorelDRAW X7 -->
<svg xmlns="http://www.w3.org/2000/svg" xml:space="preserve" width="120px" height="120px" version="1.1" style="shape-rendering:geometricPrecision; text-rendering:geometricPrecision; image-rendering:optimizeQuality; fill-rule:evenodd; clip-rule:evenodd"
viewBox="0 0 120 120"
 xmlns:xlink="http://www.w3.org/1999/xlink">
 <defs>
  <style type="text/css">
   <![CDATA[
    .fil0 {fill:none}
    .fil1 {fill:#FEFEFE}
    .fil3 {fill:#2887D2}
    .fil2 {fill:#0098DA;fill-rule:nonzero}
    .fil4 {fill:#2887D2;fill-rule:nonzero}
    .fil5 {fill:#FCBC44;fill-rule:nonzero}
    .fil7 {fill:url(#id0);fill-rule:nonzero}
    .fil8 {fill:url(#id1);fill-rule:nonzero}
    .fil6 {fill:url(#id2);fill-rule:nonzero}
   ]]>
  </style>
  <linearGradient id="id0" gradientUnits="userSpaceOnUse" x1="44.4859" y1="31.6707" x2="38.7598" y2="19.1201">
   <stop offset="0" style="stop-opacity:1; stop-color:#119E54"/>
   <stop offset="0.619608" style="stop-opacity:1; stop-color:#13BC69"/>
   <stop offset="1" style="stop-opacity:1; stop-color:#15DB7F"/>
  </linearGradient>
  <linearGradient id="id1" gradientUnits="objectBoundingBox" xlink:href="#id0" x1="67.9789%" y1="99.4624%" x2="32.0173%" y2="0.542409%">
  </linearGradient>
  <linearGradient id="id2" gradientUnits="userSpaceOnUse" xlink:href="#id0" x1="24.9773" y1="32.879" x2="16.6196" y2="14.5562">
  </linearGradient>
 </defs>
 <g id="Layer_x0020_1">
  <metadata id="CorelCorpID_0Corel-Layer"/>
  <rect class="fil0" width="120" height="120"/>
  <g id="_647560776">
   <g>
    <g>
     <path class="fil1" d="M8 3l0 115c0,0 104,-2 104,0 0,2 -1,-89 -1,-89l-20 -26 -1 -1c0,0 -82,0 -82,1z"/>
     <path id="1" class="fil2" d="M7 118l0 -115 3 0 0 115 -2 1 -1 -1zm1 1l-1 0 0 -1 1 1zm105 -1l-3 0 0 0 1 1 -1 0 -1 0 -2 0 -2 0 -3 0 -3 0 -4 -1 -3 0 -4 0 -5 0 -4 0 -5 0 -4 0 -5 0 -5 0 -5 0 -5 1 -4 0 -5 0 -4 0 -5 0 -4 0 -3 0 -4 0 -3 0 -3 0 -2 0 -2 0 -1 0 -1 0 -1 0 0 -3 1 0 1 0 1 0 2 0 2 0 3 0 3 0 4 0 3 0 4 0 5 0 4 0 5 0 4 0 5 0 5 0 5 -1 5 0 4 0 5 0 4 0 5 0 4 0 3 1 4 0 3 0 3 0 2 0 2 0 2 0 1 0 1 2 0 0zm-3 -88l2 -2 0 1 0 0 0 1 0 1 0 2 0 2 0 2 0 3 0 3 0 3 1 4 0 4 0 4 0 4 0 4 0 4 0 4 0 4 0 5 0 4 0 4 0 4 0 3 0 4 0 3 0 3 0 3 0 2 0 2 0 1 0 1 0 1 -3 0 3 0 -3 0 0 -1 0 -1 0 -1 0 -2 0 -2 0 -3 0 -3 0 -3 0 -4 0 -3 0 -4 0 -4 0 -4 0 -5 0 -4 0 -4 0 -4 0 -4 0 -4 0 -4 0 -4 0 -4 0 -3 0 -3 0 -3 0 -2 0 -2 0 -2 0 -1 0 -1 0 0 0 1zm-18 -28l20 26 -2 2 -20 -26 0 0 2 -2zm-2 2l0 0 0 0 0 0zm1 -3l1 1 -2 2 -1 -1 1 -2 1 0zm-1 0l0 0 1 0 -1 0zm-80 2l-3 0 0 0 2 -2 0 0 1 0 2 0 2 0 2 0 2 0 3 0 3 0 3 0 4 0 3 0 4 0 4 0 3 0 4 0 4 0 4 0 4 0 3 0 4 0 3 0 3 0 3 0 3 0 2 0 3 0 1 0 2 0 1 0 1 0 0 0 0 2 0 0 -1 0 -1 0 -2 0 -1 0 -3 1 -2 0 -3 0 -3 0 -3 0 -3 0 -4 0 -3 0 -4 0 -4 0 -4 0 -4 0 -3 0 -4 0 -4 0 -3 0 -4 0 -3 0 -3 0 -3 0 -2 0 -2 0 -2 0 -2 0 -1 0 0 0 1 -1 0 0z"/>
    </g>
    <path class="fil3" d="M90 5l1 16c0,0 -1,6 3,7 3,1 17,1 17,1l-21 -26 0 2z"/>
   </g>
   <g id="_647545296">
    <path class="fil4" d="M19 113l8 0 0 -37 -7 0c-1,0 -1,0 -1,1l0 36z"/>
    <path class="fil5" d="M28 113l9 0 0 -28 -8 0c0,0 -1,0 -1,0l0 28z"/>
    <path class="fil4" d="M50 113l9 0 0 -55 -8 0c0,0 -1,1 -1,1l0 54z"/>
    <path class="fil5" d="M60 113l8 0 0 -41 -7 0c-1,0 -1,0 -1,0l0 41z"/>
    <path class="fil4" d="M83 113l9 0 0 -27 -8 0c0,0 -1,0 -1,0l0 27z"/>
    <path class="fil5" d="M93 113l8 0 0 -21 -7 0c-1,0 -1,0 -1,0l0 21z"/>
   </g>
   <g id="_647560632">
    <polygon class="fil6" points="26,36 21,36 21,17 16,19 16,15 26,12 26,12 "/>
    <path class="fil7" d="M32 28l13 0 0 3 7 -6 -7 -5 0 3 -13 0 0 5zm6 0m7 1m3 -1m0 -5m-3 -1m-7 1m-6 2"/>
    <polygon class="fil8" points="63,36 58,36 58,17 52,19 52,15 62,12 63,12 "/>
    <path id="1" class="fil8" d="M83 36l-16 0 0 -3 7 -9c2,-1 2,-2 3,-3 0,-1 1,-2 1,-2 0,-1 -1,-2 -1,-3 -1,-1 -2,-1 -3,-1 -1,0 -1,1 -2,1 -1,1 -1,2 -1,3l-5 0c0,-1 0,-3 1,-4 1,-1 2,-2 3,-3 1,0 3,-1 5,-1 2,0 4,1 5,2 2,1 2,3 2,5 0,1 0,3 0,4 -1,1 -2,3 -4,4l-5 6 10 0 0 4z"/>
   </g>
  </g>
 </g>
</svg>
