<?xml version="1.0" encoding="UTF-8"?>
<!DOCTYPE svg PUBLIC "-//W3C//DTD SVG 1.1//EN" "http://www.w3.org/Graphics/SVG/1.1/DTD/svg11.dtd">
<!-- Creator: CorelDRAW X7 -->
<svg xmlns="http://www.w3.org/2000/svg" xml:space="preserve" width="120px" height="120px" version="1.1" style="shape-rendering:geometricPrecision; text-rendering:geometricPrecision; image-rendering:optimizeQuality; fill-rule:evenodd; clip-rule:evenodd"
viewBox="0 0 120 120"
 xmlns:xlink="http://www.w3.org/1999/xlink">
 <defs>
  <style type="text/css">
   <![CDATA[
    .str0 {stroke:#2887D2;stroke-width:0.900018}
    .fil0 {fill:none}
    .fil4 {fill:#2887D2}
    .fil2 {fill:#FEFEFE;fill-rule:nonzero}
    .fil5 {fill:#00A859;fill-rule:nonzero}
    .fil1 {fill:#2887D2;fill-rule:nonzero}
    .fil3 {fill:url(#id0)}
   ]]>
  </style>
  <linearGradient id="id0" gradientUnits="userSpaceOnUse" x1="66.9934" y1="111.892" x2="105.339" y2="60.3035">
   <stop offset="0" style="stop-opacity:1; stop-color:#1CC8EB"/>
   <stop offset="0.631373" style="stop-opacity:1; stop-color:#0E96E0"/>
   <stop offset="1" style="stop-opacity:1; stop-color:#0063D4"/>
  </linearGradient>
 </defs>
 <g id="Layer_x0020_1">
  <metadata id="CorelCorpID_0Corel-Layer"/>
  <rect class="fil0" width="120" height="120"/>
  <rect class="fil0" x="35" y="35" width="49.9994" height="49.9994"/>
  <g id="_707099776">
   <polygon class="fil1" points="93,4 93,16 93,108 5,108 5,4 "/>
   <g>
    <polygon class="fil2" points="89,2 89,17 89,115 2,115 2,2 "/>
    <path id="1" class="fil1" d="M87 17l0 -15 3 0 0 15 -3 0 0 0zm0 98l0 -98 3 0 0 98 -1 2 -2 -2zm3 0l0 2 -1 0 1 -2zm-88 -2l87 0 0 4 -87 0 -2 -2 2 -2zm0 4l-2 0 0 -2 2 2zm1 -115l0 113 -3 0 0 -113 2 -2 1 2zm-3 0l0 -2 2 0 -2 2zm89 2l-87 0 0 -4 87 0 1 2 -1 2zm0 -4l1 0 0 2 -1 -2z"/>
   </g>
   <circle class="fil3 str0" cx="86" cy="86" r="32"/>
   <path class="fil2" d="M63 88c0,-3 0,-6 1,-9 2,-9 11,-16 21,-16l0 -7c0,0 1,0 1,0l13 9c0,1 0,1 0,1l-13 9c0,1 -1,0 -1,0l0 -6c-6,0 -12,4 -15,10 -1,2 -1,5 -1,7 0,4 2,7 4,10 1,1 1,3 -1,4 -1,1 -3,1 -4,0 -3,-4 -5,-7 -5,-12zm37 -12c2,3 3,6 3,10 0,2 0,5 -1,7 -3,6 -8,10 -15,10l0 -6c0,0 -1,0 -1,0l-12 9c-1,0 -1,1 0,1l12 9c0,0 1,0 1,0l0 -6c10,-1 19,-7 22,-17 0,-3 1,-6 0,-9 0,-4 -2,-8 -4,-12 -2,-1 -3,-1 -5,0 -1,1 -2,3 0,4z"/>
   <polygon class="fil1" points="18,21 16,21 16,12 13,13 13,11 18,9 18,9 "/>
   <path id="1" class="fil1" d="M21 38l-8 0 0 -1 4 -4c0,-1 0,-1 1,-2 0,0 0,-1 0,-1 0,-1 0,-1 0,-1 -1,-1 -1,-1 -1,-1 -1,0 -1,0 -2,1 0,0 0,1 0,1l-3 0c0,0 1,-1 1,-2 0,0 1,-1 1,-1 1,0 2,-1 3,-1 1,0 2,1 2,1 1,1 1,2 1,3 0,0 0,1 0,2 0,0 -1,1 -2,2l-2 2 5 0 0 2z"/>
   <path id="2" class="fil1" d="M13 55c0,-1 0,-1 0,-1 1,0 1,0 1,0 1,0 1,0 1,0 0,0 1,0 1,1 0,0 -1,0 -1,1 0,0 0,0 -1,0 0,0 0,0 -1,0 0,-1 0,-1 0,-1z"/>
   <path id="3" class="fil1" d="M13 72c0,0 0,0 0,0 1,-1 1,-1 1,-1 1,0 1,0 1,1 0,0 1,0 1,0 0,1 -1,1 -1,1 0,1 0,1 -1,1 0,0 0,0 -1,-1 0,0 0,0 0,-1z"/>
   <path id="4" class="fil1" d="M13 90c0,0 0,-1 0,-1 1,0 1,0 1,0 1,0 1,0 1,0 0,0 1,1 1,1 0,0 -1,1 -1,1 0,0 0,0 -1,0 0,0 0,0 -1,0 0,0 0,-1 0,-1z"/>
   <path id="5" class="fil1" d="M15 102l1 0c1,0 1,0 2,-1 0,0 0,0 0,-1 0,0 0,-1 0,-1 -1,0 -1,0 -2,0 0,0 0,0 -1,0 0,0 0,1 0,1l-2 0c0,-1 0,-1 0,-2 0,0 1,0 1,-1 1,0 2,0 2,0 2,0 3,0 3,1 1,0 1,1 1,2 0,1 0,1 0,2 0,0 -1,0 -1,1 0,0 1,0 1,1 0,0 1,1 1,1 0,2 -1,2 -2,3 0,1 -1,1 -3,1 -1,0 -2,0 -2,-1 -1,-1 -2,-1 -2,-2l3 0c0,0 0,0 0,1 1,0 1,0 1,0 1,0 1,0 2,0 0,-1 0,-1 0,-2 0,-1 0,-1 -2,-1l-1 0 0 -2z"/>
   <path id="6" class="fil1" d="M30 104c0,2 0,3 -1,4 -1,1 -2,1 -3,1 -1,0 -2,0 -3,-1 0,-1 -1,-2 -1,-4l0 -2c0,-2 1,-3 1,-4 1,-1 2,-1 3,-1 1,0 2,0 3,1 1,1 1,2 1,4l0 2zm-2 -2c0,-1 0,-2 -1,-3 0,0 0,0 -1,0 0,0 -1,0 -1,0 0,1 0,1 0,2l0 3c0,1 0,2 0,2 0,1 1,1 1,1 1,0 1,0 1,-1 1,0 1,-1 1,-2l0 -2z"/>
   <rect class="fil4" x="31" y="12" width="26.3929" height="5.36056"/>
   <rect class="fil4" x="31" y="29" width="31.1419" height="5.36056"/>
   <rect class="fil4" x="36" y="100" width="16.4854" height="5.36056"/>
   <path class="fil5" d="M77 28c0,0 0,-1 -1,-1 0,-1 -1,-1 -2,-2 -1,0 -2,0 -3,-1 0,0 -1,-1 -2,-1 0,-1 -1,-1 -1,-2 0,-1 0,-1 0,-2 0,-2 0,-3 1,-4 1,-1 3,-2 4,-2l0 -1 0 -1 0 -1 0 0c0,0 1,0 1,0l1 0c0,0 1,0 1,0l0 0 0 1 0 1 0 1c1,0 3,1 4,2 1,1 1,2 1,4l0 0 0 0c0,1 -1,1 -1,1l-2 0c0,0 -1,0 -1,-1l0 0 0 0 0 0 0 0 0 0c0,-1 0,-1 -1,-2 0,-1 -1,-1 -2,-1 0,0 -1,0 -2,1 0,0 0,1 0,2 0,0 0,1 0,1 1,1 2,1 3,2 1,0 2,1 3,1 0,0 1,1 1,1 1,1 1,2 2,2 0,1 0,2 0,2 0,2 0,3 -1,4 -1,1 -3,2 -5,2l0 1c0,0 0,0 0,0l0 1c0,1 0,1 0,1l-1 0c-1,0 -1,0 -1,-1l0 -1c0,0 0,0 0,0l0 -1c-2,0 -3,-1 -4,-2 -2,-1 -2,-2 -2,-4l0 0c0,-1 1,-1 1,-1l2 0c0,0 1,0 1,1l0 0 0 0 0 0 0 0 0 0 0 0c0,1 0,1 1,2 0,1 1,1 2,1 1,0 2,0 2,-1 1,0 1,-1 1,-2z"/>
  </g>
 </g>
</svg>
