<?xml version="1.0" encoding="UTF-8"?>
<!DOCTYPE svg PUBLIC "-//W3C//DTD SVG 1.1//EN" "http://www.w3.org/Graphics/SVG/1.1/DTD/svg11.dtd">
<!-- Creator: CorelDRAW X7 -->
<svg xmlns="http://www.w3.org/2000/svg" xml:space="preserve" width="114px" height="103px" version="1.1" style="shape-rendering:geometricPrecision; text-rendering:geometricPrecision; image-rendering:optimizeQuality; fill-rule:evenodd; clip-rule:evenodd"
viewBox="0 0 114 103"
 xmlns:xlink="http://www.w3.org/1999/xlink">
 <defs>
  <style type="text/css">
   <![CDATA[
    .str1 {stroke:#2887D2;stroke-width:0.900392}
    .str2 {stroke:#2887D2;stroke-width:0.315492}
    .str3 {stroke:#2887D2;stroke-width:0.419474}
    .str4 {stroke:#2887D2;stroke-width:1.46284}
    .str0 {stroke:#2887D2;stroke-width:1.17335;stroke-dasharray:2.346690 1.173345}
    .fil0 {fill:none}
    .fil7 {fill:#FEFEFE}
    .fil8 {fill:#FEFEFE}
    .fil6 {fill:#2887D2}
    .fil14 {fill:#F7F7F7}
    .fil4 {fill:#F9D0B4}
    .fil3 {fill:#FEFEFE;fill-rule:nonzero}
    .fil1 {fill:#1CC8EB;fill-rule:nonzero}
    .fil2 {fill:#FC4D44;fill-rule:nonzero}
    .fil5 {fill:url(#id0)}
    .fil10 {fill:url(#id1)}
    .fil11 {fill:url(#id2)}
    .fil12 {fill:url(#id3)}
    .fil13 {fill:url(#id4)}
    .fil9 {fill:url(#id5);fill-rule:nonzero}
   ]]>
  </style>
  <linearGradient id="id0" gradientUnits="userSpaceOnUse" x1="10.078" y1="62.4189" x2="22.1659" y2="46.1563">
   <stop offset="0" style="stop-opacity:1; stop-color:#1CC8EB"/>
   <stop offset="0.631373" style="stop-opacity:1; stop-color:#0E96E0"/>
   <stop offset="1" style="stop-opacity:1; stop-color:#0063D4"/>
  </linearGradient>
  <linearGradient id="id1" gradientUnits="userSpaceOnUse" x1="97.9087" y1="16.3299" x2="91.1215" y2="46.4919">
   <stop offset="0" style="stop-opacity:1; stop-color:#1CC8EB"/>
   <stop offset="0.45098" style="stop-opacity:1; stop-color:#0E96E0"/>
   <stop offset="1" style="stop-opacity:1; stop-color:#0063D4"/>
  </linearGradient>
  <linearGradient id="id2" gradientUnits="userSpaceOnUse" xlink:href="#id0" x1="89.5559" y1="61.3247" x2="99.2747" y2="48.2489">
  </linearGradient>
  <linearGradient id="id3" gradientUnits="userSpaceOnUse" xlink:href="#id0" x1="75.3021" y1="61.5528" x2="81.3342" y2="53.4398">
  </linearGradient>
  <linearGradient id="id4" gradientUnits="userSpaceOnUse" xlink:href="#id0" x1="107.441" y1="61.5764" x2="113.504" y2="53.4185">
  </linearGradient>
  <linearGradient id="id5" gradientUnits="userSpaceOnUse" xlink:href="#id0" x1="45.8562" y1="96.1942" x2="64.931" y2="70.5283">
  </linearGradient>
 </defs>
 <g id="Layer_x0020_1">
  <metadata id="CorelCorpID_0Corel-Layer"/>
  <g id="_575411528">
   <circle class="fil0 str0" cx="55" cy="45" r="44"/>
   <g>
    <path class="fil1" d="M63 24l-20 0c-3,0 -6,2 -6,6l0 14c0,3 3,6 6,6l6 0 0 0 6 4 -2 -4 10 0c4,0 6,-3 6,-6l0 -14c0,-4 -2,-6 -6,-6z"/>
    <g>
     <path class="fil2" d="M68 26l-21 0c-3,0 -5,2 -5,5l0 15c0,3 2,6 5,6l5 0 0 0 6 5 0 -5 10 0c3,0 5,-3 5,-6l0 -15c0,-3 -2,-5 -5,-5z"/>
     <path class="fil3" d="M68 40l-20 0c0,0 -1,-1 -1,-1 0,-1 1,-1 1,-1l20 0c1,0 1,0 1,1 0,0 0,1 -1,1z"/>
     <path class="fil3" d="M68 45c0,0 0,0 -1,0 0,-1 0,-1 0,-1 0,0 0,-1 0,-1 1,0 1,0 1,0 0,0 1,0 1,0 0,0 0,1 0,1 0,0 0,0 0,1 0,0 -1,0 -1,0z"/>
     <path class="fil3" d="M64 45l-16 0c0,0 -1,-1 -1,-1 0,-1 1,-1 1,-1l16 0c1,0 1,0 1,1 0,0 0,1 -1,1z"/>
     <path class="fil3" d="M62 34l-14 0c0,0 -1,0 -1,-1 0,0 1,-1 1,-1l14 0c1,0 1,1 1,1 0,1 0,1 -1,1z"/>
    </g>
   </g>
   <g>
    <g>
     <path class="fil4 str1" d="M7 28l0 0c-2,0 -1,2 -1,3 0,1 0,1 0,2 1,1 1,1 1,1 1,2 2,5 3,6 1,1 1,1 2,2l0 3c1,0 1,0 8,0l1 0 0 -3c0,0 0,-1 0,-1 1,0 1,0 1,0 0,0 0,0 1,-1 1,-1 2,-4 2,-6 1,0 1,0 1,-1 1,0 1,-2 1,-3 0,-1 0,0 0,-1 0,0 0,0 0,0 0,-1 -1,-1 -1,-1 0,0 0,0 -1,0 0,0 0,2 0,2 0,0 0,0 0,0 0,0 0,-2 0,-3 0,0 -1,0 -1,0 -1,0 -1,0 -2,0 -2,-1 -4,-2 -4,-2 -4,-1 1,1 -2,0 0,-1 0,-1 0,-1 -2,0 -3,-1 -5,-2 0,-1 -1,0 -1,0 0,1 -1,4 -1,4l0 1c-1,0 -1,0 -1,1 0,1 0,2 0,2 -1,0 -1,-1 -1,-1 0,0 0,0 0,-1 0,0 0,0 0,0z"/>
     <path class="fil5" d="M26 64l0 -11 0 -9c0,0 -1,0 -1,0 0,3 -1,5 -2,7 -1,1 -2,2 -3,2 -7,4 -13,-3 -12,-9l-2 0 0 20c7,0 13,0 20,0z"/>
     <path class="fil6" d="M7 28c0,0 0,0 0,0 0,1 0,1 0,1 0,0 0,1 1,1 0,0 0,-1 0,-2 0,-1 0,-1 1,-1l0 -1c0,0 1,-3 1,-4 0,0 1,-1 1,0 2,1 3,2 5,2 0,0 0,0 0,1l2 0c0,0 2,1 4,2 1,0 1,0 2,0 0,0 1,0 1,0 0,1 0,3 0,3 0,0 0,0 0,0 0,0 0,-2 0,-2 1,0 1,0 1,0 1,0 0,0 1,-1 0,-1 0,-8 0,-10 0,0 -2,-2 -3,-1 -1,-2 -4,-4 -8,-4 0,0 0,0 0,0 -7,0 -12,8 -10,14 0,1 1,2 1,2z"/>
     <path class="fil7 str2" d="M6 44l2 0c-1,6 5,13 12,9 1,0 2,-1 3,-2 3,-3 1,-7 3,-7l0 9c0,0 0,0 0,-1l0 -6c0,-2 0,-2 -1,-2 -1,0 -1,0 -3,0 -3,0 -5,2 -11,0 -1,1 -1,0 -3,0l-2 0c0,0 0,0 0,0z"/>
     <path class="fil7 str2" d="M27 64c0,0 4,0 4,0 1,0 1,0 1,0 0,-10 4,-20 -6,-20 0,7 1,13 1,20z"/>
     <path class="fil7 str2" d="M1 64c0,0 4,0 5,0 0,-1 0,-7 0,-11l0 -5c0,-3 0,-1 0,-4 -7,0 -6,14 -5,20z"/>
    </g>
    <path class="fil6" d="M15 49c0,0 0,5 0,5l2 0 0 -4c0,0 0,-2 1,-2 1,-1 -1,-2 -2,-2 -2,0 -1,2 -1,3z"/>
    <path class="fil8 str3" d="M15 49l1 -3 2 3c1,-1 3,-4 4,-5 0,-1 -5,1 -6,1 -1,0 -5,-1 -5,-1 -1,1 3,5 4,5z"/>
   </g>
   <g>
    <circle class="fil8 str4" cx="55" cy="81" r="21"/>
    <path class="fil9" d="M42 96l0 0c0,0 0,0 0,0 1,0 1,1 2,1 0,0 0,0 0,0 0,1 1,1 1,1 0,0 0,0 0,0 1,0 1,1 2,1 0,0 0,0 0,0 1,1 3,1 5,2 0,0 0,0 0,0 1,0 1,0 2,0 0,0 0,0 0,0 0,0 1,0 2,0 0,0 1,0 1,0 0,0 0,0 0,0 1,0 1,0 2,0 0,0 0,0 0,0 2,-1 3,-1 5,-2 0,0 0,0 0,0 1,0 1,-1 2,-1 0,0 0,0 0,0 0,0 1,0 1,-1 0,0 0,0 0,0 1,0 1,0 1,-1 0,0 1,0 1,0l0 0c-2,-3 -5,-4 -8,-5 0,0 -1,-1 -1,-1l0 -3c0,0 1,0 1,0 1,-1 1,-3 2,-4 1,-1 1,-1 1,-3l0 -2c0,-1 0,-1 0,-2l0 -3c0,-1 0,-3 -2,-5 -1,-1 -3,-2 -6,-2 -4,0 -3,1 -5,2 -1,0 -1,-1 -2,0 -2,2 -2,4 -2,5l0 3c0,1 0,1 0,2l0 2c0,1 0,2 1,3 0,2 2,4 2,4l0 2c0,1 0,2 -1,2l-6 3c0,1 -1,1 -1,2z"/>
   </g>
   <g>
    <path class="fil8" d="M82 64c10,0 15,1 25,0l0 -5 -25 0 0 5z"/>
    <g>
     <path class="fil10" d="M106 47c0,1 -1,0 -2,0 -2,0 -2,0 -4,-1 -1,0 -1,-1 -2,0 -2,1 -5,1 -7,0 -2,-1 -1,0 -4,1 -1,0 -2,1 -4,1 1,-1 0,-3 1,-5 0,-1 -1,-3 -1,-5 0,-1 0,-1 0,-2 -1,-2 -1,-4 0,-5 0,0 0,-2 0,-3 1,-3 1,-4 3,-6 0,-1 0,-1 1,-2 1,0 1,-1 2,-1 0,-1 1,-1 1,-2 1,-1 2,-2 4,-2 2,0 3,1 4,2 1,1 1,1 2,1 1,1 1,1 1,2 0,0 0,0 0,0 2,1 2,2 3,2 2,3 1,8 1,9 0,0 0,0 1,1 0,1 0,2 0,4 0,0 0,1 0,2 0,2 0,2 0,4 1,3 0,5 0,5z"/>
     <path class="fil4" d="M94 45c-3,0 -6,-3 -7,-6 -1,0 -1,-2 -2,-2 0,-1 -1,-1 -1,-1 0,-1 0,-2 0,-2 0,-1 0,-1 1,-2 0,0 1,-1 1,-1 0,-1 0,0 1,-1 0,0 2,-1 3,-1 2,0 4,-1 6,-2 1,0 2,-1 2,-2l0 1c1,0 0,-1 1,0 0,1 0,3 1,4 3,3 4,2 5,3 0,0 0,2 0,3 -1,0 -2,0 -2,1 -1,2 -1,2 -2,4 -1,2 -4,4 -7,4z"/>
     <path class="fil11" d="M88 49c-1,0 -2,0 -2,1 -1,0 -2,0 -2,0l0 8c2,2 7,3 10,3 4,0 8,-1 11,-3l0 -8 -4 -1c-2,1 -4,2 -7,2 -1,0 -2,0 -3,-1 -2,0 -2,0 -3,-1l0 0z"/>
     <path class="fil12" d="M82 64l0 -13c-1,0 -4,1 -5,2 -1,1 -2,2 -2,4 0,3 -1,4 2,5 1,0 4,2 5,2z"/>
     <path class="fil13" d="M107 64c2,-1 3,-1 4,-2 3,-1 3,-1 3,-3 0,-3 0,-5 -2,-6 -1,-1 -4,-2 -5,-2 0,1 0,12 0,13z"/>
     <path class="fil14" d="M89 21c0,0 -2,1 -2,3 3,-1 4,-2 7,-2 3,0 6,1 8,2 0,-2 -2,-3 -2,-3 0,0 0,-1 -1,-1 -1,-1 -1,-1 -2,-1 0,0 0,0 0,-1 -1,-1 -2,-1 -3,-1 0,0 -1,0 -1,1 -1,0 -1,0 -1,1 -1,1 -1,0 -2,1 -1,0 -1,1 -1,1z"/>
    </g>
   </g>
  </g>
 </g>
</svg>
