<?xml version="1.0" encoding="UTF-8"?>
<!DOCTYPE svg PUBLIC "-//W3C//DTD SVG 1.1//EN" "http://www.w3.org/Graphics/SVG/1.1/DTD/svg11.dtd">
<!-- Creator: CorelDRAW X7 -->
<svg xmlns="http://www.w3.org/2000/svg" xml:space="preserve" width="125px" height="120px" version="1.1" style="shape-rendering:geometricPrecision; text-rendering:geometricPrecision; image-rendering:optimizeQuality; fill-rule:evenodd; clip-rule:evenodd"
viewBox="0 0 125 120"
 xmlns:xlink="http://www.w3.org/1999/xlink">
 <defs>
  <style type="text/css">
   <![CDATA[
    .fil0 {fill:none}
    .fil5 {fill:#F58634}
    .fil2 {fill:#FC4D44}
    .fil1 {fill:#FEFEFE;fill-rule:nonzero}
    .fil7 {fill:#FFF212;fill-rule:nonzero}
    .fil4 {fill:#FFF212;fill-rule:nonzero}
    .fil3 {fill:url(#id0)}
    .fil6 {fill:url(#id1)}
   ]]>
  </style>
  <linearGradient id="id0" gradientUnits="userSpaceOnUse" x1="61.4394" y1="43.3733" x2="111.049" y2="30.7971">
   <stop offset="0" style="stop-opacity:1; stop-color:#04870F"/>
   <stop offset="1" style="stop-opacity:1; stop-color:#03690C"/>
  </linearGradient>
  <linearGradient id="id1" gradientUnits="userSpaceOnUse" xlink:href="#id0" x1="20.412" y1="89.3361" x2="70.0119" y2="76.7623">
  </linearGradient>
 </defs>
 <g id="Layer_x0020_1">
  <metadata id="CorelCorpID_0Corel-Layer"/>
  <rect class="fil0" x="2" width="120" height="120"/>
  <g id="_865236744">
   <g>
    <path class="fil1" d="M27 57l-1 -2 0 -1 1 -1 0 0 0 -1 0 -1 1 0 0 -1 0 0 1 -1 0 -1 0 0 0 -1 1 0 0 -1 0 -1 1 0 0 -1 0 -1 1 0 0 -1 0 -1 1 0 0 -1 1 0 0 -1 0 -1 1 0 0 -1 1 -1 0 0 1 -1 0 -1 3 3 0 0 -1 1 0 1 0 0 -1 1 0 0 -1 1 0 1 0 0 -1 1 0 0 0 1 -1 1 0 0 0 1 -1 0 0 1 0 1 -1 0 0 1 0 0 0 1 -1 1 0 0 0 1 -1 1 0 0 0 1 0 0 -1 1 0 1 0 0 -2 -2 -1 3zm0 0l-2 0 1 -2 1 2zm11 -1l0 4 0 -1 -1 0 0 0 -1 0 0 0 0 0 -1 0 0 0 0 0 -1 0 0 0 0 0 0 0 0 0 -1 0 0 0 0 0 0 0 0 0 -1 -1 0 0 0 0 0 0 -1 0 0 0 0 0 -1 0 0 0 -1 0 0 0 -1 0 -1 -1 1 -3 1 0 0 0 1 0 1 0 0 0 0 0 1 0 0 0 1 0 0 0 0 1 0 0 0 0 1 0 0 0 0 0 0 0 0 0 1 0 0 0 0 0 0 0 0 0 1 0 0 0 0 0 1 0 0 0 0 0 1 0 0 1 1 0 1 3 -2 -3zm1 0l6 1 -5 2 -1 -3zm-23 16l-3 -1 1 -3 24 -12 2 3 -24 13zm0 0l-2 1 -1 -2 3 1zm-13 -23l3 -3 0 1 0 0 1 1 0 1 0 1 1 0 0 1 0 1 0 0 1 1 0 1 0 0 1 1 0 1 0 0 1 1 0 1 0 1 1 0 0 1 0 1 1 0 0 1 0 1 1 1 0 0 0 1 1 1 0 1 1 0 0 1 1 1 -4 2 0 -1 -1 -1 0 0 -1 -1 0 -1 0 -1 -1 -1 0 0 -1 -1 0 -1 0 -1 -1 0 0 -1 0 -1 -1 0 0 -1 0 -1 -1 -1 0 0 0 -1 -1 -1 0 0 0 -1 -1 -1 0 -1 0 0 0 -1 -1 -1 0 0 0 -1 -1 -1 0 0 3 -3 -2 4zm-1 -1l-2 -5 5 2 -3 3zm2 -1l0 0 0 0 0 0 1 -2 -1 2zm-2 1l-2 -5 5 2 -3 3zm13 4l-3 1 0 0 -1 -1 0 0 -1 0 0 0 -1 0 0 -1 -1 0 0 0 0 0 0 0 -1 0 0 0 0 0 0 -1 0 0 -1 0 0 0 0 0 0 0 0 0 -1 0 0 0 0 0 0 0 0 -1 -1 0 0 0 0 0 0 0 -1 0 0 0 2 -4 0 0 1 0 0 1 0 0 0 0 1 0 0 0 0 0 0 0 0 0 0 0 1 0 0 1 0 0 0 0 0 0 0 0 1 0 0 0 0 0 0 0 1 0 0 0 0 1 0 0 1 0 0 0 1 0 0 1 1 0 0 0 1 0 -3 1 4 2zm0 0l-1 2 -2 -1 3 -1zm33 -31l0 0 -2 1 -2 0 -2 1 -1 0 -2 1 -1 0 -2 1 -1 1 -1 0 -2 1 -1 1 -1 1 -1 0 -1 1 -1 1 0 1 -1 1 -1 1 -1 1 0 1 -1 1 -1 1 -1 1 0 2 -1 1 -1 1 0 2 -1 1 -1 1 -1 2 0 1 -1 2 -4 -2 1 -1 1 -2 1 -1 0 -2 1 -1 1 -2 0 -1 1 -1 1 -2 1 -1 0 -1 1 -1 1 -1 1 -2 1 -1 1 -1 1 -1 1 -1 1 -1 1 -1 1 0 1 -1 2 -1 1 -1 1 -1 2 0 2 -1 1 -1 2 0 2 -1 2 0 2 -1 0 0 1 4zm24 -4l-1 4 0 0 -1 0 -1 -1 0 0 -1 0 -1 0 0 0 -1 0 -1 -1 0 0 -1 0 -1 0 -1 0 0 0 -1 0 -1 0 -1 0 -1 0 0 0 -1 1 -1 0 -1 0 0 0 -1 0 -1 0 -1 0 0 0 -1 0 -1 1 -1 0 0 0 -1 0 -1 -4 1 0 1 0 0 0 1 0 1 -1 1 0 0 0 1 0 1 0 1 0 1 0 0 0 1 -1 1 0 1 0 1 0 1 0 1 0 0 0 1 0 1 0 1 0 1 1 1 0 0 0 1 0 1 0 1 0 1 1 1 0 0 0 1 1 -1 3 0 -4zm-3 1l0 0 0 0 1 0 0 0 0 0 0 0 0 0 1 0 0 0 0 -1 0 0 0 0 0 0 0 0 0 0 0 0 0 0 0 0 0 0 0 0 0 0 1 0 0 0 0 0 0 0 0 0 0 0 0 0 0 0 0 0 0 0 0 0 0 0 0 4 0 0 0 0 0 0 0 0 0 0 -1 0 0 0 0 0 0 0 0 0 0 0 1 0 0 0 0 0 0 0 0 0 0 0 0 0 0 0 0 0 0 0 -1 0 0 0 0 0 0 1 0 0 0 0 -1 0 0 0 0 0 0 0 -1 0 0 0 0 -4zm0 0l0 0 0 0 0 0zm-32 16l0 0 1 -1 1 0 1 -1 1 -1 0 -1 1 0 1 -1 1 -1 1 -1 1 0 1 -1 1 0 1 -1 1 -1 1 0 1 -1 1 0 2 -1 1 0 1 -1 1 0 1 -1 1 0 1 0 1 -1 1 0 1 0 1 -1 1 0 1 0 1 0 1 0 0 4 0 0 -1 0 -1 0 -1 0 -1 1 -1 0 -1 0 -1 0 -1 1 -1 0 -1 1 -1 0 -1 0 -1 1 -1 0 -1 1 -1 0 -1 1 -1 0 -1 1 -1 1 -1 0 -1 1 0 0 -1 1 -1 1 -1 0 -1 1 -1 1 0 0 -1 1 -1 1 0 0 -3 -3z"/>
    <path id="1" class="fil2" d="M39 36c-6,6 -8,13 -11,19 7,2 4,1 11,3l-24 12c-5,-9 -8,-16 -11,-23l0 0c4,2 2,1 9,4 9,-17 12,-27 35,-32 7,-2 17,-3 24,0 -1,0 1,0 -3,1 -9,1 -23,7 -30,16z"/>
   </g>
   <g id="_865238232">
    <g>
     <path class="fil3" d="M86 11c14,0 26,12 26,26 0,14 -12,26 -26,26 -14,0 -25,-12 -25,-26 0,-14 11,-26 25,-26z"/>
     <path id="1" class="fil1" d="M113 37l-2 0 0 0 0 -1 0 -1 0 -2 -1 -1 0 -1 0 -1 -1 -1 0 -2 0 -1 -1 -1 -1 -1 0 -1 -1 -1 -1 -1 0 -1 -1 0 -1 -1 -1 -1 -1 -1 -1 0 -1 -1 -1 -1 -1 0 -1 -1 -1 0 -1 0 -2 -1 -1 0 -1 0 -1 0 -1 -1 -2 0 0 -2 2 0 1 1 1 0 2 0 1 0 1 1 1 0 2 1 1 0 1 1 1 0 1 1 1 1 1 1 1 0 1 1 1 1 1 1 1 1 0 1 1 1 1 1 0 2 1 1 0 1 1 1 0 1 0 2 1 1 0 1 0 2 0 1 0 0zm-27 27l0 -2 0 0 2 0 1 0 1 -1 1 0 1 0 2 0 1 -1 1 0 1 -1 1 0 1 -1 1 0 1 -1 1 -1 1 -1 1 0 1 -1 0 -1 1 -1 1 -1 0 -1 1 -1 1 -1 0 -1 0 -1 1 -2 0 -1 0 -1 1 -1 0 -1 0 -2 0 -1 2 0 0 1 0 2 0 1 -1 1 0 2 0 1 -1 1 0 1 -1 2 0 1 -1 1 -1 1 0 1 -1 1 -1 1 -1 1 -1 1 -1 1 -1 0 -1 1 -1 1 -1 1 -1 0 -1 1 -2 0 -1 1 -1 0 -1 0 -2 0 -1 1 -1 0 -2 0 0 0zm-26 -27l2 0 0 0 0 1 0 2 0 1 0 1 0 1 1 1 0 2 0 1 1 1 1 1 0 1 1 1 0 1 1 1 1 1 1 1 1 0 1 1 0 1 1 1 1 0 1 1 2 0 1 1 1 0 1 1 1 0 1 0 1 0 2 1 1 0 1 0 0 2 -1 0 -1 0 -2 -1 -1 0 -1 0 -2 0 -1 -1 -1 0 -1 -1 -1 0 -2 -1 -1 -1 -1 -1 -1 0 -1 -1 -1 -1 0 -1 -1 -1 -1 -1 -1 -1 -1 -1 0 -1 -1 -1 0 -2 -1 -1 0 -1 -1 -1 0 -2 0 -1 0 -1 0 -2 0 -1 0 0zm26 -27l0 2 0 0 -1 0 -1 1 -2 0 -1 0 -1 0 -1 1 -1 0 -1 0 -1 1 -2 0 -1 1 -1 1 -1 0 0 1 -1 1 -1 1 -1 0 -1 1 -1 1 0 1 -1 1 0 1 -1 1 -1 1 0 2 0 1 -1 1 0 1 0 1 0 2 0 1 0 1 -2 0 0 -1 0 -2 0 -1 0 -1 0 -2 1 -1 0 -1 1 -1 0 -1 1 -2 0 -1 1 -1 1 -1 1 -1 1 -1 0 -1 1 -1 1 0 1 -1 1 -1 1 -1 2 0 1 -1 1 0 1 -1 1 0 2 -1 1 0 1 0 2 0 1 -1 1 0 0 0z"/>
    </g>
    <path class="fil4" d="M79 37l-4 0 0 8 -4 0 0 -22 8 0c3,0 5,1 6,2 1,1 2,3 2,5 0,1 0,2 -1,3 -1,1 -2,2 -3,3l5 9 0 0 -5 0 -4 -8zm-4 -4l4 0c1,0 2,0 3,-1 0,0 0,-1 0,-2 0,-1 0,-2 0,-2 -1,-1 -2,-1 -3,-1l-4 0 0 6z"/>
    <path id="1" class="fil4" d="M105 37c0,2 -1,4 -2,6 -1,1 -3,2 -4,2 -2,0 -3,0 -4,-1l0 7 -5 0 0 -22 4 0 0 1c1,-1 3,-2 4,-2 2,0 4,1 5,3 1,1 2,3 2,6l0 0zm-5 0c0,-2 0,-3 0,-4 -1,-1 -2,-1 -3,-1 -1,0 -2,0 -2,1l0 7c0,1 1,2 2,2 2,0 3,-2 3,-5z"/>
   </g>
   <g>
    <path class="fil1" d="M98 66l1 3 0 0 -1 1 0 1 0 0 0 1 -1 1 0 0 0 1 -1 0 0 1 0 1 0 0 -1 1 0 1 0 0 -1 1 0 0 0 1 -1 1 0 0 0 1 -1 1 0 0 -1 1 0 1 0 0 -1 1 0 1 -1 0 0 1 -1 1 0 0 -4 -2 1 -1 1 0 0 -1 0 -1 1 0 0 -1 1 -1 0 0 0 -1 1 0 0 -1 0 -1 1 0 0 -1 0 0 1 -1 0 -1 0 0 1 -1 0 0 0 -1 0 -1 1 0 0 -1 0 -1 1 0 0 -1 0 0 1 -1 0 -1 0 0 1 -1 1 3 1 -4zm0 0l2 0 -1 3 -1 -3zm-11 1l0 -3 0 0 1 0 0 0 1 0 0 0 1 0 0 0 0 0 0 0 1 0 0 0 0 1 0 0 1 0 0 0 0 0 0 0 0 0 0 0 1 0 0 0 0 0 0 0 1 0 0 0 0 0 1 0 0 0 1 1 0 0 1 0 1 0 -1 4 -1 0 0 0 -1 -1 -1 0 0 0 0 0 -1 0 0 0 0 0 -1 0 0 0 0 0 0 0 -1 0 0 0 0 0 0 0 0 0 0 0 -1 -1 0 0 0 0 0 0 -1 0 0 0 0 0 -1 0 0 0 0 0 -1 0 0 0 -1 0 -1 -4 2 3zm-1 1l-6 -1 5 -3 1 4zm24 -16l2 1 -1 2 -24 12 -2 -3 25 -12zm0 0l1 -1 1 2 -2 -1zm12 23l-3 2 0 0 0 -1 -1 -1 0 0 0 -1 0 -1 -1 0 0 -1 0 -1 -1 0 0 -1 0 -1 -1 0 0 -1 0 -1 0 -1 -1 0 0 -1 0 -1 -1 0 0 -1 0 -1 -1 -1 0 0 -1 -1 0 -1 0 -1 -1 0 0 -1 -1 -1 0 -1 0 -1 3 -1 1 0 0 1 0 1 1 1 0 1 1 0 0 1 0 1 1 1 0 0 1 1 0 1 0 1 1 0 0 1 0 1 1 0 0 1 0 1 0 1 1 0 0 1 0 1 1 0 0 1 0 1 1 0 0 1 0 1 0 1 1 0 0 1 -3 3 2 -4zm1 1l2 5 -5 -2 3 -3zm-2 1l0 0 0 0 0 0 -1 2 1 -2zm2 -1l2 5 -5 -2 3 -3zm-13 -5l3 0 0 0 1 0 1 0 0 1 0 0 1 0 0 0 1 0 0 0 0 1 0 0 1 0 0 0 0 0 0 0 1 0 0 0 0 0 0 0 0 1 0 0 1 0 0 0 0 0 0 0 0 0 1 0 0 0 0 0 0 1 1 0 0 0 -2 4 0 -1 -1 0 0 0 0 0 0 0 -1 0 0 0 0 -1 0 0 0 0 0 0 -1 0 0 0 0 0 0 0 0 0 0 0 -1 0 0 0 0 -1 0 0 -1 0 0 0 0 0 0 0 -1 0 0 -1 -1 0 0 0 -1 0 0 -1 -1 0 3 -1 -4 -2zm0 0l1 -1 2 1 -3 0zm-33 31l0 0 2 0 2 -1 1 0 2 -1 2 0 1 -1 2 -1 1 0 1 -1 1 -1 2 0 1 -1 1 -1 0 -1 1 -1 1 -1 1 -1 1 -1 1 -1 0 -1 1 -1 1 -1 1 -1 0 -1 1 -1 1 -2 0 -1 1 -2 1 -1 1 -1 0 -2 1 -2 4 2 -1 2 -1 1 -1 2 0 1 -1 2 -1 1 -1 1 0 2 -1 1 -1 1 -1 1 0 2 -1 1 -1 1 -1 1 -1 1 -1 1 -1 1 -1 1 -1 1 -1 1 -1 1 -2 0 -1 1 -2 1 -1 1 -2 0 -2 1 -1 1 -2 0 -2 1 -2 0 0 0 -1 -4zm-25 4l2 -4 0 0 1 0 0 1 1 0 1 0 0 0 1 0 1 0 0 1 1 0 1 0 1 0 0 0 1 0 1 0 1 0 1 0 0 0 1 0 1 0 1 0 0 -1 1 0 1 0 1 0 0 0 1 0 1 0 1 0 0 -1 1 0 1 0 1 4 -1 0 -1 0 -1 0 0 1 -1 0 -1 0 -1 0 0 0 -1 0 -1 0 -1 0 -1 1 -1 0 0 0 -1 0 -1 0 -1 0 -1 0 -1 0 -1 0 0 0 -1 0 -1 0 -1 -1 -1 0 -1 0 0 0 -1 0 -1 -1 -1 0 -1 0 0 -1 1 -3 -1 4zm4 -1l0 0 -1 0 0 0 0 0 0 0 -1 0 0 0 0 0 0 0 0 1 0 0 0 0 0 0 0 0 0 0 0 0 0 0 0 0 0 0 -1 0 0 0 0 0 0 0 0 0 0 0 0 0 0 0 0 0 0 0 0 0 0 0 0 0 -1 0 1 -4 0 0 0 0 0 0 0 0 0 0 0 0 0 0 0 0 0 0 0 0 0 0 0 0 0 0 0 0 0 0 0 0 0 0 0 0 0 0 0 0 0 0 0 0 0 0 1 -1 0 0 0 0 0 0 0 0 1 0 0 0 0 0 1 0 -1 0 1 4zm0 0l0 0 0 0 0 0zm32 -16l0 0 -1 1 -1 1 -1 1 -1 1 -1 0 0 1 -1 1 -1 0 -1 1 -1 1 -1 0 -1 1 -1 0 -1 1 -2 1 -1 0 -1 1 -1 0 -1 1 -1 0 -1 0 -1 1 -1 0 -1 0 -1 1 -1 0 -1 0 -1 1 -1 0 -1 0 -1 0 -1 0 -1 -4 1 0 1 0 1 0 1 0 1 -1 1 0 1 0 1 0 1 -1 1 0 1 0 1 -1 1 0 1 -1 1 0 1 -1 1 0 1 -1 1 0 1 -1 1 0 1 -1 0 0 1 -1 1 -1 1 0 1 -1 1 -1 0 0 1 -1 1 -1 0 0 0 0 4 2z"/>
    <path id="1" class="fil5" d="M86 88c6,-7 8,-13 11,-20 -7,-2 -4,-1 -11,-2l24 -12c5,8 8,15 11,23l0 0c-4,-2 -2,-1 -9,-5 -9,17 -12,27 -35,32 -7,2 -17,3 -24,0 1,0 -1,0 3,-1 9,-1 23,-7 30,-15z"/>
   </g>
   <g>
    <g>
     <path class="fil6" d="M45 57c14,0 26,12 26,26 0,14 -12,26 -26,26 -14,0 -25,-12 -25,-26 0,-14 11,-26 25,-26z"/>
     <path id="1" class="fil1" d="M72 83l-2 0 0 0 0 -1 0 -1 0 -2 -1 -1 0 -1 0 -1 -1 -1 0 -2 -1 -1 0 -1 -1 -1 0 -1 -1 -1 -1 -1 -1 -1 0 0 -1 -1 -1 -1 -1 -1 -1 0 -1 -1 -1 -1 -1 0 -1 -1 -1 0 -1 -1 -2 0 -1 0 -1 0 -1 -1 -2 0 -1 0 0 -2 2 0 1 1 1 0 2 0 1 0 1 1 1 0 2 0 1 1 1 1 1 0 1 1 1 1 1 0 1 1 1 1 1 1 1 1 1 1 0 1 1 1 1 1 0 1 1 2 0 1 1 1 0 1 0 2 1 1 0 1 0 2 0 1 0 0zm-27 27l0 -2 0 0 1 0 2 0 1 -1 1 0 1 0 2 0 1 -1 1 0 1 -1 1 0 1 -1 1 0 1 -1 1 -1 1 -1 1 0 0 -1 1 -1 1 -1 1 -1 0 -1 1 -1 0 -1 1 -1 0 -1 1 -2 0 -1 0 -1 1 -1 0 -1 0 -2 0 -1 2 0 0 1 0 2 0 1 -1 1 0 2 0 1 -1 1 0 1 -1 2 0 1 -1 1 -1 1 0 1 -1 1 -1 1 -1 1 -1 1 -1 1 -1 0 -1 1 -1 1 -1 0 -1 1 -1 1 -2 0 -1 1 -1 0 -1 0 -2 0 -1 1 -1 0 -2 0 0 0zm-26 -27l2 0 0 0 0 1 0 2 0 1 0 1 0 1 1 1 0 2 0 1 1 1 1 1 0 1 1 1 0 1 1 1 1 1 1 1 1 0 1 1 0 1 1 1 1 0 1 1 2 0 1 1 1 0 1 1 1 0 1 0 1 0 2 1 1 0 1 0 0 2 -1 0 -2 0 -1 -1 -1 0 -1 0 -2 0 -1 -1 -1 0 -1 -1 -2 -1 -1 0 -1 -1 -1 -1 -1 0 -1 -1 -1 -1 -1 -1 0 -1 -1 -1 -1 -1 -1 -1 0 -1 -1 -1 0 -2 -1 -1 0 -1 -1 -1 0 -2 0 -1 0 -1 0 -2 0 -1 0 0zm26 -27l0 2 0 0 -1 0 -1 0 -2 1 -1 0 -1 0 -1 0 -1 1 -1 0 -1 1 -2 0 -1 1 -1 1 -1 0 0 1 -1 1 -1 1 -1 0 -1 1 -1 1 0 1 -1 1 0 1 -1 1 -1 1 0 2 0 1 -1 1 0 1 0 1 0 2 0 1 0 1 -2 0 0 -1 0 -2 0 -1 0 -1 0 -2 1 -1 0 -1 1 -1 0 -2 1 -1 0 -1 1 -1 1 -1 1 -1 0 -1 1 -1 1 -1 1 -1 1 0 1 -1 1 -1 2 0 1 -1 1 -1 1 0 1 0 2 -1 1 0 1 0 1 0 2 -1 1 0 0 0z"/>
    </g>
    <path class="fil7" d="M50 91c0,-2 -1,-3 -1,-3 -1,-1 -2,-2 -4,-2 -1,-1 -3,-1 -4,-2 -1,-1 -2,-1 -3,-2 -1,-1 -1,-2 -2,-3 0,-1 0,-2 0,-3 0,-3 0,-5 2,-7 2,-1 4,-2 6,-2l0 -2 0 -2 0 0 0 0c0,-1 1,-1 1,-1l2 0c0,0 1,0 1,1l0 0 0 0 0 2 0 2c2,0 4,1 6,3 1,2 2,3 2,6l0 0 0 0c0,1 -1,2 -2,2l-2 0c-1,0 -2,-1 -2,-2l0 0 0 0 0 0 0 0 0 0c0,-2 -1,-2 -1,-3 -1,-1 -2,-1 -3,-1 -2,0 -2,0 -3,1 -1,0 -1,1 -1,3 0,1 0,2 1,2 1,1 2,2 3,2 2,1 4,2 5,2 1,1 2,2 3,2 0,1 1,2 1,3 1,1 1,2 1,4 0,2 -1,4 -2,6 -2,1 -4,2 -7,2l0 2c0,0 0,0 0,0l0 2c0,0 0,1 -1,1l-1 0c-1,0 -1,-1 -1,-1l0 -2c0,0 0,0 0,0l0 -2c-3,0 -6,-1 -7,-3 -2,-2 -3,-3 -3,-6l0 0c0,-1 1,-2 2,-2l3 0c1,0 2,1 2,2l0 0 0 0 0 0 0 0 0 0 0 0c0,2 0,2 1,3 1,1 2,1 4,1 1,0 2,0 3,-1 0,0 1,-1 1,-2z"/>
   </g>
  </g>
 </g>
</svg>
