<?xml version="1.0" encoding="UTF-8"?>
<!DOCTYPE svg PUBLIC "-//W3C//DTD SVG 1.1//EN" "http://www.w3.org/Graphics/SVG/1.1/DTD/svg11.dtd">
<!-- Creator: CorelDRAW X7 -->
<svg xmlns="http://www.w3.org/2000/svg" xml:space="preserve" width="120px" height="120px" version="1.1" style="shape-rendering:geometricPrecision; text-rendering:geometricPrecision; image-rendering:optimizeQuality; fill-rule:evenodd; clip-rule:evenodd"
viewBox="0 0 120 120"
 xmlns:xlink="http://www.w3.org/1999/xlink">
 <defs>
  <style type="text/css">
   <![CDATA[
    .fil0 {fill:none}
    .fil2 {fill:#FEFEFE}
    .fil1 {fill:#BDBFC1}
    .fil6 {fill:#FEFEFE;fill-rule:nonzero}
    .fil7 {fill:#FFF212;fill-rule:nonzero}
    .fil3 {fill:#0098DA;fill-rule:nonzero}
    .fil5 {fill:url(#id0)}
    .fil4 {fill:url(#id1);fill-rule:nonzero}
   ]]>
  </style>
  <linearGradient id="id0" gradientUnits="userSpaceOnUse" x1="72.9227" y1="101.259" x2="115.748" y2="90.4022">
   <stop offset="0" style="stop-opacity:1; stop-color:#04870F"/>
   <stop offset="1" style="stop-opacity:1; stop-color:#03690C"/>
  </linearGradient>
  <linearGradient id="id1" gradientUnits="userSpaceOnUse" x1="34.6554" y1="86.9663" x2="76.6149" y2="30.5108">
   <stop offset="0" style="stop-opacity:1; stop-color:#1CC8EB"/>
   <stop offset="0.631373" style="stop-opacity:1; stop-color:#0E96E0"/>
   <stop offset="1" style="stop-opacity:1; stop-color:#0063D4"/>
  </linearGradient>
 </defs>
 <g id="Layer_x0020_1">
  <metadata id="CorelCorpID_0Corel-Layer"/>
  <rect class="fil0" width="120" height="120"/>
  <g id="_762816360">
   <path class="fil1" d="M3 2l0 96c0,0 88,-2 88,0 0,2 0,-77 0,-77l-10 -18 -1 -1c0,0 -77,0 -77,0z"/>
   <g>
    <path class="fil2" d="M11 8l0 99c0,0 89,-2 89,1 0,2 0,-80 0,-80l-9 -19 -1 -1c0,0 -79,0 -79,0z"/>
    <path id="1" class="fil3" d="M9 107l0 -99 5 0 0 99 -3 3 -2 -3zm2 3l-2 0 0 -3 2 3zm91 -2l-4 0 0 0 1 2 0 0 -1 0 -2 -1 -2 0 -2 0 -3 0 -3 0 -3 0 -4 0 -3 0 -4 0 -4 0 -4 0 -4 0 -4 0 -4 0 -5 0 -4 0 -4 0 -3 0 -4 0 -4 0 -3 0 -3 1 -2 0 -3 0 -2 0 -1 0 -2 0 0 0 -1 0 0 -5 0 0 1 0 1 0 2 0 2 0 2 0 3 0 3 -1 3 0 4 0 3 0 4 0 4 0 4 0 4 0 5 0 4 0 4 0 4 0 4 0 4 0 3 0 4 0 3 0 3 0 3 0 2 0 2 0 2 1 1 0 2 0 1 3 0 0zm-4 -79l4 -3 0 2 0 0 0 0 0 2 0 1 0 2 0 2 0 3 0 2 0 3 0 3 0 4 0 3 0 4 0 4 0 3 0 4 0 4 0 4 0 4 0 3 0 4 0 3 0 3 0 3 0 3 0 2 0 2 0 2 0 1 0 1 0 0 -4 1 4 0 -4 -1 0 0 0 -1 0 -1 0 -2 0 -2 0 -2 0 -3 0 -3 0 -3 0 -3 0 -4 0 -3 0 -4 0 -4 0 -4 0 -4 0 -3 0 -4 0 -4 0 -3 0 -4 0 -3 0 -3 0 -2 0 -3 0 -2 0 -2 0 -1 0 -2 0 0 0 0 0 1zm-5 -21l9 18 -4 3 -9 -19 4 -2 0 0zm0 0l0 0 0 0 0 0zm-1 -1l1 1 -3 3 -1 -1 1 -4 2 1zm-2 -1l1 0 1 1 -2 -1zm-76 2l-5 0 0 0 2 -2 1 0 1 0 2 0 1 0 3 0 2 0 3 0 3 0 3 0 3 0 3 0 4 0 3 0 4 0 4 0 4 0 3 0 4 0 3 0 4 0 3 0 3 0 3 0 3 0 2 0 2 0 2 0 1 0 1 0 1 0 0 0 0 5 0 0 -1 0 -1 0 -1 0 -2 0 -2 0 -2 0 -3 0 -3 0 -3 0 -3 0 -4 0 -3 0 -4 0 -3 0 -4 0 -4 0 -4 0 -3 0 -4 0 -3 0 -3 0 -3 0 -3 0 -3 0 -2 0 -3 0 -1 0 -2 0 -1 0 0 0 2 -3 0 0z"/>
   </g>
   <path class="fil4" d="M26 86c16,14 41,16 58,1 0,0 1,0 1,0l1 -1c-4,-5 -12,-7 -18,-10 -1,-1 -2,-2 -2,-4l0 -5c1,0 1,0 1,-1 2,-2 4,-5 5,-8 2,-1 3,-3 3,-6l0 -5c0,-2 -1,-3 -1,-4l0 -8c0,-1 0,-6 -4,-10 -3,-3 -7,-5 -14,-5 -8,0 -8,0 -10,2 -2,1 -3,1 -5,4 -4,4 -3,8 -3,9l0 8c-1,1 -1,2 -1,4l0 5c0,2 1,4 2,5 1,5 4,9 5,10l0 5c0,2 -1,3 -2,3l-13 7c-1,1 -2,2 -3,4z"/>
   <g id="_762816216">
    <g>
     <path class="fil5" d="M94 74c13,0 23,10 23,22 0,12 -10,22 -23,22 -12,0 -22,-10 -22,-22 0,-12 10,-22 22,-22z"/>
     <path id="1" class="fil6" d="M117 96l-1 0 0 0 0 -1 0 -1 -1 -1 0 -1 0 -1 0 -2 -1 0 0 -1 0 -1 -1 -1 0 -1 -1 -1 -1 -1 0 -1 -1 -1 -1 0 0 -1 -1 -1 -1 0 -1 -1 -1 0 -1 -1 0 0 -1 -1 -1 0 -1 -1 -1 0 -1 0 -1 0 -1 0 -2 0 -1 0 0 -2 2 0 1 0 1 0 1 0 1 1 1 0 1 0 1 1 1 0 1 1 1 0 1 1 1 0 1 1 1 1 1 1 0 0 1 1 1 1 0 1 1 1 1 1 0 1 1 1 0 1 0 1 1 1 0 1 0 1 0 1 0 2 0 1 0 0zm-23 23l0 -2 0 0 1 0 2 0 1 0 1 0 1 -1 1 0 1 0 1 -1 1 0 0 0 1 -1 1 0 1 -1 1 -1 1 0 0 -1 1 -1 1 -1 0 0 1 -1 1 -1 0 -1 1 -1 0 -1 0 -1 1 -1 0 -1 0 -1 0 -1 1 -1 0 -1 0 -1 1 0 0 1 0 1 0 1 0 1 0 2 -1 1 0 1 0 1 -1 1 0 1 -1 1 -1 1 0 1 -1 0 -1 1 0 1 -1 1 -1 1 -1 0 -1 1 -1 1 -1 0 -1 1 -1 0 -1 0 -1 1 -1 0 -1 0 -1 1 -1 0 -1 0 -2 0 0 0zm-23 -23l2 0 0 0 0 1 0 1 0 1 0 1 1 1 0 1 0 1 1 1 0 1 1 1 0 1 1 1 0 1 1 0 1 1 0 1 1 1 1 0 1 1 0 1 1 0 1 1 1 0 1 0 1 1 1 0 1 0 1 1 1 0 1 0 1 0 1 0 0 2 -1 0 -1 0 -1 0 -1 -1 -1 0 -2 0 -1 -1 -1 0 -1 0 -1 -1 -1 0 -1 -1 0 -1 -1 0 -1 -1 -1 -1 -1 -1 0 -1 -1 0 -1 -1 0 -1 -1 -1 0 -1 -1 -1 0 -1 -1 -1 0 -1 0 -2 0 -1 -1 -1 0 -1 0 -1 0 0zm23 -23l0 2 0 0 -1 0 -1 0 -1 0 -1 0 -1 0 -1 0 -1 1 -1 0 -1 1 -1 0 -1 1 -1 0 0 1 -1 0 -1 1 -1 1 0 0 -1 1 -1 1 0 1 -1 1 0 1 -1 1 0 1 -1 1 0 0 0 2 -1 1 0 1 0 1 0 1 0 1 -2 0 0 -1 0 -2 1 -1 0 -1 0 -1 0 -1 1 -1 0 -1 1 -1 0 -1 1 -1 0 -1 1 -1 1 -1 0 -1 1 0 1 -1 1 -1 1 -1 0 0 1 -1 1 0 1 -1 1 0 1 -1 1 0 2 0 1 -1 1 0 1 0 1 0 1 0 0 0z"/>
    </g>
    <path class="fil7" d="M98 102c0,-1 0,-1 -1,-2 0,-1 -1,-1 -3,-2 -1,0 -2,-1 -3,-1 -1,-1 -2,-1 -3,-2 0,-1 -1,-2 -1,-2 -1,-1 -1,-2 -1,-4 0,-2 1,-4 2,-5 1,-1 3,-2 5,-2l0 -2 0 -1 0 0 0 0c1,-1 1,-1 1,-1l2 0c0,0 0,0 1,1l0 0 0 0 0 1 0 2c2,0 4,1 5,3 1,1 2,2 2,5l0 0 0 0c0,1 -1,2 -2,2l-2 0c-1,0 -2,-1 -2,-2l0 0 0 0 0 0 0 0 0 0c0,-2 0,-2 -1,-3 0,-1 -1,-1 -2,-1 -1,0 -2,0 -3,1 0,1 -1,1 -1,2 0,1 1,2 1,3 1,0 2,1 3,1 2,1 3,2 4,2 1,1 2,1 3,2 0,1 1,1 1,2 1,1 1,2 1,3 0,3 -1,4 -2,6 -2,1 -4,2 -6,2l0 1c0,0 0,0 0,0l0 2c0,0 0,1 -1,1l-1 0c0,0 -1,-1 -1,-1l0 -2c0,0 0,0 0,0l0 -1c-2,0 -4,-1 -6,-3 -1,-1 -2,-3 -2,-5l0 0c0,-1 1,-2 2,-2l2 0c1,0 1,1 1,2l0 0 0 0 0 0 0 0 0 0 0 0c0,1 1,2 2,2 0,1 1,2 3,2 1,0 2,-1 2,-1 1,-1 1,-2 1,-3z"/>
   </g>
  </g>
 </g>
</svg>
