<?xml version="1.0" encoding="UTF-8"?>
<!DOCTYPE svg PUBLIC "-//W3C//DTD SVG 1.1//EN" "http://www.w3.org/Graphics/SVG/1.1/DTD/svg11.dtd">
<!-- Creator: CorelDRAW X7 -->
<svg xmlns="http://www.w3.org/2000/svg" xml:space="preserve" width="121px" height="120px" version="1.1" style="shape-rendering:geometricPrecision; text-rendering:geometricPrecision; image-rendering:optimizeQuality; fill-rule:evenodd; clip-rule:evenodd"
viewBox="0 0 120 120"
 xmlns:xlink="http://www.w3.org/1999/xlink">
 <defs>
  <style type="text/css">
   <![CDATA[
    .str0 {stroke:#966100;stroke-width:0.899339}
    .fil0 {fill:none}
    .fil8 {fill:none;fill-rule:nonzero}
    .fil7 {fill:#FEFEFE}
    .fil1 {fill:#FEFEFE}
    .fil3 {fill:#2887D2}
    .fil6 {fill:#966100}
    .fil5 {fill:#FEFEFE;fill-rule:nonzero}
    .fil2 {fill:#966100;fill-rule:nonzero}
    .fil4 {fill:#D40000;fill-rule:nonzero}
   ]]>
  </style>
 </defs>
 <g id="Layer_x0020_1">
  <metadata id="CorelCorpID_0Corel-Layer"/>
  <rect class="fil0" x="1" width="120" height="120"/>
  <g id="_801217480">
   <g>
    <polygon class="fil1" points="27,15 84,15 84,95 27,95 "/>
    <path id="1" class="fil2" d="M84 17l-57 0 0 -4 57 0 2 2 -2 2zm0 -4l2 0 0 2 -2 -2zm-2 82l0 -80 4 0 0 80 -2 2 -2 -2zm4 0l0 2 -2 0 2 -2zm-59 -2l57 0 0 4 -57 0 -2 -2 2 -2zm0 4l-2 0 0 -2 2 2zm2 -82l0 80 -4 0 0 -80 2 -2 2 2zm-4 0l0 -2 2 0 -2 2z"/>
   </g>
   <g>
    <polygon class="fil1" points="118,6 84,15 84,95 118,104 "/>
    <path id="1" class="fil2" d="M83 13l35 -9 1 4 -35 9 -2 -2 1 -2zm-1 2l0 -2 1 0 -1 2zm0 80l0 -80 4 0 0 80 -3 2 -1 -2zm1 2l-1 0 0 -2 1 2zm35 9l-35 -9 1 -4 35 9 1 2 -2 2zm2 -2l0 2 -2 0 2 -2zm0 -98l0 98 -4 0 0 -98 2 -2 2 2zm-2 -2l2 0 0 2 -2 -2z"/>
   </g>
   <g>
    <path class="fil3" d="M49 30c1,3 4,5 8,4 3,-1 5,-4 4,-8 0,-3 -4,-6 -8,-4 -5,1 -5,7 -4,8z"/>
    <path class="fil3" d="M47 47c0,1 -1,33 -1,37 0,1 -1,3 0,4 1,1 6,2 6,-2 1,-1 1,-3 1,-4 0,-3 0,-6 0,-9 1,-2 1,-3 1,-5 0,-1 0,-3 2,-3 1,1 1,3 1,4l1 13c0,3 0,6 3,7 5,0 4,-4 4,-6 -1,-6 -1,-12 -1,-19l-1 -14c0,0 0,-1 0,-2 0,-1 0,-1 1,-1 1,1 2,12 2,15 1,3 4,3 5,1 1,-2 -1,-14 -1,-16 -1,-8 -7,-11 -15,-11 -5,0 -10,1 -12,5 -2,2 -2,4 -2,7 -1,2 -1,5 -1,7 -1,2 -1,7 -1,8 1,2 5,2 5,-2l2 -13c0,-1 0,-1 1,-1z"/>
   </g>
   <g>
    <path class="fil4" d="M66 81l-32 0 0 -11 -31 22 31 21 0 -11 32 0 0 -21zm-16 0m-16 -5m-16 5m0 22m16 5m16 -6m16 -10"/>
    <path id="1" class="fil5" d="M34 80l32 0 0 3 -32 0 -2 -2 2 -1zm0 3l-2 0 0 -2 2 2zm1 -13l0 11 -3 0 0 -11 1 -1 2 1zm-2 -1l2 -2 0 3 -2 -1zm-31 22l31 -22 1 2 -31 22 -1 0 0 -2zm0 2l-2 -1 2 -1 0 2zm31 22l-31 -22 1 -2 31 21 1 1 -2 2zm2 -2l0 3 -2 -1 2 -2zm0 -11l0 11 -3 0 0 -11 2 -1 1 1zm-3 0l0 -1 2 0 -2 1zm34 2l-32 0 0 -3 32 0 1 1 -1 2zm1 -2l0 2 -1 0 1 -2zm0 -21l0 21 -2 0 0 -21 1 -1 1 1zm-1 -1l1 0 0 1 -1 -1z"/>
   </g>
   <polygon class="fil6" points="113,46 107,47 107,63 113,64 "/>
   <g>
    <path class="fil7" d="M108 51c2,0 3,2 3,4 0,2 -1,4 -3,4 -2,0 -4,-2 -4,-4 0,-2 2,-4 4,-4z"/>
    <path id="1" class="fil8 str0" d="M108 51c2,0 3,2 3,4 0,2 -1,4 -3,4 -2,0 -4,-2 -4,-4 0,-2 2,-4 4,-4z"/>
   </g>
  </g>
 </g>
</svg>
