<?xml version="1.0" encoding="UTF-8"?>
<!DOCTYPE svg PUBLIC "-//W3C//DTD SVG 1.1//EN" "http://www.w3.org/Graphics/SVG/1.1/DTD/svg11.dtd">
<!-- Creator: CorelDRAW X7 -->
<svg xmlns="http://www.w3.org/2000/svg" xml:space="preserve" width="120px" height="120px" version="1.1" style="shape-rendering:geometricPrecision; text-rendering:geometricPrecision; image-rendering:optimizeQuality; fill-rule:evenodd; clip-rule:evenodd"
viewBox="0 0 120 120"
 xmlns:xlink="http://www.w3.org/1999/xlink">
 <defs>
  <style type="text/css">
   <![CDATA[
    .fil0 {fill:none}
    .fil1 {fill:#FEFEFE}
    .fil6 {fill:#F58634}
    .fil4 {fill:#0098DA}
    .fil3 {fill:#2887D2}
    .fil5 {fill:#FEFEFE;fill-rule:nonzero}
    .fil8 {fill:#00AFEF;fill-rule:nonzero}
    .fil7 {fill:#1CC8EB;fill-rule:nonzero}
    .fil2 {fill:#2887D2;fill-rule:nonzero}
   ]]>
  </style>
 </defs>
 <g id="Layer_x0020_1">
  <metadata id="CorelCorpID_0Corel-Layer"/>
  <rect class="fil0" width="120" height="120"/>
  <g id="_764871960">
   <g>
    <g>
     <g>
      <g>
       <g>
        <g>
         <path class="fil1" d="M85 10l0 79c0,0 -61,-2 -61,0 0,2 -1,-63 -1,-63l11 -15 0 -1c0,0 51,0 51,0z"/>
         <path id="1" class="fil2" d="M87 89l-2 1 -1 -1 0 -79 2 0 1 79zm0 0l0 1 -2 0 2 -1zm-65 0l0 0 1 -2 1 0 1 0 1 0 2 0 1 0 2 0 2 -1 2 0 3 0 2 0 3 0 3 0 3 0 3 0 2 0 3 0 3 0 3 0 3 1 2 0 3 0 2 0 3 0 2 0 2 0 1 0 2 0 1 0 1 0 0 0 0 0 0 3 0 0 0 0 -1 0 -1 0 -2 0 -1 0 -2 0 -2 0 -3 0 -2 0 -3 0 -2 0 -3 0 -3 0 -3 0 -3 0 -2 0 -3 0 -3 0 -3 0 -3 0 -2 0 -2 0 -3 0 -2 0 -2 0 -1 0 -2 0 -1 0 -1 0 0 1 1 -2 0 0 -3 0zm2 -62l1 -1 0 0 0 0 0 1 0 1 0 2 0 2 0 2 0 2 0 2 0 3 0 2 0 3 0 3 0 3 0 3 0 3 0 3 0 3 0 3 0 3 0 2 0 3 0 2 0 3 0 2 0 2 0 1 0 2 0 1 0 1 0 0 -3 0 3 0 -3 0 0 0 0 -1 0 -1 0 -2 0 -1 0 -2 0 -2 0 -3 0 -2 0 -3 0 -2 0 -3 0 -3 0 -3 0 -3 0 -3 0 -3 0 -3 0 -3 0 -3 0 -2 0 -3 0 -2 0 -2 0 -2 0 -2 0 -2 0 -1 0 -1 0 0 0 0 0 -2 2 3zm8 -17l1 0 2 2 -11 15 -2 -3 10 -14zm0 0l1 0 0 0 -1 0zm1 -1l1 0 1 3 -1 0 -1 -2 0 -1zm0 0l1 0 0 0 -1 0zm51 1l0 0 1 2 -1 0 0 0 -1 0 -1 0 -2 0 -1 0 -2 0 -2 0 -2 0 -2 0 -2 0 -2 0 -3 0 -2 0 -2 0 -3 0 -2 0 -2 0 -3 0 -2 0 -2 0 -2 0 -2 0 -2 0 -1 0 -2 0 -1 0 -1 0 0 0 -1 0 0 0 0 -3 0 0 1 0 0 0 1 0 1 0 2 0 1 0 2 0 2 0 2 0 2 0 2 0 2 0 3 -1 2 0 3 0 2 0 2 0 3 0 2 0 2 0 2 0 2 0 2 0 2 0 1 0 2 0 1 0 1 0 0 1 1 0 1 1 0 0 -2 0z"/>
        </g>
        <g>
         <path class="fil3" d="M34 11l1 10c0,0 0,4 -2,4 -2,1 -10,0 -10,0l11 -15 0 1z"/>
         <path id="1" class="fil2" d="M35 21l0 0 0 0 -1 -10 0 0 1 10zm0 0l0 0 0 0 0 0zm-2 4l0 0 0 0 0 0 0 0 1 0 0 0 0 -1 0 0 0 0 0 0 0 0 0 0 0 0 0 -1 0 0 0 0 0 0 1 0 0 0 0 0 0 -1 0 0 0 0 0 0 0 0 0 0 0 0 0 0 0 -1 0 0 0 0 0 0 0 0 0 0 0 0 0 0 0 0 0 0 0 1 0 0 0 0 0 0 0 0 0 0 0 0 0 0 0 1 0 0 0 0 0 0 0 0 0 0 0 1 0 0 0 0 0 0 -1 0 0 0 0 1 0 0 0 0 0 0 0 0 -1 0 0 0 0 0 0 0 0 0zm-10 1l0 -1 0 0 0 0 0 0 0 0 1 0 0 0 0 0 0 0 1 0 0 0 0 0 1 0 0 0 0 0 1 0 0 0 1 0 0 0 1 0 0 0 0 0 1 0 0 0 1 0 0 0 0 0 1 0 0 0 0 0 1 0 0 0 0 0 0 0 0 0 0 0 -1 0 0 1 0 0 -1 0 0 0 0 0 -1 0 0 0 -1 0 0 0 0 0 -1 0 0 0 -1 0 0 0 -1 0 0 0 0 0 -1 0 0 0 0 0 -1 0 0 0 0 0 0 0 -1 0 0 0 0 0 0 0 0 0 0 -1 0 1zm11 -16l0 0 0 0 -11 16 0 -1 11 -15zm0 0l0 -1 0 1 0 0zm0 1l0 0 0 0 0 -1 0 0 0 1zm0 0l0 0 0 0 0 0z"/>
        </g>
       </g>
       <rect class="fil3" transform="matrix(0.552372 -0.00180445 -0.00250636 -0.635834 32.0851 49.6844)" width="81.252" height="7.29227"/>
       <rect class="fil3" transform="matrix(0.552372 -0.00180445 -0.00250636 -0.635834 32.0513 41.1023)" width="81.252" height="7.29227"/>
       <rect class="fil3" transform="matrix(0.377519 -0.00123325 -0.00250636 -0.635834 46.2227 32.0108)" width="81.252" height="7.29227"/>
       <rect class="fil3" transform="matrix(0.552372 -0.00180445 -0.00250636 -0.635834 32.1212 58.8503)" width="81.252" height="7.29227"/>
       <rect class="fil3" transform="matrix(0.552372 -0.00180445 -0.00250636 -0.635834 32.1574 68.0163)" width="81.252" height="7.29227"/>
       <rect class="fil3" transform="matrix(0.552372 -0.00180445 -0.00250636 -0.635834 32.1931 77.0721)" width="81.252" height="7.29227"/>
      </g>
      <g>
       <g>
        <path class="fil1" d="M77 17l0 78c0,0 -61,-1 -61,1 0,1 -1,-64 -1,-64l10 -14 1 -1c0,0 51,0 51,0z"/>
        <path id="1" class="fil2" d="M79 95l-2 2 -1 -2 0 -78 2 0 1 78zm0 0l0 2 -2 0 2 -2zm-65 1l0 0 1 -2 1 0 1 0 1 0 2 -1 1 0 2 0 2 0 2 0 3 0 2 0 3 0 3 0 3 0 3 0 2 0 3 0 3 0 3 0 3 0 3 0 2 0 2 0 3 0 2 0 2 1 1 0 2 0 1 0 1 0 0 0 0 0 0 3 0 0 0 0 -1 0 -1 0 -2 0 -1 0 -2 0 -2 0 -3 0 -2 0 -3 0 -2 0 -3 0 -3 0 -3 0 -3 0 -2 0 -3 0 -3 0 -3 0 -3 0 -2 0 -2 0 -3 0 -2 0 -2 0 -1 0 -2 0 -1 0 -1 0 0 0 1 -1 0 0 -3 0zm2 -62l1 -2 0 1 0 0 0 1 0 1 0 2 0 1 0 2 0 3 0 2 0 2 0 3 0 3 0 3 0 3 0 3 0 3 0 3 0 3 0 3 0 2 0 3 0 3 0 2 0 3 0 2 0 2 0 1 0 2 0 1 0 0 0 1 -3 0 3 0 -3 0 0 -1 0 0 0 -1 0 -2 0 -1 0 -2 0 -2 0 -3 0 -2 0 -3 0 -3 0 -2 0 -3 0 -3 0 -3 0 -3 0 -3 0 -3 0 -3 0 -3 0 -3 0 -2 0 -2 0 -3 0 -2 0 -1 0 -2 0 -1 0 -1 0 0 0 -1 0 -1 2 3zm8 -17l1 0 2 2 -11 15 -2 -3 10 -14zm0 0l1 0 0 0 -1 0zm1 -1l1 -1 1 3 -1 1 -1 -2 0 -1zm0 0l1 -1 0 0 -1 1zm51 1l0 0 1 2 -1 0 0 0 -1 0 -1 0 -2 0 -1 0 -2 0 -2 0 -2 0 -2 0 -2 0 -2 0 -3 0 -2 0 -2 0 -3 0 -2 0 -2 0 -3 0 -2 0 -2 0 -2 0 -2 0 -2 0 -1 0 -2 0 -1 0 -1 0 0 0 -1 0 0 0 0 -4 0 0 1 0 0 0 1 0 1 0 2 0 1 0 2 0 2 0 2 0 2 0 2 0 3 0 2 0 2 0 3 0 2 0 2 0 3 0 2 0 2 0 2 0 2 0 2 0 2 0 1 0 2 0 1 0 1 0 1 0 0 0 1 2 0 0 -2 0z"/>
       </g>
       <g>
        <path class="fil3" d="M26 18l1 10c0,0 0,3 -2,4 -2,1 -10,0 -10,0l11 -15 0 1z"/>
        <path id="1" class="fil2" d="M27 28l0 0 0 0 -1 -10 0 0 1 10zm0 0l0 0 0 0 0 0zm-2 4l0 0 0 0 0 0 0 0 1 -1 0 0 0 0 0 0 0 0 0 0 0 0 0 0 0 -1 0 0 0 0 0 0 0 0 0 0 1 -1 0 0 0 0 0 0 0 0 0 0 0 0 0 0 0 -1 0 0 0 0 0 0 0 0 0 0 0 0 0 0 0 0 0 0 0 0 0 0 0 0 0 0 0 1 0 0 0 0 0 0 0 0 0 0 0 0 0 1 0 0 0 0 0 0 0 0 0 0 0 1 0 0 0 0 -1 0 0 0 0 0 0 1 0 0 0 0 0 0 -1 0 0 0 0 0 0 0 0 0zm-10 0l0 0 0 0 0 0 0 0 0 0 1 0 0 0 0 0 0 0 1 0 0 0 0 0 1 0 0 0 0 0 1 0 0 0 1 0 0 0 1 0 0 0 0 0 1 0 0 0 1 0 0 0 0 0 1 0 0 0 0 0 1 0 0 0 0 0 0 0 0 0 0 0 -1 0 0 0 0 0 -1 0 0 0 0 0 -1 0 0 0 -1 1 0 0 0 0 -1 0 0 0 -1 0 0 0 -1 0 0 0 0 0 -1 0 0 0 0 0 -1 0 0 0 0 -1 0 0 -1 0 0 0 0 0 0 0 0 0 0 0 0 0zm11 -15l0 0 0 0 -11 15 0 0 11 -15zm0 0l0 -1 0 1 0 0zm0 1l0 0 0 0 0 -1 0 0 0 1zm0 0l0 0 0 0 0 0z"/>
       </g>
      </g>
     </g>
     <g>
      <rect class="fil4" x="29" y="31" width="39.8874" height="5.18842"/>
      <rect class="fil4" x="29" y="41" width="39.8881" height="5.18842"/>
      <rect class="fil4" x="29" y="54" width="39.8881" height="5.18842"/>
      <rect class="fil4" x="29" y="65" width="39.8881" height="5.18842"/>
      <rect class="fil4" x="29" y="79" width="39.8881" height="5.18842"/>
     </g>
    </g>
    <g>
     <path class="fil5" d="M22 62l-19 0 0 -4 19 0 2 1 -2 3zm0 -4l1 0 1 1 -2 -1zm28 17l0 4 0 0 -1 0 -1 0 -2 0 -1 0 -1 -1 -1 0 -1 0 -2 0 -1 -1 -1 0 -1 -1 -1 0 -1 0 -1 -1 -1 0 -1 -1 -1 -1 -1 0 -1 -1 -1 -1 -1 0 0 -1 -1 -1 -1 -1 -1 0 0 -1 -1 -1 -1 -1 0 -1 -1 -1 -1 -1 0 -1 4 -2 0 1 0 1 1 1 0 1 1 0 1 1 0 1 1 1 1 0 0 1 1 1 1 0 1 1 0 0 1 1 1 1 1 0 1 0 1 1 1 0 1 1 1 0 1 0 1 1 1 0 1 0 1 0 1 1 1 0 1 0 1 0 1 0 0 0zm29 -17l0 4 1 -1 0 1 -1 1 0 1 -1 1 -1 1 0 1 -1 1 -1 0 0 1 -1 1 -1 1 -1 0 -1 1 -1 1 -1 0 -1 1 -1 1 -1 0 -1 1 -1 0 -1 0 -1 1 -1 0 -1 1 -1 0 -2 0 -1 0 -1 1 -1 0 -1 0 -2 0 -1 0 0 -4 1 0 1 0 1 0 2 0 1 -1 1 0 1 0 1 0 1 -1 1 0 1 0 1 -1 1 0 1 -1 0 0 1 0 1 -1 1 -1 1 0 1 -1 0 0 1 -1 1 -1 0 0 1 -1 1 -1 0 -1 1 0 0 -1 1 -1 0 -1 1 -1 2 -1zm-2 1l0 -1 2 0 -2 1zm20 3l-18 0 0 -4 18 0 2 2 -2 2zm0 -4l2 0 0 2 -2 -2zm-2 52l0 -50 4 0 0 50 -2 2 -2 -2zm4 0l0 2 -2 0 2 -2zm-96 -2l94 0 0 4 -94 0 -2 -2 2 -2zm0 4l-2 0 0 -2 2 2zm2 -52l0 50 -4 0 0 -50 2 -2 2 2zm-4 0l0 -2 2 0 -2 2z"/>
     <path id="1" class="fil6" d="M3 60l19 0c5,10 15,17 28,17 13,0 24,-7 29,-17l18 0 0 50 -94 0 0 -50z"/>
    </g>
   </g>
   <path class="fil7" d="M73 108c1,0 9,-4 14,-7 2,-1 3,-4 2,-6 0,-3 -3,-5 -5,-5l-10 0c3,-5 6,-11 7,-17 1,-2 1,-5 1,-7 0,-3 1,-6 3,-8 5,-4 13,-4 18,0 3,2 4,5 4,8 0,2 0,5 1,7 1,6 3,12 6,17l-9 0c-3,0 -5,2 -6,5 -1,2 1,5 3,6 5,3 13,7 13,7 1,1 2,1 2,2l-45 0c0,-1 1,-1 1,-2z"/>
   <g>
    <path class="fil8" d="M52 110c20,0 14,0 47,0 1,-2 1,-5 -1,-10 -1,-3 -12,-4 -13,-5 0,0 -1,-1 -1,-2l0 -4c0,0 0,0 1,-1 1,-2 2,-4 3,-6 1,-1 2,-2 2,-4l0 -4c0,-1 0,-3 -1,-3l0 -6c0,-1 1,-4 -2,-7 -2,-3 -6,-4 -11,-4 -5,0 -4,2 -6,3 -2,1 -3,-1 -5,1 -3,3 -2,6 -2,7l0 6c-1,0 -1,2 -1,3l0 4c0,1 1,2 2,3 1,4 3,7 4,8l0 4c0,1 -1,2 -2,2l-10 3c-3,2 -4,10 -4,12z"/>
    <path id="1" class="fil5" d="M98 109l2 1 -1 1 -3 0 -3 0 -2 0 -3 0 -2 0 -2 0 -2 0 -1 0 -2 0 -1 0 -2 0 -1 0 -1 0 -1 0 -1 0 -1 0 -1 0 -1 0 -1 0 -1 0 -1 0 -1 0 -1 0 -1 0 -1 0 -1 0 -1 0 -1 0 -2 0 -1 0 -2 0 -2 0 0 -2 2 0 2 0 1 0 2 0 1 0 1 0 1 0 1 0 1 0 1 0 1 0 1 0 1 0 1 0 1 0 1 0 1 0 1 0 1 0 1 0 1 0 2 0 1 0 2 0 1 0 2 0 2 0 2 0 3 0 2 0 3 0 3 0 -1 0zm2 1l0 1 -1 0 1 -1zm-3 -9l2 -1 0 0 0 0 1 1 0 0 0 1 0 0 0 0 0 1 0 0 0 1 0 0 1 0 0 1 0 0 0 0 0 1 0 0 0 0 0 1 0 0 0 0 0 0 0 1 0 0 0 0 0 1 0 0 0 0 0 0 -1 1 0 0 0 0 0 0 -2 -1 0 0 0 0 0 0 0 0 0 -1 0 0 0 0 0 0 1 0 0 0 0 -1 0 0 0 0 0 0 0 -1 0 0 -1 0 0 0 0 -1 0 0 0 0 0 -1 0 0 0 0 0 -1 0 0 0 0 0 -1 -1 0 0 0 0 -1 0 0 0 0zm-12 -5l1 -2 0 0 0 0 0 0 0 0 0 0 1 0 0 0 0 0 1 0 0 1 1 0 0 0 1 0 0 0 1 0 0 0 1 0 0 1 1 0 1 0 0 0 1 0 0 1 1 0 0 0 1 0 0 1 1 0 0 0 0 1 1 0 0 1 0 0 -2 1 0 0 0 -1 0 0 -1 0 0 0 0 -1 -1 0 0 0 0 0 -1 0 0 -1 -1 0 0 0 -1 0 0 0 -1 0 0 -1 -1 0 0 0 -1 0 0 0 -1 0 0 0 -1 0 0 0 0 0 -1 0 0 0 0 -1 -1 0 0 0 0 0 0 0zm0 0l0 0 0 0 0 0zm-2 -3l2 0 0 0 0 0 0 0 0 0 0 0 0 0 0 0 0 0 0 0 0 0 0 0 0 0 0 0 0 0 0 0 0 1 0 0 0 0 0 0 0 0 0 0 1 0 0 0 0 0 0 0 0 0 0 0 0 0 0 0 0 0 0 0 0 0 0 0 -1 2 0 0 0 0 0 0 -1 0 0 0 0 0 0 0 0 0 0 0 0 -1 0 0 0 0 0 0 0 0 -1 0 0 0 0 0 0 0 0 -1 0 0 0 0 0 0 0 0 0 0 0 0 0 0 0 -1 0 0 0 0 0 0 0 0 0 0 0 0zm2 -4l0 4 -2 0 0 -4 0 -1 2 1zm-2 0l0 0 0 -1 0 1zm1 -2l2 2 0 0 0 0 0 0 0 0 0 0 0 0 0 0 -1 0 0 0 0 0 0 0 0 0 0 0 0 0 0 0 0 0 0 0 0 0 0 0 0 0 0 1 0 0 0 0 0 0 0 0 0 0 0 0 0 0 0 0 0 0 0 0 0 0 0 0 -2 -2 0 0 0 0 0 0 0 0 0 0 0 0 0 0 0 0 0 0 0 0 0 0 0 0 0 0 0 0 0 0 0 0 0 0 0 0 0 0 0 0 1 0 0 0 0 0 0 0 0 0 0 0 0 0 0 0 0 0 0 0 0 0 0 -1 0 0zm0 0l0 0 0 1 0 -1zm3 -6l1 2 1 -1 0 1 0 0 0 0 0 0 0 0 0 1 -1 0 0 0 0 0 0 0 0 1 0 0 0 0 0 0 0 1 0 0 -1 0 0 0 0 0 0 1 0 0 0 0 0 0 0 0 0 1 -1 0 0 0 0 0 0 0 0 0 0 1 0 0 -2 -2 0 0 0 0 0 0 0 0 0 0 0 -1 1 0 0 0 0 0 0 0 0 0 0 -1 0 0 0 0 0 0 0 0 1 -1 0 0 0 0 0 0 0 0 0 0 0 -1 0 0 0 0 0 0 0 0 1 -1 0 0 0 0 0 0 0 0 0 -1zm0 1l0 -1 0 0 0 1zm2 -4l3 0 0 0 0 0 0 0 0 1 0 0 0 0 -1 0 0 0 0 0 0 1 0 0 0 0 0 0 0 0 0 1 0 0 0 0 0 0 0 0 -1 0 0 1 0 0 0 0 0 0 0 0 0 0 -1 0 0 0 0 1 0 0 0 0 0 0 -1 0 -1 -2 1 0 0 0 0 0 0 0 0 0 0 -1 0 0 0 0 0 0 0 0 0 0 0 0 1 0 0 0 0 0 0 0 0 0 0 -1 0 0 0 0 0 0 0 0 0 0 0 0 0 0 0 0 0 -1 0 0 0 0 0 0 0 0 0 0 0 0zm3 -4l0 4 -3 0 0 -4 0 0 3 0zm-4 -3l3 0 -1 -1 0 0 0 0 0 0 1 0 0 0 0 1 0 0 0 0 0 0 0 0 0 0 0 0 0 0 0 0 0 1 0 0 0 0 0 0 0 0 0 0 0 0 0 0 0 0 1 1 0 0 0 0 0 0 0 0 0 0 0 0 0 0 0 1 -3 0 0 -1 0 0 0 0 0 0 0 0 0 0 0 0 0 0 0 0 0 0 0 0 0 0 0 0 0 0 0 0 0 -1 0 0 0 0 0 0 0 0 0 0 0 0 0 0 0 0 0 0 0 0 0 0 0 0 0 0 0 0 0 -1 -1 0 0 0zm0 0l0 0 0 0 0 0zm3 -6l0 6 -3 0 0 -6 0 0 3 0zm-3 0l0 0 0 0 0 0zm-2 -6l2 -2 0 0 0 0 0 1 1 0 0 0 0 1 0 0 0 0 1 1 0 0 0 0 0 1 0 0 0 0 0 0 0 1 0 0 0 0 0 1 0 0 1 0 0 0 0 1 0 0 0 0 0 0 0 0 0 1 0 0 0 0 0 0 0 0 0 0 -3 0 0 0 0 0 0 0 0 0 0 -1 0 0 0 0 0 0 0 0 0 0 0 0 0 -1 0 0 0 0 0 0 0 -1 0 0 0 0 0 0 0 0 0 -1 0 0 0 0 -1 0 0 -1 0 0 0 0 0 0 0 -1 0 0 -1 0 0 0 0 0zm-10 -4l0 -2 0 0 1 0 0 0 1 0 0 0 1 0 0 0 0 0 1 0 0 0 1 0 0 0 1 0 0 0 0 1 1 0 0 0 0 0 1 0 0 0 0 0 1 1 0 0 0 0 1 0 0 0 0 1 1 0 0 0 0 0 0 1 1 0 0 0 -2 2 0 -1 0 0 0 0 -1 0 0 0 0 -1 0 0 -1 0 0 0 0 0 0 0 -1 0 0 -1 0 0 0 0 -1 0 0 0 0 0 -1 0 0 0 0 0 -1 -1 0 0 0 0 -1 0 0 0 -1 0 0 0 0 0 -1 0 0 0 -1 0 0 0zm-6 3l-1 -2 0 0 0 0 0 0 0 0 0 -1 1 0 0 0 0 0 0 0 0 0 0 0 0 0 0 0 0 0 0 -1 1 0 0 0 0 0 0 0 0 0 1 0 0 -1 0 0 1 0 0 0 0 0 1 0 0 0 0 0 1 0 0 0 1 0 0 0 0 2 0 0 -1 0 0 0 0 0 -1 0 0 0 0 0 -1 0 0 0 0 1 0 0 0 0 0 0 -1 0 0 0 0 0 0 0 0 0 0 0 0 0 0 0 0 1 0 0 0 0 -1 0 0 0 0 0 0 0 0 0 0 1 -1 0 0 0 0 0zm-4 1l-2 -2 0 0 0 0 0 0 1 0 0 0 0 -1 0 0 1 0 0 0 0 0 0 0 0 0 1 0 0 0 0 0 0 0 0 0 1 0 0 0 0 0 0 0 0 0 0 0 0 0 0 0 1 0 0 0 0 0 0 0 0 0 0 0 0 0 0 0 1 2 0 0 0 0 -1 0 0 0 0 0 0 0 0 0 -1 0 0 0 0 0 0 0 0 0 0 0 0 0 -1 0 0 0 0 0 0 0 0 0 0 0 0 0 0 0 0 0 0 0 0 0 0 0 -1 0 0 0 0 0 0 1 0 0 0 0 0 0zm-2 -2l0 0 0 0 0 0zm0 8l-2 0 0 0 0 0 0 0 0 0 0 0 0 0 0 -1 0 0 0 0 0 0 0 0 0 0 0 -1 0 0 0 0 0 0 0 -1 0 0 0 0 0 -1 0 0 0 0 0 0 0 -1 0 0 1 0 0 -1 0 0 0 0 0 -1 1 0 0 0 0 -1 2 2 0 0 -1 0 0 1 0 0 0 0 0 0 0 1 0 0 0 0 -1 0 0 0 0 1 0 0 0 0 0 0 0 1 0 0 0 0 0 0 0 0 0 0 0 1 0 0 0 0 0 0 0 0 0 0 0 0 0 1 0 0 0 0 0 0 0 0zm0 0l0 0 0 0 0 0zm-2 6l0 -6 2 0 0 6 0 0 -2 0zm2 0l0 0 0 0 0 0zm-1 3l-2 0 0 0 0 -1 0 0 0 0 0 0 0 0 0 0 0 0 0 0 0 -1 0 0 0 0 0 0 0 0 0 0 0 0 0 0 0 0 0 -1 0 0 0 0 0 0 1 0 0 0 0 0 0 0 0 0 0 -1 0 0 0 0 0 0 0 0 0 0 2 1 0 0 0 1 0 0 0 0 0 0 0 0 0 0 0 0 0 0 0 0 0 0 0 0 -1 0 0 0 0 0 0 0 0 1 0 0 0 0 0 0 0 0 0 0 0 0 0 0 0 0 0 0 0 0 0 0 0 0 0 0 0 0 0 1 0 0zm-2 4l0 -4 2 0 0 4 0 0 -2 0zm4 3l-2 1 0 0 0 0 0 0 0 0 -1 0 0 0 0 0 0 -1 0 0 0 0 0 0 0 0 0 0 0 0 0 0 -1 -1 0 0 0 0 0 0 0 0 0 0 0 0 0 -1 0 0 0 0 0 0 0 0 0 0 0 0 0 -1 0 0 0 0 0 0 2 0 0 0 0 0 0 0 0 0 0 0 0 0 0 1 0 0 0 0 0 0 0 0 0 0 0 0 0 0 0 0 1 0 0 0 0 0 0 1 0 0 0 0 0 0 0 0 0 0 0 0 0 0 0 0 0 0 0 0 0 0 0 0 0 0 1 1zm-1 -1l1 1 0 0 -1 -1zm5 9l-2 0 0 1 0 0 0 0 0 0 0 -1 -1 0 0 0 0 0 0 0 0 0 0 -1 0 0 0 0 -1 0 0 -1 0 0 0 0 0 0 0 -1 -1 0 0 0 0 -1 0 0 0 0 0 0 -1 -1 0 0 0 -1 0 0 0 0 0 -1 0 0 0 0 2 -1 0 0 0 1 0 0 0 0 0 1 0 0 1 0 0 1 0 0 0 0 0 0 0 1 0 0 1 0 0 0 0 1 0 0 0 0 0 0 0 1 1 0 0 0 0 0 0 0 0 1 0 0 0 0 0 0 1 0 0 0 0 0 0 0 0 1zm0 -1l0 1 0 0 0 -1zm-2 5l0 -4 2 0 0 4 0 0 -2 0zm-1 3l0 -2 -1 0 1 0 0 0 0 0 0 0 0 0 0 0 0 0 0 0 0 0 0 0 0 0 0 0 0 -1 0 0 0 0 0 0 0 0 0 0 1 0 0 0 0 0 0 0 0 0 0 0 0 0 0 0 0 0 0 0 0 0 0 0 0 0 0 0 2 0 0 0 0 0 0 0 0 0 0 0 0 1 0 0 0 0 0 0 0 0 0 0 -1 0 0 0 0 1 0 0 0 0 0 0 0 0 0 0 0 0 0 0 0 0 0 0 -1 1 0 0 0 0 0 0 0 0 0 0 0 0 0 0 0 0 -1 0zm1 0l-1 0 0 0 1 0zm-11 1l10 -3 0 2 -9 3 -1 -2 0 0zm0 0l0 0 0 0 0 0zm-4 12l0 2 -1 -1 0 0 0 -1 0 0 0 0 0 -1 0 0 0 0 0 -1 0 0 0 -1 0 0 0 -1 0 0 0 -1 1 0 0 -1 0 0 0 -1 0 0 0 -1 0 0 1 0 0 -1 0 0 0 -1 1 0 0 -1 0 0 1 0 0 -1 0 0 1 0 1 2 0 0 -1 0 0 0 0 1 0 0 -1 0 0 0 0 1 0 0 0 0 0 1 -1 0 0 1 0 0 0 0 0 1 0 0 0 1 0 0 0 1 0 0 0 1 -1 0 0 0 0 1 0 0 0 0 0 1 0 0 0 0 0 0 0 1 -1 -1zm0 2l-1 0 0 -1 1 1z"/>
   </g>
  </g>
 </g>
</svg>
