<?xml version="1.0" encoding="UTF-8"?>
<!DOCTYPE svg PUBLIC "-//W3C//DTD SVG 1.1//EN" "http://www.w3.org/Graphics/SVG/1.1/DTD/svg11.dtd">
<!-- Creator: CorelDRAW X7 -->
<svg xmlns="http://www.w3.org/2000/svg" xml:space="preserve" width="120px" height="121px" version="1.1" style="shape-rendering:geometricPrecision; text-rendering:geometricPrecision; image-rendering:optimizeQuality; fill-rule:evenodd; clip-rule:evenodd"
viewBox="0 0 120 121"
 xmlns:xlink="http://www.w3.org/1999/xlink">
 <defs>
  <style type="text/css">
   <![CDATA[
    .fil0 {fill:none}
    .fil2 {fill:#FEFEFE}
    .fil1 {fill:#A9ABAE}
    .fil9 {fill:#F58634}
    .fil5 {fill:#FEFEFE;fill-rule:nonzero}
    .fil6 {fill:#FFF212;fill-rule:nonzero}
    .fil8 {fill:#FFF212;fill-rule:nonzero}
    .fil3 {fill:#0098DA;fill-rule:nonzero}
    .fil7 {fill:url(#id0)}
    .fil4 {fill:url(#id1)}
   ]]>
  </style>
  <linearGradient id="id0" gradientUnits="userSpaceOnUse" x1="56.3019" y1="41.2154" x2="97.3602" y2="30.8073">
   <stop offset="0" style="stop-opacity:1; stop-color:#04870F"/>
   <stop offset="1" style="stop-opacity:1; stop-color:#03690C"/>
  </linearGradient>
  <linearGradient id="id1" gradientUnits="userSpaceOnUse" xlink:href="#id0" x1="30.1766" y1="96.3078" x2="71.2278" y2="85.8997">
  </linearGradient>
 </defs>
 <g id="Layer_x0020_1">
  <metadata id="CorelCorpID_0Corel-Layer"/>
  <rect class="fil0" width="120" height="120"/>
  <g id="_570066272">
   <path class="fil1" d="M8 2l0 108c0,0 92,-2 92,0 0,2 0,-88 0,-88l-10 -19 -1 -1c0,0 -81,0 -81,0z"/>
   <g>
    <path class="fil2" d="M16 9l0 109c0,0 60,0 87,0 5,0 7,1 7,-3 0,-22 2,-47 2,-68 0,-6 -1,-10 -3,-14l-9 -23 -1 -1c0,0 -83,0 -83,0z"/>
    <path id="1" class="fil3" d="M13 118l0 -109 5 0 0 109 -2 2 -3 -2zm3 2l-3 0 0 -2 3 2zm87 -5l0 6 0 0 -3 0 -3 0 -3 0 -3 0 -3 0 -3 0 -4 0 -3 -1 -4 0 -3 0 -4 0 -4 0 -3 0 -4 0 -3 0 -4 0 -3 0 -4 0 -3 0 -3 0 -3 0 -3 0 -2 0 -3 0 -2 0 -2 0 -1 0 -2 0 -1 0 -1 0 0 0 0 0 0 -5 0 0 0 0 1 0 1 0 2 0 1 0 2 0 2 0 3 0 2 0 3 0 3 0 3 0 3 0 4 0 3 0 4 0 3 0 4 0 3 0 4 0 4 0 3 0 4 0 3 0 4 0 3 0 3 0 3 0 3 0 3 0 3 0 0 0zm4 0l6 0 0 0 0 0 0 1 0 0 0 1 0 0 0 1 -1 0 0 0 0 1 0 0 -1 1 0 0 -1 0 0 0 -1 1 0 0 0 0 -1 0 0 0 0 0 -1 0 0 0 0 0 -1 0 0 0 -1 0 0 0 0 0 -1 0 0 0 -1 0 0 0 0 -6 0 0 1 0 0 0 1 0 0 0 1 0 0 0 1 0 0 0 0 0 0 0 1 0 0 0 0 0 0 0 0 0 0 0 0 0 0 0 0 0 0 0 0 1 0 0 -1 0 0 0 0 0 0 0 0 0 0 0 0 -1 0 0 0 0 0 0zm2 -68l6 0 0 0 0 2 0 2 0 2 0 2 0 2 0 2 0 2 0 2 -1 3 0 2 0 2 0 2 0 2 0 2 0 3 0 2 0 2 0 2 0 2 -1 3 0 2 0 2 0 2 0 2 0 2 0 2 0 3 0 2 0 2 0 2 0 2 0 2 -6 0 0 -2 1 -2 0 -2 0 -2 0 -3 0 -2 0 -2 0 -2 0 -2 0 -2 0 -3 0 -2 0 -2 0 -2 0 -2 0 -2 1 -3 0 -2 0 -2 0 -2 0 -2 0 -3 0 -2 0 -2 0 -2 0 -2 0 -2 0 -2 0 -2 0 -2 0 -2 0 -2 0 0zm-2 -13l5 -2 0 0 0 1 0 0 0 0 0 1 0 0 1 1 0 0 0 0 0 1 0 0 0 1 0 0 1 0 0 1 0 0 0 1 0 0 0 1 0 0 0 1 0 0 0 1 1 0 0 1 0 0 0 1 0 0 0 1 0 0 0 1 0 0 0 1 -6 0 0 -1 0 0 0 -1 0 0 0 0 0 -1 0 0 0 -1 0 0 0 -1 0 0 0 0 0 -1 0 0 0 -1 0 0 0 0 -1 -1 0 0 0 0 0 -1 0 0 0 -1 0 0 0 0 0 -1 -1 0 0 0 0 -1 0 0 0 0 0 -1 0 0zm-4 -25l9 23 -5 2 -9 -23 4 -3 1 1zm-1 -1l0 1 1 0 -1 -1zm-1 -1l1 1 -4 4 -1 -1 2 -5 2 1zm-2 -1l1 0 1 1 -2 -1zm-81 3l-5 0 0 0 3 -2 0 0 2 -1 1 0 2 0 2 0 3 0 3 0 3 0 3 0 3 0 4 0 4 0 4 0 3 0 4 0 4 0 4 0 4 0 4 0 3 0 4 0 3 0 3 0 3 0 2 0 3 0 2 0 1 0 1 0 1 0 0 0 0 6 0 0 -1 0 -1 0 -2 0 -1 0 -3 0 -2 0 -3 0 -3 0 -3 0 -4 0 -3 0 -4 0 -4 0 -4 0 -4 0 -4 0 -3 0 -4 0 -4 0 -4 0 -3 0 -3 0 -3 0 -3 0 -3 0 -2 0 -2 0 -1 0 -1 0 -1 0 2 -3 0 0z"/>
   </g>
   <g id="_570066536">
    <g>
     <g>
      <path class="fil4" d="M51 70c11,0 21,9 21,21 0,12 -10,21 -21,21 -12,0 -22,-9 -22,-21 0,-12 10,-21 22,-21z"/>
      <path id="1" class="fil5" d="M73 91l-2 0 0 0 0 -1 0 -1 0 -1 0 -1 -1 -1 0 -1 0 -1 0 -1 -1 -1 0 -1 -1 0 0 -1 -1 -1 -1 -1 0 -1 -1 0 -1 -1 0 -1 -1 0 -1 -1 -1 0 -1 -1 0 0 -1 -1 -1 0 -1 0 -1 -1 -1 0 -1 0 -1 0 -1 0 -1 0 0 -2 1 0 1 0 1 0 1 0 1 1 1 0 1 0 1 1 1 0 1 1 1 0 1 1 1 0 1 1 1 1 0 0 1 1 1 1 0 1 1 1 1 1 0 1 1 1 0 1 0 1 1 1 0 1 0 1 1 1 0 1 0 1 0 1 0 0zm-22 22l0 -1 0 0 1 0 1 -1 1 0 1 0 1 0 1 0 1 -1 1 0 1 0 0 -1 1 0 1 -1 1 -1 1 0 0 -1 1 0 1 -1 0 -1 1 -1 1 0 0 -1 1 -1 0 -1 1 -1 0 -1 0 -1 0 -1 1 -1 0 -1 0 -1 0 -1 0 -1 2 0 0 1 0 1 0 1 -1 2 0 1 0 1 -1 1 0 1 0 1 -1 1 0 1 -1 0 -1 1 0 1 -1 1 -1 1 0 0 -1 1 -1 1 -1 0 -1 1 -1 1 -1 0 -1 0 -1 1 -1 0 -1 0 -1 1 -1 0 -1 0 -1 0 -1 0 0 0zm-22 -22l1 0 0 0 0 1 0 1 1 1 0 1 0 1 0 1 1 1 0 1 0 1 1 1 0 1 1 1 0 0 1 1 1 1 0 1 1 0 1 1 0 0 1 1 1 1 1 0 1 1 1 0 1 0 1 1 1 0 1 0 1 0 1 0 1 1 1 0 0 1 -1 0 -2 0 -1 0 -1 0 -1 -1 -1 0 -1 0 -1 -1 -1 0 -1 0 -1 -1 -1 -1 -1 0 0 -1 -1 -1 -1 0 -1 -1 0 -1 -1 -1 -1 -1 0 0 -1 -1 0 -1 -1 -1 0 -1 0 -1 -1 -1 0 -1 0 -2 0 -1 0 -1 0 -1 0 0zm22 -22l0 2 0 0 -1 0 -1 0 -1 0 -1 0 -1 0 -1 1 -1 0 -1 0 -1 1 -1 0 -1 1 -1 0 -1 1 0 0 -1 1 -1 1 0 0 -1 1 -1 1 0 1 -1 1 0 0 -1 1 0 1 0 1 -1 1 0 1 0 1 0 1 -1 1 0 1 0 1 -1 0 0 -1 0 -1 0 -1 0 -1 0 -1 1 -1 0 -1 0 -1 1 -1 0 -1 1 -1 0 -1 1 -1 1 -1 0 -1 1 -1 1 0 1 -1 0 -1 1 0 1 -1 1 0 1 -1 1 0 1 -1 1 0 1 0 1 -1 1 0 1 0 2 0 1 0 0 0z"/>
     </g>
     <path class="fil6" d="M54 97c0,-1 0,-1 0,-2 -1,-1 -2,-1 -3,-2 -2,0 -3,-1 -4,-1 -1,-1 -1,-1 -2,-2 -1,0 -1,-1 -2,-2 0,-1 0,-2 0,-3 0,-2 0,-4 2,-5 1,-1 3,-2 5,-2l0 -2 0 -1 0 0 0 0c0,-1 0,-1 1,-1l1 0c0,0 1,0 1,1l0 0 0 0 0 1 0 2c2,0 4,1 5,2 1,2 2,3 2,5l0 0 0 0c0,1 -1,2 -2,2l-2 0c-1,0 -2,-1 -2,-1l0 0 0 -1 0 0 0 0 0 0c0,-1 0,-2 0,-2 -1,-1 -2,-1 -3,-1 -1,0 -2,0 -2,1 -1,0 -1,1 -1,2 0,1 0,2 1,2 0,1 1,1 3,2 1,0 2,1 3,1 1,1 2,2 3,2 0,1 1,2 1,2 1,1 1,2 1,3 0,2 -1,4 -2,5 -2,2 -3,2 -6,3l0 1c0,0 0,0 0,0l0 1c0,1 0,1 -1,1l-1 0c0,0 0,0 0,-1l0 -1c0,0 0,0 0,0l0 -1c-3,-1 -5,-1 -6,-3 -2,-1 -2,-3 -2,-5l0 0c0,-1 1,-2 1,-2l2 0c1,0 2,1 2,2l0 0 0 0 0 0 0 0 0 0 0 0c0,1 0,2 1,2 1,1 2,2 3,2 1,0 2,-1 2,-1 1,-1 1,-2 1,-3z"/>
    </g>
    <g>
     <path class="fil7" d="M77 15c12,0 21,9 21,21 0,12 -9,21 -21,21 -12,0 -21,-9 -21,-21 0,-12 9,-21 21,-21z"/>
     <path id="1" class="fil5" d="M99 36l-2 0 0 0 0 -1 0 -1 0 -1 0 -1 0 -1 -1 -1 0 -1 0 -1 -1 -1 0 -1 -1 -1 0 0 -1 -1 0 -1 -1 -1 -1 0 0 -1 -1 -1 -1 0 -1 -1 -1 0 0 -1 -1 0 -1 -1 -1 0 -1 -1 -1 0 -1 0 -1 0 -1 0 -1 0 -1 0 0 -2 1 0 1 0 1 0 1 0 1 1 1 0 1 0 1 1 1 0 1 1 1 0 1 1 1 0 1 1 1 1 0 0 1 1 1 1 1 1 0 1 1 1 0 0 1 1 0 1 1 1 0 1 0 1 0 2 1 1 0 1 0 1 0 1 0 0zm-22 22l0 -2 0 0 1 0 1 0 1 0 1 0 1 0 1 0 1 -1 1 0 1 -1 1 0 0 -1 1 0 1 -1 1 0 1 -1 0 -1 1 0 1 -1 0 -1 1 -1 0 0 1 -1 0 -1 1 -1 0 -1 0 -1 1 -1 0 -1 0 -1 0 -1 0 -1 0 -1 2 0 0 1 0 1 0 1 -1 1 0 2 0 1 0 1 -1 1 0 1 -1 1 0 0 -1 1 0 1 -1 1 -1 1 -1 1 0 0 -1 1 -1 1 -1 0 -1 1 -1 0 -1 1 -1 0 -1 1 -1 0 -1 0 -1 1 -1 0 -1 0 -1 0 -1 0 0 0zm-22 -22l1 0 0 0 0 1 0 1 1 1 0 1 0 1 0 1 1 1 0 1 0 1 1 1 0 1 1 0 0 1 1 1 1 1 0 0 1 1 1 1 1 0 0 1 1 0 1 1 1 0 1 1 1 0 1 1 1 0 1 0 1 0 1 0 1 0 1 0 0 2 -1 0 -1 0 -2 0 -1 0 -1 -1 -1 0 -1 0 -1 -1 -1 0 -1 -1 -1 0 -1 -1 0 0 -1 -1 -1 -1 -1 0 -1 -1 0 -1 -1 -1 0 -1 -1 -1 -1 0 0 -1 -1 -1 0 -1 0 -1 -1 -1 0 -2 0 -1 0 -1 0 -1 0 -1 0 0zm22 -22l0 2 0 0 -1 0 -1 0 -1 0 -1 0 -1 0 -1 0 -1 1 -1 0 -1 1 -1 0 -1 1 -1 0 0 1 -1 0 -1 1 -1 1 0 0 -1 1 -1 1 0 1 -1 0 0 1 -1 1 0 1 0 1 -1 1 0 1 0 1 0 1 -1 1 0 1 0 1 -1 0 0 -1 0 -1 0 -1 0 -1 0 -2 1 -1 0 -1 0 -1 1 -1 0 -1 1 0 1 -1 0 -1 1 -1 0 -1 1 -1 1 0 1 -1 1 -1 0 0 1 -1 1 0 1 -1 1 0 1 -1 1 0 1 0 1 -1 1 0 2 0 1 0 1 0 0 0z"/>
    </g>
    <path class="fil8" d="M70 36l-2 0 0 6 -3 0 0 -16 5 0c2,0 4,0 5,1 1,1 1,2 1,4 0,1 0,2 0,2 -1,1 -2,2 -3,2l4 6 0 1 -4 0 -3 -6zm-2 -3l2 0c1,0 2,0 2,0 1,-1 1,-1 1,-2 0,-1 0,-1 -1,-2 0,0 -1,0 -2,0l-2 0 0 4z"/>
    <path id="1" class="fil8" d="M89 36c0,2 0,3 -1,4 -1,1 -2,2 -3,2 -2,0 -3,-1 -3,-1l0 5 -3 0 0 -16 2 0 1 1c0,-1 1,-1 2,-1 2,0 3,0 4,1 1,1 1,3 1,5l0 0zm-3 0c0,-1 0,-2 -1,-3 0,0 -1,-1 -1,-1 -1,0 -2,1 -2,1l0 5c0,1 1,1 2,1 1,0 2,-1 2,-3z"/>
    <path class="fil9" d="M45 38c0,0 0,0 0,0 -1,1 -2,1 -2,2 0,0 -1,0 -1,0 0,0 0,1 0,1 0,0 -1,0 -1,0 0,1 -1,1 -1,2 -1,0 0,0 -1,1 0,0 0,0 0,0l0 0c0,0 0,0 0,0 0,1 0,1 -1,1 0,0 0,0 0,1l0 0c0,0 -1,0 -1,1l0 0c0,0 0,0 0,0l0 0c0,0 0,1 0,1l-1 0 0 2c0,0 -1,0 -1,0l0 1c0,0 0,0 0,0 0,0 0,0 0,0l-2 0c0,0 0,0 0,0l-1 -1c-1,0 -1,1 -1,0 -1,0 -1,0 -1,0l0 0c0,0 0,0 -1,0 0,0 -2,-1 -2,1 0,1 0,2 0,3 0,0 1,0 1,1 0,0 0,0 0,0 0,0 0,0 0,0l0 0c0,1 0,2 0,2l1 2c0,0 0,0 0,0 0,0 0,1 0,1 0,0 1,2 1,2 0,1 0,1 0,1 0,1 0,1 0,1 0,0 0,0 0,0l1 4c0,0 0,0 0,0 0,0 0,0 0,1 0,0 0,0 0,0 1,1 1,0 1,1 0,0 0,0 0,0 0,1 0,1 0,1 0,0 0,0 0,1 0,0 0,0 0,0 0,1 0,1 0,1 0,0 1,1 1,2 0,0 0,0 0,0 0,0 0,0 0,0 0,0 1,1 2,0 0,0 0,0 0,0 0,0 0,0 0,0 0,0 1,-1 1,-1 0,0 0,-1 1,-1l0 0c0,-1 1,-1 1,-1 0,-1 1,-1 1,-1 0,-1 0,0 0,-1 0,0 1,0 1,0 0,0 0,0 0,0 0,-1 0,0 0,0 0,-1 0,-1 0,-1l2 -1c0,-1 0,-1 1,-1 0,0 0,0 0,0 0,0 0,0 0,-1 0,0 0,0 1,0 0,0 0,0 0,0l1 -2c0,0 0,0 1,0 0,0 0,0 0,-1 0,0 0,0 0,0l1 0c0,-1 1,-2 2,-2 0,0 0,0 0,0 0,0 0,-1 0,-1 0,0 0,0 0,0 1,0 0,0 1,0 0,0 1,-1 1,-1 0,0 0,0 0,-1 0,0 1,0 1,-1 0,-1 -1,-1 -2,-2 0,0 0,0 -1,0 0,0 0,0 0,0 -1,0 -1,0 -1,0l-1 0c0,0 0,0 0,-1 -1,0 -1,0 -1,0 -1,0 -1,0 -1,0 0,-1 0,0 0,-1l0 0c1,-1 0,-1 1,-1 0,0 0,0 0,0l0 -1c0,-1 1,0 1,-1 0,0 0,0 0,-1 0,0 0,0 1,0l1 -1c0,-1 0,-1 0,-1 0,0 1,0 1,0l2 -2c0,0 0,0 0,0 0,0 1,0 1,0 0,-1 0,-1 1,-1 0,0 0,0 0,-1 0,0 0,-1 0,-1 0,-1 0,-1 0,-2 0,-1 0,-1 0,-3 0,0 0,0 0,-1 0,-1 0,0 0,-1 0,0 0,-1 1,-1 0,-1 -1,-1 -1,-1 -2,1 -4,2 -7,3 0,0 0,0 0,1 -1,0 -1,0 -1,0 0,0 0,0 0,0 -1,1 0,1 -1,1z"/>
    <path class="fil9" d="M92 54c0,0 0,0 0,0 0,0 0,0 0,0 -1,1 -1,1 -1,1 0,0 0,0 -1,0 0,1 0,1 0,1 0,0 0,0 -1,0 0,1 0,1 0,1l-1 1 0 0c0,0 0,0 0,0 0,0 0,0 0,0l-2 2c0,0 0,0 0,0 0,0 0,0 -1,0 0,0 0,0 0,0 0,1 0,1 0,1 0,0 -1,1 -2,1 0,0 0,0 0,1 0,0 0,0 -1,0 0,0 0,0 0,0 0,1 0,1 0,1l0 0c-1,0 -1,0 -1,1l0 0c0,0 0,0 0,0l-1 0c0,0 0,1 0,1l-1 0c0,0 0,0 0,0 0,1 0,1 0,1 0,0 0,0 0,0 0,0 -1,1 -1,1l0 0c0,0 0,0 0,0l-2 1c0,1 0,2 0,2 0,0 1,0 1,1 0,0 0,-1 1,0 0,0 0,0 0,0 1,0 3,1 3,1 1,0 2,0 2,0 0,1 0,1 0,1 0,0 0,0 0,1 -1,0 -1,0 -1,0 0,1 0,1 0,1 -1,0 -1,1 -1,1 0,0 -2,2 -2,2 0,0 0,1 0,1 0,0 -1,0 -1,0 0,0 0,0 0,0 0,0 -2,2 -2,2 0,0 0,0 0,0 0,0 -1,0 -1,0l0 1c0,0 0,0 -1,0 0,0 0,0 0,0 0,0 0,0 0,0 0,0 0,0 -1,0 0,1 1,1 1,2 0,4 0,5 -2,9 6,0 19,-12 21,-17 0,0 0,0 0,-1 1,0 2,1 2,1 1,0 1,0 1,0 0,0 1,0 1,0l0 0c1,0 3,2 4,1 0,-1 0,-1 0,-2l-1 -2c0,0 0,0 0,-1 0,0 0,1 0,0 0,0 0,-1 0,-1 0,-1 0,-1 0,-1 0,-1 0,-1 0,-1 -1,0 -1,-1 -1,-2 0,0 0,0 0,0l0 -1c0,-1 0,0 0,-1l-1 -1c0,-1 0,-1 0,-1 0,0 0,-1 0,-1l-1 -2c0,0 0,0 0,-1 0,0 0,0 0,0 0,0 0,0 0,-1 0,0 0,0 0,0 0,-1 0,-1 0,-1 0,0 0,0 0,-1 -1,0 -1,-1 -1,-1 0,-1 0,-2 0,-2l0 -1c-1,0 0,0 -1,0 0,0 0,-1 0,-1 0,0 -1,0 -1,0 -1,1 -1,2 -2,2z"/>
   </g>
  </g>
 </g>
</svg>
