<?xml version="1.0" encoding="UTF-8"?>
<!DOCTYPE svg PUBLIC "-//W3C//DTD SVG 1.1//EN" "http://www.w3.org/Graphics/SVG/1.1/DTD/svg11.dtd">
<!-- Creator: CorelDRAW X7 -->
<svg xmlns="http://www.w3.org/2000/svg" xml:space="preserve" width="120px" height="120px" version="1.1" style="shape-rendering:geometricPrecision; text-rendering:geometricPrecision; image-rendering:optimizeQuality; fill-rule:evenodd; clip-rule:evenodd"
viewBox="0 0 120 120"
 xmlns:xlink="http://www.w3.org/1999/xlink">
 <defs>
  <style type="text/css">
   <![CDATA[
    .fil0 {fill:none}
    .fil5 {fill:#FEFEFE}
    .fil4 {fill:#FEFEFE}
    .fil8 {fill:#00AFEF}
    .fil3 {fill:#2887D2}
    .fil2 {fill:#FEFEFE;fill-rule:nonzero}
    .fil10 {fill:#FFF212;fill-rule:nonzero}
    .fil6 {fill:#0098DA;fill-rule:nonzero}
    .fil1 {fill:#2887D2;fill-rule:nonzero}
    .fil11 {fill:url(#id0)}
    .fil9 {fill:url(#id1)}
    .fil7 {fill:url(#id2);fill-rule:nonzero}
   ]]>
  </style>
  <linearGradient id="id0" gradientUnits="userSpaceOnUse" x1="59.7779" y1="68.4533" x2="20.6898" y2="62.6186">
   <stop offset="0" style="stop-opacity:1; stop-color:#FC4D44"/>
   <stop offset="1" style="stop-opacity:1; stop-color:#C73538"/>
  </linearGradient>
  <linearGradient id="id1" gradientUnits="userSpaceOnUse" x1="85.0103" y1="95.0842" x2="117.428" y2="86.8659">
   <stop offset="0" style="stop-opacity:1; stop-color:#04870F"/>
   <stop offset="1" style="stop-opacity:1; stop-color:#03690C"/>
  </linearGradient>
  <linearGradient id="id2" gradientUnits="userSpaceOnUse" x1="48.1876" y1="62.478" x2="69.0581" y2="34.4003">
   <stop offset="0" style="stop-opacity:1; stop-color:#1CC8EB"/>
   <stop offset="0.631373" style="stop-opacity:1; stop-color:#0E96E0"/>
   <stop offset="1" style="stop-opacity:1; stop-color:#0063D4"/>
  </linearGradient>
 </defs>
 <g id="Layer_x0020_1">
  <metadata id="CorelCorpID_0Corel-Layer"/>
  <rect class="fil0" width="120" height="120"/>
  <g id="_686841440">
   <g>
    <g>
     <polygon class="fil1" points="64,14 64,23 64,92 5,92 5,14 "/>
     <g>
      <polygon class="fil2" points="61,12 61,23 61,89 2,89 2,12 "/>
      <path id="1" class="fil1" d="M60 23l0 -11 2 0 0 11 -2 0 0 0zm0 66l0 -66 2 0 0 66 -1 1 -1 -1zm2 0l0 1 -1 0 1 -1zm-60 -1l59 0 0 2 -59 0 -1 -1 1 -1zm0 2l-1 0 0 -1 1 1zm1 -78l0 77 -2 0 0 -77 1 -1 1 1zm-2 0l0 -1 1 0 -1 1zm60 2l-59 0 0 -3 59 0 1 1 -1 2zm0 -3l1 0 0 1 -1 -1z"/>
     </g>
    </g>
    <g>
     <polygon class="fil1" points="16,25 15,25 15,19 13,19 13,18 16,17 16,17 "/>
     <path id="1" class="fil1" d="M18 37l-6 0 0 -2 3 -2c0,-1 1,-1 1,-1 0,-1 0,-1 0,-1 0,0 0,-1 0,-1 0,0 -1,0 -1,0 0,0 -1,0 -1,0 0,0 0,1 0,1l-2 0c0,0 0,-1 1,-1 0,-1 0,-1 1,-1 0,0 0,0 1,0 1,0 1,0 2,0 0,1 1,1 1,2 0,0 -1,1 -1,1 0,0 0,1 -1,1l-2 2 4 0 0 2z"/>
     <path id="2" class="fil1" d="M13 48c0,-1 0,-1 0,-1 0,0 0,0 0,0 1,0 1,0 1,0 0,0 0,0 0,1 0,0 0,0 0,0 0,0 0,0 -1,0 0,0 0,0 0,0 0,0 0,0 0,0z"/>
     <path id="3" class="fil1" d="M13 59c0,0 0,0 0,0 0,0 0,0 0,0 1,0 1,0 1,0 0,0 0,0 0,0 0,1 0,1 0,1 0,0 0,0 -1,0 0,0 0,0 0,0 0,0 0,0 0,-1z"/>
     <path id="4" class="fil1" d="M13 71c0,0 0,0 0,0 0,0 0,-1 0,-1 1,0 1,1 1,1 0,0 0,0 0,0 0,1 0,1 0,1 0,0 0,0 -1,0 0,0 0,0 0,0 0,0 0,0 0,-1z"/>
     <path id="5" class="fil1" d="M14 79l1 0c0,0 1,0 1,0 0,0 0,-1 0,-1 0,0 0,0 0,-1 0,0 -1,0 -1,0 0,0 -1,0 -1,0 0,1 0,1 0,1l-2 0c0,0 0,-1 1,-1 0,0 0,-1 1,-1 0,0 0,0 1,0 1,0 1,0 2,0 0,1 1,1 1,2 0,1 -1,1 -1,1 0,0 0,1 -1,1 1,0 1,0 1,1 1,0 1,0 1,1 0,0 -1,1 -1,1 -1,1 -1,1 -2,1 -1,0 -2,0 -2,-1 -1,0 -1,-1 -1,-1l2 0c0,0 0,0 0,0 0,1 1,1 1,1 0,0 1,0 1,-1 0,0 0,0 0,0 0,-1 0,-2 -1,-2l-1 0 0 -1z"/>
     <path id="6" class="fil1" d="M24 81c0,1 0,2 -1,2 0,1 -1,1 -2,1 0,0 -1,0 -2,-1 0,0 0,-1 0,-2l0 -2c0,-1 0,-2 0,-2 1,-1 2,-1 2,-1 1,0 2,0 2,1 1,0 1,1 1,2l0 2zm-1 -2c0,-1 -1,-1 -1,-1 0,-1 0,-1 -1,-1 0,0 0,0 0,1 -1,0 -1,0 -1,1l0 2c0,0 0,1 1,1 0,1 0,1 0,1 1,0 1,0 1,-1 0,0 1,0 1,-1l0 -2z"/>
     <rect class="fil3" x="23" y="19" width="23.2625" height="3.53417"/>
     <rect class="fil3" x="23" y="31" width="31.0657" height="3.53417"/>
     <rect class="fil3" x="28" y="77" width="25.7239" height="3.53417"/>
    </g>
   </g>
   <g id="_686841776">
    <path class="fil4" d="M35 21l0 75c0,0 67,-1 67,1 0,1 0,-62 0,-62l-8 -13 -1 -1c0,0 -58,0 -58,0z"/>
    <g>
     <path class="fil5" d="M38 25l0 75c0,0 68,-2 68,0 0,1 0,-61 0,-61l-7 -14 -1 0c0,0 -60,0 -60,0z"/>
     <path id="1" class="fil6" d="M37 100l0 -75 3 0 0 75 -2 1 -1 -1zm1 1l-1 0 0 -1 1 1zm69 -1l-3 0 0 0 1 1 0 0 -1 0 -1 0 -2 0 -2 0 -2 0 -2 0 -2 0 -3 0 -3 0 -3 0 -3 0 -3 0 -3 0 -3 0 -3 0 -3 0 -3 0 -3 0 -3 0 -3 0 -3 0 -2 0 -2 0 -2 0 -2 0 -2 0 -1 0 -1 0 0 0 -1 0 0 -3 1 0 0 0 1 0 1 0 2 0 2 0 2 0 2 0 2 0 3 0 3 0 3 0 3 0 3 0 3 0 3 0 3 0 3 0 3 0 3 0 3 0 3 0 3 0 2 0 2 0 2 0 2 0 2 0 1 0 1 0 1 0 1 2 0 0zm-3 -60l3 -1 0 0 0 0 0 1 0 1 0 1 0 1 0 2 0 2 0 2 0 2 0 3 0 2 0 3 0 3 0 2 0 3 0 3 0 3 0 3 0 3 0 2 0 3 0 2 0 3 0 2 0 2 0 2 0 1 0 2 0 1 0 0 0 1 -3 0 3 0 -3 0 0 -1 0 0 0 -1 0 -2 0 -1 0 -2 0 -2 0 -2 0 -3 0 -2 0 -3 0 -2 0 -3 0 -3 0 -3 0 -3 0 -3 0 -2 0 -3 0 -3 0 -2 0 -3 0 -2 0 -2 0 -2 0 -2 0 -1 0 -1 0 -1 0 -1 0 0 0 1zm-4 -15l7 14 -3 1 -6 -14 2 -2 0 1zm0 -1l0 1 0 0 0 -1zm-1 0l1 0 -2 3 -1 -1 1 -3 1 1zm-1 -1l1 0 0 1 -1 -1zm-58 2l-3 0 0 0 1 -2 1 0 1 0 1 0 1 0 2 0 2 0 2 0 2 0 2 0 3 0 2 0 3 0 3 0 2 0 3 0 3 0 3 0 3 0 2 0 3 0 2 0 3 0 2 0 2 0 2 0 1 0 2 0 1 0 1 0 0 0 0 0 0 3 0 0 0 0 -1 0 -1 0 -2 0 -1 0 -2 0 -2 0 -2 0 -3 0 -2 0 -3 0 -2 0 -3 0 -3 0 -3 0 -3 0 -2 0 -3 0 -3 0 -2 0 -3 0 -2 0 -2 0 -2 0 -2 0 -2 0 -1 0 -1 0 -1 0 0 0 1 -1 0 0z"/>
    </g>
    <path class="fil7" d="M44 62l0 0 0 6 29 0 0 -6 0 0c-1,-3 -5,-4 -8,-5 -1,-1 -1,-1 -1,-2l0 -2c0,-1 0,-1 0,-1 1,-1 2,-3 2,-4 2,-1 2,-2 2,-3l0 -3c0,0 0,-1 -1,-2l0 -3c1,-1 1,-3 -1,-5 -2,-2 -4,-3 -7,-3 -4,0 -5,0 -8,3 -1,2 -1,4 -1,5l0 3c0,1 -1,2 -1,2l0 3c0,1 1,2 1,2 1,3 2,5 3,6l0 2c0,1 0,1 -1,1l-6 4c-1,0 -2,1 -2,2z"/>
    <rect class="fil8" x="44" y="87" width="42.6133" height="4.00786"/>
    <g id="_686842352">
     <g>
      <path class="fil9" d="M101 74c9,0 17,8 17,17 0,9 -8,17 -17,17 -9,0 -17,-8 -17,-17 0,-9 8,-17 17,-17z"/>
      <path id="1" class="fil2" d="M119 91l-2 0 0 0 0 -1 0 -1 0 0 0 -1 0 -1 0 -1 -1 -1 0 0 0 -1 -1 -1 0 0 0 -1 -1 -1 0 0 -1 -1 0 0 -1 -1 -1 0 0 -1 -1 0 0 -1 -1 0 -1 -1 0 0 -1 0 -1 0 -1 -1 -1 0 0 0 -1 0 -1 0 -1 0 0 -1 1 0 1 0 1 0 1 0 1 0 0 0 1 1 1 0 1 0 1 1 0 0 1 1 1 0 0 1 1 0 1 1 0 0 1 1 0 1 1 0 0 1 1 1 0 0 0 1 1 1 0 1 0 1 0 0 0 1 1 1 0 1 0 1 0 0zm-18 17l0 -1 0 0 1 0 1 0 1 0 0 0 1 0 1 -1 1 0 1 0 0 0 1 -1 1 0 0 -1 1 0 0 -1 1 0 1 -1 0 0 1 -1 0 0 1 -1 0 -1 0 0 1 -1 0 -1 0 0 1 -1 0 -1 0 -1 0 -1 0 0 0 -1 0 -1 2 0 0 1 0 1 -1 1 0 0 0 1 0 1 0 1 -1 1 0 1 0 0 -1 1 0 1 -1 0 0 1 -1 1 0 0 -1 1 -1 0 0 1 -1 0 -1 1 0 0 -1 1 -1 0 -1 0 -1 1 0 0 -1 0 -1 0 -1 0 -1 0 -1 0 0 0zm-17 -17l1 0 0 0 0 1 0 1 0 0 0 1 1 1 0 1 0 1 0 0 1 1 0 1 0 0 1 1 0 1 1 0 0 1 1 0 0 1 1 0 1 1 0 0 1 1 1 0 0 1 1 0 1 0 0 0 1 1 1 0 1 0 1 0 0 0 1 0 0 1 -1 0 -1 0 0 0 -1 0 -1 0 -1 0 -1 -1 -1 0 0 0 -1 -1 -1 0 -1 -1 0 0 -1 -1 0 0 -1 -1 -1 0 0 -1 -1 -1 0 0 -1 -1 0 -1 0 0 -1 -1 0 -1 0 -1 -1 -1 0 -1 0 0 0 -1 0 -1 0 -1 0 0zm17 -17l0 1 0 0 -1 0 0 0 -1 0 -1 0 -1 0 -1 1 0 0 -1 0 -1 0 0 1 -1 0 -1 1 0 0 -1 1 -1 0 0 1 -1 0 0 1 -1 0 0 1 -1 1 0 0 0 1 -1 1 0 0 0 1 0 1 -1 1 0 1 0 0 0 1 0 1 -1 0 0 -1 0 -1 0 -1 0 -1 0 0 1 -1 0 -1 0 -1 1 -1 0 0 0 -1 1 -1 0 0 1 -1 0 -1 1 0 1 -1 0 0 1 -1 0 0 1 -1 1 0 1 -1 0 0 1 0 1 -1 1 0 1 0 1 0 0 0 1 0 1 0 0 0z"/>
     </g>
     <path class="fil10" d="M104 96c0,-1 0,-1 -1,-2 0,0 -1,-1 -2,-1 -1,-1 -2,-1 -2,-1 -1,-1 -2,-1 -2,-2 -1,0 -1,-1 -2,-2 0,0 0,-1 0,-2 0,-2 0,-3 1,-4 1,-1 3,-2 5,-2l0 -1 0 -1 0 0 0 0c0,-1 0,-1 0,-1l1 0c1,0 1,0 1,1l0 0 0 0 0 1 0 1c2,1 3,1 4,2 1,2 1,3 1,4l0 0 0 0c0,1 0,2 -1,2l-1 0c-1,0 -2,-1 -2,-1l0 0 0 -1 0 0 0 0 0 0c0,-1 0,-1 -1,-2 0,0 -1,0 -1,0 -1,0 -2,0 -2,0 -1,1 -1,1 -1,2 0,1 0,1 1,2 0,0 1,1 2,1 1,1 2,1 3,1 1,1 1,1 2,2 0,0 1,1 1,2 0,0 0,1 0,2 0,2 0,3 -1,4 -1,1 -3,2 -4,2l0 1c0,0 0,0 0,0l0 1c0,0 -1,1 -1,1l-1 0c0,0 -1,-1 -1,-1l0 -1c0,0 0,0 0,0l0 -1c-2,-1 -3,-1 -4,-2 -1,-2 -2,-3 -2,-5l0 0c0,0 1,-1 2,-1l1 0c1,0 1,1 1,1l0 0 0 0 0 1 0 0 0 0 0 0c0,1 1,1 1,1 1,1 1,1 2,1 1,0 2,0 2,0 1,-1 1,-1 1,-2z"/>
    </g>
    <rect class="fil8" x="76" y="36" width="22.8035" height="4.00786"/>
    <rect class="fil8" x="76" y="48" width="22.8035" height="4.00786"/>
    <rect class="fil8" x="76" y="59" width="22.8035" height="4.00786"/>
    <rect class="fil8" x="44" y="74" width="42.6133" height="4.00786"/>
   </g>
   <g>
    <path class="fil2" d="M41 64l-1 -1 2 -3 1 0 -1 4 -1 0zm1 0l0 0 -1 0 1 0zm0 0l0 0 0 -4 0 0 1 0 -1 4zm0 -4l1 0 0 0 -1 0zm9 6l3 2 0 0 -1 1 -1 0 0 0 -1 0 0 0 0 0 -1 -1 0 0 -1 0 0 0 0 0 -1 0 0 -1 -1 0 0 0 0 0 -1 0 0 -1 -1 0 0 0 0 0 -1 -1 0 0 -1 0 0 0 0 0 -1 -1 0 0 0 0 0 0 -1 0 0 0 2 -4 0 1 0 0 1 0 0 0 0 0 1 0 0 1 0 0 1 0 0 0 0 0 1 1 0 0 1 0 0 0 0 1 1 0 0 0 1 0 0 0 0 1 1 0 0 0 0 0 0 0 1 0 0 0 0 0 0 0 0 0 -1 0 0 1 0 0zm6 -3l-3 5 -3 -2 3 -5 3 1 0 1zm-3 -2l2 -2 1 3 -3 -1zm5 18l-5 -16 3 -1 5 16 -1 3 -2 -2zm3 -1l1 2 -2 1 1 -3zm-20 0l19 -1 0 4 -19 1 -1 -3 1 -1zm0 4l-4 0 3 -3 1 3zm5 -5l-4 4 -2 -2 3 -5 3 0 0 3zm0 -3l1 1 -1 2 0 -3zm-11 -5l3 -3 0 0 0 1 0 0 1 0 0 1 0 0 1 0 0 0 0 1 0 0 1 0 0 0 0 0 0 1 0 0 1 0 0 0 0 1 0 0 1 0 0 0 0 0 0 1 0 0 1 0 0 0 0 1 0 0 1 0 0 0 0 0 1 1 0 0 -2 3 -1 -1 0 0 0 0 -1 0 0 -1 0 0 0 0 -1 0 0 -1 0 0 0 0 -1 0 0 0 0 -1 0 0 -1 0 0 0 0 0 0 -1 0 0 -1 0 0 0 0 -1 0 0 -1 0 0 0 0 -1 0 0 -1 0 0 0 0 -1 -1 0 0 0zm3 -3l0 0 0 0 0 0zm-20 -13l2 -3 1 0 0 0 0 1 0 0 1 0 0 1 0 0 1 1 0 0 1 1 1 0 0 1 1 1 1 0 0 1 1 1 1 0 1 1 0 1 1 0 1 1 0 0 1 1 1 1 0 0 1 1 0 0 1 1 0 0 1 1 0 0 1 0 0 0 -3 3 0 0 0 0 -1 -1 0 0 0 -1 -1 0 -1 -1 0 0 -1 -1 0 0 -1 -1 -1 -1 -1 0 0 -1 -1 0 -1 -1 0 -1 -1 -1 -1 0 -1 -1 0 0 -1 -1 0 -1 -1 0 -1 -1 0 0 -1 -1 0 0 0 0 -1 -1 0 0 0 0 0 0zm2 -3l1 0 0 0 -1 0zm19 11l3 2 -3 0 0 0 0 0 -1 0 0 -1 -1 0 -1 0 -1 -1 0 0 -1 -1 -1 0 -1 -1 -1 0 -1 -1 -1 0 -2 -1 -1 -1 -1 0 -1 -1 -1 0 0 -1 -1 0 -1 0 -1 -1 0 0 -1 0 0 0 0 0 0 0 1 -1 0 -2 0 0 0 0 -2 3 0 0 -1 -1 0 -2 2 -1 1 0 0 0 1 1 0 0 1 0 1 0 0 1 1 0 1 1 1 0 1 1 1 0 1 1 1 0 1 1 1 0 1 1 1 0 1 1 1 1 1 0 1 0 1 1 0 0 1 0 0 1 1 0 0 0 -2 1zm3 2l-1 1 -2 -1 3 0zm0 0l0 0 -3 -2 0 0 2 -1 1 3zm-3 -2l1 -2 1 1 -2 1z"/>
    <path id="1" class="fil11" d="M41 62l1 0 0 0c2,1 9,6 10,5l4 -5 5 17 -19 1 4 -5c-4,-3 -5,-4 -8,-7 -3,-2 -16,-15 -18,-16 -4,-4 19,9 21,10l0 0z"/>
   </g>
  </g>
 </g>
</svg>
