<?xml version="1.0" encoding="UTF-8"?>
<!DOCTYPE svg PUBLIC "-//W3C//DTD SVG 1.1//EN" "http://www.w3.org/Graphics/SVG/1.1/DTD/svg11.dtd">
<!-- Creator: CorelDRAW X7 -->
<svg xmlns="http://www.w3.org/2000/svg" xml:space="preserve" width="120px" height="120px" version="1.1" style="shape-rendering:geometricPrecision; text-rendering:geometricPrecision; image-rendering:optimizeQuality; fill-rule:evenodd; clip-rule:evenodd"
viewBox="0 0 120 120"
 xmlns:xlink="http://www.w3.org/1999/xlink">
 <defs>
  <style type="text/css">
   <![CDATA[
    .fil0 {fill:none}
    .fil1 {fill:#2887D2}
    .fil2 {fill:#FC4D44}
   ]]>
  </style>
 </defs>
 <g id="Layer_x0020_1">
  <metadata id="CorelCorpID_0Corel-Layer"/>
  <rect class="fil0" width="120" height="120"/>
  <g id="_869758424">
   <g>
    <path class="fil1" d="M34 26c-1,1 -4,5 -5,7l-7 10c0,0 -1,1 -2,2 -1,0 -11,1 -13,1 -2,0 -4,0 -5,2 0,2 1,5 3,5 1,1 15,1 17,1 3,0 4,-1 6,-3 0,-1 1,-2 2,-3l2 -3c0,1 1,13 1,14 -2,12 -5,15 -7,26l-5 22c0,5 6,7 8,4 1,-1 2,-5 2,-6 0,-2 0,-2 1,-3l5 -18c1,-2 4,-11 5,-12 4,-3 11,-7 11,-10 1,-2 0,-4 0,-5l0 -16c1,1 2,2 3,3 4,3 4,3 6,9 0,3 1,5 2,8 1,2 1,5 3,6 -2,1 -1,3 0,4 1,3 6,14 7,16 -1,1 -3,2 -4,3 -3,3 7,19 8,22 1,2 2,3 5,2 0,1 1,2 2,2 1,0 1,0 2,0 1,0 2,-1 2,-3 0,0 0,0 0,-1l4 -1c0,0 0,0 1,-1 3,-1 3,-1 4,-2 1,0 1,0 2,-1 0,0 0,-1 1,-1 0,-1 0,-2 -1,-3l-4 -12c-1,-2 -4,-10 -8,-9 -1,0 -2,1 -3,0 0,0 0,0 0,0 -1,-2 -8,-18 -10,-18 0,0 -2,1 -3,1 0,-1 -1,-5 -3,-14 -1,-2 -2,-8 -3,-9l-16 -15c-2,-2 -4,-3 -7,-3l0 -1c-2,1 -7,2 -8,3 -1,0 -1,0 -1,0zm43 69l0 0c1,0 2,0 2,1l5 7c0,1 0,2 -1,2l0 0c-1,0 -2,0 -2,-1l-5 -7c0,-1 0,-2 1,-2zm6 -2l0 0c-1,0 -1,1 -1,2l3 7c1,1 2,1 3,1l0 0c0,0 1,-1 1,-2l-4 -8c0,-1 -1,-1 -2,0zm5 -1l2 8c0,1 1,1 2,1l0 0c1,0 2,-1 1,-2l-2 -8c0,-2 -3,0 -3,1zm-6 -9l-5 3 -9 -17c0,0 1,-1 1,-1 1,0 4,-2 5,-2 1,0 8,16 8,17z"/>
    <path class="fil1" d="M41 70c0,2 8,18 9,19l14 21c1,3 2,4 5,4 1,0 2,-1 2,-1 3,-3 1,-6 -1,-8 -3,-5 -7,-12 -9,-17 -3,-5 -2,-3 -3,-9l-5 -18c-1,1 -3,2 -4,3l-8 6z"/>
    <circle class="fil1" cx="37" cy="13" r="10"/>
   </g>
   <path class="fil2" d="M84 16c0,-2 -1,-5 -1,-7l-22 18c1,1 10,4 12,5l14 5c0,-2 -2,-6 -1,-8 7,0 16,2 19,11 3,7 0,16 -7,21 -8,6 -12,5 -14,6 16,10 53,-28 22,-46 -6,-3 -11,-4 -16,-4l-6 -1z"/>
  </g>
 </g>
</svg>
