<?xml version="1.0" encoding="UTF-8"?>
<!DOCTYPE svg PUBLIC "-//W3C//DTD SVG 1.1//EN" "http://www.w3.org/Graphics/SVG/1.1/DTD/svg11.dtd">
<!-- Creator: CorelDRAW X7 -->
<svg xmlns="http://www.w3.org/2000/svg" xml:space="preserve" width="120px" height="120px" version="1.1" style="shape-rendering:geometricPrecision; text-rendering:geometricPrecision; image-rendering:optimizeQuality; fill-rule:evenodd; clip-rule:evenodd"
viewBox="0 0 120 120"
 xmlns:xlink="http://www.w3.org/1999/xlink">
 <defs>
  <style type="text/css">
   <![CDATA[
    .fil0 {fill:none}
    .fil16 {fill:#C73538}
    .fil15 {fill:#1CC8EB}
    .fil1 {fill:#2887D2}
    .fil17 {fill:#FEFEFE;fill-rule:nonzero}
    .fil5 {fill:#FFF212;fill-rule:nonzero}
    .fil13 {fill:black;fill-rule:nonzero}
    .fil3 {fill:#4E901E;fill-rule:nonzero}
    .fil12 {fill:#F0A71F;fill-rule:nonzero}
    .fil14 {fill:#F1F2F2;fill-rule:nonzero}
    .fil2 {fill:url(#id0);fill-rule:nonzero}
    .fil6 {fill:url(#id1);fill-rule:nonzero}
    .fil10 {fill:url(#id2);fill-rule:nonzero}
    .fil8 {fill:url(#id3);fill-rule:nonzero}
    .fil4 {fill:url(#id4);fill-rule:nonzero}
    .fil9 {fill:url(#id5);fill-rule:nonzero}
    .fil7 {fill:url(#id6);fill-rule:nonzero}
    .fil11 {fill:url(#id7);fill-rule:nonzero}
   ]]>
  </style>
  <linearGradient id="id0" gradientUnits="userSpaceOnUse" x1="45.8643" y1="109.859" x2="28.2702" y2="91.542">
   <stop offset="0" style="stop-opacity:1; stop-color:#04870F"/>
   <stop offset="1" style="stop-opacity:1; stop-color:#03690C"/>
  </linearGradient>
  <linearGradient id="id1" gradientUnits="userSpaceOnUse" xlink:href="#id0" x1="43.9296" y1="106.95" x2="26.3356" y2="88.6328">
  </linearGradient>
  <linearGradient id="id2" gradientUnits="userSpaceOnUse" xlink:href="#id0" x1="36.5842" y1="101.492" x2="13.2664" y2="77.2173">
  </linearGradient>
  <linearGradient id="id3" gradientUnits="userSpaceOnUse" xlink:href="#id0" x1="39.1484" y1="105.347" x2="15.8306" y2="81.0725">
  </linearGradient>
  <linearGradient id="id4" gradientUnits="userSpaceOnUse" xlink:href="#id0" x1="29.9628" y1="108.034" x2="22.1863" y2="99.9433">
  </linearGradient>
  <linearGradient id="id5" gradientUnits="userSpaceOnUse" xlink:href="#id0" x1="18.0748" y1="102.928" x2="7.77063" y2="92.2058">
  </linearGradient>
  <linearGradient id="id6" gradientUnits="userSpaceOnUse" xlink:href="#id0" x1="28.0281" y1="105.125" x2="20.2516" y2="97.0342">
  </linearGradient>
  <linearGradient id="id7" gradientUnits="userSpaceOnUse" xlink:href="#id0" x1="15.5117" y1="99.074" x2="5.20522" y2="88.3517">
  </linearGradient>
 </defs>
 <g id="Layer_x0020_1">
  <metadata id="CorelCorpID_0Corel-Layer"/>
  <rect class="fil0" width="120" height="120"/>
  <g id="_796917816">
   <path class="fil1" d="M83 60l0 0 -79 0c-2,0 -1,0 -2,0l0 11c13,-1 27,0 40,-1 5,0 35,0 40,1l25 0c0,-1 1,-1 4,-1 2,0 4,0 7,1l0 -10c-1,-1 -4,-1 -5,-1l0 0 -30 0z"/>
   <path class="fil1" d="M38 28c-2,0 -5,0 -7,0l0 0c-2,0 -4,0 -7,0 0,0 0,0 0,0 -5,0 -8,3 -11,7 -1,2 -6,22 -6,23l8 0 4 -14c0,-1 0,-1 1,-2 0,-1 0,-1 0,-1l0 0c1,0 1,0 1,0 0,0 0,0 0,0 0,1 0,2 0,4 0,0 0,0 0,0l-4 13 0 0 0 0 14 0 14 0 0 0 0 0 -3 -13c0,0 0,0 0,0 -1,-2 -1,-3 -1,-4 0,0 0,0 0,0 0,0 1,0 1,0l0 0c0,0 0,0 1,1 0,1 0,1 0,2l4 14 8 0c0,-1 -5,-21 -6,-23 -2,-4 -6,-7 -10,-7 -1,0 -1,0 -1,0z"/>
   <path class="fil1" d="M83 22c1,4 6,7 12,5 4,-1 8,-6 6,-12 -1,-5 -7,-9 -13,-7 -7,3 -7,12 -5,14z"/>
   <circle class="fil1" cx="31" cy="17" r="9"/>
   <g>
    <g>
     <g>
      <polygon class="fil2" points="20,110 54,110 54,92 21,92 "/>
      <path class="fil3" d="M52 97l0 8c-2,0 -3,1 -3,3l-24 0c0,-2 -1,-3 -3,-3l0 -8c2,0 3,-2 3,-3l24 0c0,1 1,3 3,3z"/>
      <path class="fil4" d="M21 98l-1 12 12 0c-3,0 -6,-2 -8,-4 -2,-2 -3,-5 -3,-8z"/>
      <polygon class="fil5" points="44,102 47,102 47,100 44,100 "/>
      <polygon class="fil5" points="27,101 30,101 30,100 27,100 "/>
     </g>
     <path class="fil5" d="M38 103c0,-1 0,-1 0,-1 0,0 -1,0 -1,-1 0,0 -1,0 -1,0 0,0 0,0 -1,-1 0,0 0,0 0,0 0,0 0,-1 0,-1 0,-1 0,-1 0,-2 1,0 1,0 2,0l0 -1 1 0 0 1c0,0 1,0 1,1 1,0 1,1 1,1l-2 0c0,0 0,0 0,-1 0,0 0,0 -1,0 0,0 0,0 0,0 -1,0 -1,1 -1,1 0,0 0,0 1,1 0,0 0,0 0,0 1,0 1,0 1,1 1,0 1,0 1,0 0,0 0,1 1,1 0,0 0,0 0,1 0,0 0,1 -1,1 0,0 -1,1 -1,1l0 1 -1 0 0 -1c-1,0 -2,-1 -2,-1 0,0 -1,-1 -1,-2l2 0c0,1 0,1 0,1 0,0 1,1 1,1 0,0 1,-1 1,-1 0,0 0,0 0,0z"/>
    </g>
    <g>
     <g>
      <polygon class="fil6" points="18,107 52,107 52,89 19,89 "/>
      <path class="fil3" d="M50 94l0 8c-2,0 -3,1 -3,3l-24 0c0,-2 -1,-3 -3,-3l0 -8c2,0 3,-2 3,-3l24 0c0,2 1,3 3,3z"/>
      <path class="fil7" d="M19 95l-1 12 12 0c-3,0 -6,-1 -8,-4 -2,-2 -3,-5 -3,-8z"/>
      <polygon class="fil5" points="42,99 45,99 45,97 42,97 "/>
      <polygon class="fil5" points="25,98 28,98 28,97 25,97 "/>
     </g>
     <path class="fil5" d="M37 101c0,-1 0,-1 -1,-1 0,-1 0,-1 -1,-1 -1,0 -1,-1 -2,-1 0,0 0,0 -1,-1 0,0 0,0 0,-1 -1,0 -1,-1 -1,-1 0,-1 1,-2 1,-3 1,0 2,-1 3,-1l0 -1 1 0 0 1c1,1 2,1 2,2 1,0 1,1 1,2l-2 0c0,0 0,-1 -1,-1 0,0 0,-1 -1,-1 0,0 -1,1 -1,1 0,0 0,0 0,1 0,0 0,1 0,1 0,0 1,0 2,1 0,0 1,0 1,1 1,0 1,0 1,0 1,1 1,1 1,1 0,1 0,1 0,2 0,1 0,2 -1,2 0,1 -1,1 -2,1l0 2 -2 0 0 -2c-1,0 -2,0 -2,-1 -1,-1 -1,-2 -1,-3l2 0c0,1 0,1 1,2 0,0 1,0 1,0 1,0 1,0 1,0 1,0 1,-1 1,-1z"/>
    </g>
   </g>
   <g>
    <g>
     <g>
      <polygon class="fil8" points="5,105 49,105 50,81 6,81 "/>
      <path class="fil3" d="M47 88l0 11c-2,0 -4,1 -4,4l-31 -1c0,-2 -2,-4 -4,-4l0 -10c2,0 4,-2 4,-4l31 0c0,2 2,4 4,4z"/>
      <path class="fil9" d="M6 90l-1 15 15 0c-4,0 -7,-2 -10,-4 -3,-3 -4,-7 -4,-11z"/>
      <polygon class="fil5" points="36,94 40,94 40,92 36,92 "/>
      <polygon class="fil5" points="15,94 19,94 19,92 15,92 "/>
     </g>
     <path class="fil5" d="M29 96c0,-1 0,-1 0,-1 -1,0 -1,-1 -1,-1 -1,0 -1,0 -2,0 0,-1 -1,-1 -1,-1 0,0 0,-1 0,-1 -1,0 -1,-1 -1,-1 0,-1 1,-2 1,-2 1,-1 1,-1 2,-1l0 -2 1 0 0 2c1,0 2,0 2,1 1,1 1,1 1,2l-2 0c0,0 0,-1 0,-1 -1,0 -1,0 -1,0 -1,0 -1,0 -1,0 0,0 -1,0 -1,1 0,0 1,0 1,1 0,0 0,0 1,0 0,1 1,1 1,1 1,0 1,0 1,1 0,0 1,0 1,1 0,0 0,0 0,1 0,1 0,1 -1,2 0,0 -1,0 -2,1l0 1 -1 0 0 -1c-1,-1 -2,-1 -2,-1 -1,-1 -1,-2 -1,-3l2 0c0,1 0,1 0,1 1,1 1,1 2,1 0,0 0,0 1,0 0,-1 0,-1 0,-1z"/>
    </g>
    <g>
     <g>
      <polygon class="fil10" points="3,101 47,102 47,78 3,77 "/>
      <path class="fil3" d="M45 84l0 11c-3,0 -4,2 -5,4l-31 0c0,-3 -2,-5 -4,-5l0 -10c2,0 4,-2 4,-4l32 0c0,2 1,4 4,4z"/>
      <path class="fil11" d="M3 86l0 15 15 0c-4,0 -8,-1 -11,-4 -2,-3 -4,-7 -4,-11z"/>
      <polygon class="fil5" points="34,90 38,90 38,88 34,88 "/>
      <polygon class="fil5" points="12,90 16,90 16,88 12,88 "/>
     </g>
     <path class="fil5" d="M27 93c0,0 0,-1 0,-1 -1,0 -1,-1 -2,-1 -1,0 -2,-1 -2,-1 -1,0 -1,-1 -2,-1 0,-1 -1,-1 -1,-2 0,0 0,-1 0,-2 0,-1 0,-2 1,-3 1,-1 2,-1 3,-1l0 -3 2 0 0 3c2,0 3,1 3,2 1,1 2,2 1,3l-3 0c0,-1 0,-1 0,-2 -1,0 -1,0 -2,0 -1,0 -1,0 -1,0 -1,0 -1,1 -1,2 0,0 0,1 1,1 0,0 1,1 1,1 1,0 2,1 3,1 0,0 1,1 1,1 1,1 1,1 1,2 0,0 0,1 0,1 0,2 0,3 -1,4 -1,0 -2,1 -3,1l0 2 -2 0 0 -2c-2,0 -3,-1 -4,-2 -1,-1 -1,-2 -1,-3l3 0c0,0 1,1 1,2 0,0 1,0 2,0 1,0 1,0 2,0 0,0 0,-1 0,-2z"/>
    </g>
   </g>
   <g>
    <g>
     <path class="fil12" d="M72 90c0,-2 -2,-4 -4,-4l-30 0c-2,0 -3,2 -3,4l0 2 37 0 0 -2z"/>
     <path class="fil12" d="M35 95l0 11c0,2 1,3 3,3l30 0c2,0 4,-1 4,-3l0 -11 -37 0z"/>
     <polygon class="fil13" points="35,95 72,95 72,92 35,92 "/>
     <path class="fil12" d="M35 95l0 11c0,2 1,3 3,3l14 0c-9,0 -17,-6 -17,-14z"/>
     <polygon class="fil14" points="41,98 66,98 66,97 41,97 "/>
    </g>
    <circle class="fil15" cx="62" cy="103" r="3"/>
    <circle class="fil16" cx="65" cy="103" r="3"/>
   </g>
   <g>
    <path class="fil17" d="M80 105l-6 -1 0 0 0 0 0 -1 0 -1 0 -2 0 -1 0 -2 0 -2 1 -2 0 -2 0 -2 0 -3 0 -2 0 -2 0 -3 0 -2 0 -3 1 -2 0 -3 0 -2 0 -3 0 -2 0 -2 0 -2 0 -2 0 -2 0 -1 0 -2 0 -1 0 -1 0 -1 0 0 0 0 6 -2 0 1 0 1 0 1 0 1 0 1 0 2 0 1 0 2 0 2 0 2 0 2 0 3 0 2 -1 2 0 3 0 2 0 3 0 2 0 3 0 2 0 3 0 2 0 2 -1 2 0 2 0 2 0 2 0 2 0 1 0 1 0 1 0 1 0 0zm0 4l-5 3 0 0 0 0 0 0 0 0 0 -1 0 0 -1 0 0 -1 0 0 0 0 0 0 0 -1 0 0 0 0 0 -1 0 0 0 0 0 0 0 -1 0 0 0 0 0 0 0 -1 0 0 0 0 0 0 0 0 0 -1 0 0 0 0 0 0 0 0 0 -1 6 1 0 0 0 0 0 0 0 1 0 0 0 0 0 0 0 0 0 1 0 0 0 0 0 0 0 0 0 0 0 1 0 0 0 0 0 0 0 0 0 0 0 0 0 0 0 0 0 1 0 0 0 0 0 0 0 0 0 0 0 0 0 0 0 0 0 0zm4 -1l6 1 0 0 0 0 0 1 0 1 -1 0 0 1 -1 1 0 0 0 1 -1 0 -1 0 0 1 -1 0 0 0 -1 0 0 0 -1 0 0 0 -1 0 -1 0 0 0 -1 0 0 0 -1 0 0 0 -1 0 0 -1 -1 0 0 0 0 0 -1 -1 0 0 -1 -1 5 -3 0 0 0 0 0 0 0 0 0 0 0 0 1 0 0 0 0 0 0 0 0 0 1 0 0 1 0 0 0 0 1 0 0 -1 0 0 0 0 0 0 0 0 1 0 0 0 0 0 0 0 0 0 0 0 0 0 0 0 0 -1 0 0 0 0 0 0zm1 -7l6 1 0 0 0 0 0 0 0 0 0 0 0 1 0 0 0 0 0 0 0 1 0 0 0 0 0 0 -1 0 0 1 0 0 0 0 0 0 0 1 0 0 0 0 0 0 0 1 0 0 0 0 0 0 0 0 0 1 0 0 0 0 0 0 0 1 0 0 -6 -1 0 0 0 0 0 -1 0 0 0 0 0 0 0 0 0 -1 0 0 0 0 0 0 1 0 0 -1 0 0 0 0 0 0 0 -1 0 0 0 0 0 0 0 0 0 -1 0 0 0 0 0 0 0 0 0 -1 0 0 0 0 0 0 0 0 0 -1 0 0zm1 -14l6 1 0 0 0 0 0 0 0 1 0 0 0 1 0 0 0 1 0 0 -1 1 0 0 0 0 0 1 0 0 0 1 0 0 0 1 0 0 0 1 0 0 0 0 0 1 0 0 0 1 0 0 0 1 0 0 0 1 0 0 0 0 0 1 0 0 0 1 -6 -1 0 0 0 -1 0 0 0 0 0 -1 0 0 0 -1 0 0 0 -1 0 0 0 -1 0 0 0 0 0 -1 0 0 0 -1 0 0 0 -1 0 0 1 -1 0 0 0 0 0 -1 0 0 0 -1 0 0 0 -1 0 0 0 0 0 -1 0 0 0 -1 0 0zm0 -7l6 1 0 0 0 0 0 0 0 0 0 1 0 0 0 0 0 0 0 1 0 0 0 0 0 0 0 0 0 1 0 0 0 0 0 0 0 0 0 1 0 0 0 0 0 0 0 1 0 0 0 0 0 0 0 0 0 1 0 0 0 0 0 0 0 0 0 1 -6 -1 0 0 0 0 0 0 0 -1 0 0 0 0 0 0 0 -1 0 0 0 0 0 0 0 0 0 -1 0 0 0 0 0 0 0 -1 0 0 0 0 0 0 0 0 0 -1 0 0 0 0 0 0 0 0 0 -1 0 0 0 0 0 0 0 0 0 -1 0 0zm7 -7l-1 6 0 0 0 0 0 0 0 0 0 0 0 0 0 0 0 0 0 0 0 -1 0 0 0 0 1 0 0 0 0 0 0 0 0 0 0 0 0 0 0 0 0 0 0 1 -1 0 0 0 0 0 0 0 0 0 0 1 0 0 0 0 0 0 0 1 0 0 -6 -1 1 0 0 0 0 0 0 0 0 -1 0 0 0 0 0 0 0 -1 0 0 0 0 0 -1 0 0 0 0 0 0 0 -1 0 0 0 0 0 -1 1 0 0 -1 0 0 1 0 0 -1 1 0 0 0 1 0 0 0 1 0 0 0 0 0 1 0 0 0zm4 8l-6 1 0 0 0 -1 0 0 0 0 0 0 0 0 0 -1 0 0 0 0 0 0 0 0 0 -1 0 0 0 0 0 0 0 0 0 0 0 -1 0 0 0 0 0 0 0 0 0 0 0 0 0 0 0 0 0 0 0 0 0 1 0 0 0 0 0 0 1 0 1 -6 0 0 1 0 0 1 1 0 0 0 0 0 1 1 0 0 0 0 0 1 0 0 0 0 1 1 0 0 0 0 0 1 0 0 0 0 0 0 0 1 0 0 0 0 0 1 0 0 0 0 0 0 0 0 0 1 0 0 0 0 0 0 0 0 0 0zm-6 1l0 0 0 0 0 0zm2 20l-2 -20 6 -1 2 21 0 0 -6 0zm6 0l0 0 0 0 0 0zm2 7l-1 6 0 0 0 0 -1 0 -1 0 0 0 -1 -1 0 0 -1 0 0 -1 -1 0 0 -1 0 0 -1 0 0 -1 0 0 0 -1 -1 0 0 -1 0 0 0 -1 0 0 0 -1 0 0 0 -1 0 0 0 -1 0 0 0 -1 0 0 0 0 0 -1 0 0 0 -1 6 0 0 0 0 1 0 0 0 1 0 0 0 1 0 0 0 1 0 0 0 0 0 1 0 0 0 0 0 1 0 0 0 0 0 0 0 0 0 1 0 0 0 0 1 0 0 0 0 0 0 0 0 0 0 0 0 0 0 0 0 0 1 0 0 0 0 0zm2 -6l6 0 0 0 0 0 0 1 0 0 0 0 0 1 0 0 0 1 0 0 0 1 0 0 0 1 0 0 0 1 0 0 0 1 0 0 0 1 0 0 -1 1 0 0 0 1 -1 0 0 1 -1 0 -1 1 0 0 -1 0 -1 0 0 0 -1 0 -1 0 -1 0 1 -6 0 1 1 0 0 0 0 -1 1 0 0 0 0 0 0 0 0 0 0 0 0 0 0 0 0 0 0 0 0 0 0 0 0 -1 0 0 1 0 0 0 0 -1 0 0 0 0 0 -1 0 0 0 0 0 -1 0 0 -1 -1 0 0 0 0 0 -1 0 0zm-1 -28l6 0 0 0 0 0 0 1 0 1 0 1 0 1 0 1 0 1 0 1 0 1 0 0 0 1 0 1 1 1 0 1 0 1 0 1 0 1 0 1 0 1 0 0 0 1 0 1 0 1 0 1 0 1 0 1 0 1 0 1 0 0 0 1 0 1 0 1 -6 0 0 -1 0 0 0 -1 0 -1 0 -1 0 -1 0 -1 0 -1 0 -1 0 -1 0 0 0 -1 0 -1 0 -1 0 -1 0 -1 0 -1 0 -1 0 -1 0 0 0 -1 0 -1 0 -1 -1 -1 0 -1 0 -1 0 -1 0 -1 0 -1 0 0 0 -1 0 -1 0 0zm5 -22l1 22 -6 0 -1 -22 0 0 6 0zm-6 0l0 0 0 0 0 0zm0 -4l6 0 0 0 0 0 0 0 0 0 0 1 0 0 0 0 0 0 0 0 0 0 0 0 0 0 0 0 0 1 0 0 0 0 0 0 0 0 0 0 0 0 0 0 0 0 0 1 0 0 0 0 0 0 0 0 0 0 0 0 0 0 0 0 0 1 0 0 -6 0 0 0 0 0 0 0 0 -1 0 0 0 0 0 0 0 0 0 0 0 0 0 0 0 0 0 0 0 -1 0 0 0 0 0 0 0 0 0 0 0 0 0 0 0 0 0 -1 0 0 0 0 0 0 0 0 0 0 0 0 0 0 0 0 0 -1 0 0zm8 -3l-6 2 3 2 0 0 -1 0 0 0 0 0 0 0 0 0 0 0 0 0 0 0 1 0 0 0 0 0 0 0 0 -1 1 0 0 0 0 0 0 0 0 -1 0 0 0 0 0 0 0 0 0 0 0 0 0 0 0 0 0 1 0 0 0 0 0 0 0 0 -6 0 0 0 0 0 0 0 0 0 0 0 0 -1 0 0 0 0 0 0 0 0 0 -1 0 0 0 0 0 -1 1 0 0 0 0 -1 0 0 1 0 0 0 0 0 1 -1 0 0 0 0 0 0 1 0 0 0 0 0 0 0 1 0 0 0 0 0 3 2zm-3 -2l2 0 1 2 -3 -2zm6 26l-6 2 0 0 0 -1 0 0 0 -1 -1 -1 0 0 0 -1 0 -1 0 -1 0 -1 0 -1 0 -1 0 -1 0 0 0 -1 -1 -1 0 -1 0 -1 0 -1 0 -1 0 -1 0 -1 0 -1 0 -1 0 0 0 -1 0 -1 -1 0 0 -1 0 0 0 -1 0 0 0 0 6 -2 0 1 0 0 0 1 0 0 0 1 0 1 0 0 1 1 0 1 0 1 0 1 0 0 0 1 0 1 0 1 0 1 0 1 0 1 0 1 1 1 0 1 0 1 0 1 0 1 0 0 0 1 0 1 0 0 0 1 0 1 1 0 0 0 0 0zm2 1l5 2 0 0 0 0 0 1 -1 0 0 1 0 0 -1 1 0 0 -1 0 0 1 -1 0 0 0 -1 0 0 0 -1 0 0 0 -1 0 0 0 -1 0 0 0 -1 0 0 0 -1 -1 0 0 -1 0 0 -1 -1 0 0 -1 0 0 -1 -1 0 0 0 -1 0 0 6 -2 0 1 0 0 0 0 0 0 0 0 0 0 0 0 0 0 0 0 0 0 0 0 0 0 0 0 0 0 1 0 0 0 0 0 0 0 0 0 0 0 0 0 0 0 0 0 0 0 0 0 1 0 0 0 0 0 0 0 0 0 0 0 0 0 0 0zm-3 -23l6 -1 0 0 0 0 0 1 0 0 1 1 0 1 0 0 0 1 0 1 0 1 0 1 0 1 0 1 0 1 1 1 0 1 0 1 0 1 0 1 0 1 0 1 0 1 0 1 0 1 0 1 1 0 0 1 0 1 0 0 0 1 0 1 -1 0 0 1 -5 -2 0 0 0 0 0 0 0 -1 0 0 0 -1 0 0 0 -1 0 -1 -1 -1 0 -1 0 0 0 -1 0 -1 0 -1 0 -1 0 -1 0 -1 0 -1 -1 -1 0 -1 0 -1 0 -1 0 -1 0 -1 0 -1 0 -1 0 0 0 -1 0 0 0 -1 -1 0 0 0zm-20 -15l0 -6 0 0 1 0 1 0 2 0 1 0 1 1 1 0 1 0 1 0 1 0 2 1 1 0 1 1 1 0 1 1 1 0 1 1 0 0 1 1 1 1 1 0 1 1 0 1 1 1 1 1 0 1 1 1 0 1 0 1 1 1 0 2 0 1 0 1 -6 1 0 -1 0 -1 0 -1 0 -1 0 -1 -1 -1 0 0 -1 -1 0 -1 0 0 -1 -1 0 -1 -1 0 0 -1 -1 0 -1 0 0 -1 -1 0 -1 -1 -1 0 0 0 -1 -1 -1 0 -1 0 -1 0 -1 0 -1 -1 -1 0 -1 0 -1 0 -1 0 -1 0 0 0zm-16 7l-5 -3 0 0 0 -1 1 0 0 -1 1 -1 0 0 1 -1 0 0 1 -1 0 0 1 0 1 -1 0 0 1 0 1 -1 0 0 1 0 1 -1 0 0 1 0 1 0 0 -1 1 0 1 0 1 0 0 0 1 0 1 -1 1 0 1 0 0 0 1 0 1 0 0 6 -1 0 0 0 -1 0 -1 0 0 0 -1 0 -1 1 0 0 -1 0 0 0 -1 0 -1 0 0 0 -1 1 0 0 -1 0 0 0 -1 0 0 1 -1 0 0 0 -1 1 0 0 -1 0 0 0 0 1 -1 0 0 1 0 0 -1 0 0 1 0 0 0 0zm-3 9l-6 -1 0 0 0 0 0 -1 0 0 0 -1 0 0 0 0 0 -1 0 0 1 0 0 -1 0 0 0 -1 0 0 0 0 0 -1 0 0 0 0 0 -1 1 0 0 0 0 -1 0 0 0 0 0 -1 0 0 1 0 0 -1 0 0 0 0 0 -1 1 0 0 0 5 3 -1 0 0 1 0 0 0 0 0 0 0 1 0 0 -1 0 0 0 0 0 0 1 0 0 0 0 0 0 0 1 0 0 0 0 0 0 0 1 -1 0 0 0 0 0 0 1 0 0 0 0 0 1 0 0 0 0 0 1 0 0 0 0 0 1 0 0zm-2 12l-5 -1 0 0 0 0 0 0 0 -1 0 0 0 0 0 -1 0 0 0 -1 0 0 0 0 0 -1 0 0 0 -1 0 0 0 0 0 -1 0 0 0 0 0 -1 0 0 1 -1 0 0 0 0 0 -1 0 0 0 -1 0 0 0 0 0 -1 0 0 0 0 0 -1 6 1 0 0 0 1 0 0 0 0 0 1 0 0 0 1 -1 0 0 0 0 1 0 0 0 0 0 1 0 0 0 1 0 0 0 0 0 1 0 0 0 0 0 1 0 0 0 1 0 0 0 0 0 1 0 0 0 1 0 0 0 0 0 1 -1 0 0 0zm0 10l-6 3 0 0 0 -1 0 0 0 -1 0 0 0 -1 0 0 0 0 0 -1 0 0 0 -1 0 0 0 -1 0 0 0 -1 0 0 0 0 0 -1 0 0 0 -1 0 0 0 -1 0 0 0 -1 0 0 0 0 0 -1 0 0 1 0 0 -1 0 0 0 0 0 -1 5 1 0 0 0 1 0 0 0 0 0 1 0 0 0 0 0 1 0 0 0 1 0 0 0 0 0 1 0 0 0 1 0 0 0 0 0 1 0 0 0 1 0 0 0 0 0 1 0 0 0 0 0 0 0 1 0 0 0 0 0 0 0 0 0 0 0 0zm2 -1l6 0 0 0 0 1 -1 1 0 0 0 1 0 1 -1 0 0 1 0 0 -1 1 0 0 -1 0 0 1 -1 0 0 0 -1 0 -1 0 0 0 -1 0 0 0 -1 0 0 0 -1 0 0 0 -1 0 0 -1 0 0 -1 0 0 -1 -1 0 0 0 0 -1 -1 0 6 -3 0 0 0 0 0 0 0 0 0 0 0 0 0 0 0 0 0 0 0 0 0 0 0 0 1 0 0 0 0 0 0 0 0 0 0 0 0 0 0 0 0 0 0 0 0 0 0 0 0 0 0 0 1 0 0 0 0 0 0 -1 0 0 0 0 0 0zm6 0l0 0 0 0 0 0zm2 -21l-2 21 -6 0 2 -21 6 0 0 0zm0 0l0 0 0 0 0 0zm2 -3l-6 2 3 2 0 0 -1 0 0 0 0 0 0 0 0 0 0 0 0 0 0 0 0 0 1 0 0 0 0 0 0 0 0 -1 1 0 0 0 0 0 0 0 0 0 0 -1 0 0 0 0 0 0 0 0 0 0 0 1 0 0 0 0 0 0 0 0 0 0 -6 0 0 0 0 -1 0 0 0 0 0 0 0 0 0 0 0 -1 0 0 0 0 0 0 1 0 0 -1 0 0 0 0 0 -1 1 0 0 0 0 0 1 -1 0 0 0 0 0 0 1 0 0 0 0 0 0 0 1 0 0 0 0 0 0 0 0 0 3 2zm-3 -2l2 0 1 2 -3 -2z"/>
    <path id="1" class="fil1" d="M79 47c1,2 -2,51 -2,58 0,2 -1,4 1,6 1,2 8,3 9,-3 0,-2 1,-4 1,-6 0,-5 1,-10 1,-15 0,-2 0,-4 0,-6 1,-3 0,-6 3,-5 2,0 2,4 2,5l2 21c0,5 -1,10 5,10 7,1 6,-5 5,-9 0,-9 -1,-19 -1,-28l-1 -22c0,-1 0,-3 0,-4 0,-2 0,-2 2,-2 1,3 2,20 3,24 1,4 6,4 8,1 0,-2 -2,-21 -3,-25 -1,-12 -11,-17 -23,-17 -8,0 -15,3 -19,8 -2,4 -3,6 -3,10 -1,5 -1,9 -1,13 -1,3 -2,9 -1,11 1,3 7,4 8,-2l2 -21c0,-2 0,-2 2,-2z"/>
   </g>
  </g>
 </g>
</svg>
