<?xml version="1.0" encoding="UTF-8"?>
<!DOCTYPE svg PUBLIC "-//W3C//DTD SVG 1.1//EN" "http://www.w3.org/Graphics/SVG/1.1/DTD/svg11.dtd">
<!-- Creator: CorelDRAW X7 -->
<svg xmlns="http://www.w3.org/2000/svg" xml:space="preserve" width="48px" height="36px" version="1.1" style="shape-rendering:geometricPrecision; text-rendering:geometricPrecision; image-rendering:optimizeQuality; fill-rule:evenodd; clip-rule:evenodd"
viewBox="0 0 48 36"
 xmlns:xlink="http://www.w3.org/1999/xlink">
 <defs>
  <style type="text/css">
   <![CDATA[
    .fil0 {fill:url(#id0)}
    .fil1 {fill:url(#id1)}
    .fil3 {fill:url(#id2)}
    .fil2 {fill:url(#id3)}
   ]]>
  </style>
  <linearGradient id="id0" gradientUnits="userSpaceOnUse" x1="42.0709" y1="26.8677" x2="24.215" y2="2.84528">
   <stop offset="0" style="stop-opacity:1; stop-color:#1DEB23"/>
   <stop offset="0.631373" style="stop-opacity:1; stop-color:#11B919"/>
   <stop offset="1" style="stop-opacity:1; stop-color:#04870F"/>
  </linearGradient>
  <linearGradient id="id1" gradientUnits="userSpaceOnUse" x1="9.34134" y1="41.9457" x2="16.4988" y2="7.66772">
   <stop offset="0" style="stop-opacity:1; stop-color:#1CC8EB"/>
   <stop offset="0.631373" style="stop-opacity:1; stop-color:#0E96E0"/>
   <stop offset="1" style="stop-opacity:1; stop-color:#0063D4"/>
  </linearGradient>
  <linearGradient id="id2" gradientUnits="userSpaceOnUse" xlink:href="#id1" x1="9.34134" y1="50.5996" x2="16.4988" y2="16.3217">
  </linearGradient>
  <linearGradient id="id3" gradientUnits="userSpaceOnUse" xlink:href="#id1" x1="5.48858" y1="32.3941" x2="9.69449" y2="-2.67992">
  </linearGradient>
 </defs>
 <g id="Layer_x0020_1">
  <metadata id="CorelCorpID_0Corel-Layer"/>
  <g id="_788259504">
   <path class="fil0" d="M33 0l0 0c3,0 3,1 3,3l0 9 9 0c2,0 3,0 3,3l0 0c0,2 -1,3 -3,3l-9 0 0 9c0,2 0,3 -3,3l0 0c-2,0 -3,-1 -3,-3l0 -9 -9 0c-2,0 -3,-1 -3,-3l0 0c0,-3 1,-3 3,-3l9 0 0 -9c0,-2 1,-3 3,-3z"/>
   <g>
    <rect class="fil1" y="22" width="25.8401" height="5.54125"/>
    <rect class="fil2" y="12" width="15.1835" height="5.67032"/>
    <rect class="fil3" y="31" width="25.8401" height="5.54125"/>
   </g>
  </g>
 </g>
</svg>
