<?xml version="1.0" encoding="UTF-8"?>
<!DOCTYPE svg PUBLIC "-//W3C//DTD SVG 1.1//EN" "http://www.w3.org/Graphics/SVG/1.1/DTD/svg11.dtd">
<!-- Creator: CorelDRAW X7 -->
<svg xmlns="http://www.w3.org/2000/svg" xml:space="preserve" width="120px" height="120px" version="1.1" style="shape-rendering:geometricPrecision; text-rendering:geometricPrecision; image-rendering:optimizeQuality; fill-rule:evenodd; clip-rule:evenodd"
viewBox="0 0 120 120"
 xmlns:xlink="http://www.w3.org/1999/xlink">
 <defs>
  <style type="text/css">
   <![CDATA[
    .fil0 {fill:none}
    .fil2 {fill:#2196F3;fill-rule:nonzero}
    .fil1 {fill:#2887D2;fill-rule:nonzero}
   ]]>
  </style>
 </defs>
 <g id="Layer_x0020_1">
  <metadata id="CorelCorpID_0Corel-Layer"/>
  <rect class="fil0" width="120" height="120"/>
  <g id="_673255696">
   <g>
    <polygon class="fil1" points="107,93 107,31 101,36 101,88 33,88 33,19 84,19 90,14 27,14 27,93 "/>
    <polygon class="fil1" points="118,10 110,2 71,41 61,31 61,59 90,59 79,49 "/>
   </g>
   <path class="fil2" d="M41 100c-21,0 -21,-2 -21,-22l0 -68c0,-1 0,-1 0,-1l-4 0c-8,0 -14,6 -14,14l0 81c0,8 6,14 14,14l61 0c8,0 14,-6 14,-14l0 -4 -50 0z"/>
  </g>
 </g>
</svg>
