<?xml version="1.0" encoding="UTF-8"?>
<!DOCTYPE svg PUBLIC "-//W3C//DTD SVG 1.1//EN" "http://www.w3.org/Graphics/SVG/1.1/DTD/svg11.dtd">
<!-- Creator: CorelDRAW X7 -->
<svg xmlns="http://www.w3.org/2000/svg" xml:space="preserve" width="120px" height="120px" version="1.1" style="shape-rendering:geometricPrecision; text-rendering:geometricPrecision; image-rendering:optimizeQuality; fill-rule:evenodd; clip-rule:evenodd"
viewBox="0 0 120 120"
 xmlns:xlink="http://www.w3.org/1999/xlink">
 <defs>
  <style type="text/css">
   <![CDATA[
    .fil0 {fill:none}
    .fil2 {fill:#00A859}
    .fil1 {fill:#0098DA}
   ]]>
  </style>
 </defs>
 <g id="Layer_x0020_1">
  <metadata id="CorelCorpID_0Corel-Layer"/>
  <rect class="fil0" width="120" height="120"/>
  <g id="_586047392">
   <g>
    <path class="fil1" d="M27 90l23 0 0 22 -23 0c-2,0 -4,-2 -4,-4l0 -14c0,-2 2,-4 4,-4z"/>
    <path class="fil1" d="M114 90l-60 0 0 22 60 0c3,0 5,-2 5,-4l0 -14c0,-2 -2,-4 -5,-4z"/>
   </g>
   <g>
    <path class="fil1" d="M27 8l23 0 0 22 -23 0c-2,0 -4,-2 -4,-4l0 -14c0,-2 2,-4 4,-4z"/>
    <path class="fil1" d="M114 8l-60 0 0 22 60 0c3,0 5,-2 5,-4l0 -14c0,-2 -2,-4 -5,-4z"/>
    <path class="fil1" d="M27 33l23 0 0 22 -23 0c-2,0 -4,-2 -4,-4l0 -14c0,-2 2,-4 4,-4z"/>
    <path class="fil1" d="M114 33l-60 0 0 22 60 0c3,0 5,-2 5,-4l0 -14c0,-2 -2,-4 -5,-4z"/>
   </g>
   <path class="fil2" d="M33 70l-28 -17c-1,0 -2,-1 -4,-1l0 40c2,0 3,0 4,-1l28 -16c2,-2 2,-4 0,-5z"/>
  </g>
 </g>
</svg>
