<?xml version="1.0" encoding="UTF-8"?>
<!DOCTYPE svg PUBLIC "-//W3C//DTD SVG 1.1//EN" "http://www.w3.org/Graphics/SVG/1.1/DTD/svg11.dtd">
<!-- Creator: CorelDRAW X7 -->
<svg xmlns="http://www.w3.org/2000/svg" xml:space="preserve" width="120px" height="120px" version="1.1" style="shape-rendering:geometricPrecision; text-rendering:geometricPrecision; image-rendering:optimizeQuality; fill-rule:evenodd; clip-rule:evenodd"
viewBox="0 0 120 120"
 xmlns:xlink="http://www.w3.org/1999/xlink">
 <defs>
  <style type="text/css">
   <![CDATA[
    .fil0 {fill:none}
    .fil2 {fill:#00A859}
    .fil1 {fill:#0098DA}
   ]]>
  </style>
 </defs>
 <g id="Layer_x0020_1">
  <metadata id="CorelCorpID_0Corel-Layer"/>
  <rect class="fil0" width="120" height="120"/>
  <g id="_506787288">
   <path class="fil1" d="M115 4l-81 0c-2,0 -4,2 -4,3l0 13c0,2 2,4 4,4l81 0c2,0 4,-2 4,-4l0 -12c0,-2 -2,-4 -4,-4z"/>
   <path class="fil1" d="M115 35l-82 0c-1,0 -3,2 -3,4l0 13c0,2 2,3 3,3l82 0c2,0 4,-2 4,-4l0 -12c0,-2 -2,-4 -4,-4z"/>
   <path class="fil1" d="M115 96l-81 0c-2,0 -4,1 -4,3l0 13c0,2 2,4 4,4l81 0c2,0 4,-2 4,-4l0 -12c0,-3 -2,-4 -4,-4z"/>
   <path class="fil2" d="M50 74l-20 -13c-1,-1 -2,-1 -2,-1l0 10 -15 0 1 -64c0,-1 -1,-2 -2,-2l-8 0c-1,0 -2,1 -2,2l0 67c0,0 -1,1 0,1l0 6c0,2 0,2 1,2l25 0 0 10c0,0 1,0 2,0l20 -14c1,-1 1,-3 0,-4z"/>
  </g>
 </g>
</svg>
