<?xml version="1.0" encoding="UTF-8"?>
<!DOCTYPE svg PUBLIC "-//W3C//DTD SVG 1.1//EN" "http://www.w3.org/Graphics/SVG/1.1/DTD/svg11.dtd">
<!-- Creator: CorelDRAW X7 -->
<svg xmlns="http://www.w3.org/2000/svg" xml:space="preserve" width="120px" height="120px" version="1.1" style="shape-rendering:geometricPrecision; text-rendering:geometricPrecision; image-rendering:optimizeQuality; fill-rule:evenodd; clip-rule:evenodd"
viewBox="0 0 120 120"
 xmlns:xlink="http://www.w3.org/1999/xlink">
 <defs>
  <style type="text/css">
   <![CDATA[
    .fil0 {fill:none}
    .fil6 {fill:#FEFEFE}
    .fil4 {fill:#2887D2}
    .fil5 {fill:#FC4D44}
    .fil1 {fill:#FEFEFE;fill-rule:nonzero}
    .fil2 {fill:#ED3237;fill-rule:nonzero}
    .fil3 {fill:#00A859;fill-rule:nonzero}
    .fil7 {fill:#2887D2;fill-rule:nonzero}
   ]]>
  </style>
 </defs>
 <g id="Layer_x0020_1">
  <metadata id="CorelCorpID_0Corel-Layer"/>
  <rect class="fil0" width="120" height="120"/>
  <g id="_1011183576">
   <g>
    <g>
     <path class="fil1" d="M94 10c0,-1 -1,-3 -3,-3l-47 0 0 0 -20 0 0 19 0 0 0 5 0 62c0,1 1,3 3,3l17 0 47 0c2,0 3,-2 3,-3l0 -44 0 -39z"/>
     <path id="1" class="fil2" d="M91 9l0 -3 0 0 0 0 1 0 0 0 0 0 0 0 0 0 1 0 0 0 0 0 0 0 1 0 0 0 0 1 0 0 0 0 0 0 1 0 0 0 0 0 0 1 0 0 0 0 0 0 0 0 1 1 0 0 0 0 0 0 0 1 0 0 0 0 0 0 -4 0 0 0 0 0 0 0 0 0 0 0 0 0 0 0 0 0 0 0 0 0 0 0 0 0 0 0 0 -1 0 0 0 0 0 0 0 0 0 0 0 0 0 0 0 0 0 0 0 0 -1 0 0 0 0 0 0 0 0 0 0 0 0 0 0 0 0 0zm0 -3l0 0 0 0 0 0zm-47 0l47 0 0 3 -47 0 0 0 0 -3zm0 1l0 0 0 0 0 0 0 2 0 -2zm-20 -1l20 0 0 3 -20 0 -2 -2 2 -1zm-2 1l0 -1 2 0 -2 1zm0 19l0 -19 4 0 0 19 0 0 -4 0zm2 0l0 0 0 0 0 0 2 0 -2 0zm-2 5l0 -5 4 0 0 5 0 0 -4 0zm0 62l0 -62 4 0 0 62 -4 0 0 0zm0 0l0 0 0 0 0 0zm5 1l0 4 0 0 0 0 -1 0 0 -1 0 0 0 0 0 0 -1 0 0 0 0 0 0 0 -1 0 0 0 0 0 0 -1 0 0 0 0 -1 0 0 0 0 0 0 -1 0 0 0 0 0 0 0 0 -1 -1 0 0 0 0 0 0 0 -1 0 0 0 0 0 0 4 0 0 0 0 0 0 0 0 0 0 0 0 0 0 0 0 0 0 0 0 0 0 0 0 1 0 0 0 0 0 0 0 0 0 0 0 0 0 0 0 0 0 0 0 0 0 0 0 0 0 0 1 0 0 0 0 0 0 0 0 0 0 0 0 0 0 0zm0 4l0 0 0 0 0 0zm17 0l-17 0 0 -4 17 0 0 0 0 4zm47 0l-47 0 0 -4 47 0 0 0 0 4zm1 -5l4 0 0 0 0 0 0 0 0 0 0 1 0 0 0 0 0 0 -1 1 0 0 0 0 0 0 0 0 0 1 0 0 0 0 -1 0 0 0 0 0 0 1 0 0 0 0 -1 0 0 0 0 0 0 0 -1 0 0 0 0 0 0 0 0 1 -1 0 0 0 0 -4 0 0 0 0 0 0 0 0 0 0 0 0 0 0 1 0 0 0 0 0 0 0 0 0 0 0 0 0 0 0 0 0 0 0 0 0 0 0 0 0 0 -1 0 0 0 0 0 0 0 0 0 0 0 0 0 0 0 0 0 0 0 0 0 0 0 0zm4 -44l0 44 -4 0 0 -44 0 0 4 0zm0 -39l0 39 -4 0 0 -39 4 0 0 0zm0 0l0 0 0 0 0 0z"/>
    </g>
    <g>
     <path class="fil3" d="M75 40c0,-1 -1,-2 -1,-3 -1,-1 -2,-1 -3,-2 -1,0 -3,-1 -4,-1 -1,-1 -1,-1 -2,-2 -1,-1 -1,-1 -2,-2 0,-1 0,-2 0,-3 0,-3 0,-4 2,-6 1,-1 3,-2 5,-2l0 -4 3 0 0 4c2,0 4,1 5,3 2,1 2,3 2,6l-5 0c0,-2 -1,-3 -1,-4 -1,0 -2,-1 -3,-1 -1,0 -2,1 -2,1 -1,1 -1,2 -1,3 0,1 0,1 1,2 0,0 1,1 3,2 1,0 3,1 4,1 1,1 1,2 2,2 1,1 1,2 2,3 0,0 0,1 0,3 0,2 0,3 -2,5 -1,1 -3,2 -5,2l0 4 -3 0 0 -4c-3,0 -5,-1 -6,-3 -2,-1 -2,-3 -2,-6l5 0c0,2 0,3 1,4 1,0 2,1 3,1 1,0 2,0 3,-1 0,-1 1,-1 1,-2z"/>
     <rect class="fil4" x="36" y="17" width="19.2769" height="4.90124"/>
     <rect class="fil4" x="36" y="30" width="19.2769" height="4.90124"/>
     <rect class="fil4" x="36" y="44" width="19.2769" height="4.90124"/>
    </g>
   </g>
   <g>
    <path class="fil5" d="M79 69c9,-2 15,-3 22,-3 -2,7 -1,4 -3,10l20 -15c-5,-7 -9,-12 -14,-18l0 0c0,4 0,2 -1,9 -17,0 -27,-1 -40,15 -4,5 -10,16 -10,24 3,-3 3,-4 5,-7 4,-8 12,-13 21,-15z"/>
    <path id="1" class="fil1" d="M102 66l-2 0 1 1 -1 0 -1 0 0 0 -1 0 0 0 -1 0 -1 0 0 0 -1 0 -1 0 0 0 -1 0 0 1 -1 0 -1 0 0 0 -1 0 -1 0 0 0 -1 0 -1 0 0 0 -1 0 -1 1 0 0 -1 0 -1 0 0 0 -1 0 -1 0 -1 1 0 0 -1 -3 1 0 1 0 0 0 1 0 1 0 1 0 0 -1 1 0 1 0 0 0 1 0 1 0 0 0 1 0 1 0 0 -1 1 0 1 0 0 0 1 0 1 0 0 0 1 0 1 0 0 0 1 0 0 0 1 0 1 0 0 0 1 0 1 0 1 1zm-1 -1l1 0 0 1 -1 -1zm-4 10l2 2 -2 -2 0 0 0 -1 0 0 0 0 0 -1 1 0 0 0 0 -1 0 0 0 0 0 0 0 0 0 -1 0 0 0 0 0 0 0 0 0 0 0 -1 0 0 0 0 0 0 1 0 0 -1 0 0 0 0 0 -1 0 0 0 -1 0 0 0 -1 1 0 2 0 0 1 0 0 -1 1 0 0 0 1 0 0 0 1 0 0 0 0 0 0 0 1 0 0 0 0 0 0 -1 0 0 1 0 0 0 0 0 0 0 0 0 0 0 1 0 0 0 0 0 0 0 1 0 0 0 0 -1 1 0 0 0 1 0 0 -2 -1zm2 2l-3 2 1 -4 2 2zm20 -15l-20 15 -2 -2 20 -14 2 0 0 1zm0 -1l1 1 -1 0 0 -1zm-14 -18l-2 0 2 -1 0 1 1 0 0 1 0 0 1 1 0 0 1 1 0 0 1 1 0 1 1 0 0 1 0 0 1 1 0 0 1 1 0 0 1 1 0 1 0 0 1 1 0 0 1 1 0 1 1 0 0 1 1 0 0 1 1 1 0 0 1 1 0 1 -2 1 0 -1 -1 0 0 -1 -1 -1 0 0 -1 -1 0 0 -1 -1 0 -1 -1 0 0 -1 0 0 -1 -1 0 -1 -1 0 0 -1 -1 0 0 -1 0 0 -1 -1 0 0 -1 -1 0 -1 -1 0 0 -1 -1 0 0 -1 0 0 -1 -1 0 0 -1 -1 0 0 2 -1zm-2 0l0 -3 2 2 -2 1zm1 0l0 0 0 0 0 0 1 0 -1 0zm-1 0l0 -3 2 2 -2 1zm0 10l0 -2 -1 1 0 -1 0 0 0 -1 0 0 0 -1 0 0 0 0 0 -1 0 0 0 0 0 -1 0 0 0 0 1 0 0 0 0 -1 0 0 0 0 0 0 0 0 0 0 0 -1 0 0 0 0 0 0 0 0 0 -1 0 0 0 0 0 0 0 -1 0 0 2 0 0 0 0 1 0 0 0 0 0 0 0 1 0 0 0 0 0 0 0 0 0 1 0 0 0 0 0 0 0 0 0 1 0 0 0 0 0 0 0 0 0 1 0 0 0 0 0 0 0 1 0 0 0 1 0 0 0 1 0 0 0 1 0 0 -2 1zm2 -1l0 1 -2 0 2 -1zm-41 16l-2 -2 0 0 1 -1 1 -2 2 -1 1 -1 1 -1 1 -1 2 -1 1 -1 1 -1 1 -1 1 0 2 -1 1 -1 1 0 1 0 1 -1 2 0 1 0 1 0 1 -1 2 0 1 0 1 0 2 0 1 0 1 0 2 0 1 0 2 0 1 0 2 0 1 0 0 2 -1 0 -2 0 -1 0 -2 0 -1 0 -2 0 -1 0 -1 0 -2 0 -1 0 -1 1 -1 0 -2 0 -1 0 -1 0 -1 1 -1 0 -1 0 -1 1 -1 0 -2 1 -1 0 -1 1 -1 1 -1 0 -1 1 -1 1 -1 1 -2 2 -1 1 -1 1 -1 2 0 0zm-12 22l2 1 -2 0 0 -1 0 -1 0 -1 0 -1 0 0 1 -1 0 -1 0 -1 0 -1 0 0 1 -1 0 -1 0 -1 1 -1 0 -1 0 -1 1 0 0 -1 0 -1 1 -1 0 -1 1 0 0 -1 0 -1 1 -1 0 0 1 -1 0 -1 1 0 0 -1 1 0 0 -1 2 2 -1 0 0 1 0 0 -1 1 0 0 -1 1 0 1 0 0 -1 1 0 1 -1 0 0 1 0 1 -1 1 0 1 -1 0 0 1 0 1 0 1 -1 1 0 0 0 1 -1 1 0 1 0 1 0 0 0 1 0 1 0 1 -1 0 0 1 0 1 -2 -1zm2 1l-2 3 0 -3 2 0zm2 -8l3 1 0 0 -1 1 0 0 0 0 0 0 0 1 0 0 0 0 -1 0 0 1 0 0 0 0 0 0 0 0 0 1 0 0 0 0 0 0 -1 0 0 1 0 0 0 0 0 0 0 0 0 1 0 0 -1 0 0 0 0 0 0 1 0 0 -1 0 0 0 -2 -1 1 0 0 -1 0 0 0 0 0 0 0 -1 1 0 0 0 0 0 0 0 0 0 0 -1 0 0 0 0 0 0 1 0 0 0 0 -1 0 0 0 0 0 0 0 0 0 -1 0 0 0 0 1 0 0 0 0 -1 0 0 0 0 0 0 0 -1 0 0zm23 -16l1 3 0 0 -1 0 -1 0 -1 0 -1 1 -1 0 0 0 -1 1 -1 0 -1 0 0 1 -1 0 -1 0 -1 1 0 0 -1 1 -1 0 0 1 -1 0 -1 1 0 0 -1 1 -1 0 0 1 -1 0 0 1 -1 1 0 0 -1 1 0 0 -1 1 0 1 0 0 -3 -1 1 0 0 -1 1 -1 0 -1 1 0 1 -1 0 -1 1 0 0 -1 1 0 0 -1 1 -1 1 0 0 -1 1 0 1 -1 1 0 0 -1 1 0 1 -1 1 0 0 0 1 -1 1 0 1 -1 1 0 1 0 1 0 0 -1 1 0 1 0 1 -1 0 0z"/>
   </g>
   <path class="fil6" d="M35 55l28 28c6,6 7,17 0,22l-6 4c-7,4 -16,6 -22,0l-28 -28c-6,-6 -7,-17 0,-22l6 -5c7,-5 15,-5 22,1z"/>
   <path class="fil7" d="M12 58c5,-5 14,-5 20,0l28 28c2,2 3,5 3,8l0 0c0,3 -1,5 -3,8 -3,3 -9,4 -13,1 0,0 -1,0 -1,0l-28 -28c-3,-3 -3,-8 0,-10 3,-3 7,-3 10,0l23 23c1,0 1,1 0,2 -1,1 -2,1 -2,0l-23 -23c-2,-1 -4,-1 -6,0 -1,2 -1,4 0,5l27 27c3,3 8,3 10,0 3,-3 3,-7 0,-10l-28 -28c-4,-4 -11,-4 -15,0 -4,4 -4,11 0,15l26 26c0,0 0,1 0,2 -1,1 -2,1 -3,0l-25 -25c-6,-6 -6,-15 0,-21z"/>
  </g>
 </g>
</svg>
