<?xml version="1.0" encoding="UTF-8"?>
<!DOCTYPE svg PUBLIC "-//W3C//DTD SVG 1.1//EN" "http://www.w3.org/Graphics/SVG/1.1/DTD/svg11.dtd">
<!-- Creator: CorelDRAW X7 -->
<svg xmlns="http://www.w3.org/2000/svg" xml:space="preserve" width="120px" height="120px" version="1.1" style="shape-rendering:geometricPrecision; text-rendering:geometricPrecision; image-rendering:optimizeQuality; fill-rule:evenodd; clip-rule:evenodd"
viewBox="0 0 120 120"
 xmlns:xlink="http://www.w3.org/1999/xlink">
 <defs>
  <style type="text/css">
   <![CDATA[
    .fil0 {fill:none}
    .fil1 {fill:#2887D2}
    .fil2 {fill:#FC4D44}
    .fil4 {fill:#FEFEFE;fill-rule:nonzero}
    .fil5 {fill:#FFF212;fill-rule:nonzero}
    .fil3 {fill:url(#id0)}
   ]]>
  </style>
  <linearGradient id="id0" gradientUnits="userSpaceOnUse" x1="37.3354" y1="65.3647" x2="84.5497" y2="53.3951">
   <stop offset="0" style="stop-opacity:1; stop-color:#04870F"/>
   <stop offset="1" style="stop-opacity:1; stop-color:#03690C"/>
  </linearGradient>
 </defs>
 <g id="Layer_x0020_1">
  <metadata id="CorelCorpID_0Corel-Layer"/>
  <rect class="fil0" width="120" height="120"/>
  <g id="_818617120">
   <path class="fil1" d="M11 40l-9 0c0,2 16,25 18,27 1,-2 2,-4 4,-7l11 -16c1,-1 2,-2 2,-4l-9 0c1,-17 16,-28 34,-24 2,0 2,0 3,0 -1,-3 0,-1 -1,-2 -7,-5 -24,-5 -34,0 -5,2 -10,6 -13,10 -5,7 -4,9 -6,16z"/>
   <path class="fil2" d="M109 80l9 0c0,-2 -16,-25 -18,-27 -1,2 -2,4 -4,7l-11 16c-1,1 -2,2 -2,4l9 0c-1,17 -16,28 -34,24 -2,0 -2,0 -3,0 1,3 0,1 1,2 7,5 24,5 34,0 5,-2 10,-6 13,-10 5,-7 4,-9 6,-16z"/>
   <g>
    <g>
     <path class="fil3" d="M61 35c13,0 24,11 24,24 0,14 -11,25 -24,25 -14,0 -24,-11 -24,-25 0,-13 10,-24 24,-24z"/>
     <path id="1" class="fil4" d="M86 59l-2 0 0 0 0 -1 0 -1 0 -1 0 -1 0 -1 -1 -2 0 -1 0 -1 -1 -1 0 -1 -1 -1 -1 -1 0 -1 -1 -1 -1 0 0 -1 -1 -1 -1 -1 -1 0 -1 -1 -1 -1 -1 0 -1 -1 -1 0 -1 -1 -1 0 -1 0 -1 -1 -1 0 -2 0 -1 0 -1 0 0 -2 1 0 2 0 1 0 1 1 1 0 1 0 2 1 1 0 1 1 1 0 1 1 1 0 1 1 1 1 1 1 1 0 1 1 1 1 0 1 1 1 1 1 0 1 1 1 0 1 1 2 0 1 1 1 0 1 0 2 0 1 0 1 0 1 0 0zm-25 26l0 -2 0 0 1 0 1 0 2 0 1 -1 1 0 1 0 1 -1 1 0 1 0 1 -1 1 -1 1 0 1 -1 1 0 1 -1 1 -1 0 -1 1 -1 1 -1 0 0 1 -1 1 -1 0 -1 1 -1 0 -2 0 -1 1 -1 0 -1 0 -1 0 -1 0 -1 0 -2 2 0 0 2 0 1 0 1 0 1 0 2 -1 1 0 1 -1 1 0 1 -1 1 0 2 -1 1 -1 1 0 1 -1 0 -1 1 -1 1 -1 1 -1 1 -1 0 -1 1 -1 1 -1 0 -1 1 -1 0 -2 1 -1 0 -1 0 -1 0 -1 1 -2 0 -1 0 0 0zm-25 -26l1 0 0 0 0 2 1 1 0 1 0 1 0 1 0 1 1 1 0 2 1 1 0 1 1 1 0 1 1 0 1 1 1 1 0 1 1 1 1 1 1 0 1 1 1 0 1 1 1 1 1 0 1 0 1 1 1 0 1 0 1 1 2 0 1 0 1 0 0 2 -1 0 -2 0 -1 -1 -1 0 -1 0 -2 0 -1 -1 -1 0 -1 -1 -1 0 -1 -1 -1 -1 -1 0 -1 -1 -1 -1 -1 -1 -1 -1 -1 0 0 -1 -1 -1 -1 -1 0 -2 -1 -1 0 -1 -1 -1 0 -1 -1 -1 0 -2 0 -1 0 -1 0 -1 0 -2 0 0zm25 -25l0 2 0 0 -1 0 -1 0 -2 0 -1 0 -1 1 -1 0 -1 0 -1 1 -1 0 -1 1 -1 0 -1 1 -1 1 -1 0 -1 1 -1 1 0 1 -1 0 -1 1 -1 1 0 1 -1 1 0 1 -1 1 0 1 -1 1 0 2 0 1 0 1 0 1 -1 1 0 1 -1 0 0 -1 0 -1 0 -1 0 -2 0 -1 1 -1 0 -1 1 -2 0 -1 1 -1 0 -1 1 -1 1 -1 0 -1 1 -1 1 -1 1 0 1 -1 1 -1 1 -1 1 0 1 -1 1 0 1 -1 1 0 1 -1 2 0 1 0 1 -1 1 0 2 0 1 0 0 0z"/>
    </g>
    <path class="fil5" d="M65 67c0,-2 0,-2 -1,-3 0,-1 -1,-1 -3,-2 -2,-1 -3,-1 -4,-2 -1,0 -2,-1 -3,-2 -1,0 -1,-1 -2,-2 0,-1 0,-2 0,-4 0,-2 0,-4 2,-6 2,-1 4,-2 6,-2l0 -2 0 -2 0 0 0 0c0,0 1,-1 1,-1l1 0c1,0 1,1 1,1l0 0 0 0 0 2 0 2c3,0 5,1 6,3 2,2 2,3 2,6l0 0 0 0c0,1 -1,2 -2,2l-2 0c-1,0 -2,-1 -2,-2l0 0 0 0 0 0 0 0 0 0c0,-2 0,-2 -1,-3 -1,-1 -1,-1 -3,-1 -1,0 -2,0 -2,1 -1,0 -1,1 -1,2 0,1 0,2 1,3 0,0 1,1 3,2 2,0 3,1 4,2 1,0 2,1 3,2 1,0 1,1 2,2 0,1 0,2 0,4 0,2 0,4 -2,5 -1,2 -3,3 -6,3l0 1c0,0 0,1 0,1l0 1c0,1 -1,1 -1,1l-1 0c-1,0 -1,0 -1,-1l0 -1c0,0 0,-1 0,-1l0 -1c-3,0 -5,-1 -7,-3 -2,-2 -2,-3 -2,-6l0 0c0,-1 1,-2 2,-2l2 0c1,0 2,1 2,2l0 0 0 0 0 0 0 0 0 0 0 0c0,2 0,2 1,3 1,1 2,1 3,1 1,0 2,0 3,-1 1,0 1,-1 1,-2z"/>
   </g>
  </g>
 </g>
</svg>
