<?xml version="1.0" encoding="UTF-8"?>
<!DOCTYPE svg PUBLIC "-//W3C//DTD SVG 1.1//EN" "http://www.w3.org/Graphics/SVG/1.1/DTD/svg11.dtd">
<!-- Creator: CorelDRAW X8 -->
<svg xmlns="http://www.w3.org/2000/svg" xml:space="preserve" width="25px" height="25px" version="1.1" style="shape-rendering:geometricPrecision; text-rendering:geometricPrecision; image-rendering:optimizeQuality; fill-rule:evenodd; clip-rule:evenodd"
viewBox="0 0 40 40"
 xmlns:xlink="http://www.w3.org/1999/xlink">
 <defs>
  <style type="text/css">
   <![CDATA[
    .fil0 {fill:#FC4D44}
   ]]>
  </style>
 </defs>
 <g id="Layer_x0020_1">
  <metadata id="CorelCorpID_0Corel-Layer"/>
  <path class="fil0" d="M9 5l0 2 15 0c5,0 8,1 11,4 3,2 5,6 5,11 0,2 -1,5 -1,7 -2,2 -2,3 -4,4 -1,2 -3,3 -4,4 -4,1 -9,1 -13,1l-9 0 0 -5c0,0 11,0 14,0 5,0 6,-1 9,-3 2,-1 3,-4 4,-7 0,-7 -5,-12 -12,-12l-15 0 0 4c-1,0 -2,-1 -2,-1 -1,-1 -2,-1 -3,-2l-4 -3 2 -2c1,0 2,-1 2,-2 1,0 5,-3 5,-3l0 3z"/>
 </g>
</svg>
