<?xml version="1.0" encoding="UTF-8"?>
<!DOCTYPE svg PUBLIC "-//W3C//DTD SVG 1.1//EN" "http://www.w3.org/Graphics/SVG/1.1/DTD/svg11.dtd">
<!-- Creator: CorelDRAW X7 -->
<svg xmlns="http://www.w3.org/2000/svg" xml:space="preserve" width="120px" height="120px" version="1.1" style="shape-rendering:geometricPrecision; text-rendering:geometricPrecision; image-rendering:optimizeQuality; fill-rule:evenodd; clip-rule:evenodd"
viewBox="0 0 120 120"
 xmlns:xlink="http://www.w3.org/1999/xlink">
 <defs>
  <style type="text/css">
   <![CDATA[
    .fil0 {fill:none}
    .fil5 {fill:#FEFEFE}
    .fil1 {fill:#BDBFC1}
    .fil3 {fill:#2887D2}
    .fil4 {fill:#FC4D44}
    .fil2 {fill:#FEFEFE;fill-rule:nonzero}
   ]]>
  </style>
 </defs>
 <g id="Layer_x0020_1">
  <metadata id="CorelCorpID_0Corel-Layer"/>
  <rect class="fil0" width="120" height="120"/>
  <g id="_870111152">
   <g>
    <path class="fil1" d="M33 23l81 0c2,0 4,2 4,5l0 73c0,2 -2,4 -3,4l-82 0c-2,0 -4,-2 -4,-4l0 -73c0,-3 2,-5 4,-5z"/>
    <path id="1" class="fil2" d="M114 25l-81 0 0 -3 81 0 0 0 0 3zm5 3l-2 0 0 0 0 0 0 -1 0 0 0 0 0 0 0 0 0 0 0 -1 -1 0 0 0 0 0 0 0 0 0 0 0 0 0 0 -1 0 0 0 0 0 0 0 0 0 0 -1 0 0 0 0 0 0 0 0 0 0 0 0 0 0 0 0 0 0 0 -1 0 0 -3 1 0 0 0 0 0 0 0 1 0 0 0 0 0 0 0 1 0 0 1 0 0 0 0 0 0 1 0 0 0 0 1 0 0 0 0 0 0 1 0 0 1 0 0 0 0 0 0 0 1 0 0 0 0 0 1 0 0 0 0 0 0 0 1 0 0zm-2 73l0 -73 2 0 0 73 0 0 -2 0zm-2 6l0 -3 0 0 0 0 0 0 0 0 0 0 0 0 0 0 0 0 0 0 0 0 1 0 0 -1 0 0 0 0 0 0 0 0 0 0 0 0 0 0 0 0 0 0 0 -1 0 0 0 0 1 0 0 0 0 0 0 0 0 0 0 -1 0 0 0 0 0 0 2 0 0 0 0 0 0 1 0 0 0 0 0 1 0 0 0 0 0 0 0 1 0 0 0 0 -1 0 0 0 0 1 0 0 0 0 0 0 -1 0 0 1 0 0 0 0 0 0 -1 0 0 0 0 0 0 0 0 1 -1 0 0 0 0 0 0 0 0 0zm-82 -3l82 0 0 3 -82 0 0 0 0 -3zm-5 -3l2 0 0 0 0 0 0 0 0 0 0 1 0 0 1 0 0 0 0 0 0 0 0 0 0 0 0 1 0 0 0 0 0 0 0 0 0 0 0 0 0 0 0 0 0 0 1 1 0 0 0 0 0 0 0 0 0 0 0 0 0 0 0 0 0 0 1 0 0 3 -1 0 0 0 0 0 0 0 -1 -1 0 0 0 0 0 0 -1 0 0 0 0 0 0 0 0 -1 -1 0 0 0 0 0 0 0 0 -1 0 0 0 0 -1 0 0 0 0 -1 0 0 0 0 0 0 0 -1 0 0 0 0 0 -1 0 0 0 0 0 0zm2 -73l0 73 -2 0 0 -73 0 0 2 0zm3 -6l0 3 0 0 0 0 -1 0 0 0 0 0 0 0 0 0 0 0 0 0 0 0 0 0 0 0 -1 0 0 0 0 0 0 0 0 0 0 1 0 0 0 0 0 0 0 0 0 0 0 0 0 0 0 1 0 0 -1 0 0 0 0 0 0 0 0 1 0 0 -2 0 0 -1 0 0 0 0 0 0 0 -1 0 0 0 0 0 -1 0 0 0 0 0 0 1 -1 0 0 0 0 0 0 0 0 0 -1 1 0 0 0 0 0 0 0 0 0 0 -1 1 0 0 0 0 0 0 0 1 0 0 0 0 0 0 0 1 0 0 0z"/>
   </g>
   <g id="_870111776">
    <g>
     <path class="fil3" d="M26 23l82 0c2,0 4,2 4,4l0 66c0,2 -2,4 -4,4l-82 0c-2,0 -3,-2 -3,-4l0 -66c0,-2 1,-4 3,-4z"/>
     <path id="1" class="fil2" d="M108 25l-82 0 0 -4 82 0 0 0 0 4zm6 2l-5 0 0 0 0 0 0 0 0 0 0 0 0 -1 0 0 0 0 0 0 0 0 0 0 0 0 0 0 0 0 0 0 0 0 0 0 0 -1 0 0 0 0 0 0 0 0 0 0 0 0 0 0 -1 0 0 0 0 0 0 0 0 0 0 0 0 0 0 0 0 -4 0 0 1 0 0 0 0 0 1 0 0 0 0 0 0 0 1 0 0 1 0 0 0 0 1 0 0 0 0 1 0 0 0 0 1 0 0 0 0 1 0 0 0 0 0 0 0 1 0 0 1 0 0 1 0 0 0 0 0 0 0 1 0 0 0 0zm-5 66l0 -66 5 0 0 66 0 0 -5 0zm-1 6l0 -4 0 0 0 0 0 0 0 0 0 0 0 0 0 0 1 0 0 0 0 0 0 0 0 0 0 0 0 0 0 0 0 -1 0 0 0 0 0 0 0 0 0 0 0 0 0 0 0 0 0 0 0 0 0 0 0 0 0 -1 0 0 0 0 0 0 0 0 5 0 0 0 0 1 0 0 0 0 0 0 0 1 -1 0 0 0 0 1 0 0 0 0 0 0 0 1 0 0 -1 0 0 0 0 0 0 1 0 0 -1 0 0 0 0 0 0 0 -1 1 0 0 0 0 0 0 -1 0 0 0 0 0 0 0 -1 0 0 0zm-82 -4l82 0 0 4 -82 0 0 0 0 -4zm-5 -2l4 0 0 0 0 0 0 0 0 0 0 0 0 1 0 0 0 0 0 0 0 0 0 0 0 0 0 0 0 0 0 0 0 0 0 0 0 0 0 1 0 0 1 0 0 0 0 0 0 0 0 0 0 0 0 0 0 0 0 0 0 0 0 0 0 0 0 0 0 4 0 0 0 0 -1 0 0 0 0 0 -1 0 0 0 0 0 0 -1 -1 0 0 0 0 0 0 0 -1 0 0 -1 0 0 0 0 0 0 0 0 -1 -1 0 0 0 0 0 0 0 -1 0 0 0 0 0 -1 0 0 0 0 0 0 0 -1 0 0 0 0zm4 -66l0 66 -4 0 0 -66 0 0 4 0zm1 -6l0 4 0 0 0 0 0 0 0 0 0 0 0 0 0 0 0 0 0 0 0 0 0 0 0 0 0 0 0 0 -1 0 0 0 0 1 0 0 0 0 0 0 0 0 0 0 0 0 0 0 0 0 0 0 0 0 0 0 0 1 0 0 0 0 0 0 0 0 -4 0 0 0 0 -1 0 0 0 0 0 0 0 -1 0 0 0 0 0 -1 0 0 0 0 0 0 1 -1 0 0 0 0 0 0 0 0 1 -1 0 0 0 0 0 0 0 0 1 -1 0 0 0 0 0 0 1 0 0 0 0 0 1 0 0 0 0 0 0 0z"/>
    </g>
    <g>
     <path class="fil4" d="M28 13l79 0c2,0 5,2 5,5l0 12 -89 0 0 -12c0,-3 2,-5 5,-5z"/>
     <path id="1" class="fil2" d="M107 15l-79 0 0 -4 79 0 0 0 0 4zm7 3l-5 0 0 0 0 -1 0 0 0 0 0 0 0 0 0 0 0 0 0 0 0 -1 0 0 0 0 0 0 0 0 0 0 0 0 0 0 0 0 -1 0 0 -1 0 0 0 0 0 0 0 0 0 0 0 0 0 0 -1 0 0 0 0 0 0 0 0 0 0 0 0 -4 0 0 0 0 1 0 0 0 0 0 1 0 0 0 0 0 1 0 0 0 0 1 1 0 0 0 0 0 0 0 1 1 0 0 0 0 0 0 1 1 0 0 0 0 0 1 0 0 0 0 0 1 1 0 0 0 0 1 0 0 0 0 0 1 0 0zm-5 12l0 -12 5 0 0 12 -2 2 -3 -2zm5 0l0 2 -2 0 2 -2zm-91 -2l89 0 0 4 -89 0 -2 -2 2 -2zm0 4l-2 0 0 -2 2 2zm2 -14l0 12 -4 0 0 -12 0 0 4 0zm3 -7l0 4 0 0 -1 0 0 0 0 0 0 0 0 0 0 0 0 0 0 0 -1 0 0 0 0 0 0 0 0 0 0 1 0 0 0 0 0 0 -1 0 0 0 0 0 0 0 0 0 0 0 0 1 0 0 0 0 0 0 0 0 0 0 0 0 0 0 0 1 -4 0 0 -1 0 0 0 0 0 -1 0 0 0 0 0 -1 0 0 0 0 0 -1 1 0 0 0 0 -1 0 0 0 0 1 0 0 -1 0 0 0 0 1 0 0 0 0 -1 1 0 0 0 0 0 1 0 0 0 0 0 1 0 0 0 0 0 1 0 0 0z"/>
    </g>
    <g>
     <rect class="fil3" x="40" y="2" width="6.97162" height="20.2951" rx="2" ry="2"/>
     <rect class="fil3" x="56" y="2" width="6.97162" height="20.2951" rx="2" ry="2"/>
     <rect class="fil3" x="72" y="2" width="6.97162" height="20.2951" rx="2" ry="2"/>
     <rect class="fil3" x="87" y="2" width="6.97162" height="20.2951" rx="2" ry="2"/>
    </g>
    <rect class="fil5" x="43" y="37" width="7.10935" height="9.1335"/>
    <rect class="fil5" x="57" y="37" width="7.10935" height="9.1335"/>
    <rect class="fil5" x="70" y="37" width="7.10935" height="9.1335"/>
    <rect class="fil5" x="84" y="37" width="7.10935" height="9.1335"/>
    <rect class="fil5" x="98" y="37" width="7.10935" height="9.1335"/>
    <rect class="fil5" x="29" y="54" width="7.10935" height="9.1335"/>
    <rect class="fil5" x="43" y="54" width="7.10935" height="9.1335"/>
    <rect class="fil5" x="57" y="54" width="7.10935" height="9.1335"/>
    <rect class="fil5" x="71" y="54" width="7.10935" height="9.1335"/>
    <rect class="fil5" x="84" y="54" width="7.10935" height="9.1335"/>
    <rect class="fil5" x="98" y="54" width="7.10935" height="9.1335"/>
    <rect class="fil5" x="29" y="73" width="7.10935" height="9.1335"/>
    <rect class="fil5" x="43" y="73" width="7.10935" height="9.1335"/>
    <rect class="fil5" x="57" y="73" width="7.10935" height="9.1335"/>
    <rect class="fil5" x="71" y="73" width="7.10935" height="9.1335"/>
    <rect class="fil5" x="84" y="73" width="7.10935" height="9.1335"/>
    <rect class="fil5" x="98" y="73" width="7.10935" height="9.1335"/>
   </g>
   <circle class="fil5" cx="31" cy="89" r="29"/>
   <path class="fil4" d="M26 65c-2,1 -3,1 -4,2 0,0 -1,0 -1,0 -1,1 -1,1 -2,1 0,0 0,1 0,1 -1,0 -1,0 -1,1 -1,1 -2,1 -3,2 -2,2 -3,5 -4,8 0,2 -1,4 -1,6 1,0 9,0 9,0 0,0 0,0 0,0 0,-1 0,-2 0,-2 0,-1 0,-2 0,-2 1,-1 2,-3 2,-3 0,-1 1,-2 1,-2 4,-4 10,-5 15,-3 4,3 7,7 7,11 0,1 0,2 0,3 0,1 0,2 -1,2 0,1 0,2 -1,2 -1,2 -3,4 -5,5 -3,2 -5,1 -9,1 0,0 -2,0 -3,0l0 -9c-9,8 -13,9 -19,14 2,1 19,13 19,13l0 -9c0,0 0,0 0,0 1,0 1,0 2,0 4,0 8,0 12,-2 1,0 2,0 2,-1 1,0 1,0 1,0 3,-1 3,-2 5,-4 0,0 1,-1 1,-1 5,-6 6,-11 4,-18 0,-2 -1,-4 -2,-6l0 0c-1,-1 -1,-1 -1,-2 0,0 -1,0 -1,0 -5,-7 -13,-10 -21,-8 0,0 -1,0 -1,0z"/>
  </g>
 </g>
</svg>
