<?xml version="1.0" encoding="UTF-8"?>
<!DOCTYPE svg PUBLIC "-//W3C//DTD SVG 1.1//EN" "http://www.w3.org/Graphics/SVG/1.1/DTD/svg11.dtd">
<!-- Creator: CorelDRAW X7 -->
<svg xmlns="http://www.w3.org/2000/svg" xml:space="preserve" width="120px" height="120px" version="1.1" style="shape-rendering:geometricPrecision; text-rendering:geometricPrecision; image-rendering:optimizeQuality; fill-rule:evenodd; clip-rule:evenodd"
viewBox="0 0 120 120"
 xmlns:xlink="http://www.w3.org/1999/xlink">
 <defs>
  <style type="text/css">
   <![CDATA[
    .fil0 {fill:none}
    .fil6 {fill:#FFF212}
    .fil5 {fill:#FEFEFE;fill-rule:nonzero}
    .fil4 {fill:#00A859;fill-rule:nonzero}
    .fil2 {fill:black;fill-rule:nonzero}
    .fil3 {fill:#E32210;fill-rule:nonzero}
    .fil1 {fill:#FC4D44;fill-rule:nonzero}
   ]]>
  </style>
 </defs>
 <g id="Layer_x0020_1">
  <metadata id="CorelCorpID_0Corel-Layer"/>
  <rect class="fil0" width="120" height="120"/>
  <g id="_795766488">
   <g>
    <path class="fil1" d="M2 50c0,-5 4,-9 9,-9l77 0c5,0 9,4 9,9l0 4 -95 0 0 -4z"/>
    <path class="fil1" d="M97 63l0 27c0,5 -4,10 -9,10l-77 0c-5,0 -9,-5 -9,-10l0 -27 95 0z"/>
    <polygon class="fil2" points="97,63 2,63 2,54 97,54 "/>
    <path class="fil3" d="M97 63l0 27c0,5 -4,10 -9,10l-36 0c25,0 45,-17 45,-37z"/>
   </g>
   <g>
    <path class="fil4" d="M84 20c-18,0 -33,16 -33,34 0,19 15,34 33,34 19,0 34,-15 34,-34 0,-18 -15,-34 -34,-34z"/>
    <path id="1" class="fil5" d="M52 54l-3 0 0 0 1 -2 0 -1 0 -2 0 -2 1 -2 0 -1 1 -2 0 -2 1 -1 1 -2 1 -1 0 -1 1 -2 1 -1 2 -1 1 -2 1 -1 1 -1 2 -1 1 -1 1 -1 2 -1 1 0 2 -1 1 -1 2 0 2 -1 1 0 2 0 2 -1 2 0 1 0 0 3 -1 0 -2 0 -2 0 -1 0 -2 1 -1 0 -2 1 -1 0 -2 1 -1 1 -1 0 -2 1 -1 1 -1 1 -1 1 -1 1 -2 1 -1 2 0 1 -1 1 -1 1 -1 2 -1 1 0 2 -1 1 0 1 -1 2 0 2 -1 1 0 2 0 1 0 2 0 0zm32 32l0 3 0 0 -1 0 -2 0 -2 0 -2 -1 -1 0 -2 -1 -2 0 -1 -1 -2 0 -1 -1 -2 -1 -1 -1 -1 -1 -2 -1 -1 -1 -1 -1 -1 -1 -2 -2 -1 -1 -1 -1 0 -2 -1 -1 -1 -2 -1 -1 0 -2 -1 -2 0 -1 -1 -2 0 -2 0 -1 0 -2 -1 -2 3 0 0 2 0 1 0 2 1 2 0 1 1 2 0 1 1 2 0 1 1 1 1 2 1 1 1 1 0 2 1 1 2 1 1 1 1 1 1 1 1 1 2 1 1 0 1 1 2 1 1 0 2 1 1 0 2 1 1 0 2 0 2 0 1 0 0 0zm33 -32l2 0 0 0 0 2 0 2 0 1 0 2 -1 2 0 1 -1 2 0 2 -1 1 -1 2 -1 1 -1 2 -1 1 -1 1 -1 2 -1 1 -1 1 -1 1 -2 1 -1 1 -2 1 -1 1 -1 1 -2 0 -2 1 -1 0 -2 1 -2 0 -1 1 -2 0 -2 0 -2 0 0 -3 2 0 2 0 1 0 2 0 1 -1 2 0 1 -1 2 0 1 -1 2 -1 1 0 1 -1 2 -1 1 -1 1 -1 1 -1 1 -1 1 -1 1 -2 1 -1 1 -1 1 -2 1 -1 0 -1 1 -2 0 -1 1 -2 0 -1 0 -2 1 -2 0 -1 0 -2 0 0zm-33 -32l0 -3 0 0 2 0 2 0 2 1 1 0 2 0 2 1 1 0 2 1 2 1 1 0 1 1 2 1 1 1 2 1 1 1 1 1 1 2 1 1 1 1 1 2 1 1 1 1 1 2 1 1 0 2 1 2 0 1 1 2 0 2 0 2 0 1 0 2 -2 0 0 -2 0 -1 -1 -2 0 -1 0 -2 -1 -2 0 -1 -1 -1 0 -2 -1 -1 -1 -2 -1 -1 -1 -1 -1 -1 -1 -2 -1 -1 -1 -1 -1 -1 -1 -1 -2 -1 -1 -1 -1 0 -2 -1 -1 -1 -2 0 -1 -1 -2 0 -1 -1 -2 0 -1 0 -2 0 -2 0 0 0z"/>
   </g>
   <path class="fil6" d="M92 74c-2,1 -3,2 -4,2 -2,0 -3,1 -4,1 -3,0 -4,-1 -6,-2 -1,-1 -2,-3 -2,-4 0,-1 0,-2 1,-2 0,-1 0,-2 0,-3l2 -8c1,-1 1,-2 1,-2 0,-1 0,-2 0,-2 0,-1 0,-2 -1,-3 0,0 -1,0 -2,0 -1,0 -1,0 -2,0 -1,0 -1,0 -2,1l1 -3c2,-1 3,-1 5,-2 1,0 2,0 4,0 2,0 4,0 5,1 1,1 2,3 2,5 0,0 0,1 0,2 -1,1 -1,1 -1,2l-2 8c0,1 -1,2 -1,3 0,1 0,1 0,2 0,1 0,2 1,2 0,0 1,1 2,1 1,0 1,-1 2,-1 1,0 1,0 2,0l-1 2zm0 -34c-1,1 -3,2 -4,2 -2,0 -3,-1 -4,-2 -1,-1 -2,-2 -2,-3 0,-2 1,-3 2,-4 1,-1 2,-2 4,-2 1,0 3,1 4,2 1,1 1,2 1,4 0,1 0,2 -1,3z"/>
  </g>
 </g>
</svg>
