<?xml version="1.0" encoding="UTF-8"?>
<!DOCTYPE svg PUBLIC "-//W3C//DTD SVG 1.1//EN" "http://www.w3.org/Graphics/SVG/1.1/DTD/svg11.dtd">
<!-- Creator: CorelDRAW X7 -->
<svg xmlns="http://www.w3.org/2000/svg" xml:space="preserve" width="122px" height="120px" version="1.1" style="shape-rendering:geometricPrecision; text-rendering:geometricPrecision; image-rendering:optimizeQuality; fill-rule:evenodd; clip-rule:evenodd"
viewBox="0 0 121 120"
 xmlns:xlink="http://www.w3.org/1999/xlink">
 <defs>
  <style type="text/css">
   <![CDATA[
    .str0 {stroke:#966100;stroke-width:0.898203}
    .fil0 {fill:none}
    .fil7 {fill:none;fill-rule:nonzero}
    .fil6 {fill:#FEFEFE}
    .fil1 {fill:#FEFEFE}
    .fil5 {fill:#966100}
    .fil4 {fill:#FEFEFE;fill-rule:nonzero}
    .fil2 {fill:#966100;fill-rule:nonzero}
    .fil3 {fill:#D40000;fill-rule:nonzero}
   ]]>
  </style>
 </defs>
 <g id="Layer_x0020_1">
  <metadata id="CorelCorpID_0Corel-Layer"/>
  <rect class="fil0" x="1" width="120" height="120"/>
  <g id="_916399712">
   <g>
    <polygon class="fil1" points="27,20 84,20 84,100 27,100 "/>
    <path id="1" class="fil2" d="M84 22l-57 0 0 -5 57 0 3 3 -3 2zm0 -5l3 0 0 3 -3 -3zm-3 83l0 -80 6 0 0 80 -3 2 -3 -2zm6 0l0 2 -3 0 3 -2zm-60 -2l57 0 0 4 -57 0 -3 -2 3 -2zm0 4l-3 0 0 -2 3 2zm3 -82l0 80 -6 0 0 -80 3 -3 3 3zm-6 0l0 -3 3 0 -3 3z"/>
   </g>
   <g>
    <polygon class="fil1" points="119,11 84,20 84,100 119,108 "/>
    <path id="1" class="fil2" d="M84 17l34 -8 1 5 -34 8 -3 -2 2 -3zm-2 3l0 -2 2 -1 -2 3zm0 80l0 -80 5 0 0 80 -3 2 -2 -2zm2 2l-2 0 0 -2 2 2zm34 9l-34 -9 1 -4 34 8 2 2 -3 3zm3 -3l0 4 -3 -1 3 -3zm0 -97l0 97 -5 0 0 -97 2 -2 3 2zm-3 -2l3 -1 0 3 -3 -2z"/>
   </g>
   <g>
    <path class="fil3" d="M67 52l-33 0 0 -11 -31 21 31 22 0 -11 33 0 0 -21zm-17 0m-16 -6m-15 6m0 21m15 5m16 -5m17 -11"/>
    <path id="1" class="fil4" d="M34 50l33 0 0 4 -33 0 -2 -2 2 -2zm0 4l-2 0 0 -2 2 2zm2 -13l0 11 -4 0 0 -11 1 -2 3 2zm-3 -2l3 -2 0 4 -3 -2zm-31 22l31 -22 2 3 -31 22 -2 0 0 -3zm0 3l-2 -2 2 -1 0 3zm31 21l-31 -21 2 -3 31 21 1 2 -3 1zm3 -1l0 3 -3 -2 3 -1zm0 -11l0 11 -4 0 0 -11 2 -2 2 2zm-4 0l0 -2 2 0 -2 2zm35 2l-33 0 0 -4 33 0 1 2 -1 2zm1 -2l0 2 -1 0 1 -2zm0 -21l0 21 -3 0 0 -21 2 -2 1 2zm-1 -2l1 0 0 2 -1 -2z"/>
   </g>
   <polygon class="fil5" points="114,51 107,52 107,67 114,69 "/>
   <g>
    <path class="fil6" d="M108 56c2,0 4,2 4,4 0,2 -2,4 -4,4 -2,0 -3,-2 -3,-4 0,-2 1,-4 3,-4z"/>
    <path id="1" class="fil7 str0" d="M108 56c2,0 4,2 4,4 0,2 -2,4 -4,4 -2,0 -3,-2 -3,-4 0,-2 1,-4 3,-4z"/>
   </g>
  </g>
 </g>
</svg>
