<?xml version="1.0" encoding="UTF-8"?>
<!DOCTYPE svg PUBLIC "-//W3C//DTD SVG 1.1//EN" "http://www.w3.org/Graphics/SVG/1.1/DTD/svg11.dtd">
<!-- Creator: CorelDRAW X7 -->
<svg xmlns="http://www.w3.org/2000/svg" xml:space="preserve" width="120px" height="120px" version="1.1" style="shape-rendering:geometricPrecision; text-rendering:geometricPrecision; image-rendering:optimizeQuality; fill-rule:evenodd; clip-rule:evenodd"
viewBox="0 0 120 120"
 xmlns:xlink="http://www.w3.org/1999/xlink">
 <defs>
  <style type="text/css">
   <![CDATA[
    .fil0 {fill:none}
    .fil1 {fill:#FEFEFE}
    .fil6 {fill:#201E1E}
    .fil3 {fill:#2887D2}
    .fil4 {fill:#FC4D44}
    .fil5 {fill:#FEFEFE;fill-rule:nonzero}
    .fil2 {fill:#2887D2;fill-rule:nonzero}
   ]]>
  </style>
 </defs>
 <g id="Layer_x0020_1">
  <metadata id="CorelCorpID_0Corel-Layer"/>
  <rect class="fil0" width="120" height="120"/>
  <g id="_685505480">
   <g>
    <path class="fil1" d="M74 5l-54 0 -18 16 0 -1c0,1 0,2 0,2l0 77c0,2 2,4 5,4l67 0c2,0 5,-2 5,-4l0 -90c0,-2 -3,-4 -5,-4z"/>
    <path id="1" class="fil2" d="M20 7l-1 -3 1 0 54 0 0 3 -54 0zm-1 -3l1 0 0 0 -1 0zm-16 18l-2 -1 0 -1 18 -16 2 2 -18 16zm0 0l-2 2 0 -3 2 1zm-2 -2l0 0 3 0 0 1 -3 0 0 -1zm0 2l0 0 0 0 0 0 0 0 0 0 0 0 0 0 0 0 0 0 0 0 0 0 0 0 0 -1 0 0 0 0 0 0 0 0 0 0 0 0 0 0 0 0 0 0 0 0 0 0 0 -1 0 0 0 0 0 0 0 0 0 0 0 0 0 0 0 0 3 1 0 0 0 0 0 0 0 0 0 0 0 0 0 0 0 0 0 0 0 0 0 0 0 0 0 1 0 0 0 0 0 0 0 0 0 0 -1 0 0 0 0 0 0 0 0 0 0 0 0 0 0 0 0 0 0 0 0 0 0 0 0 0 0 0 0 0 -2 0zm2 77l-2 0 0 -77 2 0 0 77zm4 6l0 0 -1 0 0 0 0 0 -1 0 0 -1 0 0 0 0 -1 0 0 0 0 0 0 0 -1 0 0 0 0 0 0 -1 -1 0 0 0 0 0 0 0 0 -1 -1 0 0 0 0 0 0 0 0 -1 0 0 0 0 0 0 0 -1 0 0 0 0 0 -1 2 0 0 1 0 0 0 0 0 0 1 0 0 0 0 0 0 0 0 0 0 0 0 1 0 0 0 0 0 0 0 0 0 0 0 0 0 0 1 0 0 0 0 0 0 0 0 0 0 1 0 0 1 0 0 0 0 0 0 0 0 0 0 0 1 0 0 0 0 3zm67 -3l0 3 -67 0 0 -3 67 0zm6 -3l0 0 0 1 0 0 0 0 0 1 0 0 0 0 0 0 -1 1 0 0 0 0 0 0 0 0 0 1 0 0 -1 0 0 0 0 0 0 1 -1 0 0 0 0 0 0 0 0 0 -1 0 0 0 0 0 -1 0 0 1 0 0 0 0 -1 0 0 0 0 -3 0 0 0 0 1 0 0 0 0 0 0 0 0 0 0 0 0 -1 1 0 0 0 0 0 0 0 0 0 0 0 0 0 0 0 0 0 1 0 0 0 0 0 0 -1 0 0 0 0 0 0 0 0 0 0 0 0 0 0 0 0 0 0 0 -1 0 0 3 0zm-3 -90l3 0 0 90 -3 0 0 -90zm-3 -5l0 0 0 0 1 0 0 0 0 0 0 0 1 0 0 0 0 0 1 0 0 0 0 1 0 0 0 0 1 0 0 0 0 0 0 0 1 1 0 0 0 0 0 0 0 0 0 1 0 0 1 0 0 0 0 1 0 0 0 0 0 0 0 1 0 0 -3 0 0 0 0 0 0 0 0 0 0 -1 0 0 0 0 0 0 0 0 0 0 0 0 0 0 0 0 -1 0 0 0 0 -1 0 0 0 0 0 0 0 0 0 0 0 0 -1 0 0 0 0 0 0 0 0 0 0 0 0 0 -1 0 0 0 0 0 0 0 0 -3z"/>
   </g>
   <g id="_685509368">
    <g>
     <path class="fil1" d="M86 17l-54 0 -18 15 0 0c0,1 0,1 0,2l0 77c0,2 2,4 4,4l68 0c2,0 4,-2 4,-4l0 -90c0,-2 -2,-4 -4,-4z"/>
     <path id="1" class="fil2" d="M32 18l-1 -2 1 -1 54 0 0 3 -54 0zm-1 -2l0 -1 1 0 -1 1zm-16 17l-3 -1 1 -1 18 -15 2 2 -18 15zm0 0l-3 3 0 -4 3 1zm-3 -1l1 -1 2 1 0 0 -3 0 0 0zm0 2l0 0 0 0 0 0 0 0 0 0 0 0 0 -1 0 0 0 0 0 0 0 0 0 0 0 0 0 0 0 0 0 0 0 0 0 0 0 0 0 -1 0 0 0 0 0 0 0 0 0 0 0 0 0 0 0 0 0 0 1 0 0 0 0 -1 0 0 2 2 0 0 0 0 0 0 0 0 0 0 0 0 0 0 0 0 0 0 0 0 0 0 0 0 0 0 0 0 0 0 0 0 0 0 0 0 0 0 0 0 0 0 0 1 0 0 0 0 0 0 0 0 0 0 0 0 0 0 0 0 0 0 0 0 0 0 -3 0zm3 77l-3 0 0 -77 3 0 0 77zm3 5l0 0 0 0 -1 0 0 0 0 0 0 0 -1 0 0 0 0 0 0 0 -1 0 0 -1 0 0 0 0 -1 0 0 0 0 0 0 0 0 -1 -1 0 0 0 0 0 0 0 0 -1 0 0 -1 0 0 0 0 -1 0 0 0 0 0 0 0 -1 0 0 3 0 0 0 0 0 0 0 0 0 0 1 0 0 0 0 0 0 0 0 0 0 0 0 0 0 0 0 1 0 0 0 0 1 0 0 0 0 0 0 0 0 0 0 0 0 1 0 0 0 0 0 0 0 0 0 0 0 1 0 0 0 0 0 0 0 0 0 0 3zm68 -3l0 3 -68 0 0 -3 68 0zm5 -2l0 0 0 0 0 1 0 0 0 0 0 0 0 1 0 0 0 0 0 0 0 1 0 0 -1 0 0 0 0 0 0 1 0 0 -1 0 0 0 0 0 0 0 0 0 -1 1 0 0 0 0 -1 0 0 0 0 0 0 0 -1 0 0 0 0 0 0 0 0 -3 0 0 0 0 0 0 0 0 0 0 0 0 1 0 0 0 0 0 0 0 0 0 0 0 0 0 1 0 0 0 0 0 0 -1 0 0 0 0 0 0 0 0 0 0 0 0 0 0 0 0 0 0 1 0 0 -1 0 0 0 0 0 0 0 0 0 0 2 0zm-2 -90l2 0 0 90 -2 0 0 -90zm-3 -6l0 0 0 0 0 0 0 0 1 0 0 1 0 0 0 0 1 0 0 0 0 0 1 0 0 0 0 0 0 0 0 1 1 0 0 0 0 0 0 0 0 1 1 0 0 0 0 0 0 0 0 1 0 0 0 0 0 0 0 1 0 0 0 0 0 1 -2 0 0 -1 0 0 0 0 0 0 0 0 -1 0 0 0 0 0 0 0 0 0 0 -1 0 0 0 0 0 0 0 0 0 0 0 0 0 0 -1 0 0 0 0 0 0 0 0 0 0 -1 0 0 -1 0 0 0 0 0 0 0 0 0 0 0 0 0 0 0 0 -3z"/>
    </g>
    <g>
     <polygon class="fil1" points="33,18 33,32 16,32 "/>
     <path id="1" class="fil2" d="M34 32l-1 1 -2 -1 1 -14 3 0 -1 14zm0 0l0 1 -1 0 1 -1zm-18 1l0 -2 0 -1 17 0 0 3 -17 0zm0 0l-4 0 4 -2 0 2zm16 -16l3 1 -1 1 -17 14 -1 -2 16 -14zm0 0l3 -2 0 3 -3 -1z"/>
    </g>
    <g>
     <rect class="fil3" x="25" y="85" width="53.1888" height="5.88472" rx="2" ry="2"/>
     <rect class="fil3" x="25" y="99" width="53.189" height="5.88472" rx="2" ry="2"/>
     <rect class="fil3" x="25" y="66" width="53.1888" height="5.88472" rx="2" ry="2"/>
     <rect class="fil3" x="25" y="47" width="53.1888" height="5.88472" rx="2" ry="2"/>
    </g>
   </g>
   <g>
    <g>
     <polygon class="fil4" points="47,34 118,34 118,83 47,83 "/>
     <path id="1" class="fil5" d="M118 35l-71 0 0 -2 71 0 1 1 -1 1zm0 -2l1 0 0 1 -1 -1zm-1 50l0 -49 2 0 0 49 -1 1 -1 -1zm2 0l0 1 -1 0 1 -1zm-72 -1l71 0 0 2 -71 0 -1 -1 1 -1zm0 2l-1 0 0 -1 1 1zm1 -50l0 49 -2 0 0 -49 1 -1 1 1zm-2 0l0 -1 1 0 -1 1z"/>
    </g>
    <rect class="fil1" x="55" y="42" width="7.66514" height="6.61995"/>
    <rect class="fil1" x="67" y="42" width="7.66514" height="6.61995"/>
    <rect class="fil1" x="78" y="42" width="7.66514" height="6.61995"/>
    <rect class="fil1" x="90" y="42" width="7.66514" height="6.61995"/>
    <rect class="fil1" x="102" y="42" width="7.66514" height="6.61995"/>
    <rect class="fil1" x="55" y="52" width="7.66514" height="6.61995"/>
    <rect class="fil1" x="67" y="52" width="7.66514" height="6.61995"/>
    <rect class="fil3" x="78" y="52" width="7.66514" height="6.61995"/>
    <rect class="fil1" x="90" y="52" width="7.66514" height="6.61995"/>
    <rect class="fil1" x="102" y="52" width="7.66514" height="6.61995"/>
    <rect class="fil1" x="55" y="61" width="7.66514" height="6.61995"/>
    <rect class="fil1" x="67" y="61" width="7.66514" height="6.61995"/>
    <rect class="fil1" x="78" y="61" width="7.66514" height="6.61995"/>
    <rect class="fil1" x="90" y="61" width="7.66514" height="6.61995"/>
    <rect class="fil1" x="102" y="61" width="7.66514" height="6.61995"/>
    <rect class="fil1" x="55" y="70" width="7.66514" height="6.61995"/>
    <rect class="fil1" x="67" y="70" width="7.66514" height="6.61995"/>
    <rect class="fil1" x="78" y="70" width="7.66514" height="6.61995"/>
    <rect class="fil1" x="90" y="70" width="7.66514" height="6.61995"/>
    <rect class="fil1" x="102" y="70" width="7.66514" height="6.61995"/>
    <rect class="fil4" x="52" y="28" width="4.18091" height="11.8457" rx="1" ry="1"/>
    <rect class="fil4" x="108" y="28" width="4.18091" height="11.8457" rx="1" ry="1"/>
    <g>
     <path class="fil6" d="M82 56l16 -40c0,0 3,-7 6,-6 4,1 4,3 4,5 0,1 -4,6 -5,9 -1,3 -13,20 -13,20l-5 9c0,0 -3,3 -3,3 0,0 -1,0 0,0z"/>
     <path id="1" class="fil5" d="M99 16l-17 40 -1 0 17 -40 1 0 0 0zm6 -6l-1 1 0 0 0 0 0 0 -1 0 0 0 0 0 0 0 -1 0 0 0 0 0 0 0 -1 1 0 0 0 0 0 0 0 1 -1 0 0 0 0 1 0 0 0 0 0 0 -1 1 0 0 0 0 0 0 0 1 0 0 0 0 0 0 0 0 0 0 0 0 -1 0 0 0 0 0 0 0 0 0 0 -1 0 0 0 0 0 0 0 0 1 -1 0 0 0 0 0 -1 0 0 0 0 1 -1 0 0 0 0 0 0 1 -1 0 0 0 0 0 -1 1 0 0 0 0 0 1 0 0 0 0 0 1 0 0 0 1 0 0 0zm4 5l-1 0 0 0 0 0 0 -1 0 0 0 0 0 0 0 0 0 0 0 0 0 -1 0 0 0 0 0 0 -1 0 0 0 0 0 0 -1 0 0 0 0 0 0 0 0 0 0 0 0 -1 0 0 0 0 -1 0 0 0 0 -1 0 0 0 0 0 0 0 -1 0 1 -1 0 0 0 0 1 0 0 0 0 0 0 0 1 1 0 0 0 0 0 0 0 0 1 0 0 0 0 1 0 0 0 0 0 0 0 0 0 0 0 1 1 0 0 0 0 0 0 0 0 1 0 0 0 0 0 0 0 0 0 0 0 1 0 0 0 0zm-6 9l0 0 0 0 0 -1 0 0 0 0 0 0 0 -1 1 0 0 0 0 -1 0 0 0 0 1 -1 0 0 0 0 0 -1 1 0 0 0 0 -1 0 0 0 0 1 -1 0 0 0 0 0 -1 0 0 0 0 0 0 1 -1 0 0 0 0 0 0 0 0 0 0 1 0 0 0 0 0 0 0 0 1 -1 0 0 0 0 0 0 1 0 0 0 0 0 1 -1 0 0 0 0 0 0 1 0 0 -1 0 0 1 0 0 0 0 0 1 -1 0 0 0 0 1 0 0 -1 0 0 1 0 0 0 0 0 1 0 0 -1 0 0 0zm-12 20l-1 -1 0 0 0 0 0 0 0 0 0 0 1 -1 0 0 0 -1 1 0 0 -1 1 -1 0 0 1 -1 0 -1 1 -1 0 -1 1 0 0 -1 1 -1 0 -1 1 -1 1 -1 0 -1 1 0 0 -1 0 -1 1 -1 0 0 1 -1 0 0 0 -1 0 0 1 0 0 0 0 0 0 1 0 0 0 1 -1 0 0 1 -1 1 0 0 -1 1 0 1 -1 1 0 1 -1 0 0 1 -1 1 0 1 -1 1 -1 1 0 1 -1 0 0 1 -1 1 0 1 0 0 -1 1 0 0 -1 1 0 0 0 0 0 1 0 0 0 0 0 0zm-7 9l6 -10 1 1 -6 9 0 0 -1 0zm-1 4l-1 -1 0 0 0 0 0 0 0 0 0 0 0 0 0 -1 0 0 0 0 0 0 0 0 1 0 0 0 0 0 0 -1 0 0 0 0 0 0 0 0 0 0 0 0 1 -1 0 0 0 0 0 0 0 0 0 0 0 0 0 0 0 0 0 0 0 0 0 0 1 0 0 0 0 0 0 0 0 0 0 0 0 0 0 1 0 0 0 0 0 0 -1 0 0 0 0 0 0 0 0 1 0 0 0 0 0 0 0 0 0 0 -1 0 0 1 0 0 0 0 0 0 0 0 0 0 0 0 0 0 0 0 0 0 0 1 0 0zm-2 -1l1 0 0 0 0 0 0 0 0 0 0 0 0 0 0 0 0 0 0 0 0 0 0 0 0 0 0 0 0 0 0 0 0 0 0 0 0 0 0 0 0 0 0 0 0 0 0 0 0 0 0 0 0 0 0 0 0 0 0 0 0 0 0 0 0 0 0 0 1 1 0 0 0 0 -1 0 0 0 0 0 0 0 0 0 0 0 0 0 0 0 0 0 0 0 0 0 0 0 0 0 0 0 0 0 0 0 -1 0 0 0 0 0 0 0 0 -1 0 0 0 0 0 0 0 0 0 0 0 0 0 0 0 0 0 0 0 0zm0 0l0 0 0 0 0 0z"/>
    </g>
   </g>
  </g>
 </g>
</svg>
