<?xml version="1.0" encoding="UTF-8"?>
<!DOCTYPE svg PUBLIC "-//W3C//DTD SVG 1.1//EN" "http://www.w3.org/Graphics/SVG/1.1/DTD/svg11.dtd">
<!-- Creator: CorelDRAW X7 -->
<svg xmlns="http://www.w3.org/2000/svg" xml:space="preserve" width="120px" height="120px" version="1.1" style="shape-rendering:geometricPrecision; text-rendering:geometricPrecision; image-rendering:optimizeQuality; fill-rule:evenodd; clip-rule:evenodd"
viewBox="0 0 120 120"
 xmlns:xlink="http://www.w3.org/1999/xlink">
 <defs>
  <style type="text/css">
   <![CDATA[
    .fil0 {fill:none}
    .fil1 {fill:#FEFEFE}
    .fil8 {fill:#FEFEFE}
    .fil11 {fill:#00A2CF}
    .fil3 {fill:#2887D2}
    .fil7 {fill:#FEFEFE;fill-rule:nonzero}
    .fil4 {fill:#F58634;fill-rule:nonzero}
    .fil9 {fill:#00A2CF;fill-rule:nonzero}
    .fil10 {fill:#077CA1;fill-rule:nonzero}
    .fil2 {fill:#2887D2;fill-rule:nonzero}
    .fil5 {fill:#F0A71F;fill-rule:nonzero}
    .fil6 {fill:#FC4D44;fill-rule:nonzero}
   ]]>
  </style>
 </defs>
 <g id="Layer_x0020_1">
  <metadata id="CorelCorpID_0Corel-Layer"/>
  <rect class="fil0" width="120" height="120"/>
  <g id="_666046328">
   <g>
    <g>
     <g>
      <path class="fil1" d="M87 2l-70 0 -12 11 -3 2c0,0 -1,1 -1,2l0 98c0,1 2,3 4,3l82 0c2,0 4,-2 4,-3l0 -110c0,-2 -2,-3 -4,-3z"/>
      <path id="1" class="fil2" d="M17 3l-1 -2 1 0 70 0 0 2 -70 0zm-1 -2l0 0 1 0 -1 0zm-10 13l0 0 -2 -2 12 -11 2 2 -12 11zm0 0l0 0 0 0 0 0zm-3 2l-2 -2 0 0 3 -2 2 2 -3 2zm-2 -2l0 0 0 0 0 0zm-1 3l0 0 0 0 0 -1 0 0 0 0 0 0 0 0 0 0 0 0 0 0 0 0 0 0 0 0 0 0 0 0 0 0 0 0 0 -1 0 0 0 0 0 0 0 0 0 0 1 0 0 0 0 0 0 0 0 0 0 0 0 0 0 0 0 -1 0 0 2 2 0 0 0 0 0 0 0 0 0 0 0 0 0 0 0 0 0 0 0 0 0 0 0 0 0 0 0 0 0 0 0 0 0 0 0 0 0 0 0 0 0 0 0 0 0 0 0 0 0 0 0 0 0 0 0 0 0 1 0 0 0 0 0 0 0 0 -3 0zm3 98l-3 0 0 -98 3 0 0 98zm2 4l0 0 0 0 0 0 0 0 -1 0 0 0 0 0 0 0 -1 0 0 0 0 -1 0 0 0 0 -1 0 0 0 0 0 0 0 0 0 0 -1 -1 0 0 0 0 0 0 0 0 0 0 -1 0 0 0 0 -1 0 0 0 0 -1 0 0 0 0 0 0 3 0 0 0 0 0 0 0 0 0 0 0 0 0 0 0 0 0 0 0 0 0 0 1 0 0 0 0 0 0 0 0 0 0 1 0 0 0 0 0 0 0 0 0 0 0 0 0 0 0 0 0 1 0 0 0 0 1 0 0 0 0 0 0 0 0 0 0 0 2zm82 -2l0 2 -82 0 0 -2 82 0zm5 -2l0 0 0 0 0 0 0 0 0 1 0 0 0 0 -1 0 0 0 0 1 0 0 0 0 0 0 0 0 0 0 -1 1 0 0 0 0 0 0 0 0 -1 0 0 0 0 0 0 1 0 0 -1 0 0 0 0 0 0 0 -1 0 0 0 0 0 0 0 0 -2 0 0 0 0 0 0 0 0 0 -1 1 0 0 0 0 0 0 0 0 0 0 0 0 0 0 0 0 0 1 0 0 0 0 0 0 0 0 0 0 0 0 0 0 -1 0 0 0 0 0 0 0 0 0 0 0 0 0 0 0 0 0 0 0 0 0 0 3 0zm-3 -110l3 0 0 110 -3 0 0 -110zm-2 -4l0 0 0 0 0 0 0 0 1 0 0 0 0 0 0 0 1 0 0 0 0 0 0 0 0 1 1 0 0 0 0 0 0 0 0 0 1 0 0 1 0 0 0 0 0 0 0 0 0 0 0 1 1 0 0 0 0 0 0 1 0 0 0 0 0 0 -3 0 0 0 0 0 0 0 0 0 0 0 0 0 0 0 0 0 0 -1 0 0 0 0 0 0 0 0 0 0 0 0 0 0 0 0 -1 0 0 0 0 0 0 0 0 0 0 -1 0 0 0 0 0 0 -1 0 0 0 0 0 0 0 0 0 0 0 0 0 0 -2z"/>
     </g>
     <g>
      <polygon class="fil1" points="16,4 16,15 3,16 "/>
      <path id="1" class="fil2" d="M17 15l-1 2 -1 -2 0 -11 3 0 -1 11zm0 0l0 2 -1 0 1 -2zm-14 2l0 -2 0 -1 13 0 0 3 -13 0zm0 0l-3 0 3 -2 0 2zm13 -14l2 1 -1 1 -13 12 -1 -2 13 -12zm0 0l2 -2 0 3 -2 -1z"/>
     </g>
    </g>
    <g id="_666048416">
     <rect class="fil3" x="14" y="99" width="34.5211" height="4.9993" rx="1" ry="2"/>
     <rect class="fil3" x="14" y="88" width="34.5211" height="4.9993" rx="1" ry="2"/>
    </g>
   </g>
   <path class="fil1" d="M66 73l29 -23c1,-1 2,1 2,3l-2 36c0,1 -2,2 -3,3l-24 18c-1,1 -2,-1 -2,-2l-3 -33c0,-1 2,-1 3,-2z"/>
   <g>
    <polygon class="fil4" points="105,45 118,59 72,106 58,92 "/>
    <polygon class="fil4" points="55,108 72,106 58,92 "/>
    <polygon class="fil5" points="55,108 63,107 56,100 "/>
    <polygon class="fil6" points="105,45 119,59 113,64 99,50 "/>
    <polygon class="fil7" points="99,50 113,64 112,65 98,51 "/>
    <polygon class="fil7" points="64,98 104,58 105,59 65,99 "/>
    <polygon class="fil7" points="58,92 58,91 72,105 72,106 "/>
   </g>
   <g>
    <polygon class="fil8" points="56,24 13,24 24,60 56,60 "/>
    <g id="_666045752">
     <g>
      <polygon class="fil9" points="32,27 18,27 18,32 69,32 69,27 55,27 "/>
      <path class="fil9" d="M28 51c0,1 1,2 2,2 1,0 2,-1 2,-2l0 -13c0,-1 -1,-2 -2,-2 -1,0 -2,1 -2,2l0 13zm9 0c0,1 1,2 2,2 1,0 2,-1 2,-2l0 -13c0,-1 -1,-2 -2,-2 -1,0 -2,1 -2,2l0 13zm9 0c0,1 1,2 2,2 1,0 2,-1 2,-2l0 -13c0,-1 -1,-2 -2,-2 -1,0 -2,1 -2,2l0 13zm9 0c0,1 1,2 2,2 1,0 2,-1 2,-2l0 -13c0,-1 -1,-2 -2,-2 -1,0 -2,1 -2,2l0 13zm12 -19l-5 23c0,2 -2,3 -4,3l-29 0c-2,0 -4,-1 -4,-3l-5 -23 47 0z"/>
      <polygon class="fil10" points="21,35 20,32 67,32 66,35 "/>
     </g>
     <g>
      <path class="fil9" d="M33 62c4,0 7,3 7,7 0,4 -3,7 -7,7 -4,0 -7,-3 -7,-7 0,-4 3,-7 7,-7z"/>
      <path class="fil9" d="M54 62c4,0 7,3 7,7 0,4 -3,7 -7,7 -4,0 -7,-3 -7,-7 0,-4 3,-7 7,-7z"/>
     </g>
     <path class="fil11" d="M73 12c0,0 -1,1 -2,1l-9 20c-1,1 0,3 1,3l0 0c1,1 2,0 2,-1l10 -19 2 -1c1,0 2,-1 2,-2l0 0c0,-1 -1,-1 -2,-1l-4 0z"/>
    </g>
   </g>
  </g>
 </g>
</svg>
