<?xml version="1.0" encoding="UTF-8"?>
<!DOCTYPE svg PUBLIC "-//W3C//DTD SVG 1.1//EN" "http://www.w3.org/Graphics/SVG/1.1/DTD/svg11.dtd">
<!-- Creator: CorelDRAW X7 -->
<svg xmlns="http://www.w3.org/2000/svg" xml:space="preserve" width="85px" height="117px" version="1.1" style="shape-rendering:geometricPrecision; text-rendering:geometricPrecision; image-rendering:optimizeQuality; fill-rule:evenodd; clip-rule:evenodd"
viewBox="0 0 85 117"
 xmlns:xlink="http://www.w3.org/1999/xlink">
 <defs>
  <style type="text/css">
   <![CDATA[
    .fil5 {fill:#FEFEFE}
    .fil0 {fill:#FEFEFE}
    .fil3 {fill:#0098DA}
    .fil2 {fill:#2887D2}
    .fil1 {fill:#2887D2;fill-rule:nonzero}
    .fil4 {fill:url(#id0)}
   ]]>
  </style>
  <linearGradient id="id0" gradientUnits="userSpaceOnUse" x1="16.0452" y1="109.183" x2="68.956" y2="47.9913">
   <stop offset="0" style="stop-opacity:1; stop-color:#8A0000"/>
   <stop offset="0.631373" style="stop-opacity:1; stop-color:#AF0000"/>
   <stop offset="1" style="stop-opacity:1; stop-color:#D40000"/>
  </linearGradient>
 </defs>
 <g id="Layer_x0020_1">
  <metadata id="CorelCorpID_0Corel-Layer"/>
  <g id="_964935160">
   <g>
    <g>
     <g>
      <g>
       <g>
        <path class="fil0" d="M74 2l0 77c0,0 -56,-1 -56,1 0,1 0,-63 0,-63l9 -15 1 0c0,0 46,-1 46,0z"/>
        <path id="1" class="fil1" d="M75 79l-1 2 -1 -2 0 -77 2 0 0 77zm0 0l0 2 -1 0 1 -2zm-58 1l0 0 1 -2 1 0 1 0 1 0 1 0 2 0 1 0 2 0 2 -1 2 0 3 0 2 0 3 0 2 0 3 0 2 0 3 0 3 0 2 1 3 0 2 0 2 0 2 0 3 0 1 0 2 0 2 0 1 0 1 0 1 0 0 0 0 0 0 3 0 0 0 0 -1 0 -1 0 -1 0 -2 0 -2 0 -1 0 -3 0 -2 0 -2 0 -2 0 -3 0 -2 0 -3 0 -3 0 -2 -1 -3 0 -2 0 -3 0 -2 0 -3 1 -2 0 -2 0 -2 0 -1 0 -2 0 -1 0 -1 0 -1 0 0 0 1 -1 0 0 -3 0zm2 -62l0 -1 0 0 0 1 0 0 0 2 0 1 0 2 0 2 0 2 0 2 0 3 0 2 0 3 1 3 0 3 0 3 0 3 0 3 0 3 0 3 0 3 0 2 0 3 0 2 0 3 0 2 0 2 0 1 0 2 0 1 0 0 0 1 -3 0 3 0 -3 0 0 -1 0 0 0 -1 0 -2 0 -1 0 -2 0 -2 0 -3 0 -2 0 -3 0 -2 0 -3 0 -3 0 -3 0 -3 0 -3 0 -3 0 -3 0 -3 0 -3 0 -2 0 -3 0 -2 0 -2 0 -2 0 -2 0 -1 0 -2 0 0 0 -1 0 0 0 -1 2 2zm7 -17l1 0 1 2 -9 15 -2 -2 9 -15zm0 0l1 0 0 0 -1 0zm1 0l1 -1 1 3 -1 1 -1 -3 0 0zm0 0l0 -1 1 0 -1 1zm46 1l0 0 1 1 -1 0 0 0 -1 0 -1 0 -1 0 -2 0 -1 0 -2 0 -2 0 -2 0 -2 0 -2 0 -2 0 -2 0 -2 0 -2 0 -2 0 -2 0 -2 0 -2 0 -2 0 -2 0 -2 0 -1 0 -2 0 -1 0 -1 0 -1 0 -1 0 0 0 0 0 0 -3 0 0 0 0 1 0 1 0 1 0 1 0 2 0 1 0 2 0 2 0 2 0 2 0 2 0 2 0 2 0 2 0 2 0 2 0 2 0 2 0 2 0 2 0 2 0 2 0 1 0 2 0 1 0 1 0 1 0 0 0 1 0 1 2 0 0 -2 0z"/>
       </g>
       <path class="fil2" d="M28 3l1 10c0,0 0,3 -2,3 -2,1 -9,1 -9,1l10 -16 0 2z"/>
      </g>
      <rect class="fil2" transform="matrix(0.499274 -0.00179161 -0.00226543 -0.631309 26.1137 40.7683)" width="81.2737" height="7.29422"/>
      <rect class="fil2" transform="matrix(0.499274 -0.00179161 -0.00226543 -0.631309 26.0831 32.2451)" width="81.2737" height="7.29422"/>
      <rect class="fil2" transform="matrix(0.341229 -0.00122448 -0.00226543 -0.631309 38.8957 23.2159)" width="81.2737" height="7.29422"/>
      <rect class="fil2" transform="matrix(0.499274 -0.00179161 -0.00226543 -0.631309 26.1464 49.8715)" width="81.2737" height="7.29422"/>
      <rect class="fil2" transform="matrix(0.499274 -0.00179161 -0.00226543 -0.631309 26.179 58.9746)" width="81.2737" height="7.29422"/>
      <rect class="fil2" transform="matrix(0.499274 -0.00179161 -0.00226543 -0.631309 26.2113 67.9684)" width="81.2737" height="7.29422"/>
     </g>
     <g>
      <g>
       <path class="fil0" d="M67 7l1 78c0,0 -56,-1 -56,1 0,1 0,-63 0,-63l9 -15 0 0c0,0 46,-1 46,-1z"/>
       <path id="1" class="fil1" d="M69 85l-1 2 -2 -2 0 -78 3 0 0 78zm0 0l0 3 -1 -1 1 -2zm-59 1l0 0 1 -3 1 0 1 0 1 0 1 0 2 0 2 0 2 0 2 0 2 -1 2 0 2 0 3 0 3 0 2 0 3 0 2 1 3 0 2 0 3 0 2 0 3 0 2 0 2 0 2 0 1 0 2 0 1 0 1 0 1 0 0 0 1 0 0 4 -1 0 0 0 -1 0 -1 0 -1 0 -2 0 -1 0 -2 0 -2 0 -2 0 -3 0 -2 0 -3 0 -2 0 -3 0 -2 0 -3 0 -2 0 -3 0 -3 0 -2 0 -2 0 -2 0 -2 0 -2 0 -2 0 -1 0 -2 0 -1 1 0 0 0 0 1 -2 0 0 -4 0zm3 -62l0 -1 0 0 0 0 0 1 0 1 0 2 0 2 0 2 0 2 0 2 0 3 0 2 0 3 0 3 0 3 1 3 0 3 0 3 0 3 0 3 0 2 0 3 0 3 0 2 0 2 0 3 0 1 0 2 0 1 0 1 0 1 0 1 -4 0 4 0 -4 0 0 -1 0 -1 0 -1 0 -1 0 -2 0 -1 0 -3 0 -2 0 -2 0 -3 0 -3 0 -2 0 -3 0 -3 0 -3 0 -3 0 -3 0 -3 0 -3 0 -3 0 -2 0 -3 0 -2 0 -2 0 -2 0 -2 0 -2 0 -1 0 -1 0 0 0 0 0 -2 3 3zm6 -17l1 0 2 3 -9 14 -3 -3 9 -14zm0 0l0 0 1 0 -1 0zm1 -1l1 -1 2 4 -1 1 -2 -3 0 -1zm0 0l1 -1 0 0 -1 1zm46 1l0 0 1 3 0 0 -1 0 -1 0 -1 0 -1 0 -1 0 -2 0 -2 0 -1 0 -2 0 -2 0 -2 0 -2 0 -2 0 -3 0 -2 0 -2 0 -2 0 -2 0 -2 0 -2 0 -2 0 -1 0 -2 0 -1 0 -2 0 -1 0 0 0 -1 0 -1 0 0 0 0 -5 0 0 1 0 0 0 1 0 1 0 2 0 1 0 2 0 1 0 2 0 2 0 2 0 2 0 2 0 2 0 2 0 2 0 3 0 2 0 2 0 2 0 2 0 1 0 2 0 2 0 1 0 1 0 1 0 1 0 1 0 0 0 2 2 0 0 -3 0z"/>
      </g>
      <path class="fil2" d="M21 8l1 10c0,0 0,4 -2,4 -1,1 -9,1 -9,1l10 -16 0 1z"/>
     </g>
    </g>
    <g id="_964936192">
     <rect class="fil3" x="27" y="21" width="28.0789" height="5.15287"/>
     <rect class="fil3" x="22" y="30" width="18.1164" height="5.15287"/>
     <rect class="fil3" x="43" y="30" width="17.2696" height="5.15287"/>
     <rect class="fil3" x="22" y="39" width="18.1164" height="5.15287"/>
     <rect class="fil3" x="43" y="39" width="17.2696" height="5.15287"/>
     <rect class="fil3" x="22" y="49" width="18.1164" height="5.15287"/>
     <rect class="fil3" x="43" y="49" width="17.2696" height="5.15287"/>
     <rect class="fil3" x="22" y="59" width="18.1164" height="5.15287"/>
     <rect class="fil3" x="43" y="59" width="17.2696" height="5.15287"/>
    </g>
   </g>
   <g>
    <path class="fil4" d="M79 47l-7 70 -59 0 -6 -70 -3 0c-2,0 -4,-2 -4,-3l0 -1c0,-2 2,-3 4,-3l77 0c2,0 4,1 4,3l0 1c0,1 -2,3 -4,3l-2 0z"/>
    <g id="_964935376">
     <rect class="fil5" x="22" y="60" width="6.63339" height="42.6082" rx="3" ry="3"/>
     <rect class="fil5" x="39" y="60" width="6.63339" height="42.6082" rx="3" ry="3"/>
     <rect class="fil5" x="57" y="60" width="6.63339" height="42.6082" rx="3" ry="3"/>
    </g>
   </g>
  </g>
 </g>
</svg>
