<?xml version="1.0" encoding="UTF-8"?>
<!DOCTYPE svg PUBLIC "-//W3C//DTD SVG 1.1//EN" "http://www.w3.org/Graphics/SVG/1.1/DTD/svg11.dtd">
<!-- Creator: CorelDRAW X8 -->
<svg xmlns="http://www.w3.org/2000/svg" xml:space="preserve" width="45px" height="45px" version="1.1" style="shape-rendering:geometricPrecision; text-rendering:geometricPrecision; image-rendering:optimizeQuality; fill-rule:evenodd; clip-rule:evenodd"
viewBox="0 0 75 75"
 xmlns:xlink="http://www.w3.org/1999/xlink"
 enable-background="new 0 0 1000 1000">
 <defs>
  <style type="text/css">
   <![CDATA[
    .fil1 {fill:white}
    .fil0 {fill:white;fill-rule:nonzero}
   ]]>
  </style>
 </defs>
 <g id="Layer_x0020_1">
  <metadata id="CorelCorpID_0Corel-Layer"/>
  <path class="fil0" d="M9 48l0 1 0 0 0 -1 4 -15 5 0 -6 21 -5 0 -7 -21 5 0 4 15zm28 6l-5 0 0 -8 -7 0 0 8 -5 0 0 -21 5 0 0 9 7 0 0 -9 5 0 0 21zm8 -7l0 7 -5 0 0 -21 8 0c11,0 11,14 0,14l-3 0zm0 -4l3 0c2,0 3,-1 3,-3 0,-2 -1,-3 -3,-3l-3 0 0 6z"/>
  <g id="_2389724757136">
   <g>
    <path class="fil1" d="M67 40c0,0 0,0 0,0 0,-1 1,-1 2,-2 0,-1 1,-2 1,-3l4 0c-1,1 -1,1 -2,2 -1,1 -3,2 -5,3l0 0zm7 -9l1 0c0,1 0,2 -1,3l-3 0c0,-1 0,-2 0,-3l2 0 1 0zm-1 -1l-2 0c0,-1 0,-3 0,-4l1 0 1 0 1 0c1,1 1,3 1,4l-1 0 -1 0zm-1 -5l-2 0c0,-1 -1,-1 -1,-2 -1,-1 -2,-1 -2,-2 0,0 0,0 0,0l0 0c2,0 4,1 5,3 1,0 1,1 1,1l0 0 -1 0zm-2 1c0,1 0,3 0,4l-4 0 0 -4 4 0zm-1 -1l-3 0 0 -3c1,0 1,1 2,2 0,0 1,1 1,1l0 0zm-2 9l-1 0 0 -3 4 0c0,1 0,2 0,3l-2 0 -1 0zm1 1l1 0c0,1 -1,2 -1,2 -1,1 -1,1 -2,2l0 -4 1 0 1 0zm-6 -10c1,0 1,-1 2,-1 0,-1 1,-1 1,-2l0 3 -3 0zm0 10l3 0 0 4c0,-1 -1,-1 -1,-2 -1,0 -1,-1 -2,-2l0 0zm1 -5l-2 0c0,-1 0,-3 1,-4l3 0 0 4 -1 0 -1 0zm1 1l1 0 0 3 -3 0c-1,-1 -1,-2 -1,-3l2 0 1 0zm1 -10l0 0c0,0 0,0 0,0 -1,1 -2,1 -2,2 -1,1 -1,1 -2,2l-3 0c1,0 1,-1 1,-1 2,-2 4,-3 6,-3l0 0zm-6 16c0,-1 -1,-1 -1,-2l3 0c1,1 1,2 2,3 0,1 1,1 2,2 0,0 0,0 0,0 -2,-1 -4,-2 -6,-3l0 0zm-1 -7l-1 0c0,-1 0,-3 1,-4l3 0c-1,1 -1,3 -1,4l-1 0 -1 0zm1 1l1 0c0,1 0,2 1,3l-3 0c-1,-1 -1,-2 -1,-3l1 0 1 0zm0 0l0 0 0 0z"/>
   </g>
  </g>
 </g>
</svg>
