<?xml version="1.0" encoding="UTF-8"?>
<!DOCTYPE svg PUBLIC "-//W3C//DTD SVG 1.1//EN" "http://www.w3.org/Graphics/SVG/1.1/DTD/svg11.dtd">
<!-- Creator: CorelDRAW X7 -->
<svg xmlns="http://www.w3.org/2000/svg" xml:space="preserve" width="120px" height="120px" version="1.1" style="shape-rendering:geometricPrecision; text-rendering:geometricPrecision; image-rendering:optimizeQuality; fill-rule:evenodd; clip-rule:evenodd"
viewBox="0 0 120 120"
 xmlns:xlink="http://www.w3.org/1999/xlink">
 <defs>
  <style type="text/css">
   <![CDATA[
    .fil0 {fill:none}
    .fil4 {fill:#FEFEFE}
    .fil3 {fill:#00A2CF}
    .fil1 {fill:#00A2CF;fill-rule:nonzero}
    .fil2 {fill:#077CA1;fill-rule:nonzero}
    .fil5 {fill:#04870F;fill-rule:nonzero}
   ]]>
  </style>
 </defs>
 <g id="Layer_x0020_1">
  <metadata id="CorelCorpID_0Corel-Layer"/>
  <rect class="fil0" width="120" height="120"/>
  <g id="_155924816">
   <g>
    <g>
     <polygon class="fil1" points="79,37 102,37 102,45 17,45 17,37 40,37 "/>
     <path class="fil1" d="M85 76c0,2 -2,3 -3,3 -2,0 -3,-1 -3,-3l0 -22c0,-1 1,-3 3,-3 1,0 3,2 3,3l0 22zm-15 0c0,2 -1,3 -3,3 -2,0 -3,-1 -3,-3l0 -22c0,-1 1,-3 3,-3 2,0 3,2 3,3l0 22zm-15 0c0,2 -1,3 -3,3 -1,0 -3,-1 -3,-3l0 -22c0,-1 2,-3 3,-3 2,0 3,2 3,3l0 22zm-15 0c0,2 -1,3 -2,3 -2,0 -3,-1 -3,-3l0 -22c0,-1 1,-3 3,-3 1,0 2,2 2,3l0 22zm-19 -31l8 38c1,3 3,5 6,5l49 0c3,0 5,-2 6,-5l8 -38 -77 0z"/>
     <polygon class="fil2" points="97,50 98,45 21,45 22,50 "/>
    </g>
    <g>
     <path class="fil1" d="M77 94c-7,0 -12,5 -12,12 0,7 5,12 12,12 6,0 12,-5 12,-12 0,-7 -6,-12 -12,-12z"/>
     <path class="fil1" d="M42 94c-6,0 -12,5 -12,12 0,7 6,12 12,12 7,0 13,-5 13,-12 0,-7 -6,-12 -13,-12z"/>
    </g>
    <path class="fil3" d="M10 12c2,0 3,1 4,2l16 33c1,2 0,4 -2,5l0 0c-2,0 -4,0 -5,-2l-15 -32 -3 0c-2,-1 -3,-2 -3,-4l0 0c0,-1 1,-2 3,-2l5 0z"/>
   </g>
   <rect class="fil4" x="64" y="5" width="51.2295" height="51.2296" rx="4" ry="4"/>
   <g>
    <polygon class="fil5" points="112,53 112,18 108,21 108,50 70,50 70,12 99,12 102,8 67,8 67,53 "/>
    <polygon class="fil5" points="118,6 114,2 92,24 86,18 86,34 102,34 96,28 "/>
   </g>
  </g>
 </g>
</svg>
