<?xml version="1.0" encoding="UTF-8"?>
<!DOCTYPE svg PUBLIC "-//W3C//DTD SVG 1.1//EN" "http://www.w3.org/Graphics/SVG/1.1/DTD/svg11.dtd">
<!-- Creator: CorelDRAW X7 -->
<svg xmlns="http://www.w3.org/2000/svg" xml:space="preserve" width="120px" height="120px" version="1.1" style="shape-rendering:geometricPrecision; text-rendering:geometricPrecision; image-rendering:optimizeQuality; fill-rule:evenodd; clip-rule:evenodd"
viewBox="0 0 120 120"
 xmlns:xlink="http://www.w3.org/1999/xlink">
 <defs>
  <style type="text/css">
   <![CDATA[
    .fil0 {fill:none}
    .fil1 {fill:#FEFEFE}
    .fil6 {fill:#C0E7F9}
    .fil3 {fill:#00A859}
    .fil4 {fill:#2887D2}
    .fil5 {fill:#F6F6F6}
    .fil8 {fill:#FEFEFE;fill-rule:nonzero}
    .fil2 {fill:#00A859;fill-rule:nonzero}
    .fil7 {fill:#2887D2;fill-rule:nonzero}
    .fil9 {fill:#FC4D44;fill-rule:nonzero}
   ]]>
  </style>
 </defs>
 <g id="Layer_x0020_1">
  <metadata id="CorelCorpID_0Corel-Layer"/>
  <rect class="fil0" width="120" height="120"/>
  <rect class="fil0" x="35" y="35" width="49.9994" height="49.9994"/>
  <g id="_694668792">
   <g>
    <g>
     <g>
      <polygon class="fil1" points="2,44 118,44 118,108 2,108 "/>
      <path id="1" class="fil2" d="M118 45l-116 0 0 -2 116 0 1 1 -1 1zm0 -2l1 0 0 1 -1 -1zm-1 65l0 -64 2 0 0 64 -1 1 -1 -1zm2 0l0 1 -1 0 1 -1zm-117 -1l116 0 0 2 -116 0 -1 -1 1 -1zm0 2l-1 0 0 -1 1 1zm1 -65l0 64 -2 0 0 -64 1 -1 1 1zm-2 0l0 -1 1 0 -1 1z"/>
     </g>
     <path class="fil3" d="M118 42c0,0 0,0 0,0l0 -9c0,-1 -2,-2 -3,-2l-110 0c-1,0 -3,1 -3,2l0 9c0,0 0,0 0,0l116 0z"/>
    </g>
    <g>
     <g>
      <path class="fil4" d="M13 71l0 1 9 0 0 8 -9 0 1 1 8 0 0 8 -9 0 0 1 9 0 0 8 -8 1c0,0 -1,0 0,0 6,0 44,1 46,0 -1,-1 -9,-1 -11,-1l0 -8 9 0c3,0 -1,1 1,0l-10 -1 0 -8 9 0c2,0 1,1 2,-1l-11 0 0 -8 11 0c-1,-2 0,-1 -2,-1l-9 0 0 -8 6 0 0 3 0 -4 -41 0c-1,0 0,0 -1,1l9 0 -1 8 -8 0z"/>
      <path class="fil4" d="M13 62l0 1 9 0 0 8 -9 0 1 1 8 0 0 8 -9 0 0 1 9 0 0 8 -8 0c0,1 -1,1 0,1 6,0 44,1 46,0 -1,-1 -9,-1 -11,-1l0 -8 9 0c3,-1 -1,1 1,0l-10 -1 0 -8 9 0c2,0 1,0 2,-1l-11 0 0 -8 11 0c-1,-2 0,-1 -2,-1l-9 0 0 -8 10 0 1 3 -1 -4 -45 0c-1,0 0,0 -1,1l9 0 -1 8 -8 0z"/>
      <polygon class="fil5" points="35,71 37,71 46,71 48,71 48,63 35,63 "/>
      <polygon class="fil6" points="35,62 48,62 48,54 35,54 "/>
      <polygon class="fil5" points="35,89 48,89 48,81 35,81 "/>
      <polygon class="fil5" points="35,80 48,80 48,72 35,72 "/>
      <polygon class="fil6" points="22,62 34,62 34,54 22,54 "/>
      <polygon class="fil5" points="22,71 24,71 34,71 34,63 22,63 "/>
      <polygon class="fil5" points="22,80 34,80 34,72 22,72 "/>
      <polygon class="fil5" points="22,89 34,89 34,81 22,81 "/>
      <polygon class="fil6" points="13,62 21,62 22,54 13,54 "/>
      <polygon class="fil6" points="14,89 22,89 22,81 13,81 "/>
      <polygon class="fil6" points="13,71 22,71 22,63 13,63 "/>
      <polygon class="fil6" points="13,80 22,80 22,72 14,72 "/>
      <polygon class="fil6" points="14,99 22,99 22,90 13,90 "/>
      <polygon class="fil6" points="35,99 48,99 48,91 35,91 "/>
      <polygon class="fil6" points="22,99 34,99 34,90 22,90 "/>
      <polygon class="fil6" points="48,62 59,62 59,54 49,54 "/>
      <polygon class="fil6" points="48,99 60,99 60,91 49,91 "/>
     </g>
     <g>
      <path class="fil4" d="M60 71l0 1 8 0 0 8 -8 0 0 1 8 0 0 8 -8 0 0 1 8 0 0 8 -8 1c0,0 0,0 1,0 5,0 44,1 46,0 -2,-1 -9,-1 -12,-1l0 -8 10 0c3,0 -2,1 0,0l-10 -1 0 -8 9 0c2,0 1,1 2,-1l-11 0 0 -8 11 0c0,-2 0,-1 -2,-1l-9 0 0 -8 6 0 0 3 0 -4 -40 0c-1,0 -1,0 -1,1l8 0 0 8 -8 0z"/>
      <path class="fil4" d="M60 62l0 1 8 0 0 8 -8 0 0 1 8 0 0 8 -8 0 0 1 8 0 0 8 -8 0c0,1 0,1 1,1 5,0 44,1 46,0 -2,-1 -9,-1 -12,-1l0 -8 10 0c3,-1 -2,1 0,0l-10 -1 0 -8 9 0c2,0 1,0 2,-1l-11 0 0 -8 11 0c0,-2 0,-1 -2,-1l-9 0 0 -8 11 0 0 3 0 -4 -45 0c-1,0 -1,0 -1,1l8 0 0 8 -8 0z"/>
      <polygon class="fil5" points="81,71 83,71 93,71 94,71 94,63 81,63 "/>
      <polygon class="fil6" points="81,62 94,62 94,54 81,54 "/>
      <polygon class="fil5" points="81,89 94,89 94,81 81,81 "/>
      <polygon class="fil5" points="81,80 94,80 94,72 81,72 "/>
      <polygon class="fil6" points="69,62 81,62 81,54 69,54 "/>
      <polygon class="fil5" points="69,71 70,71 81,71 81,63 69,63 "/>
      <polygon class="fil5" points="69,80 81,80 81,72 69,72 "/>
      <polygon class="fil5" points="69,89 81,89 81,81 69,81 "/>
      <polygon class="fil6" points="60,62 68,62 68,54 60,54 "/>
      <polygon class="fil6" points="60,89 68,89 68,81 60,81 "/>
      <polygon class="fil6" points="60,71 68,71 68,63 60,63 "/>
      <polygon class="fil6" points="60,80 68,80 68,72 60,72 "/>
      <polygon class="fil6" points="60,99 68,99 68,90 60,90 "/>
      <polygon class="fil6" points="81,99 94,99 94,91 81,91 "/>
      <polygon class="fil6" points="69,99 81,99 81,90 69,90 "/>
      <polygon class="fil6" points="95,62 106,62 106,54 95,54 "/>
      <polygon class="fil6" points="95,99 107,99 107,91 95,91 "/>
     </g>
    </g>
   </g>
   <g id="_694671144">
    <polygon class="fil7" points="104,11 104,20 104,97 38,97 38,11 "/>
    <g>
     <polygon class="fil8" points="101,9 101,20 101,94 36,94 36,9 "/>
     <path id="1" class="fil7" d="M100 20l0 -11 2 0 0 11 -2 0 0 0zm0 74l0 -74 2 0 0 74 -1 2 -1 -2zm2 0l0 2 -1 0 1 -2zm-66 -1l65 0 0 3 -65 0 -1 -2 1 -1zm0 3l-1 0 0 -2 1 2zm1 -87l0 85 -2 0 0 -85 1 -2 1 2zm-2 0l0 -2 1 0 -1 2zm66 1l-65 0 0 -3 65 0 1 2 -1 1zm0 -3l1 0 0 2 -1 -2z"/>
    </g>
    <polygon class="fil7" points="48,23 47,23 47,16 44,17 44,15 48,14 48,14 "/>
    <path id="1" class="fil7" d="M50 36l-6 0 0 -1 3 -3c0,0 1,-1 1,-1 0,0 0,-1 0,-1 0,0 0,-1 0,-1 0,0 -1,0 -1,0 0,0 -1,0 -1,0 0,0 0,1 0,1l-2 0c0,0 0,-1 0,-1 0,-1 1,-1 1,-1 1,-1 1,-1 2,-1 1,0 2,0 2,1 1,0 1,1 1,2 0,0 0,1 -1,1 0,1 0,1 -1,2l-2 2 4 0 0 1z"/>
    <path id="2" class="fil7" d="M44 49c0,-1 0,-1 0,-1 1,0 1,0 1,0 0,0 1,0 1,0 0,0 0,0 0,1 0,0 0,0 0,0 0,1 -1,1 -1,1 0,0 0,0 -1,-1 0,0 0,0 0,0z"/>
    <path id="3" class="fil7" d="M44 62c0,0 0,-1 0,-1 1,0 1,0 1,0 0,0 1,0 1,0 0,0 0,1 0,1 0,0 0,0 0,1 0,0 -1,0 -1,0 0,0 0,0 -1,0 0,-1 0,-1 0,-1z"/>
    <path id="4" class="fil7" d="M44 75c0,0 0,0 0,0 1,-1 1,-1 1,-1 0,0 1,0 1,1 0,0 0,0 0,0 0,1 0,1 0,1 0,0 -1,0 -1,0 0,0 0,0 -1,0 0,0 0,0 0,-1z"/>
    <path id="5" class="fil7" d="M46 84l1 0c0,0 1,0 1,0 0,0 0,-1 0,-1 0,0 0,-1 0,-1 0,0 -1,0 -1,0 0,0 -1,0 -1,0 0,0 0,1 0,1l-2 0c0,-1 0,-1 0,-1 1,-1 1,-1 1,-1 1,0 1,-1 2,-1 1,0 2,1 2,1 1,1 1,1 1,2 0,0 0,1 -1,1 0,0 0,1 -1,1 1,0 1,0 2,1 0,0 0,0 0,1 0,1 0,1 -1,2 0,0 -1,1 -2,1 -1,0 -2,-1 -2,-1 -1,-1 -1,-1 -1,-2l2 0c0,0 0,1 0,1 0,0 1,0 1,0 0,0 1,0 1,0 0,0 0,-1 0,-1 0,-1 0,-1 -1,-1l-1 0 0 -2z"/>
    <path id="6" class="fil7" d="M57 86c0,1 0,2 -1,3 0,0 -1,1 -2,1 -1,0 -2,-1 -2,-1 -1,-1 -1,-2 -1,-3l0 -2c0,-1 0,-2 1,-3 0,0 1,-1 2,-1 1,0 2,1 2,1 1,1 1,2 1,3l0 2zm-2 -2c0,-1 0,-1 0,-2 0,0 0,0 -1,0 0,0 -1,0 -1,0 0,1 0,1 0,2l0 2c0,1 0,1 0,2 0,0 1,0 1,0 1,0 1,0 1,0 0,-1 0,-1 0,-2l0 -2z"/>
    <rect class="fil4" x="58" y="16" width="35.578" height="4.0475"/>
    <rect class="fil4" x="58" y="29" width="35.5778" height="4.0475"/>
    <rect class="fil4" x="62" y="83" width="12.4472" height="4.0475"/>
    <path class="fil2" d="M76 63c0,-1 0,-2 -1,-2 0,-1 -1,-1 -2,-2 -2,0 -3,-1 -4,-1 -1,-1 -1,-1 -2,-2 -1,0 -1,-1 -2,-2 0,-1 0,-2 0,-3 0,-2 0,-4 2,-5 1,-1 3,-2 5,-2l0 -2 0 -1 0 0 0 0c0,-1 0,-1 1,-1l1 0c0,0 1,0 1,1l0 0 0 0 0 1 0 2c2,0 3,1 5,3 1,1 1,2 1,4l0 1 0 0c0,0 0,1 -1,1l-2 0c-1,0 -2,0 -2,-1l0 0 0 0 0 0 0 -1 0 0c0,-1 0,-1 -1,-2 0,-1 -1,-1 -2,-1 -1,0 -2,0 -2,1 -1,0 -1,1 -1,2 0,1 0,2 1,2 0,1 1,1 3,2 1,0 2,1 3,1 1,1 2,2 2,2 1,1 1,2 2,2 0,1 0,2 0,3 0,2 0,4 -2,5 -1,1 -3,2 -5,2l0 2c0,0 0,0 0,0l0 1c0,0 0,1 -1,1l-1 0c0,0 -1,-1 -1,-1l0 -1c0,0 0,0 0,0l0 -2c-2,0 -4,-1 -5,-2 -2,-2 -2,-3 -2,-5l0 0c0,-1 1,-2 1,-2l2 0c1,0 2,1 2,2l0 0 0 0 0 0 0 0 0 0 0 0c0,1 0,1 1,2 1,1 2,1 3,1 1,0 2,0 2,-1 1,0 1,-1 1,-2z"/>
   </g>
   <path class="fil9" d="M89 98l2 -1 5 4c1,0 1,0 1,0 1,0 1,0 1,-1 0,0 0,0 0,0l-3 -16c0,-1 0,-1 0,-1 -1,0 -1,0 -1,0l-16 2c0,0 -1,0 -1,1 0,0 0,0 0,1 0,0 0,0 0,0l6 4 -1 2c-1,1 -1,2 -2,3 -4,5 -20,8 -26,8 -9,0 -25,-6 -35,-10 0,0 21,17 33,17 14,0 29,-1 37,-13z"/>
  </g>
 </g>
</svg>
