<?xml version="1.0" encoding="UTF-8"?>
<!DOCTYPE svg PUBLIC "-//W3C//DTD SVG 1.1//EN" "http://www.w3.org/Graphics/SVG/1.1/DTD/svg11.dtd">
<!-- Creator: CorelDRAW X7 -->
<svg xmlns="http://www.w3.org/2000/svg" xml:space="preserve" width="50px" height="50px" version="1.1" style="shape-rendering:geometricPrecision; text-rendering:geometricPrecision; image-rendering:optimizeQuality; fill-rule:evenodd; clip-rule:evenodd"
viewBox="0 0 50 50"
 xmlns:xlink="http://www.w3.org/1999/xlink">
 <defs>
  <style type="text/css">
   <![CDATA[
    .fil0 {fill:none}
    .fil1 {fill:#FEFEFE}
   ]]>
  </style>
 </defs>
 <g id="Layer_x0020_1">
  <metadata id="CorelCorpID_0Corel-Layer"/>
  <rect class="fil0" width="50" height="50"/>
  <g id="_534269240">
   <path class="fil1" d="M35 15l0 4c3,0 5,0 7,0 3,0 3,4 0,4 -2,0 -5,0 -7,0 0,4 0,8 0,12 2,0 4,0 5,0 0,-3 0,-5 0,-8 2,0 3,0 5,0 6,-1 6,-12 -1,-12l-4 0 -5 0z"/>
   <polygon class="fil1" points="6,15 10,29 14,15 20,15 13,35 7,35 0,15 "/>
   <polygon class="fil1" points="21,15 26,15 26,23 33,23 33,28 26,28 26,35 21,35 "/>
  </g>
 </g>
</svg>
