<?xml version="1.0" encoding="UTF-8"?>
<!DOCTYPE svg PUBLIC "-//W3C//DTD SVG 1.1//EN" "http://www.w3.org/Graphics/SVG/1.1/DTD/svg11.dtd">
<!-- Creator: CorelDRAW X7 -->
<svg xmlns="http://www.w3.org/2000/svg" xml:space="preserve" width="121px" height="120px" version="1.1" style="shape-rendering:geometricPrecision; text-rendering:geometricPrecision; image-rendering:optimizeQuality; fill-rule:evenodd; clip-rule:evenodd"
viewBox="0 0 120 119"
 xmlns:xlink="http://www.w3.org/1999/xlink">
 <defs>
  <style type="text/css">
   <![CDATA[
    .fil0 {fill:none}
    .fil1 {fill:#FEFEFE}
    .fil9 {fill:#FFF212}
    .fil6 {fill:#F58634}
    .fil4 {fill:#0098DA}
    .fil3 {fill:#2887D2}
    .fil5 {fill:#FEFEFE;fill-rule:nonzero}
    .fil8 {fill:#00AFEF;fill-rule:nonzero}
    .fil7 {fill:#1CC8EB;fill-rule:nonzero}
    .fil2 {fill:#2887D2;fill-rule:nonzero}
   ]]>
  </style>
 </defs>
 <g id="Layer_x0020_1">
  <metadata id="CorelCorpID_0Corel-Layer"/>
  <rect class="fil0" x="1" width="119" height="119"/>
  <g id="_579861848">
   <g>
    <g>
     <g>
      <g>
       <g>
        <g>
         <g>
          <path class="fil1" d="M85 10l1 78c0,0 -62,-1 -62,0 0,2 0,-63 0,-63l10 -14 1 -1c0,0 50,-1 50,0z"/>
          <path id="1" class="fil2" d="M87 88l-1 2 -2 -2 0 -78 3 0 0 78zm0 0l0 2 -1 0 1 -2zm-64 0l0 0 1 -1 1 -1 1 0 1 0 1 0 2 0 2 0 2 0 2 0 2 0 3 0 3 0 2 0 3 0 3 0 3 0 3 0 3 0 3 0 2 0 3 0 3 0 2 0 2 0 2 0 2 0 2 0 1 0 1 0 1 0 1 0 0 0 0 4 0 0 -1 0 -1 0 -1 0 -1 0 -2 0 -2 0 -2 0 -2 0 -3 0 -2 0 -3 -1 -2 0 -3 0 -3 0 -3 0 -3 0 -3 0 -3 0 -2 0 -3 0 -3 0 -2 0 -2 0 -2 0 -2 1 -2 0 -1 0 -1 0 -1 0 0 0 0 -2 0 0 -2 0zm2 -62l0 -1 0 0 0 1 0 1 0 1 0 1 0 2 0 2 0 2 0 3 0 2 0 3 0 3 0 2 0 3 0 3 0 3 0 3 0 3 0 3 0 3 0 3 0 2 0 3 0 2 0 2 0 2 0 2 0 1 0 1 0 1 0 0 -2 0 2 0 -2 0 0 0 0 -1 0 -1 0 -1 0 -2 0 -2 0 -2 0 -2 0 -3 0 -2 0 -3 0 -3 0 -3 0 -3 0 -3 0 -3 0 -3 0 -3 0 -2 0 -3 0 -3 0 -2 0 -3 0 -2 0 -2 0 -2 0 -1 0 -1 -1 -1 0 -1 0 0 1 -1 2 2zm8 -17l0 0 2 3 -10 14 -2 -2 10 -15zm0 0l0 0 0 0 0 0zm1 0l1 -1 1 3 -1 1 -2 -3 1 0zm0 0l0 -1 1 0 -1 1zm50 1l0 0 1 1 0 0 -1 0 -1 0 -1 0 -1 0 -2 0 -1 0 -2 0 -2 0 -2 0 -3 0 -2 0 -2 0 -3 0 -2 0 -2 0 -3 0 -2 0 -2 0 -2 1 -3 0 -2 0 -1 0 -2 0 -2 0 -1 0 -1 0 -1 0 -1 0 0 0 0 0 0 -4 0 0 0 0 1 0 1 0 1 0 1 0 2 0 2 0 1 0 2 0 3 0 2 0 2 0 2 0 3 0 2 0 2 0 3 0 2 0 2 0 3 0 2 0 2 0 2 0 1 0 2 0 1 0 1 0 1 0 1 0 0 0 2 2 0 0 -3 0z"/>
         </g>
         <g>
          <path class="fil3" d="M35 11l0 10c0,0 1,3 -1,4 -3,0 -10,0 -10,0l11 -16 0 2z"/>
          <path id="1" class="fil2" d="M36 21l-1 0 0 0 -1 -10 1 0 1 10zm-1 0l0 0 0 0 0 0zm-2 3l0 0 1 0 0 0 0 0 0 0 0 0 0 0 0 0 0 0 1 0 0 -1 0 0 0 0 0 0 0 0 0 0 0 -1 0 0 0 0 0 0 0 0 0 0 0 0 0 -1 0 0 0 0 0 0 0 0 0 0 0 0 0 0 0 0 0 0 1 0 0 0 0 0 0 0 0 0 0 0 0 0 0 0 0 0 0 0 0 1 0 0 0 0 -1 0 0 0 0 0 0 1 0 0 0 0 0 0 0 0 0 0 0 1 0 0 0 0 0 0 0 0 -1 0 0 0 0 1 0 0 0 0 0 0 0 0 -1 -1zm-9 1l0 0 0 0 0 0 0 0 0 0 0 0 0 0 1 0 0 0 0 0 0 0 1 0 0 0 1 0 0 0 0 0 1 0 0 0 1 0 0 0 0 0 1 0 0 0 1 0 0 0 0 0 1 0 0 0 0 0 1 0 0 0 0 -1 0 0 1 1 -1 0 0 0 0 0 0 0 -1 0 0 0 0 0 -1 0 0 0 -1 0 0 0 -1 0 0 0 0 0 -1 0 0 0 -1 0 0 0 0 0 -1 0 0 0 -1 0 0 0 0 0 0 0 -1 0 0 0 0 0 0 0 0 0 0 0 0 0 -1 0 1 0zm10 -16l1 0 0 1 -11 15 -1 0 11 -16zm0 0l1 0 0 0 -1 0zm1 2l-1 0 0 0 0 -2 1 0 0 2zm-1 0l0 0 0 0 0 0z"/>
         </g>
        </g>
        <rect class="fil3" transform="matrix(0.557219 -0.00182027 -0.00252836 -0.641408 32.5884 49.1567)" width="80.5355" height="7.22797"/>
        <rect class="fil3" transform="matrix(0.557219 -0.00182027 -0.00252836 -0.641408 32.5546 40.5757)" width="80.5355" height="7.22797"/>
        <rect class="fil3" transform="matrix(0.380832 -0.00124406 -0.00252836 -0.641408 46.7244 31.4854)" width="80.5355" height="7.22797"/>
        <rect class="fil3" transform="matrix(0.557219 -0.00182027 -0.00252836 -0.641408 32.6246 58.3214)" width="80.5355" height="7.22797"/>
        <rect class="fil3" transform="matrix(0.557219 -0.00182027 -0.00252836 -0.641408 32.6607 67.4862)" width="80.5355" height="7.22797"/>
        <rect class="fil3" transform="matrix(0.557219 -0.00182027 -0.00252836 -0.641408 32.6964 76.5409)" width="80.5355" height="7.22797"/>
       </g>
       <g>
        <g>
         <path class="fil1" d="M78 17l0 78c0,0 -62,-1 -62,0 0,2 0,-63 0,-63l10 -15 1 0c0,0 51,-1 51,0z"/>
         <path id="1" class="fil2" d="M79 95l-1 2 -1 -2 -1 -78 3 0 0 78zm0 0l0 2 -1 0 1 -2zm-64 0l0 0 1 -2 1 0 0 0 2 0 1 0 2 0 2 0 2 0 2 0 2 0 3 0 3 0 2 0 3 0 3 0 3 0 3 0 3 0 3 0 2 0 3 0 3 0 2 0 2 0 2 0 2 0 2 0 1 0 1 0 1 0 1 0 0 0 0 4 0 0 -1 0 -1 0 -1 0 -1 0 -2 -1 -2 0 -2 0 -2 0 -2 0 -3 0 -3 0 -2 0 -3 0 -3 0 -3 0 -3 0 -3 0 -3 0 -2 0 -3 0 -3 0 -2 0 -2 0 -2 0 -2 0 -2 0 -1 1 -1 0 -1 0 0 0 0 -2 0 0 -2 0zm2 -62l0 -1 0 0 0 1 0 0 0 2 0 1 0 2 0 2 0 2 0 2 0 3 0 3 0 2 0 3 0 3 0 3 0 3 0 3 0 3 0 3 0 3 0 3 0 2 0 3 0 2 0 2 0 2 0 2 0 1 0 1 0 1 0 0 -2 0 2 0 -2 0 0 0 0 -1 0 -1 0 -1 0 -2 0 -2 0 -2 0 -2 0 -3 0 -2 0 -3 0 -3 0 -3 0 -3 0 -3 0 -3 0 -3 0 -3 0 -3 0 -2 0 -3 0 -3 -1 -2 0 -2 0 -2 0 -2 0 -1 0 -2 0 0 0 -1 0 0 1 -1 2 2zm8 -17l0 0 2 3 -10 14 -2 -2 10 -15zm0 0l0 0 0 0 0 0zm1 -1l1 0 1 3 -1 1 -2 -3 1 -1zm0 0l0 0 1 0 -1 0zm50 2l0 0 1 1 0 0 -1 0 -1 0 -1 0 -1 0 -2 0 -1 0 -2 0 -2 0 -2 0 -3 0 -2 0 -2 0 -3 0 -2 0 -2 0 -3 0 -2 0 -2 0 -2 0 -3 0 -2 0 -1 0 -2 0 -2 0 -1 0 -1 0 -1 0 -1 0 0 0 0 0 0 -3 0 0 0 0 1 0 1 0 1 0 1 0 2 0 2 0 1 0 2 0 3 0 2 0 2 0 2 0 3 0 2 0 2 0 3 0 2 0 2 0 3 0 2 0 2 0 2 0 1 0 2 0 1 0 1 0 1 0 1 0 1 0 1 2 0 0 -3 0z"/>
        </g>
        <g>
         <path class="fil3" d="M27 17l0 11c0,0 1,3 -1,3 -3,1 -11,1 -11,1l12 -16 0 1z"/>
         <path id="1" class="fil2" d="M28 28l-1 0 0 0 -1 -11 1 0 1 11zm-1 0l0 0 0 0 0 0zm-2 3l0 0 1 0 0 0 0 0 0 0 0 0 0 0 0 0 0 -1 1 0 0 0 0 0 0 0 0 0 0 0 0 -1 0 0 0 0 0 0 0 0 0 0 0 0 0 -1 0 0 0 0 0 0 0 0 0 0 0 0 0 0 0 0 0 0 0 0 1 0 0 0 0 0 0 0 0 0 0 0 0 0 0 0 0 0 0 0 0 0 0 1 -1 0 0 0 0 0 0 0 0 0 0 1 0 0 0 0 0 0 0 0 0 0 0 1 0 0 0 0 0 0 -1 0 0 0 0 0 0 0 0 1 0 0 0 0 -1 -1zm-9 1l-1 0 1 0 0 0 0 0 0 0 0 0 0 0 0 0 1 0 0 0 0 0 1 0 0 0 1 0 0 0 0 0 1 0 0 0 1 0 0 0 0 0 1 0 0 0 1 0 0 0 0 -1 1 0 0 0 0 0 1 0 0 0 0 0 0 0 1 1 -1 0 0 0 0 0 0 0 -1 0 0 0 -1 0 0 0 0 0 -1 0 0 0 -1 0 0 0 0 0 -1 0 0 0 -1 0 0 0 0 0 -1 0 0 0 -1 0 0 0 0 0 -1 0 0 0 0 0 0 0 0 0 0 0 0 0 -1 0 0 0 1 0zm10 -16l1 0 0 0 -11 16 -1 0 11 -16zm0 0l1 0 0 0 -1 0zm1 1l-1 0 0 0 0 -1 1 0 0 1zm-1 0l0 0 0 0 0 0z"/>
        </g>
       </g>
      </g>
      <g id="_579830024">
       <rect class="fil4" x="29" y="30" width="39.8827" height="5.18775"/>
       <rect class="fil4" x="29" y="41" width="39.8834" height="5.18775"/>
       <rect class="fil4" x="29" y="53" width="39.8834" height="5.18775"/>
       <rect class="fil4" x="29" y="65" width="39.8834" height="5.18775"/>
       <rect class="fil4" x="29" y="78" width="39.8834" height="5.18775"/>
      </g>
     </g>
     <g>
      <path class="fil5" d="M22 63l-18 0 0 -7 18 0 3 2 -3 5zm0 -7l2 0 1 2 -3 -2zm29 17l0 7 0 0 -2 0 -1 0 -1 0 -1 -1 -2 0 -1 0 -1 0 -1 -1 -2 0 -1 0 -1 -1 -1 0 -1 -1 -1 0 -1 -1 -1 0 -1 -1 -1 -1 -1 0 -1 -1 -1 -1 -1 -1 -1 0 -1 -1 0 -1 -1 -1 -1 -1 -1 -1 0 -1 -1 -1 0 -1 -1 -1 6 -3 1 1 0 1 1 1 0 0 1 1 0 1 1 0 0 1 1 1 1 0 0 1 1 1 1 0 1 1 0 0 1 1 1 0 1 1 1 0 1 0 1 1 1 0 0 0 1 1 1 0 1 0 1 0 1 1 1 0 2 0 1 0 1 0 0 0zm28 -17l0 7 3 -2 0 1 -1 1 -1 1 0 1 -1 1 -1 1 0 1 -1 1 -1 1 -1 0 -1 1 -1 1 0 1 -1 0 -1 1 -1 1 -1 0 -1 1 -2 0 -1 1 -1 0 -1 1 -1 0 -1 0 -2 1 -1 0 -1 0 -1 0 -1 1 -2 0 -1 0 -1 0 0 -7 1 0 1 0 1 0 1 0 1 -1 1 0 1 0 1 0 1 -1 1 0 1 0 1 -1 0 0 1 0 1 -1 1 0 1 -1 1 0 0 -1 1 0 1 -1 1 -1 0 0 1 -1 0 -1 1 0 1 -1 0 -1 1 0 0 -1 0 -1 1 -1 3 -2zm-3 2l1 -2 2 0 -3 2zm22 5l-19 0 0 -7 19 0 3 4 -3 3zm0 -7l3 0 0 4 -3 -4zm-4 53l0 -49 7 0 0 49 -3 4 -4 -4zm7 0l0 4 -3 0 3 -4zm-97 -3l94 0 0 7 -94 0 -4 -4 4 -3zm0 7l-4 0 0 -4 4 4zm3 -53l0 49 -7 0 0 -49 4 -4 3 4zm-7 0l0 -4 4 0 -4 4z"/>
      <path id="1" class="fil6" d="M4 60l18 0c5,9 16,16 29,16 12,0 23,-7 28,-16l19 0 0 49 -94 0 0 -49z"/>
     </g>
    </g>
    <path class="fil7" d="M74 108c0,-1 8,-5 13,-7 3,-2 4,-4 3,-7 -1,-3 -3,-4 -6,-4l-9 0c3,-6 5,-12 7,-18 0,-2 0,-4 0,-6 0,-3 2,-6 4,-8 5,-5 13,-5 18,0 2,2 3,5 3,8 0,2 1,4 1,6 1,6 4,12 7,18l-10 0c-2,0 -5,1 -5,4 -1,3 0,5 2,7 5,2 14,6 14,7 1,0 1,1 1,1l-45 0c0,0 1,-1 2,-1z"/>
    <g>
     <path class="fil8" d="M53 109c19,0 14,1 47,0 1,-2 0,-5 -1,-9 -2,-4 -12,-5 -13,-5 -1,-1 -2,-2 -2,-3l0 -3c1,-1 1,-1 1,-1 2,-2 3,-4 3,-7 2,0 3,-2 3,-4l0 -4c0,-1 0,-2 -1,-3l0 -6c0,0 0,-4 -2,-7 -3,-2 -6,-4 -11,-4 -6,0 -5,2 -7,3 -2,1 -3,-1 -5,2 -2,3 -1,6 -1,6l0 6c-1,1 -1,2 -1,3l0 4c0,2 0,3 1,4 1,4 4,7 4,8l0 3c0,1 -1,2 -1,3l-10 2c-4,2 -4,10 -4,12z"/>
     <path id="1" class="fil5" d="M99 109l2 1 -1 0 -3 0 -3 1 -3 0 -2 0 -2 0 -2 0 -2 0 -2 0 -1 0 -2 0 -1 0 -1 0 -2 0 -1 0 -1 0 -1 0 -1 0 -1 0 0 0 -1 0 -1 0 -1 0 -1 0 -1 0 -1 0 -1 0 -2 0 -1 0 -1 -1 -2 0 -1 0 -2 0 0 -2 2 0 1 0 2 0 1 0 1 0 2 0 1 0 1 0 1 0 1 0 1 0 1 0 1 0 0 0 1 0 1 0 1 0 1 0 1 0 2 0 1 0 1 0 2 0 1 0 2 0 2 0 2 0 2 0 2 0 3 0 3 0 3 0 -1 1zm2 1l-1 0 0 0 1 0zm-3 -10l2 0 0 0 0 0 0 0 0 1 0 0 0 1 1 0 0 0 0 1 0 0 0 0 0 1 0 0 0 0 0 1 0 0 0 0 0 1 0 0 0 0 0 1 0 0 0 0 0 0 0 1 0 0 0 0 0 1 0 0 0 0 0 0 0 1 0 0 -2 -1 0 0 0 -1 0 0 0 0 0 0 0 0 0 0 0 -1 0 0 0 0 0 0 0 0 0 -1 0 0 0 0 0 0 0 -1 0 0 0 0 0 0 0 -1 0 0 0 0 -1 -1 0 0 0 0 0 -1 0 0 0 0 0 -1 0 0 0 -1 0 0zm-13 -4l1 -2 0 0 0 0 0 0 1 0 0 0 0 0 1 0 0 0 0 0 1 0 0 0 1 0 0 0 1 0 0 1 1 0 0 0 1 0 0 0 1 0 1 1 0 0 1 0 0 0 1 0 0 1 1 0 0 0 0 1 1 0 0 1 0 0 1 1 -2 0 -1 0 0 0 0 0 0 -1 0 0 -1 0 0 0 0 0 -1 -1 0 0 -1 0 0 0 -1 0 0 -1 -1 0 0 0 -1 0 0 0 -1 0 0 0 -1 0 0 -1 -1 0 0 0 -1 0 0 0 0 0 -1 0 0 0 0 0 0 0 -1 0 0 0zm0 0l0 0 0 0 0 0zm-2 -4l3 0 0 0 0 0 0 0 0 0 0 0 0 1 0 0 0 0 0 0 0 0 0 0 0 0 0 0 0 0 0 0 0 0 0 0 0 0 0 0 0 0 0 0 0 0 0 0 0 0 0 0 0 0 0 0 0 0 0 1 0 0 0 0 0 0 0 0 -1 2 0 0 0 0 0 0 0 -1 0 0 0 0 0 0 0 0 -1 0 0 0 0 0 0 0 0 0 0 -1 0 0 0 0 0 0 0 0 0 0 0 0 0 0 0 0 -1 -1 0 0 0 0 0 0 0 0 0 0 0 0 0 0 0 -1 0 0 0 0zm3 -3l0 3 -3 0 0 -3 1 -1 2 1zm-3 0l0 -1 1 0 -1 1zm1 -2l2 1 0 0 0 0 0 0 0 0 0 0 0 0 0 1 0 0 0 0 0 0 0 0 0 0 0 0 0 0 0 0 0 0 0 0 0 0 0 0 0 0 0 0 0 0 0 0 0 0 0 0 0 0 0 0 -1 0 0 0 0 0 0 0 0 0 0 0 -1 -1 0 0 0 0 0 0 0 0 0 0 0 0 0 0 0 0 0 0 0 0 0 0 0 0 0 0 0 0 0 -1 0 0 0 0 0 0 0 0 0 0 0 0 0 0 0 0 0 0 0 0 0 0 0 0 0 0 0 0 0 0 0 0 0 0 0 0zm0 0l0 0 0 0 0 0zm4 -7l1 2 0 0 0 0 0 0 0 0 0 1 0 0 0 0 0 0 0 0 0 1 0 0 0 0 -1 0 0 1 0 0 0 0 0 0 0 0 0 1 0 0 0 0 0 0 -1 0 0 1 0 0 0 0 0 0 0 0 0 1 0 0 -1 0 0 0 0 0 -2 -1 0 0 0 0 1 -1 0 0 0 0 0 0 0 0 0 0 0 -1 0 0 0 0 1 0 0 0 0 -1 0 0 0 0 0 0 0 0 0 0 0 -1 0 0 1 0 0 0 0 0 0 -1 0 0 0 0 0 0 0 0 0 -1 0 0 0 0 1 -1zm-1 1l0 0 1 -1 -1 1zm3 -4l2 0 0 0 0 1 0 0 0 0 0 0 0 0 0 1 0 0 0 0 0 0 0 0 0 1 0 0 0 0 -1 0 0 0 0 0 0 1 0 0 0 0 0 0 0 0 0 0 -1 0 0 1 0 0 0 0 0 0 0 0 -1 0 0 0 0 0 0 0 -1 -2 0 0 0 0 0 0 0 0 0 0 0 0 1 0 0 0 0 0 0 0 0 0 0 -1 0 0 0 0 0 0 0 0 0 0 0 0 0 0 0 0 1 0 0 0 0 -1 0 0 0 0 0 0 0 0 0 0 0 0 0 0 0 -1 0 0 0 0zm2 -4l0 4 -2 0 0 -4 0 0 2 0zm-3 -3l2 0 0 -1 0 0 0 1 0 0 0 0 0 0 0 0 0 0 0 0 0 0 0 0 1 1 0 0 0 0 0 0 0 0 0 0 0 0 0 0 0 0 0 1 0 0 0 0 0 0 0 0 0 0 0 0 0 0 0 1 0 0 0 0 0 0 0 0 -2 0 0 0 0 0 0 0 0 0 0 0 0 0 0 0 0 -1 0 0 0 0 0 0 0 0 0 0 0 0 0 0 0 0 0 0 0 0 -1 0 0 0 0 0 0 0 0 -1 0 0 0 0 0 0 0 0 0 0 0 0 0 0 0 0 0 0 0 -1zm0 1l0 0 0 -1 0 1zm2 -7l0 6 -2 0 0 -6 0 0 2 0zm-2 0l0 0 0 0 0 0zm-2 -6l1 -1 0 0 1 0 0 0 0 0 0 1 1 0 0 0 0 1 0 0 0 0 0 1 0 0 1 0 0 1 0 0 0 0 0 1 0 0 0 0 0 0 0 1 0 0 0 0 0 0 0 0 0 1 0 0 0 0 0 0 0 0 0 0 0 0 0 1 -2 -1 0 0 0 0 0 0 0 0 0 0 0 0 0 0 0 0 0 -1 0 0 0 0 0 0 0 0 0 -1 0 0 0 0 0 0 -1 0 0 -1 0 0 0 0 0 0 0 -1 0 0 0 0 0 0 0 -1 -1 0 0 0 0 0 0 -1 0 0 0 0zm-10 -3l0 -3 0 0 0 0 1 0 0 0 1 0 0 0 1 0 0 0 0 1 1 0 0 0 1 0 0 0 0 0 1 0 0 0 1 0 0 0 0 1 1 0 0 0 0 0 1 0 0 0 0 1 1 0 0 0 0 0 0 1 1 0 0 0 0 0 0 1 -1 1 -1 0 0 0 0 -1 0 0 0 0 -1 0 0 0 0 0 0 -1 -1 0 0 0 0 0 0 0 -1 0 0 0 0 0 -1 -1 0 0 0 0 -1 0 0 0 0 0 -1 0 0 0 0 0 -1 0 0 0 -1 0 0 0 0 0 -1 0 0 0 0 0zm-6 2l-1 -2 0 0 0 0 0 0 0 0 0 0 0 0 0 0 0 0 0 0 0 0 0 -1 1 0 0 0 0 0 0 0 0 0 0 0 1 -1 0 0 0 0 0 0 0 0 1 0 0 0 0 0 1 0 0 -1 0 0 1 0 0 0 1 0 0 0 1 0 0 3 -1 0 0 0 -1 0 0 0 0 0 -1 0 0 0 0 0 0 0 0 0 -1 0 0 0 0 0 0 0 0 0 0 0 0 0 0 1 0 0 -1 0 0 0 0 0 0 0 0 0 0 0 0 1 0 0 -1 0 0 0 0 0 0 0 0 0 0 0zm-5 1l-1 -1 0 0 0 0 0 -1 0 0 0 0 1 0 0 0 0 0 0 -1 1 0 0 0 0 0 0 0 0 0 1 0 0 0 0 0 0 0 0 0 0 0 1 0 0 0 0 0 0 0 0 0 0 0 0 0 0 0 0 0 0 0 0 0 0 0 1 0 1 2 -1 0 0 0 0 1 0 0 -1 0 0 0 0 0 0 0 0 0 0 0 -1 0 0 0 0 0 0 0 0 0 0 0 0 0 0 0 0 0 -1 0 0 0 0 0 0 0 0 0 0 0 0 0 0 0 0 0 0 0 0 0 -1 0 0 0 0 0zm-1 -1l0 0 0 0 0 0zm0 7l-3 0 0 1 0 0 0 -1 0 0 0 0 0 0 0 0 0 0 0 0 0 -1 0 0 0 0 0 0 0 0 0 -1 0 0 0 0 0 -1 0 0 1 0 0 0 0 -1 0 0 0 0 0 -1 0 0 0 0 0 -1 1 0 0 0 0 -1 0 0 1 0 1 1 0 1 0 0 0 0 0 0 -1 1 0 0 0 0 0 0 0 0 0 1 0 0 0 0 0 0 0 1 0 0 0 0 0 0 0 0 0 1 0 0 0 0 0 0 0 0 0 0 0 1 0 0 0 0 0 0 0 0 0 0 0 0 0 0 0 0zm0 0l0 0 0 0 0 0zm-3 6l0 -6 3 0 0 6 0 1 -3 -1zm3 0l0 1 0 0 0 -1zm-1 3l-3 0 0 0 0 0 0 0 0 0 0 0 0 -1 0 0 0 0 0 0 0 0 1 0 0 0 0 0 0 -1 0 0 0 0 0 0 0 0 0 0 0 0 0 0 0 0 0 -1 0 0 0 0 0 0 0 0 0 0 0 0 1 0 0 0 0 -1 0 0 2 2 -1 0 0 0 0 0 0 0 0 0 0 0 0 0 0 0 0 0 0 1 0 0 0 0 0 0 0 0 0 0 0 0 0 0 0 0 0 0 0 0 0 0 0 0 0 0 0 0 0 1 0 0 0 0 0 0 0 0 0 0 0 0 0 0 0 0zm-3 4l0 -4 3 0 0 4 0 0 -3 0zm4 4l-2 0 0 1 0 0 0 0 0 -1 0 0 0 0 0 0 0 0 0 0 -1 0 0 0 0 -1 0 0 0 0 0 0 0 0 0 0 0 0 0 -1 0 0 0 0 0 0 0 0 0 0 0 0 -1 -1 0 0 0 0 0 0 0 0 0 0 0 0 0 -1 3 0 0 0 0 1 0 0 0 0 0 0 0 0 0 0 0 0 0 0 0 0 0 0 0 0 0 1 0 0 0 0 0 0 0 0 0 0 0 0 0 0 0 0 0 0 0 0 0 0 0 0 1 1 0 0 0 0 0 0 0 0 0 0 0 0 0 1zm0 -1l0 0 0 1 0 -1zm5 9l-3 0 0 0 0 0 0 0 0 0 0 0 0 0 0 0 0 -1 0 0 -1 0 0 0 0 0 0 -1 0 0 0 0 0 0 -1 -1 0 0 0 0 0 0 0 -1 0 0 -1 0 0 -1 0 0 0 0 0 -1 0 0 0 0 -1 -1 0 0 0 -1 0 0 2 0 0 0 0 0 1 0 0 1 0 0 0 0 0 1 0 0 0 0 0 1 1 0 0 0 0 0 0 1 0 0 0 0 0 0 1 1 0 0 0 0 0 0 0 0 0 1 0 0 1 0 0 0 0 0 0 0 0 1 0 0 0 0 0 0 1 1zm-1 -1l1 0 0 1 -1 -1zm-2 4l0 -3 3 0 0 3 0 0 -3 0zm0 4l-1 -3 0 0 0 0 0 0 0 0 0 0 0 0 0 0 0 0 0 0 1 0 0 0 0 0 0 0 0 0 0 0 0 0 0 0 0 0 0 0 0 0 0 0 0 0 0 -1 0 0 0 0 0 0 0 0 0 0 0 0 0 0 0 0 0 0 0 0 3 0 0 0 0 0 -1 1 0 0 0 0 0 0 0 0 0 0 0 0 0 1 0 0 0 0 0 0 0 0 0 0 0 0 0 0 -1 0 0 1 0 0 0 0 0 0 0 0 0 0 0 0 0 0 0 0 0 0 -1 0 0 0 0 0 0 1 0 0zm0 0l0 0 0 0 0 0zm-10 0l9 -3 1 3 -10 3 -1 -3 1 0zm-1 0l0 0 1 0 -1 0zm-3 12l0 2 -1 -1 0 0 0 0 0 0 0 -1 0 0 0 -1 0 0 0 0 0 -1 0 0 0 -1 0 0 0 -1 0 0 0 -1 0 0 0 -1 0 0 1 -1 0 0 0 -1 0 0 0 0 1 -1 0 0 0 -1 0 0 1 -1 0 0 1 0 0 0 0 -1 1 2 0 1 0 0 0 0 -1 0 0 0 0 1 0 0 0 0 -1 1 0 0 0 0 0 1 0 0 0 1 0 0 -1 0 0 1 0 0 0 1 0 0 0 1 0 0 0 0 0 1 0 0 0 1 0 0 0 0 0 0 0 1 0 0 0 0 -1 -1zm0 2l-1 0 0 -1 1 1z"/>
    </g>
   </g>
   <polygon class="fil9" points="25,69 30,84 45,84 32,93 37,107 25,98 13,107 17,93 5,84 20,84 "/>
  </g>
 </g>
</svg>
