<?xml version="1.0" encoding="UTF-8"?>
<!DOCTYPE svg PUBLIC "-//W3C//DTD SVG 1.1//EN" "http://www.w3.org/Graphics/SVG/1.1/DTD/svg11.dtd">
<!-- Creator: CorelDRAW X7 -->
<svg xmlns="http://www.w3.org/2000/svg" xml:space="preserve" width="120px" height="120px" version="1.1" style="shape-rendering:geometricPrecision; text-rendering:geometricPrecision; image-rendering:optimizeQuality; fill-rule:evenodd; clip-rule:evenodd"
viewBox="0 0 120 120"
 xmlns:xlink="http://www.w3.org/1999/xlink">
 <defs>
  <style type="text/css">
   <![CDATA[
    .fil0 {fill:none}
    .fil1 {fill:#FEFEFE}
    .fil5 {fill:#2887D2}
    .fil3 {fill:#FEFEFE;fill-rule:nonzero}
    .fil6 {fill:#00A859;fill-rule:nonzero}
    .fil2 {fill:#2887D2;fill-rule:nonzero}
    .fil4 {fill:#FC4D44;fill-rule:nonzero}
   ]]>
  </style>
 </defs>
 <g id="Layer_x0020_1">
  <metadata id="CorelCorpID_0Corel-Layer"/>
  <rect class="fil0" width="120" height="120"/>
  <g id="_606873232">
   <g>
    <g>
     <path class="fil1" d="M112 2l-67 0 -14 12 -3 3c0,0 0,1 0,1l0 96c0,2 2,4 4,4l80 0c2,0 4,-2 4,-4l0 -108c0,-2 -2,-4 -4,-4z"/>
     <path id="1" class="fil2" d="M45 3l-1 -2 1 0 67 0 0 2 -67 0zm-1 -2l1 0 0 0 -1 0zm-12 14l0 0 -2 -2 14 -12 2 2 -14 12zm0 0l0 0 0 0 0 0zm-3 3l-2 -2 0 0 4 -3 1 2 -3 3zm-2 -2l0 0 0 0 0 0zm-1 2l0 0 0 0 0 0 0 0 0 0 0 0 0 0 0 0 0 0 0 0 0 0 0 0 0 0 0 0 0 -1 0 0 0 0 0 0 0 0 0 0 0 0 0 0 0 0 0 0 1 0 0 0 0 -1 0 0 0 0 0 0 0 0 0 0 0 0 2 1 0 0 0 0 0 0 0 0 0 0 0 0 0 0 0 0 0 1 0 0 0 0 0 0 0 0 0 0 0 0 0 0 0 0 0 0 0 0 0 0 0 0 0 0 0 0 0 0 0 0 0 0 0 0 0 0 0 0 0 0 0 0 0 0 0 0 -3 0zm3 96l-3 0 0 -96 3 0 0 96zm3 5l0 0 0 0 -1 0 0 0 0 0 0 0 -1 0 0 0 0 0 0 0 -1 0 0 0 0 0 0 -1 -1 0 0 0 0 0 0 0 0 0 -1 -1 0 0 0 0 0 0 0 0 0 -1 0 0 0 0 -1 0 0 -1 0 0 0 0 0 0 0 -1 3 0 0 0 0 1 0 0 0 0 0 0 0 0 0 0 0 0 0 0 0 0 0 0 0 1 1 0 0 0 0 0 0 0 0 0 0 0 0 0 0 0 0 0 0 0 1 0 0 0 0 0 0 0 0 1 0 0 0 0 1 0 0 0 0 0 0 0 0 2zm80 -2l0 2 -80 0 0 -2 80 0zm6 -3l0 0 0 1 0 0 0 0 0 0 -1 1 0 0 0 0 0 0 0 1 0 0 0 0 0 0 -1 0 0 1 0 0 0 0 0 0 -1 0 0 0 0 1 0 0 0 0 -1 0 0 0 0 0 0 0 -1 0 0 0 0 0 0 0 -1 0 0 0 0 -2 0 0 0 0 0 0 1 0 0 0 0 -1 0 0 0 0 0 0 0 0 1 0 0 0 0 0 0 0 0 0 0 0 0 0 0 0 0 0 0 0 1 -1 0 0 0 0 0 0 0 0 0 0 0 0 0 0 0 0 0 0 0 -1 0 0 0 0 3 0zm-3 -108l3 0 0 108 -3 0 0 -108zm-3 -5l0 0 0 0 1 0 0 0 0 0 0 0 1 0 0 0 0 0 0 0 1 0 0 0 0 0 0 1 0 0 1 0 0 0 0 0 0 0 0 1 1 0 0 0 0 0 0 0 0 1 0 0 0 0 0 0 1 1 0 0 0 0 0 0 0 1 -3 0 0 0 0 -1 0 0 0 0 0 0 0 0 0 0 0 0 0 0 0 0 0 0 -1 -1 0 0 0 0 0 0 0 0 0 0 0 0 0 0 0 0 0 0 -1 0 0 0 0 0 0 0 0 0 0 -1 0 0 -1 0 0 0 0 0 0 0 0 0 0 -2z"/>
    </g>
    <g>
     <polygon class="fil1" points="46,4 46,17 32,17 "/>
     <path id="1" class="fil2" d="M48 17l-2 1 -1 -1 0 -13 3 0 0 13zm0 0l0 1 -2 0 2 -1zm-16 1l-1 -2 1 0 14 -1 0 3 -14 0zm0 0l-4 1 3 -3 1 2zm13 -15l3 1 -1 1 -14 13 -2 -2 14 -13zm0 0l3 -3 0 4 -3 -1z"/>
    </g>
   </g>
   <g>
    <g>
     <path class="fil3" d="M108 33l0 0 0 1 0 1 0 1 0 1 0 1 0 1 0 0 0 1 0 1 0 1 0 0 0 1 0 1 0 0 0 1 0 1 0 0 0 1 0 1 0 0 0 1 0 1 0 1 0 0 0 1 0 1 0 1 0 0 0 1 0 1 0 1 0 1 -6 0 0 -1 0 -1 0 -1 0 -1 0 0 0 -1 0 -1 0 -1 0 0 0 -1 0 -1 0 -1 0 0 0 -1 0 -1 0 0 0 -1 0 -1 0 0 0 -1 0 -1 0 0 0 -1 0 -1 0 -1 0 0 0 -1 0 -1 0 -1 0 -1 0 -1 0 -1 0 0 6 0zm-11 -13l0 0 1 0 1 0 0 0 1 0 0 0 1 0 0 1 1 0 0 0 1 1 0 0 1 0 0 1 0 0 1 1 0 0 0 1 1 0 0 1 0 0 0 1 1 0 0 1 0 0 0 1 0 1 0 0 1 1 0 0 0 1 0 1 0 0 -6 0 0 0 0 -1 0 0 0 0 -1 -1 0 0 0 -1 0 0 0 0 0 -1 0 0 0 0 0 -1 -1 0 0 0 0 0 0 -1 0 0 0 0 -1 0 0 0 0 -1 0 0 0 0 0 0 -1 0 0 0 0 0 0 0 0 0 0 0 -1 0 0 0 0 -6zm-51 0l0 0 2 0 2 0 1 0 2 0 1 0 2 0 2 0 1 0 2 0 1 0 2 0 2 0 1 0 2 0 1 0 2 0 2 0 1 0 2 0 1 0 2 0 2 0 1 0 2 0 1 0 2 0 2 0 1 0 2 0 1 0 2 0 1 0 0 6 -1 0 -2 0 -1 0 -2 0 -1 0 -2 0 -2 0 -1 0 -2 0 -1 0 -2 0 -2 0 -1 0 -2 0 -1 0 -2 0 -2 0 -1 0 -2 0 -1 0 -2 0 -2 0 -1 0 -2 0 -1 0 -2 0 -2 0 -1 0 -2 0 -1 0 -2 0 -2 0 0 0 0 -6zm-10 13l0 0 0 0 0 -1 0 -1 0 0 0 -1 1 0 0 -1 0 -1 0 0 0 -1 0 0 1 -1 0 0 0 -1 0 0 1 -1 0 0 0 -1 1 0 0 -1 1 0 0 0 1 -1 0 0 0 0 1 -1 1 0 0 0 1 0 0 0 1 0 0 0 0 6 0 0 0 0 0 0 0 0 0 0 0 0 -1 0 0 0 0 0 0 0 0 1 0 0 -1 0 0 0 0 0 0 1 0 0 0 0 -1 0 0 1 0 0 0 0 0 1 0 0 0 0 0 1 -1 0 0 1 0 0 0 0 0 1 0 0 0 0 -6 0zm0 25l0 0 0 -1 0 -1 0 -1 0 -1 0 0 0 -1 0 -1 0 -1 0 0 0 -1 0 -1 0 -1 0 0 0 -1 0 -1 0 0 0 -1 0 -1 0 0 0 -1 0 -1 0 0 0 -1 0 -1 0 -1 0 0 0 -1 0 -1 0 -1 0 -1 0 -1 0 -1 6 0 0 1 0 1 0 1 0 1 0 1 0 1 0 0 0 1 0 1 0 1 0 0 0 1 0 1 0 0 0 1 0 1 0 0 0 1 0 1 0 0 0 1 0 1 0 1 0 0 0 1 0 1 0 1 0 0 0 1 0 1 0 1 0 1 0 0 -6 0zm10 14l0 0 0 0 -1 0 0 -1 -1 0 0 0 -1 0 -1 0 0 -1 0 0 -1 0 0 -1 -1 0 0 0 -1 -1 0 0 0 -1 -1 0 0 -1 0 0 0 -1 -1 0 0 -1 0 0 0 -1 0 -1 0 0 -1 -1 0 0 0 -1 0 -1 0 0 0 -1 6 0 0 1 0 0 0 0 0 1 0 0 1 1 0 0 0 0 0 1 0 0 0 0 0 1 0 0 1 0 0 1 0 0 0 0 0 0 0 0 1 1 0 0 0 0 0 0 0 0 0 0 1 0 0 0 0 0 0 0 0 1 0 0 0 0 0 0 0 6zm29 -1l2 1 -1 0 -1 0 -1 0 -1 0 -1 0 -1 0 -1 0 -1 0 -1 0 -1 0 -1 0 -1 0 -1 0 0 0 -1 0 -1 0 -1 0 -1 0 -1 0 -1 0 -1 0 -1 0 -1 0 -1 0 -1 0 -1 0 -1 0 -1 0 -1 0 -1 0 -1 0 -1 0 0 -6 1 0 1 0 1 0 1 0 1 0 1 0 1 0 1 0 1 0 1 0 1 0 1 0 1 0 1 0 1 0 1 0 1 0 1 0 0 0 1 0 1 0 1 0 1 0 1 0 1 0 1 0 1 0 1 0 1 0 1 0 1 0 1 0 2 0 -4 5zm2 -5l1 0 1 0 -2 0zm18 15l-5 3 0 -1 -1 0 0 -1 -1 0 -1 -1 0 0 -1 -1 0 0 0 0 -1 -1 0 0 -1 0 0 -1 -1 0 0 0 0 -1 -1 0 0 0 0 -1 -1 0 0 0 -1 -1 0 0 -1 0 0 -1 -1 0 0 -1 -1 0 0 -1 -1 0 0 -1 -1 0 4 -5 0 1 1 0 1 1 0 0 1 1 0 0 1 0 0 1 1 0 0 1 1 0 0 0 0 1 1 0 0 0 1 1 0 0 0 0 1 1 0 0 1 0 0 1 0 0 1 0 0 1 1 0 0 0 1 1 0 0 1 1 1 0 0 1 -5 3 6 -1zm0 0l1 7 -6 -4 5 -3zm-3 -9l3 -4 0 0 0 1 0 0 0 0 0 0 0 1 0 0 0 0 0 0 0 1 0 0 0 0 0 1 0 0 0 1 0 0 0 0 0 1 0 0 0 1 0 0 0 1 0 0 0 1 0 0 0 1 0 0 0 1 0 0 0 1 0 0 0 1 -6 1 0 -1 0 -1 0 0 0 -1 0 0 0 -1 0 0 0 -1 0 0 0 -1 0 0 0 -1 0 0 0 -1 0 0 0 -1 0 0 0 0 0 -1 0 0 0 -1 0 0 0 0 0 -1 0 0 0 0 0 0 0 -1 0 0 0 0 0 0 0 0 3 -3 0 6zm-3 -3l-1 -3 4 0 -3 3zm8 3l0 0 0 0 0 0 0 0 0 0 0 0 -1 0 0 0 0 0 0 0 0 0 -1 0 0 0 0 0 0 0 0 0 0 0 -1 0 0 0 0 0 0 0 0 0 -1 0 0 0 0 0 0 0 0 0 0 0 -1 0 0 0 0 0 0 0 0 0 0 -6 0 0 0 0 0 0 0 0 1 0 0 0 0 0 0 0 0 0 0 0 1 0 0 0 0 0 0 0 0 0 1 0 0 0 0 0 0 0 0 0 0 0 1 0 0 0 0 0 0 0 0 0 1 0 0 0 0 0 0 0 0 0 0 0 0 0 0 6zm11 -14l0 0 0 1 0 0 0 1 0 1 -1 0 0 1 0 0 0 1 0 1 0 0 -1 1 0 0 0 1 0 0 -1 1 0 0 0 1 -1 0 0 1 0 0 -1 0 0 1 -1 0 0 0 -1 1 0 0 -1 0 0 0 -1 0 0 1 -1 0 -1 0 0 -6 1 0 0 0 0 -1 0 0 0 0 0 0 1 0 0 0 0 0 0 0 0 0 0 0 1 -1 0 0 0 0 0 0 0 0 0 -1 1 0 0 0 0 -1 0 0 0 0 0 -1 0 0 0 0 0 -1 1 0 0 -1 0 0 0 0 0 -1 0 0 6 0z"/>
     <path id="1" class="fil4" d="M105 58c0,-10 0,-14 0,-25 0,-6 -4,-10 -8,-10 -17,0 -34,0 -51,0 -4,0 -7,4 -7,10 0,11 0,15 0,25 0,6 3,11 7,11 11,0 21,0 31,0 7,6 8,6 15,12 0,-6 0,-11 0,-12 2,0 4,0 5,0 4,0 8,-5 8,-11z"/>
    </g>
    <g>
     <path class="fil3" d="M82 53c-3,0 -5,2 -5,5 0,2 2,4 5,4 2,0 5,-2 5,-4 0,-3 -3,-5 -5,-5z"/>
     <path class="fil3" d="M89 35c0,-1 0,-1 -1,-1l-27 0 -2 -5c0,-1 0,-1 -1,-1l-5 0c-1,0 -1,0 -1,1 0,1 0,1 1,1l4 0 4 20c0,0 1,1 2,1l22 0c1,0 1,-1 1,-1l4 -14c0,0 0,0 0,0l0 -1c0,0 0,0 -1,0z"/>
     <path class="fil3" d="M65 53c-3,0 -5,2 -5,5 0,2 2,4 5,4 2,0 4,-2 4,-4 0,-3 -2,-5 -4,-5z"/>
    </g>
    <rect class="fil5" x="66" y="98" width="39.0827" height="5.6599" rx="2" ry="2"/>
    <rect class="fil5" x="66" y="85" width="39.0827" height="5.6599" rx="2" ry="2"/>
   </g>
   <rect class="fil1" x="22" y="86" width="15.8306" height="24.1311" rx="1" ry="2"/>
   <polygon class="fil6" points="4,102 4,90 38,90 38,80 59,96 38,113 38,102 "/>
  </g>
 </g>
</svg>
