<?xml version="1.0" encoding="UTF-8"?>
<!DOCTYPE svg PUBLIC "-//W3C//DTD SVG 1.1//EN" "http://www.w3.org/Graphics/SVG/1.1/DTD/svg11.dtd">
<!-- Creator: CorelDRAW X7 -->
<svg xmlns="http://www.w3.org/2000/svg" xml:space="preserve" width="120px" height="120px" version="1.1" style="shape-rendering:geometricPrecision; text-rendering:geometricPrecision; image-rendering:optimizeQuality; fill-rule:evenodd; clip-rule:evenodd"
viewBox="0 0 120 120"
 xmlns:xlink="http://www.w3.org/1999/xlink">
 <defs>
  <style type="text/css">
   <![CDATA[
    .fil0 {fill:none}
    .fil1 {fill:#FEFEFE}
    .fil5 {fill:#FEFEFE}
    .fil8 {fill:#00A2CF}
    .fil3 {fill:#2887D2}
    .fil6 {fill:#00A2CF;fill-rule:nonzero}
    .fil7 {fill:#077CA1;fill-rule:nonzero}
    .fil9 {fill:#00A859;fill-rule:nonzero}
    .fil4 {fill:#04870F;fill-rule:nonzero}
    .fil2 {fill:#2887D2;fill-rule:nonzero}
   ]]>
  </style>
 </defs>
 <g id="Layer_x0020_1">
  <metadata id="CorelCorpID_0Corel-Layer"/>
  <rect class="fil0" width="120" height="120"/>
  <g id="_727324920">
   <g>
    <g>
     <path class="fil1" d="M112 2l-67 0 -14 12 -3 3c0,0 0,1 0,1l0 96c0,2 2,4 4,4l80 0c2,0 4,-2 4,-4l0 -108c0,-2 -2,-4 -4,-4z"/>
     <path id="1" class="fil2" d="M45 3l-1 -2 1 0 67 0 0 2 -67 0zm-1 -2l1 0 0 0 -1 0zm-12 14l0 0 -2 -2 14 -12 2 2 -14 12zm0 0l0 0 0 0 0 0zm-3 3l-2 -2 0 0 4 -3 1 2 -3 3zm-2 -2l0 0 0 0 0 0zm-1 2l0 0 0 0 0 0 0 0 0 0 0 0 0 0 0 0 0 0 0 0 0 0 0 0 0 0 0 0 0 -1 0 0 0 0 0 0 0 0 0 0 0 0 0 0 0 0 0 0 1 0 0 0 0 -1 0 0 0 0 0 0 0 0 0 0 0 0 2 1 0 0 0 0 0 0 0 0 0 0 0 0 0 0 0 0 0 1 0 0 0 0 0 0 0 0 0 0 0 0 0 0 0 0 0 0 0 0 0 0 0 0 0 0 0 0 0 0 0 0 0 0 0 0 0 0 0 0 0 0 0 0 0 0 0 0 -3 0zm3 96l-3 0 0 -96 3 0 0 96zm3 5l0 0 0 0 -1 0 0 0 0 0 0 0 -1 0 0 0 0 0 0 0 -1 0 0 0 0 0 0 -1 -1 0 0 0 0 0 0 0 0 0 -1 -1 0 0 0 0 0 0 0 0 0 -1 0 0 0 0 -1 0 0 -1 0 0 0 0 0 0 0 -1 3 0 0 0 0 1 0 0 0 0 0 0 0 0 0 0 0 0 0 0 0 0 0 0 0 1 1 0 0 0 0 0 0 0 0 0 0 0 0 0 0 0 0 0 0 0 1 0 0 0 0 0 0 0 0 1 0 0 0 0 1 0 0 0 0 0 0 0 0 2zm80 -2l0 2 -80 0 0 -2 80 0zm6 -3l0 0 0 1 0 0 0 0 0 0 -1 1 0 0 0 0 0 0 0 1 0 0 0 0 0 0 -1 0 0 1 0 0 0 0 0 0 -1 0 0 0 0 1 0 0 0 0 -1 0 0 0 0 0 0 0 -1 0 0 0 0 0 0 0 -1 0 0 0 0 -2 0 0 0 0 0 0 1 0 0 0 0 -1 0 0 0 0 0 0 0 0 1 0 0 0 0 0 0 0 0 0 0 0 0 0 0 0 0 0 0 0 1 -1 0 0 0 0 0 0 0 0 0 0 0 0 0 0 0 0 0 0 0 -1 0 0 0 0 3 0zm-3 -108l3 0 0 108 -3 0 0 -108zm-3 -5l0 0 0 0 1 0 0 0 0 0 0 0 1 0 0 0 0 0 0 0 1 0 0 0 0 0 0 1 0 0 1 0 0 0 0 0 0 0 0 1 1 0 0 0 0 0 0 0 0 1 0 0 0 0 0 0 1 1 0 0 0 0 0 0 0 1 -3 0 0 0 0 -1 0 0 0 0 0 0 0 0 0 0 0 0 0 0 0 0 0 0 -1 -1 0 0 0 0 0 0 0 0 0 0 0 0 0 0 0 0 0 0 -1 0 0 0 0 0 0 0 0 0 0 -1 0 0 -1 0 0 0 0 0 0 0 0 0 0 -2z"/>
    </g>
    <g>
     <polygon class="fil1" points="46,4 46,17 32,17 "/>
     <path id="1" class="fil2" d="M48 17l-2 1 -1 -1 0 -13 3 0 0 13zm0 0l0 1 -2 0 2 -1zm-16 1l-1 -2 1 0 14 -1 0 3 -14 0zm0 0l-4 1 3 -3 1 2zm13 -15l3 1 -1 1 -14 13 -2 -2 14 -13zm0 0l3 -3 0 4 -3 -1z"/>
    </g>
   </g>
   <g>
    <g id="_727326168">
     <g>
      <rect class="fil3" x="73" y="28" width="33.924" height="5.67762" rx="1" ry="2"/>
      <rect class="fil3" x="73" y="15" width="33.924" height="5.67762" rx="1" ry="2"/>
     </g>
     <path class="fil4" d="M64 29c0,-1 0,-2 -1,-2 0,-1 -1,-1 -2,-2 -2,0 -3,0 -3,-1 -1,0 -2,-1 -3,-1 0,-1 -1,-2 -1,-2 0,-1 0,-2 0,-3 0,-2 0,-3 1,-5 1,-1 3,-1 5,-2l0 -1 0 -1 0 0 0 0c0,-1 0,-1 1,-1l1 0c0,0 0,0 0,1l0 0 0 0 0 1 0 2c2,0 4,1 5,2 1,1 1,2 1,4l0 0 0 0c0,1 0,2 -1,2l-2 0c0,0 -1,-1 -1,-2l0 0 0 0 0 0 0 0 0 0c0,-1 0,-1 -1,-2 0,-1 -1,-1 -2,-1 -1,0 -2,0 -2,1 -1,0 -1,1 -1,2 0,1 0,1 1,2 0,0 1,1 3,1 1,1 2,1 3,2 0,0 1,1 2,1 0,1 1,2 1,2 0,1 0,2 0,3 0,2 0,3 -1,4 -1,1 -3,2 -5,2l0 1c0,0 0,1 0,1l0 1c0,0 0,1 -1,1l-1 0c0,0 0,-1 0,-1l0 -1c0,0 0,-1 0,-1l0 -1c-3,0 -4,-1 -6,-2 -1,-1 -1,-2 -1,-5l0 0c0,0 0,-1 1,-1l2 0c1,0 1,1 1,1l0 0 0 0 0 0 0 0 0 0 0 0c0,2 1,2 1,3 1,0 2,1 3,1 1,0 1,-1 2,-1 1,-1 1,-1 1,-2z"/>
    </g>
    <polygon class="fil5" points="65,40 112,41 101,79 65,79 "/>
    <g id="_727325400">
     <g>
      <polygon class="fil6" points="92,44 107,44 107,50 51,50 51,44 67,44 "/>
      <path class="fil6" d="M96 70c0,1 -1,2 -2,2 -1,0 -2,-1 -2,-2l0 -14c0,-2 1,-2 2,-2 1,0 2,0 2,2l0 14zm-10 0c0,1 -1,2 -2,2 -1,0 -2,-1 -2,-2l0 -14c0,-2 1,-2 2,-2 1,0 2,0 2,2l0 14zm-10 0c0,1 -1,2 -2,2 -1,0 -2,-1 -2,-2l0 -14c0,-2 1,-2 2,-2 1,0 2,0 2,2l0 14zm-9 0c0,1 -1,2 -2,2 -1,0 -2,-1 -2,-2l0 -14c0,-2 1,-2 2,-2 1,0 2,0 2,2l0 14zm-13 -20l5 25c1,1 2,3 4,3l32 0c2,0 4,-2 4,-3l5 -25 -50 0z"/>
      <polygon class="fil7" points="104,53 104,50 54,50 55,53 "/>
     </g>
     <g>
      <path class="fil6" d="M90 81c-4,0 -8,4 -8,8 0,5 4,8 8,8 5,0 8,-3 8,-8 0,-4 -3,-8 -8,-8z"/>
      <path class="fil6" d="M68 81c-5,0 -8,4 -8,8 0,5 3,8 8,8 4,0 8,-3 8,-8 0,-4 -4,-8 -8,-8z"/>
     </g>
     <path class="fil8" d="M47 28c1,0 2,0 2,1l10 22c1,1 1,2 -1,3l0 0c-1,0 -2,0 -3,-1l-10 -21 -2 -1c-1,0 -2,-1 -2,-2l0 0c0,-1 1,-2 2,-1l4 0z"/>
    </g>
   </g>
   <rect class="fil1" x="22" y="83" width="15.8306" height="24.1311" rx="1" ry="2"/>
   <polygon class="fil9" points="4,99 4,88 38,88 38,77 59,93 38,110 38,99 "/>
  </g>
 </g>
</svg>
