<?xml version="1.0" encoding="UTF-8"?>
<!DOCTYPE svg PUBLIC "-//W3C//DTD SVG 1.1//EN" "http://www.w3.org/Graphics/SVG/1.1/DTD/svg11.dtd">
<!-- Creator: CorelDRAW X7 -->
<svg xmlns="http://www.w3.org/2000/svg" xml:space="preserve" width="120px" height="120px" version="1.1" style="shape-rendering:geometricPrecision; text-rendering:geometricPrecision; image-rendering:optimizeQuality; fill-rule:evenodd; clip-rule:evenodd"
viewBox="0 0 120 120"
 xmlns:xlink="http://www.w3.org/1999/xlink">
 <defs>
  <style type="text/css">
   <![CDATA[
    .fil0 {fill:none}
    .fil1 {fill:#FEFEFE}
    .fil7 {fill:#00A2CF}
    .fil3 {fill:#2887D2}
    .fil6 {fill:#FEFEFE;fill-rule:nonzero}
    .fil5 {fill:#00A2CF;fill-rule:nonzero}
    .fil4 {fill:#00A859;fill-rule:nonzero}
    .fil2 {fill:#2887D2;fill-rule:nonzero}
   ]]>
  </style>
 </defs>
 <g id="Layer_x0020_1">
  <metadata id="CorelCorpID_0Corel-Layer"/>
  <rect class="fil0" width="120" height="120"/>
  <g id="_869241288">
   <g>
    <g>
     <g>
      <path class="fil1" d="M112 2l-67 0 -14 12 -3 3c0,0 0,1 0,1l0 96c0,2 2,4 4,4l80 0c2,0 4,-2 4,-4l0 -108c0,-2 -2,-4 -4,-4z"/>
      <path id="1" class="fil2" d="M45 3l-1 -2 1 0 67 0 0 2 -67 0zm-1 -2l1 0 0 0 -1 0zm-12 14l0 0 -2 -2 14 -12 2 2 -14 12zm0 0l0 0 0 0 0 0zm-3 3l-2 -2 0 0 4 -3 1 2 -3 3zm-2 -2l0 0 0 0 0 0zm-1 2l0 0 0 0 0 0 0 0 0 0 0 0 0 0 0 0 0 0 0 0 0 0 0 0 0 0 0 0 0 -1 0 0 0 0 0 0 0 0 0 0 0 0 0 0 0 0 0 0 1 0 0 0 0 -1 0 0 0 0 0 0 0 0 0 0 0 0 2 1 0 0 0 0 0 0 0 0 0 0 0 0 0 0 0 0 0 1 0 0 0 0 0 0 0 0 0 0 0 0 0 0 0 0 0 0 0 0 0 0 0 0 0 0 0 0 0 0 0 0 0 0 0 0 0 0 0 0 0 0 0 0 0 0 0 0 -3 0zm3 96l-3 0 0 -96 3 0 0 96zm3 5l0 0 0 0 -1 0 0 0 0 0 0 0 -1 0 0 0 0 0 0 0 -1 0 0 0 0 0 0 -1 -1 0 0 0 0 0 0 0 0 0 -1 -1 0 0 0 0 0 0 0 0 0 -1 0 0 0 0 -1 0 0 -1 0 0 0 0 0 0 0 -1 3 0 0 0 0 1 0 0 0 0 0 0 0 0 0 0 0 0 0 0 0 0 0 0 0 1 1 0 0 0 0 0 0 0 0 0 0 0 0 0 0 0 0 0 0 0 1 0 0 0 0 0 0 0 0 1 0 0 0 0 1 0 0 0 0 0 0 0 0 2zm80 -2l0 2 -80 0 0 -2 80 0zm6 -3l0 0 0 1 0 0 0 0 0 0 -1 1 0 0 0 0 0 0 0 1 0 0 0 0 0 0 -1 0 0 1 0 0 0 0 0 0 -1 0 0 0 0 1 0 0 0 0 -1 0 0 0 0 0 0 0 -1 0 0 0 0 0 0 0 -1 0 0 0 0 -2 0 0 0 0 0 0 1 0 0 0 0 -1 0 0 0 0 0 0 0 0 1 0 0 0 0 0 0 0 0 0 0 0 0 0 0 0 0 0 0 0 1 -1 0 0 0 0 0 0 0 0 0 0 0 0 0 0 0 0 0 0 0 -1 0 0 0 0 3 0zm-3 -108l3 0 0 108 -3 0 0 -108zm-3 -5l0 0 0 0 1 0 0 0 0 0 0 0 1 0 0 0 0 0 0 0 1 0 0 0 0 0 0 1 0 0 1 0 0 0 0 0 0 0 0 1 1 0 0 0 0 0 0 0 0 1 0 0 0 0 0 0 1 1 0 0 0 0 0 0 0 1 -3 0 0 0 0 -1 0 0 0 0 0 0 0 0 0 0 0 0 0 0 0 0 0 0 -1 -1 0 0 0 0 0 0 0 0 0 0 0 0 0 0 0 0 0 0 -1 0 0 0 0 0 0 0 0 0 0 -1 0 0 -1 0 0 0 0 0 0 0 0 0 0 -2z"/>
     </g>
     <g>
      <polygon class="fil1" points="46,4 46,17 32,17 "/>
      <path id="1" class="fil2" d="M48 17l-2 1 -1 -1 0 -13 3 0 0 13zm0 0l0 1 -2 0 2 -1zm-16 1l-1 -2 1 0 14 -1 0 3 -14 0zm0 0l-4 1 3 -3 1 2zm13 -15l3 1 -1 1 -14 13 -2 -2 14 -13zm0 0l3 -3 0 4 -3 -1z"/>
     </g>
    </g>
    <g id="_869243160">
     <rect class="fil3" x="65" y="100" width="41.5237" height="5.67762" rx="2" ry="2"/>
     <rect class="fil3" x="65" y="87" width="41.5237" height="5.67762" rx="2" ry="2"/>
    </g>
    <rect class="fil1" x="22" y="83" width="15.8306" height="24.1311" rx="1" ry="2"/>
    <polygon class="fil4" points="4,99 4,88 38,88 38,77 59,93 38,110 38,99 "/>
   </g>
   <g>
    <g id="_869241432">
     <path class="fil5" d="M93 76l-35 0c-3,0 -6,-3 -6,-6l-5 -24c-2,-1 -3,-3 -3,-5 0,-3 2,-5 5,-5l52 0c3,0 5,2 5,5 0,2 -1,4 -2,5l-5 24c0,3 -3,6 -6,6z"/>
     <path class="fil6" d="M64 65c0,1 -1,1 -3,1l0 0c-1,0 -2,0 -2,-1l0 -15c0,-1 1,-2 2,-2l0 0c2,0 3,1 3,2l0 15z"/>
     <path class="fil6" d="M79 65c0,1 -2,1 -3,1l0 0c-2,0 -3,0 -3,-1l0 -15c0,-1 1,-2 3,-2l0 0c1,0 3,1 3,2l0 15z"/>
     <path class="fil6" d="M92 65c0,1 -1,1 -2,1l-1 0c-1,0 -2,0 -2,-1l0 -15c0,-1 1,-2 2,-2l1 0c1,0 2,1 2,2l0 15 0 0z"/>
    </g>
    <g>
     <path class="fil7" d="M81 11l3 -1c1,0 3,0 3,1l11 25c1,1 0,2 -1,3l-3 1c-1,1 -2,0 -3,-1l-11 -24c-1,-1 0,-3 1,-4z"/>
     <path id="1" class="fil6" d="M84 11l-2 2 -1 -3 2 -1 0 0 1 2zm4 0l-2 1 0 0 0 0 0 0 0 0 0 0 0 0 0 0 0 0 0 0 0 0 0 -1 0 0 0 0 -1 0 0 0 0 0 0 0 0 0 0 0 0 0 0 0 0 0 0 0 0 0 0 0 0 0 0 0 0 0 0 0 0 0 -1 0 0 0 0 0 -1 -2 0 0 1 0 0 0 0 0 0 0 0 0 1 0 0 0 0 0 0 0 0 0 0 0 1 0 0 0 0 0 0 0 0 0 0 0 1 0 0 0 0 0 0 0 0 1 0 0 1 0 0 0 0 0 0 0 0 0 0 1 0 0 0 0 0 0zm9 25l-11 -24 2 -1 12 24 -3 1 0 0zm1 4l-1 -2 0 0 0 0 0 0 0 0 0 0 0 0 0 0 0 0 0 0 0 -1 0 0 0 0 0 0 0 0 0 0 0 0 0 0 0 0 0 0 0 0 0 0 0 0 0 0 0 0 0 0 0 0 0 0 0 -1 0 0 0 0 0 0 0 0 0 0 3 -1 0 0 0 0 0 1 0 0 0 0 0 0 0 0 0 1 0 0 0 0 0 0 0 0 0 0 0 1 0 0 0 0 0 0 0 0 -1 0 0 1 0 0 0 0 0 0 0 0 0 0 0 0 0 1 -1 0 0 0 0 0 0 0 0 0 0 0zm-4 -1l3 -1 1 2 -3 1 0 0 -1 -2zm-4 1l2 -1 0 0 0 0 0 0 0 0 0 0 0 0 0 0 1 0 0 0 0 0 0 0 0 0 0 0 0 0 0 0 0 0 0 0 0 0 0 0 0 0 0 0 0 0 0 0 0 0 0 0 1 0 0 0 0 0 0 0 0 0 0 0 0 0 0 0 1 2 0 0 0 1 -1 0 0 0 0 0 0 0 0 0 0 0 -1 0 0 0 0 0 0 0 0 0 -1 0 0 0 0 0 0 -1 0 0 0 0 -1 0 0 0 0 0 0 0 0 0 0 0 0 0 0 -1 -1 0 0 0 0 0 0 0 0 0 0 0zm-9 -26l11 25 -2 1 -11 -25 0 0 2 -1zm0 -4l1 3 0 0 0 0 -1 0 0 0 0 0 0 0 0 0 0 0 0 0 0 0 0 0 0 0 0 0 0 0 0 0 0 0 0 0 0 0 0 0 0 1 0 0 0 0 0 0 0 0 0 0 0 0 0 0 0 0 0 0 0 0 0 0 0 0 0 0 -2 1 0 0 0 0 0 0 -1 0 0 -1 0 0 0 0 0 0 0 0 0 0 0 -1 0 0 0 0 0 0 1 0 0 -1 0 0 0 0 0 0 0 0 0 0 0 0 0 -1 0 0 0 0 1 0 0 0 0 0 0 0 0 0 0 -1 1 0 0 0z"/>
    </g>
    <g>
     <path class="fil7" d="M69 11l-3 -1c-1,0 -2,0 -3,1l-11 25c-1,1 0,2 1,3l3 1c1,1 2,0 3,-1l11 -24c1,-1 0,-3 -1,-4z"/>
     <path id="1" class="fil6" d="M66 11l1 -2 0 0 3 1 -1 3 -3 -2zm-4 0l0 0 0 0 0 0 0 -1 0 0 0 0 1 0 0 0 0 0 0 0 0 -1 0 0 0 0 1 0 0 0 0 0 0 0 0 0 0 0 1 0 0 0 0 0 0 0 0 0 0 0 1 0 0 0 0 0 0 0 0 0 1 0 0 0 0 0 -1 2 0 0 0 0 0 0 0 0 0 0 -1 0 0 0 0 0 0 0 0 0 0 0 0 0 0 0 0 0 0 0 0 0 0 0 0 0 0 0 0 0 0 0 0 0 -1 1 0 0 0 0 0 0 0 0 0 0 0 0 0 0 0 0 0 0 0 0 -2 -1zm-9 25l-2 -1 11 -24 2 1 -11 24zm-1 4l0 0 0 0 0 0 0 0 0 0 0 0 -1 -1 0 0 0 0 0 0 0 0 0 0 0 0 0 -1 0 0 0 0 -1 0 0 0 0 0 0 -1 0 0 0 0 0 0 0 0 0 0 0 -1 0 0 0 0 0 0 0 0 0 -1 1 0 0 0 2 1 0 0 0 0 0 0 0 0 0 0 0 1 0 0 0 0 0 0 0 0 0 0 0 0 0 0 0 0 0 0 0 0 0 0 0 0 0 0 0 0 0 0 0 0 0 0 0 1 0 0 0 0 0 0 0 0 0 0 0 0 0 0 0 0 0 0 -1 2zm4 -1l-1 2 0 0 -3 -1 1 -2 3 1zm4 1l0 0 0 0 0 0 0 0 0 0 0 0 0 1 -1 0 0 0 0 0 0 0 0 0 0 0 0 0 -1 0 0 0 0 1 0 0 0 0 0 0 -1 0 0 0 0 0 0 0 0 0 -1 0 0 0 0 0 0 0 0 0 0 0 -1 -1 0 0 1 -2 0 0 0 0 0 0 0 0 1 0 0 0 0 0 0 0 0 0 0 0 0 0 0 0 0 0 0 0 0 0 0 0 0 0 0 0 0 0 0 0 0 0 1 0 0 0 0 0 0 0 0 0 0 0 0 0 0 0 0 0 0 0 0 0 0 0 2 1zm9 -26l2 1 0 0 -11 25 -2 -1 11 -25zm1 -4l0 0 0 0 0 1 0 0 0 0 0 0 1 0 0 0 0 0 0 0 0 1 0 0 0 0 0 0 0 0 1 0 0 0 0 1 0 0 0 0 0 0 0 0 0 1 0 0 0 0 0 0 0 0 0 0 0 1 0 0 0 0 0 0 -1 0 -2 -1 0 0 0 0 0 0 0 0 0 0 0 0 0 0 0 0 0 0 0 0 0 0 0 0 0 0 0 -1 0 0 0 0 0 0 0 0 0 0 0 0 0 0 0 0 0 0 0 0 0 0 0 0 0 0 0 0 0 0 0 0 0 0 0 0 0 0 1 -3z"/>
    </g>
   </g>
  </g>
 </g>
</svg>
