<?xml version="1.0" encoding="UTF-8"?>
<!DOCTYPE svg PUBLIC "-//W3C//DTD SVG 1.1//EN" "http://www.w3.org/Graphics/SVG/1.1/DTD/svg11.dtd">
<!-- Creator: CorelDRAW X7 -->
<svg xmlns="http://www.w3.org/2000/svg" xml:space="preserve" width="120px" height="122px" version="1.1" style="shape-rendering:geometricPrecision; text-rendering:geometricPrecision; image-rendering:optimizeQuality; fill-rule:evenodd; clip-rule:evenodd"
viewBox="0 0 120 122"
 xmlns:xlink="http://www.w3.org/1999/xlink">
 <defs>
  <style type="text/css">
   <![CDATA[
    .fil0 {fill:none}
    .fil2 {fill:#FEFEFE}
    .fil6 {fill:#FEFEFE}
    .fil1 {fill:#BDBFC1}
    .fil5 {fill:#00AFEF}
    .fil10 {fill:#00A859}
    .fil8 {fill:#FEFEFE;fill-rule:nonzero}
    .fil9 {fill:#FFF212;fill-rule:nonzero}
    .fil3 {fill:#0098DA;fill-rule:nonzero}
    .fil7 {fill:url(#id0)}
    .fil4 {fill:url(#id1);fill-rule:nonzero}
   ]]>
  </style>
  <linearGradient id="id0" gradientUnits="userSpaceOnUse" x1="58.3949" y1="104.054" x2="98.4492" y2="93.8983">
   <stop offset="0" style="stop-opacity:1; stop-color:#04870F"/>
   <stop offset="1" style="stop-opacity:1; stop-color:#03690C"/>
  </linearGradient>
  <linearGradient id="id1" gradientUnits="userSpaceOnUse" x1="25.3363" y1="64.9572" x2="47.3064" y2="35.3995">
   <stop offset="0" style="stop-opacity:1; stop-color:#1CC8EB"/>
   <stop offset="0.631373" style="stop-opacity:1; stop-color:#0E96E0"/>
   <stop offset="1" style="stop-opacity:1; stop-color:#0063D4"/>
  </linearGradient>
 </defs>
 <g id="Layer_x0020_1">
  <metadata id="CorelCorpID_0Corel-Layer"/>
  <rect class="fil0" y="2" width="120" height="120"/>
  <g id="_487124232">
   <g>
    <path class="fil1" d="M91 29l0 79c0,0 -70,-2 -70,0 0,2 0,-65 0,-65l8 -14 1 0c0,0 61,-1 61,0z"/>
    <g>
     <path class="fil2" d="M85 25l0 79c0,0 -71,-1 -71,0 0,2 0,-63 0,-63l7 -15 1 -1c0,0 63,0 63,0z"/>
     <path id="1" class="fil3" d="M87 104l-2 2 -2 -2 0 -79 4 0 0 79zm0 0l0 2 -2 0 2 -2zm-75 0l0 0 2 -2 1 0 1 0 1 0 2 0 1 0 3 0 2 0 3 0 2 -1 3 0 3 0 4 0 3 0 3 1 3 0 4 0 3 0 3 0 3 0 3 0 3 0 3 0 3 0 2 0 2 0 2 0 2 0 1 0 1 0 1 0 0 0 0 4 -1 0 0 0 -1 0 -1 0 -2 0 -2 0 -2 0 -2 0 -3 0 -3 0 -3 0 -3 0 -3 0 -3 0 -3 0 -4 0 -3 0 -3 -1 -3 0 -4 0 -3 0 -3 0 -2 1 -3 0 -2 0 -2 0 -2 0 -2 0 -1 0 -1 0 0 0 1 -2 0 0 -4 0zm4 -63l0 0 0 0 0 0 0 1 0 1 0 2 0 2 0 2 0 2 0 2 0 3 0 2 0 3 0 3 0 3 0 3 0 3 0 3 0 3 0 3 0 3 0 3 0 2 0 3 0 2 0 2 0 2 0 2 0 1 0 1 0 1 0 0 -4 0 4 0 -4 0 0 0 0 -1 0 -1 0 -1 0 -2 0 -2 0 -2 0 -2 0 -3 0 -2 0 -3 0 -3 0 -3 0 -3 0 -3 0 -3 0 -3 0 -3 0 -3 0 -3 0 -2 0 -3 0 -2 0 -2 0 -2 0 -2 0 -2 0 -1 0 -1 0 0 0 0 0 -1 4 1zm3 -16l1 0 3 2 -7 14 -4 -1 7 -15zm0 0l0 0 1 0 -1 0zm1 -1l2 -1 1 4 -1 0 -2 -2 0 -1zm0 0l1 -1 1 0 -2 1zm63 1l0 0 1 2 0 0 -1 0 -1 0 -1 0 -2 0 -2 0 -2 0 -2 0 -3 0 -3 0 -2 0 -3 0 -3 0 -3 0 -3 0 -3 0 -3 0 -3 0 -2 0 -3 0 -3 0 -2 0 -2 0 -3 0 -1 0 -2 0 -2 0 -1 0 -1 0 0 0 0 0 0 -4 0 0 0 0 1 0 1 0 2 0 2 0 1 0 3 0 2 0 2 0 3 0 3 0 2 0 3 0 3 0 3 0 3 0 3 0 3 0 3 0 3 0 2 0 3 0 2 0 2 0 2 0 2 0 1 0 1 0 1 0 1 0 2 2 0 0 -4 0z"/>
    </g>
    <path class="fil4" d="M21 64l0 1 0 5 31 0 0 -6 0 0c-2,-3 -6,-4 -9,-5 -1,-1 -1,-1 -1,-2l0 -2c0,-1 0,-1 0,-1 1,-1 2,-3 3,-5 1,0 1,-1 1,-2l0 -3c0,-1 0,-2 0,-2l0 -4c0,-1 0,-3 -2,-5 -2,-2 -4,-3 -8,-3 -2,0 -6,1 -7,3 -2,2 -2,4 -2,5l0 4c0,0 0,1 0,2l0 3c0,1 0,1 1,2 0,3 2,5 2,6l0 2c0,1 0,1 -1,2l-6 3c-1,1 -2,1 -2,2z"/>
    <rect class="fil5" x="21" y="90" width="57.2498" height="4.21907"/>
    <rect class="fil5" x="55" y="49" width="24.0053" height="4.21907"/>
    <rect class="fil5" x="55" y="65" width="24.0053" height="4.21907"/>
    <rect class="fil5" x="21" y="77" width="57.2498" height="4.21907"/>
   </g>
   <circle class="fil6" cx="81" cy="28" r="25"/>
   <g id="_487124496">
    <g>
     <path class="fil7" d="M78 78c12,0 21,10 21,21 0,11 -9,21 -21,21 -11,0 -20,-10 -20,-21 0,-11 9,-21 20,-21z"/>
     <path id="1" class="fil8" d="M100 99l-2 0 0 0 0 -1 0 -1 0 -1 0 -1 0 -1 -1 -1 0 -1 0 -1 -1 -1 0 -1 -1 0 0 -1 -1 -1 0 -1 -1 0 0 -1 -1 -1 -1 0 -1 -1 0 -1 -1 0 -1 -1 -1 0 -1 0 -1 -1 -1 0 -1 0 -1 -1 -1 0 -1 0 -1 0 -1 0 0 -2 2 0 1 1 1 0 1 0 1 0 1 0 1 1 1 0 1 1 1 0 1 1 0 0 1 1 1 0 1 1 1 1 0 0 1 1 1 1 0 1 1 1 0 1 1 1 0 1 1 1 0 1 0 1 1 1 0 1 0 1 0 1 0 1 0 0zm-22 22l0 -2 0 0 1 0 1 0 1 0 1 0 1 -1 1 0 1 0 1 -1 1 0 1 0 1 -1 1 0 0 -1 1 -1 1 0 1 -1 0 -1 1 0 0 -1 1 -1 0 -1 1 -1 0 0 1 -1 0 -1 0 -1 1 -1 0 -1 0 -1 0 -1 0 -1 0 -1 2 0 0 1 0 1 0 1 0 1 -1 1 0 1 0 1 -1 1 0 1 -1 1 0 1 -1 1 0 1 -1 1 -1 0 0 1 -1 1 -1 1 -1 0 -1 1 0 0 -1 1 -1 0 -1 1 -1 0 -1 1 -1 0 -1 0 -1 0 -1 0 -1 0 -2 1 0 0zm-21 -22l1 0 0 0 1 1 0 1 0 1 0 1 0 1 0 1 1 1 0 1 0 1 1 0 0 1 1 1 0 1 1 1 1 0 0 1 1 1 1 0 0 1 1 1 1 0 1 1 1 0 1 0 1 1 0 0 1 0 1 1 1 0 1 0 1 0 1 0 0 2 -1 -1 -1 0 -1 0 -1 0 -1 0 -1 0 -1 -1 -1 0 -1 -1 -1 0 -1 -1 -1 0 0 -1 -1 0 -1 -1 -1 -1 -1 -1 0 0 -1 -1 0 -1 -1 -1 -1 -1 0 -1 0 -1 -1 -1 0 -1 0 -1 -1 -1 0 -1 0 -1 0 -1 0 -1 0 0zm21 -22l0 2 0 0 -1 0 -1 0 -1 0 -1 0 -1 1 -1 0 0 0 -1 1 -1 0 -1 0 -1 1 -1 0 -1 1 0 1 -1 0 -1 1 0 1 -1 0 -1 1 0 1 -1 1 0 0 -1 1 0 1 0 1 -1 1 0 1 0 1 0 1 0 1 0 1 -1 1 -1 0 0 -1 0 -1 0 -1 0 -1 1 -1 0 -1 0 -1 1 -1 0 -1 0 -1 1 -1 1 -1 0 -1 1 -1 0 -1 1 0 1 -1 1 -1 1 0 0 -1 1 0 1 -1 1 0 1 -1 1 0 1 -1 1 0 1 0 1 0 1 0 1 -1 1 0 0 0z"/>
    </g>
    <path class="fil9" d="M82 105c0,-1 0,-2 -1,-2 0,-1 -1,-1 -3,-2 -1,0 -2,-1 -3,-1 -1,-1 -2,-1 -2,-2 -1,-1 -1,-1 -2,-2 0,-1 0,-2 0,-3 0,-2 0,-4 2,-5 1,-1 3,-2 5,-2l0 -2 0 -1 0 0 0 0c0,-1 0,-1 1,-1l1 0c0,0 0,0 0,1l0 0 0 0 0 1 0 2c3,0 4,1 5,2 2,2 2,3 2,5l0 0 0 0c0,1 -1,2 -2,2l-1 0c-1,0 -2,-1 -2,-1l0 0 0 -1 0 0 0 0 0 0c0,-1 0,-1 -1,-2 0,-1 -1,-1 -2,-1 -1,0 -2,0 -2,1 -1,0 -1,1 -1,2 0,1 0,2 1,2 0,1 1,1 2,2 2,0 3,1 4,1 1,1 2,1 2,2 1,1 1,1 2,2 0,1 0,2 0,3 0,2 0,4 -2,5 -1,1 -3,2 -5,2l0 1c0,0 0,1 0,1l0 1c0,0 0,1 -1,1l-1 0c0,0 -1,-1 -1,-1l0 -1c0,0 0,-1 0,-1l0 -1c-2,0 -4,-1 -5,-2 -2,-2 -2,-3 -2,-6l0 0c0,0 0,-1 1,-1l2 0c1,0 2,1 2,1l0 0 0 1 0 0 0 0 0 0 0 0c0,1 0,1 1,2 0,1 1,1 3,1 1,0 2,0 2,-1 1,0 1,-1 1,-2z"/>
   </g>
   <g>
    <path class="fil8" d="M83 7l0 0 0 -7 0 0 0 0 0 7zm8 1l-7 0 0 0 0 0 0 0 0 -1 0 0 0 0 0 0 0 0 0 0 0 0 0 0 0 0 0 0 0 0 0 0 0 0 0 0 0 0 1 0 0 0 0 0 0 1 0 0 0 0 0 0 0 -1 0 0 -1 0 0 0 0 0 0 0 0 0 -1 0 0 -7 1 0 0 0 0 0 1 0 0 0 1 0 0 0 0 0 1 0 0 0 1 1 0 0 0 0 1 0 0 1 1 0 0 0 0 1 0 0 1 1 0 0 0 0 0 1 0 0 0 0 0 1 0 0 0 1 0 0 0 0 0 1 0 0 0 0zm-7 14l0 -14 7 0 0 14 -3 4 -4 -4zm4 4l-4 0 0 -4 4 4zm14 0l-14 0 0 -8 14 0 0 0 0 8zm8 0l-8 0 0 0 0 0 0 0 0 0 0 -1 0 0 0 0 0 0 0 0 0 0 0 0 0 0 0 0 0 0 0 0 0 0 1 0 0 0 0 1 0 0 0 0 0 0 0 0 0 0 0 0 0 0 0 0 0 0 0 0 -1 0 0 0 0 0 0 0 0 -8 0 0 0 0 1 0 0 0 0 0 1 0 0 0 1 0 0 1 0 0 1 0 0 0 1 0 0 0 0 1 1 0 0 0 0 1 1 0 0 1 0 0 0 1 0 0 0 0 0 1 1 0 0 0 0 1 0 0 0 1 0 0 0 0 0 0zm-8 0l0 0 8 0 0 0 0 0 -8 0zm0 8l0 -7 0 0 0 0 0 0 0 0 1 0 0 0 0 0 0 0 0 0 0 0 0 0 0 0 0 0 0 0 0 0 0 0 0 0 -1 0 0 1 0 0 0 0 0 0 0 0 0 0 0 0 0 0 0 0 0 -1 0 0 0 0 0 0 0 0 0 -1 8 0 0 1 0 0 0 0 0 1 0 0 0 1 -1 0 0 0 0 1 0 0 0 1 0 0 0 0 -1 1 0 0 0 1 -1 0 0 0 0 0 -1 1 0 0 -1 0 0 0 0 0 -1 0 0 0 -1 0 0 0 0 0 -1 0 0 0 0 0 0 0zm-14 -7l14 0 0 7 -14 0 -4 -3 4 -4zm-4 4l0 -4 4 0 -4 4zm0 14l0 -14 7 0 0 14 0 0 -7 0zm-1 8l0 -8 0 0 1 0 0 0 0 0 0 0 0 0 1 0 0 0 0 0 0 0 0 0 0 0 0 0 0 0 0 0 -1 0 0 0 0 1 0 0 0 0 0 0 0 0 0 0 0 0 0 0 0 0 0 0 0 0 0 -1 0 0 0 0 0 0 0 0 7 0 0 0 0 0 0 1 0 0 0 0 0 1 0 0 0 1 0 0 0 0 0 1 0 0 -1 1 0 0 0 0 0 1 -1 0 0 0 -1 1 0 0 0 0 -1 0 0 0 -1 0 0 0 0 1 -1 0 0 0 -1 0 0 0 0 0 -1 0 0 0zm0 -8l0 0 0 8 0 0 0 0 0 -8zm-8 0l8 0 0 0 0 0 0 0 0 0 0 0 0 1 0 0 0 0 0 0 0 0 0 0 0 0 0 0 0 0 0 0 -1 0 0 0 0 -1 0 0 0 0 0 0 0 0 0 0 0 0 0 0 0 0 0 0 0 0 0 0 1 0 0 0 0 0 0 0 0 8 0 0 0 0 -1 0 0 0 -1 0 0 0 0 -1 -1 0 0 0 0 0 -1 0 0 0 -1 0 0 -1 -1 0 0 0 0 -1 0 0 -1 0 0 -1 0 0 0 -1 0 0 -1 0 0 -1 0 0 0 -1 0 0 0 0 0 -1 0 0 0 0 0 0zm8 -14l0 14 -8 0 0 -14 4 -4 4 4zm-4 -4l4 0 0 4 -4 -4zm-14 0l14 0 0 7 -14 0 0 0 0 -7zm-8 -1l7 0 0 0 0 1 0 0 0 0 0 0 0 0 0 1 1 0 0 0 0 0 0 0 0 0 -1 0 0 0 0 0 0 -1 0 0 0 0 0 0 0 0 0 0 0 0 0 0 0 0 0 0 0 0 0 0 0 0 0 0 0 0 1 0 0 0 0 0 0 7 0 0 -1 0 0 0 0 0 -1 0 0 0 0 0 -1 0 0 0 -1 0 0 0 0 0 -1 -1 0 0 -1 0 0 0 0 -1 -1 0 0 -1 0 0 0 0 -1 -1 0 0 0 -1 0 0 0 0 0 -1 0 0 0 -1 0 0 0 0 0 -1 0 0zm7 0l0 0 -7 0 0 0 0 0 7 0zm1 -8l0 8 0 0 0 0 0 0 -1 0 0 0 0 0 0 0 0 0 0 0 0 0 0 0 0 0 0 0 0 0 0 0 0 -1 0 0 0 0 0 0 0 0 0 0 1 0 0 0 0 0 0 0 0 0 -1 0 0 0 0 0 0 1 0 0 0 0 0 0 -7 0 0 0 0 0 0 -1 0 0 0 -1 0 0 0 0 0 -1 0 0 0 0 1 -1 0 0 0 -1 0 0 1 -1 0 0 0 0 1 -1 0 0 1 0 0 0 0 0 1 0 0 -1 1 0 0 0 0 0 1 0 0 0 0 0 1 0 0 0 0 0zm14 8l-14 0 0 -8 14 0 4 4 -4 4zm4 -4l0 4 -4 0 4 -4zm0 -14l0 14 -8 0 0 -14 0 0 8 0zm0 -8l0 7 0 0 0 0 0 0 0 0 -1 0 0 0 0 0 0 0 0 1 0 0 0 0 0 0 0 -1 0 0 0 0 0 0 0 0 0 0 1 0 0 0 0 0 0 0 0 0 0 0 0 0 0 0 0 0 0 0 0 0 0 0 0 1 0 0 0 0 -8 0 0 0 0 -1 0 0 0 0 0 -1 0 0 0 -1 0 0 1 0 0 -1 0 0 0 -1 0 0 0 0 1 -1 0 0 1 0 0 -1 0 0 1 0 0 0 1 -1 0 0 0 0 1 0 0 0 0 0 1 0 0 0 1 0 0 0 0 0 0 0z"/>
    <path id="1" class="fil10" d="M83 4l0 0c4,0 5,0 5,4l0 14 14 0c3,0 4,1 4,4l0 0c0,4 -1,5 -4,5l-14 0 0 14c0,3 -1,4 -5,4l0 0c-3,0 -4,-1 -4,-4l0 -14 -14 0c-4,0 -4,-1 -4,-5l0 0c0,-3 0,-4 4,-4l14 0 0 -14c0,-4 1,-4 4,-4z"/>
   </g>
  </g>
 </g>
</svg>
