<?xml version="1.0" encoding="UTF-8"?>
<!DOCTYPE svg PUBLIC "-//W3C//DTD SVG 1.1//EN" "http://www.w3.org/Graphics/SVG/1.1/DTD/svg11.dtd">
<!-- Creator: CorelDRAW X7 -->
<svg xmlns="http://www.w3.org/2000/svg" xml:space="preserve" width="225px" height="173px" version="1.1" style="shape-rendering:geometricPrecision; text-rendering:geometricPrecision; image-rendering:optimizeQuality; fill-rule:evenodd; clip-rule:evenodd"
viewBox="0 0 208 159"
 xmlns:xlink="http://www.w3.org/1999/xlink">
 <defs>
  <style type="text/css">
   <![CDATA[
    .str0 {stroke:#FEFEFE;stroke-width:0.829921}
    .str1 {stroke:#373435;stroke-width:0.829921}
    .str4 {stroke:#1672A5;stroke-width:0.829921}
    .str2 {stroke:#373435;stroke-width:0.297334}
    .str3 {stroke:#373435;stroke-width:0.297334}
    .fil55 {fill:none}
    .fil24 {fill:#FEFEFE}
    .fil1 {fill:#FEFEFE}
    .fil45 {fill:#D2D3D5}
    .fil50 {fill:#BDBFC1}
    .fil0 {fill:#373435}
    .fil14 {fill:#FCD3C2}
    .fil46 {fill:#FCD3C2}
    .fil23 {fill:#E8E7E8}
    .fil47 {fill:#E0E2E4}
    .fil38 {fill:#DDDDDC}
    .fil15 {fill:#DCB6A8}
    .fil49 {fill:#D8DAE0}
    .fil48 {fill:#D2D4D4}
    .fil8 {fill:#BCBFC1}
    .fil9 {fill:#AEAEB1}
    .fil44 {fill:#A8AAAD}
    .fil39 {fill:#989B9D}
    .fil7 {fill:#96989B}
    .fil42 {fill:#919191}
    .fil26 {fill:#868B90}
    .fil41 {fill:#848588}
    .fil17 {fill:#84858A}
    .fil6 {fill:#737576}
    .fil3 {fill:#606263}
    .fil18 {fill:#5C5D5E}
    .fil16 {fill:#4D4D4E}
    .fil2 {fill:#4C4C4D}
    .fil22 {fill:#49494A}
    .fil20 {fill:#464647}
    .fil21 {fill:#444444}
    .fil10 {fill:#434446}
    .fil25 {fill:#363435}
    .fil19 {fill:#3E4043}
    .fil40 {fill:#4E5C63}
    .fil11 {fill:#595772}
    .fil43 {fill:#424C53}
    .fil13 {fill:#295166}
    .fil12 {fill:#284658}
    .fil4 {fill:black}
    .fil52 {fill:#1672A5}
    .fil5 {fill:#EFAE74}
    .fil27 {fill:#FEFEFE;fill-rule:nonzero}
    .fil53 {fill:#FEFEFE;fill-rule:nonzero}
    .fil54 {fill:#373435;fill-rule:nonzero}
    .fil32 {fill:#F2F3F2;fill-rule:nonzero}
    .fil34 {fill:#E8E7E8;fill-rule:nonzero}
    .fil30 {fill:#DFE6ED;fill-rule:nonzero}
    .fil35 {fill:#DAE0EC;fill-rule:nonzero}
    .fil31 {fill:#D2D4D5;fill-rule:nonzero}
    .fil37 {fill:#C7CCD9;fill-rule:nonzero}
    .fil28 {fill:#BFC0C1;fill-rule:nonzero}
    .fil36 {fill:#B9BBC9;fill-rule:nonzero}
    .fil29 {fill:#B7C0C6;fill-rule:nonzero}
    .fil33 {fill:#A5ABB3;fill-rule:nonzero}
    .fil51 {fill:#1672A5;fill-rule:nonzero}
   ]]>
  </style>
 </defs>
 <g id="Layer_x0020_1">
  <metadata id="CorelCorpID_0Corel-Layer"/>
  <rect class="fil0 str0" x="76" y="3" width="57.172" height="50.8179"/>
  <rect class="fil0 str0" x="134" y="3" width="58.5552" height="50.8179"/>
  <path class="fil1" d="M115 10c6,0 11,4 11,10 0,5 -5,10 -11,10 -1,0 -2,0 -3,-1 4,-1 7,-5 7,-9 0,-5 -3,-9 -7,-10 1,0 2,0 3,0z"/>
  <polygon class="fil1" points="88,15 88,16 90,16 88,17 89,18 88,17 87,18 87,17 86,16 87,16 "/>
  <polygon class="fil1" points="93,12 93,13 95,13 93,14 94,15 93,14 92,15 92,14 91,13 92,13 "/>
  <g id="_720938296">
   <path class="fil2" d="M59 18l1 -1 4 47 -1 0c-3,-5 -5,-14 -6,-23 0,-2 -1,-4 -1,-6 0,-7 1,-13 3,-17z"/>
   <polygon class="fil3" points="62,17 59,18 63,64 66,64 "/>
   <path class="fil4 str1" d="M146 25c1,0 0,-1 2,-3 2,-3 3,-4 7,-5 3,-2 9,0 10,4 2,4 2,11 1,13 0,1 -1,2 -1,2 0,0 -4,-2 -4,-3 -1,-1 -6,0 -7,-3 -2,-2 -3,-5 -3,-5l-2 -1c0,0 -2,1 -3,1z"/>
   <path class="fil5" d="M158 42l-2 -4c0,0 -3,2 -4,2 -1,0 -2,-2 -2,-3 0,-2 -1,-3 -1,-3l-2 0c0,0 0,-1 1,-2 0,-1 1,-2 1,-3 0,0 -2,-3 -2,-5 0,0 0,0 0,-1 1,-1 3,-1 4,0 1,0 2,1 3,3 0,1 1,3 1,3 0,1 0,-1 0,-2 0,0 1,-2 2,-2 1,0 1,0 2,2 0,2 1,5 2,6 1,1 5,2 5,2l1 2c0,0 -8,2 -9,5z"/>
   <polygon class="fil3" points="67,74 74,74 74,73 67,73 "/>
   <path class="fil6" d="M71 64l0 0 -1 0 0 0 1 0zm0 0l0 0 0 0 -1 0 0 0 1 0 0 0zm0 -1l0 0 -1 0 0 0 1 0 0 0zm0 0l0 0 -1 0 0 0 1 0 0 0zm0 0l0 0 -1 0 0 0 1 0 0 0zm0 -1l0 0 0 0 -1 0 0 0 1 0 0 0zm0 0l0 0 -1 0 0 0 1 0 0 0zm0 0l0 0 -1 0 0 0 1 0 0 0zm0 -1l0 0 -1 0 0 0 1 0 0 0zm0 0l0 0 0 0 -1 0 0 0 1 0 0 0zm0 0l0 0 -1 0 0 0 1 0 0 0zm0 -1l0 0 0 0 -1 0 0 0 1 0 0 0zm0 0l0 0 0 0 -1 0 0 0 1 0 0 0zm0 0l0 0 -1 0 0 0 1 0 0 0zm0 -1l0 0 0 0 -1 0 0 0 1 0 0 0zm0 0l0 0 -1 0 0 0 1 0 0 0zm0 0l0 0 0 0 -1 0 0 0 1 0 0 0zm0 -1l0 0 0 0 -1 0 0 0 1 0 0 0zm0 0l0 0 -1 0 0 0 1 0 0 0zm0 0l0 0 0 0 -1 0 0 0 1 0 0 0zm0 -1l0 0 0 0 -1 0 0 0 1 0 0 0zm0 0l0 0 0 0 -1 0 0 0 1 0 0 0zm0 0l0 0 0 0 -1 0 0 0 1 0 0 0zm0 -1l0 0 -1 0 0 0 1 0 0 0zm0 0l0 0 0 0 -1 0 0 0 1 0 0 0zm0 0l0 0 -1 0 0 0 1 0 0 0zm0 -1l0 0 0 0 -1 0 0 0 1 0 0 0zm0 0l0 0 0 0 -1 0 0 0 1 0 0 0zm0 0l0 0 0 0 -1 0 0 0 1 0 0 0zm0 -1l0 0 -1 0 0 0 1 0 0 0zm0 0l0 0 0 0 -1 0 0 0 1 0 0 0zm0 0l0 0 -1 0 0 0 1 0 0 0zm0 -1l0 0 0 0 -1 0 0 0 1 0 0 0zm0 0l0 0 0 0 -1 0 0 0 1 0 0 0zm0 0l0 0 0 0 -1 0 0 0 1 0 0 0zm0 -1l0 0 -1 0 0 0 1 0 0 0zm0 0l0 0 0 0 -1 0 0 0 1 0 0 0zm0 0l0 0 0 0 -1 0 0 0 1 0 0 0zm0 -1l0 0 0 0 -1 0 0 0 1 0 0 0zm0 0l0 0 0 0 -1 0 0 0 1 0 0 0zm0 13l0 0 -1 0 0 0 1 0 0 0zm-1 -14l0 15 3 0 0 -15 -3 0 0 0z"/>
   <polygon class="fil7" points="73,65 73,65 73,50 73,50 "/>
   <path class="fil8" d="M70 57l-1 0 0 -2c0,0 0,0 0,0l0 0 0 0c0,0 1,0 1,0l0 2z"/>
   <path class="fil3" d="M70 58l-1 0 -1 -2c0,0 0,0 0,0 1,0 1,0 1,0l1 0c0,0 0,0 0,0 0,0 0,0 0,0l0 2z"/>
   <path class="fil2" d="M69 56l1 0c0,0 0,0 0,0 0,0 0,0 0,0l0 1 -1 0 0 -1 0 0z"/>
   <polygon class="fil3" points="70,71 68,57 70,57 72,71 "/>
   <polygon class="fil2" points="71,71 69,57 70,57 72,71 "/>
   <polygon class="fil9" points="70,57 70,56 68,57 68,57 68,57 68,57 68,61 69,61 69,61 69,60 69,59 68,57 68,57 68,57 "/>
   <polygon class="fil2" points="74,58 73,58 72,71 73,71 "/>
   <polygon class="fil10" points="74,58 73,58 72,71 72,71 "/>
   <path class="fil2" d="M74 54c0,0 0,0 0,0l-1 5 1 0 0 3 0 0c0,0 0,0 0,-1 0,0 0,-2 0,-2 0,-2 0,-3 0,-5z"/>
   <polygon class="fil11" points="74,59 73,59 73,59 74,59 "/>
   <polygon class="fil12" points="66,58 69,69 70,69 67,58 66,58 "/>
   <polygon class="fil13" points="66,58 69,69 69,69 66,58 "/>
   <path class="fil14" d="M67 58l-1 -2 0 2c0,1 0,1 0,1 0,0 0,-1 0,-1 1,0 1,1 1,0 0,0 0,0 0,0z"/>
   <path class="fil15" d="M66 56l0 2c0,1 0,1 0,1 0,0 0,-1 0,-1l0 0 0 -2z"/>
   <polygon class="fil16" points="66,57 66,56 66,57 "/>
   <polygon class="fil12" points="67,57 68,68 69,68 68,57 67,57 "/>
   <polygon class="fil13" points="67,57 68,68 69,68 67,57 "/>
   <path class="fil14" d="M68 57l-1 -3 0 3c0,0 0,0 0,0 0,0 0,0 0,0 1,0 1,0 1,0 0,0 0,0 0,0z"/>
   <path class="fil15" d="M67 54l0 3c0,0 0,0 0,0 0,0 0,0 0,0l0 0 0 -3z"/>
   <polygon class="fil16" points="67,55 67,54 67,55 "/>
   <path class="fil6" d="M74 61l0 11c0,1 0,1 0,1l-7 0c0,0 -1,0 -1,-1l0 -11 8 0z"/>
   <polygon class="fil2" points="66,63 74,63 74,61 66,61 "/>
   <path class="fil17" d="M74 72l0 -9 -4 0 0 10 4 0c0,0 0,0 0,-1z"/>
   <polygon class="fil18" points="70,63 74,63 74,61 70,61 "/>
   <path class="fil19" d="M124 145c0,0 0,7 0,10 0,1 -1,1 -1,1 -2,0 -6,0 -9,0 0,0 -1,-1 -1,-1 0,0 -6,1 -6,1 -2,0 -21,0 -16,-4 15,-2 19,-5 26,-10l7 3z"/>
   <path class="fil20" d="M164 97c-6,2 -34,10 -34,10l-6 42c0,0 -14,-2 -14,-3 1,0 12,-50 13,-51 1,-1 35,-3 35,-3l6 5z"/>
   <path class="fil21" d="M130 111l-6 38c0,0 -1,0 -4,0l8 -38 2 0z"/>
   <path class="fil19" d="M103 141c0,0 -1,6 -2,9 0,1 -1,2 -1,2 -2,0 -5,-1 -8,-1 -1,0 -1,-2 -1,-1 -1,0 -6,0 -7,0 -1,0 -21,-3 -15,-6 15,0 20,-3 27,-7l7 4z"/>
   <path class="fil2" d="M169 92c0,2 0,8 -2,11 -2,2 -39,0 -39,0 0,0 -18,30 -20,34 -2,3 -4,7 -4,7 0,0 -14,-3 -13,-4 0,-1 27,-44 30,-46 2,-2 48,-2 48,-2z"/>
   <path class="fil22" d="M164 103l0 0c0,0 -1,1 -1,1 -10,1 -35,-1 -35,-1 0,0 -18,30 -20,34 -2,3 -4,7 -4,7 0,0 -3,0 -6,-1 6,-11 27,-42 27,-42l39 2z"/>
   <path class="fil23" d="M165 38c-13,5 -17,17 -16,29 0,10 1,12 0,18 -1,6 -3,8 -1,9 3,0 21,1 23,-1 2,-1 5,-15 4,-29 -1,-4 -2,-26 -10,-26z"/>
   <path class="fil2" d="M154 49c0,4 -2,31 -2,31 -1,4 -3,10 -3,10 -1,0 -2,-6 -1,-10 0,-5 5,-31 5,-31l1 0z"/>
   <polygon class="fil24" points="101,58 101,58 101,58 101,58 101,58 101,59 101,59 101,58 "/>
   <path class="fil25" d="M91 73c0,0 0,1 0,1 0,0 0,0 0,-1 0,0 1,0 0,0 0,0 0,0 0,0z"/>
   <path class="fil24" d="M101 59l0 0c0,0 0,0 0,1 0,0 -2,3 -2,4 -1,1 -1,1 -1,2 0,0 4,-6 4,-6 0,-1 -1,-1 -1,-1l-1 -1c0,0 0,1 0,1l1 0 0 0z"/>
   <path class="fil24" d="M95 65c0,0 0,1 0,1l2 1c0,0 0,0 0,-1l-2 -1z"/>
   <path class="fil24" d="M91 72c0,1 0,1 0,1l0 1c1,-1 1,-1 1,-2l-1 0z"/>
   <polygon class="fil7" points="105,88 136,88 136,84 105,84 "/>
   <polygon class="fil26" points="105,88 136,88 136,86 105,86 "/>
   <g>
    <polygon class="fil27" points="66,86 97,87 109,79 85,78 "/>
    <g>
     <path class="fil28" d="M97 87l-31 -1 0 0 31 1 0 0 0 0zm0 0l0 0 0 0 0 0zm12 -8l-12 8 0 0 12 -8 0 0 0 0zm0 0l0 0 0 0 0 0zm-24 -1l24 1 0 0 -24 -1 -1 0 1 0zm-1 0l0 0 1 0 -1 0zm-18 8l18 -8 1 0 -19 8 0 0 0 0zm0 0l0 0 0 0 0 0z"/>
    </g>
    <polygon class="fil27" points="65,85 96,86 108,78 84,77 "/>
    <g>
     <path class="fil28" d="M96 86l-31 -1 0 0 31 1 1 0 -1 0zm1 0l-1 0 0 0 1 0zm11 -8l-11 8 -1 0 12 -8 0 0 0 0zm0 0l0 0 0 0 0 0zm-24 -1l24 1 0 0 -24 -1 0 0 0 0zm0 0l0 0 0 0 0 0zm-19 8l19 -8 0 0 -19 8 0 0 0 0zm0 0l0 0 0 0 0 0z"/>
    </g>
    <polygon class="fil29" points="66,83 97,84 108,76 84,75 "/>
    <polygon class="fil30" points="66,81 98,83 109,75 85,74 "/>
    <polygon class="fil27" points="66,80 92,82 97,82 108,74 84,73 "/>
    <g>
     <path class="fil31" d="M92 82l-26 -2 0 0 26 2 0 0zm5 0l-5 0 0 0 5 0 0 0 0 0zm0 0l0 0 0 0 0 0zm11 -8l-11 8 0 0 11 -8 0 0 0 0zm0 0l0 0 0 0 0 0zm-24 -1l24 1 0 0 -24 -1 0 0 0 0zm0 0l0 0 0 0 0 0zm-18 7l18 -7 0 0 -18 7 0 0 0 0zm0 0l-1 0 1 0 0 0z"/>
    </g>
    <polygon class="fil30" points="66,79 98,80 109,72 85,71 "/>
    <polygon class="fil32" points="67,77 98,78 109,70 85,70 "/>
    <polygon class="fil27" points="68,75 99,77 110,69 86,68 "/>
    <polygon class="fil27" points="68,74 99,75 110,68 86,67 "/>
    <g>
     <path class="fil28" d="M99 75l-31 -1 0 0 31 1 0 0 0 0zm0 0l0 0 0 0 0 0zm11 -7l-11 7 0 0 11 -7 0 0 0 0zm0 0l0 0 0 0 0 0zm-24 -1l24 1 0 0 -24 -1 0 0 0 0zm0 0l0 0 0 0 0 0zm-18 7l18 -7 0 0 -18 7 0 0 0 0zm0 0l0 0 0 0 0 0z"/>
    </g>
    <polygon class="fil33" points="74,73 97,74 99,73 75,72 "/>
    <polygon class="fil33" points="77,72 100,72 101,72 79,71 "/>
    <polygon class="fil33" points="80,70 102,71 103,70 81,70 "/>
    <polygon class="fil33" points="83,69 104,70 105,69 84,69 "/>
    <polygon class="fil33" points="85,68 106,69 106,68 87,68 "/>
    <polygon class="fil32" points="64,73 84,74 78,68 "/>
    <path class="fil34" d="M80 67l-2 1 6 6 11 1 12 -8 -20 -1c-2,2 -5,2 -7,1z"/>
    <path class="fil35" d="M80 67c2,1 5,1 7,-1l-4 0 0 0 -3 1z"/>
    <polygon class="fil36" points="82,72 94,73 95,72 81,72 "/>
    <polygon class="fil37" points="72,71 70,72 82,72 81,72 "/>
    <polygon class="fil36" points="81,71 97,72 98,71 80,70 "/>
    <polygon class="fil37" points="75,70 74,71 81,71 80,70 "/>
    <polygon class="fil37" points="78,69 77,69 79,69 79,69 "/>
    <polygon class="fil36" points="79,69 99,70 100,70 79,69 "/>
    <polygon class="fil36" points="80,68 101,69 102,68 81,68 "/>
    <polygon class="fil36" points="82,67 102,68 103,67 83,67 "/>
   </g>
   <polygon class="fil8" points="38,156 112,156 112,76 38,76 "/>
   <path class="fil38" d="M168 94c1,0 2,-1 3,-1 2,-1 5,-15 4,-29 -1,-4 -3,-20 -7,-24 -1,0 -2,1 -2,1 0,0 5,18 6,22 0,3 -3,25 -4,31z"/>
   <polygon class="fil39" points="112,76 33,76 33,78 117,78 117,76 "/>
   <path class="fil40" d="M141 104c8,0 18,-1 26,-1 0,-13 5,-14 6,-23 -13,0 -36,-5 -32,24zm-9 1c0,0 3,0 4,-1 -1,-5 0,-19 6,-24 6,-7 23,-5 31,-5 1,-7 2,-28 3,-32 1,-10 10,-9 13,-8 6,1 -1,61 -6,69 0,0 0,0 1,0 1,3 2,8 -3,9 -6,1 -51,4 -55,0 -3,-5 2,-8 6,-8l0 0z"/>
   <polygon class="fil41" points="153,135 158,135 158,113 153,113 "/>
   <polygon class="fil42" points="155,135 158,135 158,113 155,113 "/>
   <path class="fil43" d="M185 108c0,2 -1,4 -4,5 -3,0 -11,1 -21,2l1 1 1 1c1,-1 2,-1 2,0l3 2c0,0 0,1 0,2l0 0c-1,0 -2,0 -2,0l-3 -2c0,0 0,-1 0,-2l-2 -1 0 0 0 0 0 -1c-15,0 -32,0 -34,-2 0,-1 -1,-2 -1,-3l60 -2z"/>
   <path class="fil43" d="M185 34c2,0 3,1 4,1 6,1 -1,61 -6,69 0,0 0,0 -2,-1 -1,-1 -12,0 -12,0 0,0 6,-1 9,-4 1,-1 7,-59 7,-65z"/>
   <path class="fil2" d="M152 132l7 0 0 15 15 3c1,0 2,0 2,1l0 0c0,2 -1,3 -2,2l-17 -2 -3 0 -17 2c-1,1 -2,0 -2,-2l0 0c0,-1 1,-1 2,-1l15 -3 0 -15z"/>
   <path class="fil2" d="M137 156c1,0 3,-1 3,-3 0,-1 -2,-2 -3,-2 -1,0 -3,1 -3,2 0,2 2,3 3,3z"/>
   <path class="fil2" d="M174 156c1,0 2,-1 2,-3 0,-1 -1,-2 -2,-2 -2,0 -3,1 -3,2 0,2 1,3 3,3z"/>
   <polygon class="fil2" points="153,147 158,147 157,154 154,154 "/>
   <path class="fil2" d="M155 156c2,0 3,-1 3,-3 0,-1 -1,-2 -3,-2 -1,0 -2,1 -2,2 0,2 1,3 2,3z"/>
   <polygon class="fil3" points="133,82 131,82 131,83 133,83 "/>
   <polygon class="fil3" points="130,82 128,82 128,83 130,83 "/>
   <polygon class="fil3" points="128,82 126,82 126,83 128,83 "/>
   <polygon class="fil3" points="125,82 123,82 123,83 125,83 "/>
   <polygon class="fil3" points="123,82 121,82 121,83 123,83 "/>
   <polygon class="fil3" points="120,82 118,82 118,83 120,83 "/>
   <polygon class="fil3" points="118,82 116,81 116,83 118,83 "/>
   <path class="fil2" d="M134 84c0,-1 0,-1 0,-1 0,0 0,0 0,0l-21 -1c0,0 0,0 0,0 0,0 0,0 0,1l0 0c0,0 0,0 0,1l20 0c1,0 1,0 1,0l0 0z"/>
   <path class="fil2" d="M114 83l0 0 0 0 0 1 0 0c0,0 0,-1 0,-1z"/>
   <polygon class="fil44" points="33,78 117,78 117,74 33,74 "/>
   <polygon class="fil3" points="59,42 57,42 56,73 59,73 "/>
   <path class="fil2" d="M73 74c-1,-2 -3,-3 -5,-3l-16 0c-2,0 -4,1 -5,3l26 0 0 0z"/>
   <polygon class="fil2" points="38,156 112,156 112,154 38,154 "/>
   <polygon class="fil6" points="38,79 112,79 112,78 38,78 "/>
   <path class="fil38" d="M168 40c0,0 -2,-4 -2,-4 0,0 -8,3 -8,3 -1,1 -2,5 -2,5l12 -4z"/>
   <path class="fil1 str2" d="M89 73c0,0 13,0 13,0 0,0 1,0 1,-1 1,-1 -3,-3 -5,-4 -2,0 -5,0 -7,2 -2,1 -2,2 -2,2 -1,1 -1,1 0,1z"/>
   <path class="fil45 str3" d="M91 73c0,0 1,-2 3,-3 2,0 5,1 7,1 1,1 2,2 2,2 -1,0 -1,0 -1,0 -1,0 -13,0 -13,0 0,0 -1,0 -1,0 1,-1 1,-1 1,-1 0,0 0,1 0,1 1,0 2,0 2,0z"/>
   <path class="fil46" d="M133 58c2,-1 10,-7 10,-7l4 8c0,0 -14,7 -18,9 -4,2 -11,2 -13,2l0 0 0 0 0 0 0 0 0 0 -1 0 -4 0 0 0c-2,1 -3,1 -5,2 -1,0 -2,1 -4,1 -2,0 -4,-1 -5,-1 -1,1 -2,1 -3,0 -1,0 -1,-1 0,-1 1,0 3,0 4,0 1,-1 1,-1 1,-1 0,-1 -1,-1 -2,-1 0,0 -2,0 -2,0 -1,0 -2,0 -3,1 -1,1 -2,1 -2,1 -1,0 -2,0 -1,-1 0,0 2,-2 2,-2 1,-1 2,-1 2,-2 1,0 3,0 4,0 1,0 3,-1 3,-1 1,0 4,1 5,1 0,0 0,0 0,0 4,-1 17,-4 20,-5 3,-1 8,-3 8,-3z"/>
   <path class="fil23" d="M168 51c3,-3 -1,-11 -3,-10 -1,0 -9,5 -17,9 -6,2 -16,7 -18,7 -3,2 -2,1 -1,1 0,0 3,6 3,7 0,1 0,2 1,2 6,-3 30,-12 35,-16z"/>
   <path class="fil14" d="M145 58c-1,1 -3,4 -8,7 -2,2 -4,4 -6,6 -4,4 -8,6 -8,6 0,1 -3,-1 -3,-1 -1,0 -3,0 -3,0 0,0 -3,2 -4,2 -1,1 -3,2 -3,3 1,0 2,-1 3,-1 0,0 2,-1 2,-1 0,0 -3,4 -3,5 0,2 3,-2 4,-3 0,0 -2,4 -2,4 0,0 0,0 1,0 0,0 1,-1 2,-2 0,0 0,0 1,-1 0,0 1,2 2,2 0,0 2,-1 3,-1 1,-1 2,-2 3,-2 0,0 8,-5 15,-8 5,-2 7,-7 7,-7l-3 -8z"/>
   <path class="fil47" d="M162 44c-4,4 -21,18 -21,18 1,2 5,9 5,9 1,-1 20,-17 21,-19 2,-1 1,-3 1,-3 0,0 -6,-5 -6,-5z"/>
   <path class="fil48" d="M145 62c0,0 -2,-3 -3,-2 -1,0 -3,1 -3,2 -1,1 -1,2 -1,2 0,1 4,3 5,5 1,1 1,3 2,3 2,-1 6,-1 5,-3 -2,-2 -4,-5 -5,-7z"/>
   <path class="fil49" d="M134 58c0,0 0,-2 -2,-2 -1,0 -3,1 -4,1 0,1 -1,2 -1,3 0,0 3,3 3,4 1,2 1,4 1,4 1,0 4,0 5,0 1,0 1,0 1,0 0,0 -1,-3 -1,-3 0,0 -2,-7 -2,-7z"/>
  </g>
  <path class="fil50" d="M8 17l31 0c1,0 2,1 2,3l0 37 -35 0 0 -37c0,-2 1,-3 2,-3z"/>
  <g>
   <path class="fil1" d="M6 17l30 0c1,0 3,1 3,3l0 34 -35 0 0 -34c0,-2 1,-3 2,-3z"/>
   <path id="1" class="fil51" d="M36 18l-30 0 0 -2 30 0 0 0 0 2zm4 2l-2 0 0 0 0 0 0 0 0 0 0 -1 0 0 0 0 0 0 0 0 -1 0 0 0 0 0 0 0 0 0 0 0 0 0 0 0 0 -1 0 0 0 0 0 0 0 0 0 0 0 0 0 0 -1 0 0 0 0 0 0 0 0 0 0 0 0 0 0 0 0 -2 0 0 0 0 0 0 1 0 0 0 0 0 0 0 0 0 0 1 1 0 0 0 0 0 0 0 0 0 0 0 0 0 1 0 0 0 0 1 0 0 0 0 0 0 0 0 0 0 0 1 0 0 0 0 0 0 0 0 0 0 1 1 0 0 0 0zm-2 34l0 -34 2 0 0 34 -1 1 -1 -1zm2 0l0 1 -1 0 1 -1zm-36 -1l35 0 0 2 -35 0 -1 -1 1 -1zm0 2l-1 0 0 -1 1 1zm1 -35l0 34 -2 0 0 -34 0 0 2 0zm1 -4l0 2 0 0 0 0 0 0 0 0 0 0 0 0 0 0 0 0 0 0 0 0 0 0 0 0 -1 0 0 0 0 0 0 0 0 1 0 0 0 0 0 0 0 0 0 0 0 0 0 0 0 0 0 0 0 0 0 0 0 0 0 1 0 0 0 0 0 0 -2 0 0 0 0 -1 0 0 0 0 0 0 0 0 0 0 0 -1 0 0 0 0 0 0 0 0 1 0 0 -1 0 0 0 0 0 0 0 0 0 0 0 0 1 0 0 0 0 0 0 -1 0 0 0 0 1 0 0 0 0 0 0 0 0 0 0 0 0 0z"/>
  </g>
  <path class="fil52 str4" d="M4 25l35 0 0 -5c0,-2 -2,-3 -3,-3l-30 0c-1,0 -2,1 -2,3l0 5z"/>
  <g>
   <g>
    <path class="fil52" d="M11 12l2 0c0,0 1,0 1,1l0 7c0,1 -1,1 -1,1l-2 0c0,0 -1,0 -1,-1l0 -7c0,-1 1,-1 1,-1z"/>
    <path id="1" class="fil53" d="M13 13l-2 0 0 -2 2 0 0 0 0 2zm2 0l-2 0 0 0 0 0 0 0 0 0 0 0 0 0 0 0 0 0 0 0 0 0 0 0 0 0 0 0 0 0 0 0 0 0 0 0 0 0 0 0 0 0 0 0 0 0 0 0 0 0 0 0 0 0 0 0 0 0 0 0 0 0 0 0 0 0 0 0 0 -2 0 0 0 0 0 0 0 0 0 0 0 0 0 0 0 0 0 0 1 0 0 0 0 0 0 0 0 1 0 0 0 0 0 0 0 0 0 0 0 0 0 0 0 0 0 0 0 0 0 0 0 0 0 1 0 0 1 0 0 0 0 0 0 0 0 0zm-2 7l0 -7 2 0 0 7 0 0 -2 0zm0 2l0 -2 0 0 0 0 0 0 0 0 0 0 0 0 0 0 0 0 0 0 0 0 0 0 0 0 0 0 0 0 0 0 0 0 0 0 0 0 0 0 0 0 0 0 0 0 0 0 0 0 0 0 0 0 0 0 0 0 0 0 0 0 0 0 0 0 0 0 2 0 0 0 0 0 0 0 -1 1 0 0 0 0 0 0 0 0 0 0 0 0 0 0 0 0 0 0 0 0 0 0 0 1 0 0 0 0 0 0 0 0 0 0 0 0 -1 0 0 0 0 0 0 0 0 0 0 0 0 0 0 0 0 0 0 0 0 0zm-2 -2l2 0 0 2 -2 0 0 0 0 -2zm-2 0l2 0 0 0 0 0 0 0 0 0 0 0 0 0 0 0 0 0 0 0 0 0 0 0 0 0 0 0 0 0 0 0 0 0 0 0 0 0 0 0 0 0 0 0 0 0 0 0 0 0 0 0 0 0 0 0 0 0 0 0 0 0 0 0 0 0 0 0 0 2 0 0 0 0 0 0 0 0 0 0 0 0 0 0 0 0 -1 0 0 0 0 0 0 0 0 0 0 0 0 0 0 0 0 -1 0 0 0 0 0 0 0 0 0 0 0 0 -1 0 0 0 0 0 0 0 0 0 0 -1 0 0 0 0 0 0 0 0zm2 -7l0 7 -2 0 0 -7 0 0 2 0zm0 -2l0 2 0 0 0 0 0 0 0 0 0 0 0 0 0 0 0 0 0 0 0 0 0 0 0 0 0 0 0 0 0 0 0 0 0 0 0 0 0 0 0 0 0 0 0 0 0 0 0 0 0 0 0 0 0 0 0 0 0 0 0 0 0 0 0 0 0 0 -2 0 0 0 0 0 0 0 0 0 0 0 0 -1 0 0 0 0 1 0 0 0 0 0 0 0 0 0 0 0 0 0 0 0 0 0 0 0 0 -1 0 0 0 0 0 0 0 0 1 0 0 0 0 0 0 0 0 0 0 0 0 0 0 0 0 0 0 0z"/>
   </g>
   <g>
    <path class="fil52" d="M20 12l2 0c0,0 1,0 1,1l0 7c0,1 -1,1 -1,1l-2 0c0,0 -1,0 -1,-1l0 -7c0,-1 1,-1 1,-1z"/>
    <path id="1" class="fil53" d="M22 13l-2 0 0 -2 2 0 0 0 0 2zm2 0l-2 0 0 0 0 0 0 0 0 0 0 0 0 0 0 0 0 0 0 0 0 0 0 0 0 0 0 0 0 0 0 0 0 0 0 0 0 0 0 0 0 0 0 0 0 0 0 0 0 0 0 0 0 0 0 0 0 0 0 0 0 0 0 0 0 0 0 0 0 -2 0 0 0 0 0 0 0 0 0 0 0 0 0 0 1 0 0 0 0 0 0 0 0 0 0 0 0 1 0 0 0 0 0 0 0 0 0 0 0 0 0 0 1 0 0 0 0 0 0 0 0 0 0 1 0 0 0 0 0 0 0 0 0 0 0 0zm-2 7l0 -7 2 0 0 7 0 0 -2 0zm0 2l0 -2 0 0 0 0 0 0 0 0 0 0 0 0 0 0 0 0 0 0 0 0 0 0 0 0 0 0 0 0 0 0 0 0 0 0 0 0 0 0 0 0 0 0 0 0 0 0 0 0 0 0 0 0 0 0 0 0 0 0 0 0 0 0 0 0 0 0 2 0 0 0 0 0 0 0 0 1 0 0 0 0 0 0 0 0 0 0 0 0 -1 0 0 0 0 0 0 0 0 0 0 1 0 0 0 0 0 0 0 0 0 0 0 0 0 0 0 0 -1 0 0 0 0 0 0 0 0 0 0 0 0 0 0 0 0 0zm-2 -2l2 0 0 2 -2 0 0 0 0 -2zm-1 0l1 0 0 0 0 0 0 0 0 0 0 0 0 0 0 0 0 0 0 0 0 0 0 0 0 0 0 0 0 0 0 0 0 0 0 0 0 0 0 0 0 0 0 0 0 0 0 0 0 0 0 0 0 0 0 0 0 0 0 0 0 0 0 0 0 0 0 0 0 2 0 0 0 0 0 0 0 0 0 0 0 0 0 0 0 0 0 0 0 0 -1 0 0 0 0 0 0 0 0 0 0 0 0 -1 0 0 0 0 0 0 0 0 0 0 0 0 0 0 0 0 0 0 0 0 0 0 0 -1 0 0 0 0 0 0 0 0zm1 -7l0 7 -1 0 0 -7 0 0 1 0zm0 -2l0 2 0 0 0 0 0 0 0 0 0 0 0 0 0 0 0 0 0 0 0 0 0 0 0 0 0 0 0 0 0 0 0 0 0 0 0 0 0 0 0 0 0 0 0 0 0 0 0 0 0 0 0 0 0 0 0 0 0 0 0 0 0 0 0 0 0 0 -1 0 0 0 0 0 0 0 0 0 0 0 0 -1 0 0 0 0 0 0 0 0 0 0 0 0 0 0 0 0 0 0 0 0 0 0 0 0 0 -1 0 0 0 0 1 0 0 0 0 0 0 0 0 0 0 0 0 0 0 0 0 0 0 0 0 0 0 0z"/>
   </g>
   <g>
    <path class="fil52" d="M29 12l2 0c0,0 1,0 1,1l0 7c0,1 -1,1 -1,1l-2 0c0,0 -1,0 -1,-1l0 -7c0,-1 1,-1 1,-1z"/>
    <path id="1" class="fil53" d="M31 13l-2 0 0 -2 2 0 0 0 0 2zm2 0l-2 0 0 0 0 0 0 0 0 0 0 0 0 0 0 0 0 0 0 0 0 0 0 0 0 0 0 0 0 0 0 0 0 0 0 0 0 0 0 0 0 0 0 0 0 0 0 0 0 0 0 0 0 0 0 0 0 0 0 0 0 0 0 0 0 0 0 0 0 -2 0 0 0 0 0 0 0 0 0 0 0 0 0 0 0 0 1 0 0 0 0 0 0 0 0 0 0 1 0 0 0 0 0 0 0 0 0 0 0 0 0 0 0 0 0 0 1 0 0 0 0 0 0 1 0 0 0 0 0 0 0 0 0 0 0 0zm-2 7l0 -7 2 0 0 7 0 0 -2 0zm0 2l0 -2 0 0 0 0 0 0 0 0 0 0 0 0 0 0 0 0 0 0 0 0 0 0 0 0 0 0 0 0 0 0 0 0 0 0 0 0 0 0 0 0 0 0 0 0 0 0 0 0 0 0 0 0 0 0 0 0 0 0 0 0 0 0 0 0 0 0 2 0 0 0 0 0 0 0 0 1 0 0 0 0 0 0 0 0 -1 0 0 0 0 0 0 0 0 0 0 0 0 0 0 1 0 0 0 0 0 0 0 0 0 0 0 0 0 0 -1 0 0 0 0 0 0 0 0 0 0 0 0 0 0 0 0 0 0 0zm-2 -2l2 0 0 2 -2 0 0 0 0 -2zm-2 0l2 0 0 0 0 0 0 0 0 0 0 0 0 0 0 0 0 0 0 0 0 0 0 0 0 0 0 0 0 0 0 0 0 0 0 0 0 0 0 0 0 0 0 0 0 0 0 0 0 0 0 0 0 0 0 0 0 0 0 0 0 0 0 0 0 0 0 0 0 2 0 0 0 0 0 0 0 0 0 0 0 0 0 0 0 0 0 0 -1 0 0 0 0 0 0 0 0 0 0 0 0 0 0 -1 0 0 0 0 0 0 0 0 0 0 0 0 0 0 0 0 0 0 0 0 -1 0 0 -1 0 0 0 0 0 0 0 0zm2 -7l0 7 -2 0 0 -7 0 0 2 0zm0 -2l0 2 0 0 0 0 0 0 0 0 0 0 0 0 0 0 0 0 0 0 0 0 0 0 0 0 0 0 0 0 0 0 0 0 0 0 0 0 0 0 0 0 0 0 0 0 0 0 0 0 0 0 0 0 0 0 0 0 0 0 0 0 0 0 0 0 0 0 -2 0 0 0 0 0 0 0 0 0 1 0 0 -1 0 0 0 0 0 0 0 0 0 0 0 0 0 0 0 0 0 0 0 0 0 0 0 0 0 -1 0 0 0 0 0 0 1 0 0 0 0 0 0 0 0 0 0 0 0 0 0 0 0 0 0 0 0 0z"/>
   </g>
  </g>
  <path class="fil54" d="M20 41c0,2 -1,4 -2,5 0,1 -2,1 -3,1 -2,0 -3,0 -4,-1 -1,-1 -2,-3 -2,-5l0 -3c0,-2 1,-4 2,-5 1,-1 2,-1 4,-1 1,0 3,0 3,1 1,1 2,3 2,5l0 3zm-3 -3c0,-1 0,-2 -1,-3 0,-1 -1,-1 -1,-1 -1,0 -2,0 -2,1 0,1 -1,1 -1,3l0 3c0,2 1,2 1,3 0,1 1,1 2,1 0,0 1,0 1,-1 1,0 1,-1 1,-3l0 -3z"/>
  <path id="1" class="fil54" d="M29 41c-1,1 -2,1 -3,1 -1,0 -2,0 -3,-1 -1,-1 -1,-2 -1,-4 0,-1 0,-2 0,-3 1,-1 1,-1 2,-2 1,0 2,0 3,0 1,0 2,0 3,0 0,1 1,2 1,3 1,1 1,2 1,3l0 1c0,3 -1,5 -2,6 -1,2 -3,2 -5,2l-1 0 0 -2 1 0c2,0 4,-2 4,-4zm-2 -1c0,0 1,0 1,0 1,-1 1,-1 1,-1l0 -2c0,-1 0,-1 -1,-2 0,-1 -1,-1 -1,-1 -1,0 -1,0 -2,1 0,1 0,1 0,2 0,1 0,2 0,2 1,1 1,1 2,1z"/>
  <rect class="fil55" width="208" height="159"/>
 </g>
</svg>
