<?xml version="1.0" encoding="UTF-8"?>
<!DOCTYPE svg PUBLIC "-//W3C//DTD SVG 1.1//EN" "http://www.w3.org/Graphics/SVG/1.1/DTD/svg11.dtd">
<!-- Creator: CorelDRAW X7 -->
<svg xmlns="http://www.w3.org/2000/svg" xml:space="preserve" width="120px" height="120px" version="1.1" style="shape-rendering:geometricPrecision; text-rendering:geometricPrecision; image-rendering:optimizeQuality; fill-rule:evenodd; clip-rule:evenodd"
viewBox="0 0 120 120"
 xmlns:xlink="http://www.w3.org/1999/xlink">
 <defs>
  <style type="text/css">
   <![CDATA[
    .fil0 {fill:none}
    .fil2 {fill:#FEFEFE}
    .fil1 {fill:#BDBFC1}
    .fil4 {fill:#F58634}
    .fil5 {fill:#FEFEFE;fill-rule:nonzero}
    .fil7 {fill:#FFF212;fill-rule:nonzero}
    .fil3 {fill:#0098DA;fill-rule:nonzero}
    .fil6 {fill:url(#id0)}
   ]]>
  </style>
  <linearGradient id="id0" gradientUnits="userSpaceOnUse" x1="72.9227" y1="101.259" x2="115.748" y2="90.4022">
   <stop offset="0" style="stop-opacity:1; stop-color:#04870F"/>
   <stop offset="1" style="stop-opacity:1; stop-color:#03690C"/>
  </linearGradient>
 </defs>
 <g id="Layer_x0020_1">
  <metadata id="CorelCorpID_0Corel-Layer"/>
  <rect class="fil0" width="120" height="120"/>
  <g id="_544604768">
   <path class="fil1" d="M3 2l0 96c0,0 88,-2 88,0 0,2 0,-77 0,-77l-10 -18 -1 -1c0,0 -77,0 -77,0z"/>
   <g>
    <path class="fil2" d="M11 8l0 99c0,0 89,-2 89,1 0,2 0,-80 0,-80l-9 -19 -1 -1c0,0 -79,0 -79,0z"/>
    <path id="1" class="fil3" d="M10 107l0 -99 3 0 0 99 -2 2 -1 -2zm1 2l-1 0 0 -2 1 2zm90 -1l-2 0 0 0 0 1 0 0 -1 -1 -2 0 -2 0 -2 0 -3 0 -3 0 -3 0 -4 0 -3 0 -4 0 -4 0 -4 0 -4 0 -4 0 -5 0 -4 0 -4 0 -4 0 -3 0 -4 0 -4 0 -3 0 -3 0 -3 1 -2 0 -2 0 -2 0 -1 0 0 0 -1 0 0 -3 1 0 0 0 1 0 2 0 2 0 2 0 3 0 3 0 3 -1 4 0 4 0 3 0 4 0 4 0 4 0 5 0 4 0 4 0 4 0 4 0 4 0 3 0 4 0 3 0 3 0 3 0 2 0 2 0 2 1 1 0 1 0 1 2 0 0zm-2 -80l2 -1 0 1 0 0 0 0 0 2 0 1 0 2 0 2 0 3 0 2 0 3 0 3 0 4 0 3 0 4 0 4 0 3 0 4 0 4 0 4 0 4 0 3 0 4 0 3 0 3 0 3 0 3 0 2 0 2 0 2 0 1 0 1 0 0 -2 1 2 0 -2 -1 0 0 0 -1 0 -1 0 -2 0 -2 0 -2 0 -3 0 -3 0 -3 0 -3 0 -4 0 -3 0 -4 0 -4 0 -4 0 -4 0 -3 0 -4 0 -4 0 -3 0 -4 0 -3 0 -3 0 -2 0 -3 0 -2 0 -2 0 -1 0 -2 0 0 0 0 0 0zm-6 -19l8 18 -2 1 -9 -18 2 -2 1 1zm-1 -1l0 0 1 1 -1 -1zm-1 -1l1 1 -2 2 -1 -1 1 -2 1 0zm-1 0l1 0 0 0 -1 0zm-77 1l-3 0 0 0 1 -1 1 0 1 0 2 0 1 0 3 0 2 0 3 0 3 0 3 0 3 0 3 0 4 0 3 0 4 0 4 0 4 0 3 0 4 0 3 0 4 0 3 0 3 0 3 0 3 0 2 0 2 0 2 0 1 0 1 0 1 0 0 0 0 3 0 0 -1 0 -1 0 -1 0 -2 0 -2 0 -2 0 -3 0 -3 0 -3 0 -3 0 -4 0 -3 0 -4 0 -3 0 -4 0 -4 0 -4 0 -3 0 -4 0 -3 0 -3 0 -3 0 -3 0 -3 0 -2 0 -3 0 -1 0 -2 0 -1 0 0 0 1 -2 0 0z"/>
   </g>
   <g id="_544605800">
    <g>
     <path class="fil4" d="M65 65c-1,3 -2,8 -2,12 1,7 6,16 14,19 -1,2 -2,5 -3,6 -2,1 -1,2 -3,1 -9,-4 -18,-10 -20,-19l-2 -4c0,0 0,0 0,0 -10,2 -16,14 -16,23 -3,1 -7,0 -11,0 1,-14 6,-27 21,-35l-1 -13c-2,2 -5,5 -6,6 -13,8 -10,9 -17,4 1,-3 6,-6 8,-9 5,-5 12,-14 16,-16 3,-2 9,-4 14,-4 5,12 8,15 8,29z"/>
     <path id="1" class="fil5" d="M62 77l0 0 0 0 0 -1 0 0 0 -1 0 0 0 0 0 -1 0 0 0 -1 0 0 0 -1 0 0 0 0 0 -1 0 0 0 -1 0 0 0 -1 0 0 0 0 0 -1 0 0 1 0 0 -1 0 0 0 0 0 -1 0 0 0 0 0 -1 0 0 0 0 3 0 0 0 0 1 0 0 0 0 0 1 0 0 0 0 0 1 0 0 0 0 0 1 -1 0 0 0 0 1 0 0 0 1 0 0 0 0 0 1 0 0 0 1 0 0 0 0 0 1 0 0 0 1 0 0 0 0 0 1 0 0 0 1 0 0 0 0 -3 0zm13 19l1 1 -1 0 0 -1 -1 0 -1 -1 -1 0 0 0 -1 -1 -1 0 0 -1 -1 -1 0 0 -1 -1 0 0 -1 -1 -1 -1 0 0 0 -1 -1 -1 0 0 -1 -1 0 -1 0 -1 -1 0 0 -1 0 -1 0 -1 -1 0 0 -1 0 -1 0 0 0 -1 0 -1 3 0 0 1 0 0 0 1 0 0 0 1 1 1 0 0 0 1 0 1 1 0 0 1 0 1 1 0 0 1 0 1 1 0 0 1 1 0 0 1 1 1 0 0 1 1 0 0 1 1 0 0 1 1 0 0 1 0 1 1 0 0 1 0 0 1 1 1 -3 0zm2 -1l1 0 0 1 -1 -1zm-4 6l0 0 0 0 0 0 0 0 0 0 0 0 0 0 0 -1 0 0 0 0 0 0 1 0 0 0 0 -1 0 0 0 0 0 0 0 0 0 -1 0 0 0 0 1 0 0 -1 0 0 0 0 0 0 0 0 0 -1 0 0 0 0 0 0 0 0 0 0 3 0 0 0 0 0 0 1 0 0 0 0 0 0 0 1 0 0 0 0 0 0 0 0 -1 1 0 0 0 0 0 0 0 1 0 0 0 0 0 0 0 1 -1 0 0 0 0 0 0 0 0 1 0 0 0 0 0 0 -1 0 0 1 0 0 0 0 0 0 -2 -2zm-1 1l0 0 0 0 0 0 0 0 0 0 0 0 1 0 0 0 0 0 0 0 0 0 0 0 -1 0 0 0 0 0 0 0 0 0 0 0 0 0 0 0 0 0 0 0 0 0 0 0 0 0 0 0 0 0 0 0 0 0 0 0 0 -1 1 0 0 0 2 2 0 0 0 0 0 0 0 0 0 0 -1 0 0 1 0 0 0 0 0 0 0 0 0 0 0 0 0 0 0 0 -1 0 0 0 0 1 0 0 -1 0 0 0 0 0 0 0 0 0 0 -1 -1 0 0 0 0 0 0 0 0 0 0 0 0 0 0 0 1 -2zm-1 2l0 0 0 0 0 0zm-19 -20l0 0 0 1 1 1 0 0 0 1 1 1 0 1 1 0 0 1 0 0 1 1 0 1 1 0 1 1 0 1 1 0 0 1 1 0 1 1 1 0 0 1 1 0 1 1 0 0 1 1 1 0 1 0 1 1 1 0 0 1 1 0 1 0 1 1 -1 2 -1 0 -1 -1 -1 0 -1 0 -1 -1 -1 0 -1 -1 -1 0 0 -1 -1 0 -1 -1 -1 0 -1 -1 0 0 -1 -1 -1 -1 0 0 -1 -1 -1 0 0 -1 -1 -1 -1 0 0 -1 -1 -1 0 -1 -1 0 0 -1 -1 -1 0 -1 0 -1 -1 0 0 -1 0 0 3 -1zm0 0l0 0 0 0 0 0zm-5 -4l3 -1 0 1 2 4 -3 1 -2 -5zm3 -1l0 1 0 0 0 -1zm-2 -1l2 1 0 0 0 0 0 0 0 0 0 0 0 0 0 0 0 0 0 0 0 0 0 0 0 0 0 0 0 0 0 0 0 0 0 0 0 0 0 0 0 0 0 0 0 0 0 0 0 0 0 0 0 0 0 0 0 0 0 0 0 0 0 0 0 0 -2 2 0 0 0 0 -1 0 1 0 0 0 -1 0 0 0 1 0 -1 0 0 0 0 0 0 0 0 0 0 0 0 0 0 0 0 0 0 0 0 -1 0 1 0 0 0 0 0 0 0 0 0 -1 0 1 0 0 0 0 0 -1 0 0 0 1 0 0 2 0 -1 -3zm0 0l1 0 1 1 -2 -1zm-15 23l-1 2 0 -1 0 -1 0 -1 0 -1 0 -1 0 -1 1 -1 0 -1 0 -1 0 -1 1 -1 0 0 0 -1 1 -1 0 -1 1 -1 0 -1 1 -1 0 -1 1 0 1 -1 0 -1 1 0 1 -1 1 -1 1 0 0 -1 1 0 1 -1 1 0 1 0 1 -1 1 3 -1 0 -1 0 0 1 -1 0 -1 0 -1 1 0 0 -1 1 -1 0 0 1 -1 1 0 0 -1 1 0 1 -1 0 0 1 -1 1 0 1 -1 1 0 0 0 1 -1 1 0 1 0 1 0 1 -1 1 0 0 0 1 0 1 0 1 0 1 0 1 -1 1 -1 -3zm2 2l0 1 -1 0 1 -1zm-11 0l-2 -1 1 0 0 0 0 0 1 0 0 0 0 0 1 0 0 0 0 0 1 0 0 0 0 0 1 0 0 0 1 0 0 0 0 0 1 0 0 0 0 0 1 0 0 0 0 0 1 0 0 0 0 0 1 0 0 0 0 0 0 0 1 0 0 -1 1 3 0 0 -1 0 0 0 -1 0 0 0 0 0 -1 0 0 0 0 0 -1 0 0 0 -1 1 0 0 0 0 -1 0 0 0 -1 0 0 -1 0 0 -1 0 0 0 0 0 -1 0 0 0 0 0 -1 0 0 0 0 0 -1 0 0 0 0 0 -1 0 -1 -1 3 0zm-2 1l-1 0 0 -1 1 1zm23 -36l-1 1 -1 1 -1 1 -2 1 -1 0 -1 1 -1 1 -1 1 -1 1 -1 1 -1 1 -1 1 0 1 -1 1 -1 1 -1 1 0 1 -1 1 0 1 -1 1 0 1 -1 2 0 1 -1 1 0 1 0 1 0 2 -1 1 0 1 0 1 0 2 0 1 0 1 -3 0 0 -1 0 -2 0 -1 0 -1 0 -2 1 -1 0 -1 0 -1 0 -2 1 -1 0 -1 1 -1 0 -2 1 -1 0 -1 1 -1 1 -1 0 -1 1 -2 1 -1 1 -1 1 -1 1 -1 1 -1 1 -1 1 -1 1 -1 1 -1 1 0 2 -1 1 -1 2 -1 -1 1 3 0zm0 0l0 1 -1 0 1 -1zm-4 -13l0 -1 3 1 1 13 -3 0 -1 -13zm0 -1l2 -2 1 3 -3 -1zm-6 6l0 0 0 0 0 0 0 0 0 0 0 -1 1 0 0 0 0 0 0 0 0 0 0 0 1 -1 0 0 0 0 0 0 0 0 1 -1 0 0 0 0 0 0 0 0 1 -1 0 0 0 0 0 0 1 0 0 -1 0 0 0 0 1 0 0 -1 0 0 2 2 0 0 0 0 0 1 -1 0 0 0 0 0 0 0 -1 1 0 0 0 0 0 0 0 1 -1 0 0 0 0 0 0 0 0 1 -1 0 0 0 0 0 0 0 0 0 -1 1 0 0 0 0 0 0 0 0 -1 1 0 0 0 0 0 0 0 0 0 0 -2 -2zm-14 5l-1 -1 1 0 0 1 1 0 0 1 1 0 0 0 1 0 0 1 0 0 0 0 0 0 0 0 0 0 0 0 0 0 1 0 0 0 0 0 0 0 1 -1 0 0 0 0 1 -1 1 0 0 -1 1 0 1 -1 0 0 1 -1 1 0 1 -1 2 -1 2 2 -2 1 -1 1 -1 0 -1 1 0 0 -1 1 -1 0 0 1 -1 0 0 1 -1 0 0 0 -1 1 0 0 -1 0 0 0 -1 0 0 1 -1 0 0 -1 -1 0 0 0 -1 0 0 0 0 0 -1 -1 0 0 -1 0 0 -1 -1 0 0 -1 -1 0 0 -1 3 0zm-3 1l-1 -1 1 0 0 1zm10 -9l0 0 0 0 0 1 0 0 -1 0 0 0 0 1 -1 0 0 0 0 1 0 0 -1 0 0 0 0 1 -1 0 0 0 0 1 0 0 -1 0 0 0 0 1 0 0 -1 0 0 0 0 1 0 0 -1 0 0 0 0 1 0 0 0 0 0 0 0 0 -3 0 0 -1 0 0 0 0 0 -1 1 0 0 0 0 -1 0 0 1 0 0 0 0 -1 0 0 1 0 0 -1 0 0 0 0 1 0 0 -1 0 0 1 0 0 -1 0 0 0 0 1 0 0 -1 0 0 1 0 0 0 0 -1 0 0 1 0 0 0 0 0 2 1zm16 -16l0 0 -1 0 0 0 0 0 -1 1 0 0 0 0 -1 1 0 0 -1 1 0 0 -1 1 0 0 -1 1 0 0 -1 1 0 1 -1 0 0 1 -1 0 0 1 -1 1 -1 0 0 1 -1 1 0 0 -1 1 0 0 -1 1 0 1 -1 0 0 1 -1 0 -2 -1 0 -1 1 0 0 -1 1 -1 0 0 1 -1 0 0 1 -1 0 -1 1 0 0 -1 1 0 1 -1 0 -1 1 0 0 -1 1 -1 0 0 1 -1 0 0 1 -1 0 0 1 -1 0 0 1 -1 0 0 1 -1 0 0 1 0 0 -1 1 0 0 0 0 0 2 2zm12 -4l1 1 -1 0 0 0 0 -1 -1 0 0 1 -1 0 0 0 0 0 -1 0 0 0 -1 0 0 0 -1 0 0 0 -1 0 0 0 0 0 -1 1 0 0 -1 0 0 0 -1 0 0 0 0 0 -1 1 0 0 -1 0 0 0 0 0 -1 0 0 1 0 0 -2 -2 0 -1 1 0 0 0 1 0 0 0 0 -1 1 0 0 0 1 0 0 0 1 0 0 -1 1 0 0 0 1 0 0 0 1 0 0 0 1 -1 0 0 1 0 0 0 1 0 0 0 1 0 0 0 1 0 0 0 1 0 0 0 1 0 0 0 2 1 -3 1zm1 -2l1 0 1 1 -2 -1zm6 30l0 0 0 -1 0 -2 0 -1 0 -1 0 -1 0 -1 0 -1 0 -1 0 -1 0 0 0 -1 -1 -1 0 -1 0 0 0 -1 0 -1 -1 -1 0 0 0 -1 0 -1 -1 -1 0 0 0 -1 -1 -1 0 -1 -1 -1 0 0 0 -1 -1 -1 0 -1 -1 -1 0 -1 3 -1 0 1 1 1 0 1 0 1 1 1 0 0 1 1 0 1 0 1 1 1 0 1 1 0 0 1 0 1 0 1 1 0 0 1 0 1 0 1 1 1 0 0 0 1 0 1 0 1 0 1 0 1 0 1 0 1 0 1 0 1 0 2 0 1 0 0 -3 0zm3 0l0 0 0 0 0 0z"/>
    </g>
    <g>
     <path class="fil4" d="M87 52c0,7 -7,14 -16,14 -11,0 0,-3 -10,-24 -1,-2 -2,-3 -3,-6l2 -1c5,-3 15,-3 20,1 4,4 7,10 7,16z"/>
     <path id="1" class="fil5" d="M71 65l0 0 1 0 0 0 1 0 1 -1 1 0 0 0 1 0 1 0 0 -1 1 0 0 0 1 -1 1 0 0 0 1 -1 0 0 1 -1 0 0 1 -1 0 0 0 -1 1 0 0 -1 0 0 0 -1 1 -1 0 0 0 -1 0 0 0 -1 0 0 0 -1 3 0 0 1 0 1 0 0 0 1 0 1 0 0 -1 1 0 1 0 0 -1 1 0 0 -1 1 0 1 0 0 -1 1 -1 0 0 1 -1 0 0 1 -1 0 -1 1 0 0 -1 1 -1 0 -1 0 -1 0 0 1 -1 0 -1 0 -1 0 -1 0 -1 0 0 0 0 -2zm-9 -24l0 0 1 2 1 2 1 2 0 1 1 2 0 2 0 1 1 1 0 2 0 1 0 1 0 1 0 1 0 0 0 1 0 1 0 0 0 1 0 0 0 1 0 0 0 0 0 0 0 0 0 0 0 0 1 1 0 0 1 0 0 0 1 0 1 0 0 2 -1 0 -1 0 -1 0 0 0 -1 0 -1 0 0 -1 -1 0 0 0 -1 -1 0 0 0 -1 0 0 0 -1 0 -1 0 0 0 -1 0 -1 0 0 0 -1 0 -1 0 -1 0 -1 0 -1 -1 -2 0 -1 0 -1 -1 -2 0 -2 -1 -1 -1 -2 0 -2 0 0 2 -1zm-3 -4l1 -1 0 0 0 0 0 0 0 1 0 0 0 0 0 0 0 0 0 0 0 1 0 0 1 0 0 0 0 0 0 0 0 0 0 1 0 0 0 0 0 0 0 0 0 0 0 0 1 1 0 0 0 0 0 0 0 0 0 1 0 0 0 0 0 0 -2 1 0 0 -1 0 0 0 0 -1 0 0 0 0 0 0 0 0 0 0 0 -1 0 0 0 0 -1 0 0 0 0 0 0 0 0 -1 0 0 0 0 0 0 0 0 0 -1 -1 0 0 0 0 0 0 0 0 -1 0 0 0 0 0 0 0 -1 0 0 0 -1 2 2zm-2 -1l0 -1 0 0 0 1zm2 -2l0 0 2 2 -2 1 -2 -2 2 -1zm0 0l0 0 0 0 0 0zm20 3l0 0 0 0 -1 -1 0 0 -1 0 0 0 -1 -1 0 0 -1 0 0 0 -1 0 -1 -1 0 0 -1 0 -1 0 0 0 -1 0 -1 0 0 0 -1 0 -1 0 0 0 -1 0 0 0 -1 0 -1 0 0 1 -1 0 0 0 -1 0 0 0 -1 0 0 1 -2 -2 1 -1 0 0 1 0 1 0 0 -1 1 0 1 0 0 0 1 0 1 0 0 0 1 0 1 0 1 -1 1 0 0 1 1 0 1 0 1 0 0 0 1 0 1 0 1 0 0 1 1 0 1 0 0 0 1 1 1 0 0 0 1 1 0 0 0 0 -2 2zm6 15l0 0 0 0 0 -1 0 0 0 -1 0 -1 0 0 0 -1 0 0 0 -1 0 0 -1 -1 0 0 0 -1 0 0 0 -1 0 0 -1 -1 0 0 0 -1 0 0 -1 -1 0 0 0 -1 0 0 -1 -1 0 0 0 0 -1 -1 0 0 0 0 -1 -1 0 0 2 -2 1 1 0 0 1 0 0 1 0 0 1 1 0 0 0 1 1 0 0 1 0 0 0 1 1 0 0 1 0 0 0 1 1 0 0 1 0 0 0 1 0 1 1 0 0 1 0 0 0 1 0 1 0 0 0 1 0 0 0 1 0 1 0 0 0 0 -3 0z"/>
    </g>
    <g>
     <path class="fil4" d="M36 23c0,-17 26,-14 23,3 -1,5 -6,11 -13,10 -6,0 -10,-8 -10,-13z"/>
     <path id="1" class="fil5" d="M57 26l0 0 1 -2 0 -1 -1 -1 0 -1 0 -2 0 0 -1 -1 -1 -1 0 -1 -1 -1 -1 0 -1 -1 0 0 -1 0 -1 -1 -1 0 -1 0 -1 0 -1 0 -1 1 -1 0 -1 0 -1 1 0 0 -1 1 -1 0 0 1 -1 1 0 1 -1 1 0 1 0 2 -3 0 0 -2 0 -1 0 -2 1 -1 0 -1 1 -1 1 -1 1 -1 1 -1 1 -1 2 0 1 0 1 -1 2 0 1 0 1 0 2 1 1 0 1 0 1 1 1 0 2 1 1 1 0 1 1 1 1 1 0 2 1 1 0 1 0 2 0 2 0 1 0 0 -4 0zm-10 9l0 0 0 0 1 0 0 0 1 0 0 0 1 0 0 0 1 -1 0 0 0 0 1 0 0 0 1 -1 0 0 0 0 1 -1 0 0 0 0 1 -1 0 0 0 0 1 -1 0 0 0 -1 0 0 0 -1 1 0 0 0 0 -1 0 0 0 -1 0 0 4 0 0 1 0 0 0 1 -1 0 0 1 0 1 0 0 -1 1 0 0 0 1 -1 0 0 1 0 0 -1 1 0 0 -1 1 0 0 -1 0 0 1 -1 0 0 0 -1 1 0 0 -1 0 -1 0 0 1 -1 0 -1 0 -1 0 0 0 -1 0 -1 0 0 0 1 -3zm-9 -12l0 0 0 0 0 1 0 0 0 1 0 0 1 1 0 0 0 1 0 0 0 1 0 0 1 1 0 0 0 1 0 0 1 0 0 1 0 0 1 1 0 0 0 1 1 0 0 0 0 0 1 1 0 0 1 0 0 0 0 1 1 0 0 0 1 0 -1 3 -1 0 0 0 -1 -1 -1 0 0 0 -1 0 0 -1 -1 0 0 -1 -1 0 0 -1 -1 0 0 0 -1 -1 0 -1 -1 0 0 -1 0 0 -1 -1 0 0 0 -1 0 0 -1 -1 0 -1 0 0 0 -1 0 0 0 -1 0 -1 0 0 0 -1 0 0 0 0 3 0z"/>
    </g>
   </g>
   <g>
    <g>
     <path class="fil6" d="M94 74c13,0 23,10 23,22 0,12 -10,22 -23,22 -12,0 -22,-10 -22,-22 0,-12 10,-22 22,-22z"/>
     <path id="1" class="fil5" d="M117 96l-1 0 0 0 0 -1 0 -1 -1 -1 0 -1 0 -1 0 -2 -1 0 0 -1 0 -1 -1 -1 0 -1 -1 -1 -1 -1 0 -1 -1 -1 -1 0 0 -1 -1 -1 -1 0 -1 -1 -1 0 -1 -1 0 0 -1 -1 -1 0 -1 -1 -1 0 -1 0 -1 0 -1 0 -2 0 -1 0 0 -2 2 0 1 0 1 0 1 0 1 1 1 0 1 0 1 1 1 0 1 1 1 0 1 1 1 0 1 1 1 1 1 1 0 0 1 1 1 1 0 1 1 1 1 1 0 1 1 1 0 1 0 1 1 1 0 1 0 1 0 1 0 2 0 1 0 0zm-23 23l0 -2 0 0 1 0 2 0 1 0 1 0 1 -1 1 0 1 0 1 -1 1 0 0 0 1 -1 1 0 1 -1 1 -1 1 0 0 -1 1 -1 1 -1 0 0 1 -1 1 -1 0 -1 1 -1 0 -1 0 -1 1 -1 0 -1 0 -1 0 -1 1 -1 0 -1 0 -1 1 0 0 1 0 1 0 1 0 1 0 2 -1 1 0 1 0 1 -1 1 0 1 -1 1 -1 1 0 1 -1 0 -1 1 0 1 -1 1 -1 1 -1 0 -1 1 -1 1 -1 0 -1 1 -1 0 -1 0 -1 1 -1 0 -1 0 -1 1 -1 0 -1 0 -2 0 0 0zm-23 -23l2 0 0 0 0 1 0 1 0 1 0 1 1 1 0 1 0 1 1 1 0 1 1 1 0 1 1 1 0 1 1 0 1 1 0 1 1 1 1 0 1 1 0 1 1 0 1 1 1 0 1 0 1 1 1 0 1 0 1 1 1 0 1 0 1 0 1 0 0 2 -1 0 -1 0 -1 0 -1 -1 -1 0 -2 0 -1 -1 -1 0 -1 0 -1 -1 -1 0 -1 -1 0 -1 -1 0 -1 -1 -1 -1 -1 -1 0 -1 -1 0 -1 -1 0 -1 -1 -1 0 -1 -1 -1 0 -1 -1 -1 0 -1 0 -2 0 -1 -1 -1 0 -1 0 -1 0 0zm23 -23l0 2 0 0 -1 0 -1 0 -1 0 -1 0 -1 0 -1 0 -1 1 -1 0 -1 1 -1 0 -1 1 -1 0 0 1 -1 0 -1 1 -1 1 0 0 -1 1 -1 1 0 1 -1 1 0 1 -1 1 0 1 -1 1 0 0 0 2 -1 1 0 1 0 1 0 1 0 1 -2 0 0 -1 0 -2 1 -1 0 -1 0 -1 0 -1 1 -1 0 -1 1 -1 0 -1 1 -1 0 -1 1 -1 1 -1 0 -1 1 0 1 -1 1 -1 1 -1 0 0 1 -1 1 0 1 -1 1 0 1 -1 1 0 2 0 1 -1 1 0 1 0 1 0 1 0 0 0z"/>
    </g>
    <path class="fil7" d="M98 102c0,-1 0,-1 -1,-2 0,-1 -1,-1 -3,-2 -1,0 -2,-1 -3,-1 -1,-1 -2,-1 -3,-2 0,-1 -1,-2 -1,-2 -1,-1 -1,-2 -1,-4 0,-2 1,-4 2,-5 1,-1 3,-2 5,-2l0 -2 0 -1 0 0 0 0c1,-1 1,-1 1,-1l2 0c0,0 0,0 1,1l0 0 0 0 0 1 0 2c2,0 4,1 5,3 1,1 2,2 2,5l0 0 0 0c0,1 -1,2 -2,2l-2 0c-1,0 -2,-1 -2,-2l0 0 0 0 0 0 0 0 0 0c0,-2 0,-2 -1,-3 0,-1 -1,-1 -2,-1 -1,0 -2,0 -3,1 0,1 -1,1 -1,2 0,1 1,2 1,3 1,0 2,1 3,1 2,1 3,2 4,2 1,1 2,1 3,2 0,1 1,1 1,2 1,1 1,2 1,3 0,3 -1,4 -2,6 -2,1 -4,2 -6,2l0 1c0,0 0,0 0,0l0 2c0,0 0,1 -1,1l-1 0c0,0 -1,-1 -1,-1l0 -2c0,0 0,0 0,0l0 -1c-2,0 -4,-1 -6,-3 -1,-1 -2,-3 -2,-5l0 0c0,-1 1,-2 2,-2l2 0c1,0 1,1 1,2l0 0 0 0 0 0 0 0 0 0 0 0c0,1 1,2 2,2 0,1 1,2 3,2 1,0 2,-1 2,-1 1,-1 1,-2 1,-3z"/>
   </g>
  </g>
 </g>
</svg>
