<?xml version="1.0" encoding="UTF-8"?>
<!DOCTYPE svg PUBLIC "-//W3C//DTD SVG 1.1//EN" "http://www.w3.org/Graphics/SVG/1.1/DTD/svg11.dtd">
<!-- Creator: CorelDRAW X7 -->
<svg xmlns="http://www.w3.org/2000/svg" xml:space="preserve" width="118px" height="88px" version="1.1" style="shape-rendering:geometricPrecision; text-rendering:geometricPrecision; image-rendering:optimizeQuality; fill-rule:evenodd; clip-rule:evenodd"
viewBox="0 0 120 90"
 xmlns:xlink="http://www.w3.org/1999/xlink">
 <defs>
  <style type="text/css">
   <![CDATA[
    .fil3 {fill:#FEFEFE;fill-rule:nonzero}
    .fil1 {fill:#FFF212;fill-rule:nonzero}
    .fil2 {fill:#2887D2;fill-rule:nonzero}
    .fil0 {fill:url(#id0)}
   ]]>
  </style>
  <linearGradient id="id0" gradientUnits="userSpaceOnUse" x1="1.52825" y1="55.6299" x2="87.847" y2="33.7466">
   <stop offset="0" style="stop-opacity:1; stop-color:#04870F"/>
   <stop offset="1" style="stop-opacity:1; stop-color:#03690C"/>
  </linearGradient>
 </defs>
 <g id="Layer_x0020_1">
  <metadata id="CorelCorpID_0Corel-Layer"/>
  <g id="_681164768">
   <circle class="fil0" cx="45" cy="45" r="45"/>
   <path class="fil1" d="M51 55c0,-1 -1,-3 -1,-4 -1,-1 -3,-2 -5,-2 -2,-1 -4,-2 -6,-3 -2,-1 -3,-2 -4,-3 -1,-1 -2,-2 -3,-4 -1,-1 -1,-3 -1,-5 0,-3 1,-6 3,-8 3,-3 6,-4 9,-4l0 -3 0 -2 0 0 0 0c0,-1 1,-2 2,-2l2 0c0,0 1,1 1,2l0 0 0 0 0 2 0 3c4,0 7,2 9,4 2,3 3,5 3,9l0 0 0 0c0,2 -1,3 -3,3l-3 0c-2,0 -3,-1 -3,-3l0 0 0 0 0 0 0 0 0 0c0,-2 -1,-3 -2,-4 -1,-2 -2,-2 -4,-2 -1,0 -3,0 -4,1 0,1 -1,2 -1,4 0,2 1,3 1,4 1,1 3,2 5,3 3,1 5,2 7,3 1,0 2,1 4,3 1,1 1,2 2,3 1,2 1,3 1,5 0,4 -1,7 -3,9 -3,2 -6,3 -9,4l0 2c0,0 0,0 0,0l0 2c0,1 -1,2 -2,2l-2 0c-1,0 -1,-1 -1,-2l0 -2c0,0 0,0 0,0l0 -2c-4,-1 -8,-2 -10,-5 -2,-2 -3,-5 -3,-9l0 0c0,-1 1,-3 2,-3l4 0c1,0 2,2 2,3l0 0 0 0 0 0 0 0 0 0 0 0c0,3 1,3 2,5 1,1 3,2 5,2 2,0 3,-1 4,-2 1,-1 2,-2 2,-4z"/>
   <g>
    <path class="fil2" d="M117 37c-1,-1 -2,-1 -3,0l-31 30 -16 -9c-1,-1 -3,-1 -4,0 -1,1 -1,2 0,3l18 26c0,0 1,1 2,1l0 0c1,0 2,-1 2,-1l32 -47c1,-1 1,-2 0,-3z"/>
    <path id="1" class="fil3" d="M115 38l-3 -3 0 0 0 0 1 0 0 -1 0 0 0 0 0 0 1 0 0 0 0 0 0 0 0 0 1 0 0 0 0 0 0 0 0 0 1 0 0 0 0 0 0 0 1 0 0 0 0 0 0 0 0 0 1 0 0 0 0 0 0 1 0 0 0 0 1 0 -3 3 0 0 0 0 0 0 0 0 0 0 0 0 0 0 0 0 -1 0 0 0 0 0 0 0 0 0 0 0 0 0 0 0 0 0 0 0 0 0 0 0 0 0 0 0 0 0 0 0 0 0 0 0 0 0 0 0 0 0 0 0 0 0 0 0 0 0zm-3 -3l0 0 0 0 0 0zm-31 31l31 -31 3 3 -30 31 -3 0 -1 -3zm4 3l-2 1 -1 -1 3 0zm-17 -13l16 10 -2 3 -16 -10 0 0 2 -3zm-2 3l0 0 0 0 0 0zm-1 1l-3 -3 0 0 0 -1 0 0 0 0 0 0 1 0 0 0 0 0 0 0 0 0 0 -1 1 0 0 0 0 0 0 0 0 0 1 0 0 0 0 0 0 0 0 0 1 0 0 0 0 0 0 0 0 0 1 0 0 0 0 0 0 0 0 1 1 0 0 0 -2 3 0 0 -1 0 0 0 0 0 0 0 0 0 0 0 0 0 0 0 0 0 0 0 0 0 0 0 0 0 0 0 0 0 0 0 0 0 0 0 0 0 0 0 0 0 0 0 0 0 0 0 0 0 0 0 0 1 0 0 0 0 0 0 0 0 0 0zm-3 -3l0 0 0 0 0 0zm3 3l-4 3 0 0 0 0 0 -1 0 0 0 0 0 0 0 0 0 -1 0 0 0 0 -1 0 0 0 0 -1 0 0 0 0 0 0 0 0 0 -1 0 0 1 0 0 0 0 0 0 -1 0 0 0 0 0 0 0 0 0 -1 0 0 0 0 0 0 1 0 0 0 3 3 0 0 0 0 0 0 0 0 0 0 0 0 0 0 0 0 0 0 0 0 0 0 0 0 0 0 0 0 0 0 0 0 0 0 0 0 0 0 0 0 0 0 0 0 0 0 0 0 0 0 0 0 0 0 0 0 0 0 0 0 0 0 0 0 0 0zm0 0l0 0 0 0 0 0zm14 28l-18 -25 4 -3 18 25 -4 3 0 0zm0 0l0 0 0 0 0 0zm4 -2l0 4 0 0 0 0 0 0 0 0 -1 0 0 0 0 0 0 0 0 0 0 0 0 0 -1 0 0 0 0 0 0 -1 0 0 0 0 0 0 0 0 -1 0 0 0 0 0 0 0 0 0 0 0 0 0 0 -1 0 0 -1 0 0 0 0 0 0 0 0 0 4 -3 0 0 0 0 0 0 0 0 0 0 0 0 0 0 0 0 0 0 0 0 0 0 0 0 0 0 0 0 0 0 0 0 0 0 0 0 0 0 0 1 0 0 0 0 0 0 0 0 0 0 0 0 0 0 0 0 0 0 0 0 0 0 0 0 0 0zm0 4l0 0 0 0 0 0zm0 0l0 0 0 -4 0 0 0 0 0 4zm0 -5l4 3 0 0 0 0 0 0 0 0 0 0 -1 0 0 1 0 0 0 0 0 0 0 0 0 0 0 0 0 0 -1 0 0 0 0 0 0 0 0 0 0 1 0 0 0 0 -1 0 0 0 0 0 0 0 0 0 0 0 0 0 -1 0 0 0 0 0 0 0 0 -4 0 0 0 0 0 0 0 0 0 0 0 0 0 0 0 0 0 0 0 0 0 0 0 0 0 0 0 -1 0 0 0 0 0 0 0 0 0 0 0 0 0 0 0 0 0 0 0 0 0 0 0 0 0 0 0 0 0 0 0 0 0 0 0 0 0 0zm4 3l0 0 0 0 0 0zm32 -47l-32 47 -4 -3 33 -46 0 0 3 2zm-3 -2l0 0 0 0 0 0zm0 -1l3 -3 0 0 0 0 0 0 0 1 0 0 0 0 0 0 1 0 0 0 0 1 0 0 0 0 0 0 0 0 0 1 0 0 0 0 0 0 0 1 0 0 0 0 0 0 0 0 0 1 0 0 0 0 0 0 0 0 0 1 0 0 -1 0 0 0 0 0 -3 -2 0 0 0 0 0 0 0 0 0 0 0 0 0 0 0 0 0 0 0 0 0 0 0 0 0 0 0 0 0 0 0 0 0 0 0 -1 0 0 0 0 0 0 0 0 0 0 0 0 0 0 0 0 0 0 0 0 0 0 0 0 0 0 0 0 0 0zm3 -3l0 0 0 0 0 0z"/>
   </g>
  </g>
 </g>
</svg>
