<?xml version="1.0" encoding="UTF-8"?>
<!DOCTYPE svg PUBLIC "-//W3C//DTD SVG 1.1//EN" "http://www.w3.org/Graphics/SVG/1.1/DTD/svg11.dtd">
<!-- Creator: CorelDRAW X7 -->
<svg xmlns="http://www.w3.org/2000/svg" xml:space="preserve" width="120px" height="120px" version="1.1" style="shape-rendering:geometricPrecision; text-rendering:geometricPrecision; image-rendering:optimizeQuality; fill-rule:evenodd; clip-rule:evenodd"
viewBox="0 0 120 120"
 xmlns:xlink="http://www.w3.org/1999/xlink">
 <defs>
  <style type="text/css">
   <![CDATA[
    .fil0 {fill:none}
    .fil1 {fill:#FEFEFE}
    .fil3 {fill:#2887D2}
    .fil4 {fill:#FEFEFE;fill-rule:nonzero}
    .fil5 {fill:#FFF212;fill-rule:nonzero}
    .fil2 {fill:#2887D2;fill-rule:nonzero}
   ]]>
  </style>
 </defs>
 <g id="Layer_x0020_1">
  <metadata id="CorelCorpID_0Corel-Layer"/>
  <rect class="fil0" width="120" height="120"/>
  <g id="_807831136">
   <g>
    <g>
     <g>
      <g>
       <g>
        <g>
         <path class="fil1" d="M11 2l-1 85c0,0 67,-1 67,1 0,1 0,-69 0,-69l-11 -16 0 -1c0,0 -55,0 -55,0z"/>
         <path id="1" class="fil2" d="M9 87l0 -85 3 0 0 85 -2 2 -1 -2zm1 2l-1 0 0 -2 1 2zm69 -1l-3 -1 0 0 0 2 0 0 -1 0 -1 0 -1 0 -2 0 -2 0 -2 0 -3 0 -2 0 -3 -1 -3 0 -3 0 -3 0 -3 0 -3 1 -3 0 -4 0 -3 0 -3 0 -2 0 -3 0 -3 0 -2 0 -3 0 -2 0 -1 0 -2 0 -1 0 -1 0 -1 0 0 0 0 -4 0 0 1 0 1 0 1 0 2 0 1 0 2 0 3 0 2 0 3 0 3 0 2 0 3 0 3 0 4 0 3 0 3 0 3 0 3 0 3 0 3 0 3 0 2 0 3 0 2 0 2 0 2 0 1 0 2 0 1 0 0 1 2 2 0 0zm-3 -68l2 -2 1 1 0 0 0 1 0 1 0 1 0 1 0 2 0 2 0 3 0 2 0 3 0 3 0 3 0 3 0 3 0 4 0 3 0 3 0 3 0 3 0 4 0 3 0 2 0 3 0 3 0 2 0 2 0 2 0 1 0 1 0 1 0 0 -3 0 3 1 -3 -1 0 0 0 -1 0 -1 0 -1 0 -2 0 -2 0 -2 0 -3 0 -3 0 -2 0 -3 0 -4 0 -3 0 -3 0 -3 0 -3 0 -4 0 -3 0 -3 0 -3 0 -3 0 -3 0 -2 0 -3 0 -2 0 -2 0 -1 0 -1 0 -1 0 -1 0 0 0 1zm-9 -18l11 16 -2 2 -11 -16 2 -2 0 0zm0 0l0 0 0 0 0 0zm0 -1l0 1 -2 3 0 -1 1 -4 1 1zm-1 -1l0 0 1 1 -1 -1zm-54 2l-3 0 0 0 2 -2 0 0 1 0 1 0 1 0 2 0 1 0 2 0 2 0 2 0 3 0 2 0 2 0 3 0 3 0 2 0 3 0 2 0 3 0 2 0 3 0 2 0 2 0 2 0 2 0 2 0 1 0 1 0 1 0 1 0 1 0 0 0 0 4 -1 0 0 0 -1 0 -1 0 -1 0 -1 0 -2 0 -2 0 -2 0 -2 0 -2 0 -3 0 -2 0 -3 0 -2 0 -3 0 -2 0 -3 0 -3 0 -2 0 -2 0 -3 0 -2 0 -2 0 -2 0 -1 0 -2 0 -1 0 -1 0 -1 0 0 0 1 -2 0 0z"/>
        </g>
        <g>
         <path class="fil3" d="M66 3l-1 11c0,0 0,4 2,4 2,1 11,1 11,1l-12 -17 0 1z"/>
         <path id="1" class="fil2" d="M65 14l1 -11 0 0 -1 11 0 0 0 0zm0 0l0 0 0 0 0 0zm2 4l0 1 0 0 0 0 -1 -1 0 0 0 0 0 0 0 0 0 0 -1 0 0 -1 0 0 0 0 0 0 0 0 0 -1 0 0 0 0 0 0 0 0 0 0 0 -1 0 0 0 0 0 0 0 0 0 0 0 0 0 -1 0 0 0 0 0 0 0 0 0 0 0 0 0 0 0 0 0 0 0 0 0 1 0 0 0 0 0 0 0 0 0 0 0 0 0 0 0 1 0 0 0 0 0 0 0 0 0 0 0 1 1 0 0 0 0 0 0 0 0 0 0 0 0 1 0 0 0 0 0 0 1 0 0 0 0 0 0 0zm10 1l1 0 0 0 0 0 0 0 -1 0 0 0 0 0 0 0 0 0 -1 0 0 0 0 0 -1 0 0 0 -1 0 0 0 0 0 -1 0 0 0 -1 0 0 0 -1 0 0 0 -1 0 0 0 -1 0 0 0 0 0 -1 0 0 0 0 0 -1 0 0 0 0 0 0 -1 0 0 0 0 1 0 0 0 0 0 1 0 0 0 0 0 1 1 0 0 1 0 0 0 1 0 0 0 1 0 0 0 1 0 0 0 0 0 1 0 0 0 1 0 0 0 0 0 1 0 0 0 0 0 0 0 0 0 1 0 0 0 0 0 -1 0zm-11 -17l12 17 -1 0 -11 -17 0 0 0 0zm0 0l0 -1 0 1 0 0zm0 1l0 -1 0 0 0 1 0 0 0 0zm0 0l0 0 0 0 0 0z"/>
        </g>
       </g>
       <rect class="fil3" transform="matrix(-0.598063 -0.00195369 0.00271368 -0.688422 67.8815 44.9489)" width="81.252" height="7.29227"/>
       <rect class="fil3" transform="matrix(-0.598063 -0.00195369 0.00271368 -0.688422 67.9181 35.6571)" width="81.252" height="7.29227"/>
       <rect class="fil3" transform="matrix(-0.408747 -0.00133525 0.00271368 -0.688422 52.5744 25.8136)" width="81.252" height="7.29227"/>
       <rect class="fil3" transform="matrix(-0.598063 -0.00195369 0.00271368 -0.688422 67.8424 54.8729)" width="81.252" height="7.29227"/>
       <rect class="fil3" transform="matrix(-0.598063 -0.00195369 0.00271368 -0.688422 67.8033 64.797)" width="81.252" height="7.29227"/>
       <rect class="fil3" transform="matrix(-0.598063 -0.00195369 0.00271368 -0.688422 67.7646 74.6017)" width="81.252" height="7.29227"/>
      </g>
      <g>
       <g>
        <path class="fil1" d="M19 10l0 84c0,0 67,-1 67,1 0,2 0,-69 0,-69l-11 -15 -1 -1c0,0 -55,-1 -55,0z"/>
        <path id="1" class="fil2" d="M17 94l1 -84 3 0 -1 84 -1 2 -2 -2zm2 2l-2 0 0 -2 2 2zm68 -1l-3 0 0 0 1 2 0 -1 -1 0 -1 0 -2 0 -1 0 -2 0 -3 0 -2 0 -3 0 -3 0 -2 0 -3 0 -3 0 -4 0 -3 0 -3 0 -3 0 -3 0 -3 0 -3 0 -3 0 -2 0 -3 0 -2 0 -2 0 -2 0 -1 0 -1 0 -1 0 -1 0 0 0 0 -3 0 0 1 0 0 -1 2 0 1 0 2 0 2 0 2 0 3 0 2 0 3 0 3 0 3 0 3 0 3 0 3 0 3 0 4 0 3 0 3 0 2 0 3 0 3 0 2 0 3 0 2 0 1 0 2 0 1 1 1 0 1 0 1 2 0 0zm-2 -68l2 -2 1 1 0 0 0 1 0 1 0 1 -1 2 0 2 0 2 0 2 0 3 0 3 0 2 0 3 0 4 0 3 0 3 0 3 0 3 0 4 0 3 0 3 0 3 0 3 0 2 0 3 0 2 0 2 0 2 0 1 0 2 0 0 0 1 -3 0 3 0 -3 0 0 -1 0 0 0 -2 0 -1 0 -2 0 -2 0 -2 0 -3 0 -2 0 -3 0 -3 0 -3 0 -3 0 -4 0 -3 0 -3 0 -3 0 -3 0 -4 0 -3 0 -2 0 -3 1 -3 0 -2 0 -2 0 -2 0 -2 0 -1 0 -1 0 -1 0 0 0 1zm-9 -18l11 16 -2 2 -11 -15 2 -3 0 0zm0 0l0 0 0 0 0 0zm-1 -1l1 1 -2 3 -1 -1 1 -3 1 0zm-1 0l1 0 0 0 -1 0zm-53 2l-3 0 0 0 1 -2 1 0 1 0 1 0 1 0 1 0 2 0 2 0 2 0 2 0 2 0 3 0 2 0 3 0 2 0 3 0 2 0 3 0 2 0 3 0 2 0 3 0 2 0 2 0 2 0 1 0 2 0 1 0 1 0 1 0 0 0 0 0 0 4 0 0 0 0 -1 0 -1 0 -1 0 -2 0 -1 0 -2 0 -2 0 -2 0 -3 0 -2 0 -3 0 -2 0 -3 -1 -2 0 -3 0 -2 0 -3 0 -2 0 -3 0 -2 0 -2 0 -2 0 -2 0 -2 0 -1 0 -1 0 -1 1 -1 0 -1 0 2 -2 0 0z"/>
       </g>
       <g>
        <path class="fil3" d="M74 11l0 11c0,0 -1,3 2,4 2,0 10,0 10,0l-12 -17 0 2z"/>
        <path id="1" class="fil2" d="M73 22l1 -11 1 0 -1 11 0 0 -1 0zm1 0l0 0 0 0 0 0zm2 4l-1 0 0 0 0 0 0 0 0 0 0 0 0 -1 -1 0 0 0 0 0 0 0 0 0 0 -1 0 0 0 0 0 0 0 0 0 -1 -1 0 0 0 0 0 0 0 0 0 0 -1 0 0 0 0 0 0 0 0 0 0 0 0 0 0 0 0 0 0 0 0 1 0 0 0 0 0 0 0 0 0 0 0 0 0 0 0 0 0 0 0 0 0 0 1 0 0 0 0 0 0 0 0 0 0 0 1 0 0 0 0 0 0 0 0 0 0 0 1 1 0 0 0 0 0 0 0 0 0 0 0 0 0 0 0 1 1 0 0zm10 0l1 0 -1 0 0 0 0 0 0 0 0 0 0 0 0 0 -1 0 0 0 0 0 -1 0 0 0 0 0 -1 0 0 0 -1 0 0 0 -1 0 0 0 -1 0 0 0 -1 0 0 0 0 0 -1 0 0 0 -1 0 0 0 0 0 -1 0 0 0 0 0 -1 0 1 0 0 0 0 0 0 0 1 0 0 0 0 0 1 0 0 0 1 0 0 0 0 0 1 0 0 0 1 0 0 0 1 0 0 0 1 0 0 0 1 0 0 0 0 0 1 0 0 0 0 0 1 0 0 0 0 0 0 0 0 0 0 0 0 0 0 0zm-11 -17l12 17 -1 0 -12 -17 0 0 1 0zm-1 0l0 0 1 0 -1 0zm0 2l0 -2 1 0 0 2 0 0 -1 0zm1 0l0 0 0 0 0 0z"/>
       </g>
      </g>
     </g>
     <g>
      <rect class="fil3" x="28" y="29" width="45.5816" height="5.61753"/>
      <rect class="fil3" x="28" y="46" width="45.5816" height="5.61753"/>
      <rect class="fil3" x="28" y="62" width="45.5816" height="5.61753"/>
     </g>
    </g>
    <g>
     <path class="fil2" d="M110 88c0,14 -10,27 -24,29 -14,3 -28,-4 -34,-18 -1,-3 -2,-7 -2,-11 0,-16 14,-30 30,-30 4,0 8,1 11,3 11,4 19,15 19,27z"/>
     <path id="1" class="fil4" d="M86 119l-1 -3 0 0 2 -1 1 0 1 0 1 -1 1 0 1 -1 1 0 1 -1 1 -1 1 0 1 -1 1 -1 1 0 1 -1 1 -1 0 -1 1 -1 1 -1 1 -1 0 -1 1 -1 0 -1 1 -1 0 -1 1 -1 0 -1 0 -2 0 -1 1 -1 0 -1 0 -2 0 -1 4 0 0 2 0 1 -1 1 0 2 0 1 0 1 -1 2 0 1 -1 1 0 2 -1 1 -1 1 0 1 -1 1 -1 1 -1 1 0 1 -1 1 -1 1 -1 1 -1 1 -1 1 -2 1 -1 0 -1 1 -1 1 -1 0 -2 1 -1 0 -1 1 -2 0 -1 0 0 0zm-35 -19l3 -1 0 0 1 1 0 1 1 1 0 1 1 1 1 1 1 1 0 1 1 1 1 1 1 0 1 1 1 1 1 1 1 0 1 1 1 0 1 1 1 0 1 1 1 0 1 0 1 1 2 0 1 0 1 0 1 0 1 0 2 0 1 0 1 0 1 0 1 3 -1 1 -2 0 -1 0 -2 0 -1 0 -1 0 -2 0 -1 0 -1 -1 -2 0 -1 0 -1 -1 -1 0 -2 -1 -1 0 -1 -1 -1 -1 -1 0 -2 -1 -1 -1 -1 -1 -1 -1 -1 -1 -1 -1 0 -1 -1 -1 -1 -1 -1 -1 -1 -1 0 -1 -1 -2 0 -1 0 0zm3 -1l0 0 0 0 0 0zm-6 -11l4 0 0 0 0 1 0 0 0 0 0 1 0 0 0 0 0 1 0 0 0 0 0 1 0 0 0 0 0 1 0 0 1 0 0 1 0 0 0 0 0 1 0 0 0 0 0 1 0 0 0 0 0 0 0 1 1 0 0 0 0 1 0 0 0 0 0 1 -3 1 -1 0 0 -1 0 0 0 0 0 -1 0 0 0 0 0 -1 0 0 -1 0 0 -1 0 0 0 -1 0 0 0 0 0 -1 0 0 0 0 0 -1 0 0 0 -1 0 0 -1 0 0 -1 0 0 0 0 0 -1 0 0 0 -1 0 0 0 0 0 -1 0 0zm4 0l0 0 0 0 0 0zm28 -31l0 3 0 0 -1 0 -2 1 -1 0 -2 0 -1 0 -1 1 -2 0 -1 1 -1 0 -1 1 -1 0 -2 1 -1 1 -1 1 -1 1 -1 1 -1 1 -1 1 0 1 -1 1 -1 1 -1 1 0 1 -1 1 0 2 -1 1 0 1 0 2 -1 1 0 1 0 2 0 1 -4 0 0 -1 0 -2 1 -2 0 -1 0 -2 1 -1 0 -2 1 -1 0 -1 1 -2 1 -1 1 -1 1 -2 1 -1 1 -1 1 -1 1 -1 1 -1 1 -1 1 -1 2 -1 1 -1 1 0 2 -1 1 0 2 -1 1 0 2 -1 1 0 2 0 1 0 2 0 0 0zm0 3l0 0 0 0 0 0zm12 -1l-2 3 0 0 0 0 0 0 -1 0 0 0 0 0 0 0 -1 0 0 0 0 -1 -1 0 0 0 0 0 -1 0 0 0 0 0 -1 0 0 0 0 0 -1 0 0 0 0 0 -1 0 0 0 0 0 -1 -1 0 0 0 0 -1 0 0 0 0 0 -1 0 0 0 0 -3 0 0 1 0 0 0 0 0 1 0 0 0 1 0 0 0 0 0 1 0 0 0 1 0 0 0 0 0 1 0 0 0 0 0 1 0 0 0 1 0 0 1 0 0 1 0 0 0 0 0 1 0 0 0 0 0 1 0 0 1 0 0 1 0 0 0zm-2 3l0 0 0 0 0 0zm22 26l-4 0 0 0 0 -1 0 -1 0 -1 0 -1 -1 -1 0 -1 0 -1 0 -1 -1 -1 0 -1 0 -1 -1 -1 0 -1 -1 -1 0 0 -1 -1 0 -1 -1 -1 -1 -1 0 -1 -1 0 -1 -1 -1 -1 0 0 -1 -1 -1 -1 -1 0 -1 -1 -1 0 -1 -1 -1 0 -1 -1 2 -3 1 0 1 1 1 0 1 1 1 1 1 0 1 1 1 1 1 0 1 1 1 1 0 1 1 1 1 1 1 1 0 1 1 1 0 1 1 1 1 1 0 1 0 1 1 1 0 1 1 1 0 1 0 1 0 1 0 2 1 1 0 1 0 1 0 0z"/>
    </g>
    <polygon class="fil5" points="95,83 95,92 84,83 84,107 76,107 76,83 65,92 65,83 80,70 "/>
   </g>
   <g>
    <polygon class="fil1" points="36,26 44,26 44,40 36,40 "/>
    <path id="1" class="fil2" d="M44 27l-8 0 0 -2 8 0 1 1 -1 1zm0 -2l1 0 0 1 -1 -1zm-1 15l0 -14 2 0 0 14 -1 1 -1 -1zm2 0l0 1 -1 0 1 -1zm-9 -1l8 0 0 2 -8 0 -1 -1 1 -1zm0 2l-1 0 0 -1 1 1zm1 -15l0 14 -2 0 0 -14 1 -1 1 1zm-2 0l0 -1 1 0 -1 1z"/>
   </g>
   <g>
    <polygon class="fil1" points="57,41 64,41 64,55 57,55 "/>
    <path id="1" class="fil2" d="M64 42l-7 0 0 -2 7 0 1 1 -1 1zm0 -2l1 0 0 1 -1 -1zm-1 15l0 -14 2 0 0 14 -1 1 -1 -1zm2 0l0 1 -1 0 1 -1zm-8 -1l7 0 0 2 -7 0 -1 -1 1 -1zm0 2l-1 0 0 -1 1 1zm1 -15l0 14 -2 0 0 -14 1 -1 1 1zm-2 0l0 -1 1 0 -1 1z"/>
   </g>
   <g>
    <polygon class="fil1" points="37,58 44,58 44,72 37,72 "/>
    <path id="1" class="fil2" d="M44 59l-7 0 0 -2 7 0 1 1 -1 1zm0 -2l1 0 0 1 -1 -1zm-1 15l0 -14 2 0 0 14 -1 1 -1 -1zm2 0l0 1 -1 0 1 -1zm-8 -1l7 0 0 2 -7 0 -1 -1 1 -1zm0 2l-1 0 0 -1 1 1zm1 -15l0 14 -2 0 0 -14 1 -1 1 1zm-2 0l0 -1 1 0 -1 1z"/>
   </g>
  </g>
 </g>
</svg>
