<?xml version="1.0" encoding="UTF-8"?>
<!DOCTYPE svg PUBLIC "-//W3C//DTD SVG 1.1//EN" "http://www.w3.org/Graphics/SVG/1.1/DTD/svg11.dtd">
<!-- Creator: CorelDRAW X7 -->
<svg xmlns="http://www.w3.org/2000/svg" xml:space="preserve" width="120px" height="120px" version="1.1" style="shape-rendering:geometricPrecision; text-rendering:geometricPrecision; image-rendering:optimizeQuality; fill-rule:evenodd; clip-rule:evenodd"
viewBox="0 0 120 120"
 xmlns:xlink="http://www.w3.org/1999/xlink">
 <defs>
  <style type="text/css">
   <![CDATA[
    .fil0 {fill:none}
    .fil2 {fill:#FEFEFE;fill-rule:nonzero}
    .fil1 {fill:#00A859;fill-rule:nonzero}
    .fil3 {fill:#04870F;fill-rule:nonzero}
   ]]>
  </style>
 </defs>
 <g id="Layer_x0020_1">
  <metadata id="CorelCorpID_0Corel-Layer"/>
  <rect class="fil0" width="120" height="120"/>
  <g id="_604070600">
   <path class="fil1" d="M119 70c0,-24 0,-21 0,-45 0,-13 -8,-24 -17,-24 -39,0 -45,0 -84,0 -9,0 -17,11 -17,24 0,24 0,21 0,45 0,13 8,24 17,24 23,0 14,0 37,0 20,14 20,14 38,25 -4,-21 -6,-21 -4,-25 4,0 9,0 13,0 9,0 17,-11 17,-24z"/>
   <g>
    <path class="fil2" d="M80 83l-40 0c-3,0 -7,-3 -7,-6l-5 -27c-2,-1 -4,-3 -4,-6 0,-3 3,-6 7,-6l58 0c4,0 7,3 7,6 0,2 -1,4 -3,5l-6 28c0,3 -3,6 -7,6z"/>
    <path class="fil3" d="M47 71c0,1 -1,2 -3,2l0 0c-2,0 -3,-1 -3,-2l0 -17c0,-1 1,-2 3,-2l0 0c2,0 3,1 3,2l0 17z"/>
    <path class="fil3" d="M64 71c0,1 -1,2 -3,2l-1 0c-1,0 -2,-1 -2,-2l0 -17c0,-1 1,-2 2,-2l1 0c2,0 3,1 3,2l0 17z"/>
    <path class="fil3" d="M80 71c0,1 -1,2 -3,2l-1 0c-1,0 -3,-1 -3,-2l0 -17c0,-1 2,-2 3,-2l1 0c2,0 3,1 3,2l0 17 0 0z"/>
    <path class="fil2" d="M40 30c1,-9 10,-17 20,-17 10,0 19,8 20,17 0,4 5,3 5,0 -2,-12 -12,-21 -25,-21 -13,0 -23,9 -24,21 0,4 4,4 4,0z"/>
   </g>
  </g>
 </g>
</svg>
