<?xml version="1.0" encoding="UTF-8"?>
<!DOCTYPE svg PUBLIC "-//W3C//DTD SVG 1.1//EN" "http://www.w3.org/Graphics/SVG/1.1/DTD/svg11.dtd">
<!-- Creator: CorelDRAW X7 -->
<svg xmlns="http://www.w3.org/2000/svg" xml:space="preserve" width="48px" height="42px" version="1.1" style="shape-rendering:geometricPrecision; text-rendering:geometricPrecision; image-rendering:optimizeQuality; fill-rule:evenodd; clip-rule:evenodd"
viewBox="0 0 48 42"
 xmlns:xlink="http://www.w3.org/1999/xlink">
 <defs>
  <style type="text/css">
   <![CDATA[
    .fil1 {fill:#FEFEFE}
    .fil5 {fill:#0063D4;fill-rule:nonzero}
    .fil2 {fill:#1CC8EB;fill-rule:nonzero}
    .fil0 {fill:url(#id0)}
    .fil3 {fill:url(#id1)}
    .fil4 {fill:url(#id2)}
   ]]>
  </style>
  <linearGradient id="id0" gradientUnits="userSpaceOnUse" x1="14.0646" y1="35.3988" x2="33.9354" y2="5.85709">
   <stop offset="0" style="stop-opacity:1; stop-color:#1CC8EB"/>
   <stop offset="0.631373" style="stop-opacity:1; stop-color:#0E96E0"/>
   <stop offset="1" style="stop-opacity:1; stop-color:#0063D4"/>
  </linearGradient>
  <linearGradient id="id1" gradientUnits="userSpaceOnUse" xlink:href="#id0" x1="21.222" y1="32.5122" x2="26.778" y2="27.4406">
  </linearGradient>
  <linearGradient id="id2" gradientUnits="userSpaceOnUse" xlink:href="#id0" x1="18.4382" y1="38.1307" x2="21.2161" y2="33.0591">
  </linearGradient>
 </defs>
 <g id="Layer_x0020_1">
  <metadata id="CorelCorpID_0Corel-Layer"/>
  <g id="_807772888">
   <rect class="fil0" y="8" width="47.9997" height="24.2724" rx="6" ry="6"/>
   <g>
    <g>
     <polygon class="fil1" points="12,25 36,25 36,42 12,42 "/>
     <path id="1" class="fil2" d="M36 25l-24 0 0 0 24 0 1 0 -1 0zm0 0l1 0 0 0 -1 0zm0 17l0 -17 1 0 0 17 -1 0 0 0zm1 0l0 0 -1 0 1 0zm-25 -1l24 0 0 1 -24 0 -1 0 1 -1zm0 1l-1 0 0 0 1 0zm0 -17l0 17 -1 0 0 -17 1 0 0 0zm-1 0l0 0 1 0 -1 0z"/>
    </g>
    <rect class="fil3" x="16" y="29" width="16.6921" height="2.51709"/>
    <rect class="fil4" x="16" y="34" width="8.34604" height="2.51709"/>
   </g>
   <circle class="fil1" cx="42" cy="16" r="3"/>
   <g>
    <path class="fil5" d="M9 0l0 1 0 0 0 0 0 0 0 0 0 0 0 0 0 0 0 1 0 0 0 0 0 0 0 1 0 0 0 0 0 1 0 0 0 0 0 1 0 0 0 0 0 1 0 0 0 0 0 0 0 0 0 1 0 0 0 0 0 0 -1 0 0 0 0 0 0 0 1 0 0 0 0 0 0 0 -1 0 0 0 0 0 0 0 0 -1 0 0 0 0 0 0 0 0 0 -1 0 0 0 0 0 -1 0 0 0 0 0 -1 0 0 0 0 0 -1 0 0 0 0 0 0 0 -1 0 0 0 0 0 0 0 0 0 0 0 0 1 -1zm33 1l-33 0 0 -1 33 0 0 1 0 0zm0 -1l0 0 0 1 0 -1zm-1 7l0 -6 1 0 0 6 -1 0z"/>
   </g>
  </g>
 </g>
</svg>
