<?xml version="1.0" encoding="UTF-8"?>
<!DOCTYPE svg PUBLIC "-//W3C//DTD SVG 1.1//EN" "http://www.w3.org/Graphics/SVG/1.1/DTD/svg11.dtd">
<!-- Creator: CorelDRAW X7 -->
<svg xmlns="http://www.w3.org/2000/svg" xml:space="preserve" width="120px" height="120px" version="1.1" style="shape-rendering:geometricPrecision; text-rendering:geometricPrecision; image-rendering:optimizeQuality; fill-rule:evenodd; clip-rule:evenodd"
viewBox="0 0 120 120"
 xmlns:xlink="http://www.w3.org/1999/xlink">
 <defs>
  <style type="text/css">
   <![CDATA[
    .fil0 {fill:none}
    .fil4 {fill:#FEFEFE}
    .fil2 {fill:#FEFEFE}
    .fil6 {fill:#087EDA}
    .fil7 {fill:#FC4D44}
    .fil9 {fill:#FEFEFE;fill-rule:nonzero}
    .fil10 {fill:#FFF212;fill-rule:nonzero}
    .fil5 {fill:#0098DA;fill-rule:nonzero}
    .fil3 {fill:#2887D2;fill-rule:nonzero}
    .fil8 {fill:url(#id0)}
    .fil1 {fill:url(#id1)}
   ]]>
  </style>
  <linearGradient id="id0" gradientUnits="userSpaceOnUse" x1="50.0797" y1="52.3924" x2="81.9063" y2="44.3229">
   <stop offset="0" style="stop-opacity:1; stop-color:#04870F"/>
   <stop offset="1" style="stop-opacity:1; stop-color:#03690C"/>
  </linearGradient>
  <linearGradient id="id1" gradientUnits="userSpaceOnUse" x1="35.9901" y1="48.0966" x2="84.0099" y2="107.829">
   <stop offset="0" style="stop-opacity:1; stop-color:#1CC8EB"/>
   <stop offset="0.321569" style="stop-opacity:1; stop-color:#0E96E0"/>
   <stop offset="1" style="stop-opacity:1; stop-color:#0063D4"/>
  </linearGradient>
 </defs>
 <g id="Layer_x0020_1">
  <metadata id="CorelCorpID_0Corel-Layer"/>
  <rect class="fil0" width="120" height="120"/>
  <g id="_810116480">
   <g>
    <rect class="fil1" x="2" y="53" width="116.002" height="49.0791" rx="14" ry="13"/>
    <g>
     <path class="fil2" d="M89 81l0 4 0 10c0,3 0,3 -1,3 -4,0 -56,0 -58,0 -2,0 -2,-3 -2,-4 -1,-3 0,-12 0,-13l0 0c20,0 41,0 61,0 0,0 0,0 0,0z"/>
     <path id="1" class="fil3" d="M88 85l0 -4 3 0 -1 4 -2 0 0 0zm0 0l0 0 0 0 0 0zm0 10l0 -10 2 0 0 10 -2 0zm0 4l0 -1 0 0 0 0 0 0 0 0 0 0 0 0 0 0 0 0 0 0 0 0 0 0 0 0 0 0 0 0 0 0 0 0 0 0 0 0 0 -1 0 0 0 0 0 0 0 0 0 0 0 0 0 0 0 0 0 -1 0 0 0 0 0 0 0 0 0 -1 2 0 0 1 0 0 0 0 0 0 0 0 0 1 0 0 0 0 0 0 0 0 0 0 0 0 0 0 0 1 0 0 0 0 0 0 0 0 0 0 0 0 0 0 0 0 -1 0 0 0 0 0 0 0 0 1 -1 0 0 0 0 0 0 0 0 0 0 0zm-58 0l0 -1 0 0 1 0 0 0 1 0 1 0 2 0 1 0 2 0 2 0 2 0 2 0 2 0 2 0 3 0 2 0 3 0 2 0 3 0 3 0 2 0 3 0 2 0 2 0 2 0 3 0 1 0 2 0 2 0 1 0 1 0 1 0 1 0 1 0 0 1 -1 0 -1 0 -1 0 -1 0 -1 0 -2 0 -2 0 -1 0 -3 0 -2 0 -2 0 -2 0 -3 0 -2 0 -3 0 -3 0 -2 0 -3 0 -2 0 -2 0 -3 0 -2 0 -2 0 -2 0 -2 0 -2 0 -1 0 -2 0 -1 0 -1 0 0 0 -1 0 0 0zm-3 -5l2 0 0 0 0 0 0 0 0 0 0 0 0 0 0 1 0 0 0 0 0 0 0 0 0 0 0 1 0 0 0 0 0 0 0 0 0 0 0 1 0 0 0 0 1 0 0 0 0 0 0 0 0 1 0 0 0 0 0 0 0 0 0 0 0 0 0 0 0 1 0 0 0 0 -1 -1 0 0 -1 0 0 0 0 0 0 0 0 0 -1 0 0 -1 0 0 0 0 0 0 0 0 0 -1 0 0 0 0 0 0 0 0 0 -1 0 0 0 0 0 0 0 0 0 0 0 -1 0 0 0 0 0 0 0 0 0 0 0 0zm0 -13l2 0 0 0 0 0 0 0 0 0 0 0 0 1 0 0 0 0 0 1 0 0 0 1 0 0 0 1 0 0 0 1 0 0 0 1 0 0 0 1 0 0 0 1 0 0 0 1 0 0 0 1 0 0 0 1 0 0 0 0 0 1 0 0 0 0 0 1 -2 0 -1 -1 0 0 0 0 0 -1 0 0 0 0 0 -1 0 0 0 -1 0 0 0 -1 0 0 0 -1 1 0 0 -1 0 0 0 -1 0 -1 0 0 0 0 0 -1 0 0 0 -1 0 0 0 -1 0 0 0 0 0 -1 0 0 0 0 0 0 0 0 0 0zm2 0l0 0 0 0 0 0zm0 0l0 0 -2 0 0 0 1 -1 1 1zm-2 0l0 -1 1 0 -1 1zm61 0l2 0 -1 0 -2 0 -2 0 -2 0 -2 0 -1 0 -2 0 -2 0 -2 0 -2 0 -2 0 -2 0 -2 0 -2 0 -2 0 -2 0 -2 0 -1 0 -2 0 -2 0 -2 0 -2 0 -2 0 -2 0 -2 0 -2 0 -2 0 -2 0 -1 0 -2 0 -2 0 -2 0 -2 0 0 -1 2 0 2 0 2 0 2 0 1 0 2 0 2 0 2 0 2 0 2 0 2 0 2 0 2 0 2 0 2 0 1 0 2 0 2 0 2 0 2 0 2 0 2 0 2 0 2 0 2 0 2 0 2 0 1 0 2 0 2 0 2 0 2 0 -1 1zm2 0l0 0 -1 0 1 0zm1 0l-3 0 2 0 0 0 0 0 0 0 0 0 0 0 0 0 0 0 0 0 0 0 0 0 0 0 0 0 0 0 0 0 0 0 0 0 0 0 0 0 0 0 0 0 0 0 0 0 0 0 0 0 0 0 0 0 0 0 0 0 0 0 0 0 0 0 0 0 -2 0 0 -1 0 0 0 0 0 0 0 0 0 0 0 0 0 0 0 0 0 0 0 0 0 0 0 0 0 0 0 0 0 0 0 0 0 0 0 0 0 0 0 0 0 0 0 0 0 0 0 0 0 0 0 0 0 0 0 0 0 0 0 0 0 0 3 1zm-3 -1l3 -1 0 2 -3 -1z"/>
    </g>
    <circle class="fil4" cx="105" cy="87" r="6"/>
    <rect class="fil2" x="25" y="67" width="66.9305" height="7.84735"/>
   </g>
   <g id="_810116120">
    <polygon class="fil2" points="87,72 87,32 81,18 31,18 31,73 87,73 "/>
    <g>
     <path class="fil5" d="M85 32l3 0 0 0 0 0 0 0 0 1 0 1 0 1 0 1 0 1 0 2 0 1 0 2 0 2 0 1 0 2 0 2 0 2 0 2 0 2 0 2 0 2 0 2 0 1 0 2 0 2 0 1 0 2 0 1 0 1 0 1 0 0 0 1 0 0 -3 0 3 0 -3 0 0 0 0 -1 0 0 0 -1 0 -1 0 -1 0 -2 0 -1 0 -2 0 -2 0 -1 0 -2 0 -2 0 -2 0 -2 0 -2 0 -2 0 -2 0 -2 0 -1 0 -2 0 -2 0 -1 0 -2 0 -1 0 -1 0 -1 0 -1 0 -1 0 0 0 0 0 0zm3 -14l0 14 -3 0 0 -14 2 -1 1 1zm-1 -1l1 0 0 1 -1 -1zm0 -1l0 1 -2 3 0 -1 1 -3 1 0zm-1 0l0 0 1 0 -1 0zm-54 2l-3 0 0 0 2 -2 0 0 1 0 1 0 1 0 2 0 2 0 1 0 2 0 3 0 2 0 2 0 3 0 2 0 3 0 2 0 3 0 2 0 3 0 2 0 3 0 2 0 2 0 2 0 2 0 2 0 1 0 1 0 1 0 1 0 1 0 0 0 0 3 0 0 -1 0 -1 0 -1 0 -1 0 -1 0 -2 0 -2 0 -2 0 -2 0 -2 0 -3 0 -2 0 -3 0 -2 0 -3 0 -2 0 -3 0 -2 0 -3 0 -2 0 -2 0 -3 0 -2 0 -1 0 -2 0 -1 0 -2 0 -1 0 0 1 -1 0 1 -2 0 0zm-3 55l0 -55 3 0 0 55 -3 0zm3 0l-3 0 0 0 0 0 0 0 0 -1 0 0 0 0 0 0 0 0 0 0 0 0 0 0 3 0 0 0 0 0 0 0 0 0 0 0 0 0 0 0 0 0 0 0 0 0 0 0 0 1 0 0 0 0 0 0 0 0 0 0 0 0 0 0 0 0 -3 0 0 0 0 0 0 0 0 0 0 0 0 0 0 0 0 0 0 -1 0 0 0 0 0 0 0 0 0 0 0 0 0 0 0 0 0 0 0 0 0 0 3 0 0 0 0 0 0 0 0 0 0 0 0 0 0 0 0 1 0 0 0 0 0 0z"/>
    </g>
    <rect class="fil6" x="31" y="70" width="56.2574" height="3.13801"/>
    <path class="fil7" d="M42 62l3 -10 -3 -1c0,0 0,1 -1,0 0,0 0,-4 0,-6 0,-2 1,-4 1,-4 0,0 1,-2 2,-3 1,-2 3,-5 4,-5 0,0 0,0 0,0l3 1 4 -9c0,0 -3,-1 -4,-2 -1,0 -5,1 -8,5 -3,4 -5,12 -5,12 0,0 -3,7 -3,12 0,5 3,8 3,9 1,0 4,1 4,1z"/>
    <g id="_810116504">
     <g>
      <path class="fil8" d="M66 32c9,0 16,7 16,16 0,9 -7,17 -16,17 -9,0 -16,-8 -16,-17 0,-9 7,-16 16,-16z"/>
      <path id="1" class="fil9" d="M83 48l-1 0 0 0 0 0 0 -1 0 -1 0 -1 -1 -1 0 0 0 -1 0 -1 -1 -1 0 0 0 -1 -1 -1 0 0 -1 -1 0 0 -1 -1 0 0 -1 -1 -1 0 0 -1 -1 0 0 -1 -1 0 -1 0 -1 -1 0 0 -1 0 -1 0 -1 0 0 0 -1 0 -1 0 0 -2 1 0 1 0 1 0 0 1 1 0 1 0 1 0 1 1 0 0 1 0 1 1 1 0 0 1 1 0 0 1 1 0 1 1 0 0 1 1 0 1 1 0 0 1 0 1 1 1 0 0 0 1 1 1 0 1 0 1 0 1 0 0 0 1 0 0zm-17 17l0 -1 0 0 1 0 1 0 0 0 1 0 1 0 1 -1 0 0 1 0 1 0 1 -1 0 0 1 -1 0 0 1 0 1 -1 0 0 1 -1 0 -1 1 0 0 -1 1 0 0 -1 0 -1 1 0 0 -1 0 -1 0 -1 1 0 0 -1 0 -1 0 -1 0 -1 1 0 0 1 0 1 0 1 0 1 0 1 -1 0 0 1 0 1 -1 1 0 1 0 0 -1 1 0 1 -1 0 0 1 -1 0 -1 1 0 1 -1 0 0 1 -1 0 -1 0 -1 1 0 0 -1 0 -1 1 -1 0 -1 0 0 0 -1 0 -1 0 -1 0 0 0zm-17 -17l1 0 0 0 0 1 0 1 0 1 0 1 1 0 0 1 0 1 0 1 1 0 0 1 0 1 1 0 0 1 1 0 0 1 1 1 0 0 1 1 1 0 0 0 1 1 0 0 1 1 1 0 1 0 0 0 1 1 1 0 1 0 0 0 1 0 1 0 0 1 -1 0 -1 0 -1 0 0 0 -1 0 -1 0 -1 -1 -1 0 0 0 -1 -1 -1 0 -1 0 0 -1 -1 0 -1 -1 0 -1 -1 0 0 -1 -1 0 0 -1 -1 -1 0 0 0 -1 -1 -1 0 -1 0 -1 -1 0 0 -1 0 -1 0 -1 0 -1 0 -1 0 0zm17 -17l0 2 0 0 -1 0 -1 0 0 0 -1 0 -1 0 -1 0 0 0 -1 1 -1 0 -1 0 0 1 -1 0 0 1 -1 0 -1 1 0 0 -1 1 0 0 -1 1 0 0 -1 1 0 1 0 0 -1 1 0 1 0 1 0 0 -1 1 0 1 0 1 0 1 0 0 -1 0 0 -1 0 0 0 -1 0 -1 0 -1 1 -1 0 -1 0 0 1 -1 0 -1 0 -1 1 0 0 -1 1 -1 0 0 1 -1 0 0 1 -1 1 0 0 -1 1 0 1 -1 1 0 0 0 1 -1 1 0 1 0 1 0 0 -1 1 0 1 0 1 0 0 0z"/>
     </g>
     <path class="fil10" d="M69 53c0,-1 0,-1 -1,-2 0,0 -1,0 -2,-1 -1,0 -2,-1 -3,-1 0,0 -1,-1 -2,-1 0,-1 0,-1 -1,-2 0,-1 0,-2 0,-2 0,-2 0,-3 1,-4 1,-1 3,-2 4,-2l0 -1 0 -1 0 -1 0 0c0,0 1,0 1,0l1 0c0,0 1,0 1,0l0 0 0 1 0 1 0 1c1,0 3,1 4,2 0,1 1,2 1,4l0 0 0 0c0,1 -1,1 -1,1l-2 0c-1,0 -1,0 -1,-1l0 0 0 0 0 0 0 0 0 0c0,-1 0,-2 -1,-2 0,-1 -1,-1 -2,-1 0,0 -1,0 -1,1 -1,0 -1,1 -1,2 0,0 0,1 0,1 1,1 2,1 3,2 1,0 2,0 3,1 0,0 1,1 1,1 1,1 1,1 2,2 0,1 0,1 0,2 0,2 -1,3 -2,4 -1,1 -2,2 -4,2l0 1c0,0 0,0 0,0l0 1c0,0 0,1 0,1l-1 0c-1,0 -1,-1 -1,-1l0 -1c0,0 0,0 0,0l0 -1c-2,0 -3,-1 -4,-2 -1,-1 -2,-2 -2,-4l0 0c0,-1 1,-2 1,-2l2 0c0,0 1,1 1,2l0 0 0 0 0 0 0 0 0 0 0 0c0,1 0,1 1,2 0,0 1,1 2,1 1,0 2,-1 2,-1 1,0 1,-1 1,-2z"/>
    </g>
   </g>
  </g>
 </g>
</svg>
