<?xml version="1.0" encoding="UTF-8"?>
<!DOCTYPE svg PUBLIC "-//W3C//DTD SVG 1.1//EN" "http://www.w3.org/Graphics/SVG/1.1/DTD/svg11.dtd">
<!-- Creator: CorelDRAW X7 -->
<svg xmlns="http://www.w3.org/2000/svg" xml:space="preserve" width="120px" height="120px" version="1.1" style="shape-rendering:geometricPrecision; text-rendering:geometricPrecision; image-rendering:optimizeQuality; fill-rule:evenodd; clip-rule:evenodd"
viewBox="0 0 120 120"
 xmlns:xlink="http://www.w3.org/1999/xlink">
 <defs>
  <style type="text/css">
   <![CDATA[
    .fil0 {fill:none}
    .fil4 {fill:#FEFEFE}
    .fil2 {fill:#FEFEFE}
    .fil7 {fill:#00AFEF}
    .fil8 {fill:#087EDA}
    .fil5 {fill:#0098DA;fill-rule:nonzero}
    .fil3 {fill:#2887D2;fill-rule:nonzero}
    .fil1 {fill:url(#id0)}
    .fil6 {fill:url(#id1);fill-rule:nonzero}
   ]]>
  </style>
  <linearGradient id="id0" gradientUnits="userSpaceOnUse" x1="35.9913" y1="52.416" x2="84.0087" y2="112.148">
   <stop offset="0" style="stop-opacity:1; stop-color:#1CC8EB"/>
   <stop offset="0.321569" style="stop-opacity:1; stop-color:#0E96E0"/>
   <stop offset="1" style="stop-opacity:1; stop-color:#0063D4"/>
  </linearGradient>
  <linearGradient id="id1" gradientUnits="userSpaceOnUse" x1="40.8303" y1="58.9476" x2="58.4008" y2="35.3086">
   <stop offset="0" style="stop-opacity:1; stop-color:#1CC8EB"/>
   <stop offset="0.631373" style="stop-opacity:1; stop-color:#0E96E0"/>
   <stop offset="1" style="stop-opacity:1; stop-color:#0063D4"/>
  </linearGradient>
 </defs>
 <g id="Layer_x0020_1">
  <metadata id="CorelCorpID_0Corel-Layer"/>
  <rect class="fil0" width="120" height="120"/>
  <g id="_911707984">
   <g>
    <rect class="fil1" x="2" y="58" width="116.002" height="49.0791" rx="14" ry="13"/>
    <g>
     <path class="fil2" d="M89 85l0 5 0 10c0,2 0,2 -1,2 -4,0 -56,0 -58,0 -2,0 -2,-3 -2,-4 -1,-3 0,-12 0,-13l0 0c20,0 41,0 61,0 0,0 0,0 0,0z"/>
     <path id="1" class="fil3" d="M88 90l0 -5 3 0 -1 5 -2 0 0 0zm0 0l0 0 0 0 0 0zm0 10l0 -10 2 0 0 10 -2 0zm0 3l0 -1 0 0 0 0 0 0 0 0 0 0 0 0 0 0 0 0 0 0 0 0 0 0 0 0 0 0 0 0 0 0 0 0 0 0 0 0 0 0 0 0 0 0 0 0 0 -1 0 0 0 0 0 0 0 0 0 0 0 0 0 -1 0 0 0 0 0 0 2 0 0 0 0 0 0 0 0 1 0 0 0 0 0 0 0 0 0 0 0 0 0 1 0 0 0 0 0 0 0 0 0 0 0 0 0 0 0 0 0 0 0 0 0 1 -1 0 0 0 0 0 0 0 0 0 -1 0 0 0 0 0 0 0 0 0 0 0zm-58 0l0 -1 0 0 1 0 0 0 1 0 1 0 2 0 1 0 2 0 2 0 2 0 2 0 2 0 2 0 3 0 2 0 3 0 2 0 3 0 3 0 2 0 3 0 2 0 2 0 2 0 3 0 1 0 2 0 2 0 1 0 1 0 1 0 1 0 1 0 0 1 -1 0 -1 0 -1 0 -1 0 -1 0 -2 0 -2 0 -1 0 -3 0 -2 0 -2 0 -2 0 -3 0 -2 0 -3 0 -3 0 -2 0 -3 0 -2 0 -2 0 -3 0 -2 0 -2 0 -2 0 -2 0 -2 0 -1 0 -2 0 -1 0 -1 0 0 0 -1 0 0 0zm-3 -5l2 0 0 0 0 0 0 0 0 0 0 1 0 0 0 0 0 0 0 0 0 0 0 1 0 0 0 0 0 0 0 0 0 0 0 1 0 0 0 0 0 0 0 0 1 0 0 1 0 0 0 0 0 0 0 0 0 0 0 0 0 0 0 0 0 0 0 0 0 1 0 0 0 0 -1 0 0 0 -1 0 0 -1 0 0 0 0 0 0 -1 0 0 0 0 -1 0 0 0 0 0 0 0 0 0 0 0 -1 0 0 0 0 0 0 0 0 0 -1 0 0 0 0 0 0 0 0 0 0 0 -1 0 0 0 0 0 0 0 0zm0 -13l2 0 0 0 0 0 0 0 0 1 0 0 0 0 0 0 0 1 0 0 0 1 0 0 0 0 0 1 0 0 0 1 0 0 0 1 0 0 0 1 0 0 0 1 0 0 0 1 0 0 0 1 0 0 0 1 0 0 0 1 0 0 0 0 0 1 0 0 -2 0 -1 0 0 -1 0 0 0 0 0 -1 0 0 0 -1 0 0 0 -1 0 0 0 -1 0 0 0 -1 1 0 0 -1 0 0 0 -1 0 0 0 -1 0 0 0 -1 0 0 0 -1 0 0 0 0 0 -1 0 0 0 0 0 0 0 -1 0 0 0 0 0 0zm2 0l0 0 0 0 0 0zm0 0l0 0 -2 0 0 0 1 0 1 0zm-2 0l0 0 1 0 -1 0zm61 0l2 0 -1 1 -2 0 -2 0 -2 0 -2 0 -1 0 -2 0 -2 0 -2 0 -2 0 -2 0 -2 0 -2 0 -2 0 -2 0 -2 0 -2 0 -1 0 -2 0 -2 0 -2 0 -2 0 -2 0 -2 0 -2 0 -2 0 -2 0 -2 0 -1 0 -2 0 -2 0 -2 0 -2 0 0 -1 2 0 2 0 2 0 2 0 1 0 2 0 2 0 2 0 2 0 2 0 2 0 2 0 2 0 2 0 2 0 1 0 2 0 2 0 2 0 2 0 2 0 2 0 2 0 2 0 2 0 2 0 2 0 1 0 2 0 2 0 2 0 2 0 -1 0zm2 0l0 1 -1 0 1 -1zm1 0l-3 0 2 0 0 0 0 0 0 0 0 0 0 0 0 0 0 0 0 0 0 0 0 0 0 0 0 0 0 0 0 0 0 0 0 0 0 0 0 0 0 0 0 0 0 0 0 0 0 0 0 0 0 0 0 0 0 0 0 0 0 0 0 0 0 0 0 0 -2 0 0 0 0 0 0 0 0 0 0 0 0 0 0 0 0 0 0 0 0 0 0 0 0 0 0 0 0 0 0 0 0 0 0 0 0 0 0 0 0 0 0 0 0 0 0 0 0 0 0 0 0 0 0 0 0 0 0 0 0 0 0 0 0 0 3 0zm-3 0l3 -2 0 2 -3 0z"/>
    </g>
    <circle class="fil4" cx="105" cy="91" r="6"/>
    <rect class="fil2" x="25" y="72" width="66.9305" height="7.84737"/>
   </g>
   <polygon class="fil2" points="88,74 88,30 83,14 33,13 33,76 88,76 "/>
   <g>
    <path class="fil5" d="M87 30l3 0 0 0 0 0 0 0 0 1 0 1 0 1 0 1 0 2 0 2 0 1 0 2 0 2 0 2 0 2 0 3 0 2 0 2 0 2 0 3 0 2 0 2 0 2 0 2 0 2 0 2 0 1 0 1 0 2 0 1 0 0 0 1 0 0 -3 0 3 0 -3 0 0 0 0 -1 0 0 0 -1 0 -2 0 -1 0 -1 0 -2 0 -2 0 -2 0 -2 0 -2 0 -2 0 -3 0 -2 0 -2 0 -2 0 -3 0 -2 0 -2 0 -2 0 -2 0 -1 0 -2 0 -2 0 -1 0 -1 0 -1 0 -1 0 0 0 0 0 0zm3 -16l0 16 -3 0 0 -16 2 -1 1 1zm-1 -1l1 0 0 1 -1 -1zm0 -1l0 1 -2 3 0 -1 1 -4 1 1zm-1 -1l0 0 1 1 -1 -1zm-54 2l-3 0 0 0 2 -2 0 0 1 0 1 0 1 0 2 0 2 0 1 0 2 0 3 0 2 0 2 0 3 0 2 0 3 0 2 0 3 0 2 0 3 0 2 0 3 0 2 0 2 0 2 0 2 0 2 0 1 0 1 0 1 0 1 0 1 0 0 0 0 4 0 0 -1 0 -1 0 -1 0 -1 0 -1 0 -2 0 -2 0 -2 0 -2 0 -2 0 -3 0 -2 0 -3 0 -2 0 -3 0 -2 0 -3 0 -2 0 -3 0 -2 0 -2 0 -3 0 -2 0 -1 0 -2 0 -2 0 -1 0 -1 0 -1 0 0 1 1 -3 0 0zm-3 64l0 -64 3 0 0 64 -3 0zm3 0l-3 0 0 0 0 0 0 0 0 0 0 0 0 -1 0 0 0 0 0 0 0 0 0 0 3 0 0 0 0 0 0 0 0 0 0 0 0 0 0 0 0 0 0 1 0 0 0 0 0 0 0 0 0 0 0 0 0 0 0 0 0 0 0 0 0 0 -3 0 0 0 0 0 0 0 0 0 0 0 0 0 0 0 0 0 0 0 0 0 0 0 0 -1 0 0 0 0 0 0 0 0 0 0 0 0 0 0 0 0 3 0 0 0 0 0 0 0 0 0 0 0 0 1 0 0 0 0 0 0 0 0 0 0z"/>
   </g>
   <path class="fil6" d="M37 58l0 1 0 4 25 0 0 -4 0 -1c-2,-2 -5,-3 -7,-4 -1,0 -1,-1 -1,-1l0 -2c0,-1 0,-1 0,-1 1,-1 2,-2 2,-3 1,-1 2,-2 2,-3l0 -2c0,-1 -1,-1 -1,-2l0 -3c0,0 0,-2 -1,-4 -2,-1 -4,-2 -6,-2 -3,0 -4,0 -7,2 -1,2 -1,4 -1,4l0 3c0,1 0,1 0,2l0 2c0,1 0,2 1,2 0,2 1,4 2,5l0 2c0,0 0,1 -1,1l-5 3c-1,0 -1,1 -2,1z"/>
   <rect class="fil7" x="62" y="24" width="18.9082" height="3.4032"/>
   <rect class="fil7" x="62" y="36" width="21.2716" height="3.4032"/>
   <rect class="fil7" x="67" y="47" width="15.723" height="3.4032"/>
   <rect class="fil8" x="33" y="74" width="56.2574" height="3.13801"/>
   <rect class="fil7" x="67" y="59" width="15.723" height="3.4032"/>
  </g>
 </g>
</svg>
