<?xml version="1.0" encoding="UTF-8"?>
<!DOCTYPE svg PUBLIC "-//W3C//DTD SVG 1.1//EN" "http://www.w3.org/Graphics/SVG/1.1/DTD/svg11.dtd">
<!-- Creator: CorelDRAW X7 -->
<svg xmlns="http://www.w3.org/2000/svg" xml:space="preserve" width="120px" height="120px" version="1.1" style="shape-rendering:geometricPrecision; text-rendering:geometricPrecision; image-rendering:optimizeQuality; fill-rule:evenodd; clip-rule:evenodd"
viewBox="0 0 120 120"
 xmlns:xlink="http://www.w3.org/1999/xlink">
 <defs>
  <style type="text/css">
   <![CDATA[
    .fil0 {fill:none}
    .fil13 {fill:#FFF212}
    .fil9 {fill:#2887D2}
    .fil6 {fill:#FEFEFE;fill-rule:nonzero}
    .fil11 {fill:#FEFEFE;fill-rule:nonzero}
    .fil5 {fill:#F7F7F8;fill-rule:nonzero}
    .fil7 {fill:#DCE1EC;fill-rule:nonzero}
    .fil1 {fill:#CBD7E8;fill-rule:nonzero}
    .fil2 {fill:#8398C4;fill-rule:nonzero}
    .fil3 {fill:#3087B4;fill-rule:nonzero}
    .fil8 {fill:#0063D4;fill-rule:nonzero}
    .fil4 {fill:#2887D2;fill-rule:nonzero}
    .fil10 {fill:#FC4D44;fill-rule:nonzero}
    .fil12 {fill:url(#id1)}
   ]]>
  </style>
      <clipPath id="id0">
       <path d="M4 9l85 0 0 105 -85 0 0 -105z"/>
      </clipPath>
  <linearGradient id="id1" gradientUnits="userSpaceOnUse" x1="48.4616" y1="48.8206" x2="15.6724" y2="40.5079">
   <stop offset="0" style="stop-opacity:1; stop-color:#04870F"/>
   <stop offset="1" style="stop-opacity:1; stop-color:#03690C"/>
  </linearGradient>
 </defs>
 <g id="Layer_x0020_1">
  <metadata id="CorelCorpID_0Corel-Layer"/>
  <rect class="fil0" width="120" height="120"/>
  <g id="_537570792">
   <g>
    <path class="fil1" d="M60 6l-32 0c-1,0 -1,0 -1,0l0 9c0,0 0,0 1,0l32 0c0,0 0,0 0,0l0 -9c0,0 0,0 0,0z"/>
    <path class="fil2" d="M59 10l-1 0 0 0c0,0 0,0 0,0l-28 0c-1,0 -1,0 -1,-1l0 -1c0,0 0,0 0,0l0 2 -1 0 0 -2c0,0 1,-1 1,-1l29 0c1,0 1,1 1,1l0 2z"/>
    <path class="fil3" d="M71 107l-60 0 -6 0 0 -6 0 -38 0 2 0 35 2 5 4 1 60 0 0 1zm-66 -48l0 -1 0 -3 0 0c0,0 0,0 0,0 0,0 0,0 0,0l0 4zm0 -4l0 -1 0 -43 0 0 0 44z"/>
    <g>
     <g style="clip-path:url(#id0)">
      <image x="4" y="9" width="84.8993" height="105.267" xlink:href="PurchaseRequisition_Images\PurchaseRequisition_ImgID1.png"/>
     </g>
    </g>
    <g>
     <path class="fil4" d="M85 6l-83 0c0,0 0,0 0,1l0 102c0,1 0,1 0,1l83 0c0,0 0,0 0,-1l0 -102c0,-1 0,-1 0,-1z"/>
     <polygon class="fil5" points="6,100 8,105 13,106 82,106 82,10 6,10 "/>
    </g>
    <polygon class="fil6" points="7,105 11,106 5,100 "/>
    <path class="fil7" d="M58 16l-29 0c0,0 -1,-1 -1,-1l0 -5 1 0 0 5c0,0 0,0 0,0l29 0c0,0 0,0 0,0l0 -5 1 0 0 5c0,0 0,1 -1,1z"/>
    <path class="fil8" d="M57 14c0,0 0,0 0,0l-27 0c0,0 0,0 0,0l0 -6c0,0 -1,0 -1,0l28 0c0,0 0,0 0,0l0 6zm1 -7l-29 0c0,0 -1,1 -1,1l0 6c0,1 1,1 1,1l29 0c1,0 1,0 1,-1l0 -6c0,0 0,-1 -1,-1z"/>
    <rect class="fil9" transform="matrix(-4.19168E-013 -7.01479 13.4588 -1.57985E-013 13.0218 75.7158)" width="0.805528" height="3.14888"/>
    <path class="fil8" d="M57 6l-27 0c0,0 -1,1 -1,1l0 1c0,1 1,1 1,1l27 0c1,0 1,0 1,-1l0 -1c0,0 0,-1 -1,-1z"/>
    <path class="fil8" d="M29 10c0,1 1,1 1,1l27 0c1,0 1,0 1,-1l0 -2 -29 0 0 2z"/>
    <rect class="fil9" transform="matrix(-6.18995E-013 -7.01479 19.8749 -1.57985E-013 13.0218 93.4001)" width="0.805528" height="3.14888"/>
   </g>
   <path class="fil10" d="M58 49c0,-10 0,-14 0,-23 0,-5 3,-10 7,-10 15,0 31,0 46,0 4,0 7,5 7,10 0,9 0,13 0,23 0,5 -3,9 -7,9 -9,0 -18,0 -28,0 -6,6 -13,11 -19,17 2,-6 4,-11 6,-17 -2,0 -4,0 -5,0 -4,0 -7,-4 -7,-9z"/>
   <g>
    <path class="fil11" d="M97 44c-2,0 -4,2 -4,4 0,3 2,5 4,5 2,0 4,-2 4,-5 0,-2 -2,-4 -4,-4z"/>
    <path class="fil11" d="M104 27c0,0 -1,0 -1,0l-25 0 -2 -5c0,-1 0,-1 -1,-1l-4 0c-1,0 -2,0 -2,1 0,1 1,1 2,1l3 0 4 18c0,1 1,1 2,1l20 0c0,0 1,0 1,-1l3 -13c0,0 0,0 0,0l0 0c0,0 0,-1 0,-1z"/>
    <path class="fil11" d="M81 44c-2,0 -4,2 -4,4 0,3 2,5 4,5 3,0 5,-2 5,-5 0,-2 -2,-4 -5,-4z"/>
   </g>
   <path class="fil12" d="M40 60c-2,1 -4,1 -6,2 -5,0 -9,-2 -13,-4 -6,-6 -8,-16 -3,-23 6,-8 16,-9 23,-4 4,2 6,5 7,9 1,4 1,7 0,10l-1 3c0,0 -2,4 -7,7z"/>
   <path class="fil13" d="M29 46l0 0c0,0 -1,-1 -1,-1 -1,-1 -3,-4 -6,-2 -1,0 -2,2 -1,3 0,1 1,2 2,3 1,1 2,2 3,3 1,1 1,1 2,1 1,0 1,0 2,0 1,0 5,-4 6,-5 2,-2 3,-4 5,-6 1,-1 2,-1 2,-3 0,-1 -1,-3 -2,-3 -3,0 -3,1 -5,2 0,1 0,1 0,1 -1,1 -1,0 -1,1 0,0 0,0 -1,1 0,0 0,0 0,0 -1,1 -1,1 -2,1l-2 3c0,0 -1,0 -1,1z"/>
  </g>
 </g>
</svg>
