<?xml version="1.0" encoding="UTF-8"?>
<!DOCTYPE svg PUBLIC "-//W3C//DTD SVG 1.1//EN" "http://www.w3.org/Graphics/SVG/1.1/DTD/svg11.dtd">
<!-- Creator: CorelDRAW X7 -->
<svg xmlns="http://www.w3.org/2000/svg" xml:space="preserve" width="37px" height="48px" version="1.1" style="shape-rendering:geometricPrecision; text-rendering:geometricPrecision; image-rendering:optimizeQuality; fill-rule:evenodd; clip-rule:evenodd"
viewBox="0 0 37 48"
 xmlns:xlink="http://www.w3.org/1999/xlink">
 <defs>
  <style type="text/css">
   <![CDATA[
    .fil0 {fill:url(#id0);fill-rule:nonzero}
   ]]>
  </style>
  <linearGradient id="id0" gradientUnits="userSpaceOnUse" x1="5.55937" y1="41.2047" x2="31.4406" y2="6.38016">
   <stop offset="0" style="stop-opacity:1; stop-color:#1CC8EB"/>
   <stop offset="0.631373" style="stop-opacity:1; stop-color:#0E96E0"/>
   <stop offset="1" style="stop-opacity:1; stop-color:#0063D4"/>
  </linearGradient>
 </defs>
 <g id="Layer_x0020_1">
  <metadata id="CorelCorpID_0Corel-Layer"/>
  <path class="fil0" d="M0 25c0,-2 0,-4 1,-7 2,-7 9,-13 17,-13l0 -5c0,0 0,0 0,0l11 7c0,1 0,1 0,1l-10 7c-1,0 -1,0 -1,0l0 -5c-5,0 -10,4 -12,8 -1,2 -1,4 -1,6 0,3 1,5 3,8 1,1 1,2 -1,3 -1,1 -2,1 -3,0 -2,-3 -3,-6 -4,-10zm29 -9c2,2 3,5 3,8 0,2 0,4 -1,5 -2,5 -7,8 -12,8l0 -4c0,-1 0,-1 0,-1l-11 8c0,0 0,0 0,0l11 8c0,0 0,0 0,-1l0 -5c8,0 15,-5 17,-13 1,-2 1,-4 1,-7 -1,-3 -2,-6 -4,-9 -1,-1 -2,-1 -3,-1 -2,1 -2,3 -1,4z"/>
 </g>
</svg>
