<?xml version="1.0" encoding="UTF-8"?>
<!DOCTYPE svg PUBLIC "-//W3C//DTD SVG 1.1//EN" "http://www.w3.org/Graphics/SVG/1.1/DTD/svg11.dtd">
<!-- Creator: CorelDRAW X7 -->
<svg xmlns="http://www.w3.org/2000/svg" xml:space="preserve" width="120px" height="122px" version="1.1" style="shape-rendering:geometricPrecision; text-rendering:geometricPrecision; image-rendering:optimizeQuality; fill-rule:evenodd; clip-rule:evenodd"
viewBox="0 0 120 122"
 xmlns:xlink="http://www.w3.org/1999/xlink">
 <defs>
  <style type="text/css">
   <![CDATA[
    .str0 {stroke:#FC4D44;stroke-width:4.16583}
    .fil0 {fill:none}
    .fil1 {fill:#FEFEFE}
    .fil3 {fill:#FC4D44}
    .fil2 {fill:#2887D2;fill-rule:nonzero}
    .fil4 {fill:#FC4D44;fill-rule:nonzero}
   ]]>
  </style>
 </defs>
 <g id="Layer_x0020_1">
  <metadata id="CorelCorpID_0Corel-Layer"/>
  <rect class="fil0" y="1" width="120" height="120"/>
  <g id="_723050480">
   <g>
    <g>
     <path class="fil1" d="M10 3l78 0 26 21c1,2 1,78 1,90 0,3 -3,5 -5,5l-100 0c-3,0 -5,-2 -5,-5l0 -107c0,-2 2,-4 5,-4z"/>
     <path id="1" class="fil2" d="M88 6l-78 0 0 -6 78 0 1 1 -1 5zm0 -6l1 0 0 1 -1 -1zm25 26l-27 -21 3 -4 27 21 1 1 -4 3zm3 -4l1 0 0 1 -1 -1zm2 92l-6 0 0 0 0 -1 0 -2 0 -2 0 -2 0 -3 0 -2 0 -3 0 -4 0 -3 0 -4 0 -3 0 -4 0 -4 0 -4 0 -4 0 -4 0 -4 0 -3 0 -4 0 -4 0 -3 0 -4 0 -3 0 -3 0 -2 0 -3 0 -2 0 -2 0 -1 0 -2 0 0 0 0 5 -2 0 1 0 1 0 1 0 2 1 2 0 2 0 2 0 3 0 3 0 3 0 4 0 3 0 4 0 4 0 3 0 4 0 4 0 4 0 4 0 4 0 4 0 3 0 4 0 3 0 4 0 3 0 3 0 2 0 2 0 2 0 2 0 1 0 0zm-8 8l0 -6 0 0 0 0 0 0 0 0 0 0 0 0 0 0 1 0 0 0 0 0 0 0 0 0 0 0 0 0 0 -1 0 0 0 0 1 0 0 0 0 0 0 0 0 0 0 0 0 0 0 0 0 0 0 0 0 0 0 0 0 -1 0 0 0 0 0 0 6 0 0 1 0 0 0 1 -1 0 0 0 0 1 0 0 0 0 0 1 0 0 -1 0 0 1 0 0 0 0 -1 0 0 1 0 0 -1 0 0 0 0 0 0 1 -1 0 0 0 0 0 -1 0 0 0 -1 0 0 0 0 1 -1 0 0 0 0 0 0 0zm-100 -6l100 0 0 6 -100 0 0 0 0 -6zm-8 -2l6 0 0 0 0 0 0 0 0 1 0 0 0 0 0 0 0 0 0 0 0 0 0 0 0 0 0 0 0 0 0 0 0 0 0 0 0 0 1 0 0 1 0 0 0 0 0 0 0 0 0 0 0 0 1 0 0 0 0 0 0 0 0 0 0 0 0 0 0 6 0 0 0 0 -1 0 0 -1 -1 0 0 0 0 0 -1 0 0 0 0 0 -1 0 0 -1 0 0 -1 0 0 0 0 0 0 -1 -1 0 0 0 0 0 0 -1 -1 0 0 0 0 -1 0 0 0 0 0 -1 -1 0 0 0 0 -1 0 0 0 -1 0 0zm6 -107l0 107 -6 0 0 -107 0 0 6 0zm2 -7l0 6 0 0 0 0 0 0 0 0 0 0 0 0 0 0 -1 0 0 0 0 0 0 0 0 0 0 0 0 0 0 0 -1 0 0 0 0 0 0 0 0 0 0 1 0 0 0 0 0 0 0 0 0 0 0 0 0 0 0 0 0 0 0 0 0 0 0 0 -6 0 0 0 0 -1 0 0 0 0 1 -1 0 0 0 0 0 -1 0 0 0 0 1 -1 0 0 0 0 0 -1 1 0 0 0 0 0 0 0 1 -1 0 0 0 0 1 0 0 0 0 0 1 -1 0 0 0 0 1 0 0 0 1 0 0 0 0 0 0 0z"/>
    </g>
    <g>
     <polygon class="fil1" points="84,6 84,25 110,25 "/>
     <path id="1" class="fil2" d="M82 25l-1 -19 6 0 0 19 -3 3 -2 -3zm2 3l-2 0 0 -3 2 3zm26 0l-26 0 0 -6 26 0 1 1 -1 5zm1 -5l7 5 -8 0 1 -5zm-25 -19l25 19 -3 4 -26 -19 -1 -2 5 -2zm-5 2l0 -6 5 4 -5 2z"/>
    </g>
   </g>
   <g>
    <circle class="fil0 str0" cx="60" cy="70" r="36"/>
    <g>
     <path class="fil3" d="M39 50l0 0c3,-3 7,-3 10,0l11 11 11 -11c3,-3 7,-3 9,0l0 0c3,2 3,6 0,9l-11 11 11 11c3,3 3,7 0,10l0 0c-2,2 -6,2 -9,0l-11 -11 -11 11c-3,2 -7,2 -10,0l0 0c-2,-3 -2,-7 0,-10l12 -11 -12 -11c-2,-3 -2,-7 0,-9z"/>
     <path id="1" class="fil4" d="M39 51l0 0 0 -2 0 0 1 2 -1 0zm10 -2l-1 2 0 0 0 -1 0 0 -1 0 0 0 0 0 0 0 -1 -1 0 0 0 0 0 0 -1 0 0 0 0 0 0 0 -1 0 0 0 0 0 0 0 -1 0 0 0 0 0 0 0 -1 0 0 0 0 0 0 1 -1 0 0 0 0 0 0 0 -1 0 0 1 -1 -2 0 0 0 0 1 -1 0 0 0 0 1 0 0 0 0 -1 1 0 0 0 0 0 1 0 0 0 0 0 1 0 0 0 0 0 1 0 0 0 1 0 0 0 0 0 1 0 0 0 0 1 1 0 0 0 0 0 1 0 0 1 0 0 0 0 0 0zm10 13l-11 -11 1 -2 12 11 0 2 -2 0zm2 0l-1 0 -1 0 2 0zm11 -11l-11 11 -2 -2 11 -11 2 2zm8 -2l0 2 0 0 -1 -1 0 0 0 0 0 0 0 0 -1 0 0 -1 0 0 0 0 -1 0 0 0 0 0 0 0 -1 0 0 0 0 0 0 0 -1 0 0 0 0 0 -1 0 0 0 0 0 0 0 -1 0 0 1 0 0 0 0 0 0 -1 0 0 0 0 1 -2 -2 1 0 0 0 0 -1 1 0 0 0 0 0 1 0 0 -1 0 0 1 0 0 0 0 0 1 0 0 0 0 0 1 0 0 0 1 0 0 0 0 0 1 0 0 0 0 0 1 0 0 1 0 0 1 0 0 0 0 0 1 1 0 0 0 0 -1 0zm0 2l0 0 0 -2 0 0 1 0 -1 2zm1 9l-1 -2 0 0 0 0 0 0 0 0 0 -1 1 0 0 0 0 0 0 -1 0 0 0 0 0 0 0 -1 0 0 0 0 0 0 0 -1 0 0 0 0 0 0 0 -1 0 0 0 0 0 0 0 -1 0 0 0 0 0 0 -1 -1 0 0 0 0 0 0 0 0 1 -2 0 0 1 1 0 0 0 0 0 1 1 0 0 0 0 1 0 0 0 0 0 1 0 0 0 0 0 1 0 0 0 0 0 1 0 0 0 1 0 0 0 0 0 1 0 0 0 0 0 1 0 0 -1 0 0 1 0 0 0 0 -1 0 0 1 0 0zm-13 10l12 -12 1 2 -11 11 -2 0 0 -1zm0 1l0 -1 0 0 0 1zm12 11l-12 -11 2 -1 11 11 0 0 -1 1zm1 9l-1 -1 0 0 0 0 0 0 0 -1 0 0 1 0 0 0 0 -1 0 0 0 0 0 0 0 -1 0 0 0 0 0 0 0 -1 0 0 0 0 0 0 0 -1 0 0 0 0 0 0 0 -1 0 0 0 0 0 0 0 -1 -1 0 0 0 0 0 0 -1 0 0 1 -1 0 0 1 0 0 1 0 0 0 0 1 1 0 0 0 0 0 1 0 0 0 0 0 1 0 0 0 0 0 1 0 0 0 0 0 1 0 0 0 1 0 0 0 0 0 1 0 0 0 0 0 1 -1 0 0 0 0 1 0 0 -1 0 0 0 0 0zm-1 -1l0 0 1 1 0 0 0 0 -1 -1zm-10 1l2 -1 0 0 0 0 0 0 1 1 0 0 0 0 0 0 0 0 1 0 0 0 0 0 0 0 1 1 0 0 0 0 1 0 0 0 0 0 0 0 1 0 0 0 0 -1 0 0 1 0 0 0 0 0 0 0 1 0 0 0 0 0 0 -1 0 0 1 0 1 1 0 1 0 0 -1 0 0 0 0 1 -1 0 0 0 0 0 -1 0 0 0 0 0 -1 1 0 0 0 0 -1 0 0 0 -1 0 0 0 0 0 -1 0 0 -1 0 0 -1 0 0 0 0 0 -1 0 0 0 0 -1 -1 0 0 0 0 0 -1 -1 0 0zm-9 -12l11 11 -2 1 -11 -11 0 -1 2 0zm-2 0l1 -1 1 1 -2 0zm-11 11l11 -11 2 1 -12 11 0 0 -1 -1zm-9 1l1 -1 0 0 0 0 1 0 0 1 0 0 0 0 1 0 0 0 0 0 0 0 1 0 0 0 0 1 0 0 1 0 0 0 0 0 0 0 1 0 0 0 0 0 0 -1 1 0 0 0 0 0 0 0 1 0 0 0 0 0 0 0 1 -1 0 0 0 0 1 1 0 1 0 0 0 0 -1 0 0 1 0 0 -1 0 0 0 0 0 -1 0 0 0 0 1 -1 0 0 0 -1 0 0 0 0 0 -1 0 0 0 0 0 -1 -1 0 0 0 0 -1 0 0 0 0 0 -1 0 0 -1 0 0 -1 0 0 0 0 -1 0 0zm1 -1l0 0 -1 1 0 0 0 0 1 -1zm-1 -9l1 1 0 0 0 0 0 1 0 0 0 0 -1 0 0 1 0 0 0 0 0 0 0 1 0 0 0 0 0 0 0 1 0 0 0 0 0 0 0 1 0 0 0 0 0 0 0 1 0 0 0 0 0 0 0 1 0 0 1 0 0 0 0 1 0 0 0 0 -1 1 -1 0 0 0 0 0 0 -1 0 0 -1 0 0 -1 0 0 0 0 0 -1 0 0 0 0 0 -1 0 0 0 -1 0 0 0 0 0 -1 0 0 0 0 0 -1 0 0 0 0 0 -1 0 0 0 0 1 -1 0 0 0 0 0 -1 0 0 1 0 0 0zm12 -10l-11 11 -1 -1 11 -11 1 0 0 1zm0 -1l1 0 -1 1 0 -1zm-11 -12l11 12 -1 1 -11 -11 0 0 1 -2zm-1 -9l0 2 1 0 0 0 0 0 0 0 0 0 -1 1 0 0 0 0 0 0 0 1 0 0 0 0 0 0 0 1 0 0 0 0 0 0 0 1 0 0 0 0 0 0 0 1 0 0 0 0 0 0 0 1 0 0 0 0 1 0 0 1 0 0 0 0 0 0 -1 2 -1 -1 0 0 0 0 0 0 0 -1 -1 0 0 0 0 -1 0 0 0 0 0 -1 0 0 0 0 0 -1 0 0 0 -1 0 0 0 0 0 -1 0 0 0 0 0 -1 0 0 0 0 0 -1 0 0 1 0 0 -1 0 0 0 0 0 -1 1 0 0 0z"/>
    </g>
   </g>
  </g>
 </g>
</svg>
