<?xml version="1.0" encoding="UTF-8"?>
<!DOCTYPE svg PUBLIC "-//W3C//DTD SVG 1.1//EN" "http://www.w3.org/Graphics/SVG/1.1/DTD/svg11.dtd">
<!-- Creator: CorelDRAW X7 -->
<svg xmlns="http://www.w3.org/2000/svg" xml:space="preserve" width="120px" height="120px" version="1.1" style="shape-rendering:geometricPrecision; text-rendering:geometricPrecision; image-rendering:optimizeQuality; fill-rule:evenodd; clip-rule:evenodd"
viewBox="0 0 120 120"
 xmlns:xlink="http://www.w3.org/1999/xlink">
 <defs>
  <style type="text/css">
   <![CDATA[
    .fil0 {fill:none}
    .fil2 {fill:#FEFEFE}
    .fil1 {fill:#FC4D44;fill-rule:nonzero}
   ]]>
  </style>
 </defs>
 <g id="Layer_x0020_1">
  <metadata id="CorelCorpID_0Corel-Layer"/>
  <rect class="fil0" width="120" height="120"/>
  <g id="_668699664">
   <path class="fil1" d="M119 70c0,-24 0,-21 0,-45 0,-13 -8,-24 -17,-24 -39,0 -45,0 -84,0 -9,0 -17,11 -17,24 0,24 0,21 0,45 0,13 8,24 17,24 23,0 14,0 37,0 20,14 20,14 38,25 -4,-21 -6,-21 -4,-25 4,0 9,0 13,0 9,0 17,-11 17,-24z"/>
   <g>
    <path class="fil2" d="M28 17l0 0c4,-4 10,-4 14,0l17 17 18 -17c3,-4 10,-4 14,0l0 0c4,3 4,10 0,14l-17 17 17 17c4,4 4,10 0,14l0 0c-4,4 -11,4 -14,0l-18 -17 -17 17c-4,4 -10,4 -14,0l0 0c-4,-4 -4,-10 0,-14l17 -17 -17 -17c-4,-4 -4,-11 0,-14z"/>
    <path id="1" class="fil1" d="M29 18l0 0 -2 -3 0 0 0 0 2 3zm14 -3l-2 3 0 0 0 -1 -1 0 0 0 0 0 -1 -1 0 0 0 0 -1 0 0 0 0 0 -1 -1 0 0 -1 0 0 0 0 0 -1 0 0 0 -1 0 0 0 0 0 -1 0 0 1 -1 0 0 0 0 0 -1 0 0 0 0 1 -1 0 0 0 0 0 -1 1 -2 -3 0 0 1 0 0 -1 1 0 0 0 1 -1 0 0 1 0 0 0 1 -1 0 0 1 0 0 0 1 0 1 0 0 0 1 0 0 0 1 0 0 0 1 0 0 0 1 1 0 0 1 0 1 0 0 1 1 0 0 0 0 1 1 0 0 0 0 0zm15 20l-17 -17 2 -3 18 18 0 2 -3 0zm3 0l-2 1 -1 -1 3 0zm17 -17l-17 17 -3 -2 17 -18 0 0 3 3zm14 -2l-3 1 1 1 -1 -1 0 0 0 0 -1 0 0 -1 0 0 -1 0 0 0 -1 0 0 0 0 -1 -1 0 0 0 -1 0 0 0 0 0 -1 0 0 0 -1 0 0 0 0 0 -1 1 0 0 -1 0 0 0 0 0 -1 0 0 1 0 0 -1 0 0 0 0 1 -3 -3 1 0 0 0 1 -1 0 0 1 0 0 -1 1 0 0 0 1 0 0 -1 1 0 0 0 1 0 1 0 0 0 1 0 0 0 1 0 0 0 1 0 0 0 1 0 0 1 1 0 1 0 0 0 1 1 0 0 1 0 0 1 0 0 1 0 0 1zm-3 1l0 0 3 -1 0 0 -2 2 -1 -1zm3 15l-2 -2 0 0 0 -1 0 0 0 0 1 -1 0 0 0 0 0 -1 0 0 1 -1 0 0 0 0 0 -1 0 0 0 -1 0 0 0 0 0 -1 0 0 0 -1 0 0 0 0 0 -1 0 0 -1 -1 0 0 0 0 0 -1 0 0 -1 0 0 -1 0 0 0 0 2 -3 0 1 1 0 0 1 0 0 1 1 0 0 0 1 0 0 1 1 0 0 0 1 0 0 0 1 0 0 0 1 0 1 0 0 0 1 0 0 0 1 0 0 0 1 0 0 -1 1 0 0 0 1 0 0 -1 1 0 0 0 1 -1 0 0 1 0 0zm-20 15l18 -17 2 2 -17 17 -3 0 0 -2zm0 2l-1 -1 1 -1 0 2zm18 17l-18 -17 3 -2 17 17 0 0 -2 2zm2 14l-3 -2 1 0 0 0 0 -1 0 0 1 0 0 -1 0 0 0 0 0 -1 1 0 0 0 0 -1 0 0 0 -1 0 0 0 0 0 -1 0 0 0 -1 0 0 0 -1 0 0 0 0 0 -1 -1 0 0 0 0 -1 0 0 0 -1 -1 0 0 0 0 -1 0 0 2 -2 0 0 1 1 0 0 0 1 1 0 0 1 0 0 0 1 1 0 0 1 0 0 0 1 0 0 0 1 0 1 0 0 0 1 0 0 0 1 0 0 0 1 0 0 0 1 -1 0 0 1 0 1 0 0 -1 0 0 1 0 0 -1 1 0 0 0 0zm-3 -2l0 0 3 2 0 0 0 0 -3 -2zm-14 2l3 -2 0 0 0 0 0 1 1 0 0 0 0 0 1 1 0 0 0 0 1 0 0 0 1 0 0 0 0 0 1 0 0 0 1 0 0 0 0 0 1 0 0 0 1 0 0 0 0 0 1 0 0 0 1 0 0 -1 0 0 1 0 0 0 0 -1 1 0 2 2 -1 1 0 0 0 0 -1 1 0 0 -1 0 0 1 -1 0 -1 0 0 0 -1 0 0 0 -1 1 0 0 -1 0 0 0 -1 0 0 0 -1 0 -1 -1 0 0 -1 0 0 0 -1 0 0 0 -1 -1 0 0 -1 0 0 -1 -1 0 0 0 -1 -1 0 0zm-14 -19l17 17 -3 2 -17 -17 0 -2 3 0zm-3 0l1 -1 2 1 -3 0zm-17 17l17 -17 3 2 -18 17 0 0 -2 -2zm-14 2l2 -2 0 0 1 0 0 1 0 0 1 0 0 0 0 1 1 0 0 0 0 0 1 0 0 0 1 0 0 0 0 0 1 0 0 0 1 0 0 0 0 0 1 0 0 0 1 0 0 0 0 0 1 0 0 0 0 -1 1 0 0 0 0 0 1 -1 0 0 2 2 0 1 -1 0 0 0 0 1 -1 0 0 0 -1 1 -1 0 0 0 -1 0 0 0 -1 0 0 1 -1 0 0 0 -1 0 0 0 -1 0 -1 0 0 -1 -1 0 0 0 -1 0 0 0 -1 0 0 -1 -1 0 0 0 -1 -1 0 0 -1 0 0 -1 0 0zm2 -2l0 0 -2 2 0 0 2 -2zm-2 -14l2 2 0 0 0 0 0 1 -1 0 0 0 0 1 0 0 0 1 -1 0 0 0 0 1 0 0 0 0 0 1 0 0 0 1 0 0 0 1 0 0 0 0 0 1 0 0 0 1 0 0 0 0 1 1 0 0 0 0 0 1 0 0 1 0 0 1 0 0 -2 2 0 0 -1 -1 0 0 -1 -1 0 0 0 0 0 -1 -1 -1 0 0 0 -1 0 0 0 -1 0 0 0 -1 0 0 0 -1 0 0 0 -1 0 -1 0 0 0 -1 0 0 0 -1 0 0 1 -1 0 0 0 -1 0 0 1 -1 0 0 1 -1 0 0 0 0zm19 -15l-17 17 -2 -2 17 -17 2 0 0 2zm0 -2l2 1 -2 1 0 -2zm-17 -17l17 17 -2 2 -17 -17 0 0 2 -2zm-2 -15l2 3 0 0 0 0 0 0 -1 1 0 0 0 0 0 1 0 0 -1 0 0 1 0 0 0 1 0 0 0 0 0 1 0 0 0 1 0 0 0 0 0 1 0 0 0 1 0 0 0 0 0 1 1 0 0 1 0 0 0 0 0 1 1 0 0 0 0 1 -2 2 0 -1 -1 0 0 -1 -1 0 0 -1 0 0 0 -1 -1 0 0 -1 0 0 0 -1 0 0 0 -1 0 0 0 -1 0 0 0 -1 0 -1 0 0 0 -1 0 0 0 -1 0 0 0 -1 1 0 0 -1 0 0 0 -1 1 0 0 -1 1 0 0 -1 0 0z"/>
   </g>
  </g>
 </g>
</svg>
