<?xml version="1.0" encoding="UTF-8"?>
<!DOCTYPE svg PUBLIC "-//W3C//DTD SVG 1.1//EN" "http://www.w3.org/Graphics/SVG/1.1/DTD/svg11.dtd">
<!-- Creator: CorelDRAW X7 -->
<svg xmlns="http://www.w3.org/2000/svg" xml:space="preserve" width="44px" height="49px" version="1.1" style="shape-rendering:geometricPrecision; text-rendering:geometricPrecision; image-rendering:optimizeQuality; fill-rule:evenodd; clip-rule:evenodd"
viewBox="0 0 44 49"
 xmlns:xlink="http://www.w3.org/1999/xlink">
 <defs>
  <style type="text/css">
   <![CDATA[
    .fil2 {fill:#FEFEFE}
    .fil1 {fill:#C5C6C6}
    .fil0 {fill:#2887D2}
    .fil3 {fill:#FAB32F}
   ]]>
  </style>
 </defs>
 <g id="Layer_x0020_1">
  <metadata id="CorelCorpID_0Corel-Layer"/>
  <g id="_518715200">
   <path class="fil0" d="M40 3l-31 -3c-1,0 -1,0 -1,1l-4 44c0,0 0,0 0,0l32 4c0,0 1,-1 1,-1l2 -22 2 0c1,0 1,0 1,-1l2 -17c0,-1 0,-1 -1,-1l-2 0 0 -3c0,0 0,-1 -1,-1z"/>
   <rect class="fil1" transform="matrix(0.0602088 0.00507524 -0.00530535 0.0594603 9.17556 2.36202)" width="511" height="705" rx="12" ry="12"/>
   <rect class="fil2" transform="matrix(0.060396 0.00178279 -0.00205355 0.0596612 4.70704 2.35184)" width="511" height="705" rx="12" ry="12"/>
   <rect class="fil3" transform="matrix(0.0598284 -0.0034028 0.00307219 0.0591255 -0.0379438 3.11513)" width="511" height="705" rx="12" ry="12"/>
   <rect class="fil2" transform="matrix(0.0951362 -0.00596769 0.00637296 0.0890862 2.39915 9.67547)" width="276.483" height="28.923"/>
   <rect class="fil2" transform="matrix(0.0951362 -0.00596769 0.00637296 0.0890862 2.98282 17.8345)" width="276.483" height="28.923"/>
   <rect class="fil2" transform="matrix(0.0951362 -0.00596769 0.00637296 0.0890862 3.5665 25.9936)" width="276.483" height="28.923"/>
   <rect class="fil2" transform="matrix(0.0951362 -0.00596769 0.00637296 0.0890862 4.15017 34.1526)" width="276.483" height="28.923"/>
  </g>
 </g>
</svg>
