<?xml version="1.0" encoding="UTF-8"?>
<!DOCTYPE svg PUBLIC "-//W3C//DTD SVG 1.1//EN" "http://www.w3.org/Graphics/SVG/1.1/DTD/svg11.dtd">
<!-- Creator: CorelDRAW X7 -->
<svg xmlns="http://www.w3.org/2000/svg" xml:space="preserve" width="122px" height="120px" version="1.1" style="shape-rendering:geometricPrecision; text-rendering:geometricPrecision; image-rendering:optimizeQuality; fill-rule:evenodd; clip-rule:evenodd"
viewBox="0 0 124 122"
 xmlns:xlink="http://www.w3.org/1999/xlink">
 <defs>
  <style type="text/css">
   <![CDATA[
    .str0 {stroke:#2887D2;stroke-width:8.47172}
    .fil0 {fill:none}
    .fil1 {fill:#2887D2}
    .fil2 {fill:#FEFEFE;fill-rule:nonzero}
    .fil3 {fill:#00A859;fill-rule:nonzero}
   ]]>
  </style>
 </defs>
 <g id="Layer_x0020_1">
  <metadata id="CorelCorpID_0Corel-Layer"/>
  <rect class="fil0" width="122" height="122"/>
  <g id="_810129608">
   <g>
    <g>
     <line class="fil0 str0" x1="53" y1="48" x2="53" y2= "85" />
     <line class="fil0 str0" x1="17" y1="64" x2="90" y2= "64" />
     <line class="fil0 str0" x1="17" y1="63" x2="17" y2= "85" />
     <line class="fil0 str0" x1="90" y1="63" x2="90" y2= "85" />
    </g>
    <rect class="fil1" x="39" y="20" width="28.4863" height="28.4865"/>
    <circle class="fil1" cx="54" cy="102" r="15"/>
    <circle class="fil1" cx="90" cy="102" r="15"/>
    <circle class="fil1" cx="17" cy="102" r="15"/>
   </g>
   <g>
    <path class="fil2" d="M119 8l-6 -5 1 0 0 -1 0 0 0 0 1 0 0 0 0 0 0 0 1 0 0 -1 0 0 1 0 0 0 0 0 0 0 1 0 0 0 0 0 0 0 1 0 0 0 0 0 0 0 1 1 0 0 0 0 0 0 1 0 0 0 0 0 0 0 1 1 0 0 -5 5 0 0 0 0 0 0 0 1 0 0 0 0 0 0 0 0 0 0 0 0 0 0 0 0 0 0 1 0 0 0 0 0 0 0 0 0 0 0 0 0 0 0 0 0 0 0 0 0 0 0 0 0 0 0 0 0 0 0 1 -1 0 0 0 0 0 0zm-6 -5l1 0 0 0 -1 0zm-25 29l25 -29 6 5 -25 29 -5 1 -1 -6zm6 5l-2 3 -3 -2 5 -1zm-16 -16l15 10 -4 7 -15 -11 4 -7 0 1zm0 -1l0 0 0 1 0 -1zm-2 7l-6 -6 0 0 1 0 0 0 0 0 0 0 0 0 1 -1 0 0 0 0 0 0 1 0 0 0 0 0 0 0 0 0 1 0 0 0 0 -1 0 0 1 0 0 0 0 0 1 0 0 1 0 0 0 0 1 0 0 0 0 0 0 0 0 0 1 0 0 0 -4 7 0 0 0 0 0 0 0 0 0 0 0 0 0 0 1 0 0 0 0 0 0 0 0 0 0 0 0 0 0 0 0 0 0 0 0 0 0 0 0 0 0 0 0 0 0 0 0 0 1 0 0 0 0 0 0 0 0 0 0 0 0 0 0 0 0 0zm0 -2l-6 4 0 0 0 0 0 0 -1 -1 0 0 0 0 0 0 0 -1 0 0 0 0 0 0 0 -1 0 0 0 0 0 0 0 -1 0 0 0 0 0 0 0 -1 0 0 0 0 0 0 0 -1 0 0 0 0 0 0 1 -1 0 0 0 0 0 0 0 0 0 -1 6 6 0 -1 0 0 0 0 0 0 0 0 0 0 0 0 0 0 0 0 0 0 0 0 0 0 0 0 0 0 0 0 0 0 0 0 0 -1 0 0 0 0 0 0 0 0 0 0 0 0 0 0 0 0 0 0 0 0 0 0 0 0 0 0 0 0 0 0zm0 0l0 0 0 -1 0 1zm9 26l-15 -22 6 -4 15 21 -6 5 0 0zm0 0l0 0 0 0 0 0zm5 -5l0 7 0 0 0 0 0 0 -1 0 0 0 0 0 0 0 0 0 0 0 -1 0 0 0 0 0 0 0 0 0 0 0 -1 -1 0 0 0 0 0 0 0 0 0 0 -1 0 0 0 0 0 0 0 0 -1 0 0 0 0 0 0 -1 0 0 0 0 0 0 0 6 -5 0 0 0 0 0 0 0 0 0 0 0 0 0 0 0 0 0 0 0 0 0 0 0 0 0 0 0 0 0 0 0 0 0 0 0 0 0 0 0 0 0 0 0 0 -1 0 0 0 0 0 0 0 0 0 0 0 0 0 0 0 0 0 0 0 0 0zm0 7l0 0 0 0 0 0zm0 0l0 0 0 -7 0 0 0 0 0 7zm-1 -7l6 5 0 0 0 0 0 0 0 0 -1 0 0 0 0 0 0 1 0 0 0 0 0 0 0 0 -1 0 0 0 0 0 0 0 0 0 0 1 -1 0 0 0 0 0 0 0 0 0 0 0 -1 0 0 0 0 0 0 0 0 0 0 0 -1 0 0 0 0 0 0 -7 0 0 0 0 0 0 0 0 0 0 0 0 0 0 0 0 0 0 0 0 0 0 0 0 -1 0 0 0 0 0 0 0 0 0 0 0 0 0 0 0 0 0 0 0 0 0 0 0 0 0 0 0 0 0 0 0 0 0 0 0 0 0 0 0 0 0zm6 5l0 0 0 0 0 0zm28 -40l-28 40 -6 -5 27 -40 0 0 7 5zm-7 -5l0 0 0 0 0 0zm1 2l5 -5 0 0 0 0 0 0 0 0 1 1 0 0 0 0 0 0 0 1 0 0 0 0 0 0 1 1 0 0 0 0 0 0 0 1 0 0 0 0 0 1 0 0 0 0 0 0 0 1 0 0 -1 0 0 0 0 1 0 0 0 0 0 0 0 1 0 0 -7 -5 0 0 0 0 0 1 0 0 0 0 0 0 0 0 0 0 0 0 0 0 0 0 0 0 0 0 0 0 0 0 0 0 0 0 0 1 0 0 0 0 0 0 0 0 0 0 0 0 0 0 0 0 0 0 0 0 1 0 0 0 0 0 0 0 0 0zm5 -5l0 0 0 0 0 0z"/>
    <path id="1" class="fil3" d="M119 6c-1,-1 -2,-1 -3,-1l-25 29 -15 -10c-1,-1 -2,-1 -3,0 -1,1 -1,2 0,3l15 21c1,1 1,1 2,1l0 0c1,0 1,0 2,-1l28 -39c0,-1 0,-3 -1,-3z"/>
   </g>
  </g>
 </g>
</svg>
