<?xml version="1.0" encoding="UTF-8"?>
<!DOCTYPE svg PUBLIC "-//W3C//DTD SVG 1.1//EN" "http://www.w3.org/Graphics/SVG/1.1/DTD/svg11.dtd">
<!-- Creator: CorelDRAW X7 -->
<svg xmlns="http://www.w3.org/2000/svg" xml:space="preserve" width="120px" height="120px" version="1.1" style="shape-rendering:geometricPrecision; text-rendering:geometricPrecision; image-rendering:optimizeQuality; fill-rule:evenodd; clip-rule:evenodd"
viewBox="0 0 120 120"
 xmlns:xlink="http://www.w3.org/1999/xlink">
 <defs>
  <style type="text/css">
   <![CDATA[
    .fil0 {fill:none}
    .fil6 {fill:#FEFEFE}
    .fil1 {fill:#FEFEFE}
    .fil10 {fill:#C0E7F9}
    .fil8 {fill:#04870F}
    .fil3 {fill:#2887D2}
    .fil5 {fill:#8A0000}
    .fil4 {fill:#E32210}
    .fil9 {fill:#F6F6F6}
    .fil12 {fill:#FEFEFE;fill-rule:nonzero}
    .fil7 {fill:#00AFEF;fill-rule:nonzero}
    .fil11 {fill:#00A859;fill-rule:nonzero}
    .fil2 {fill:#0098DA;fill-rule:nonzero}
    .fil14 {fill:url(#id0)}
    .fil13 {fill:url(#id1)}
   ]]>
  </style>
  <linearGradient id="id0" gradientUnits="userSpaceOnUse" x1="87.6832" y1="77.7441" x2="98.8921" y2="88.4911">
   <stop offset="0" style="stop-opacity:1; stop-color:#1CC8EB"/>
   <stop offset="0.631373" style="stop-opacity:1; stop-color:#0E96E0"/>
   <stop offset="1" style="stop-opacity:1; stop-color:#0063D4"/>
  </linearGradient>
  <linearGradient id="id1" gradientUnits="userSpaceOnUse" xlink:href="#id0" x1="84.93" y1="60.4347" x2="93.3904" y2="71.1841">
  </linearGradient>
 </defs>
 <g id="Layer_x0020_1">
  <metadata id="CorelCorpID_0Corel-Layer"/>
  <rect class="fil0" width="120" height="120"/>
  <g id="_890159840">
   <g>
    <g>
     <path class="fil1" d="M36 19l0 90c0,0 81,-1 81,0 0,2 1,-67 1,-67l-18 -23 -1 -1c0,0 -63,1 -63,1z"/>
     <path id="1" class="fil2" d="M35 109l0 -90 3 0 0 90 -2 2 -1 -2zm1 2l-1 0 0 -2 1 2zm82 -2l-2 0 0 0 0 2 0 0 -1 0 -2 0 -1 0 -3 0 -2 -1 -3 0 -3 0 -3 0 -3 0 -4 0 -3 0 -4 0 -4 0 -3 0 -4 0 -4 1 -4 0 -3 0 -4 0 -3 0 -3 0 -3 0 -3 0 -2 0 -2 0 -2 0 -2 0 -1 0 -1 0 0 0 0 -3 0 0 1 -1 1 0 2 0 1 0 3 0 2 0 3 0 3 0 3 0 3 0 4 0 3 0 4 0 4 0 4 0 3 0 4 0 4 0 3 0 4 0 3 0 3 0 3 0 3 0 2 0 3 0 1 0 2 0 1 0 1 1 1 1 0 0zm-1 -66l2 -2 0 1 0 1 0 0 0 1 0 1 0 2 0 2 0 2 0 2 0 3 0 2 0 3 0 3 0 3 0 3 0 3 0 4 0 3 0 3 0 3 0 3 0 3 -1 3 0 2 0 3 0 2 0 2 0 2 0 1 0 1 0 1 0 0 -2 0 2 0 -2 0 0 0 0 -1 0 -1 0 -1 0 -2 0 -2 0 -2 0 -3 0 -2 0 -3 0 -3 0 -3 0 -3 0 -3 0 -4 0 -3 0 -3 0 -3 0 -3 0 -3 0 -3 0 -3 0 -2 1 -2 0 -2 0 -2 0 -2 0 -1 0 -1 0 -1 0 0 0 1zm-17 -25l19 23 -2 2 -18 -23 0 0 1 -2zm-1 2l0 0 0 0 0 0zm1 -3l0 1 -1 2 -1 0 1 -3 1 0zm-1 0l0 0 1 0 -1 0zm-61 2l-3 0 0 0 1 -1 1 0 1 0 1 0 1 0 2 0 2 -1 2 0 2 0 3 0 2 0 3 0 3 0 3 0 3 0 3 0 2 0 3 0 3 0 3 0 3 0 2 0 3 0 2 0 2 0 2 0 2 0 1 0 1 0 1 0 1 0 0 0 0 3 0 0 -1 0 -1 0 -1 0 -1 0 -2 0 -2 0 -2 0 -2 0 -3 0 -2 0 -3 0 -3 0 -3 0 -2 0 -3 0 -3 1 -3 0 -3 0 -3 0 -3 0 -2 0 -3 0 -2 0 -2 0 -2 0 -2 0 -1 0 -1 0 -1 0 -1 0 2 -2 0 0z"/>
    </g>
    <path class="fil3" d="M99 20l0 15c0,0 0,6 3,7 3,1 16,0 16,0l-19 -24 0 2z"/>
   </g>
   <g id="_890160440">
    <rect class="fil4" x="2" y="58" width="65.2343" height="55.1145"/>
    <path class="fil5" d="M13 36l43 0c3,0 4,3 6,6l5 16 -65 0 6 -16c1,-3 2,-6 5,-6z"/>
    <g>
     <polygon class="fil6" points="16,7 53,7 53,47 16,47 "/>
     <path id="1" class="fil7" d="M53 8l-37 0 0 -2 37 0 1 1 -1 1zm0 -2l1 0 0 1 -1 -1zm-1 41l0 -40 2 0 0 40 -1 1 -1 -1zm2 0l0 1 -1 0 1 -1zm-38 -1l37 0 0 2 -37 0 -1 -1 1 -1zm0 2l-1 0 0 -1 1 1zm1 -41l0 40 -2 0 0 -40 1 -1 1 1zm-2 0l0 -1 1 0 -1 1z"/>
    </g>
    <rect class="fil4" x="13" y="43" width="44.0164" height="7.8521"/>
    <circle class="fil6" cx="35" cy="85" r="24"/>
    <circle class="fil8" cx="35" cy="66" r="2"/>
    <circle class="fil8" cx="35" cy="104" r="2"/>
    <circle class="fil8" cx="54" cy="85" r="2"/>
    <circle class="fil8" cx="15" cy="85" r="2"/>
    <rect class="fil4" x="34" y="73" width="2.1896" height="14.7985" rx="1" ry="1"/>
    <rect class="fil4" transform="matrix(0.142428 -0.132643 0.164658 0.176806 33.1734 86.531)" width="11.2502" height="61.2508" rx="6" ry="6"/>
    <g id="_890160344">
     <path class="fil3" d="M20 25l1 0 5 0 0 4 -5 0 0 0 5 0 -1 4 -5 0 1 1 5 0 0 4 -5 0c0,0 0,0 0,0 4,0 27,0 28,0 -1,-1 -6,0 -7,0l0 -4 6 0c1,-1 -1,0 0,0l-6 -1 0 -4 5 0c1,0 1,1 1,0l-6 0 0 -4 6 0c0,-1 0,0 -1,0l-5 0 0 -4 3 0 0 1 0 -2 -24 0c0,0 0,0 -1,1l6 0 -1 4 -5 0z"/>
     <path class="fil3" d="M20 20l1 1 5 0 0 4 -5 0 0 0 5 0 -1 4 -5 0 1 0 5 0 0 4 -5 0c0,1 0,1 0,1 4,0 27,0 28,0 -1,-1 -6,-1 -7,-1l0 -4 6 0c1,0 -1,1 0,0l-6 0 0 -4 5 0c1,0 1,0 1,0l-6 0 0 -4 6 0c0,-1 0,-1 -1,-1l-5 0 0 -4 6 0 0 2 0 -2 -27 0c0,0 0,0 -1,0l6 0 -1 4 -5 0z"/>
     <polygon class="fil9" points="33,25 34,25 40,25 41,25 41,21 33,21 "/>
     <polygon class="fil10" points="33,20 41,20 41,16 34,16 "/>
     <polygon class="fil9" points="33,33 41,33 41,29 33,29 "/>
     <polygon class="fil9" points="33,29 41,29 41,25 33,25 "/>
     <polygon class="fil10" points="26,20 33,20 33,16 26,16 "/>
     <polygon class="fil9" points="26,25 27,25 33,25 33,21 26,21 "/>
     <polygon class="fil9" points="26,29 33,29 33,25 26,25 "/>
     <polygon class="fil9" points="26,33 33,33 33,29 26,29 "/>
     <polygon class="fil10" points="20,20 25,20 26,16 20,16 "/>
     <polygon class="fil10" points="21,33 26,33 26,29 21,29 "/>
     <polygon class="fil10" points="21,25 26,25 26,21 21,21 "/>
     <polygon class="fil10" points="20,29 25,29 26,25 21,25 "/>
     <polygon class="fil10" points="21,38 26,38 26,34 21,34 "/>
     <polygon class="fil10" points="33,38 41,38 41,34 34,34 "/>
     <polygon class="fil10" points="26,38 33,38 33,34 26,34 "/>
     <polygon class="fil10" points="42,20 48,20 48,16 42,16 "/>
     <polygon class="fil10" points="42,38 49,38 49,34 42,34 "/>
    </g>
   </g>
   <g>
    <path class="fil11" d="M100 12c0,-1 -1,-1 -2,0l-19 20 -11 -7c-1,0 -1,0 -2,1 -1,0 -1,1 0,2l11 16c0,0 1,1 2,1l0 0c0,0 1,-1 1,-1l21 -30c0,0 0,-1 -1,-2z"/>
    <path id="1" class="fil12" d="M99 13l-2 -2 0 0 0 0 1 0 0 0 0 0 0 0 0 0 0 0 0 0 0 0 1 0 0 0 0 0 0 0 0 0 0 0 0 0 0 0 0 0 1 0 0 0 0 0 0 0 0 0 0 0 0 0 0 0 1 0 0 0 0 0 0 0 0 0 0 0 -1 2 0 0 0 0 0 0 0 0 -1 0 0 0 0 0 0 0 0 0 0 0 0 0 0 0 0 0 0 0 0 0 0 0 0 0 0 0 0 0 0 0 0 0 0 0 0 0 0 0 0 0 0 0 0 0 0 0 0 0 0 0 0 0 0 0 0 0zm-2 -2l0 0 0 0 0 0zm-19 20l19 -20 2 2 -20 19 -1 1 0 -2zm1 1l0 1 -1 0 1 -1zm-10 -8l10 7 -1 2 -10 -7 0 0 1 -2zm-1 2l0 0 0 0 0 0zm-1 0l-2 -1 0 0 0 0 0 0 0 0 1 0 0 0 0 0 0 -1 0 0 0 0 0 0 0 0 0 0 1 0 0 0 0 0 0 0 0 0 0 0 0 0 0 0 0 0 1 0 0 0 0 0 0 0 0 0 0 0 0 0 0 0 0 0 1 0 0 0 -1 2 0 0 0 0 0 0 -1 0 0 0 0 0 0 0 0 0 0 0 0 0 0 0 0 0 0 0 0 0 0 0 0 0 0 0 0 0 0 0 0 0 0 0 0 0 0 0 0 0 0 0 0 0 0 0 0 0 0 0 0 0 0 0 0 0 0 0zm-2 -1l0 0 0 0 0 0zm2 2l-2 1 0 0 0 0 0 0 0 0 0 0 0 0 0 0 0 0 0 0 0 -1 0 0 0 0 0 0 0 0 0 0 0 0 0 0 0 0 0 -1 0 0 0 0 0 0 0 0 0 0 0 0 0 0 0 0 0 -1 0 0 0 0 0 0 0 0 0 0 2 1 0 0 0 0 0 0 0 1 0 0 0 0 0 0 0 0 0 0 0 0 0 0 0 0 0 0 0 0 0 0 0 0 0 0 0 0 0 0 0 0 0 0 0 0 0 0 0 0 0 0 0 0 0 0 0 0 0 0 0 0 0 0 0 0 0 0zm0 0l0 0 0 0 0 0zm9 17l-11 -16 2 -1 11 16 -2 1 0 0zm3 0l0 2 0 0 -1 0 0 0 0 0 0 0 0 0 0 0 0 0 0 0 0 0 0 0 0 -1 0 0 0 0 -1 0 0 0 0 0 0 0 0 0 0 0 0 0 0 0 0 0 0 0 0 0 0 0 0 0 0 0 0 0 -1 0 0 0 0 0 0 -1 2 -1 0 0 0 0 0 0 0 0 0 0 0 0 0 0 0 0 0 0 0 0 0 0 0 0 0 0 0 0 0 0 0 0 0 0 0 0 0 0 0 0 0 0 0 0 0 0 0 0 0 0 0 1 0 0 1 0 0 0 0 0 0 0 0 0 0 0zm0 2l0 0 0 0 0 0zm0 0l0 0 0 -2 0 0 0 0 0 2zm0 -3l2 1 0 0 0 1 0 0 0 0 0 0 0 0 -1 0 0 0 0 0 0 0 0 0 0 0 0 0 0 0 0 0 0 0 0 0 0 0 0 0 0 0 0 0 -1 0 0 1 0 0 0 0 0 0 0 0 0 0 0 0 0 0 0 0 0 0 0 0 0 -2 0 0 0 0 0 0 0 0 0 0 0 0 0 -1 0 0 0 0 0 0 0 0 0 0 0 0 0 0 0 0 0 0 0 0 0 0 0 0 0 0 0 0 0 0 0 0 0 0 0 0 0 0 0 0 0 0 0 0 0 0 0 0 0 0 0 0zm2 1l0 0 0 0 0 0zm20 -29l-20 29 -2 -1 21 -29 0 0 1 1zm-1 -1l0 0 0 0 0 0zm0 -1l1 -2 0 0 0 0 0 0 0 1 0 0 0 0 1 0 0 0 0 0 0 0 0 0 0 0 0 1 0 0 0 0 0 0 0 0 0 0 0 0 0 0 0 1 0 0 0 0 0 0 0 0 0 0 0 0 0 0 0 0 0 1 0 0 -1 0 0 0 -1 -1 0 0 0 0 0 0 0 0 0 0 0 0 0 -1 0 0 0 0 0 0 0 0 0 0 0 0 0 0 0 0 0 0 0 0 0 0 0 0 0 0 0 0 0 0 0 0 0 0 0 0 0 0 0 0 0 0 0 0 0 0 0 0 0 0 0 0zm1 -2l0 0 0 0 0 0z"/>
   </g>
   <g>
    <rect class="fil13" x="76" y="63" width="25.4278" height="5.33387"/>
    <rect class="fil14" x="76" y="80" width="33.6834" height="5.33387"/>
   </g>
  </g>
 </g>
</svg>
