<?xml version="1.0" encoding="UTF-8"?>
<!DOCTYPE svg PUBLIC "-//W3C//DTD SVG 1.1//EN" "http://www.w3.org/Graphics/SVG/1.1/DTD/svg11.dtd">
<!-- Creator: CorelDRAW X7 -->
<svg xmlns="http://www.w3.org/2000/svg" xml:space="preserve" width="120px" height="120px" version="1.1" style="shape-rendering:geometricPrecision; text-rendering:geometricPrecision; image-rendering:optimizeQuality; fill-rule:evenodd; clip-rule:evenodd"
viewBox="0 0 120 120"
 xmlns:xlink="http://www.w3.org/1999/xlink">
 <defs>
  <style type="text/css">
   <![CDATA[
    .fil0 {fill:none}
    .fil3 {fill:#FEFEFE}
    .fil1 {fill:#A98F71}
    .fil5 {fill:#F58634}
    .fil2 {fill:#E3AB4B}
    .fil7 {fill:#FEFEFE;fill-rule:nonzero}
    .fil4 {fill:#F58634;fill-rule:nonzero}
    .fil6 {fill:#00A859;fill-rule:nonzero}
   ]]>
  </style>
 </defs>
 <g id="Layer_x0020_1">
  <metadata id="CorelCorpID_0Corel-Layer"/>
  <rect class="fil0" width="120" height="120"/>
  <g id="_890172776">
   <g>
    <ellipse class="fil1" cx="60" cy="108" rx="28" ry="10"/>
    <rect class="fil1" x="58" y="36" width="4.90875" height="68.8374" rx="2" ry="4"/>
    <path class="fil1" d="M4 44l0 6c0,0 26,7 56,7 31,0 56,-7 56,-7l0 -6 -112 0z"/>
    <ellipse class="fil2" cx="60" cy="44" rx="56" ry="8"/>
   </g>
   <g>
    <g>
     <g>
      <polygon class="fil3" points="38,23 76,23 81,45 42,48 "/>
      <path id="1" class="fil4" d="M76 25l-38 0 0 -3 38 0 1 1 -1 2zm0 -3l1 0 0 1 -1 -1zm3 23l-4 -21 2 -1 5 22 -1 1 -2 -1zm3 0l0 1 -1 0 1 -1zm-40 2l39 -4 0 3 -39 4 -1 -1 1 -2zm0 3l-1 0 0 -1 1 1zm-3 -27l4 25 -2 1 -5 -25 2 -2 1 1zm-3 1l0 -2 2 0 -2 2z"/>
     </g>
     <g>
      <path class="fil3" d="M38 23l-8 22 12 3c0,0 -3,-26 -4,-25z"/>
      <path id="1" class="fil4" d="M29 44l7 -21 3 1 -7 22 -2 0 -1 -2zm1 2l-1 0 0 -2 1 2zm12 4l-12 -4 1 -3 11 4 1 1 -1 2zm1 -2l1 3 -2 -1 1 -2zm-4 -24l-3 -1 1 -1 1 0 1 1 0 0 0 1 0 0 1 1 0 1 0 0 0 1 0 1 0 1 1 2 0 1 0 1 0 1 0 1 1 1 0 2 0 1 0 1 0 1 0 1 1 1 0 1 0 1 0 1 0 0 0 1 0 1 0 0 0 0 0 0 -2 1 0 0 0 -1 0 0 0 0 0 -1 0 -1 -1 0 0 -1 0 -1 0 -1 0 -1 0 -1 0 -2 -1 -1 0 -1 0 -1 0 -1 0 -2 -1 -1 0 -1 0 -1 0 -1 0 -1 0 -1 -1 -1 0 0 0 -1 0 0 0 -1 0 0 0 1 1 0 1 -1zm-3 -1l1 -1 0 0 -1 1z"/>
     </g>
    </g>
    <polygon class="fil5" points="46,40 75,39 75,41 46,43 "/>
    <polygon class="fil5" points="57,35 75,34 74,36 57,37 "/>
   </g>
   <g>
    <path class="fil6" d="M74 3c-1,-1 -2,-1 -2,-1l-21 24 -13 -9c0,0 -1,0 -2,1 -1,0 -1,1 0,2l12 18c1,0 1,1 2,1l0 0c1,0 1,-1 2,-1l22 -33c1,-1 1,-2 0,-2z"/>
    <path id="1" class="fil7" d="M72 3l-1 -1 0 0 0 0 0 0 0 0 0 -1 1 0 0 0 0 0 0 0 0 0 0 0 0 0 0 0 1 0 0 0 0 0 0 0 0 0 0 0 0 0 0 0 0 0 1 0 0 0 0 0 0 0 0 0 0 1 0 0 0 0 0 0 1 0 0 0 -2 1 0 0 0 0 0 0 0 0 0 0 0 0 0 0 0 0 0 0 0 0 0 0 0 0 0 0 0 0 0 0 0 0 0 0 0 0 0 0 0 0 0 0 0 0 -1 0 0 0 0 0 0 0 0 0 0 0 0 0 0 0 0 0 0 0 0 0zm-1 -1l0 0 0 0 0 0zm-21 24l21 -24 1 1 -21 24 -1 0 0 -1zm1 1l0 0 -1 0 1 0zm-12 -10l12 9 -1 1 -12 -9 1 -1 0 0zm0 0l0 0 0 0 0 0zm-2 1l-2 -1 0 0 1 0 0 0 0 0 0 0 0 0 0 0 0 0 0 0 0 -1 0 0 1 0 0 0 0 0 0 0 0 0 0 0 0 0 0 0 0 0 1 0 0 0 0 0 0 0 0 0 0 0 0 0 0 0 0 0 1 0 0 0 0 1 0 0 -1 1 0 0 0 0 0 0 0 0 0 0 0 0 0 0 0 0 0 0 0 0 0 0 -1 0 0 0 0 0 0 0 0 0 0 0 0 0 0 0 0 0 0 0 0 0 0 0 0 0 0 0 0 0 0 0 0 0 0 0 0 0 0 0 0 0 0 0zm-2 -1l0 0 0 0 0 0zm2 3l-2 1 0 0 0 -1 0 0 0 0 0 0 0 0 0 0 0 0 0 0 0 0 0 -1 0 0 0 0 0 0 0 0 0 0 0 0 0 0 0 0 0 -1 0 0 0 0 0 0 0 0 0 0 0 0 0 0 0 0 0 -1 0 0 0 0 0 0 0 0 2 1 0 0 0 0 0 0 0 0 0 0 0 0 0 1 0 0 -1 0 0 0 0 0 0 0 0 0 0 0 0 0 0 0 0 0 0 0 0 0 0 0 0 0 0 0 0 0 0 0 0 0 0 0 1 0 0 0 0 0 0 0 0 1 0 0 0 0zm0 0l0 0 0 -1 0 1zm11 18l-13 -17 2 -1 12 17 -1 1zm2 0l0 1 0 0 0 0 0 0 0 0 0 0 0 0 -1 0 0 0 0 0 0 0 0 0 0 0 0 0 0 0 0 0 0 0 0 0 0 0 0 0 -1 0 0 0 0 0 0 0 0 0 0 0 0 0 0 0 0 0 0 0 0 -1 0 0 0 0 0 0 1 -1 0 0 0 0 0 0 0 0 0 0 0 0 0 0 0 0 0 0 0 0 0 1 0 0 0 0 0 0 0 0 1 0 0 0 0 0 0 0 0 0 0 0 0 0 0 0 0 0 0 0 0 0 0 0 0 0 0 0 0 0 0 0 0 0 0 0zm0 1l0 0 0 0 0 0zm0 0l0 0 0 -1 0 0 0 0 0 1zm1 -2l1 1 0 0 0 0 0 0 0 0 0 1 0 0 0 0 0 0 0 0 0 0 0 0 0 0 0 0 -1 0 0 0 0 0 0 0 0 0 0 0 0 0 0 0 0 0 0 0 0 0 0 0 0 0 -1 0 0 0 0 0 0 0 0 0 0 0 0 0 0 -1 0 0 0 0 0 0 0 0 0 0 0 0 0 0 0 0 0 0 0 0 0 0 0 0 0 0 0 0 0 0 0 0 0 0 1 0 0 0 0 0 0 0 0 -1 0 0 0 0 0 0 0 0 0 0 0 0 0 0 0 0 0 0 0 0 0 0zm1 1l0 0 0 0 0 0zm23 -33l-23 33 -1 -1 23 -32 0 -1 1 1zm-1 0l0 -1 0 0 0 1zm-1 -2l2 -1 0 0 0 0 0 0 0 0 0 0 0 0 0 0 0 1 0 0 0 0 0 0 0 0 0 0 0 0 0 0 1 1 0 0 0 0 0 0 0 0 0 0 0 0 -1 0 0 0 0 1 0 0 0 0 0 0 0 0 0 0 0 0 0 0 0 1 -1 -2 0 0 0 0 0 0 0 0 0 0 0 0 0 0 0 0 0 0 0 0 0 0 0 0 0 0 0 0 0 0 0 0 0 0 0 0 0 0 0 0 0 0 0 0 0 -1 0 0 0 0 0 0 0 0 0 0 0 0 0 0 0 0 -1 0 0 0zm2 -1l0 0 0 0 0 0z"/>
   </g>
  </g>
 </g>
</svg>
