<?xml version="1.0" encoding="UTF-8"?>
<!DOCTYPE svg PUBLIC "-//W3C//DTD SVG 1.1//EN" "http://www.w3.org/Graphics/SVG/1.1/DTD/svg11.dtd">
<!-- Creator: CorelDRAW X7 -->
<svg xmlns="http://www.w3.org/2000/svg" xml:space="preserve" width="114px" height="88px" version="1.1" style="shape-rendering:geometricPrecision; text-rendering:geometricPrecision; image-rendering:optimizeQuality; fill-rule:evenodd; clip-rule:evenodd"
viewBox="0 0 116 89"
 xmlns:xlink="http://www.w3.org/1999/xlink">
 <defs>
  <style type="text/css">
   <![CDATA[
    .fil4 {fill:#96989A}
    .fil6 {fill:#B8E5FA}
    .fil10 {fill:#2887D2}
    .fil7 {fill:#FC4D44}
    .fil9 {fill:#96989A;fill-rule:nonzero}
    .fil3 {fill:#FFF212;fill-rule:nonzero}
    .fil1 {fill:#FFCC29;fill-rule:nonzero}
    .fil0 {fill:#F58634;fill-rule:nonzero}
    .fil2 {fill:#F0A71F;fill-rule:nonzero}
    .fil8 {fill:url(#id0)}
    .fil5 {fill:url(#id1)}
   ]]>
  </style>
  <linearGradient id="id0" gradientUnits="userSpaceOnUse" x1="51.0384" y1="70.7361" x2="113.999" y2="70.7361">
   <stop offset="0" style="stop-opacity:1; stop-color:#CBE1F4"/>
   <stop offset="0.368627" style="stop-opacity:1; stop-color:#E5F0F9"/>
   <stop offset="1" style="stop-opacity:1; stop-color:white"/>
  </linearGradient>
  <linearGradient id="id1" gradientUnits="userSpaceOnUse" x1="63.7695" y1="36.3382" x2="101.17" y2="36.3382">
   <stop offset="0" style="stop-opacity:1; stop-color:#EEDEC5"/>
   <stop offset="0.368627" style="stop-opacity:1; stop-color:#F6EEE2"/>
   <stop offset="1" style="stop-opacity:1; stop-color:white"/>
  </linearGradient>
 </defs>
 <g id="Layer_x0020_1">
  <metadata id="CorelCorpID_0Corel-Layer"/>
  <g id="_486248680">
   <g>
    <g>
     <path class="fil0" d="M36 88c-16,0 -29,-15 -29,-34 0,-18 13,-33 29,-33 16,0 30,15 30,33 0,19 -14,34 -30,34z"/>
     <path class="fil1" d="M7 54c0,-17 11,-31 26,-33 -1,0 -3,0 -4,0 -16,0 -29,15 -29,33 0,19 13,34 29,34 1,0 3,-1 4,-1 -15,-2 -26,-16 -26,-33z"/>
     <path class="fil2" d="M7 55l-7 0c0,1 0,2 0,3l7 0c0,-1 0,-2 0,-3z"/>
     <path class="fil2" d="M7 49l-7 0c0,1 0,2 0,3l7 0c0,-1 0,-2 0,-3z"/>
     <path class="fil2" d="M8 61l-7 0c0,1 0,2 0,3l7 0c0,-1 0,-2 0,-3z"/>
     <path class="fil2" d="M9 67l-7 0c1,1 1,2 1,3l7 0c0,-1 0,-2 -1,-3z"/>
     <path class="fil2" d="M9 43l-7 0c-1,1 -1,2 -1,3l7 0c0,-1 0,-2 1,-3z"/>
     <path class="fil2" d="M11 38l-7 0c-1,0 -1,1 -1,2l7 0c0,-1 1,-2 1,-2z"/>
     <path class="fil2" d="M16 30l-7 0c-1,1 -2,2 -2,3l7 0c1,-1 1,-2 2,-3z"/>
     <path class="fil2" d="M23 24l-7 0c-1,1 -2,2 -3,3l7 0c1,-1 2,-2 3,-3z"/>
     <path class="fil2" d="M13 74l-7 0c1,1 1,2 2,3l7 0c-1,-1 -1,-2 -2,-3z"/>
     <path class="fil2" d="M11 80c1,1 2,2 3,3l7 0c-1,-1 -2,-2 -3,-3l-7 0z"/>
    </g>
    <path class="fil3" d="M42 63c0,-1 -1,-2 -1,-3 -1,-1 -2,-2 -4,-2 -2,-1 -4,-2 -5,-2 -1,-1 -2,-2 -3,-3 -1,0 -2,-1 -2,-3 -1,-1 -1,-2 -1,-4 0,-2 1,-5 3,-6 1,-2 4,-3 7,-4l0 -5 4 0 0 6c2,0 5,1 6,3 2,2 3,5 3,8l-7 0c0,-2 -1,-3 -2,-4 0,-1 -1,-2 -3,-2 -1,0 -2,0 -3,1 -1,1 -1,2 -1,3 0,2 0,3 1,3 1,1 2,2 4,3 2,0 4,1 5,2 1,1 2,1 3,2 1,1 2,2 2,3 1,1 1,3 1,4 0,3 -1,5 -3,7 -2,2 -4,3 -7,3l0 5 -4 0 0 -5c-3,0 -6,-2 -8,-4 -1,-2 -2,-4 -2,-8l7 0c0,2 0,4 1,5 1,1 2,1 4,1 1,0 3,0 3,-1 1,-1 2,-2 2,-3z"/>
   </g>
   <g>
    <g>
     <path class="fil4" d="M64 16l0 6c0,2 -1,2 -1,3 -2,1 -2,3 -2,5 0,1 1,1 1,1l1 2c0,1 1,1 1,1 1,1 1,3 2,5l1 3c0,0 0,0 0,0 1,0 1,0 1,0l1 1c1,2 2,3 3,4l3 2c0,0 0,0 0,0 1,0 1,0 1,1 1,0 2,0 3,1 3,0 7,0 9,-1 2,-1 3,-2 4,-3 2,-1 3,-2 4,-3 2,-4 1,-2 3,-6 0,0 1,-1 1,-1 0,-1 0,-2 1,-3 0,0 0,0 0,0 1,-1 2,-2 3,-3 0,-1 0,-4 -1,-5 0,-1 0,-1 0,-1 -2,-2 -2,-3 -2,-7 0,-7 0,-9 -5,-14 0,0 -1,0 -1,-1 -1,0 -2,-1 -3,-1 -10,-5 -25,-1 -28,10 -1,1 0,2 0,4z"/>
     <path class="fil5" d="M83 48c3,0 5,-1 8,-3 1,0 2,-2 3,-2 0,-1 0,-1 1,-2 0,-1 1,-2 1,-2 1,-1 1,-1 1,-1l1 -2c1,-2 0,-3 2,-4 1,-1 0,-1 1,-2 0,0 0,-1 0,-2 0,-1 0,-2 -1,-2 0,0 0,-1 0,-1 -1,0 0,0 -1,-1 -2,1 -1,4 -7,3l-4 -1c-3,-1 -10,-1 -13,0 0,0 -5,1 -5,1 -1,0 -2,-1 -3,-1 0,-1 0,-2 -1,-2l-1 2c-1,0 -1,1 -1,2 0,2 0,3 2,5 1,0 1,2 1,3 0,1 1,3 2,4 1,1 2,2 3,3 2,2 0,1 3,3l3 2c1,0 3,0 5,0z"/>
     <path class="fil6" d="M66 15c0,2 -1,4 1,4 9,-4 21,-6 30,-1 0,0 1,1 2,1 0,-5 1,-8 -3,-11 -2,-3 -2,-2 -4,-3 -6,-4 -18,-3 -23,2l-1 1c-1,2 -2,5 -2,7z"/>
     <path class="fil7" d="M67 21c0,1 0,1 0,1l2 2c2,1 2,0 5,0 1,0 2,-1 4,-1 2,0 7,0 9,0l5 1c4,1 3,0 5,-1 1,-1 1,-1 1,-2 -10,-5 -22,-5 -31,0z"/>
    </g>
    <g>
     <path class="fil8" d="M53 61c-3,1 -2,23 -2,23 0,0 0,3 4,3 3,1 23,1 27,0 4,1 25,1 28,0 4,0 4,-3 4,-3 0,0 1,-22 -2,-23 -2,-2 -18,-6 -22,-7 -2,0 -7,0 -8,0 -2,0 -6,0 -8,0 -4,1 -19,5 -21,7z"/>
     <path id="1" class="fil9" d="M53 84l-4 0 0 0 0 0 0 0 0 -1 0 0 0 -1 0 0 0 -1 0 -1 0 0 0 -1 0 -1 0 -1 0 -1 0 -1 0 -1 0 -1 0 -1 0 -1 1 -1 0 -1 0 -1 0 -1 0 -1 0 -1 0 -1 0 -1 0 -1 1 0 0 -1 0 -1 0 0 1 -1 2 3 0 0 0 0 0 0 0 1 0 0 0 1 -1 0 0 1 0 1 0 1 0 1 0 1 0 1 0 1 0 1 0 1 0 1 0 1 0 1 0 1 0 1 0 1 0 1 0 0 0 1 0 1 0 0 0 1 0 0 0 1 0 0 0 0 0 0zm2 2l0 3 0 0 -1 0 0 0 -1 0 0 0 0 0 -1 0 0 -1 0 0 -1 0 0 0 0 0 0 -1 -1 0 0 0 0 0 0 -1 0 0 0 0 0 0 0 -1 0 0 0 0 0 0 0 0 -1 -1 0 0 0 0 0 0 0 0 0 0 0 0 0 0 4 0 0 0 0 0 0 0 0 0 0 0 0 0 0 0 0 0 0 0 0 0 0 0 0 0 0 1 0 0 0 0 0 0 0 0 0 0 0 0 0 0 0 0 0 0 1 0 0 0 0 0 0 1 0 0 0 0 0 0 0 0 1 0 0 0 0 0zm27 0l0 3 0 0 0 0 -1 0 -1 0 0 0 -1 0 -1 0 -1 0 0 0 -1 0 -1 0 -1 0 -1 0 -2 0 -1 0 -1 0 -1 0 -1 0 -1 0 -1 0 -1 0 -1 0 -1 0 -1 0 -1 0 -1 0 -1 0 -1 0 0 0 -1 0 0 0 -1 0 0 0 0 -3 0 0 1 0 0 0 1 0 1 0 0 0 1 0 1 0 1 0 1 0 1 0 1 0 1 0 1 0 1 0 1 0 1 0 1 0 1 0 2 0 1 0 1 0 1 0 1 0 0 0 1 0 1 0 1 0 0 0 1 0 0 0 1 0 0 0zm0 0l0 0 0 0 0 0zm28 0l0 3 0 0 0 0 -1 0 0 0 -1 0 -1 0 0 0 -1 0 -1 0 -1 0 -1 0 -1 0 -1 0 -1 0 -2 0 -1 0 -1 0 -1 0 -1 0 -1 0 -1 0 -1 0 -2 0 -1 0 -1 0 0 0 -1 0 -1 0 -1 0 -1 0 0 0 -1 0 0 0 0 -3 0 0 1 0 0 0 1 0 1 0 1 0 1 0 0 0 1 0 1 0 2 0 1 0 1 0 1 0 1 0 1 0 1 0 1 0 2 0 1 0 1 0 1 0 1 0 1 0 1 0 0 0 1 0 1 0 1 0 0 0 1 0 0 0 0 0zm2 -2l4 0 0 0 0 0 0 0 0 0 0 0 0 0 0 0 0 0 0 1 -1 0 0 0 0 0 0 0 0 1 0 0 0 0 0 0 0 1 0 0 -1 0 0 0 0 1 0 0 0 0 -1 0 0 0 0 1 -1 0 0 0 -1 0 0 0 0 0 -1 0 0 -3 0 0 0 0 1 0 0 0 0 0 0 0 0 -1 0 0 0 0 1 0 0 0 0 0 0 0 0 0 0 0 0 0 0 0 0 0 0 0 0 -1 0 0 0 0 0 0 0 0 0 0 0 0 0 0 0 0 0 0 0 0 0 0 0 0 0 0zm-1 -22l2 -3 0 0 0 1 1 0 0 1 0 1 1 0 0 1 0 1 0 1 0 1 0 1 0 1 0 1 1 1 0 1 0 1 0 1 0 1 0 1 0 1 0 1 0 1 0 1 0 1 0 0 0 1 0 1 0 0 0 1 0 0 0 1 0 0 0 0 -4 0 0 0 0 -1 0 0 0 0 0 -1 0 0 0 -1 0 -1 0 0 0 -1 0 -1 0 -1 0 -1 0 -1 0 -1 0 -1 0 -1 0 -1 0 -1 0 -1 0 -1 0 -1 0 -1 0 -1 0 -1 -1 0 0 -1 0 0 0 -1 0 0 0 0 0 0 0 0zm-21 -6l0 -4 0 0 1 0 0 1 1 0 0 0 1 0 1 0 1 0 0 0 1 1 1 0 1 0 1 0 1 1 1 0 0 0 1 0 1 1 1 0 1 0 1 0 1 1 0 0 1 0 1 0 0 1 1 0 1 0 0 0 1 1 0 0 0 0 1 0 -2 3 0 0 0 0 -1 0 0 -1 -1 0 0 0 -1 0 0 0 -1 -1 -1 0 0 0 -1 0 -1 -1 -1 0 -1 0 -1 0 -1 -1 0 0 -1 0 -1 0 -1 -1 -1 0 -1 0 0 0 -1 0 -1 -1 -1 0 0 0 -1 0 0 0 -1 0 0 0 0 0zm-8 0l0 -3 0 0 0 0 0 0 0 0 0 0 1 0 0 0 0 0 0 0 0 0 1 0 0 -1 0 0 1 0 0 0 0 0 0 0 1 0 0 0 0 0 1 0 0 0 0 0 1 0 0 0 0 0 0 0 1 0 0 0 0 0 1 0 0 0 0 0 0 4 0 0 -1 0 0 0 0 0 0 0 -1 0 0 0 0 0 0 0 -1 0 0 0 0 0 0 0 -1 0 0 0 0 0 -1 0 0 0 0 0 0 0 -1 0 0 0 0 0 0 0 -1 0 0 0 0 0 0 0 0 0 -1 0 0 0 0 0 0 0zm0 0l0 0 0 0 0 0zm-8 0l0 -4 0 0 0 0 0 0 1 0 0 0 0 0 1 0 0 0 0 0 0 0 1 0 0 0 0 0 1 0 0 0 0 0 1 0 0 0 0 0 0 0 1 0 0 0 0 1 0 0 1 0 0 0 0 0 0 0 1 0 0 0 0 0 0 0 0 0 0 3 -1 0 0 0 0 0 0 0 0 0 0 0 -1 0 0 0 0 0 0 0 -1 0 0 0 0 0 0 0 -1 0 0 0 0 0 0 0 -1 0 0 0 0 0 0 0 -1 0 0 0 0 0 0 0 -1 0 0 0 0 0 0 0 0 0 -1 0 0 0zm-20 6l-2 -3 0 0 0 0 1 0 0 0 1 -1 0 0 1 0 0 0 1 0 1 -1 0 0 1 0 1 0 1 -1 1 0 0 0 1 -1 1 0 1 0 1 0 1 -1 0 0 1 0 1 0 1 -1 1 0 0 0 1 0 1 0 0 0 1 0 0 -1 1 0 0 4 0 0 0 0 -1 0 -1 0 0 0 -1 0 -1 1 0 0 -1 0 -1 0 -1 0 0 1 -1 0 -1 0 -1 0 -1 1 -1 0 0 0 -1 0 -1 1 -1 0 -1 0 0 0 -1 1 -1 0 0 0 -1 0 0 1 0 0 -1 0 0 0 0 0 0 0z"/>
    </g>
    <path class="fil10" d="M83 54l-1 0 -2 4c0,0 0,1 1,1 0,0 0,0 0,1 0,1 -2,28 -2,28l3 0 0 0 4 0c0,0 -2,-27 -2,-28 0,-1 0,-1 0,-1 1,0 2,-1 2,-1l-3 -4z"/>
    <g>
     <path class="fil4" d="M73 49l-2 4 8 7 4 -6c0,0 -5,-3 -7,-4 -2,-1 -2,-1 -3,-1z"/>
     <path class="fil4" d="M92 49l2 4 -8 7 -3 -6c0,0 4,-3 6,-4 2,-1 2,-1 3,-1z"/>
    </g>
   </g>
  </g>
 </g>
</svg>
