<?xml version="1.0" encoding="UTF-8"?>
<!DOCTYPE svg PUBLIC "-//W3C//DTD SVG 1.1//EN" "http://www.w3.org/Graphics/SVG/1.1/DTD/svg11.dtd">
<!-- Creator: CorelDRAW X7 -->
<svg xmlns="http://www.w3.org/2000/svg" xml:space="preserve" width="50px" height="50px" version="1.1" style="shape-rendering:geometricPrecision; text-rendering:geometricPrecision; image-rendering:optimizeQuality; fill-rule:evenodd; clip-rule:evenodd"
viewBox="0 0 50 50"
 xmlns:xlink="http://www.w3.org/1999/xlink">
 <defs>
  <style type="text/css">
   <![CDATA[
    .fil0 {fill:#FEFEFE}
   ]]>
  </style>
 </defs>
 <g id="Layer_x0020_1">
  <metadata id="CorelCorpID_0Corel-Layer"/>
  <path class="fil0" d="M1 6l0 38c0,3 2,5 5,5l38 0c3,0 5,-2 5,-5l0 -38c0,-3 -2,-5 -5,-5l-38 0c-3,0 -5,2 -5,5zm32 11c0,4 -4,8 -8,8 -4,0 -8,-4 -8,-8 0,-4 4,-8 8,-8 4,0 8,4 8,8zm-24 21c0,-5 11,-8 16,-8 5,0 16,3 16,8l0 3 -32 0 0 -3z"/>
 </g>
</svg>
