<?xml version="1.0" encoding="UTF-8"?>
<!DOCTYPE svg PUBLIC "-//W3C//DTD SVG 1.1//EN" "http://www.w3.org/Graphics/SVG/1.1/DTD/svg11.dtd">
<!-- Creator: CorelDRAW X7 -->
<svg xmlns="http://www.w3.org/2000/svg" xml:space="preserve" width="120px" height="120px" version="1.1" style="shape-rendering:geometricPrecision; text-rendering:geometricPrecision; image-rendering:optimizeQuality; fill-rule:evenodd; clip-rule:evenodd"
viewBox="0 0 120 120"
 xmlns:xlink="http://www.w3.org/1999/xlink">
 <defs>
  <style type="text/css">
   <![CDATA[
    .fil0 {fill:none}
    .fil3 {fill:#A98F71}
    .fil1 {fill:#2887D2}
    .fil4 {fill:#F0A71F}
    .fil2 {fill:#FFCB68}
    .fil6 {fill:#C73538;fill-rule:nonzero}
    .fil5 {fill:#00A859;fill-rule:nonzero}
   ]]>
  </style>
 </defs>
 <g id="Layer_x0020_1">
  <metadata id="CorelCorpID_0Corel-Layer"/>
  <rect class="fil0" width="120" height="120"/>
  <g id="_600129664">
   <rect class="fil1" x="2" y="85" width="116.002" height="12.5151" rx="13" ry="6"/>
   <g>
    <g>
     <rect class="fil2" x="10" y="49" width="40.5041" height="40.5044"/>
     <rect class="fil3" x="23" y="51" width="13.1998" height="2.35042"/>
    </g>
    <path class="fil4" d="M10 49l9 -4 39 0 -8 4c0,0 -40,0 -40,0z"/>
    <path class="fil4" d="M50 89l8 -5c0,0 0,-39 0,-39 0,0 -8,4 -8,4l0 40z"/>
   </g>
   <g>
    <g>
     <rect class="fil2" x="70" y="49" width="40.5041" height="40.5044"/>
     <rect class="fil3" x="84" y="51" width="13.1998" height="2.35042"/>
    </g>
    <path class="fil4" d="M110 49l-9 -4 -38 0 7 4c0,0 40,0 40,0z"/>
    <path class="fil4" d="M70 89l-7 -5c0,0 0,-39 0,-39 0,0 7,4 7,4l0 40z"/>
   </g>
   <path class="fil5" d="M33 75c0,0 -1,-1 -1,-1 0,-1 -1,-1 -2,-2 -1,0 -2,0 -3,-1 0,0 -1,0 -1,-1 -1,0 -1,-1 -2,-2 0,0 0,-1 0,-2 0,-1 0,-2 1,-3 1,-1 3,-2 4,-2l0 -1 0 -1 0 0 0 0c0,-1 1,-1 1,-1l1 0c0,0 0,0 0,1l0 0 0 0 0 1 0 1c2,0 3,1 4,2 1,1 1,2 1,4l0 0 0 0c0,0 0,1 -1,1l-1 0c-1,0 -1,-1 -1,-1l0 0 0 0 0 0 0 0 0 0c0,-1 -1,-2 -1,-2 -1,-1 -1,-1 -2,-1 -1,0 -1,0 -2,1 0,0 0,1 0,1 0,1 0,1 0,2 1,0 2,1 3,1 1,1 2,1 2,1 1,1 1,1 2,2 0,0 1,1 1,1 0,1 0,2 0,2 0,2 0,3 -1,4 -1,1 -2,2 -4,2l0 1c0,0 0,0 0,0l0 1c0,0 0,0 -1,0l0 0c-1,0 -1,0 -1,0l0 -1c0,0 0,0 0,0l0 -1c-2,0 -3,-1 -4,-2 -1,-1 -2,-2 -2,-4l0 0c0,-1 1,-1 2,-1l1 0c1,0 1,0 1,1l0 0 0 0 0 0 0 0 0 0 0 0c0,1 0,1 1,2 0,0 1,1 2,1 1,0 1,-1 2,-1 0,0 1,-1 1,-2z"/>
   <path class="fil6" d="M92 75c0,0 0,-1 -1,-1 0,-1 -1,-1 -2,-2 -1,0 -2,0 -2,-1 -1,0 -2,0 -2,-1 -1,0 -1,-1 -1,-2 0,0 -1,-1 -1,-2 0,-1 1,-2 2,-3 1,-1 2,-2 4,-2l0 -1 0 -1 0 0 0 0c0,-1 0,-1 0,-1l1 0c0,0 1,0 1,1l0 0 0 0 0 1 0 1c1,0 3,1 3,2 1,1 2,2 2,4l0 0 0 0c0,0 -1,1 -1,1l-2 0c0,0 -1,-1 -1,-1l0 0 0 0 0 0 0 0 0 0c0,-1 0,-2 -1,-2 0,-1 -1,-1 -1,-1 -1,0 -2,0 -2,1 -1,0 -1,1 -1,1 0,1 0,1 1,2 0,0 1,1 2,1 1,1 2,1 3,1 0,1 1,1 1,2 1,0 1,1 1,1 1,1 1,2 1,2 0,2 -1,3 -2,4 -1,1 -2,2 -4,2l0 1c0,0 0,0 0,0l0 1c0,0 0,0 0,0l-1 0c0,0 -1,0 -1,0l0 -1c0,0 0,0 0,0l0 -1c-1,0 -3,-1 -4,-2 -1,-1 -1,-2 -1,-4l0 0c0,-1 0,-1 1,-1l1 0c1,0 1,0 2,1l0 0 0 0 0 0 0 0 0 0 0 0c0,1 0,1 0,2 1,0 1,1 2,1 1,0 2,-1 2,-1 1,0 1,-1 1,-2z"/>
   <polygon class="fil5" points="20,29 27,29 27,22 32,22 32,29 39,29 39,34 32,34 32,41 27,41 27,34 20,34 "/>
   <polygon class="fil6" points="76,35 76,28 102,28 102,35 "/>
  </g>
 </g>
</svg>
