<?xml version="1.0" encoding="UTF-8"?>
<!DOCTYPE svg PUBLIC "-//W3C//DTD SVG 1.1//EN" "http://www.w3.org/Graphics/SVG/1.1/DTD/svg11.dtd">
<!-- Creator: CorelDRAW X7 -->
<svg xmlns="http://www.w3.org/2000/svg" xml:space="preserve" width="120px" height="120px" version="1.1" style="shape-rendering:geometricPrecision; text-rendering:geometricPrecision; image-rendering:optimizeQuality; fill-rule:evenodd; clip-rule:evenodd"
viewBox="0 0 120 120"
 xmlns:xlink="http://www.w3.org/1999/xlink">
 <defs>
  <style type="text/css">
   <![CDATA[
    .str0 {stroke:#FEFEFE;stroke-width:2.08232}
    .fil0 {fill:none}
    .fil11 {fill:#FEFEFE}
    .fil2 {fill:#A98F71}
    .fil6 {fill:#B8E5FA}
    .fil10 {fill:#00AFEF}
    .fil4 {fill:#2887D2}
    .fil3 {fill:#F0A71F}
    .fil7 {fill:#FC4D44}
    .fil1 {fill:#FFCB68}
    .fil15 {fill:#FEFEFE;fill-rule:nonzero}
    .fil12 {fill:#FEFEFE;fill-rule:nonzero}
    .fil13 {fill:#95A0B9;fill-rule:nonzero}
    .fil9 {fill:#2887D2;fill-rule:nonzero}
    .fil8 {fill:url(#id0)}
    .fil5 {fill:url(#id1)}
    .fil14 {fill:url(#id2);fill-rule:nonzero}
   ]]>
  </style>
  <linearGradient id="id0" gradientUnits="userSpaceOnUse" x1="66.0143" y1="88.3907" x2="118" y2="88.3907">
   <stop offset="0" style="stop-opacity:1; stop-color:#CBE1F4"/>
   <stop offset="0.368627" style="stop-opacity:1; stop-color:#E5F0F9"/>
   <stop offset="1" style="stop-opacity:1; stop-color:white"/>
  </linearGradient>
  <linearGradient id="id1" gradientUnits="userSpaceOnUse" x1="76.5275" y1="59.9894" x2="107.409" y2="59.9894">
   <stop offset="0" style="stop-opacity:1; stop-color:#EEDEC5"/>
   <stop offset="0.368627" style="stop-opacity:1; stop-color:#F6EEE2"/>
   <stop offset="1" style="stop-opacity:1; stop-color:white"/>
  </linearGradient>
  <linearGradient id="id2" gradientUnits="userSpaceOnUse" x1="29.7254" y1="17.072" x2="29.7254" y2="62.1296">
   <stop offset="0" style="stop-opacity:1; stop-color:#04870F"/>
   <stop offset="1" style="stop-opacity:1; stop-color:#1DEB23"/>
  </linearGradient>
 </defs>
 <g id="Layer_x0020_1">
  <metadata id="CorelCorpID_0Corel-Layer"/>
  <rect class="fil0" width="120" height="120"/>
  <g id="_543972688">
   <g>
    <g>
     <g>
      <rect class="fil1" x="52" y="42" width="47.4617" height="47.4621"/>
      <rect class="fil2" x="68" y="45" width="15.4671" height="2.75416"/>
     </g>
     <path class="fil3" d="M52 42l11 -4 45 0 -9 4c0,0 -47,0 -47,0z"/>
     <path class="fil3" d="M99 90l9 -7c0,0 0,-45 0,-45 0,0 -9,4 -9,4l0 48z"/>
    </g>
    <g>
     <g>
      <rect class="fil1" x="40" y="55" width="47.4617" height="47.4621"/>
      <rect class="fil2" x="56" y="58" width="15.4671" height="2.75416"/>
     </g>
     <path class="fil3" d="M40 56l11 -5 45 0 -9 4c0,0 -47,0 -47,1z"/>
     <path class="fil3" d="M87 103l9 -6c0,0 0,-46 0,-46 0,0 -9,4 -9,4l0 48z"/>
    </g>
    <g>
     <g>
      <path class="fil4 str0" d="M76 43l0 5c0,1 0,2 0,2 -2,2 -2,3 -1,5 0,0 0,0 0,1l1 2c0,0 1,0 1,0 0,1 1,3 1,4l2 2c0,0 0,0 0,0 0,0 0,0 0,0l1 2c0,1 2,2 2,3l3 1c0,0 0,0 0,0 1,1 0,1 1,1 0,0 1,0 2,1 2,0 6,0 8,-1 1,-1 2,-1 3,-2 1,-1 2,-2 3,-3 2,-3 1,-1 3,-4 0,-1 0,-1 0,-2 0,0 1,-1 1,-2 0,0 0,0 1,0 0,-1 1,-2 1,-3 1,-1 1,-3 0,-4 0,0 0,0 0,0 -2,-2 -1,-3 -1,-6 0,-6 -1,-8 -5,-12 0,0 -1,0 -1,0 -1,-1 -1,-1 -2,-1 -8,-4 -21,-1 -23,8 -1,1 -1,2 -1,3z"/>
      <path class="fil5" d="M92 70c3,0 5,-1 7,-3 1,0 2,-1 2,-2 1,0 1,-1 1,-1 1,-1 1,-1 1,-2 1,-1 1,0 1,-1l1 -1c0,-2 0,-3 1,-4 1,0 1,0 1,-1 0,-1 1,-1 0,-2 0,0 0,-1 0,-2 0,0 -1,0 -1,0 0,-1 0,-1 0,-1 -2,0 -2,3 -6,2l-3 -1c-3,0 -8,0 -11,0 0,0 -4,1 -4,1 -1,0 -2,0 -3,-1 0,0 0,-1 -1,-1l-1 1c0,1 0,1 0,2 -1,2 0,3 1,4 1,0 1,2 1,2 1,1 1,3 2,4 1,1 1,2 2,3 2,1 1,1 3,2l2 1c1,1 3,1 4,1z"/>
      <path class="fil6" d="M78 43c0,1 0,3 1,3 7,-4 17,-5 25,-1 0,0 1,0 1,0 0,-3 1,-6 -2,-9 -2,-2 -2,-1 -3,-2 -6,-3 -15,-2 -19,2l-1 1c-1,1 -2,4 -2,6z"/>
      <path class="fil7" d="M79 47c0,1 0,1 0,1l2 2c1,1 1,0 4,0 1,0 2,-1 4,-1 1,0 5,0 7,0l4 1c3,1 2,0 4,-1 0,-1 1,-1 1,-2 -8,-4 -18,-4 -26,0z"/>
      <path class="fil4" d="M86 52c-1,0 -1,1 -1,2 0,1 0,1 1,1 0,0 1,0 1,0 2,0 1,-3 -1,-3z"/>
      <path class="fil4" d="M99 54c0,0 0,-1 -1,-2 -2,0 -3,3 -1,3 1,1 1,0 2,-1z"/>
     </g>
     <g>
      <path class="fil8" d="M82 76c0,0 -12,3 -14,4 -3,1 -2,19 -2,19 0,0 0,3 3,3 3,0 19,0 22,0 4,0 21,0 24,0 3,0 3,-3 3,-3 0,0 1,-18 -2,-19 -2,-1 -14,-4 -14,-4 1,0 -1,-1 -4,-1 -2,-1 -5,0 -7,0 -1,0 -4,-1 -6,0 -2,0 -4,1 -3,1z"/>
      <path id="1" class="fil9" d="M68 81l-1 -2 0 0 1 0 0 0 0 0 1 0 0 0 1 -1 0 0 1 0 0 0 1 0 0 0 1 -1 0 0 1 0 1 0 0 0 1 -1 0 0 1 0 1 0 0 0 1 0 0 0 1 -1 0 0 0 0 1 0 0 0 0 0 0 0 0 0 0 0 1 1 0 0 0 0 -1 0 0 0 0 0 0 0 -1 0 0 1 -1 0 0 0 -1 0 0 0 -1 0 0 0 -1 1 0 0 -1 0 -1 0 0 0 -1 1 0 0 -1 0 -1 0 0 0 -1 0 0 1 0 0 -1 0 0 0 -1 0 0 0 0 1 0 0zm-1 18l-2 0 0 0 0 0 0 0 0 0 0 -1 0 0 0 0 0 -1 0 -1 0 0 0 -1 0 -1 0 -1 0 0 0 -1 0 -1 0 -1 0 -1 0 -1 1 0 0 -1 0 -1 0 -1 0 -1 0 0 0 -1 0 -1 0 0 0 -1 1 0 0 -1 0 0 0 -1 1 2 0 0 0 0 0 0 0 0 -1 1 0 0 0 1 0 1 0 0 0 1 0 1 0 1 0 1 0 0 0 1 0 1 0 1 0 1 0 1 0 0 0 1 0 1 0 1 0 0 0 1 0 1 0 0 0 0 0 1 0 0 0 0 0 0 0 0zm2 3l0 1 0 0 0 0 -1 0 0 0 0 0 0 0 -1 -1 0 0 0 0 0 0 0 0 -1 0 0 0 0 -1 0 0 0 0 0 0 0 0 0 0 0 -1 0 0 0 0 0 0 0 0 0 0 0 0 -1 -1 0 0 0 0 0 0 0 0 0 0 0 0 2 0 0 0 0 0 0 0 0 0 0 0 0 0 0 0 0 1 0 0 0 0 0 0 0 0 0 0 0 0 0 0 0 0 0 0 0 1 0 0 0 0 0 0 0 0 1 0 0 0 0 0 0 0 0 0 0 0 0 1 1 0 0 0 0 0 0 0zm22 0l0 1 0 0 0 0 0 0 -1 0 0 0 -1 0 0 0 -1 0 -1 0 -1 0 -1 0 0 0 -1 0 -1 0 -1 0 -1 0 -1 0 -1 0 -1 0 -1 0 0 0 -1 0 -1 0 -1 0 -1 0 0 0 -1 0 -1 0 0 0 -1 0 0 0 -1 0 0 0 0 -1 0 0 1 0 0 0 1 0 0 0 1 0 1 0 0 0 1 0 1 0 1 0 1 0 0 0 1 0 1 0 1 0 1 0 1 0 1 0 1 0 1 0 0 0 1 0 1 0 1 0 1 0 0 0 1 0 0 0 1 0 0 0 0 0 0 0zm0 0l0 0 0 0 0 0zm24 0l0 1 0 0 -1 0 0 0 0 0 -1 0 -1 0 0 0 -1 0 -1 0 0 0 -1 0 -1 0 -1 0 -1 0 -1 0 -1 0 -1 0 -1 0 -1 0 -1 0 0 0 -1 0 -1 0 -1 0 -1 0 -1 0 0 0 -1 0 -1 0 0 0 -1 0 0 0 -1 0 0 -1 1 0 0 0 1 0 0 0 1 0 1 0 0 0 1 0 1 0 1 0 1 0 1 0 0 0 1 0 1 0 1 0 1 0 1 0 1 0 1 0 1 0 1 0 1 0 0 0 1 0 1 0 0 0 1 0 1 0 0 0 0 0 1 0 0 0zm2 -3l2 0 0 0 0 0 0 0 0 0 0 0 0 0 0 1 0 0 -1 0 0 0 0 0 0 0 0 0 0 0 0 1 0 0 0 0 0 0 0 0 0 0 0 1 0 0 -1 0 0 0 0 0 0 0 0 0 -1 1 0 0 0 0 -1 0 0 0 0 0 0 -1 0 0 0 0 0 0 1 -1 0 0 0 0 0 0 0 0 0 0 1 0 0 0 0 0 0 0 0 0 0 -1 0 0 0 0 0 0 0 0 0 0 0 0 0 0 0 0 0 0 0 -1 0 0 0 0 0 0 0 0 0 0 0 0 0 0 0 0zm-1 -18l1 -2 0 0 0 1 0 0 0 1 1 0 0 1 0 0 0 1 0 1 0 0 0 1 0 1 0 1 0 1 1 0 0 1 0 1 0 1 0 1 0 1 0 0 0 1 0 1 0 1 0 0 0 1 0 1 0 0 0 0 0 1 0 0 0 0 0 0 -2 0 0 0 0 0 0 0 0 -1 0 0 0 0 0 -1 0 -1 0 0 0 -1 0 -1 0 -1 0 0 0 -1 0 -1 0 -1 0 -1 0 -1 0 0 0 -1 0 -1 0 -1 0 -1 0 0 0 -1 0 -1 0 0 -1 -1 0 0 0 0 0 0 0 0 0 0zm-14 -6l0 1 0 -1 0 0 0 0 0 0 0 0 1 0 0 0 0 0 1 0 0 1 1 0 0 0 1 0 1 0 0 0 1 0 0 1 1 0 1 0 0 0 1 0 1 1 0 0 1 0 0 0 1 0 0 0 1 1 0 0 1 0 0 0 0 0 1 0 -1 2 0 -1 -1 0 0 0 0 0 -1 0 0 0 -1 -1 0 0 -1 0 0 0 -1 0 0 0 -1 -1 -1 0 0 0 -1 0 -1 0 0 -1 -1 0 0 0 -1 0 0 0 -1 0 0 0 -1 -1 0 0 -1 0 0 0 0 0 0 0 0 0 0 0 0 -1zm-4 0l0 -1 0 0 0 0 1 0 0 0 0 0 0 0 1 0 0 0 0 0 0 0 0 0 1 0 0 0 0 1 0 0 0 0 0 0 1 0 0 0 0 0 0 0 0 0 0 0 0 0 0 0 0 0 0 0 1 0 -1 1 0 0 0 0 0 0 0 0 0 -1 0 0 0 0 0 0 0 0 -1 1 1 0 0 0 0 0 0 0 0 0 0 0 -1 0 0 0 0 0 0 0 0 0 0 0 0 0 0 0 -1 0 0 0 0 0 0 0 0 -1 0 0 -1 0 0 0 0 0 0 0 -1 0 0 0 0 0 0 0zm-7 1l1 -2 -1 0 1 0 0 0 0 0 0 0 0 0 0 0 0 0 1 0 0 0 0 0 0 0 1 0 0 0 0 0 0 0 0 0 1 0 0 0 0 0 0 0 1 0 0 0 0 0 0 0 1 0 0 0 0 0 0 0 1 0 0 0 0 0 0 0 0 1 0 0 0 0 0 0 -1 0 0 0 0 0 0 0 -1 0 0 0 0 0 0 0 0 0 -1 0 0 0 0 0 0 0 -1 0 0 0 0 0 0 0 -1 0 0 0 0 0 0 0 0 0 -1 0 0 0 0 1 0 0 0 0 0 0 0 0 -1 0zm1 0l-1 0 0 0 1 0zm-7 -1l0 -1 0 0 0 0 0 0 1 0 0 0 0 0 0 0 1 0 0 0 0 0 0 0 0 0 1 0 0 0 0 0 0 0 1 0 0 0 0 0 0 0 1 0 0 0 0 0 0 0 0 0 1 0 0 0 0 0 0 0 0 0 0 0 0 0 1 0 -1 2 0 0 0 0 0 0 0 0 0 -1 0 0 -1 0 0 0 0 0 0 0 0 0 -1 0 0 0 0 0 0 0 0 0 -1 0 0 0 0 0 0 0 -1 0 0 0 0 0 0 0 0 0 -1 0 0 0 0 0 0 0 0 0 -1 0 0 0 0 0zm-3 1l-1 -1 1 1 0 0 0 0 -1 0 0 0 0 -1 0 0 0 0 0 0 0 0 0 0 0 0 1 0 0 0 0 0 0 0 0 0 0 0 0 0 0 0 1 -1 0 0 0 0 0 0 0 0 0 0 1 0 0 0 0 0 0 0 1 0 0 0 0 0 0 1 0 0 0 0 0 0 -1 0 0 0 0 0 0 0 0 0 -1 1 0 0 0 0 0 0 0 0 0 0 -1 0 0 0 0 0 0 0 0 0 0 0 0 0 0 0 0 0 0 0 0 0 0 0 0 0 0 -1 -1 0 0 0 0 0 0 0 1 1z"/>
     </g>
     <path class="fil4" d="M92 75l0 0 -2 3c0,0 0,1 1,1 0,0 0,0 0,1 0,0 -2,22 -2,22l3 0 0 0 3 0c0,0 -2,-22 -2,-22 0,-1 0,-1 0,-1 1,0 1,-1 1,-1l-2 -3z"/>
     <g>
      <path class="fil10" d="M84 71l-2 3 7 5 3 -4c0,0 -4,-3 -5,-4 -2,0 -2,0 -3,0z"/>
      <path class="fil10" d="M100 71l2 3 -7 5 -3 -4c0,0 4,-3 5,-4 2,0 2,0 3,0z"/>
     </g>
     <rect class="fil11" x="101" y="87" width="12.6324" height="7.14014"/>
     <g>
      <rect class="fil4" x="106" y="89" width="3.75313" height="1.00707"/>
      <rect class="fil4" x="102" y="89" width="3.75313" height="3.02052"/>
      <rect class="fil4" x="106" y="91" width="4.94384" height="1.00707"/>
     </g>
    </g>
   </g>
   <g id="_543972304">
    <path class="fil9" d="M30 29c-1,0 -2,-1 -2,-2 0,-1 1,-2 2,-2 1,0 2,1 2,2 0,1 -1,2 -2,2zm9 -3l-3 0c-1,-2 -3,-4 -6,-4 -3,0 -6,2 -6,4l-4 0c-3,0 -5,1 -5,3l0 2 11 0c1,1 2,1 4,1 1,0 3,0 4,-1l10 0 0 -2c0,-2 -2,-3 -5,-3z"/>
    <path class="fil9" d="M55 103l-51 0c-1,0 -2,-1 -2,-3l0 -67c0,-1 1,-2 2,-2l51 0c1,0 2,1 2,2l0 67c0,2 -1,3 -2,3z"/>
    <polygon class="fil12" points="5,99 54,99 54,36 5,36 "/>
    <g>
     <path class="fil9" d="M14 49l-4 0 0 -4 4 0 0 4zm-5 1l6 0 0 -6 -6 0 0 6z"/>
     <path class="fil9" d="M14 59l-4 0 0 -4 4 0 0 4zm-5 1l6 0 0 -6 -6 0 0 6z"/>
     <path class="fil9" d="M14 69l-4 0 0 -4 4 0 0 4zm-5 1l6 0 0 -6 -6 0 0 6z"/>
     <path class="fil9" d="M14 80l-4 0 0 -4 4 0 0 4zm-5 1l6 0 0 -6 -6 0 0 6z"/>
     <path class="fil9" d="M14 90l-4 0 0 -4 4 0 0 4zm-5 1l6 0 0 -6 -6 0 0 6z"/>
     <polygon class="fil9" points="9,91 15,91 15,85 14,85 13,86 14,86 14,90 10,90 "/>
    </g>
    <g>
     <polygon class="fil13" points="49,91 18,91 18,86 49,86 "/>
     <polygon class="fil9" points="49,91 18,91 18,86 49,86 "/>
    </g>
    <g>
     <polygon class="fil9" points="49,80 18,80 18,75 49,75 "/>
     <polygon class="fil9" points="18,80 49,80 49,75 22,75 "/>
    </g>
    <g>
     <polygon class="fil9" points="49,69 18,69 18,64 49,64 "/>
     <polygon class="fil9" points="26,69 49,69 49,64 30,64 "/>
    </g>
    <g>
     <polygon class="fil9" points="49,58 18,58 18,53 49,53 "/>
     <polygon class="fil9" points="35,58 49,58 49,53 39,53 "/>
    </g>
    <g>
     <polygon class="fil9" points="49,48 18,48 18,43 49,43 "/>
     <polygon class="fil9" points="43,48 49,48 49,43 47,43 "/>
    </g>
   </g>
   <g>
    <path class="fil14" d="M35 17l0 25 8 0 -13 20 -13 -20 7 0 0 -25 11 0zm0 13m4 12m-3 10m-13 0m-2 -10m3 -12m6 -13"/>
    <path id="1" class="fil15" d="M36 42l-1 1 -1 -1 0 -25 2 0 0 25zm-1 1l-1 0 0 -1 1 1zm8 -1l1 1 -1 0 -8 0 0 -1 8 0zm0 0l2 0 -1 1 -1 -1zm-12 21l-2 0 0 -1 13 -20 2 1 -13 20zm0 0l-1 1 -1 -1 2 0zm-15 -20l1 -1 0 0 14 20 -2 1 -13 -20zm0 0l-1 -1 2 0 -1 1zm8 -1l1 0 -1 1 -7 0 0 -1 7 0zm1 0l0 1 -1 0 1 -1zm-1 -25l0 -1 1 1 0 25 -1 0 0 -25zm0 0l0 -1 0 0 0 1zm11 -1l1 1 -1 1 -11 0 0 -2 11 0zm0 0l1 0 0 1 -1 -1z"/>
   </g>
  </g>
 </g>
</svg>
