<?xml version="1.0" encoding="UTF-8"?>
<!DOCTYPE svg PUBLIC "-//W3C//DTD SVG 1.1//EN" "http://www.w3.org/Graphics/SVG/1.1/DTD/svg11.dtd">
<!-- Creator: CorelDRAW X7 -->
<svg xmlns="http://www.w3.org/2000/svg" xml:space="preserve" width="120px" height="120px" version="1.1" style="shape-rendering:geometricPrecision; text-rendering:geometricPrecision; image-rendering:optimizeQuality; fill-rule:evenodd; clip-rule:evenodd"
viewBox="0 0 120 120"
 xmlns:xlink="http://www.w3.org/1999/xlink">
 <defs>
  <style type="text/css">
   <![CDATA[
    .fil0 {fill:none}
    .fil9 {fill:#A98F71}
    .fil10 {fill:#F0A71F}
    .fil8 {fill:#FFCB68}
    .fil4 {fill:#C73538;fill-rule:nonzero}
    .fil5 {fill:#384949;fill-rule:nonzero}
    .fil7 {fill:#3AAAFF;fill-rule:nonzero}
    .fil3 {fill:#3E5959;fill-rule:nonzero}
    .fil6 {fill:#73BCFF;fill-rule:nonzero}
    .fil2 {fill:#76E2F8;fill-rule:nonzero}
    .fil1 {fill:#A8EBFA;fill-rule:nonzero}
   ]]>
  </style>
 </defs>
 <g id="Layer_x0020_1">
  <metadata id="CorelCorpID_0Corel-Layer"/>
  <rect class="fil0" width="120" height="120"/>
  <g id="_603740664">
   <g>
    <path class="fil1" d="M92 92c0,2 -1,3 -2,3l-56 0c-5,0 -10,-5 -10,-11 0,-5 5,-10 10,-10l19 0c4,0 7,-4 7,-8 0,-4 -3,-8 -7,-8l-16 0c-2,0 -3,-1 -3,-2 0,-2 1,-3 3,-3l16 0c7,0 13,6 13,13 0,7 -6,13 -13,13l-19 0c-3,0 -5,2 -5,5 0,3 2,6 5,6l56 0c1,0 2,1 2,2z"/>
    <path class="fil2" d="M92 92c0,2 -1,3 -2,3l-22 0 0 -5 22 0c1,0 2,1 2,2z"/>
    <path class="fil3" d="M34 13l0 37c0,2 -1,3 -2,3 -2,0 -3,-1 -3,-3l0 -37c0,-1 1,-2 3,-2 1,0 2,1 2,2z"/>
    <path class="fil4" d="M51 26l6 -6c1,0 1,-1 1,-2 -1,-1 -2,-2 -3,-2l-23 0 0 21 23 0c1,0 2,-1 3,-2 0,-1 0,-2 -1,-3l-6 -6z"/>
    <path class="fil5" d="M34 13l0 37c0,2 -1,3 -2,3l0 -42c1,0 2,1 2,2z"/>
    <path class="fil6" d="M32 48c-5,0 -8,3 -8,8 0,4 3,7 8,7 4,0 8,-3 8,-7 0,-5 -4,-8 -8,-8z"/>
    <path class="fil7" d="M40 56c0,4 -4,7 -8,7l0 -15c4,0 8,3 8,8z"/>
   </g>
   <g>
    <g>
     <rect class="fil8" x="2" y="74" width="33.3331" height="33.3334"/>
     <rect class="fil9" x="13" y="76" width="10.8628" height="1.9343"/>
    </g>
    <path class="fil10" d="M2 74l8 -3 31 0 -6 3c0,0 -33,0 -33,0z"/>
    <path class="fil10" d="M35 107l6 -4c0,0 0,-32 0,-32 0,0 -6,3 -6,3l0 33z"/>
   </g>
   <g>
    <g>
     <rect class="fil8" x="81" y="72" width="37.0411" height="37.0415"/>
     <rect class="fil9" x="93" y="74" width="12.0712" height="2.14947"/>
    </g>
    <path class="fil10" d="M118 72l-9 -3 -35 0 7 3c0,0 37,0 37,0z"/>
    <path class="fil10" d="M81 109l-7 -5c0,0 0,-35 0,-35 0,0 7,3 7,3l0 37z"/>
   </g>
  </g>
 </g>
</svg>
