<?xml version="1.0" encoding="UTF-8"?>
<!DOCTYPE svg PUBLIC "-//W3C//DTD SVG 1.1//EN" "http://www.w3.org/Graphics/SVG/1.1/DTD/svg11.dtd">
<!-- Creator: CorelDRAW X7 -->
<svg xmlns="http://www.w3.org/2000/svg" xml:space="preserve" width="120px" height="120px" version="1.1" style="shape-rendering:geometricPrecision; text-rendering:geometricPrecision; image-rendering:optimizeQuality; fill-rule:evenodd; clip-rule:evenodd"
viewBox="0 0 120 120"
 xmlns:xlink="http://www.w3.org/1999/xlink">
 <defs>
  <style type="text/css">
   <![CDATA[
    .fil0 {fill:none}
    .fil4 {fill:#FEFEFE;fill-rule:nonzero}
    .fil2 {fill:#FEFEFE;fill-rule:nonzero}
    .fil5 {fill:#FFF212;fill-rule:nonzero}
    .fil1 {fill:#2887D2;fill-rule:nonzero}
    .fil3 {fill:url(#id0)}
   ]]>
  </style>
  <linearGradient id="id0" gradientUnits="userSpaceOnUse" x1="69.5541" y1="64.8544" x2="103.93" y2="56.1401">
   <stop offset="0" style="stop-opacity:1; stop-color:#04870F"/>
   <stop offset="1" style="stop-opacity:1; stop-color:#03690C"/>
  </linearGradient>
 </defs>
 <g id="Layer_x0020_1">
  <metadata id="CorelCorpID_0Corel-Layer"/>
  <rect class="fil0" width="120" height="120"/>
  <g id="_727639576">
   <path class="fil1" d="M59 11c-2,0 -3,-1 -3,-3 0,-2 1,-3 3,-3 1,0 3,1 3,3 0,2 -2,3 -3,3zm13 -4l-5 0c-1,-3 -4,-5 -8,-5 -4,0 -7,2 -8,5l-5 0c-4,0 -7,1 -7,3l0 4 15 0c1,1 3,1 5,1 2,0 4,0 5,-1l14 0 0 -4c0,-2 -3,-3 -6,-3z"/>
   <path class="fil1" d="M99 118l-80 0c-2,0 -4,-1 -4,-3l1 -98c0,-2 1,-3 3,-3l80 0c2,0 3,1 3,3l0 98c0,2 -2,3 -3,3z"/>
   <polygon class="fil2" points="20,114 98,114 98,20 20,20 "/>
   <g>
    <polygon class="fil1" points="78,47 26,47 26,40 78,40 "/>
    <polygon class="fil1" points="55,47 78,47 78,40 62,40 "/>
   </g>
   <g>
    <polygon class="fil1" points="94,33 26,33 26,26 94,26 "/>
    <polygon class="fil1" points="82,33 94,33 94,26 91,26 "/>
   </g>
   <path class="fil1" d="M62 91c0,6 -1,11 -4,15 -3,4 -7,5 -12,5 -5,0 -9,-1 -12,-5 -3,-3 -4,-8 -4,-15l0 -9c0,-7 1,-12 4,-15 3,-4 7,-6 12,-6 5,0 9,2 12,6 3,3 4,8 4,15l0 9zm-9 -10c0,-4 -1,-7 -2,-9 -1,-2 -3,-3 -5,-3 -2,0 -4,1 -5,3 -1,2 -2,4 -2,8l0 12c0,4 1,7 2,9 1,2 3,3 5,3 2,0 4,-1 5,-3 1,-2 2,-5 2,-9l0 -11z"/>
   <path id="1" class="fil1" d="M64 90c0,-2 1,-3 2,-4 1,-1 2,-2 4,-2 2,0 3,1 4,2 1,1 2,2 2,4l0 1c0,2 -1,3 -2,4 -1,1 -2,2 -4,2 -2,0 -3,-1 -4,-2 -1,-1 -2,-2 -2,-4l0 -1zm4 1c0,1 0,2 0,2 1,0 1,1 2,1 1,0 1,-1 2,-1 0,0 0,-1 0,-2l0 -1c0,-1 0,-1 0,-2 -1,0 -1,-1 -2,-1 -1,0 -1,1 -2,1 0,1 0,1 0,2l0 1zm9 13c0,-1 0,-3 1,-3 1,-1 3,-2 4,-2 2,0 3,1 4,1 2,1 2,3 2,4l0 2c0,1 0,3 -1,4 -1,1 -3,1 -5,1 -1,0 -3,0 -4,-1 -1,-1 -1,-3 -1,-4l0 -2zm3 2c0,0 0,1 1,1 0,1 1,1 1,1 2,0 3,-1 3,-2l0 -2c0,0 -1,-1 -1,-1 0,-1 -1,-1 -2,-1 0,0 -1,0 -1,1 -1,0 -1,1 -1,1l0 2zm-9 3l-2 -2 12 -20 3 2 -13 20z"/>
   <g>
    <g>
     <path class="fil3" d="M87 43c10,0 18,8 18,17 0,10 -8,18 -18,18 -10,0 -18,-8 -18,-18 0,-9 8,-17 18,-17z"/>
     <path id="1" class="fil4" d="M105 60l-1 0 0 0 0 0 0 -1 0 -1 0 -1 -1 -1 0 -1 0 0 0 -1 -1 -1 0 -1 -1 0 0 -1 -1 -1 0 0 -1 -1 0 -1 -1 0 0 -1 -1 0 -1 -1 0 0 -1 -1 -1 0 -1 0 0 -1 -1 0 -1 0 -1 0 -1 0 -1 -1 0 0 -1 0 0 -1 1 0 1 0 1 0 0 0 1 1 1 0 1 0 1 0 1 1 1 0 0 1 1 0 1 1 0 0 1 1 1 0 0 1 1 1 1 0 0 1 1 1 0 1 0 0 1 1 0 1 0 1 1 1 0 1 0 1 0 1 0 1 0 0 0 0zm-18 19l0 -1 0 0 1 0 0 0 1 -1 1 0 1 0 1 0 1 0 0 -1 1 0 1 0 1 -1 0 0 1 -1 1 0 0 -1 1 0 0 -1 1 -1 0 0 1 -1 0 -1 1 0 0 -1 1 -1 0 -1 0 0 0 -1 1 -1 0 -1 0 -1 0 -1 0 -1 1 0 0 1 0 1 0 1 0 1 0 1 -1 1 0 1 0 1 -1 1 0 0 0 1 -1 1 0 1 -1 0 -1 1 0 1 -1 0 -1 1 0 0 -1 1 -1 0 0 1 -1 0 -1 1 -1 0 -1 0 -1 0 -1 1 0 0 -1 0 -1 0 -1 0 0 0zm-19 -19l2 0 0 0 0 1 0 1 0 1 0 1 0 1 0 1 1 0 0 1 0 1 1 1 0 0 1 1 0 1 1 0 0 1 1 1 0 0 1 1 1 0 0 1 1 0 1 1 0 0 1 0 1 1 1 0 0 0 1 0 1 0 1 1 1 0 1 0 0 1 -1 0 -1 0 -1 0 -1 0 -1 -1 -1 0 -1 0 0 0 -1 -1 -1 0 -1 -1 -1 0 0 -1 -1 0 -1 -1 0 0 -1 -1 -1 -1 0 0 -1 -1 0 -1 -1 -1 0 0 0 -1 -1 -1 0 -1 0 -1 0 -1 -1 -1 0 -1 0 -1 0 -1 0 0zm19 -18l0 1 0 0 -1 0 -1 0 -1 1 -1 0 -1 0 0 0 -1 0 -1 1 -1 0 0 0 -1 1 -1 0 0 1 -1 0 -1 1 0 0 -1 1 0 1 -1 0 0 1 -1 1 0 0 -1 1 0 1 0 1 -1 0 0 1 0 1 0 1 0 1 0 1 0 0 -2 0 0 0 0 -1 0 -1 1 -1 0 -1 0 -1 0 -1 1 -1 0 -1 0 0 1 -1 0 -1 1 -1 0 0 1 -1 1 -1 0 0 1 -1 1 0 0 -1 1 0 1 -1 1 0 1 -1 0 0 1 0 1 0 1 -1 1 0 1 0 1 0 1 0 0 0z"/>
    </g>
    <path class="fil5" d="M90 66c0,-1 0,-2 -1,-2 0,-1 -1,-1 -2,-2 -1,0 -2,0 -3,-1 -1,0 -2,-1 -2,-1 -1,-1 -1,-1 -1,-2 -1,-1 -1,-2 -1,-3 0,-1 1,-3 2,-4 1,-1 2,-2 4,-2l0 -1 0 -1 0 0 0 0c0,-1 0,-1 1,-1l1 0c0,0 0,0 1,1l0 0 0 0 0 1 0 1c1,0 3,1 4,2 1,2 1,3 1,5l0 0 0 0c0,1 0,1 -1,1l-2 0c0,0 -1,0 -1,-1l0 0 0 0 0 0 0 0 0 0c0,-1 0,-2 -1,-2 0,-1 -1,-1 -2,-1 -1,0 -1,0 -2,0 0,1 -1,1 -1,2 0,1 1,2 1,2 1,1 1,1 3,2 1,0 2,1 3,1 0,0 1,1 2,1 0,1 1,2 1,2 0,1 0,2 0,3 0,1 0,3 -1,4 -1,1 -3,2 -5,2l0 1c0,0 0,0 0,0l0 1c0,1 0,1 -1,1l0 0c-1,0 -1,0 -1,-1l0 -1c0,0 0,0 0,0l0 -1c-2,0 -4,-1 -5,-2 -1,-2 -2,-3 -2,-5l0 0c0,-1 1,-1 2,-1l1 0c1,0 2,0 2,1l0 0 0 0 0 0 0 0 0 0 0 0c0,1 0,2 0,2 1,1 2,1 3,1 1,0 2,0 2,0 1,-1 1,-1 1,-2z"/>
   </g>
  </g>
 </g>
</svg>
