<?xml version="1.0" encoding="UTF-8"?>
<!DOCTYPE svg PUBLIC "-//W3C//DTD SVG 1.1//EN" "http://www.w3.org/Graphics/SVG/1.1/DTD/svg11.dtd">
<!-- Creator: CorelDRAW X7 -->
<svg xmlns="http://www.w3.org/2000/svg" xml:space="preserve" width="120px" height="120px" version="1.1" style="shape-rendering:geometricPrecision; text-rendering:geometricPrecision; image-rendering:optimizeQuality; fill-rule:evenodd; clip-rule:evenodd"
viewBox="0 0 120 120"
 xmlns:xlink="http://www.w3.org/1999/xlink">
 <defs>
  <style type="text/css">
   <![CDATA[
    .fil0 {fill:none}
    .fil8 {fill:#A98F71}
    .fil9 {fill:#F0A71F}
    .fil7 {fill:#FFCB68}
    .fil3 {fill:#FEFEFE;fill-rule:nonzero}
    .fil4 {fill:#95A0B9;fill-rule:nonzero}
    .fil5 {fill:#51A8B1;fill-rule:nonzero}
    .fil1 {fill:#00AFEF;fill-rule:nonzero}
    .fil6 {fill:#00A859;fill-rule:nonzero}
    .fil2 {fill:#2887D2;fill-rule:nonzero}
   ]]>
  </style>
 </defs>
 <g id="Layer_x0020_1">
  <metadata id="CorelCorpID_0Corel-Layer"/>
  <rect class="fil0" width="120" height="120"/>
  <g id="_672218784">
   <g>
    <path class="fil1" d="M76 11c-2,0 -3,-1 -3,-3 0,-1 1,-3 3,-3 1,0 3,2 3,3 0,2 -2,3 -3,3zm13 -4l-5 0c-1,-3 -4,-5 -8,-5 -4,0 -8,2 -9,5l-5 0c-3,0 -6,2 -6,4l0 3 14 0c2,1 4,2 6,2 2,0 4,-1 5,-2l15 0 0 -3c0,-2 -3,-4 -7,-4z"/>
    <path class="fil2" d="M111 113l-70 0c-2,0 -4,-1 -4,-3l0 -93c0,-1 2,-3 4,-3l70 0c2,0 3,2 3,3l0 93c0,2 -1,3 -3,3z"/>
    <polygon class="fil3" points="42,108 110,108 110,21 42,21 "/>
    <polygon class="fil2" points="47,37 90,37 90,30 47,30 "/>
    <polygon class="fil2" points="47,52 90,52 90,45 47,45 "/>
    <polygon class="fil2" points="47,67 90,67 90,60 47,60 "/>
    <polygon class="fil2" points="47,82 90,82 90,75 47,75 "/>
    <polygon class="fil4" points="47,97 90,97 90,90 47,90 "/>
    <path class="fil5" d="M95 38l6 0 0 -5 -6 0 0 5zm7 2l-8 0 0 -8 8 0 0 8z"/>
    <path class="fil5" d="M95 53l6 0 0 -6 -6 0 0 6zm7 1l-8 0 0 -8 8 0 0 8z"/>
    <path class="fil5" d="M95 67l6 0 0 -6 -6 0 0 6zm7 1l-8 0 0 -8 8 0 0 8z"/>
    <path class="fil5" d="M95 81l6 0 0 -5 -6 0 0 5zm7 2l-8 0 0 -9 8 0 0 9z"/>
    <path class="fil5" d="M95 96l6 0 0 -6 -6 0 0 6zm7 1l-8 0 0 -8 8 0 0 8z"/>
    <polygon class="fil6" points="93,33 98,37 108,27 106,25 98,33 95,30 "/>
    <polygon class="fil6" points="93,48 98,52 108,42 106,40 98,48 95,45 "/>
    <polygon class="fil6" points="93,63 98,67 108,57 106,55 98,63 95,60 "/>
    <polygon class="fil2" points="47,97 90,97 90,90 47,90 "/>
   </g>
   <g>
    <g>
     <rect class="fil7" x="6" y="63" width="55.2031" height="55.2029"/>
     <rect class="fil8" x="24" y="66" width="17.9899" height="3.20335"/>
    </g>
    <path class="fil9" d="M6 63l13 -5 52 0 -10 5c0,0 -55,0 -55,0z"/>
    <path class="fil9" d="M61 118l10 -7c0,0 0,-53 0,-53 0,0 -10,5 -10,5l0 55z"/>
   </g>
  </g>
 </g>
</svg>
