<?xml version="1.0" encoding="UTF-8"?>
<!DOCTYPE svg PUBLIC "-//W3C//DTD SVG 1.1//EN" "http://www.w3.org/Graphics/SVG/1.1/DTD/svg11.dtd">
<!-- Creator: CorelDRAW X7 -->
<svg xmlns="http://www.w3.org/2000/svg" xml:space="preserve" width="120px" height="120px" version="1.1" style="shape-rendering:geometricPrecision; text-rendering:geometricPrecision; image-rendering:optimizeQuality; fill-rule:evenodd; clip-rule:evenodd"
viewBox="0 0 120 120"
 xmlns:xlink="http://www.w3.org/1999/xlink">
 <defs>
  <style type="text/css">
   <![CDATA[
    .fil0 {fill:none}
    .fil7 {fill:#A98F71}
    .fil8 {fill:#F0A71F}
    .fil6 {fill:#FFCB68}
    .fil5 {fill:#FEFEFE;fill-rule:nonzero}
    .fil10 {fill:#FEFEFE;fill-rule:nonzero}
    .fil4 {fill:#E8E9EC;fill-rule:nonzero}
    .fil1 {fill:#C8CCD4;fill-rule:nonzero}
    .fil2 {fill:#A7ACB6;fill-rule:nonzero}
    .fil11 {fill:#95A0B9;fill-rule:nonzero}
    .fil3 {fill:#4E4E53;fill-rule:nonzero}
    .fil12 {fill:#00A859;fill-rule:nonzero}
    .fil9 {fill:#2887D2;fill-rule:nonzero}
   ]]>
  </style>
 </defs>
 <g id="Layer_x0020_1">
  <metadata id="CorelCorpID_0Corel-Layer"/>
  <rect class="fil0" width="120" height="120"/>
  <g id="_614591824">
   <polygon class="fil1" points="8,105 92,105 92,15 8,15 "/>
   <polygon class="fil2" points="8,41 92,41 92,15 8,15 "/>
   <polygon class="fil3" points="98,33 2,33 7,15 93,15 "/>
   <polygon class="fil4" points="15,105 85,105 85,49 15,49 "/>
   <polygon class="fil5" points="17,105 83,105 83,49 17,49 "/>
   <polygon class="fil3" points="14,50 85,50 85,47 14,47 "/>
   <polygon class="fil3" points="14,105 80,105 80,96 14,96 "/>
   <g>
    <g>
     <rect class="fil6" x="22" y="84" width="14.138" height="14.138"/>
     <rect class="fil7" x="27" y="85" width="4.60737" height="0.820407"/>
    </g>
    <path class="fil8" d="M36 84l-3 -1 -14 0 3 1c0,0 14,0 14,0z"/>
    <path class="fil8" d="M22 98l-3 -1c0,0 0,-14 0,-14 0,0 3,1 3,1l0 14z"/>
   </g>
   <g>
    <g>
     <rect class="fil6" x="38" y="84" width="14.138" height="14.138"/>
     <rect class="fil7" x="43" y="85" width="4.60737" height="0.820407"/>
    </g>
    <path class="fil8" d="M52 84l-3 -1 -13 0 2 1c0,0 14,0 14,0z"/>
    <path class="fil8" d="M38 98l-2 -1c0,0 0,-14 0,-14 0,0 2,1 2,1l0 14z"/>
   </g>
   <g>
    <g>
     <rect class="fil6" x="36" y="70" width="14.138" height="14.138"/>
     <rect class="fil7" x="40" y="70" width="4.60737" height="0.820407"/>
    </g>
    <path class="fil8" d="M50 70l-4 -2 -13 0 3 2c0,0 14,0 14,0z"/>
    <path class="fil8" d="M36 84l-3 -2c0,0 0,-14 0,-14 0,0 3,2 3,2l0 14z"/>
   </g>
   <g>
    <path class="fil9" d="M88 23c-2,0 -3,-1 -3,-3 0,-1 1,-2 3,-2 1,0 2,1 2,2 0,2 -1,3 -2,3zm10 -4l-4 0c0,-2 -3,-3 -6,-3 -3,0 -6,1 -7,3l-4 0c-3,0 -5,2 -5,3l0 3 11 0c2,1 3,1 5,1 1,0 3,0 4,-1l12 0 0 -3c0,-1 -3,-3 -6,-3z"/>
    <path class="fil9" d="M115 103l-55 0c-1,0 -3,-1 -3,-2l0 -73c0,-2 2,-3 3,-3l55 0c2,0 3,1 3,3l0 73c0,1 -1,2 -3,2z"/>
    <polygon class="fil10" points="61,99 114,99 114,30 61,30 "/>
    <g>
     <path class="fil9" d="M70 44l-4 0 0 -4 4 0 0 4zm-5 1l7 0 0 -6 -7 0 0 6z"/>
     <path class="fil9" d="M70 55l-4 0 0 -4 4 0 0 4zm-5 2l7 0 0 -7 -7 0 0 7z"/>
     <path class="fil9" d="M70 67l-4 0 0 -5 4 0 0 5zm-5 1l7 0 0 -7 -7 0 0 7z"/>
     <path class="fil9" d="M70 78l-4 0 0 -4 4 0 0 4zm-5 1l7 0 0 -6 -7 0 0 6z"/>
     <path class="fil9" d="M70 89l-4 0 0 -4 4 0 0 4zm-5 2l7 0 0 -7 -7 0 0 7z"/>
     <polygon class="fil9" points="66,91 72,91 72,84 71,84 70,85 70,85 70,89 66,89 "/>
    </g>
    <g>
     <polygon class="fil11" points="108,90 75,90 75,85 108,85 "/>
     <polygon class="fil9" points="108,90 75,90 75,85 108,85 "/>
    </g>
    <g>
     <polygon class="fil9" points="108,79 75,79 75,73 108,73 "/>
     <polygon class="fil9" points="75,79 108,79 108,73 79,73 "/>
    </g>
    <g>
     <polygon class="fil9" points="108,67 75,67 75,61 108,61 "/>
     <polygon class="fil9" points="84,67 108,67 108,61 88,61 "/>
    </g>
    <g>
     <polygon class="fil9" points="108,55 75,55 75,50 108,50 "/>
     <polygon class="fil9" points="93,55 108,55 108,50 98,50 "/>
    </g>
    <g>
     <polygon class="fil9" points="108,43 75,43 75,38 108,38 "/>
     <polygon class="fil9" points="103,43 108,43 108,38 107,38 "/>
    </g>
    <polygon class="fil12" points="65,40 68,43 76,35 74,33 68,40 66,38 "/>
    <polygon class="fil12" points="65,52 68,55 76,47 74,45 68,52 66,50 "/>
    <polygon class="fil12" points="65,63 68,67 76,59 74,57 68,63 66,62 "/>
   </g>
   <g>
    <g>
     <rect class="fil6" x="20" y="70" width="14.138" height="14.138"/>
     <rect class="fil7" x="25" y="70" width="4.60737" height="0.820407"/>
    </g>
    <path class="fil8" d="M34 70l-3 -2 -14 0 3 2c0,0 14,0 14,0z"/>
    <path class="fil8" d="M20 84l-3 -2c0,0 0,-14 0,-14 0,0 3,2 3,2l0 14z"/>
   </g>
  </g>
 </g>
</svg>
