<?xml version="1.0" encoding="UTF-8"?>
<!DOCTYPE svg PUBLIC "-//W3C//DTD SVG 1.1//EN" "http://www.w3.org/Graphics/SVG/1.1/DTD/svg11.dtd">
<!-- Creator: CorelDRAW X7 -->
<svg xmlns="http://www.w3.org/2000/svg" xml:space="preserve" width="120px" height="120px" version="1.1" style="shape-rendering:geometricPrecision; text-rendering:geometricPrecision; image-rendering:optimizeQuality; fill-rule:evenodd; clip-rule:evenodd"
viewBox="0 0 120 120"
 xmlns:xlink="http://www.w3.org/1999/xlink">
 <defs>
  <style type="text/css">
   <![CDATA[
    .fil0 {fill:none}
    .fil1 {fill:#FEFEFE}
    .fil4 {fill:#FEFEFE}
    .fil3 {fill:#2887D2}
    .fil5 {fill:#FC4D44}
    .fil29 {fill:#00A2CF;fill-rule:nonzero}
    .fil30 {fill:#077CA1;fill-rule:nonzero}
    .fil2 {fill:#2887D2;fill-rule:nonzero}
    .fil20 {fill:#43A047;fill-rule:nonzero}
    .fil21 {fill:#66BB6A;fill-rule:nonzero}
    .fil6 {fill:#7CB342;fill-rule:nonzero}
    .fil16 {fill:#8E1600;fill-rule:nonzero}
    .fil9 {fill:#9CCC65;fill-rule:nonzero}
    .fil14 {fill:#AE2B00;fill-rule:nonzero}
    .fil17 {fill:#D65128;fill-rule:nonzero}
    .fil18 {fill:#D99F4C;fill-rule:nonzero}
    .fil8 {fill:#DD4503;fill-rule:nonzero}
    .fil23 {fill:#DFD1CB;fill-rule:nonzero}
    .fil27 {fill:#E21F2D;fill-rule:nonzero}
    .fil15 {fill:#E48D72;fill-rule:nonzero}
    .fil19 {fill:#EAC494;fill-rule:nonzero}
    .fil12 {fill:#EDB4A2;fill-rule:nonzero}
    .fil7 {fill:#EF4B03;fill-rule:nonzero}
    .fil22 {fill:#EFE0DB;fill-rule:nonzero}
    .fil13 {fill:#F3CDC1;fill-rule:nonzero}
    .fil26 {fill:#FA4954;fill-rule:nonzero}
    .fil25 {fill:#FC8086;fill-rule:nonzero}
    .fil28 {fill:#FC8186;fill-rule:nonzero}
    .fil24 {fill:#FDB1B9;fill-rule:nonzero}
    .fil11 {fill:#FF8F00;fill-rule:nonzero}
    .fil10 {fill:#FFA000;fill-rule:nonzero}
   ]]>
  </style>
 </defs>
 <g id="Layer_x0020_1">
  <metadata id="CorelCorpID_0Corel-Layer"/>
  <rect class="fil0" width="120" height="120"/>
  <g id="_702987888">
   <g>
    <g>
     <path class="fil1" d="M55 13l42 0 14 13 0 -1c1,1 1,1 1,2l0 61c0,2 -2,3 -4,3l-53 0c-2,0 -4,-1 -4,-3l0 -72c0,-1 2,-3 4,-3z"/>
     <path id="1" class="fil2" d="M97 14l-42 0 0 -2 42 0 1 0 -1 2zm0 -2l1 0 0 0 -1 0zm14 14l-14 -12 1 -2 14 13 1 1 -2 0zm2 0l0 2 -2 -2 2 0zm0 -1l0 1 -3 0 0 -1 2 0 1 0zm-3 0l0 -4 2 4 -2 0zm3 2l-2 0 0 0 0 0 0 0 0 0 0 0 0 0 0 0 0 0 0 0 0 0 0 -1 0 0 0 0 0 0 0 0 0 0 0 0 0 0 0 0 0 0 0 0 0 0 -1 0 0 0 0 0 0 0 0 0 0 0 0 0 0 0 0 0 0 0 0 0 2 -1 0 0 1 0 0 0 0 0 0 0 0 0 0 0 0 0 0 0 0 0 0 0 0 1 0 0 0 0 0 0 0 0 0 0 0 0 0 0 0 0 0 0 0 0 0 0 0 0 0 0 0 0 0 0 0 1 0 0 0 0 0 0 0 0 0 0zm-2 61l0 -61 2 0 0 61 0 0 -2 0zm-3 4l0 -2 0 0 0 0 0 0 1 0 0 0 0 0 0 0 0 0 0 0 0 0 0 0 1 0 0 0 0 -1 0 0 0 0 0 0 0 0 0 0 0 0 0 0 0 0 0 0 0 0 0 0 0 0 1 0 0 -1 0 0 0 0 0 0 0 0 0 0 2 0 0 0 0 0 0 1 0 0 0 0 0 0 0 1 0 0 -1 0 0 0 0 0 0 0 0 1 0 0 0 0 -1 0 0 0 0 0 0 0 0 1 0 0 -1 0 0 0 0 0 0 0 0 0 -1 0 0 0 0 0 0 0 -1 0 0 0 0 0zm-53 -2l53 0 0 2 -53 0 0 0 0 -2zm-5 -2l2 0 0 0 0 0 0 0 0 0 0 0 0 0 0 1 0 0 0 0 0 0 0 0 0 0 0 0 1 0 0 0 0 0 0 0 0 0 0 0 0 0 0 1 0 0 0 0 0 0 1 0 0 0 0 0 0 0 0 0 0 0 0 0 0 0 1 0 0 2 -1 0 0 0 0 0 0 0 -1 0 0 0 0 0 0 0 0 0 -1 0 0 0 0 0 0 -1 0 0 -1 0 0 0 0 0 0 0 0 0 0 -1 0 0 -1 0 0 0 0 0 0 0 0 -1 0 0 0 0 0 0 0 -1 0 0 0 0 0 0zm2 -72l0 72 -2 0 0 -72 0 0 2 0zm3 -4l0 2 0 0 -1 0 0 0 0 0 0 0 0 0 0 0 0 0 0 0 -1 1 0 0 0 0 0 0 0 0 0 0 0 0 0 0 0 0 0 0 0 0 -1 0 0 0 0 0 0 0 0 1 0 0 0 0 0 0 0 0 0 0 0 0 0 0 0 0 -2 0 0 0 0 0 0 -1 0 0 0 0 0 0 0 0 0 -1 0 0 0 0 1 0 0 0 0 0 0 -1 0 0 0 0 0 0 1 0 0 0 0 0 0 0 0 -1 1 0 0 0 0 0 0 0 0 0 1 0 0 0 0 0 0 0 1 0 0 0z"/>
    </g>
    <rect class="fil3" x="74" y="33" width="32.4272" height="4.67744" rx="1" ry="2"/>
    <g>
     <polygon class="fil1" points="96,14 96,25 108,26 "/>
     <path id="1" class="fil2" d="M95 25l0 -11 2 0 1 11 -2 1 -1 -1zm1 1l-1 0 0 -1 1 1zm12 1l-12 -1 0 -2 12 0 1 1 -1 2zm1 -2l2 2 -3 0 1 -2zm-12 -11l12 11 -1 1 -13 -11 0 -1 2 0zm-2 0l0 -2 2 2 -2 0z"/>
    </g>
    <rect class="fil3" x="83" y="44" width="23.7444" height="4.67744" rx="1" ry="2"/>
    <rect class="fil1" x="80" y="54" width="37.961" height="43.1605" rx="3" ry="4"/>
   </g>
   <g>
    <g id="_702969816">
     <g>
      <path class="fil4" d="M85 65l30 0c1,0 1,1 1,2l0 26c0,1 0,2 -1,2l-30 0c-1,0 -2,-1 -2,-2l0 -26c0,-1 1,-2 2,-2z"/>
      <path id="1" class="fil2" d="M115 66l-30 0 0 -2 30 0 0 0 0 2zm2 1l-2 0 0 0 0 0 0 0 0 0 0 0 0 0 0 0 0 -1 0 0 0 0 0 0 0 0 0 0 0 0 0 0 0 0 0 0 0 0 0 0 0 0 0 0 0 0 0 0 0 0 0 0 0 0 0 0 0 0 0 0 0 0 0 0 0 0 0 0 0 -2 0 0 0 0 0 0 0 0 0 0 0 0 1 0 0 0 0 1 0 0 0 0 0 0 0 0 0 0 0 0 0 0 0 0 0 0 1 0 0 0 0 1 0 0 0 0 0 0 0 0 0 0 0 0 0 0 0 0 0 1 0 0 0 0 0 0zm-2 26l0 -26 2 0 0 26 0 0 -2 0zm0 2l0 -1 0 0 0 0 0 0 0 0 0 0 0 0 0 0 0 0 0 0 0 0 0 0 0 0 0 0 0 0 0 0 0 0 0 0 0 -1 0 0 0 0 0 0 0 0 0 0 0 0 0 0 0 0 0 0 0 0 0 0 0 0 0 0 0 0 0 0 2 0 0 0 0 0 0 0 0 0 0 1 0 0 0 0 0 0 0 0 0 0 0 0 0 0 0 0 -1 0 0 1 0 0 0 0 0 0 0 0 0 0 0 0 0 0 0 0 0 0 0 0 -1 0 0 0 0 0 0 0 0 0 0 0 0 0 0 0zm-30 -1l30 0 0 1 -30 0 0 0 0 -1zm-2 -1l1 0 0 0 0 0 0 0 0 0 0 0 0 0 0 0 0 0 0 0 0 0 0 0 0 0 0 0 0 0 0 0 0 0 0 1 0 0 0 0 0 0 0 0 0 0 0 0 1 0 0 0 0 0 0 0 0 0 0 0 0 0 0 0 0 0 0 0 0 1 0 0 -1 0 0 0 0 0 0 0 0 0 0 0 0 0 0 0 0 0 0 0 -1 0 0 0 0 0 0 0 0 0 0 0 0 -1 0 0 0 0 0 0 0 0 0 0 0 0 0 0 0 0 0 0 0 -1 0 0 0 0 0 0 0 0 0 0zm1 -26l0 26 -1 0 0 -26 0 0 1 0zm1 -3l0 2 0 0 0 0 0 0 0 0 0 0 0 0 0 0 0 0 0 0 0 0 0 0 -1 0 0 0 0 0 0 0 0 0 0 0 0 0 0 0 0 0 0 0 0 0 0 0 0 0 0 0 0 0 0 1 0 0 0 0 0 0 0 0 0 0 0 0 -1 0 0 0 0 0 0 -1 0 0 0 0 0 0 0 0 0 0 0 0 0 0 0 0 0 -1 0 0 0 0 0 0 0 0 0 0 0 0 0 0 0 0 1 0 0 0 0 0 0 -1 0 0 0 0 0 0 0 0 0 0 0 0 1 0 0 0 0 0z"/>
     </g>
     <path class="fil5" d="M84 61l32 0c1,0 1,1 1,2l0 5 -35 0 0 -5c0,-1 1,-2 2,-2z"/>
     <g id="_702969336">
      <rect class="fil3" x="89" y="57" width="2.76551" height="8.05062" rx="1" ry="1"/>
      <rect class="fil3" x="95" y="57" width="2.76551" height="8.05062" rx="1" ry="1"/>
      <rect class="fil3" x="102" y="57" width="2.76551" height="8.05062" rx="1" ry="1"/>
      <rect class="fil3" x="108" y="57" width="2.76551" height="8.05062" rx="1" ry="1"/>
     </g>
     <rect class="fil4" x="109" y="71" width="3.41147" height="3.62305"/>
    </g>
    <path class="fil2" d="M92 80l2 0c1,0 2,-1 2,-1 0,0 1,-1 1,-2 0,0 -1,-1 -1,-1 0,-1 -1,-1 -2,-1 0,0 -1,0 -1,1 -1,0 -1,1 -1,1l-3 0c0,-1 0,-2 1,-2 0,-1 1,-1 1,-2 1,0 2,0 3,0 2,0 3,0 5,1 1,1 1,2 1,3 0,1 0,2 -1,2 0,1 -1,2 -2,2 1,0 2,1 3,1 0,1 0,2 0,3 0,1 0,3 -1,4 -1,0 -3,1 -5,1 -1,0 -3,-1 -4,-1 -1,-1 -1,-3 -1,-4l3 0c0,1 0,1 1,2 0,0 1,0 1,0 1,0 2,0 2,0 1,-1 1,-1 1,-2 0,-2 -1,-3 -3,-3l-2 0 0 -2z"/>
    <polygon id="1" class="fil2" points="111,90 107,90 107,77 103,78 103,75 110,73 111,73 "/>
   </g>
   <g>
    <g>
     <path class="fil6" d="M24 48c-2,0 -9,-1 -10,-1l-1 -1 1 -1c1,-1 5,-6 7,-7 3,0 6,1 7,3 1,3 -1,6 -4,7z"/>
     <path class="fil7" d="M35 62l-5 2c-6,1 -12,-2 -14,-8 -2,-5 1,-12 7,-14l5 -1c6,-2 12,1 14,7 2,6 -1,12 -7,14z"/>
     <path class="fil8" d="M36 41c0,0 -3,3 -4,5l-3 9c-2,6 -11,6 -13,0 0,0 0,0 0,0 0,1 0,1 0,1 1,5 5,8 10,8l0 0c0,0 0,0 0,0 0,0 0,0 0,0 0,0 0,0 0,0 1,0 3,0 4,0l5 -2c6,-2 9,-8 7,-14 -1,-4 -3,-6 -6,-7z"/>
     <path class="fil9" d="M28 45l-2 1 -1 -2c-1,-3 1,-7 4,-9 0,0 0,0 1,0 0,0 1,0 1,0 0,1 0,1 -1,2 -2,1 -3,4 -3,7l1 1z"/>
     <path class="fil8" d="M30 46l-5 1c0,0 -1,0 -1,0 0,-1 0,-2 0,-2l5 -1c0,0 1,0 1,0 0,1 0,2 0,2z"/>
     <path class="fil9" d="M47 46l-3 1 -1 -2 4 -1c0,0 1,0 1,0 0,1 0,2 -1,2z"/>
     <path class="fil9" d="M43 45l-2 -1 2 -4c0,-1 1,-1 2,-1 0,0 0,1 0,2l-2 4z"/>
     <path class="fil9" d="M41 44l-2 1 -2 -5c0,-1 1,-1 1,-1 1,-1 1,0 1,0l2 5z"/>
     <path class="fil10" d="M32 70c-1,0 -2,0 -3,-1 -1,0 -2,-2 -2,-4l7 -18c1,-1 2,-3 3,-3 2,-1 4,-1 5,0 2,1 3,2 3,4 1,1 0,3 -1,4l-10 16c-1,1 -2,1 -2,2z"/>
     <path class="fil11" d="M44 50l-11 16c-1,1 -1,1 -2,2 -1,0 -2,0 -3,-1 0,0 0,0 -1,-1 0,2 1,3 2,3 1,1 2,1 3,1 0,-1 1,-1 2,-2l10 -16c1,-1 2,-3 1,-4 0,-1 0,-1 0,-2 0,2 -1,3 -1,4z"/>
     <path class="fil11" d="M34 59c0,1 0,1 -1,1l-3 -2 1 -2 3 2c1,0 1,1 0,1z"/>
     <path class="fil11" d="M39 52l0 0c0,1 -1,1 -1,0l-5 -2 1 -2 5 3c0,0 1,0 0,1z"/>
     <path class="fil11" d="M41 57l-1 1 -3 -1c-1,-1 -1,-1 -1,-2 1,0 1,0 2,0l3 2z"/>
     <path class="fil11" d="M37 64l-2 2 -2 -2c-1,0 -1,-1 0,-1l0 0c0,-1 0,-1 1,-1l3 2z"/>
    </g>
    <g>
     <path class="fil12" d="M35 56c0,-5 6,-9 14,-9 3,0 5,1 7,2 2,0 5,1 7,2 3,1 5,2 6,4l0 5c-1,2 -3,4 -6,5 -2,1 -5,1 -7,2 -2,1 -4,1 -7,1 -8,0 -14,-4 -14,-8l0 -4z"/>
     <path class="fil13" d="M49 47c2,0 5,1 6,1 3,1 5,2 7,3 4,0 6,2 7,4l0 2c-1,2 -3,3 -7,4 -2,1 -4,2 -7,2 -1,1 -4,1 -6,1 -8,0 -14,-4 -14,-8 0,-5 6,-9 14,-9z"/>
     <path class="fil14" d="M37 57c0,-1 0,-2 1,-2 0,0 0,0 0,0l5 0c3,0 3,1 3,2 0,0 0,0 -1,0 -1,1 -1,2 -1,4 0,0 -1,1 -2,1 -3,-2 -5,-3 -5,-5z"/>
     <path class="fil15" d="M36 56c0,0 0,0 0,0 1,0 1,0 1,0 0,0 0,0 0,0l0 0 0 0 0 0 0 0 0 0 0 0 0 0 0 0 0 0 0 1 0 0c0,0 0,0 0,0l0 0c0,0 0,0 0,0l0 0c0,0 0,0 0,0l0 0c0,0 0,0 0,0l0 0 0 0 0 0 0 0c0,0 0,0 0,0l0 0 0 0 0 0 0 0 0 0 0 0 0 0 0 0 0 0 0 0 0 0 0 0 0 0 0 0 0 0 0 0 0 0 0 0 0 0 0 0 0 0 0 0 0 0 0 0 0 0c0,0 0,0 0,0l0 0 0 0 0 0 0 0 0 0c0,0 0,0 0,0l0 0 0 0 0 0 0 0 0 0c0,0 0,0 0,0l0 0 0 0 0 0 0 0 0 0 0 0 0 0c0,0 0,0 0,0l0 0 0 0 0 0c0,0 0,0 0,0l0 0 0 0 0 0c0,0 0,0 0,0l0 0 0 0 0 0 0 0 0 0c0,0 0,0 0,0l0 0 0 0 0 0 0 0 0 0c0,0 0,0 0,0l0 0 0 0 0 0 0 0 0 0 0 0 0 0 0 0 0 0 0 0 0 0 0 0 0 0c0,0 0,0 0,0 0,0 0,0 0,0l0 0 0 0c0,0 0,0 0,0l0 0 0 0 0 0c0,0 0,0 0,0l0 0 0 0 0 0c0,0 0,0 0,0l0 0 0 0 0 0 0 0 0 0 0 0 0 0 0 0 0 0c0,0 0,0 0,0l0 0c0,0 0,0 0,0l0 0 0 0 0 0 0 0 0 0 0 0 0 0c0,0 0,0 0,0l0 0c0,1 1,2 2,2l0 0 0 0c0,0 0,0 0,0l0 0c0,1 0,1 0,1l0 0c0,0 0,0 0,0l0 0 0 0 0 0 0 0 0 0c0,0 0,0 0,0l0 0 0 0 0 0c0,0 0,0 0,0l0 0c0,0 0,0 0,0l0 0 0 0 0 0 0 0 0 0 0 0 0 0 0 0c0,0 0,0 0,0l0 0 0 0 0 0 0 0 0 0 0 0 0 0 0 0 0 0 0 0 0 0c0,0 0,0 0,0l0 0c0,0 0,0 0,0l0 0 0 0 0 0 0 0 0 0c0,0 0,0 0,0l0 0c0,0 0,0 0,0 0,0 0,0 0,0l0 0 0 0 0 0c0,0 0,0 0,0 0,0 0,0 0,0 0,0 0,0 0,0 1,0 1,1 2,1l0 0c0,0 0,0 0,0l0 0 0 0c0,0 0,0 0,0l0 0 0 0 0 0c0,0 0,0 0,0l0 0c0,0 0,0 0,0l0 0c0,0 0,0 0,0l0 0 0 0 0 0 0 0 0 0 0 0c0,0 0,0 0,0l0 0c0,0 0,0 0,0l0 0c0,0 0,0 0,0l0 0c0,0 0,0 0,0l0 0c0,0 0,0 0,0l0 0 0 0 0 0c1,0 1,0 1,0l0 0 0 0 0 0 0 0 0 0 0 0 0 0c0,0 0,0 0,0l0 0 0 0 0 0 0 0 0 0 0 0 0 0 0 0 0 0 0 0 0 0 0 0 0 0 0 0 0 0c0,0 0,0 0,0l0 0 0 0 0 0 0 0 0 0 0 0 0 0 0 0 0 0 0 0 0 0 0 0 0 1 0 0 0 0 0 0 0 0 0 0 0 0 0 0 0 0 0 0 0 0c0,0 0,0 0,0l0 0 0 0 0 0 0 0 0 0 0 0 0 0 0 0 0 0c0,0 0,0 0,0 1,0 2,-1 2,-1 0,0 0,0 0,0l0 0c0,0 0,0 0,0l0 0 0 0 0 0c0,0 0,0 0,0l0 0 0 0 0 0 0 0 0 0c0,0 0,0 0,0l0 0c0,0 0,0 0,0l0 0 0 0 0 0c0,0 0,0 0,0l0 0 0 0 0 0 0 0 0 0c0,0 0,0 0,0l0 0 0 0 0 0 0 0 0 0 0 -1 0 0 0 0 0 0 0 0 0 0 0 0 0 0 0 0 0 0 0 0 0 0 0 0 0 0c0,0 0,0 0,0l0 0 0 0 0 0c0,0 0,0 0,0l0 0c0,0 0,0 0,0l0 0c0,0 0,0 0,0 0,0 0,0 0,0l0 0 0 0c0,0 0,0 0,0l0 0 0 0 0 0c0,0 0,0 0,0l0 0 0 0 0 0c0,0 0,0 0,0l0 0c0,0 0,0 0,0l0 0c0,0 0,0 0,0l0 0c0,0 0,0 0,0l0 0 0 0 0 0c0,0 0,0 0,0l0 0c0,0 0,0 0,0l0 0 0 0 0 0c0,0 0,0 0,0l0 0c0,0 0,0 0,0l0 0 0 0 0 0 0 0 0 0 0 0 0 0 0 0 0 0c0,0 0,0 0,0l0 0 0 0c0,0 0,0 0,0l0 0 0 0 0 0 0 0 0 0 0 0 0 0c0,0 0,0 0,0l0 0c0,0 0,0 0,0l0 0 0 0 0 0c0,0 0,0 0,0l0 0c0,0 0,0 0,0l0 0 0 0 0 0c0,0 0,0 0,0l0 0c0,0 0,0 0,0l0 0 0 0 0 0 0 0 0 0 0 0 0 0c0,0 0,0 0,0l0 0c0,0 0,0 0,0l0 0 0 0 0 0 0 0 0 0c0,0 0,0 0,0l0 0 0 0 0 0c0,0 0,0 0,0l0 0c0,0 0,0 0,0l0 0 0 0 0 0c0,0 0,0 0,0l0 0 0 0 0 0 0 0 0 0 0 0 0 0 0 0 0 0c0,0 0,0 0,0l0 0 0 0 0 0 0 0 0 0 0 0 0 0 0 0 0 0c0,0 0,0 0,0l0 0 0 0 0 0 0 0c0,0 0,0 0,0 0,0 0,0 0,0l0 0c0,0 0,0 0,0l0 0c0,0 0,0 0,0l0 0 0 0 0 0 0 0 0 0 0 0 0 0 0 0 0 0 0 0 0 0 0 0 0 0 0 0 0 0 0 0 0 0 0 0 0 0 0 0 0 0 0 0 0 0 0 0 0 0 0 0 0 0 0 0 0 0 0 0 0 0 0 0 0 0c0,0 0,0 0,0l0 0 0 0 0 0 0 0 0 0 0 0 0 0 0 0 0 0 0 0 0 0 0 0 0 0 0 0 0 0 0 0 0 0 0 0 0 0 0 0 0 0 0 0 0 0c0,0 0,0 0,0l0 0 0 0 0 0 0 0 0 0 0 0 0 0 0 0 0 0 0 0 0 0c0,0 0,0 0,0l0 0 0 0 0 0 0 0 0 0c0,0 0,0 0,0l0 0 0 0 0 0 0 0 0 0c0,0 0,0 0,0l0 0 0 0 0 0 0 0 0 0 0 0 0 0c0,0 0,0 0,0l0 0c0,0 0,0 0,0l0 0 0 0 0 0c0,0 0,0 0,0l0 0c0,0 0,0 0,0l0 0 0 0 0 0 0 0 0 0 0 0c0,0 0,0 0,0 0,0 0,0 0,0l0 0 0 0 0 0c0,0 0,0 0,0l0 0c0,0 0,0 0,0 0,0 0,0 0,0l0 0c0,0 0,0 0,0l0 0 0 0 0 0 0 0 0 0 0 0 0 0c0,0 0,0 0,0l0 0 0 0 0 0c0,0 0,0 0,0l0 0c0,0 0,0 0,0l0 0c0,0 0,0 0,0l0 0c0,0 0,0 0,0l0 0c0,0 0,0 0,0l0 0 0 0 0 0c0,0 0,0 0,0l0 0c0,0 0,-1 0,-1l0 0 0 0 0 0 0 0 0 0c0,0 0,0 0,0l0 0 0 0 0 0c0,0 0,0 0,0l0 0 0 0 0 0c0,0 0,0 0,0l0 0 0 0 0 0 0 0c0,0 0,0 0,0l0 0c0,0 0,0 0,0l0 0 0 0 0 0c0,0 0,0 0,0l0 0c0,0 0,0 0,0l0 0 0 0 0 0c0,0 0,0 0,0l0 0 0 0 0 0 0 0 0 0 0 0 0 0c0,0 0,0 0,0l0 0 0 0 0 0 0 0 0 0c0,0 0,0 0,0l0 0c0,0 0,0 0,0l0 0 0 0 0 0 0 0 0 0 0 0 0 0 0 0 0 0 0 0c0,0 0,0 0,0l0 0 0 0 0 0 0 0 0 0 0 0 0 0c0,0 0,0 0,0l0 0 0 0 0 0 0 0 0 0 0 0 0 0 0 0 0 0c0,0 0,0 0,0l0 0 0 0 0 0 0 0 0 0c0,0 0,0 0,0l0 0 0 0 0 0 0 0 0 0 0 0 0 0c0,0 0,0 0,0l0 0 0 0 0 0 0 0 0 0 0 0 0 0 0 0 0 0 0 0 0 0 0 0 0 0 0 0 0 0 0 0 0 0 0 0 0 0 0 0 0 0 0 0 0 0 0 0 0 0 0 0 0 0 0 0 0 0 0 0 0 0 0 0 0 0 0 0 0 0 0 0 0 0 0 0 0 0 0 0 0 0 0 0c0,0 0,0 0,0l0 0 0 0 0 0 0 0 0 0 0 0 0 0c0,0 0,0 0,0l0 0 0 0 0 0 0 0 0 0c0,0 0,0 0,0l0 0 0 0 0 0 0 0 0 0 0 0 0 0 0 0 0 0 0 0 0 0 0 0 0 0c0,0 0,0 0,0l0 0c0,0 0,-1 1,-1 0,0 0,0 1,0 0,0 0,1 0,1 0,0 0,0 0,0 0,0 -1,1 -1,2 0,1 -1,2 -3,2 0,0 0,0 -1,0 -1,-1 -2,-1 -3,-2 0,0 0,0 0,0 0,0 0,0 0,0 -1,-1 -2,-3 -2,-4 -1,0 -1,0 -1,-1 1,0 1,0 1,0l0 0z"/>
     <path class="fil14" d="M49 51c-1,1 -2,2 -3,2 -3,1 -6,1 -6,1 -1,0 -2,-1 -1,-2 2,-2 5,-3 9,-3 3,0 3,1 1,2z"/>
     <path class="fil15" d="M47 52c1,0 1,1 1,1 0,0 0,1 0,1 -1,0 -1,0 -2,0 -2,1 -4,1 -6,1 0,0 0,0 0,0 0,0 -1,0 -1,0 0,0 0,0 0,0 -1,0 -2,-1 -2,-2 0,0 0,0 1,0 0,-1 0,0 0,0 0,0 0,0 0,0l0 0 0 0 0 0 0 0 0 0 0 0 0 0 0 0 0 0 0 0 0 0 0 0 0 0 0 0 0 0 0 0 0 0 0 0 0 0 0 0 0 0 0 0 0 0 0 0 0 0 0 0 0 0 0 0 0 0 0 0 0 0 0 0 0 0 0 0 0 0 0 0 0 0 0 0 0 0 0 0c0,0 0,0 0,0 1,0 1,0 1,1l0 0 0 0 0 0 0 0 0 0 0 0 0 0 0 0 0 0 0 0 0 0 0 0 0 0 0 0 0 0 0 0 0 0 0 0 0 0 0 0 0 0c0,0 0,0 0,0l0 0 0 0 0 0 0 0 0 0 0 0 0 0 0 0 0 0 0 0 0 0 0 0 0 0 0 0 0 0 0 0 0 0 0 0 0 0 0 0 0 0 0 0 0 0 0 0 0 0 0 0 0 0 0 0 0 0 0 0 0 0 0 0 0 0 0 0 0 0 0 0c0,0 0,0 0,0l0 0 0 0 0 0 0 0c0,0 0,0 0,0 0,0 0,0 0,0 1,0 1,0 1,0 0,0 0,0 0,0l0 0 0 0 0 0 0 0 0 0 0 0 0 0 0 0 0 0 0 0 0 0 0 0 0 0 0 0 0 0 0 0 0 0c0,0 0,0 0,0l0 0 0 0 0 0 0 0 0 0 0 0 0 0 0 0 0 0 0 0 0 0c0,0 0,0 0,0 1,0 4,0 6,-1l0 0c0,0 0,0 0,0l0 0 0 0 0 0 0 0 0 0 0 0 0 0c0,0 0,0 0,0l0 0 0 0 0 0 0 0c0,0 0,0 0,0l0 0c0,0 0,0 0,0l0 0c0,0 0,0 0,0l0 0c0,0 0,0 0,0l0 0 0 0 0 0c0,0 0,0 0,0l0 0 0 0 0 0c0,0 0,0 0,0l0 0c0,0 0,0 0,0l0 0 0 0 0 0 0 0c0,0 0,0 0,0l0 0c0,0 0,0 0,0l0 0 0 0 0 0 0 0 0 0 0 0 0 0 0 0 0 0 0 0 0 0 0 0 0 0 0 0 0 0 0 0 0 0 0 0 0 0 0 0 0 0 0 0c0,0 0,0 1,0l0 0 0 0 0 0 0 0 0 0c0,0 0,0 0,0l0 0 0 0 0 0c0,0 0,0 0,0l0 0 0 0 0 0 0 0 0 0c0,0 0,0 0,0 0,-1 0,-1 0,-1z"/>
     <path class="fil14" d="M64 53l1 0c2,0 3,1 4,2l0 5c-1,2 -3,4 -6,5 0,0 -1,0 -1,0 -3,1 -5,-1 -5,-3 0,-3 0,-9 7,-9z"/>
     <path class="fil14" d="M47 57c0,-1 0,-1 0,-2 0,0 0,-1 1,-1 1,-1 2,-1 3,-2 0,0 0,0 0,-1 2,-1 4,-1 6,-1 2,1 2,2 1,3 -2,2 -3,5 -3,7 0,2 -1,2 -1,2 -2,1 -3,1 -5,1 0,0 0,0 -1,0 -1,0 -3,-2 -2,-3 0,-1 0,-1 1,-2 0,0 0,-1 0,-1z"/>
     <path class="fil15" d="M45 58c1,0 1,0 1,0 0,1 0,1 0,1l0 0 0 0c0,0 0,0 0,0l0 0 0 0 0 0 0 0 0 0 0 0 0 0 0 0c0,0 0,0 0,0l0 0c0,0 0,0 0,0l0 0 0 0 0 0 0 0 0 0c0,0 0,0 0,0l0 0 0 0 0 0c0,0 0,0 0,0l0 0c0,0 0,0 0,0l0 0 0 0 0 0c0,0 0,0 0,0l0 0 0 0 0 0 0 0 0 0 0 0 0 0 0 0 0 0 0 0 0 0 0 0 0 0 0 0 0 0 0 0 0 0 0 0 0 0 0 0 0 0 0 0 0 0 0 0 0 0c0,0 0,0 0,0l0 0 0 0 0 0 0 0 0 0 0 0c0,0 0,0 0,0l0 0 0 0 0 0 0 0 0 0 0 0 0 0 0 1 0 0 0 0 0 0 0 0 0 0 0 0 0 0 0 0 0 0 0 0 0 0 0 0 0 0 0 0 0 0 0 0 0 0 0 0 0 0 0 0 0 0 0 0 0 0 0 0c0,0 0,0 0,0l0 0 0 0 0 0 0 0 0 0 0 0 0 0 0 0 0 0 0 0 0 0 0 0 0 0 0 0c0,0 0,0 0,0l0 0 0 0 0 0c0,0 0,0 0,0l0 0 0 0 0 0 0 0 0 0 0 0 0 0 0 0 0 0c0,0 0,0 0,0l0 0 0 0 0 0c0,0 0,0 0,0l0 0c0,0 0,0 0,0l0 0 0 0 0 0c0,0 0,0 0,0l0 0 0 0 0 0 0 0 0 0c0,0 0,0 0,0l0 0c0,0 0,0 0,0l0 0 0 0 0 0 0 0 0 0 0 0 0 0 0 0c0,0 0,0 0,0l0 0c0,0 0,0 0,0l0 0c0,0 0,0 0,0l0 0 0 0 0 0 0 0 0 0c0,0 0,0 0,0l0 0 0 0 0 0 0 0 0 0 0 0 0 0 0 0 0 0c0,0 0,0 0,0l0 0 0 0 0 0 0 0c0,0 0,0 0,0l0 0c0,0 0,0 0,0l0 0 0 0 0 0 0 0 0 0 0 0 0 0 0 0 0 0 0 0 0 0 0 0c0,0 0,0 0,0l0 0 0 0 0 0c0,0 0,0 0,0l0 0c0,0 0,0 0,0l0 0 0 0 0 0c0,0 0,0 0,0l0 0 0 0 0 0 0 0 0 0 0 0 0 0c0,0 0,0 0,0l0 0c0,0 0,0 0,0l0 0c0,0 0,0 0,0l0 0c0,0 0,0 0,0l0 0 0 0 0 0c0,0 0,0 0,0l0 0 0 0 0 0c0,0 0,0 0,0l0 0 0 0 0 0 0 0 0 0 0 0 0 0 0 0 0 0c0,0 0,0 0,0l0 0c0,0 0,0 0,0l0 0 0 0 0 0 0 0 0 0 0 0 0 0 0 0 0 0c0,0 0,0 0,0l0 0 0 0 0 0 0 0 0 0 0 0 0 0 0 0 0 0 0 0 0 0 0 0 0 0 0 0 0 0c0,0 0,0 0,0l0 0c0,0 0,0 0,0l0 0c0,0 0,0 0,0l0 0 -1 0 0 0 0 0 0 0 0 0 0 0 0 0 0 0 0 0 0 0c0,0 0,0 0,0l0 0 0 0c0,0 0,0 0,0l0 0 0 0 0 0 0 0 0 0 0 0 0 0 0 0 0 0c0,0 0,0 0,0l0 0c0,0 0,0 0,0l0 0 0 0 0 0 0 0c0,1 1,1 1,2 0,0 0,0 0,0 0,0 0,0 0,0l0 0 0 0 0 0 0 0 0 0c0,0 0,0 0,0l0 0 0 0 0 0 0 0 0 0 0 0 0 0 0 0 0 0 0 0 0 0 0 0 0 0 0 0 0 0c0,0 0,0 0,0l0 0 0 0 0 0 0 0 0 0 0 0 0 0 0 0 0 0c0,0 0,0 0,0l0 0c0,0 0,0 0,0l0 0 0 0 0 0 0 0 0 0 0 0 0 0 0 0 0 0 0 0 0 0 0 0 0 0 0 0 0 0 0 0 0 0 0 0 0 0 0 0 0 0 0 0 0 0 0 0 0 0 0 0 0 0 0 0 0 0 0 0 0 0 0 0 0 0c0,0 0,0 0,0l0 0 0 0 0 0 0 0 0 0 0 0 0 0 0 0 0 0 0 0 0 0 0 0 0 0 0 0 0 0 0 0 0 0 0 0 0 0c0,0 0,0 0,0l0 0c0,0 0,0 0,0l0 0c0,0 0,0 0,0l0 0c1,0 1,0 1,0l0 0c0,0 0,0 0,0l0 0c0,0 0,0 0,0l0 0 0 0 0 0 0 0 0 0 0 0 0 0 0 0 0 0 0 0 0 0 0 0 0 0 0 0 0 0 0 0 0 0 0 0 0 0 0 0 0 0 0 0 0 0 0 0 0 0 0 0 0 0 0 0 0 0 0 0 0 0 0 0 0 0 0 0 0 0 0 0 0 0 0 0 0 0 0 0 0 0 0 0 0 0c0,0 0,0 0,0l0 0 0 0 0 0 0 0 0 0 0 0 0 0 0 0 0 0 0 0 0 0 0 0 0 0 0 0 0 0 0 0 0 0 0 1 0 0 0 0 0 0 0 0 0 0 0 0 0 0 0 0 0 0 0 0 0 0 0 0 0 0 0 0 0 0 0 0 0 0 0 0 0 0 0 0 0 0 0 0 0 0 0 0 0 0 0 0 0 0 0 0 0 0 0 0 0 0 0 0 0 0 0 0 0 0 0 0 0 0 0 0 0 0 0 0 0 0 0 0 0 0 0 0 0 0 0 0 0 0 0 0 0 0 0 0 0 0 0 0 0 0 0 0 0 0 0 0 0 0 0 0 0 0c0,0 0,0 0,0l0 0 0 0 0 0 0 0 0 0 0 0 0 0 0 0 0 0 0 0 0 0 0 0 0 0 0 0 0 0 0 0 0 0 0 0 0 0 0 0 0 0 0 0 0 0 0 0 0 0 0 0 0 0 0 0 0 0 0 0 0 0 0 0 0 0 0 0 0 0 0 0 0 0 0 0 0 0 0 0 0 0 0 0 0 0 0 0 0 0 0 0 0 0 0 0 0 0 0 0 0 0 0 0 0 0 0 0c0,0 0,0 0,0l0 0 0 0c1,0 1,0 1,0l0 0 0 0c0,0 0,0 0,0l0 0 0 0 0 0 0 0 0 0 0 0 0 0 0 0 0 0 0 0 0 0 0 0 0 0 0 0 0 0 0 0 0 0 0 0c0,0 0,0 0,0l0 0 0 0 0 0 0 0 0 0 0 0 0 0 0 0 0 0 0 0 0 0 0 0 0 0 0 0 0 0c0,0 0,0 0,0l0 0 0 0 0 0 0 0 0 0 0 0 0 0c0,0 0,0 0,0l0 0c0,0 0,0 0,0l0 0c1,0 1,0 1,0l0 0 0 0 0 0 0 0 0 0c0,0 0,0 0,0l0 0 0 0 0 0 0 0 0 0 0 0 0 0 0 0 0 0 0 0 0 0c0,0 0,0 0,0l0 0 0 0c0,0 0,0 0,0l0 0 0 0 0 0c0,0 0,0 0,0l0 0c0,0 0,0 0,0l0 0c0,0 0,0 0,0l0 0 0 0 0 0 0 0 0 0c0,0 0,0 0,0l0 0c0,0 0,0 0,0l0 0 0 0 0 0c1,0 1,0 1,0l0 0 0 0 0 0 0 0 0 0c0,0 0,0 0,0l0 0c0,0 0,0 0,0l0 0 0 0 0 0 0 0 0 0c0,0 0,0 0,0l0 0c0,0 0,0 0,0l0 0c0,0 1,0 2,0 0,0 0,0 0,0l0 0c0,0 0,0 0,0l0 0 0 0 0 0c0,0 0,0 0,0l0 0 0 0 0 0c0,0 0,0 0,0l0 0 0 0 0 0 0 0 0 0 0 0 0 0 0 0 0 0c0,0 0,0 0,0l0 0 0 0 0 0 0 0 0 0 0 0c0,0 0,0 0,0l0 0 0 0 0 0c0,0 0,0 0,0 0,0 0,0 0,0 0,0 0,0 0,0 1,0 1,0 1,0l0 0c0,0 0,0 0,0l0 0c0,0 0,0 0,0l0 0 0 0 0 0 0 0 0 0 0 0 0 0 0 0 0 0 0 0 0 0 0 0 0 0c0,0 0,0 0,0l0 0c0,0 0,0 0,0l0 0c0,0 0,0 0,0l0 0 0 0 0 0 0 0c0,0 0,0 0,0l0 0 0 0 0 0c0,0 0,0 0,0l0 0c0,0 0,0 0,0l0 0c0,0 0,0 0,0l0 0 0 0 0 0 0 0 0 0 0 0 0 0 0 0 0 0 0 0 0 0 0 0 0 0 0 0 0 0 0 0 0 0 0 -1 0 0 0 0 0 0 0 0 0 0c0,0 0,0 0,0l0 0 0 0 0 0 0 0 0 0 0 0 0 0 0 0 0 0 0 0 0 0 0 0 0 0 0 0 0 0 0 0 0 0 0 0 0 0 0 0 0 0 0 0 0 0 0 0 0 0 0 0 0 0 0 0 0 0 0 0 0 0 1 0 0 0 0 0 0 0 0 0 0 0 0 0 0 0 0 0 0 0 0 0 0 0 0 0 0 0 0 0 0 0 0 0 0 0 0 0 0 0 0 0 0 0 0 0 0 0 0 0 0 0 0 0 0 0 0 0 0 0 0 0 0 0 0 0 0 0 0 0 0 0 0 0 0 0 0 0 0 0 0 0 0 0 0 0 0 0 0 0c0,0 0,0 0,0 0,0 0,0 0,0l0 0c0,0 0,0 0,0 0,0 0,0 0,0l0 0c0,0 0,0 0,0 0,0 0,0 0,0l0 0c0,0 0,0 0,0l0 0 0 0 0 0 0 0 0 0 0 0 0 0 0 0 0 0 0 0 0 0 0 0 0 0 0 0 0 0 0 0 0 0 0 0 0 0 0 0 0 0 0 0 0 0 0 0 0 0 0 0 0 0 0 0 0 0 0 0 0 0 0 0 0 0 0 0 0 0 0 0 0 0 0 0 0 0 0 0 0 0 0 0 0 0 0 0 0 0 0 0 0 0 0 0 0 0 0 0 0 0 0 0 0 0 0 0 0 0 0 0 0 0 0 0 0 0 0 0 0 0 0 0 0 0 0 0 0 0 0 0 0 0 0 0 0 0 0 0 0 0 0 0 0 0 0 0 0 0 0 0 0 0 0 0 0 0 0 0 0 0 0 0 0 0 0 0 0 0 0 0 0 0 0 0 0 0 0 0 0 0 0 0 0 0 0 0 0 0 0 0 0 0 0 0 0 0 0 0 0 0 0 0 0 0 0 0 0 0 0 0 0 0 0 0 0 0 0 0 0 0 0 0 0 0 0 0 0 0 0 0 0 0 0 0 0 0 0 0 0 0 0 0 0 0 0 0 0 0 0 0 0 0 0 0 0 0 0 0 0 0 0 0 0 0 0 0 0 0 0 0c0,0 0,0 0,0l0 0 0 0 0 0 0 0 0 0 0 0c0,0 0,0 0,0l0 0 0 0c0,0 0,0 0,0l0 0 0 0 0 0 0 0 0 0 0 0c0,0 0,0 0,0l0 0c0,0 0,0 0,0l0 0 0 0 0 0c0,0 0,0 0,0 0,0 0,0 0,0l0 0 0 0 0 0 0 0 0 0 0 0 0 0 0 0 0 0 0 0 0 0c0,0 0,0 0,0l0 0c0,0 0,0 0,0l0 0c0,0 0,0 0,0l0 0c0,0 0,0 0,0l0 0c0,0 0,0 0,0l0 0c0,0 0,0 0,0l0 0c0,0 0,0 0,0l0 0c0,0 0,0 0,0 0,0 0,0 0,0 0,0 1,0 1,0l0 0c0,0 0,0 0,0l0 0 0 0 0 0c0,0 0,0 0,0l0 0 0 0 0 0 0 0 0 0 0 0c0,0 0,0 0,0l0 0 0 0 0 0c0,0 0,0 0,0l0 0c0,0 0,0 0,0 0,0 0,0 0,0l0 0 0 0 0 0 0 0c0,0 0,0 0,0l0 0 0 0 0 0c0,0 0,0 0,0l0 0 0 0 0 0c0,0 0,0 0,0l0 0c0,0 0,0 0,0l0 0c0,0 0,0 0,0l0 0 0 0 0 0 0 0 0 0 0 0 0 0 0 0c0,0 0,0 0,0l0 0 0 0 0 0 0 0 0 0c0,0 0,0 0,0l0 0 0 0 0 0 0 0 0 0c0,0 0,0 0,0l0 0 0 0c0,0 0,0 0,0l0 0 0 0 0 0 0 0 0 0 0 0 0 0 0 0 0 0 0 0 0 0c0,0 0,0 0,0l0 0 0 0 0 0 0 0 0 0 0 0c0,0 0,0 0,0l0 0 0 0 0 0 0 0 0 0 0 0 0 0 0 0 0 0c0,0 0,0 0,0l0 0 0 0 0 0c0,0 0,0 0,0l0 0 0 0 0 0 0 0 0 0 0 0 0 0 0 0 0 0c0,0 0,0 0,0l0 0 0 0 0 0 0 0 0 0 0 0 0 0 0 0 0 0 0 0 0 0 0 0 0 0 0 0 0 0 0 0 0 -1 0 0 0 0 0 0 0 0 0 0 0 0 0 0 0 0 0 0 0 0 0 0 0 0 0 0 0 0 0 0 0 0 0 0 0 0 0 0 0 0 0 0 0 0 0 0 0 0 0 0 0 0 0 0 0 0 0 0 0 0 0 0 0 0 0 0 0 0 0 0 0 0 0 0 0 0 0 0 0 0 0 0 0 0 0 0 0 0 0 0 0 0 0 0 0 0 0 0 0 0 0 0 0 0 0 0 0 0 0 0 0 0 0 0 0 0 0 0 0 0 0 0 0 0 0 0c0,0 1,0 1,0 0,0 0,1 0,1 0,1 -1,1 -2,2 0,0 -1,0 -1,0 0,0 0,0 0,0 0,0 0,0 0,0 -2,0 -3,0 -4,0 0,0 0,0 -1,0 -1,0 -2,0 -3,-1 -1,-1 -1,-2 -1,-3 0,-1 0,-1 1,-2 0,0 0,0 0,0z"/>
     <path class="fil16" d="M38 56c0,0 0,1 1,1l0 0c0,0 0,0 0,0 0,0 0,0 0,0 0,1 1,2 3,3 0,0 1,1 0,1 0,0 0,1 -1,0 -2,-1 -3,-2 -4,-4 0,0 0,0 0,0 0,0 0,0 0,0l0 0 0 0c0,0 0,0 0,0l0 0c0,0 0,0 0,0 0,0 0,0 1,-1 0,0 0,0 0,0z"/>
     <path class="fil16" d="M39 52c0,0 0,0 0,0l0 0 0 0c0,0 0,0 0,0l0 0c0,0 0,0 0,0l0 0 0 0c0,0 0,0 0,0 0,0 0,0 0,0l0 0c0,0 0,0 0,0 0,0 0,0 0,0l0 0 0 0c0,0 0,0 0,0 0,0 0,0 0,0 0,0 0,0 0,0l0 0c0,0 0,0 0,0l0 0c0,0 0,0 0,0l0 0c0,0 0,0 0,0l0 0 0 0 0 0 0 0 0 0 0 0 0 0 0 0 0 0c0,0 0,0 0,0l0 0 0 0 0 0c0,0 0,0 0,0l0 0 0 0 0 0 0 0 0 0 0 0 0 0c0,0 0,0 0,0l0 0 0 0 0 0c0,0 0,0 0,0l0 0c0,0 0,0 0,0l0 0 0 0 0 0 0 0 0 0c0,0 0,0 0,0l0 0 0 0 0 0 0 0 0 0 0 0 0 0c0,0 0,0 0,0l0 0 0 0 0 0c0,0 0,0 0,0l0 0c0,0 0,0 0,0 0,0 0,0 0,0l0 0c0,0 0,0 0,0l0 0 0 0 0 0 0 0 0 0 0 0 0 0 0 0 0 0 0 0c0,0 0,0 0,0l0 0 0 0 0 0 0 0 0 0c0,0 0,0 0,0l0 0 0 0 0 0 0 0 0 0c0,0 0,0 0,0l0 0c0,0 0,0 0,0l0 0 0 0 0 0 0 0 0 0 0 0 0 0 0 0 0 0c0,0 0,0 0,0l0 0 0 0 0 0 0 0 0 0 0 0 0 0 0 0 0 0c0,0 0,0 0,0l0 0c0,0 0,0 0,0l0 0 0 0 0 0 0 0 0 0 0 0 0 0 0 0 0 0c0,0 0,0 0,0l0 0 0 0 0 0 0 0 0 0c0,0 0,0 0,0l0 0 0 0 0 0 0 0c0,0 0,0 0,0l0 0 0 0 0 0 0 0 0 0 0 0 0 0 0 0 0 0 0 0 0 0 0 0c0,0 0,0 0,0l0 0c0,0 0,0 0,0l0 0c0,0 0,0 0,0l0 0 0 0 0 0c0,0 0,0 0,0l0 0c0,0 0,0 0,0 0,0 0,0 0,0l0 0 0 0 0 0c0,0 0,0 0,0 0,0 0,0 0,0l0 0 0 0c0,0 0,0 0,0l0 0c0,0 0,0 0,0 0,0 0,0 0,0l0 0c0,0 0,0 0,0 0,0 0,0 0,0 0,0 0,0 0,0 0,0 0,0 0,0 0,0 1,-1 1,-1l0 0 0 0 0 0c0,0 0,0 0,0l0 0c0,0 0,0 0,0l0 0c0,0 0,0 0,0 0,0 0,0 0,0 0,0 0,0 0,0l0 0c0,0 0,0 0,0l0 0c0,0 0,0 0,0l0 0c0,0 0,0 0,0l0 0 0 0 0 0c0,0 0,0 0,0 0,0 0,0 0,0l0 0 0 0c0,0 1,0 1,0 0,0 0,1 0,1 0,0 0,0 -1,1l0 0c1,0 3,0 5,-1 0,0 1,0 1,-1 0,0 1,0 1,1 0,0 0,0 0,1 0,0 0,0 0,0 0,0 0,0 0,0 0,0 0,0 0,0 0,0 0,0 0,0 0,0 0,0 0,0l0 0 0 0c0,0 0,0 0,0 0,0 0,0 0,0 0,0 0,0 0,0l0 0 0 0c0,0 0,0 0,0l0 0c0,0 0,0 0,0l0 0 0 0 0 0c-1,0 -1,0 -1,0l0 0 0 0 0 0 0 0 0 0c0,0 0,0 0,0l0 0c0,0 0,0 0,0 0,0 0,0 0,0 0,0 0,0 0,0 0,0 0,0 0,0l0 0c0,0 0,0 0,0l0 0c0,0 0,0 0,0 0,0 0,0 0,0 0,0 0,0 0,0l0 0c0,0 0,0 0,0 0,0 0,0 0,0 0,0 0,0 0,0 0,0 0,0 0,0 0,0 0,0 0,0l0 0c0,0 0,0 0,0l0 0c0,0 0,0 0,0l0 0c0,0 0,0 0,0l0 0c0,0 0,0 0,0l0 0 0 0c0,0 0,0 0,0l0 0c0,0 0,0 0,0l0 0c0,0 0,0 0,0 0,0 0,0 0,0 0,0 0,0 0,0l0 0c0,0 0,0 0,0l0 0c0,0 0,0 0,0l0 0c0,0 0,0 0,0l0 0 0 0 0 0c0,0 0,0 0,0l0 0c0,0 0,0 0,0l0 0c0,0 0,0 0,0l0 0c0,0 0,0 0,0l0 0c0,0 0,0 0,0l0 0c0,0 0,0 0,0l0 0 0 0c0,0 0,0 0,0 -2,1 -5,1 -6,1l0 0c0,0 0,0 0,0l0 0 0 0 0 0c0,0 0,0 0,0l0 0 0 0 0 0c0,0 0,0 0,0l0 0 0 0 0 0c0,0 0,0 0,0l0 0c0,0 0,0 0,0l0 0 0 0 0 0c0,0 0,0 0,0l0 0c0,0 0,0 0,0 0,0 0,0 0,0l0 0 0 0 0 0c0,0 0,0 0,0l0 0 0 0 0 0 0 0 0 0 0 0 0 0 0 0 0 0 0 0 0 0 0 0 0 0 0 0 0 0 0 0 0 0c0,0 0,0 0,0l0 0c0,0 0,0 0,0l0 0 0 0 0 0 0 0 0 0 0 0 0 0 0 0 0 0c0,0 0,0 0,0l0 0 0 0 0 0 0 0 0 0c0,0 0,0 0,0l0 0 0 0 0 0 0 0 0 0 0 0 0 0 0 0 0 0 0 0 0 0c0,0 0,0 0,0l0 0c0,0 0,0 0,0l0 0c0,0 0,0 0,0l0 0c0,0 0,0 0,0l0 0c0,0 0,0 0,0l0 0 0 0 0 0c0,0 0,0 0,0l0 0 0 0 0 0c0,0 0,0 0,0l0 0 0 0 0 0 0 0 0 0 -1 0 0 0c0,0 0,0 0,0l0 0 0 0 0 0 0 0 0 0c0,0 0,0 0,0l0 0c0,0 0,0 0,0l0 0 0 0 0 0 0 0 0 0 0 0 0 0 0 0 0 0c0,0 0,0 0,0l0 0 0 0 0 0 0 0 0 0 0 0 0 0 0 0 0 0 0 0 0 0c0,0 0,0 0,0l0 0c0,0 0,0 0,0l0 0c0,0 0,0 0,0l0 0c0,0 0,0 0,0l0 0 0 0 0 0 0 0 0 0 0 0 0 0c0,0 0,0 0,0l0 0 0 0c0,0 0,0 0,0l0 0 0 0c0,0 0,0 0,0 0,0 0,0 0,0l0 0c0,0 0,0 0,0l0 0c0,0 0,0 0,0l0 0c0,0 0,0 0,0l0 0c0,0 0,0 0,0l0 0c0,0 0,0 0,0l0 0 0 0 0 0 0 0c0,0 0,0 0,0 0,0 0,0 0,0l0 0 0 0c0,0 0,0 0,0l0 0c0,0 0,0 0,0l0 0c0,0 0,0 0,0l0 0 0 0 0 0c0,0 0,0 0,0l0 0c0,0 0,0 0,0l0 0c0,0 0,0 0,0l0 0c0,0 0,0 0,0l0 0c0,0 0,0 0,0l0 0 0 0 0 0 0 0 0 0 0 0 0 0 0 0 0 0 0 0 0 0 0 0 0 0 0 0 0 0 0 0 0 0c0,0 0,0 0,0l0 0c0,0 0,0 0,0 0,0 0,0 0,0l0 0c0,0 0,0 0,0l0 0c0,0 0,0 0,0l0 0c0,0 0,0 0,0l0 0 0 0 0 0 0 0 0 0c0,0 0,0 0,0l0 0 0 0 0 0 0 0 0 0 0 0 0 0c0,0 0,0 0,0l0 0 0 0 0 0 0 -1 0 0c0,0 0,0 0,0l0 0 0 0 0 0 0 0 0 0 0 0 0 0 0 0 0 0 0 0 0 0 0 0 0 0 0 0c0,0 0,0 0,0l0 0 0 0 0 0 0 0 0 0 0 0 0 0 0 0 0 0c0,0 0,0 0,0l0 0 0 0 0 0 0 0 0 0 0 0 0 0 0 0 0 0 0 0 0 0 0 0 0 0 0 0 0 0 0 0 0 0 0 0 0 0 0 0c0,0 0,0 0,0 0,0 0,0 0,0 0,0 0,0 0,0l0 0 0 0 0 0 0 0 0 0 0 0 0 0 0 0 0 0 0 0 0 0 0 0 0 0 0 0 0 0 0 0 0 0 0 0 0 0 0 0 0 0 0 0 0 0 0 0 0 0 0 0 0 0 0 0 0 0 0 0 0 0c0,0 0,0 0,0l0 0 0 0 0 0c0,0 0,0 0,0l0 0 0 0 0 0 0 0 0 0 -1 0 0 0 0 0 0 0 0 0 0 0 0 0 0 0 0 0 0 0 0 0 0 0 0 0 0 0 0 0 0 0 0 0 0 0 0 0 0 0 0 0 0 0 0 0 0 0 0 0 0 0 0 0 0 0 0 0c0,0 0,0 0,0l0 0 0 0 0 0 0 0 0 0 0 0 0 0 0 0 0 0c0,0 0,0 0,0l0 0 0 0 0 0c0,0 0,0 0,0l0 0 0 0 0 0 0 0 0 0 0 0 0 0 0 0 0 0 0 0 0 0 0 0c0,0 0,0 0,0l0 0c0,0 0,0 0,0l0 0c0,0 0,0 0,0l0 0 0 0 0 0 0 0 0 0 0 0 0 0 0 0 0 0 0 0 0 0c0,0 0,0 0,0l0 0 0 0 0 0c0,0 0,0 0,0l0 0 0 0 0 0 0 0 0 0 0 0 0 0 0 0 0 0 0 0 0 0 0 0 0 0 0 0 0 0 0 0 0 0 0 0 0 0 0 0 0 0c0,0 0,0 0,0l0 0c0,0 0,0 0,0l0 0 0 0 0 0 0 0 0 0c0,0 0,0 0,0l0 0c0,0 0,0 0,0 0,0 0,0 0,0l0 0c0,0 0,0 1,-1z"/>
     <path class="fil16" d="M48 54c0,0 0,1 0,1l0 0c0,0 0,0 0,0l0 0c1,0 1,1 1,2 0,1 -1,1 -1,2 -1,0 -1,1 -1,1 0,0 0,1 0,1 1,0 1,1 1,1 1,0 1,0 1,0 1,0 3,0 4,-1 0,0 1,0 1,-1l0 0c0,0 0,-1 0,-1 0,0 0,0 0,0 1,0 1,1 1,1 0,0 0,0 0,0l0 0 0 0 0 0 0 0 0 0 0 0 0 0 0 0 0 0 0 0 0 0 0 0 0 0 0 0 0 0 0 0 0 0 0 0 0 0 0 0 0 0 0 0 0 0 0 0 0 0c0,0 0,0 0,0l0 0 0 1 0 0 0 0 0 0 0 0 0 0 0 0 0 0 0 0 0 0 0 0 0 0 0 0 0 0 0 0 0 0 0 0 0 0 0 0 0 0 0 0 0 0 0 0 0 0 0 0 0 0 0 0 0 0 0 0 0 0 0 0 0 0 0 0 0 0 0 0 0 0 0 0c0,0 0,0 0,0l0 0 0 0 0 0 0 0 0 0 0 0 0 0 0 0 0 0 0 0 0 0 0 0 0 0 0 0 0 0 0 0 0 0 0 0 0 0 0 0 0 0 0 0 0 0 0 0 0 0 0 0c0,0 0,0 0,0l0 0 0 0 0 0 0 0 0 0 0 0 0 0 0 0 0 0 0 0c0,0 0,0 0,0l0 0 0 0 0 0 0 0 0 0 0 0 0 0 0 0 0 0 0 0c0,0 0,0 0,0l0 0 0 0 0 0 0 0 0 0 0 0 0 0 0 0 0 0 0 0 0 0 0 0 0 0 0 0 0 0 0 0 0 0 0 0 0 0 0 0 0 0 0 0 0 0 0 0 0 0 0 0 0 0 0 0c0,0 0,0 0,0l0 0 0 0 0 0 0 0 0 0 0 0 0 0 0 0 0 0 0 0 0 0c0,0 0,0 0,0l0 0 0 0 0 0 0 0 0 0 0 0 0 0 0 0 0 0 0 0 0 0c0,0 0,0 0,0l0 0 0 0 0 0 0 0 0 0 0 0 0 0 0 0 0 0 0 0 0 0c0,0 0,0 0,0l0 0 0 0 0 0 0 0 0 0 0 0c0,0 0,0 0,0l0 0c0,0 0,0 0,0l0 0 0 0 0 0 0 0 0 0 0 0c0,0 0,0 0,0l0 0 0 0 0 0 0 0 0 0c0,0 0,0 0,0l0 0 0 0 0 0c0,0 0,0 0,0l0 0 0 0c0,0 0,0 0,0l0 0c0,0 0,1 -1,1l0 0 0 0 0 0 0 0 0 0 0 0c0,0 0,0 0,0l0 0 0 0 0 0 0 0 0 0c0,0 0,0 0,0l0 0 0 0 0 0 0 0 0 0c0,0 0,0 0,0l0 0 0 0 0 0 0 0 0 0 0 0 0 0 0 0 0 0 0 0 0 0 0 0 0 0 0 0 0 0 0 0 0 0 0 0 0 0 0 0 0 0 0 0 0 0 0 0 0 0 0 0 0 0 0 0 0 0 0 0 0 0 0 0 0 0 0 0 0 0 0 0c0,0 0,0 0,0l0 0 0 0 0 0c0,0 0,0 0,0l0 0 0 0 0 0 0 0c0,0 0,0 0,0l0 0 0 0 0 0 0 0 0 0 0 0 0 0 0 0 0 0 0 0 0 0 0 0 0 0 0 0 0 0 0 0 0 0 0 0 0 0 0 0 0 0 0 0 0 0 0 0 0 0 0 0 0 0 0 0 0 0 0 0 0 0 0 0 0 0 0 0 0 0 0 0 0 0 0 0 0 0 0 0 0 0 0 0c-2,1 -3,1 -5,1 0,0 0,0 -1,0l0 0c0,0 0,0 0,0l0 0c0,0 0,0 0,0l0 0 0 0 0 0 0 0 0 0 0 0 0 0c0,0 0,0 0,0l0 0 0 0 0 0 0 0 0 0 0 0 0 0 0 0 0 0 0 0 0 0 0 0 0 0 0 0 0 0 0 0 0 0c0,0 0,0 0,0l0 0 0 0 0 0 0 0 0 0 0 0 0 0 0 0 0 0 0 0 0 0 0 0 0 0 0 0 0 0 0 0 0 0 0 0 0 0c0,0 0,0 0,0l0 0c0,0 0,0 -1,0l0 0 0 0 0 0c0,0 0,0 0,0l0 0c0,0 0,0 0,0l0 0 0 0 0 0 0 0 0 0 0 0 0 0 0 0 0 0 0 0 0 0 0 0 0 0 0 0 0 0 0 0 0 0 0 0 0 0 0 0 0 0 0 0 0 0 0 0 0 0 0 0 0 0 0 0 0 0 0 0 0 0 0 0 0 0 0 0 0 0 0 0 0 0 0 0 0 0 0 0 0 0 0 0 0 0 0 0 0 0 0 0 0 0 0 0 0 0 0 0 0 0 0 0 0 0 0 0 0 0 0 0 0 0 0 0 0 0 0 0 0 0 0 0 0 0 0 0 0 0 0 0 0 0 0 0 0 0 0 0 0 0 0 0 0 0 0 0 0 0 0 0 0 0 0 0 0 0 0 0 0 0 0 0 0 0 0 0 0 0 0 0 0 0 0 0 0 0 0 0 0 0 0 0 0 0 0 0 0 0 0 0 0 0 0 0 0 0 0 0 0 0 0 0 0 0 0 0 0 0 0 0 0 0 0 0 0 0 0 0 0 0 0 0 0 0 0 -1 0 0 0 0 0 0 0 0 0 0 0 0 0 0 0 0 0 0 0 0 0 0 0 0 0 0 0 0 0 0 0 0 0 0c0,0 0,0 0,0l0 0 0 0 0 0 0 0 0 0 0 0 0 0c0,0 0,0 0,0l0 0 0 0 0 0 0 0 0 0 0 0 0 0 0 0 0 0 0 0 0 0 0 0 0 0 0 0 0 0 0 0 0 0 0 0 0 0 0 0 0 0 0 0 0 0 0 0 0 0 0 0 0 0 0 0 0 0 0 0 0 0 0 0 0 0 0 0 0 0 0 0 0 0c0,0 0,0 0,0l0 0c0,0 0,0 0,0l0 0c0,0 0,0 -1,0l0 0c0,0 0,0 0,0l0 0c0,0 0,0 0,0l0 0 0 0 0 0 0 0 0 0 0 0 0 0 0 0 0 0 0 0 0 0 0 0 0 0 0 0 0 0 0 0 0 0 0 0 0 0 0 0 0 0 0 0 0 0 0 0 0 0 0 0 0 0 0 0 0 0 0 0 0 0 0 0 0 0 0 0 0 0 0 0 0 0 0 0 0 0 0 0 0 0 0 0 0 0 0 0 0 0 0 0 0 0 0 0 0 0 0 0 0 0 0 0 0 0 0 0 0 0 0 0 0 0 0 0 0 0 0 0 0 0 0 0 0 0 0 0 0 0 0 0 0 0 0 0 0 0 0 0 0 0 0 0 0 0 0 0 0 0 0 0 0 0 0 0 0 0 0 0 0 0 0 0c0,0 0,0 0,0l0 0 0 0 0 0 0 0 0 0c0,0 -1,-1 -1,-2l0 0 0 0 0 0c0,0 0,0 0,0l0 0 0 0 0 0 0 0 0 0 0 0 0 0 0 0c0,0 0,0 0,0l0 0 0 0 0 0c0,0 0,0 0,0l0 0 0 0 0 0 0 0 0 0 0 0 0 0 0 0 0 0 0 0 0 0c0,0 1,0 1,0l0 0c0,0 0,0 0,0l0 0 0 0 0 0 0 0 0 0 0 0 0 0 0 0 0 0 0 0 0 0 0 0 0 0 0 0 0 0 0 0 0 0c0,0 0,0 0,0l0 0 0 0 0 0c0,0 0,0 0,0l0 0c0,0 0,0 0,0l0 0 0 0 0 0 0 0 0 0 0 0 0 0 0 0 0 0 0 0 0 0 0 0 0 0c0,0 0,0 0,0l0 0c0,0 0,0 0,0l0 0 0 0 0 0c0,0 0,0 0,0l0 0 0 0 0 0 0 0 0 0 0 0 0 0c0,0 0,0 0,0l0 0 0 0 0 0 0 0 0 0c0,0 0,0 0,0l0 0c0,0 0,0 0,0 0,0 0,0 0,0l0 0 0 0 0 0c0,0 0,0 0,0l0 0c0,0 0,0 0,0l0 0 0 0 0 0c0,0 0,0 0,0 0,-1 0,-1 1,-2 0,0 0,-1 0,-1 0,-1 0,-1 0,-2 0,0 0,0 0,0 0,0 0,0 0,0 0,0 0,0 0,0l0 0 0 0c0,0 0,0 0,0l0 0c0,0 0,0 0,0 0,0 0,-1 0,-1 0,0 1,0 1,0z"/>
     <path class="fil16" d="M66 59c1,0 2,1 2,2 0,0 0,0 0,1 0,0 0,0 -1,1l0 0c0,0 0,0 0,0l0 0c0,0 0,0 0,0l0 0 0 0 0 0c0,0 0,0 0,0l0 0c0,0 0,0 0,0l0 0c0,0 0,0 0,0l0 0c0,0 0,0 0,0l0 0c0,0 0,0 0,0l0 0 0 0c0,0 0,0 0,0l0 0c0,0 0,0 0,0l0 0c0,0 0,0 0,0l0 0 0 0 0 0c0,0 0,0 0,0l0 0c0,0 0,0 0,0l0 0c0,0 0,0 0,0l0 0 0 0 0 0 0 0 0 0 0 0 0 0 0 0 0 0 0 0 0 0 0 0 0 0c0,0 0,0 0,0l0 0 0 0 0 0 0 0 0 0 0 0c0,0 0,0 0,0l0 0 0 0 0 0 0 0 0 0 0 0 0 0c0,0 0,0 0,0l0 0c0,0 0,0 0,0l0 0 0 0 0 0c0,0 0,0 0,0l0 0 0 0 0 0 0 0 0 0 0 0c0,0 0,0 0,0l0 0 0 0 0 0c0,0 0,0 0,0l0 0c0,0 0,0 0,0l0 0c0,0 0,0 0,0l0 0 0 0 0 0c0,0 0,0 0,0l0 0c0,0 0,0 0,0l0 0c0,0 0,0 0,0l0 0c0,0 0,0 0,0l0 0 0 0 0 0c0,0 0,0 0,0l0 0 0 0 0 0c0,0 0,0 0,0l0 0c0,0 0,0 0,0l0 0c0,0 0,0 0,0l0 0c0,0 0,0 0,0 0,0 0,0 0,0l0 0 0 0 0 0 0 0 0 0c0,0 0,0 0,0l0 0c0,0 0,0 0,0 0,0 0,0 0,0l0 0c0,0 0,0 0,0l0 0c0,0 0,0 0,0l0 0c0,0 0,0 0,0l0 0c0,0 0,0 0,0l0 0 0 0 0 0c0,0 0,0 0,0l0 0c0,0 0,0 0,0l0 0c0,0 0,0 0,0l0 0c0,0 0,0 0,0l0 0 0 0 0 0c0,0 0,0 0,0l0 0c0,0 0,0 0,0l0 0c0,0 0,0 0,0l0 0c0,0 0,0 0,0l0 0c0,0 0,0 0,0l0 0 0 0 0 0c0,0 0,0 0,0l0 0c0,0 -1,0 -1,0l0 0c0,0 0,0 0,0 0,0 0,0 0,0l0 0c0,0 0,0 0,0l0 0c0,0 0,0 0,0l0 0 0 0 0 0 0 0 0 0 0 0 0 0c0,0 0,0 0,0l0 0c0,0 0,0 0,0l0 0 0 0 0 0 0 0c0,0 0,0 0,0l0 0c-1,1 -2,1 -3,2l0 0c0,0 0,0 0,0l0 0c0,0 0,0 0,0l0 0 0 0c0,0 0,0 0,0l0 0c0,0 0,0 0,0l0 0c0,0 0,0 0,0l0 0 0 0 0 0c0,0 0,0 0,0l0 0 0 0 0 0 0 0 0 0 0 0 0 0c0,0 0,0 0,0l0 0 0 0 0 0c0,0 0,0 0,0l0 0c0,0 0,0 0,0l0 0c0,0 0,0 0,0l0 0c0,0 0,0 0,0l0 0 0 0 0 0 0 0 0 0 0 0 0 0c0,0 0,0 0,0l0 0c0,0 0,0 0,0l0 0 0 0 0 0 0 0c0,0 0,0 0,0l0 0c0,0 0,0 0,0l0 0c0,0 0,0 0,0l0 0c0,0 0,0 0,0l0 0c0,0 0,0 0,0l0 0c0,0 0,0 0,0l0 0 0 0c0,0 0,0 0,0 0,0 0,0 0,0 0,0 0,0 0,0 0,0 0,0 0,0l0 0c0,0 0,0 0,0 0,0 0,0 0,0 0,0 0,0 0,0 0,0 0,0 0,0l0 0 0 0 0 0c0,0 0,0 0,0 -1,0 -1,0 -1,0l0 0 0 0c0,0 0,0 0,0l0 0c0,0 -1,0 -1,1 0,0 0,0 0,0 0,0 -1,0 -1,0 0,0 0,0 0,0 0,0 0,0 0,0 -1,0 -2,-1 -2,-2 -1,-1 0,-2 1,-2 0,0 0,0 0,0l0 0c0,0 0,0 0,0 0,0 0,0 0,0l1 0c0,0 1,-1 2,-1 1,0 2,-1 2,-1 1,-1 1,-1 2,-1z"/>
     <path class="fil15" d="M54 65c1,0 2,0 2,1 0,1 -1,1 -1,1l0 0 0 0 0 0 0 0 0 0 0 0c0,0 0,0 0,0l0 0c0,0 0,0 0,0l0 0c0,0 0,0 0,0l0 0c0,0 0,0 0,0l0 0c0,0 0,0 0,0l0 0 0 0 0 0 0 0 0 0 0 0 0 0c0,0 0,0 0,0l0 0c0,0 0,0 0,0l0 0c0,0 0,0 0,0l0 0c0,0 0,0 0,0l0 0c0,0 0,0 0,0l0 0 0 0 0 0 0 0 0 0c0,0 0,0 0,0l0 0c0,0 0,0 0,0l0 0 0 0 0 0c0,0 0,0 0,0l0 0c0,0 0,0 0,0l0 0 -1 0 0 0 0 0 0 0c0,0 0,0 0,0l0 0c0,0 0,0 0,0l0 0 0 0 0 0c0,1 -1,1 -2,1 0,0 0,0 0,0l0 0 0 0 0 0 0 0 0 0c0,0 0,0 0,0l0 0c0,0 0,0 0,0l0 0c0,0 0,0 0,0l0 0c0,0 0,0 0,0l0 0c0,0 0,0 0,0l0 0c0,0 0,0 0,0l0 0c0,0 0,0 0,0l0 0 0 0 0 0c0,0 0,0 0,0l0 0 0 0c0,0 0,0 0,0l0 0c0,0 0,0 0,0l0 0 0 0c0,0 0,0 0,0l0 0c0,0 0,0 0,0l0 0 0 0 0 0 0 0 0 0c0,0 0,0 0,0l0 0c0,0 0,0 0,0l0 0c0,0 0,0 0,0l0 0 0 0 0 0 0 0 0 0c0,0 0,0 0,0l0 0c0,0 0,0 0,0l0 0c0,0 0,0 0,0l0 0 0 0 0 0c0,0 0,0 0,0l0 0c0,0 -1,0 -1,0l0 0 0 0 0 0 0 0 0 0 0 0 0 0 0 0 0 0 0 0 0 0c0,0 0,0 0,0l0 0c0,0 0,0 0,0l0 0c0,0 0,0 0,0l0 0 0 0 0 0 0 0 0 0c0,0 0,0 0,0l0 0 0 0c0,0 0,0 0,0l0 0c0,0 0,0 0,0l0 0c0,0 0,0 0,0l0 0c0,0 0,0 0,0l0 0 0 0 0 0 0 0 0 0 0 0 0 0 0 0 0 0c0,0 0,0 0,0l0 0 0 0 0 0 0 0 0 0 0 0 0 0 0 0 0 0c0,0 0,0 0,0l0 0c0,0 0,0 0,0l0 0 0 0 0 0 0 0c0,0 0,0 0,0l0 0c0,0 0,0 0,0l0 0 0 0 0 0 0 0 0 0c0,0 0,0 0,0l0 0 0 0 0 0c0,0 0,0 0,0l0 0 0 0 0 0 0 0 0 0 0 0 0 0c0,0 0,0 0,0l0 0 0 0 0 0c0,0 0,0 0,0l0 0c0,0 0,0 0,0l0 0c0,0 0,0 0,0l0 0c0,0 0,0 0,0l0 0c0,0 0,0 0,0l0 0 0 0 0 0 0 0 0 0 0 0 0 0 0 0 0 0c0,0 0,0 0,0l0 0c0,0 0,0 0,0l0 0c0,0 0,0 0,0l0 0 0 0 0 0 0 0 0 0 0 0 0 0c0,0 0,0 0,0l0 0c0,0 0,0 0,0l0 0 0 0c0,0 -1,0 -1,0l0 0c0,0 0,0 0,0l0 0c0,0 0,0 0,0 0,0 0,0 0,0 0,0 0,0 0,0 0,0 0,0 0,0l0 0 0 0 0 0c0,0 0,0 0,0l0 0 0 0c0,0 0,0 0,0l0 0c0,0 0,0 0,0l0 0 0 0 0 0 0 0 0 0 0 0 0 0 0 0 0 0c0,0 0,0 0,0l0 0 0 0 0 0 0 0 0 0c0,0 0,0 0,0l0 0c0,0 0,0 0,0l0 0 0 0 0 0c0,0 0,0 0,0l0 0 0 0 0 0 -1 0 0 0c0,0 0,0 0,0l0 0c0,0 0,0 0,0l0 0 0 0 0 0c0,0 0,0 0,0l0 0 0 0 0 0c0,0 0,0 0,0l0 0c0,0 0,0 0,0l0 0c0,0 0,0 0,0l0 0 0 0c0,0 0,0 0,0l0 0 0 0 0 0c0,0 0,0 0,0l0 0 0 0 0 0c0,0 0,0 0,0l0 0 0 0 0 0 0 0 0 0 0 0 0 0 0 0 0 0 0 0 0 0c0,0 0,0 0,0l0 0 0 0 0 0 0 0 0 0c0,0 -1,0 -1,0 -1,0 -1,-1 -1,-1 0,-1 1,-1 1,-1 0,0 0,0 0,0 1,0 1,0 1,0 0,0 0,0 1,0 0,0 0,0 0,0 0,0 0,0 0,0 1,-1 3,-1 4,-1 0,0 0,0 0,0l0 0zm-16 -3c1,0 1,0 2,0 0,0 0,1 0,1 0,0 0,0 0,0 0,0 0,0 0,0 1,1 2,1 4,2 0,0 1,1 0,1 0,1 -1,1 -2,1 -1,0 -3,-1 -4,-2 0,0 0,0 0,0 0,0 0,0 0,0l0 0c0,0 0,0 0,0l0 0c0,0 0,0 0,0l0 0 0 0 0 0c0,0 0,0 0,0l0 0c0,0 0,0 0,0l0 0c0,0 0,0 0,0l0 0c0,-1 -1,-1 -1,-1l0 0c0,0 0,0 0,0l0 0c0,0 0,0 0,0l0 0 0 0c0,0 0,0 0,0l0 0c0,0 0,0 0,0l0 0 0 0 0 0 0 0 0 0 0 0 0 0 0 0 0 0c0,0 0,0 0,0l0 0 0 0 0 0c0,0 0,0 0,0l0 0c0,0 0,0 0,0l0 0c0,-1 0,-2 0,-2 1,0 1,0 1,0z"/>
     <path class="fil17" d="M63 55c0,-1 1,-1 2,-1 1,0 2,0 2,1 0,1 -1,2 -2,2 -1,0 -2,-1 -2,-2z"/>
     <path class="fil17" d="M60 55c0,0 1,0 1,0 0,1 0,1 0,1 0,1 -1,1 -1,0 0,0 0,0 0,-1z"/>
     <path class="fil17" d="M52 53c0,-1 1,-2 2,-2 2,0 3,1 3,2 0,0 -1,1 -3,1 -1,0 -2,-1 -2,-1z"/>
     <path class="fil17" d="M49 55c0,0 0,0 1,0 0,0 1,0 1,0 0,-1 -1,-1 -1,-1 -1,0 -1,0 -1,1z"/>
     <path class="fil17" d="M46 51c0,0 0,0 1,0 0,0 1,0 1,0 0,-1 -1,-1 -1,-1 -1,0 -1,0 -1,1z"/>
     <path class="fil17" d="M43 57c0,1 0,1 1,1 0,0 0,0 0,-1 0,0 0,0 0,0 -1,0 -1,0 -1,0z"/>
    </g>
    <g>
     <path class="fil18" d="M76 70c0,1 0,1 0,1 0,4 0,9 -2,9 -3,1 -7,-3 -7,-7l-5 -29c-1,-4 1,-9 4,-9 2,-1 4,4 5,8 0,0 0,0 0,0 0,1 1,2 1,3 0,1 0,3 -1,4 1,1 2,2 2,3 0,2 0,3 -1,4 1,1 2,2 3,4 0,1 -1,3 -1,4 1,1 2,2 2,3 0,1 0,2 0,2z"/>
     <path class="fil19" d="M71 43c0,0 0,0 0,0 0,0 0,1 0,1 0,0 0,0 0,0 -1,1 -2,1 -3,1 0,0 0,0 0,0 -1,0 -1,0 -1,0 0,-1 1,-1 1,-1 1,0 1,0 2,0 0,-1 1,-2 0,-3 1,1 1,2 1,2z"/>
     <path class="fil19" d="M69 52c-1,0 -1,0 -1,0 0,0 0,-1 0,-1 0,0 0,0 1,0 1,0 1,-1 2,-2 0,0 1,-1 1,-2 0,1 0,2 -1,3 0,0 1,0 1,0 -1,1 -2,2 -3,2z"/>
     <path class="fil19" d="M70 59c0,0 0,0 0,0 -1,0 -1,0 -1,0 0,-1 1,-1 1,-1 1,0 2,0 2,-1 1,-1 1,-1 1,-2 0,1 0,2 -1,2 1,0 1,1 1,1 -1,1 -2,1 -3,1z"/>
     <path class="fil19" d="M71 66c0,0 0,0 0,0 0,0 -1,0 -1,-1 1,0 1,0 1,0 1,0 2,0 3,-1 0,0 0,-1 1,-2 -1,1 -1,2 -1,3 0,0 0,0 0,0 0,1 -1,1 -3,1z"/>
     <path class="fil19" d="M73 73c0,0 0,0 -1,0 0,0 0,0 0,0 0,-1 0,-1 1,-1 1,0 2,0 3,-1 0,0 0,0 0,0 0,0 0,0 0,0 0,0 0,1 0,1 -1,1 -2,1 -3,1z"/>
    </g>
    <g>
     <path class="fil20" d="M18 66l-5 3 -1 -2c-1,-2 -3,-3 -5,-3l-1 0 9 -7 0 1c0,2 0,4 1,5l2 3z"/>
     <path class="fil9" d="M18 56c0,1 0,2 -1,2 0,0 -1,1 -2,0 0,1 0,1 0,1 -1,0 -2,1 -2,1 -1,0 -1,1 -2,1 0,1 -1,1 -2,1 0,1 -1,2 -1,2 0,0 -1,0 -1,0 0,1 0,2 -1,2 0,1 -1,1 -2,1 0,-1 -1,-1 -1,-1 -1,-1 -1,-2 -1,-3 0,-2 0,-3 1,-4 -1,-2 0,-4 1,-5 0,0 1,0 1,0 1,-1 1,-1 1,-2 2,-1 4,0 5,1 1,-1 3,-1 4,0 1,0 2,1 3,1 0,1 0,2 0,2z"/>
     <path class="fil6" d="M15 53c0,0 0,0 -1,0 0,0 0,1 -1,1 0,0 -1,1 -2,1 0,1 -1,1 -1,2 0,0 0,0 -1,0 -1,1 -1,2 -1,3 0,1 0,1 0,2 0,0 -1,1 -1,1 0,0 0,0 -1,0 0,1 0,2 -1,2 0,0 -1,1 -2,0 0,0 0,0 -1,0 0,0 0,0 1,1 0,0 1,0 1,1 1,0 2,0 2,-1 1,0 1,-1 1,-2 0,0 1,0 1,0 0,0 1,-1 1,-1 0,-1 0,-1 0,-1 1,0 2,0 2,-1 1,0 1,-1 2,-1 0,0 1,-1 2,-1 0,0 0,0 0,-1 1,1 2,0 2,0 1,0 1,-1 1,-2 0,0 0,-1 0,-2 -1,0 -2,-1 -3,-1z"/>
     <path class="fil21" d="M20 71l-6 -1 1 -3c0,-1 0,-3 -2,-5l-1 -1 13 2 -2 1c-1,1 -2,2 -3,4l0 3z"/>
     <path class="fil20" d="M12 61l1 1c1,1 1,2 1,2 1,0 1,0 2,0 1,0 1,1 2,1 1,0 2,0 2,0 0,0 0,0 0,0 0,0 0,1 0,2l-1 3 -5 -1 0 1 6 1 0 -3c1,-2 2,-3 3,-4l2 -1 -13 -2z"/>
     <path class="fil9" d="M27 65c-1,0 -1,0 -2,0 -1,0 -1,0 -2,-1 0,0 0,0 0,0 -1,0 -2,-1 -2,-1 -1,0 -2,0 -3,0 -1,0 -1,0 -2,-1 0,1 -1,1 -2,1 0,0 0,0 -1,-1 0,1 -1,1 -2,1 0,0 -1,0 -1,-1 -1,-1 -1,-1 -1,-2 0,-1 1,-2 2,-2 0,-1 2,-2 3,-3 1,-1 3,-2 4,-2 1,0 1,0 2,1 0,-1 1,-1 1,-1 2,1 3,2 3,4 2,0 3,2 3,3 1,1 1,2 1,3 0,1 -1,1 -1,2z"/>
     <path class="fil6" d="M27 62c0,0 0,1 -1,1 -1,1 -1,1 -2,1 -1,0 -1,-1 -2,-1 0,0 0,0 0,0 -1,0 -2,-1 -2,-1 -1,0 -2,0 -3,0 0,0 -1,0 -2,-1 0,0 -1,1 -2,0 0,0 0,0 -1,0 0,1 -1,1 -2,1 0,0 0,0 -1,-1 0,1 1,1 1,1 0,1 1,1 1,1 1,0 2,0 2,-1 0,1 1,1 1,1 1,0 2,0 2,-1 1,1 1,1 2,1 1,0 2,0 3,0 0,0 1,1 2,1 0,0 0,0 0,0 1,1 1,1 2,1 1,0 1,0 2,0 0,-1 1,-1 1,-2 0,-1 0,-2 -1,-2 0,0 0,0 0,1z"/>
    </g>
    <g>
     <path class="fil20" d="M20 88l-4 -4 1 -2c1,-1 1,-3 1,-5l-1 -2 11 7 -2 0c-2,1 -3,2 -4,3l-2 3z"/>
     <path class="fil9" d="M29 84c0,1 -1,0 -2,0 0,0 -1,-1 -1,-2 0,0 0,0 0,0 -1,0 -2,-1 -2,-2 -1,0 -1,0 -2,0 -1,-1 -1,-1 -2,-2 0,0 -1,0 -2,0 0,-1 0,-1 0,-1 -1,0 -2,0 -2,0 -1,-1 -1,-1 -1,-2 -1,0 -1,-1 0,-2 0,-1 1,-1 2,-1 1,-1 3,-1 4,-1 2,-1 4,-1 5,-1 0,1 1,1 1,2 1,0 1,0 1,0 2,1 3,3 2,4 1,1 1,3 1,5 0,0 0,1 0,2 -1,1 -1,1 -2,1z"/>
     <path class="fil6" d="M31 81c0,-1 0,-1 0,-1 0,-1 -1,-1 -2,-1 0,0 0,-1 -1,-1 -1,-1 -2,-1 -2,-1 -1,0 -1,0 -1,0 -1,-1 -2,-1 -3,-1 -1,0 -1,0 -2,1 0,0 -1,0 -1,-1 0,0 0,0 -1,0 0,0 -1,0 -2,0 0,-1 -1,-1 -1,-2 0,0 0,-1 0,-1 0,0 0,0 0,0 -1,1 -1,2 0,2 0,1 0,1 1,2 0,0 1,0 2,0 0,0 0,0 0,1 1,0 1,0 2,0 0,0 0,0 0,0 1,1 1,1 2,2 1,0 1,0 2,0 0,1 1,2 2,2 0,0 0,0 0,0 0,1 1,2 1,2 1,0 2,1 2,0 1,0 1,0 2,-1 0,-1 0,-2 0,-2z"/>
     <path class="fil21" d="M16 91l-1 -5 3 -1c1,0 3,-1 4,-3l1 -1 2 12 -1 -1c-2,-1 -3,-2 -5,-1l-3 0z"/>
     <path class="fil20" d="M23 81l-1 1c-1,1 -1,1 -2,2 1,0 1,1 1,1 0,1 0,2 0,2 0,1 1,2 1,2 0,0 0,0 0,1 -1,-1 -1,-1 -2,0l-3 0 -1 -4 -1 0 1 5 3 0c2,-1 3,0 5,1l1 1 -2 -12z"/>
     <path class="fil9" d="M25 95c-1,0 -1,0 -2,-1 0,-1 0,-1 1,-2 0,0 0,-1 0,-1 -1,-1 0,-1 0,-2 -1,-1 -1,-1 -1,-2 -1,-1 0,-2 0,-2 -1,-1 -1,-1 -1,-2 0,0 0,-1 0,-1 -1,0 -1,-1 -2,-2 0,0 0,-1 1,-1 0,-1 1,-1 1,-2 1,0 2,1 3,1 1,0 3,1 4,3 1,-1 3,1 3,2 0,1 0,1 0,2 1,0 1,1 1,1 0,2 -1,4 -2,4 0,2 -1,3 -3,4 0,1 -1,2 -1,2 -1,0 -2,0 -2,-1z"/>
     <path class="fil6" d="M27 95c0,0 -1,0 -2,-1 0,0 -1,-1 -1,-1 0,-1 0,-2 1,-2 0,-1 -1,-1 -1,-1 0,-1 0,-2 1,-2 -1,-1 -1,-1 -2,-2 0,-1 0,-2 1,-2 -1,-1 -1,-2 -2,-2 0,-1 0,-1 0,-1 0,-1 -1,-1 -1,-2 0,0 0,-1 0,-1 0,0 0,0 0,1 -1,0 -1,1 -1,1 1,1 1,2 2,2 0,0 0,1 0,1 0,1 0,1 1,2 0,0 -1,1 0,2 0,1 0,1 1,2 0,1 -1,1 0,2 0,0 0,1 0,1 -1,1 -1,1 -1,2 1,1 1,1 2,1 0,1 1,1 2,1 0,0 1,-1 1,-2 0,0 0,0 -1,1z"/>
    </g>
    <g>
     <path class="fil20" d="M20 97l-5 -3 2 -3c1,-1 1,-3 1,-5l-1 -1 11 6 -2 1c-2,0 -3,1 -4,3l-2 2z"/>
     <path class="fil9" d="M29 94c-1,0 -1,0 -2,-1 0,0 -1,-1 -1,-1 0,0 0,0 -1,-1 0,0 -1,-1 -1,-1 -1,0 -2,0 -2,-1 -1,0 -1,-1 -2,-2 0,0 -1,0 -2,0 0,0 0,0 -1,-1 0,1 -1,0 -1,0 -1,0 -1,-1 -2,-1 0,-1 0,-2 1,-2 0,-1 1,-2 2,-2 1,-1 3,-1 4,-1 1,-1 3,-1 5,0 0,0 1,0 1,1 0,0 1,0 1,0 2,1 2,3 2,5 1,1 1,2 1,4 0,1 0,2 0,3 -1,0 -1,1 -2,1z"/>
     <path class="fil6" d="M31 90c0,0 0,-1 0,-1 -1,0 -1,0 -2,-1 0,0 -1,-1 -1,-1 -1,0 -2,-1 -3,-1 0,0 0,0 0,0 -1,-1 -2,-1 -3,-1 -1,0 -1,1 -2,1 0,0 -1,0 -1,0 0,-1 -1,-1 -1,-1 0,0 -1,0 -2,0 0,0 -1,-1 -1,-2 0,0 0,-1 0,-1 0,0 0,0 0,1 -1,0 -1,1 -1,2 1,0 1,1 2,1 0,0 1,1 1,0 1,1 1,1 1,1 1,0 1,0 2,0 0,0 0,0 0,0 1,1 1,2 2,2 0,1 1,1 2,1 0,0 1,1 1,1 1,1 1,1 1,1 0,0 1,1 1,1 1,1 1,1 2,1 1,0 1,-1 2,-1 0,-1 0,-2 0,-3z"/>
     <path class="fil21" d="M16 101l-1 -6 2 0c2,-1 4,-2 5,-3l1 -2 2 12 -1 -1c-2,-1 -3,-1 -5,-1l-3 1z"/>
     <path class="fil20" d="M23 90l-1 2c-1,0 -1,1 -2,1 1,1 1,1 1,1 0,1 0,2 0,3 0,0 1,1 1,2 0,0 0,0 0,0 -1,0 -2,0 -2,0l-3 1 -1 -5 -1 0 1 6 3 -1c2,0 3,0 5,1l1 1 -2 -12z"/>
     <path class="fil9" d="M24 105c0,-1 0,-1 -1,-2 0,0 0,-1 1,-2 0,0 0,0 0,0 -1,-1 -1,-2 0,-3 -1,0 -1,-1 -1,-2 -1,0 -1,-1 0,-2 -1,0 -1,-1 -1,-2 0,0 0,0 0,-1 -1,0 -2,-1 -2,-1 0,-1 0,-2 1,-2 0,-1 1,-1 1,-1 1,0 2,0 3,1 1,0 3,0 3,2 2,0 4,1 4,3 0,0 0,1 0,1 0,1 1,1 1,1 0,2 -1,4 -2,5 0,1 -1,3 -3,3 0,1 -1,2 -2,2 0,0 -1,0 -2,0z"/>
     <path class="fil6" d="M27 104c0,0 -1,0 -2,0 0,-1 -1,-1 -1,-2 0,-1 0,-1 1,-2 -1,0 -1,0 -1,-1 0,0 0,-1 1,-2 -1,0 -2,-1 -2,-2 0,-1 0,-1 1,-2 -1,-1 -1,-1 -2,-2 0,0 0,-1 0,-1 0,0 -1,-1 -1,-1 0,-1 0,-1 0,-2 0,0 0,1 0,1 -1,0 -1,1 -1,2 0,0 1,1 2,1 0,1 0,1 0,1 0,1 0,2 1,2 -1,1 -1,2 0,2 0,1 0,2 1,2 -1,1 -1,2 0,3 0,0 0,0 0,0 -1,1 -1,2 -1,2 1,1 1,1 1,2 1,0 2,0 2,0 1,0 2,-1 2,-2 0,1 0,1 -1,1z"/>
    </g>
    <g>
     <path class="fil22" d="M60 68l0 5c0,1 0,1 1,1l1 0c1,0 1,0 1,-1l0 -5c2,0 3,-1 3,-2 -1,-1 -2,-2 -3,-2 0,0 -1,0 -1,0 0,0 -1,0 -1,0 0,0 -1,0 -1,0 -2,0 -3,1 -3,2 0,1 1,2 3,2z"/>
     <path class="fil23" d="M66 66c-1,-1 -1,-2 -2,-2 0,0 0,1 1,1 0,1 -1,2 -2,2 -1,0 -1,1 -1,1l0 5c0,0 0,1 -1,1l-1 0c0,0 0,0 0,0 0,0 0,0 1,0l1 0c1,0 1,0 1,-1l0 -5c2,0 3,-1 3,-2z"/>
     <path class="fil24" d="M69 84c0,4 -3,7 -8,7 -4,0 -7,-3 -7,-7 0,-5 3,-12 7,-12 5,0 8,7 8,12z"/>
     <path class="fil25" d="M63 72c2,3 3,6 3,8 0,5 -4,8 -8,8 -1,0 -2,0 -3,-1 1,3 4,4 6,4 5,0 8,-3 8,-7 0,-4 -2,-10 -6,-12z"/>
     <path class="fil26" d="M57 83c-3,-1 -5,-3 -7,-5 -1,-3 -5,-4 -8,-4 -5,0 -9,3 -10,8 0,0 0,0 0,0 0,2 -1,3 -3,4 -3,1 -5,5 -5,8l0 0c0,0 0,0 0,0 0,5 5,9 10,9 1,0 2,0 3,0 2,-1 4,-1 6,-1l0 0c2,0 4,0 6,1 1,0 2,0 4,0 5,0 10,-4 10,-10 0,-4 -2,-8 -6,-10 0,0 0,0 0,0z"/>
     <path class="fil27" d="M58 83c0,2 1,4 1,6 0,6 -5,10 -11,10 -1,0 -2,0 -4,0 -1,-1 -3,-2 -5,-2l0 0c-2,0 -4,1 -6,2 -1,0 -2,0 -4,0 -1,0 -3,0 -4,-1 2,3 5,5 9,5 1,0 2,0 3,0 2,-1 4,-1 6,-1l0 0c2,0 4,0 6,1 1,0 2,0 4,0 5,0 10,-4 10,-10 0,-4 -2,-8 -5,-10z"/>
     <path class="fil28" d="M49 92l-3 0c-1,0 -2,-1 -2,-2 0,-1 -1,-2 -2,-3l-1 -1c2,0 4,-2 4,-4 0,-1 -1,-2 -1,-3 0,0 -1,0 -1,0 0,0 0,1 0,1 0,0 0,1 0,2 0,1 -1,3 -3,3l-2 -2c0,0 0,0 -1,0 0,0 0,1 0,1l4 4c1,1 1,1 1,2 0,2 2,4 4,4l3 0c1,0 1,-1 1,-1 0,0 0,-1 -1,-1z"/>
     <path class="fil28" d="M32 92l-2 0c0,0 0,0 0,-1 0,0 0,0 0,0l2 0c1,0 2,-1 3,-1l2 -1c0,0 0,0 1,0 0,0 0,1 0,1l-2 1c-1,1 -2,1 -4,1z"/>
     <path class="fil22" d="M56 93c0,2 -2,3 -4,3 -2,0 -4,-1 -4,-3 0,-2 2,-4 4,-4 2,0 4,2 4,4z"/>
     <path class="fil23" d="M54 89c0,1 0,1 0,2 0,2 -2,4 -4,4 0,0 -1,-1 -1,-1 0,2 2,2 3,2 2,0 4,-1 4,-3 0,-2 -1,-3 -2,-4z"/>
    </g>
    <g>
     <polygon class="fil29" points="58,67 80,67 80,72 2,72 2,67 24,67 "/>
     <path class="fil29" d="M64 96c0,2 -1,3 -3,3 -1,0 -3,-1 -3,-3l0 -16c0,-1 2,-2 3,-2 2,0 3,1 3,2l0 16zm-14 0c0,2 -1,3 -2,3 -2,0 -3,-1 -3,-3l0 -16c0,-1 1,-2 3,-2 1,0 2,1 2,2l0 16zm-13 0c0,2 -1,3 -3,3 -1,0 -2,-1 -2,-3l0 -16c0,-1 1,-2 2,-2 2,0 3,1 3,2l0 16zm-13 0c0,2 -2,3 -3,3 -2,0 -3,-1 -3,-3l0 -16c0,-1 1,-2 3,-2 1,0 3,1 3,2l0 16zm-18 -24l7 31c1,2 3,4 6,4l45 0c2,0 4,-2 5,-4l7 -31 -70 0z"/>
     <polygon class="fil30" points="75,76 76,72 6,72 7,76 "/>
    </g>
   </g>
  </g>
 </g>
</svg>
