<?xml version="1.0" encoding="UTF-8"?>
<!DOCTYPE svg PUBLIC "-//W3C//DTD SVG 1.1//EN" "http://www.w3.org/Graphics/SVG/1.1/DTD/svg11.dtd">
<!-- Creator: CorelDRAW X7 -->
<svg xmlns="http://www.w3.org/2000/svg" xml:space="preserve" width="48px" height="42px" version="1.1" style="shape-rendering:geometricPrecision; text-rendering:geometricPrecision; image-rendering:optimizeQuality; fill-rule:evenodd; clip-rule:evenodd"
viewBox="0 0 48 42"
 xmlns:xlink="http://www.w3.org/1999/xlink">
 <defs>
  <style type="text/css">
   <![CDATA[
    .fil0 {fill:#FEFEFE}
    .fil5 {fill:#00A859}
    .fil2 {fill:#2887D2}
    .fil6 {fill:#FFF212;fill-rule:nonzero}
    .fil1 {fill:#0098DA;fill-rule:nonzero}
    .fil3 {fill:#2887D2;fill-rule:nonzero}
    .fil4 {fill:#FC4D44;fill-rule:nonzero}
   ]]>
  </style>
 </defs>
 <g id="Layer_x0020_1">
  <metadata id="CorelCorpID_0Corel-Layer"/>
  <g id="_461244048">
   <g>
    <g>
     <g>
      <path class="fil0" d="M13 4l0 31c0,0 22,0 22,1 0,0 0,-26 0,-26l-3 -5 -1 -1c0,0 -18,0 -18,0z"/>
      <path id="1" class="fil1" d="M12 35l0 -31 1 0 0 31 0 1 -1 -1zm1 1l-1 0 0 -1 1 1zm23 0l-1 0 0 0 0 0 0 0 0 0 -1 0 0 0 -1 0 -1 0 0 0 -1 0 -1 0 -1 0 -1 0 -1 0 -1 0 -1 0 -1 0 -1 0 -1 0 -1 0 -1 0 -1 0 -1 0 -1 0 -1 0 0 0 -1 0 -1 0 0 0 -1 0 0 0 0 0 0 0 0 -1 0 0 0 0 0 0 1 0 0 0 1 0 1 0 0 0 1 0 1 0 1 0 1 0 1 0 1 0 1 0 1 0 1 0 1 0 1 0 1 0 1 0 1 0 1 0 1 0 1 0 0 0 1 0 0 0 1 0 0 0 0 0 1 1 0 0zm-1 -25l1 -1 0 0 0 0 0 1 0 0 0 0 0 1 0 1 0 0 0 1 0 1 0 1 0 1 0 1 0 2 0 1 0 1 0 1 0 1 0 2 0 1 0 1 0 1 0 1 0 1 0 1 0 1 0 0 0 1 0 1 0 0 0 0 0 1 -1 0 1 0 -1 0 0 -1 0 0 0 0 0 -1 0 -1 0 0 0 -1 0 -1 0 -1 0 -1 0 -1 0 -1 0 -1 0 -2 0 -1 0 -1 0 -1 0 -1 0 -2 0 -1 0 -1 0 -1 0 -1 0 -1 0 0 0 -1 0 -1 0 0 0 0 0 -1 0 0 0 1zm-3 -7l4 6 -1 1 -4 -6 1 -1 0 0zm0 0l0 0 0 0 0 0zm0 0l0 0 -1 1 0 0 0 -1 1 0zm-1 0l1 0 0 0 -1 0zm-18 0l-1 0 0 0 1 0 0 0 0 0 1 0 0 0 1 0 0 0 1 0 0 0 1 0 1 0 1 0 1 0 0 0 1 0 1 0 1 0 1 0 1 0 0 0 1 0 1 0 1 0 0 0 1 0 1 0 0 0 1 0 0 0 0 0 0 0 0 0 0 1 0 0 0 0 0 0 0 0 -1 0 0 0 -1 0 -1 0 0 0 -1 0 -1 0 -1 0 0 0 -1 0 -1 0 -1 0 -1 0 -1 0 0 0 -1 0 -1 0 -1 0 -1 0 0 0 -1 0 0 0 -1 0 0 0 -1 0 0 0 0 0 0 -1 0 0z"/>
     </g>
     <path class="fil2" d="M31 5l0 4c0,0 0,1 1,1 0,0 3,0 3,0l-4 -6 0 1z"/>
     <g>
      <g>
       <polygon class="fil3" points="32,9 16,9 16,8 32,8 "/>
      </g>
      <g>
       <polygon class="fil3" points="24,28 24,9 24,9 24,28 "/>
      </g>
      <rect class="fil2" x="25" y="11" width="6.55676" height="0.935594"/>
      <rect class="fil2" x="25" y="13" width="6.55676" height="0.935594"/>
      <rect class="fil2" x="25" y="16" width="6.55676" height="0.935594"/>
      <rect class="fil2" x="16" y="19" width="6.55676" height="0.935594"/>
      <rect class="fil2" x="25" y="19" width="6.55676" height="0.935594"/>
      <rect class="fil2" x="16" y="11" width="6.55676" height="0.935594"/>
      <rect class="fil2" x="16" y="13" width="6.55676" height="0.935594"/>
      <rect class="fil2" x="16" y="16" width="6.55676" height="0.935594"/>
      <rect class="fil2" x="16" y="21" width="6.55676" height="0.935594"/>
      <rect class="fil2" x="25" y="21" width="6.55676" height="0.935594"/>
      <rect class="fil2" x="16" y="24" width="6.55676" height="0.935594"/>
      <rect class="fil2" x="25" y="24" width="6.55676" height="0.935594"/>
      <rect class="fil2" x="16" y="26" width="6.55676" height="0.935594"/>
      <rect class="fil2" x="25" y="26" width="6.55676" height="0.935594"/>
     </g>
    </g>
    <path class="fil4" d="M40 41l0 -18 -3 0 5 -5 6 5 -3 0 0 18 -5 0zm0 -9m-2 -9m2 -2m5 0m2 2m-2 9m-3 9"/>
    <path class="fil3" d="M8 0l0 18 3 0 -5 5 -6 -5 3 0 0 -18 5 0zm0 9m2 9m-2 2m-5 0m-2 -2m2 -9m3 -9"/>
   </g>
   <g>
    <circle class="fil5" cx="13" cy="33" r="9"/>
    <path class="fil6" d="M15 36c0,-1 0,-1 0,-1 -1,0 -1,-1 -2,-1 0,0 -1,0 -1,0 0,-1 -1,-1 -1,-1 0,0 0,-1 -1,-1 0,0 0,-1 0,-1 0,-1 0,-2 1,-2 1,-1 1,-1 2,-1l0 -2 1 0 0 2c1,0 2,0 2,1 1,1 1,1 1,2l-2 0c0,0 0,-1 0,-1 -1,0 -1,0 -1,0 -1,0 -1,0 -1,0 -1,0 -1,0 -1,1 0,0 0,0 1,1 0,0 0,0 1,0 0,1 1,1 1,1 1,0 1,0 1,1 1,0 1,0 1,1 0,0 0,0 0,1 0,1 0,1 -1,2 0,0 -1,1 -2,1l0 1 -1 0 0 -1c-1,0 -2,-1 -2,-1 -1,-1 -1,-2 -1,-3l2 0c0,1 0,1 0,2 1,0 1,0 2,0 0,0 0,0 1,0 0,0 0,-1 0,-1z"/>
   </g>
  </g>
 </g>
</svg>
