<?xml version="1.0" encoding="UTF-8"?>
<!DOCTYPE svg PUBLIC "-//W3C//DTD SVG 1.1//EN" "http://www.w3.org/Graphics/SVG/1.1/DTD/svg11.dtd">
<!-- Creator: CorelDRAW X7 -->
<svg xmlns="http://www.w3.org/2000/svg" xml:space="preserve" width="48px" height="33px" version="1.1" style="shape-rendering:geometricPrecision; text-rendering:geometricPrecision; image-rendering:optimizeQuality; fill-rule:evenodd; clip-rule:evenodd"
viewBox="0 0 48 33"
 xmlns:xlink="http://www.w3.org/1999/xlink">
 <defs>
  <style type="text/css">
   <![CDATA[
    .fil0 {fill:#FEFEFE}
    .fil4 {fill:#00A859}
    .fil2 {fill:#2887D2}
    .fil6 {fill:#FC4D44}
    .fil5 {fill:#FFF212;fill-rule:nonzero}
    .fil1 {fill:#0098DA;fill-rule:nonzero}
    .fil3 {fill:#2887D2;fill-rule:nonzero}
   ]]>
  </style>
 </defs>
 <g id="Layer_x0020_1">
  <metadata id="CorelCorpID_0Corel-Layer"/>
  <g id="_461243064">
   <g>
    <g>
     <g>
      <path class="fil0" d="M13 1l0 30c0,0 22,0 22,0 0,1 0,-24 0,-24l-4 -6 0 0c0,0 -18,0 -18,0z"/>
      <path id="1" class="fil1" d="M12 31l0 -30 1 0 0 30 0 1 -1 -1zm1 1l-1 0 0 -1 1 1zm22 -1l-1 0 0 0 0 1 0 0 0 0 0 0 -1 0 0 0 -1 0 -1 0 -1 0 0 0 -1 0 -1 0 -1 0 -1 0 -1 0 -1 0 -1 0 -1 0 -1 0 -1 0 -1 0 -1 0 -1 0 -1 0 -1 0 0 0 -1 0 0 0 -1 0 0 0 0 0 0 0 0 -1 0 0 0 -1 0 0 1 0 0 0 1 0 0 0 1 0 1 0 1 0 1 0 1 0 1 0 1 0 1 0 1 0 1 0 1 0 1 0 1 0 1 0 1 0 0 0 1 0 1 0 1 0 0 0 1 0 0 0 0 0 1 1 0 0 0 0zm-1 -24l1 -1 0 1 0 0 0 0 0 0 0 1 0 0 0 1 0 1 0 1 0 1 0 1 0 1 0 1 0 1 0 1 0 1 0 1 0 1 0 2 0 1 0 1 0 1 0 1 0 1 0 1 0 1 0 0 0 1 0 1 0 0 0 0 0 0 -1 0 1 0 -1 0 0 0 0 0 0 0 0 -1 0 -1 0 0 0 -1 0 -1 0 -1 0 -1 0 -1 0 -1 0 -1 0 -2 0 -1 0 -1 0 -1 0 -1 0 -1 0 -1 0 -1 0 -1 0 -1 0 -1 0 -1 0 -1 0 0 0 -1 0 0 0 0 0 0 0 0zm-3 -6l4 5 -1 1 -3 -5 0 -1 0 0zm0 0l0 0 0 0 0 0zm0 -1l0 1 0 1 -1 -1 1 -1 0 0zm0 0l0 0 0 0 0 0zm-18 1l-1 0 0 0 1 -1 0 0 0 0 1 0 0 0 0 0 1 0 1 0 0 0 1 0 1 0 0 0 1 0 1 0 1 0 1 0 1 0 0 0 1 0 1 0 1 0 1 0 0 0 1 0 1 0 0 0 1 0 0 0 0 0 1 0 0 0 0 0 0 2 0 0 0 0 -1 0 0 0 0 0 -1 0 0 0 -1 0 -1 0 0 0 -1 0 -1 0 -1 0 -1 0 0 0 -1 0 -1 0 -1 0 -1 0 -1 0 0 0 -1 0 -1 0 0 0 -1 0 -1 0 0 0 0 0 -1 0 0 0 0 0 0 -1 0 0z"/>
     </g>
     <path class="fil2" d="M31 1l0 4c0,0 -1,1 0,2 1,0 4,0 4,0l-4 -6 0 0z"/>
     <g>
      <g>
       <polygon class="fil3" points="31,5 16,5 16,5 31,5 "/>
      </g>
      <g>
       <polygon class="fil3" points="23,24 23,5 24,5 24,24 "/>
      </g>
      <rect class="fil2" x="25" y="7" width="6.40351" height="0.913739"/>
      <rect class="fil2" x="25" y="10" width="6.40351" height="0.913739"/>
      <rect class="fil2" x="25" y="12" width="6.40351" height="0.913739"/>
      <rect class="fil2" x="16" y="15" width="6.40351" height="0.913739"/>
      <rect class="fil2" x="25" y="15" width="6.40351" height="0.913739"/>
      <rect class="fil2" x="16" y="7" width="6.40351" height="0.913739"/>
      <rect class="fil2" x="16" y="10" width="6.40351" height="0.913739"/>
      <rect class="fil2" x="16" y="12" width="6.40351" height="0.913739"/>
      <rect class="fil2" x="16" y="17" width="6.40351" height="0.913739"/>
      <rect class="fil2" x="25" y="17" width="6.40351" height="0.913739"/>
      <rect class="fil2" x="16" y="20" width="6.40351" height="0.913739"/>
      <rect class="fil2" x="25" y="20" width="6.40351" height="0.913739"/>
      <rect class="fil2" x="16" y="22" width="6.40351" height="0.913739"/>
      <rect class="fil2" x="25" y="22" width="6.40351" height="0.913739"/>
     </g>
    </g>
    <g>
     <circle class="fil4" cx="24" cy="25" r="8"/>
     <path class="fil5" d="M25 27c0,0 0,0 0,-1 0,0 -1,0 -1,0 -1,0 -1,-1 -2,-1 0,0 0,0 0,0 -1,-1 -1,-1 -1,-1 0,-1 0,-1 0,-1 0,-1 0,-2 0,-2 1,-1 2,-1 2,-1l0 -2 2 0 0 2c0,0 1,0 2,1 0,0 0,1 0,2l-2 0c0,-1 0,-1 0,-1 0,-1 -1,-1 -1,-1 0,0 -1,0 -1,1 0,0 0,0 0,1 0,0 0,0 0,0 0,1 1,1 1,1 1,0 1,0 2,1 0,0 0,0 0,0 1,1 1,1 1,1 0,1 0,1 0,1 0,1 0,2 -1,2 0,1 -1,1 -2,1l0 2 -1 0 0 -2c-1,0 -1,0 -2,-1 0,0 -1,-1 -1,-2l2 0c0,0 0,1 1,1 0,0 0,1 1,1 0,0 1,-1 1,-1 0,0 0,0 0,-1z"/>
    </g>
   </g>
   <path class="fil6" d="M40 14c0,4 0,7 -1,9 -2,-1 -2,-1 -4,-2l4 9c4,-1 6,-2 9,-4l0 0c-2,0 0,0 -3,0 2,-7 3,-11 -3,-18 -1,-2 -5,-6 -8,-6 1,1 1,1 2,2 3,3 4,6 4,10z"/>
   <path class="fil6" d="M6 17c0,-3 1,-6 2,-9 3,2 2,2 4,3l-2 -10c-5,1 -6,2 -10,3l0 0c2,0 1,0 3,1 -3,6 -5,10 -1,18 1,2 5,6 7,8 0,-2 -1,-2 -1,-3 -2,-3 -3,-7 -2,-11z"/>
  </g>
 </g>
</svg>
