<?xml version="1.0" encoding="UTF-8"?>
<!DOCTYPE svg PUBLIC "-//W3C//DTD SVG 1.1//EN" "http://www.w3.org/Graphics/SVG/1.1/DTD/svg11.dtd">
<!-- Creator: CorelDRAW X7 -->
<svg xmlns="http://www.w3.org/2000/svg" xml:space="preserve" width="48px" height="43px" version="1.1" style="shape-rendering:geometricPrecision; text-rendering:geometricPrecision; image-rendering:optimizeQuality; fill-rule:evenodd; clip-rule:evenodd"
viewBox="0 0 48 43"
 xmlns:xlink="http://www.w3.org/1999/xlink">
 <defs>
  <style type="text/css">
   <![CDATA[
    .fil0 {fill:#FEFEFE}
    .fil4 {fill:#ED3237}
    .fil6 {fill:#00A859}
    .fil5 {fill:#0063D4}
    .fil2 {fill:#2887D2}
    .fil7 {fill:#FFF212;fill-rule:nonzero}
    .fil1 {fill:#0098DA;fill-rule:nonzero}
    .fil3 {fill:#2887D2;fill-rule:nonzero}
   ]]>
  </style>
 </defs>
 <g id="Layer_x0020_1">
  <metadata id="CorelCorpID_0Corel-Layer"/>
  <g id="_306936856">
   <g>
    <g>
     <g>
      <g>
       <path class="fil0" d="M11 32l25 0c0,0 -1,-26 0,-26 0,0 -20,0 -20,0l-5 4 0 0c0,0 0,22 0,22z"/>
       <path id="1" class="fil1" d="M36 33l-25 0 0 -2 25 0 0 1 0 1zm0 -1l0 1 0 0 0 -1zm0 -27l0 2 0 0 0 -1 0 0 0 1 0 0 0 1 0 0 0 1 0 1 0 1 0 1 0 1 0 1 0 1 0 1 0 2 0 1 0 1 0 1 0 2 0 1 0 1 0 1 0 1 0 1 0 1 0 0 0 1 0 1 0 0 0 1 0 0 0 0 -1 0 0 0 0 0 0 -1 0 0 0 -1 0 0 0 -1 0 -1 0 -1 0 -1 0 -1 0 -1 0 -1 0 -2 0 -1 0 -1 0 -1 0 -2 0 -1 0 -1 0 -1 0 -1 0 -1 0 -1 0 -1 0 -1 0 0 0 -1 0 -1 0 0 0 0 1 -1 0 0zm-20 1l-1 -1 1 0 0 0 0 0 0 0 1 0 0 0 1 0 0 0 1 0 1 0 1 0 0 0 1 0 1 0 1 0 1 0 1 0 1 0 1 0 1 0 1 0 0 0 1 0 1 0 1 0 0 0 1 0 1 0 0 0 0 0 1 0 0 0 0 2 0 -2 0 2 0 0 -1 0 0 0 0 0 -1 0 -1 0 0 0 -1 0 -1 0 -1 0 0 0 -1 0 -1 0 -1 0 -1 0 -1 0 -1 0 -1 0 -1 0 -1 0 0 0 -1 0 -1 0 -1 0 0 0 -1 0 0 0 -1 0 0 0 0 0 0 0 0 -1zm-5 4l4 -5 1 1 -4 5 -1 -1 0 0zm0 0l0 0 0 0 0 0zm0 0l0 0 1 1 -1 0 0 -1 0 0zm0 0l0 0 0 0 0 0zm0 21l0 2 0 0 0 -1 0 0 0 -1 0 0 0 0 0 -1 0 -1 -1 0 0 -1 0 -1 0 -1 0 -1 0 -1 0 -1 0 -1 0 -1 0 -1 0 -1 0 -1 0 -1 1 -1 0 -1 0 0 0 -1 0 -1 0 -1 0 0 0 -1 0 0 0 0 0 0 0 -1 1 0 0 1 0 0 0 0 0 0 0 1 0 0 0 1 0 1 0 1 0 0 0 1 0 1 0 1 0 1 0 1 0 1 0 1 0 1 0 1 0 1 0 1 0 1 0 1 0 1 0 0 0 1 0 0 0 1 0 0 0 1 0 0 -1 -1 0 0z"/>
      </g>
      <path class="fil2" d="M11 10l4 1c0,0 1,0 1,-1 0,-1 0,-4 0,-4l-5 4 0 0z"/>
     </g>
     <g>
      <g>
       <path class="fil0" d="M13 35l24 0c0,0 0,-26 0,-26 1,0 -19,0 -19,0l-5 5 0 0c0,0 0,21 0,21z"/>
       <path id="1" class="fil1" d="M37 36l-24 0 0 -1 24 0 1 0 -1 1zm1 -1l0 1 -1 0 1 -1zm-1 -26l0 1 0 0 1 0 0 0 0 0 0 1 0 0 0 1 0 1 0 0 0 1 0 1 0 1 0 2 0 1 0 1 0 1 0 1 0 2 0 1 0 1 0 1 0 1 0 1 0 1 0 1 0 1 0 1 0 1 0 0 0 1 0 0 0 0 0 0 -1 0 0 0 0 0 0 0 0 -1 0 0 0 -1 0 -1 0 -1 0 -1 0 -1 0 -1 0 -1 0 -1 0 -1 0 -1 0 -2 0 -1 0 -1 0 -1 0 -1 0 -2 0 -1 0 -1 0 -1 0 0 0 -1 0 -1 0 -1 0 0 0 0 0 -1 0 0 0 0zm-19 1l-1 -1 1 0 0 0 0 0 0 0 0 0 1 0 0 0 1 0 1 0 0 0 1 0 1 0 1 0 1 0 1 0 1 0 1 0 1 0 1 0 0 0 1 0 1 0 1 0 1 0 1 0 0 0 1 0 0 0 1 0 0 0 0 0 0 0 0 1 0 -1 0 1 0 0 0 0 0 0 -1 0 0 0 -1 0 0 0 -1 0 -1 0 -1 0 -1 0 -1 0 0 0 -1 0 -1 0 -1 0 -1 0 -1 0 -1 0 -1 0 -1 0 -1 0 0 0 -1 0 -1 0 0 0 -1 0 0 0 0 0 0 0 0 0 0 0zm-5 3l4 -4 1 1 -5 4 0 -1 0 0zm0 0l0 0 0 0 0 0zm-1 0l1 0 0 1 0 0 -1 0 0 -1zm0 1l0 0 0 -1 0 1zm1 21l0 1 0 0 -1 -1 0 0 0 0 0 -1 0 0 0 -1 0 0 0 -1 0 -1 0 -1 0 -1 0 0 0 -1 0 -1 0 -1 0 -1 0 -1 0 -1 0 -1 0 -1 0 -1 0 -1 0 -1 0 -1 0 0 0 -1 0 -1 0 0 0 -1 0 0 0 0 0 0 1 0 0 0 0 0 0 0 0 1 0 0 0 1 0 1 0 0 0 1 0 1 0 1 0 1 0 1 0 1 0 1 0 1 0 1 0 1 0 1 0 1 0 0 0 1 0 1 0 1 0 1 0 0 0 1 0 0 0 1 0 0 0 0 0 0 0 0z"/>
      </g>
      <path class="fil2" d="M13 14l3 0c0,0 1,0 1,-1 1,0 0,-4 0,-4l-4 5 0 0z"/>
     </g>
    </g>
    <g id="_306937576">
     <g>
      <polygon class="fil3" points="35,15 17,15 17,14 35,14 "/>
     </g>
     <g>
      <polygon class="fil3" points="26,30 26,15 26,15 26,30 "/>
     </g>
     <rect class="fil2" x="27" y="17" width="7.34292" height="0.937657"/>
     <rect class="fil2" x="27" y="19" width="7.34292" height="0.937657"/>
     <rect class="fil2" x="27" y="22" width="7.34292" height="0.937657"/>
     <rect class="fil2" x="17" y="24" width="7.34292" height="0.937657"/>
     <rect class="fil2" x="27" y="24" width="7.34292" height="0.937657"/>
     <rect class="fil2" x="17" y="17" width="7.34292" height="0.937657"/>
     <rect class="fil2" x="17" y="19" width="7.34292" height="0.937657"/>
     <rect class="fil2" x="17" y="22" width="7.34292" height="0.937657"/>
     <rect class="fil2" x="17" y="27" width="7.34292" height="0.937657"/>
     <rect class="fil2" x="27" y="27" width="7.34292" height="0.937657"/>
    </g>
   </g>
   <g>
    <path class="fil4" d="M21 3l-9 0 0 0c-4,0 -6,2 -6,5l0 1 0 11 1 -1c1,-1 2,-1 2,0l0 0c0,0 0,1 0,1l-3 4c-1,0 -1,0 -1,0 -1,0 -1,0 -1,0l-4 -4c0,0 0,-1 0,-1l0 0c1,-1 2,-1 2,0l1 1 0 -12c0,0 0,-1 0,-2 1,-1 1,-2 2,-3 1,-1 2,-2 4,-3 0,0 1,0 1,0 0,0 0,0 0,0l0 0c1,0 2,0 2,0l9 0c0,0 1,1 1,1l0 0c0,1 -1,2 -1,2z"/>
    <path class="fil5" d="M27 40l9 0 0 0c4,0 6,-2 6,-6l0 0 0 -12 -1 2c-1,0 -2,0 -2,0l0 0c0,-1 0,-2 0,-2l3 -3c1,-1 1,-1 1,-1 1,0 1,0 1,1l4 3c0,0 0,1 0,2l0 0c-1,0 -2,0 -2,0l-1 -2 0 12c0,0 0,1 0,2 -1,1 -1,2 -2,3 -1,2 -2,2 -4,3 0,0 -1,0 -1,0 0,0 0,0 0,0l0 0c-1,0 -2,0 -2,0l-9 0c0,0 -1,0 -1,-1l0 0c0,-1 1,-1 1,-1z"/>
   </g>
   <g>
    <circle class="fil6" cx="13" cy="34" r="9"/>
    <path class="fil7" d="M14 37c0,0 0,-1 0,-1 0,0 -1,-1 -1,-1 -1,0 -1,0 -2,0 0,-1 -1,-1 -1,-1 0,0 0,-1 -1,-1 0,0 0,-1 0,-1 0,-1 0,-2 1,-2 1,-1 1,-1 2,-1l0 -2 1 0 0 2c1,0 2,0 3,1 0,0 0,1 0,2l-2 0c0,0 0,-1 0,-1 -1,-1 -1,-1 -1,-1 -1,0 -1,0 -1,1 -1,0 -1,0 -1,1 0,0 0,0 1,1 0,0 0,0 1,0 1,1 1,1 1,1 1,0 1,0 1,1 1,0 1,0 1,1 0,0 0,0 0,1 0,1 0,1 -1,2 0,1 -1,1 -2,1l0 2 -1 0 0 -2c-1,0 -2,0 -2,-1 -1,-1 -1,-2 -1,-3l2 0c0,1 0,1 0,2 1,0 1,0 2,0 0,0 0,0 1,0 0,0 0,-1 0,-1z"/>
   </g>
  </g>
 </g>
</svg>
