<?xml version="1.0" encoding="UTF-8"?>
<!DOCTYPE svg PUBLIC "-//W3C//DTD SVG 1.1//EN" "http://www.w3.org/Graphics/SVG/1.1/DTD/svg11.dtd">
<!-- Creator: CorelDRAW X7 -->
<svg xmlns="http://www.w3.org/2000/svg" xml:space="preserve" width="48px" height="37px" version="1.1" style="shape-rendering:geometricPrecision; text-rendering:geometricPrecision; image-rendering:optimizeQuality; fill-rule:evenodd; clip-rule:evenodd"
viewBox="0 0 48 37"
 xmlns:xlink="http://www.w3.org/1999/xlink">
 <defs>
  <style type="text/css">
   <![CDATA[
    .fil4 {fill:#FEFEFE}
    .fil1 {fill:#FEFEFE}
    .fil6 {fill:#00A859}
    .fil0 {fill:#2887D2}
    .fil3 {fill:#2887D2}
    .fil5 {fill:#FC4D44}
    .fil7 {fill:#FFF212;fill-rule:nonzero}
    .fil2 {fill:#2887D2;fill-rule:nonzero}
   ]]>
  </style>
 </defs>
 <g id="Layer_x0020_1">
  <metadata id="CorelCorpID_0Corel-Layer"/>
  <g id="_815235648">
   <g>
    <g>
     <path class="fil0" d="M30 25l17 0c0,0 1,-1 1,-1l0 -23c0,0 -1,-1 -1,-1l-17 0 0 0 -1 0 0 25 1 0z"/>
     <rect class="fil1" x="30" y="1" width="16.5155" height="22.9209"/>
     <g>
      <g>
       <g>
        <polygon class="fil2" points="46,6 32,6 32,5 46,5 "/>
       </g>
       <g>
        <polygon class="fil2" points="39,22 39,5 39,5 39,22 "/>
       </g>
       <rect class="fil3" x="40" y="7" width="5.57279" height="0.795189"/>
       <rect class="fil3" x="40" y="10" width="5.57279" height="0.795189"/>
       <rect class="fil3" x="40" y="12" width="5.57279" height="0.795189"/>
       <rect class="fil3" x="32" y="14" width="5.57279" height="0.795189"/>
       <rect class="fil3" x="40" y="14" width="5.57279" height="0.795189"/>
       <rect class="fil3" x="32" y="7" width="5.57279" height="0.795189"/>
       <rect class="fil3" x="32" y="10" width="5.57279" height="0.795189"/>
       <rect class="fil3" x="32" y="12" width="5.57279" height="0.795189"/>
       <rect class="fil3" x="32" y="16" width="5.57279" height="0.795189"/>
       <rect class="fil3" x="40" y="16" width="5.57279" height="0.795189"/>
       <rect class="fil3" x="32" y="18" width="5.57279" height="0.795189"/>
       <rect class="fil3" x="40" y="18" width="5.57279" height="0.795189"/>
       <rect class="fil3" x="32" y="21" width="5.57279" height="0.795189"/>
       <rect class="fil3" x="40" y="21" width="5.57279" height="0.795189"/>
      </g>
      <path class="fil2" d="M34 5l0 -3 1 0c0,0 1,0 1,1 0,0 0,0 0,0 0,0 0,0 0,0l0 1c0,0 0,0 0,0 0,0 0,0 0,1 0,0 -1,0 -1,0l-1 0zm1 -2l0 1 0 0c0,0 0,0 1,0 0,0 0,0 0,0l0 -1c0,0 0,0 0,0 -1,0 -1,0 -1,0l0 0z"/>
      <path class="fil2" d="M44 4c0,0 0,0 0,1 -1,0 -1,0 -1,0 0,0 -1,0 -1,-1 0,0 0,0 0,0l0 -1c0,0 0,0 0,0 0,0 0,0 0,-1 1,0 1,0 1,0 0,0 0,0 1,1 0,0 0,0 0,0l-1 0c0,0 0,0 0,0 0,0 0,0 0,0 0,0 0,0 0,0 -1,0 -1,0 -1,0l0 1c0,0 0,0 1,0 0,0 0,0 0,0 0,0 0,0 0,0 0,0 0,0 0,0l1 0z"/>
     </g>
    </g>
    <g id="_815236392">
     <g>
      <g>
       <g>
        <g>
         <path class="fil4" d="M24 2l0 29c0,0 -20,-1 -20,0 0,0 0,-23 0,-23l3 -5 0 -1c0,0 17,0 17,0z"/>
         <path id="1" class="fil2" d="M25 31l-1 0 0 0 0 -29 1 0 0 29zm0 0l0 0 -1 0 1 0zm-22 0l0 0 1 -1 0 0 0 0 1 0 0 0 1 0 0 0 1 0 1 0 1 0 0 0 1 0 1 0 1 0 1 0 1 0 1 0 1 0 1 0 1 0 1 0 1 0 0 0 1 0 1 0 0 0 1 0 0 0 1 0 0 0 0 0 0 0 0 1 0 0 0 0 0 0 -1 0 0 0 -1 0 0 0 -1 0 -1 0 -1 0 0 0 -1 0 -1 0 -1 0 -1 0 -1 0 -1 0 -1 0 -1 0 -1 0 -1 0 0 0 -1 0 -1 0 -1 0 0 0 -1 0 0 0 -1 0 0 0 0 0 0 0 0 0 -1 0zm1 -23l0 0 0 0 0 0 0 0 0 1 0 0 0 1 0 1 0 0 0 1 0 1 0 1 0 1 0 1 0 1 0 1 0 1 0 2 0 1 0 1 0 1 0 1 0 1 0 1 0 0 0 1 0 1 0 0 0 1 0 0 0 1 0 0 -1 0 1 0 -1 0 0 0 0 -1 0 0 0 -1 0 0 0 -1 0 -1 0 0 0 -1 0 -1 0 -1 0 -1 0 -1 0 -1 0 -2 0 -1 0 -1 0 -1 0 -1 0 -1 0 -1 0 -1 0 -1 0 0 0 -1 0 -1 0 0 0 -1 0 0 0 0 0 0 0 -1 1 1zm3 -6l0 0 1 1 -4 5 -1 -1 4 -5zm0 0l0 0 0 0 0 0zm0 0l0 0 1 1 0 0 -1 -1 0 0zm0 0l0 0 0 0 0 0zm17 0l0 0 0 1 0 0 0 0 -1 0 0 0 0 0 -1 0 -1 0 0 0 -1 0 0 0 -1 0 -1 0 -1 0 0 0 -1 0 -1 0 -1 0 -1 0 0 0 -1 0 -1 0 0 0 -1 0 -1 0 0 0 -1 0 0 0 0 0 0 0 -1 0 0 0 0 -1 0 0 1 0 0 0 0 0 0 0 1 0 0 0 1 0 1 0 0 0 1 0 1 0 0 0 1 0 1 0 1 0 1 0 0 0 1 0 1 0 1 0 0 0 1 0 0 0 1 0 1 0 0 0 0 0 1 0 0 0 0 0 1 0 0 0 -1 0zm0 0l0 0 0 0 0 0z"/>
        </g>
        <g>
         <path class="fil3" d="M7 3l1 3c0,0 0,1 -1,2 -1,0 -3,0 -3,0l3 -6 0 1z"/>
         <path id="1" class="fil2" d="M8 6l0 0 0 0 -1 -3 0 0 1 3zm0 0l0 0 0 0 0 0zm-1 2l0 0 0 0 0 0 0 -1 0 0 0 0 0 0 0 0 0 0 0 0 0 0 0 0 0 0 0 0 0 0 0 0 0 0 1 0 0 0 0 0 0 0 0 0 0 0 0 -1 0 0 0 0 0 0 0 0 0 0 0 0 0 0 0 0 0 0 0 0 0 0 0 0 0 0 0 0 0 0 0 0 0 0 0 0 0 1 0 0 0 0 0 0 0 0 0 0 0 0 0 0 0 0 0 0 0 0 0 0 0 0 0 0 -1 0 0 0 0 0 0 0 0 1 0 0 0 0 0 0 0 0 0 0 0 0 0 0zm-3 0l0 0 0 0 0 0 0 0 0 0 0 0 0 0 0 0 0 0 0 0 0 0 0 0 1 0 0 0 0 0 0 0 0 0 0 0 0 0 1 0 0 0 0 0 0 0 0 0 0 0 0 0 0 0 1 0 0 0 0 0 0 0 0 0 0 0 0 0 0 0 0 0 0 0 0 0 0 0 -1 0 0 0 0 0 0 0 0 0 0 0 0 0 0 0 -1 0 0 0 0 0 0 0 0 0 0 0 0 0 -1 0 0 0 0 0 0 0 0 0 0 0 0 0 0 0 0 0 0 0 0 0 0 0 0 0 0 0zm3 -6l0 0 0 0 -3 6 0 0 3 -6zm0 0l0 0 0 0 0 0zm0 1l0 0 0 0 0 -1 0 0 0 1zm0 0l0 0 0 0 0 0z"/>
        </g>
       </g>
       <rect class="fil3" transform="matrix(0.181482 -0.00065124 -0.000823467 -0.229478 6.71344 16.4988)" width="81.2504" height="7.29213"/>
       <rect class="fil3" transform="matrix(0.181482 -0.00065124 -0.000823467 -0.229478 6.70233 13.4015)" width="81.2504" height="7.29213"/>
       <rect class="fil3" transform="matrix(0.124034 -0.000445091 -0.000823467 -0.229478 11.3583 10.1204)" width="81.2504" height="7.29213"/>
       <rect class="fil3" transform="matrix(0.181482 -0.00065124 -0.000823467 -0.229478 6.72531 19.8068)" width="81.2504" height="7.29213"/>
       <rect class="fil3" transform="matrix(0.181482 -0.00065124 -0.000823467 -0.229478 6.73719 23.1148)" width="81.2504" height="7.29213"/>
       <rect class="fil3" transform="matrix(0.181482 -0.00065124 -0.000823467 -0.229478 6.74891 26.383)" width="81.2504" height="7.29213"/>
      </g>
      <g id="_815237928">
       <g>
        <path class="fil4" d="M22 4l0 28c0,0 -20,-1 -20,0 0,1 -1,-23 -1,-23l4 -5 0 0c0,0 17,0 17,0z"/>
        <path id="1" class="fil2" d="M22 32l0 1 -1 -1 0 -28 1 0 0 28zm0 0l0 1 0 0 0 -1zm-21 0l0 0 0 -1 1 0 0 0 0 0 1 0 0 0 1 0 1 0 0 0 1 0 1 0 1 0 1 0 1 0 1 0 1 0 1 0 1 0 0 0 1 0 1 0 1 0 1 0 1 0 0 0 1 0 0 0 1 0 0 0 1 0 0 0 0 0 0 2 0 0 0 0 -1 0 0 0 -1 0 0 0 -1 0 0 0 -1 0 -1 0 -1 0 -1 0 -1 -1 0 0 -1 0 -1 0 -1 0 -1 0 -1 0 -1 0 -1 0 -1 0 -1 0 0 0 -1 1 -1 0 0 0 -1 0 0 0 0 0 0 0 0 -1 0 0 -1 0zm1 -22l0 -1 0 0 0 0 0 1 0 0 0 1 0 0 0 1 0 1 0 1 0 1 0 1 0 1 0 1 0 1 0 1 0 1 0 1 0 1 0 1 0 1 0 1 0 1 0 1 0 1 0 1 0 0 0 1 0 0 0 1 0 0 0 0 -1 0 1 0 -1 0 0 0 0 0 0 -1 0 0 0 -1 0 0 0 -1 0 -1 0 -1 0 -1 0 -1 0 -1 0 -1 0 -1 0 -1 0 -1 0 -1 0 -1 0 -1 0 -1 0 -1 0 -1 0 -1 0 -1 0 -1 0 0 0 -1 0 0 0 -1 0 0 0 0 0 0 1 1zm2 -6l0 0 1 0 -3 6 -1 -1 3 -5zm0 0l0 0 0 0 0 0zm1 -1l0 0 0 1 0 0 -1 0 1 -1zm0 0l0 0 0 0 0 0zm16 1l0 0 1 0 -1 0 0 0 0 0 0 0 -1 0 0 0 -1 0 -1 0 0 0 -1 0 -1 0 0 0 -1 0 -1 0 -1 0 0 0 -1 0 -1 0 -1 0 0 0 -1 0 -1 0 0 0 -1 0 0 0 -1 0 0 0 -1 0 0 0 0 0 0 0 0 -1 0 0 0 0 0 0 1 0 0 0 1 0 0 0 1 0 0 0 1 0 1 0 0 0 1 0 1 0 1 0 0 0 1 0 1 0 1 0 0 0 1 0 1 0 0 0 1 0 1 0 0 0 1 0 0 0 0 0 1 0 0 0 0 1 0 0 -1 0zm0 0l0 0 0 0 0 0z"/>
       </g>
       <g>
        <path class="fil3" d="M5 4l0 4c0,0 0,1 0,1 -1,0 -4,0 -4,0l4 -5 0 0z"/>
        <path id="1" class="fil2" d="M5 8l0 0 0 0 0 -4 0 0 0 4zm0 0l0 0 0 0 0 0zm0 1l0 0 0 0 0 0 0 0 0 0 0 0 0 0 0 0 0 0 0 0 0 0 0 0 0 -1 0 0 0 0 0 0 0 0 0 0 0 0 0 0 0 0 0 0 0 0 0 0 0 0 0 0 0 0 0 0 0 0 0 0 0 0 0 0 0 0 0 0 0 0 0 0 0 0 0 0 0 0 0 0 0 0 0 0 0 0 0 0 0 0 0 0 0 0 0 0 0 0 0 0 0 0 0 0 0 0 0 1 0 0 0 0 0 0 0 0 0 0 0 0 0 0 0 0 0 0 0 0 0 0 0 0 0 0 0 0zm-4 0l0 0 0 0 0 0 0 0 0 0 1 0 0 0 0 0 0 0 0 0 0 0 0 0 0 0 0 0 0 0 1 0 0 0 0 0 0 0 0 0 0 0 0 0 1 0 0 0 0 0 0 0 0 0 0 0 0 0 0 0 0 0 1 0 0 0 0 0 0 0 -1 0 0 0 0 0 0 0 0 0 0 0 0 0 0 0 0 0 -1 0 0 0 0 0 0 0 0 0 0 0 0 0 -1 0 0 0 0 0 0 0 0 0 0 0 0 0 0 0 0 0 0 0 -1 0 0 0 0 0 0 0 0 0 0 0 0 0zm4 -5l0 0 0 0 -4 5 0 0 4 -5zm0 0l0 -1 0 1 0 0zm0 0l0 0 0 0 0 0 0 0 0 0zm0 0l0 0 0 0 0 0z"/>
       </g>
      </g>
     </g>
     <g>
      <rect class="fil3" x="7" y="9" width="10.2035" height="1.8725"/>
      <rect class="fil3" x="5" y="12" width="6.58326" height="1.8725"/>
      <rect class="fil3" x="13" y="12" width="6.27558" height="1.8725"/>
      <rect class="fil3" x="5" y="15" width="6.58326" height="1.8725"/>
      <rect class="fil3" x="13" y="15" width="6.27558" height="1.8725"/>
      <rect class="fil3" x="5" y="19" width="6.58326" height="1.8725"/>
      <rect class="fil3" x="13" y="19" width="6.27558" height="1.8725"/>
      <rect class="fil3" x="5" y="23" width="6.58326" height="1.8725"/>
      <rect class="fil3" x="13" y="23" width="6.27558" height="1.8725"/>
     </g>
    </g>
    <path class="fil5" d="M26 32c3,-1 6,-2 9,-4 -2,-2 -2,-1 -4,-2l10 1c0,3 -1,6 -1,9l0 0c-1,-1 0,0 -2,-3 -6,4 -9,6 -17,2 -3,-1 -7,-4 -8,-6 1,0 1,1 3,1 3,2 6,3 10,2z"/>
   </g>
   <g>
    <circle class="fil6" cx="6" cy="28" r="6"/>
    <path class="fil7" d="M7 30c0,0 0,0 -1,-1 0,0 0,0 0,0 -1,0 -1,0 -1,0 0,0 -1,-1 -1,-1 0,0 0,0 0,0 0,-1 0,-1 0,-1 0,-1 0,-1 0,-1 0,-1 1,-1 1,-1l0 -1 1 0 0 1c1,0 1,0 1,1 1,0 1,1 1,1l-1 0c0,0 0,-1 -1,-1 0,0 0,0 0,0 -1,0 -1,0 -1,0 0,0 0,1 0,1 0,0 0,0 0,0 0,1 1,1 1,1 0,0 1,0 1,0 0,0 0,1 0,1 1,0 1,0 1,0 0,1 0,1 0,1 0,1 0,1 -1,1 0,1 0,1 -1,1l0 1 -1 0 0 -1c0,0 -1,0 -1,-1 -1,0 -1,-1 -1,-1l2 0c0,0 0,0 0,1 0,0 0,0 1,0 0,0 0,0 0,0 1,0 1,-1 1,-1z"/>
   </g>
  </g>
 </g>
</svg>
