<?xml version="1.0" encoding="UTF-8"?>
<!DOCTYPE svg PUBLIC "-//W3C//DTD SVG 1.1//EN" "http://www.w3.org/Graphics/SVG/1.1/DTD/svg11.dtd">
<!-- Creator: CorelDRAW X7 -->
<svg xmlns="http://www.w3.org/2000/svg" xml:space="preserve" width="115px" height="118px" version="1.1" style="shape-rendering:geometricPrecision; text-rendering:geometricPrecision; image-rendering:optimizeQuality; fill-rule:evenodd; clip-rule:evenodd"
viewBox="0 0 115 118"
 xmlns:xlink="http://www.w3.org/1999/xlink">
 <defs>
  <style type="text/css">
   <![CDATA[
    .fil6 {fill:#FFF212}
    .fil5 {fill:black}
    .fil0 {fill:#2887D2}
    .fil4 {fill:#FC4D44}
    .fil7 {fill:#FEFEFE;fill-rule:nonzero}
    .fil3 {fill:#00A859;fill-rule:nonzero}
    .fil2 {fill:#2887D2;fill-rule:nonzero}
    .fil1 {fill:url(#id0)}
   ]]>
  </style>
  <linearGradient id="id0" gradientUnits="userSpaceOnUse" x1="23.1073" y1="90.9896" x2="92.1681" y2="28.5059">
   <stop offset="0" style="stop-opacity:1; stop-color:#DBEFFF"/>
   <stop offset="1" style="stop-opacity:1; stop-color:white"/>
  </linearGradient>
 </defs>
 <g id="Layer_x0020_1">
  <metadata id="CorelCorpID_0Corel-Layer"/>
  <g id="_868919040">
   <path class="fil0" d="M113 106c3,-9 2,-34 2,-34 0,0 -3,3 -6,3 -4,0 -6,-3 -6,-3 0,0 -1,3 -5,3 -3,0 -5,-3 -5,-3l-2 1 0 35c0,0 1,9 6,8 7,-1 13,-4 16,-10z"/>
   <path class="fil1" d="M20 9l0 -5c0,0 3,2 5,2 2,1 4,1 7,-1 2,-1 3,-2 3,-2 0,0 2,2 6,3 3,1 7,-1 7,-2 1,0 1,0 1,0 0,0 3,3 8,3 4,-1 7,-4 7,-4 0,0 3,3 8,4 4,0 6,-3 7,-4 0,0 1,4 7,4 5,-1 7,-4 7,-4l0 84 0 22c0,0 1,5 2,6 2,0 -4,0 -4,0 0,0 -24,2 -30,2 -6,-1 -28,-1 -35,-7 -8,-5 -6,-20 -6,-20l0 -81z"/>
   <g>
    <path class="fil2" d="M28 14l0 -4 0 0 0 0 1 0 0 0 0 0 0 0 1 0 0 0 0 0 0 0 1 -1 0 0 0 0 0 0 1 0 0 0 0 0 0 -1 0 0 0 0 1 0 0 0 0 0 0 -1 0 0 0 0 0 0 0 0 0 0 0 0 0 0 0 0 0 0 4 2 0 0 0 0 0 0 0 0 0 0 -1 1 0 0 0 0 0 0 0 0 0 0 0 1 -1 0 0 0 0 0 0 1 -1 0 0 0 0 0 -1 0 0 1 0 0 -1 0 0 0 0 0 -1 1 0 0 -1 0 0 0 -1 0 0 0 -1 0 0 0zm-5 -5l-4 -1 3 -1 0 0 0 0 0 0 0 0 0 0 0 1 0 0 1 0 0 0 0 0 0 0 0 0 0 0 0 1 1 0 0 0 0 0 0 0 0 0 1 0 0 1 0 0 0 0 1 0 0 0 0 0 0 0 1 0 0 0 0 0 1 0 0 0 0 4 0 0 -1 0 0 0 -1 0 0 0 -1 0 0 0 -1 0 0 0 -1 -1 0 0 0 0 -1 0 0 0 0 -1 -1 0 0 0 0 0 0 -1 -1 0 0 0 0 0 0 0 0 0 -1 -1 0 0 0 0 0 0 0 0 0 0 0 0 0 0 4 -1zm-1 93l-4 0 0 0 0 -1 0 -1 0 -2 0 -2 0 -3 0 -3 0 -3 0 -3 0 -4 0 -3 0 -4 0 -4 0 -4 0 -5 0 -4 0 -4 0 -4 0 -4 0 -4 0 -4 0 -4 0 -4 0 -3 0 -3 0 -3 0 -3 1 -2 0 -2 0 -1 0 -2 0 0 0 -1 4 1 0 0 0 0 0 2 0 1 0 2 -1 2 0 3 0 3 0 3 0 3 0 4 0 4 0 4 0 4 0 4 0 4 0 4 0 4 0 5 0 4 0 4 0 4 0 3 0 4 0 3 0 3 0 3 0 3 0 2 0 1 0 2 0 1 0 0zm3 11l-3 3 0 0 0 0 0 0 -1 -1 0 0 0 0 0 -1 -1 0 0 -1 0 0 0 -1 0 0 -1 -1 0 0 0 -1 0 0 0 -1 0 0 0 -1 0 0 0 -1 0 0 0 -1 0 0 -1 -1 0 0 0 0 0 -1 0 0 0 -1 0 0 0 -1 0 0 4 0 0 0 0 1 0 0 0 0 0 1 0 0 0 1 0 0 1 1 0 0 0 0 0 1 0 0 0 1 0 0 0 1 0 0 0 1 0 0 0 0 0 1 1 0 0 0 0 1 0 0 0 0 0 0 0 1 0 0 0 0 1 0 0 0 0 0zm60 1l1 4 0 0 -1 0 -1 0 -1 0 -1 0 -1 0 -2 0 -2 0 -2 0 -2 0 -3 0 -2 0 -3 0 -2 0 -3 0 -2 0 -3 0 -3 0 -3 0 -2 0 -3 0 -2 0 -3 0 -2 0 -3 0 -2 0 -2 0 -1 0 -2 0 -1 -1 -2 0 -1 0 -1 -1 3 -3 0 0 0 0 1 0 2 1 1 0 2 0 2 0 2 0 2 0 2 0 3 0 2 0 3 0 2 0 3 0 3 0 2 0 3 0 3 0 2 0 3 0 2 0 3 0 2 0 2 0 2 0 1 0 2 0 1 0 1 0 1 0 0 0 0 0zm14 -2l1 3 0 0 0 1 0 0 -1 0 0 0 0 0 -1 0 0 0 0 0 -1 0 0 0 -1 0 0 0 -1 1 0 0 -1 0 0 0 -1 0 -1 0 0 0 -1 0 0 0 -1 0 0 0 -1 0 0 0 -1 0 0 0 -1 1 0 0 -1 0 0 0 0 0 -1 -4 1 0 0 0 0 0 1 0 0 -1 1 0 0 0 1 0 0 0 1 0 0 0 1 0 0 0 1 0 1 0 0 0 1 0 0 0 1 0 0 0 1 -1 0 0 0 0 1 0 0 0 1 0 0 0 0 0 0 0 1 0 0 0 0 0 0 0zm-8 -5l4 0 0 0 0 1 0 0 0 1 0 0 0 0 0 1 0 0 1 0 0 0 0 0 0 1 0 0 1 0 0 0 0 0 0 0 1 0 0 0 0 0 1 0 0 0 0 0 0 0 0 0 1 0 0 0 0 0 1 1 1 2 -1 1 0 0 -1 0 -1 -3 0 0 -1 0 0 1 1 2 0 0 0 0 0 0 0 0 0 0 0 0 -1 0 0 0 0 0 -1 0 0 0 -1 0 0 0 -1 0 0 -1 -1 0 0 0 0 0 -1 -1 0 0 -1 -1 0 0 0 -1 -1 -1 0 0 0 -1 0 -1 0 -1 0 0zm4 -30l0 30 -4 0 0 -30 4 0 0 0zm0 -69l0 69 -4 0 0 -69 4 0zm-9 2l0 4 0 0 0 0 -1 0 0 0 -1 0 0 0 -1 0 0 0 -1 0 0 0 0 -1 -1 0 0 0 0 0 -1 0 0 -1 0 0 -1 0 0 0 0 -1 0 0 -1 0 0 0 0 0 0 0 0 -1 0 0 -1 0 0 0 0 0 0 0 0 0 0 0 3 -3 0 0 0 0 0 0 0 0 0 0 1 1 0 0 0 0 0 0 0 0 0 0 0 0 0 0 1 1 0 0 0 0 0 0 0 0 1 0 0 0 0 1 0 0 1 0 0 0 0 0 0 0 1 0 0 0 0 0 1 0 0 0 0 0 0 0zm6 -3l3 2 0 0 0 0 0 0 0 0 0 0 0 1 0 0 -1 0 0 0 0 0 0 0 0 1 0 0 -1 0 0 0 0 1 0 0 -1 0 0 0 0 0 -1 1 0 0 0 0 -1 0 0 0 -1 1 0 0 -1 0 0 0 -1 0 0 0 -1 0 0 -4 0 0 1 0 0 0 0 0 1 0 0 0 0 0 0 0 1 0 0 -1 0 0 0 0 1 0 0 0 0 0 0 0 0 -1 0 0 1 0 0 0 0 0 0 0 0 -1 0 0 0 0 0 0 0 0 1 0 0 0 0 0 0 0 0 0zm-21 7l0 -4 0 0 1 0 0 0 0 0 0 0 1 0 0 0 0 0 1 0 0 0 0 0 0 0 1 -1 0 0 0 0 0 0 0 0 1 0 0 0 0 -1 0 0 0 0 0 0 1 0 0 0 0 0 0 0 0 -1 0 0 0 0 0 0 0 0 0 0 3 3 0 0 0 0 0 0 0 0 0 0 0 0 0 0 0 1 -1 0 0 0 0 0 0 0 0 0 -1 1 0 0 0 0 0 0 -1 1 0 0 0 0 -1 0 0 0 -1 1 0 0 0 0 -1 0 0 0 -1 0 0 0 -1 0 0 0 -1 0 0 0zm-9 -5l4 -2 0 0 0 0 0 0 0 0 0 0 0 0 0 0 0 0 0 0 0 1 1 0 0 0 0 0 0 0 0 0 0 1 0 0 1 0 0 0 0 0 0 0 1 0 0 1 0 0 0 0 1 0 0 0 0 0 0 0 1 0 0 0 0 0 0 4 0 0 -1 0 0 0 -1 0 0 0 -1 0 0 -1 -1 0 0 0 0 0 -1 0 0 -1 0 0 -1 0 0 0 0 0 -1 -1 0 0 0 0 0 0 0 -1 -1 0 0 0 0 0 0 0 0 0 0 -1 0 0 0 0 0 0 -1 0 0 0zm-5 1l0 4 0 0 0 0 -1 0 0 0 -1 0 0 0 -1 0 0 0 -1 0 0 0 0 -1 -1 0 0 0 -1 0 0 0 0 -1 0 0 -1 0 0 0 0 -1 -1 0 0 0 0 0 0 0 0 0 0 -1 -1 0 0 0 0 0 0 0 0 0 0 0 0 0 3 -3 0 0 0 0 0 0 0 0 0 0 0 1 1 0 0 0 0 0 0 0 0 0 0 0 0 0 1 1 0 0 0 0 0 0 0 0 1 0 0 0 0 1 0 0 1 0 0 0 0 0 0 0 1 0 0 0 0 0 0 0 1 0 0 0 0 0zm5 -3l4 2 0 0 0 0 0 0 0 0 0 0 0 1 -1 0 0 0 0 0 0 0 0 0 0 1 -1 0 0 0 0 0 0 1 -1 0 0 0 0 0 0 0 -1 1 0 0 -1 0 0 0 0 0 -1 1 0 0 -1 0 0 0 -1 0 0 0 -1 0 0 -4 0 0 1 0 0 0 0 0 1 0 0 0 0 0 0 0 1 0 0 -1 0 0 0 0 0 0 1 0 0 0 0 0 0 -1 0 0 1 0 0 0 0 0 0 0 0 -1 0 0 0 0 0 0 0 0 0 0 0 0 0 0 0 0 0 0zm-20 7l0 -4 0 0 1 0 0 0 0 0 0 0 1 0 0 0 0 0 0 0 1 0 0 0 0 0 0 -1 1 0 0 0 0 0 0 0 1 0 0 0 0 -1 0 0 0 0 0 0 1 0 0 0 0 0 0 0 0 -1 0 0 0 0 0 0 0 0 0 0 3 3 0 0 0 0 0 0 0 0 0 0 0 0 0 0 0 1 -1 0 0 0 0 0 0 0 0 0 -1 1 0 0 0 0 -1 0 0 1 0 0 -1 0 0 0 0 0 -1 1 0 0 -1 0 0 0 0 0 -1 0 0 0 -1 0 0 0 -1 0 0 0zm-9 -5l4 -2 0 0 0 0 0 0 0 0 0 0 0 0 0 0 0 0 0 0 0 1 0 0 1 0 0 0 0 0 0 0 0 1 0 0 1 0 0 0 0 0 0 0 0 0 1 1 0 0 0 0 0 0 1 0 0 0 0 0 1 0 0 0 0 0 0 4 -1 0 0 0 -1 0 0 0 0 0 -1 0 0 -1 -1 0 0 0 -1 0 0 0 0 -1 -1 0 0 0 0 0 0 0 -1 -1 0 0 0 0 0 0 -1 -1 0 0 0 0 0 0 0 0 0 0 0 -1 0 0 -1 0 0 0 0 0 0 0z"/>
   </g>
   <path class="fil3" d="M68 59c0,-1 -1,-2 -1,-3 -1,0 -2,-1 -3,-2 -2,0 -3,-1 -4,-1 -1,-1 -2,-1 -3,-2 0,-1 -1,-1 -1,-2 -1,-1 -1,-2 -1,-4 0,-2 1,-4 2,-5 2,-1 3,-2 6,-2l0 -5 3 0 0 5c2,0 4,1 5,2 1,2 2,4 2,7l-5 0c0,-2 -1,-3 -1,-4 -1,-1 -2,-1 -3,-1 -1,0 -2,0 -2,1 -1,0 -1,1 -1,2 0,1 0,2 0,3 1,0 2,1 4,2 1,0 2,1 3,1 1,1 2,1 3,2 1,1 1,2 2,3 0,0 0,1 0,3 0,2 -1,4 -2,5 -1,1 -3,2 -6,2l0 4 -3 0 0 -4c-2,0 -4,-1 -6,-2 -1,-2 -2,-4 -2,-7l6 0c0,2 0,3 1,4 0,1 1,1 3,1 1,0 2,0 3,-1 0,0 1,-1 1,-2z"/>
   <rect class="fil0" x="27" y="36" width="19.76" height="5.02402"/>
   <g id="_868918776">
    <rect class="fil4" y="79" width="64.6966" height="38.8174" rx="6" ry="6"/>
    <rect class="fil5" y="84" width="64.6966" height="3.40681"/>
    <g>
     <rect class="fil6" x="4" y="96" width="30.3707" height="4.25037"/>
     <rect class="fil6" x="9" y="96" width="3.82393" height="4.25037"/>
     <rect class="fil6" x="15" y="96" width="3.82393" height="4.25037"/>
     <rect class="fil6" x="20" y="96" width="3.82393" height="4.25037"/>
     <rect class="fil6" x="25" y="96" width="3.82393" height="4.25037"/>
     <rect class="fil6" x="31" y="96" width="3.82393" height="4.25037"/>
    </g>
   </g>
   <rect class="fil0" x="27" y="49" width="19.76" height="5.02402"/>
   <rect class="fil0" x="27" y="63" width="19.76" height="5.02402"/>
   <g>
    <path class="fil3" d="M111 2c-1,-1 -2,-1 -3,0l-25 26 -14 -9c-1,0 -2,0 -3,1 0,1 0,2 0,3l15 20c0,1 1,1 2,1l0 0c1,0 1,0 2,0l26 -39c1,-1 1,-2 0,-3z"/>
    <path id="1" class="fil7" d="M109 3l-2 -2 0 0 1 0 0 0 0 0 0 -1 0 0 0 0 0 0 1 0 0 0 0 0 0 0 0 0 0 0 0 0 1 0 0 0 0 0 0 0 0 0 0 0 1 0 0 0 0 0 0 0 0 0 0 0 0 0 1 1 0 0 0 0 0 0 0 0 -2 2 0 0 0 0 0 0 0 0 0 0 0 0 0 0 0 0 0 0 0 0 0 0 0 0 0 0 0 0 0 0 0 0 0 0 0 0 0 0 0 0 0 0 -1 0 0 0 0 0 0 0 0 0 0 0 0 0 0 0 0 0 0 0 0 0 0 0zm-2 -2l0 0 0 0 0 0zm-25 26l25 -26 2 2 -25 26 -2 0 0 -2zm2 2l-1 0 -1 0 2 0zm-14 -11l14 8 -2 3 -13 -8 0 0 1 -3zm-1 3l0 0 -1 -1 1 1zm-2 0l-2 -2 0 0 1 0 0 0 0 0 0 -1 0 0 0 0 0 0 0 0 1 0 0 0 0 0 0 0 0 0 0 0 0 0 1 0 0 0 0 0 0 0 0 0 0 0 0 0 1 0 0 0 0 0 0 0 0 0 0 0 1 0 0 0 0 0 0 0 -1 3 -1 0 0 0 0 0 0 0 0 0 0 0 0 0 0 0 0 0 0 0 0 -1 0 0 0 0 0 0 0 1 0 0 0 0 0 0 0 0 0 0 0 0 0 0 0 0 0 0 0 0 0 0 0 0 0 0 0 0 0 0 -1 0 0 0 0 0zm0 1l-2 1 0 0 0 0 0 0 0 0 0 0 0 0 0 0 0 -1 0 0 0 0 0 0 0 0 -1 0 0 0 0 -1 0 0 0 0 0 0 1 0 0 0 0 -1 0 0 0 0 0 0 0 0 0 0 0 0 0 0 0 -1 0 0 0 0 0 0 0 0 2 2 0 0 0 0 0 0 0 0 0 0 0 0 0 0 0 0 0 0 0 0 0 0 0 0 0 0 0 0 0 0 0 0 0 0 0 0 0 0 0 0 0 0 0 0 0 1 0 0 0 0 0 0 0 0 0 0 0 0 0 0 0 0 0 0 0 0zm0 0l0 0 0 0 0 0zm13 22l-15 -21 2 -1 15 21 -2 1 0 0zm0 0l0 0 0 0 0 0zm3 -1l0 3 0 0 0 0 0 0 -1 0 0 0 0 0 0 0 0 0 0 0 0 0 0 0 0 0 0 0 -1 0 0 -1 0 0 0 0 0 0 0 0 0 0 0 0 0 0 0 0 0 0 -1 0 0 0 0 0 0 0 0 0 0 0 0 -1 0 0 0 0 2 -1 0 0 0 0 0 0 0 0 0 0 0 0 0 0 0 0 0 0 0 0 0 0 0 0 0 0 0 0 0 0 0 0 0 0 0 0 1 0 0 0 0 0 0 0 0 0 0 0 0 0 0 0 0 0 0 0 0 0 0 0 0 0 0 0 0 0zm0 3l0 0 0 0 0 0zm0 0l0 0 0 -3 0 0 0 0 0 3zm0 -3l3 1 0 0 0 0 0 0 0 1 -1 0 0 0 0 0 0 0 0 0 0 0 0 0 0 0 0 0 0 0 0 0 0 0 -1 0 0 0 0 1 0 0 0 0 0 0 0 0 0 0 0 0 0 0 -1 0 0 0 0 0 0 0 0 0 0 0 0 0 0 -3 0 0 0 0 0 0 0 0 0 0 0 0 0 0 0 0 0 0 0 0 0 0 0 0 0 0 0 0 0 0 0 0 0 0 0 0 0 0 0 0 0 0 0 0 0 0 0 0 0 0 0 0 0 0 0 0 0 0 0 0 0 0 1 0 -1 0zm3 1l0 0 0 0 0 0zm27 -38l-27 38 -3 -1 27 -39 0 0 3 2zm-3 -2l0 0 0 0 0 0zm0 -1l2 -2 0 0 0 0 0 0 0 0 1 0 0 1 0 0 0 0 0 0 0 0 0 0 0 1 0 0 0 0 0 0 0 0 0 0 0 0 0 1 0 0 0 0 0 0 0 0 0 0 0 1 0 0 0 0 0 0 0 0 0 0 0 0 0 1 0 0 -3 -2 0 0 0 0 0 0 0 0 0 0 0 0 0 0 0 0 0 0 1 0 0 0 0 0 0 0 0 0 0 0 0 0 0 -1 0 0 -1 0 0 0 0 0 0 0 0 0 0 0 0 0 0 0 0 0 0 0 0 0 0 0 0 0 0 0 0 0zm2 -2l0 0 0 0 0 0z"/>
   </g>
  </g>
 </g>
</svg>
