<?xml version="1.0" encoding="UTF-8"?>
<!DOCTYPE svg PUBLIC "-//W3C//DTD SVG 1.1//EN" "http://www.w3.org/Graphics/SVG/1.1/DTD/svg11.dtd">
<!-- Creator: CorelDRAW X7 -->
<svg xmlns="http://www.w3.org/2000/svg" xml:space="preserve" width="120px" height="120px" version="1.1" style="shape-rendering:geometricPrecision; text-rendering:geometricPrecision; image-rendering:optimizeQuality; fill-rule:evenodd; clip-rule:evenodd"
viewBox="0 0 120 120"
 xmlns:xlink="http://www.w3.org/1999/xlink">
 <defs>
  <style type="text/css">
   <![CDATA[
    .fil0 {fill:none}
    .fil3 {fill:black}
    .fil7 {fill:black}
    .fil8 {fill:#2887D2}
    .fil2 {fill:#FEFEFE;fill-rule:nonzero}
    .fil6 {fill:#606062;fill-rule:nonzero}
    .fil10 {fill:#FFF212;fill-rule:nonzero}
    .fil5 {fill:#FFCC29;fill-rule:nonzero}
    .fil4 {fill:black;fill-rule:nonzero}
    .fil1 {fill:#2887D2;fill-rule:nonzero}
    .fil9 {fill:url(#id0)}
   ]]>
  </style>
  <linearGradient id="id0" gradientUnits="userSpaceOnUse" x1="90.2404" y1="30.2663" x2="109.025" y2="4.99144">
   <stop offset="0" style="stop-opacity:1; stop-color:#1CC8EB"/>
   <stop offset="0.631373" style="stop-opacity:1; stop-color:#0E96E0"/>
   <stop offset="1" style="stop-opacity:1; stop-color:#0063D4"/>
  </linearGradient>
 </defs>
 <g id="Layer_x0020_1">
  <metadata id="CorelCorpID_0Corel-Layer"/>
  <rect class="fil0" width="120" height="120"/>
  <g id="_716538960">
   <g>
    <polygon class="fil1" points="103,18 103,29 103,117 28,117 28,18 "/>
    <g>
     <polygon class="fil2" points="99,16 99,29 99,113 24,113 24,16 "/>
     <path id="1" class="fil1" d="M98 29l0 -13 2 0 0 13 -2 0 0 0zm0 84l0 -84 2 0 0 84 -1 2 -1 -2zm2 0l0 2 -1 0 1 -2zm-76 -2l75 0 0 4 -75 0 -1 -2 1 -2zm0 4l-1 0 0 -2 1 2zm2 -99l0 97 -3 0 0 -97 1 -2 2 2zm-3 0l0 -2 1 0 -1 2zm76 1l-75 0 0 -3 75 0 1 2 -1 1zm0 -3l1 0 0 2 -1 -2z"/>
    </g>
   </g>
   <g id="_716539992">
    <g>
     <path class="fil3" d="M12 113l0 0c0,0 0,1 0,1l0 3 0 1c0,-1 0,-1 0,-1l0 -3c0,-1 0,-1 0,-1z"/>
     <path class="fil4" d="M11 114c0,1 0,1 1,1l0 0c1,0 1,0 1,-1l2 -7c0,0 -1,1 -1,1l-4 0c-1,0 -1,-1 -1,-1l2 7z"/>
     <path class="fil5" d="M11 111l0 -3 3 0c0,0 1,-1 1,-1l-2 7c0,1 0,1 -1,1l0 0c-1,0 -1,0 -1,-1 -1,-1 -1,-2 -1,-2 0,0 1,0 1,-1z"/>
     <path class="fil4" d="M9 37l4 0c0,0 0,0 0,1l0 -6c0,-1 0,-2 -1,-2l-3 1c-1,0 -1,0 -1,2l0 5c0,0 1,-1 1,-1z"/>
     <path class="fil5" d="M10 34c0,0 0,0 0,0 0,0 1,-1 1,-1l0 -3 1 0c1,0 1,1 1,2l0 6c0,-1 0,-1 0,-1l-4 0c0,0 -1,1 -1,1l0 -4 2 0z"/>
     <path class="fil6" d="M10 108l4 0c1,0 1,-1 1,-2l-1 -66c0,-2 0,-3 -1,-3l-4 0c-1,0 -2,1 -1,3l0 66c0,1 1,2 2,2z"/>
     <path class="fil4" d="M11 105c1,0 1,-1 1,-3l-1 -65 2 0c1,0 1,1 1,3l1 66c0,1 0,2 -1,2l-4 0c-1,0 -2,-1 -2,-2l0 -1 3 0z"/>
     <polygon class="fil5" points="15,87 8,87 8,97 15,97 "/>
     <polygon class="fil5" points="15,97 15,87 12,87 12,97 "/>
     <polygon class="fil5" points="14,38 8,38 8,87 15,87 "/>
     <polygon class="fil4" points="14,38 15,86 15,87 12,87 12,38 "/>
    </g>
    <path class="fil7" d="M10 37l-5 0 0 11c0,0 1,1 1,0l0 -10 4 0c0,0 0,0 0,-1z"/>
   </g>
   <polygon class="fil8" points="36,27 86,27 86,32 64,32 64,106 59,106 59,32 36,32 "/>
   <path class="fil1" d="M38 60l0 -20 6 0c2,0 4,0 5,1 2,1 3,2 3,4 1,1 2,3 2,5l0 0c0,2 -1,4 -2,5 0,2 -1,3 -3,4 -1,0 -3,1 -4,1l-7 0zm4 -17l0 14 2 0c2,0 3,-1 4,-2 1,-1 1,-2 1,-4l0 -1c0,-2 0,-4 -1,-5 -1,-1 -2,-2 -4,-2l-2 0z"/>
   <path class="fil1" d="M87 53c0,2 -1,4 -3,5 -1,1 -3,2 -5,2 -3,0 -5,-1 -6,-3 -2,-1 -2,-4 -2,-7l0 -1c0,-2 0,-4 1,-5 0,-1 1,-3 2,-3 2,-1 3,-1 5,-1 2,0 4,0 5,1 2,2 3,3 3,6l-4 0c0,-2 -1,-3 -1,-3 -1,-1 -2,-1 -3,-1 -2,0 -3,0 -3,1 -1,1 -1,3 -1,5l0 1c0,3 0,4 1,5 0,1 1,2 3,2 1,0 2,-1 3,-1 0,-1 1,-2 1,-3l4 0z"/>
   <circle class="fil9" cx="100" cy="18" r="16"/>
   <path class="fil10" d="M102 22c0,-1 0,-1 0,-2 -1,0 -1,0 -2,-1 -1,0 -2,0 -3,-1 0,0 -1,0 -1,-1 -1,0 -1,-1 -2,-1 0,-1 0,-2 0,-3 0,-1 1,-2 1,-3 1,-1 3,-2 4,-2l0 -1 0 -1 0 0 0 0c0,0 0,0 1,0l0 0c1,0 1,0 1,0l0 0 0 0 0 1 0 1c2,1 3,1 4,2 0,1 1,2 1,4l0 0 0 0c0,0 -1,1 -1,1l-2 0c0,0 -1,-1 -1,-1l0 0 0 0 0 0 0 0 0 0c0,-1 0,-2 0,-2 -1,-1 -1,-1 -2,-1 -1,0 -1,0 -2,1 0,0 0,1 0,1 0,1 0,2 0,2 1,0 1,1 2,1 1,1 2,1 3,1 0,1 1,1 1,1 1,1 1,1 1,2 1,1 1,1 1,2 0,1 -1,3 -1,4 -1,0 -3,1 -4,1l0 1c0,0 0,0 0,0l0 1c0,0 0,1 -1,1l-1 0c0,0 0,-1 0,-1l0 -1c0,0 0,0 0,0l0 -1c-2,0 -3,-1 -4,-2 -1,-1 -2,-2 -2,-3l0 0c0,-1 1,-1 2,-1l1 0c1,0 1,0 1,1l0 0 0 0 0 0 0 0 0 0 0 0c0,1 0,1 1,1 0,1 1,1 2,1 1,0 1,0 2,0 0,-1 0,-1 0,-2z"/>
  </g>
 </g>
</svg>
