<?xml version="1.0" encoding="UTF-8"?>
<!DOCTYPE svg PUBLIC "-//W3C//DTD SVG 1.1//EN" "http://www.w3.org/Graphics/SVG/1.1/DTD/svg11.dtd">
<!-- Creator: CorelDRAW X7 -->
<svg xmlns="http://www.w3.org/2000/svg" xml:space="preserve" width="120px" height="120px" version="1.1" style="shape-rendering:geometricPrecision; text-rendering:geometricPrecision; image-rendering:optimizeQuality; fill-rule:evenodd; clip-rule:evenodd"
viewBox="0 0 120 120"
 xmlns:xlink="http://www.w3.org/1999/xlink">
 <defs>
  <style type="text/css">
   <![CDATA[
    .fil0 {fill:none}
    .fil6 {fill:black}
    .fil10 {fill:black}
    .fil3 {fill:#2887D2}
    .fil2 {fill:#FEFEFE;fill-rule:nonzero}
    .fil9 {fill:#606062;fill-rule:nonzero}
    .fil5 {fill:#FFF212;fill-rule:nonzero}
    .fil8 {fill:#FFCC29;fill-rule:nonzero}
    .fil7 {fill:black;fill-rule:nonzero}
    .fil1 {fill:#2887D2;fill-rule:nonzero}
    .fil4 {fill:url(#id0)}
   ]]>
  </style>
  <linearGradient id="id0" gradientUnits="userSpaceOnUse" x1="90.5061" y1="30.8864" x2="109.702" y2="5.05758">
   <stop offset="0" style="stop-opacity:1; stop-color:#1CC8EB"/>
   <stop offset="0.631373" style="stop-opacity:1; stop-color:#0E96E0"/>
   <stop offset="1" style="stop-opacity:1; stop-color:#0063D4"/>
  </linearGradient>
 </defs>
 <g id="Layer_x0020_1">
  <metadata id="CorelCorpID_0Corel-Layer"/>
  <rect class="fil0" width="120" height="120"/>
  <g id="_693714416">
   <g>
    <g>
     <polygon class="fil1" points="105,17 105,28 105,118 28,118 28,17 "/>
     <g>
      <polygon class="fil2" points="100,15 100,28 100,114 24,114 24,15 "/>
      <path id="1" class="fil1" d="M99 28l0 -13 3 0 0 13 -3 0 0 0zm0 86l0 -86 3 0 0 86 -2 2 -1 -2zm3 0l0 2 -2 0 2 -2zm-78 -1l76 0 0 3 -76 0 -1 -2 1 -1zm0 3l-1 0 0 -2 1 2zm1 -101l0 99 -2 0 0 -99 1 -2 1 2zm-2 0l0 -2 1 0 -1 2zm77 1l-76 0 0 -3 76 0 2 2 -2 1zm0 -3l2 0 0 2 -2 -2z"/>
     </g>
    </g>
    <g>
     <polygon class="fil1" points="42,31 40,31 40,23 38,24 38,22 42,20 42,20 "/>
     <path id="1" class="fil1" d="M44 46l-7 0 0 -1 4 -4c0,0 1,-1 1,-1 0,-1 0,-1 0,-1 0,-1 0,-1 0,-1 0,-1 -1,-1 -1,-1 -1,0 -1,0 -1,1 -1,0 -1,1 -1,1l-2 0c0,-1 0,-1 1,-2 0,0 0,-1 1,-1 0,0 1,0 2,0 1,0 2,0 2,0 1,1 1,2 1,3 0,0 0,1 0,1 -1,1 -1,1 -2,2l-2 2 4 0 0 2z"/>
     <path id="2" class="fil1" d="M38 60c0,0 0,0 0,0 0,-1 0,-1 1,-1 0,0 0,0 1,1 0,0 0,0 0,0 0,1 0,1 0,1 -1,0 -1,1 -1,1 -1,0 -1,-1 -1,-1 0,0 0,0 0,-1z"/>
     <path id="3" class="fil1" d="M38 76c0,-1 0,-1 0,-1 0,0 0,0 1,0 0,0 0,0 1,0 0,0 0,0 0,1 0,0 0,0 0,1 -1,0 -1,0 -1,0 -1,0 -1,0 -1,0 0,-1 0,-1 0,-1z"/>
     <path id="4" class="fil1" d="M38 91c0,0 0,0 0,-1 0,0 0,0 1,0 0,0 0,0 1,0 0,1 0,1 0,1 0,0 0,1 0,1 -1,0 -1,0 -1,0 -1,0 -1,0 -1,0 0,0 0,-1 0,-1z"/>
     <path id="5" class="fil1" d="M39 101l2 0c0,0 0,0 1,0 0,0 0,-1 0,-1 0,0 0,-1 0,-1 -1,0 -1,0 -1,0 -1,0 -1,0 -1,0 -1,0 -1,1 -1,1l-2 0c0,-1 0,-1 1,-2 0,0 0,0 1,-1 0,0 1,0 2,0 1,0 2,0 2,1 1,0 1,1 1,2 0,0 0,1 0,1 -1,1 -1,1 -1,1 0,0 1,1 1,1 0,1 0,1 0,2 0,1 0,1 -1,2 0,0 -1,1 -2,1 -1,0 -2,-1 -3,-1 0,-1 -1,-1 -1,-2l2 0c0,0 0,0 1,1 0,0 0,0 1,0 0,0 1,0 1,0 0,-1 0,-1 0,-1 0,-1 0,-2 -1,-2l-2 0 0 -2z"/>
     <path id="6" class="fil1" d="M53 103c0,2 -1,3 -1,4 -1,0 -2,1 -3,1 -1,0 -2,-1 -2,-1 -1,-1 -1,-2 -1,-4l0 -2c0,-1 0,-2 1,-3 0,-1 1,-1 2,-1 1,0 2,0 3,1 0,1 1,2 1,3l0 2zm-2 -2c0,-1 -1,-1 -1,-2 0,0 0,0 -1,0 0,0 -1,0 -1,0 0,1 0,1 0,2l0 3c0,0 0,1 0,1 0,1 1,1 1,1 1,0 1,0 1,-1 0,0 1,-1 1,-1l0 -3z"/>
     <rect class="fil3" x="51" y="24" width="30.1853" height="4.5859"/>
     <rect class="fil3" x="51" y="39" width="40.3106" height="4.5859"/>
     <rect class="fil3" x="57" y="99" width="33.3791" height="4.5859"/>
    </g>
   </g>
   <g id="_693715568">
    <circle class="fil4" cx="100" cy="18" r="16"/>
    <path class="fil5" d="M103 23c0,-1 0,-2 -1,-2 0,-1 -1,-1 -2,-1 -1,-1 -2,-1 -2,-1 -1,-1 -2,-1 -2,-2 -1,0 -1,-1 -1,-1 0,-1 -1,-1 -1,-2 0,-2 1,-3 2,-4 1,-1 2,-1 4,-2l0 -1 0 -1 0 0 0 0c0,0 0,0 0,0l1 0c0,0 1,0 1,0l0 0 0 0 0 1 0 2c1,0 2,0 3,1 1,1 1,2 1,4l0 0 0 0c0,1 0,1 -1,1l-1 0c-1,0 -1,0 -1,-1l0 0 0 0 0 0 0 0 0 0c0,-1 -1,-1 -1,-2 0,0 -1,-1 -2,-1 0,0 -1,1 -1,1 -1,0 -1,1 -1,2 0,0 0,1 1,1 0,1 1,1 2,1 1,1 2,1 2,2 1,0 2,0 2,1 0,0 1,1 1,1 0,1 0,2 0,2 0,2 0,3 -1,4 -1,1 -2,1 -4,2l0 1c0,0 0,0 0,0l0 1c0,0 0,0 0,0l-1 0c0,0 -1,0 -1,0l0 -1c0,0 0,0 0,0l0 -1c-1,-1 -3,-1 -4,-2 -1,-1 -1,-2 -1,-4l0 0c0,-1 0,-1 1,-1l1 0c1,0 1,0 1,1l0 0 0 0 0 0 0 0 0 0 0 0c0,1 1,1 1,2 1,0 1,1 2,1 1,0 2,0 2,-1 1,0 1,-1 1,-1z"/>
   </g>
   <g id="_693714464">
    <g>
     <path class="fil6" d="M11 113l0 0c1,0 1,0 1,1l-1 3 0 1c0,-1 0,-1 0,-1l0 -3c0,-1 0,-1 0,-1z"/>
     <path class="fil7" d="M10 114c0,1 1,1 1,1l1 0c0,0 0,0 0,-1l2 -8c0,1 0,1 -1,1l-4 0c0,0 -1,0 -1,0l2 7z"/>
     <path class="fil8" d="M10 111l1 -4 2 0c1,0 1,0 1,-1l-2 8c0,1 0,1 0,1l-1 0c0,0 -1,0 -1,-1 0,-1 0,-2 0,-2 0,0 0,0 0,-1z"/>
     <path class="fil7" d="M8 36l4 0c0,0 1,0 1,0l0 -5c0,-2 -1,-2 -1,-2l-4 0c0,0 -1,1 -1,2l0 5c1,0 1,0 1,0z"/>
     <path class="fil8" d="M9 32c0,0 0,0 0,0 1,0 1,0 1,-1l0 -2 2 0c0,0 1,0 1,2l0 5c0,0 -1,0 -1,0l-4 0c0,0 0,0 -1,0l0 -4 2 0z"/>
     <path class="fil9" d="M9 108l4 0c1,0 2,-1 1,-3l0 -67c0,-2 -1,-3 -2,-3l-4 0c-1,0 -1,2 -1,3l1 68c0,1 0,2 1,2z"/>
     <path class="fil7" d="M10 104c1,0 2,-1 2,-2l-1 -67 1 0c1,0 2,1 2,3l0 67c1,2 0,3 -1,3l-4 0c-1,0 -1,-1 -1,-2l0 -1 2 -1z"/>
     <polygon class="fil8" points="14,86 7,86 8,97 14,97 "/>
     <polygon class="fil8" points="14,97 14,86 11,86 11,97 "/>
     <polygon class="fil8" points="14,36 7,36 7,86 14,86 "/>
     <polygon class="fil7" points="14,36 14,85 14,86 11,86 11,36 "/>
    </g>
    <path class="fil10" d="M9 35l-5 0 0 12c1,0 1,0 2,0l0 -10 3 0c0,-1 0,-1 0,-2z"/>
   </g>
  </g>
 </g>
</svg>
