<?xml version="1.0" encoding="UTF-8"?>
<!DOCTYPE svg PUBLIC "-//W3C//DTD SVG 1.1//EN" "http://www.w3.org/Graphics/SVG/1.1/DTD/svg11.dtd">
<!-- Creator: CorelDRAW X7 -->
<svg xmlns="http://www.w3.org/2000/svg" xml:space="preserve" width="46px" height="48px" version="1.1" style="shape-rendering:geometricPrecision; text-rendering:geometricPrecision; image-rendering:optimizeQuality; fill-rule:evenodd; clip-rule:evenodd"
viewBox="0 0 46 49"
 xmlns:xlink="http://www.w3.org/1999/xlink">
 <defs>
  <style type="text/css">
   <![CDATA[
    .fil0 {fill:#FEFEFE}
    .fil8 {fill:#00A859}
    .fil3 {fill:black}
    .fil7 {fill:black}
    .fil2 {fill:#2887D2}
    .fil6 {fill:#606062;fill-rule:nonzero}
    .fil9 {fill:#FFF212;fill-rule:nonzero}
    .fil5 {fill:#FFCC29;fill-rule:nonzero}
    .fil4 {fill:black;fill-rule:nonzero}
    .fil1 {fill:#2887D2;fill-rule:nonzero}
   ]]>
  </style>
 </defs>
 <g id="Layer_x0020_1">
  <metadata id="CorelCorpID_0Corel-Layer"/>
  <g id="_807732136">
   <g>
    <g>
     <g>
      <g>
       <g>
        <path class="fil0" d="M41 1l0 45c0,0 -32,-1 -32,0 0,1 0,-36 0,-36l5 -9 0 0c0,0 27,0 27,0z"/>
        <path id="1" class="fil1" d="M42 46l-1 0 0 0 0 -45 1 0 0 45zm0 0l0 0 -1 0 1 0zm-34 0l0 0 1 -1 0 0 1 0 0 0 1 0 1 0 1 0 1 0 1 0 1 0 2 0 1 0 2 0 1 0 2 0 1 0 2 0 1 0 2 0 1 0 1 0 2 0 1 0 1 0 1 0 1 0 1 0 1 0 0 0 1 0 0 0 0 0 0 1 0 0 0 0 -1 0 0 0 -1 0 -1 0 -1 0 -1 0 -1 0 -1 0 -2 0 -1 0 -1 0 -2 0 -1 0 -2 0 -1 0 -2 0 -1 0 -2 0 -1 0 -2 0 -1 0 -1 0 -1 0 -1 0 -1 0 -1 0 0 0 -1 0 0 1 0 -1 0 0 -1 0zm1 -36l0 0 0 0 0 0 0 0 0 1 0 1 0 1 0 1 0 1 0 2 0 1 0 2 0 1 0 2 0 2 0 1 0 2 0 2 0 2 0 1 0 2 0 1 0 2 0 1 0 2 0 1 0 1 0 1 0 1 0 0 0 1 0 0 -1 0 1 0 -1 0 0 0 0 -1 0 0 0 -1 0 -1 0 -1 0 -1 0 -2 0 -1 0 -2 0 -1 0 -2 0 -1 0 -2 0 -2 0 -2 0 -1 0 -2 0 -2 0 -1 0 -2 0 -1 0 -2 0 -1 0 -1 0 -1 0 -1 0 -1 0 0 0 0 0 0 0 -1 1 1zm5 -9l0 0 1 1 -6 8 -1 -1 6 -8zm0 0l0 0 0 0 0 0zm0 -1l0 0 1 1 -1 1 0 -1 0 -1zm0 0l0 0 0 0 0 0zm27 1l0 0 0 0 0 0 -1 0 0 0 -1 0 0 0 -1 0 -1 0 -1 0 -1 0 -1 0 -1 0 -2 0 -1 0 -1 0 -1 0 -1 0 -2 0 -1 0 -1 0 -1 0 -1 0 -1 0 -1 0 -1 0 -1 0 -1 0 0 0 -1 0 0 0 0 0 -1 0 0 -1 1 0 0 0 0 0 1 0 0 0 1 0 1 0 1 0 1 0 1 0 1 0 1 0 1 0 1 0 1 0 2 0 1 0 1 0 1 0 2 0 1 0 1 0 1 0 1 0 1 0 1 0 0 0 1 0 0 0 1 0 0 0 1 1 0 0 -1 0zm1 0l0 0 0 0 0 0z"/>
       </g>
       <g>
        <path class="fil2" d="M14 1l1 6c0,0 0,2 -1,2 -1,1 -5,0 -5,0l5 -8 0 0z"/>
        <path id="1" class="fil1" d="M15 7l0 0 0 0 -1 -6 1 0 0 6zm0 0l0 0 0 0 0 0zm-1 2l0 0 0 0 0 0 0 0 0 0 0 0 0 0 0 0 0 0 0 0 0 0 0 -1 1 0 0 0 0 0 0 0 0 0 0 0 0 0 0 0 0 0 0 0 0 0 0 -1 0 0 0 0 0 0 0 0 0 0 0 0 0 0 0 0 0 0 0 0 0 0 0 0 0 0 0 0 0 0 0 0 0 0 0 0 0 0 0 1 0 0 0 0 0 0 0 0 0 0 0 0 0 0 0 0 0 0 0 0 0 1 0 0 0 0 0 0 -1 0 0 0 0 0 0 0 0 0 0 0 0 0 0 0 0 0 0 0zm-5 1l0 -1 0 0 0 0 0 0 0 0 0 0 0 0 0 0 0 0 0 0 1 0 0 0 0 0 0 0 0 0 1 0 0 0 0 0 0 0 1 0 0 0 0 0 0 0 0 0 1 0 0 0 0 0 0 0 0 0 0 0 1 0 0 0 0 0 0 0 0 0 0 0 0 0 -1 0 0 1 0 0 0 0 0 0 -1 0 0 0 0 0 0 0 0 0 -1 0 0 0 0 0 0 0 -1 0 0 0 0 0 0 0 0 0 -1 0 0 0 0 0 0 0 0 0 0 0 0 0 0 0 0 0 0 0 0 -1 0 1zm5 -9l1 0 -1 0 -5 9 0 -1 5 -8zm0 0l1 -1 0 1 -1 0zm1 0l-1 0 0 0 0 0 1 0 0 0zm-1 0l0 0 0 0 0 0z"/>
       </g>
      </g>
      <rect class="fil2" transform="matrix(0.287306 -0.00103098 -0.00130364 -0.363286 13.3631 23.3803)" width="81.7514" height="7.33709"/>
      <rect class="fil2" transform="matrix(0.287306 -0.00103098 -0.00130364 -0.363286 13.3454 18.4468)" width="81.7514" height="7.33709"/>
      <rect class="fil2" transform="matrix(0.19636 -0.000704624 -0.00130364 -0.363286 20.7617 13.2204)" width="81.7514" height="7.33709"/>
      <rect class="fil2" transform="matrix(0.287306 -0.00103098 -0.00130364 -0.363286 13.382 28.6495)" width="81.7514" height="7.33709"/>
      <rect class="fil2" transform="matrix(0.287306 -0.00103098 -0.00130364 -0.363286 13.4009 33.9187)" width="81.7514" height="7.33709"/>
      <rect class="fil2" transform="matrix(0.287306 -0.00103098 -0.00130364 -0.363286 13.4196 39.1246)" width="81.7514" height="7.33709"/>
     </g>
     <g>
      <g>
       <path class="fil0" d="M37 3l0 45c0,0 -32,-1 -32,0 0,1 0,-36 0,-36l5 -9 1 0c0,0 26,0 26,0z"/>
       <path id="1" class="fil1" d="M38 48l-1 1 0 -1 0 -45 1 0 0 45zm0 0l0 1 -1 0 1 -1zm-33 0l0 0 0 -1 0 0 1 0 0 0 1 0 1 0 1 0 1 0 1 0 2 0 1 0 1 0 2 0 1 0 2 0 1 0 2 0 1 0 2 0 1 0 2 0 1 0 1 0 1 0 1 0 1 0 1 0 1 0 1 0 0 0 0 0 0 0 0 2 0 0 0 0 0 0 -1 0 -1 0 -1 0 -1 0 -1 0 -1 0 -1 0 -1 -1 -2 0 -1 0 -2 0 -1 0 -2 0 -1 0 -2 0 -1 0 -2 0 -1 0 -1 0 -2 0 -1 0 -1 0 -1 1 -1 0 0 0 -1 0 0 0 -1 0 1 -1 0 0 -1 0zm0 -36l0 0 0 0 0 0 0 1 0 0 0 1 0 1 1 1 0 2 0 1 0 1 0 2 0 2 0 1 0 2 0 2 0 1 0 2 0 2 0 1 0 2 0 2 0 1 0 2 0 1 0 1 0 1 0 1 0 1 0 1 0 0 0 0 -1 0 1 0 -1 0 0 0 0 0 0 -1 0 -1 0 -1 0 -1 0 -1 0 -1 0 -2 0 -1 0 -2 0 -2 0 -1 0 -2 0 -2 0 -1 -1 -2 0 -2 0 -1 0 -2 0 -2 0 -1 0 -1 0 -2 0 -1 0 -1 0 -1 0 0 0 -1 0 0 0 0 1 -1 0 1zm5 -9l0 0 1 1 -6 8 0 -1 5 -8zm0 0l0 0 0 0 0 0zm0 0l1 -1 0 1 0 1 -1 -1 0 0zm0 0l0 -1 1 0 -1 1zm27 0l0 0 0 1 0 0 0 0 -1 0 -1 0 0 0 -1 0 -1 0 -1 0 -1 0 -1 0 -1 0 -1 0 -2 0 -1 0 -1 0 -1 0 -2 0 -1 0 -1 0 -1 0 -1 0 -1 0 -1 0 -1 0 -1 0 -1 0 0 0 -1 0 0 0 0 0 0 0 0 -2 0 0 0 0 0 0 1 0 0 0 1 0 1 0 1 0 1 0 1 0 1 0 1 0 1 0 1 0 2 0 1 0 1 0 1 0 2 0 1 0 1 0 1 0 1 0 1 0 1 0 1 0 0 0 1 0 1 0 0 0 0 0 1 1 0 0 -1 0zm1 0l0 0 0 0 0 0z"/>
      </g>
      <g>
       <path class="fil2" d="M11 3l0 6c0,0 0,2 -1,3 -1,0 -5,0 -5,0l6 -9 0 0z"/>
       <path id="1" class="fil1" d="M11 9l0 0 0 0 -1 -6 1 0 0 6zm0 0l0 0 0 0 0 0zm-1 2l0 0 0 0 0 0 0 0 0 0 0 0 0 0 0 0 1 0 0 0 0 0 0 0 0 0 0 0 0 -1 0 0 0 0 0 0 0 0 0 0 0 0 0 0 0 0 0 0 0 0 0 0 0 -1 0 0 0 0 0 0 0 0 0 0 0 0 0 0 0 0 0 0 0 0 0 0 0 0 0 0 0 1 0 0 0 0 0 0 0 0 0 0 0 0 0 0 0 0 0 0 0 0 0 1 0 0 0 0 0 0 0 0 0 0 0 0 0 0 0 0 0 0 -1 0 0 0 0 1 0 0 0 0 0 0 0 -1zm-5 1l0 0 0 0 0 0 0 0 0 0 0 0 0 0 0 0 0 0 1 0 0 0 0 0 0 0 0 0 1 0 0 0 0 0 0 0 0 0 1 0 0 0 0 0 0 0 1 0 0 0 0 0 0 0 0 0 0 -1 1 0 0 0 0 0 0 0 0 1 0 0 0 0 0 0 0 0 -1 0 0 0 0 0 0 0 0 0 -1 0 0 0 0 0 0 0 -1 0 0 0 0 0 0 0 0 0 -1 0 0 0 0 0 0 0 0 0 -1 0 0 0 0 0 0 0 0 0 0 0 0 0 0 0 0 0 0 0 0 0zm5 -9l1 0 0 0 -6 9 0 0 5 -9zm0 0l1 -1 0 1 -1 0zm1 0l-1 0 0 0 0 0 1 0 0 0zm-1 0l0 0 0 0 0 0z"/>
      </g>
     </g>
    </g>
    <g>
     <rect class="fil2" x="10" y="12" width="22.4341" height="2.98264"/>
     <rect class="fil2" x="22" y="18" width="10.4863" height="2.98264"/>
     <rect class="fil2" x="10" y="18" width="9.99619" height="2.98264"/>
     <rect class="fil2" x="22" y="23" width="10.4863" height="2.98264"/>
     <rect class="fil2" x="10" y="23" width="9.99619" height="2.98264"/>
     <rect class="fil2" x="22" y="29" width="10.4863" height="2.98264"/>
     <rect class="fil2" x="10" y="29" width="9.99619" height="2.98264"/>
     <rect class="fil2" x="22" y="35" width="10.4863" height="2.98264"/>
     <rect class="fil2" x="10" y="35" width="9.99619" height="2.98264"/>
    </g>
   </g>
   <g>
    <g>
     <g>
      <path class="fil3" d="M31 42l0 0c0,0 0,0 0,0l-1 2 0 1c0,-1 0,-1 0,-1l1 -2c0,0 0,0 0,0z"/>
      <path class="fil4" d="M31 43c0,0 0,0 0,0l0 0c-1,0 -1,0 -1,0l1 -5c0,1 0,1 0,1l2 1c0,0 0,0 1,-1l-3 4z"/>
      <path class="fil5" d="M32 41l0 -2 -1 0c0,0 0,0 0,-1l-1 5c0,0 0,0 1,0l0 0c0,0 0,0 0,0 1,-1 1,-1 1,-1 0,0 0,0 0,-1z"/>
      <path class="fil4" d="M44 4l-2 0c0,0 0,0 0,0l0 -3c1,0 1,-1 1,-1l2 1c0,0 0,0 0,1l-1 3c0,-1 0,-1 0,-1z"/>
      <path class="fil5" d="M44 2c0,0 0,0 0,0 0,0 0,0 0,0l0 -1 -1 -1c0,0 0,1 -1,1l0 3c0,0 0,0 0,0l2 0c0,0 0,0 0,1l1 -2 -1 -1z"/>
      <path class="fil6" d="M33 40l-2 -1c-1,0 -1,0 0,-1l10 -33c0,-1 1,-2 1,-1l2 0c0,0 0,1 0,2l-10 33c0,1 -1,1 -1,1z"/>
      <path class="fil4" d="M33 38c-1,0 -1,-1 0,-1l10 -33 -1 0c0,-1 -1,0 -1,1l-10 33c-1,1 -1,1 0,1l2 1c0,0 1,0 1,-1l0 -1 -1 0z"/>
      <polygon class="fil5" points="34,28 37,29 35,35 32,34 "/>
      <polygon class="fil5" points="32,34 34,28 35,29 33,34 "/>
      <polygon class="fil5" points="41,4 44,5 37,29 34,28 "/>
      <polygon class="fil4" points="41,4 34,28 34,28 35,29 43,4 "/>
     </g>
     <path class="fil7" d="M44 4l2 1 -2 5c0,0 0,0 0,0l1 -5 -2 0c0,-1 0,-1 1,-1z"/>
    </g>
    <g>
     <circle class="fil8" cx="10" cy="39" r="10"/>
     <path class="fil9" d="M11 42c0,-1 0,-1 0,-1 0,0 -1,-1 -1,-1 -1,0 -2,0 -2,-1 0,0 -1,0 -1,0 0,-1 -1,-1 -1,-1 0,-1 0,-1 0,-2 0,-1 0,-1 1,-2 0,0 1,-1 2,-1l0 -2 1 0 0 2c1,0 2,1 3,1 0,1 0,2 0,3l-2 0c0,-1 0,-1 0,-2 -1,0 -1,0 -1,0 -1,0 -1,0 -1,0 -1,1 -1,1 -1,1 0,1 0,1 1,1 0,1 0,1 1,1 1,0 1,1 2,1 0,0 0,0 1,1 0,0 0,0 0,1 0,0 0,0 0,1 0,1 0,1 0,2 -1,1 -2,1 -3,1l0 2 -1 0 0 -2c-1,0 -2,0 -3,-1 0,-1 0,-2 0,-3l2 0c0,1 0,1 0,2 1,0 1,0 2,0 0,0 0,0 1,0 0,0 0,-1 0,-1z"/>
    </g>
   </g>
  </g>
 </g>
</svg>
