<?xml version="1.0" encoding="UTF-8"?>
<!DOCTYPE svg PUBLIC "-//W3C//DTD SVG 1.1//EN" "http://www.w3.org/Graphics/SVG/1.1/DTD/svg11.dtd">
<!-- Creator: CorelDRAW X7 -->
<svg xmlns="http://www.w3.org/2000/svg" xml:space="preserve" width="37px" height="48px" version="1.1" style="shape-rendering:geometricPrecision; text-rendering:geometricPrecision; image-rendering:optimizeQuality; fill-rule:evenodd; clip-rule:evenodd"
viewBox="0 0 36 48"
 xmlns:xlink="http://www.w3.org/1999/xlink">
 <defs>
  <style type="text/css">
   <![CDATA[
    .fil0 {fill:#FEFEFE}
    .fil4 {fill:#00A859}
    .fil2 {fill:#2887D2}
    .fil5 {fill:#FFF212;fill-rule:nonzero}
    .fil3 {fill:#1CC8EB;fill-rule:nonzero}
    .fil1 {fill:#2887D2;fill-rule:nonzero}
   ]]>
  </style>
 </defs>
 <g id="Layer_x0020_1">
  <metadata id="CorelCorpID_0Corel-Layer"/>
  <g id="_805243256">
   <g>
    <g>
     <g>
      <g>
       <g>
        <path class="fil0" d="M1 7l0 36c0,0 26,0 26,1 0,0 0,-30 0,-30l-4 -7 -1 0c0,0 -21,-1 -21,0z"/>
        <path id="1" class="fil1" d="M0 43l0 -36 1 0 0 36 0 1 -1 -1zm1 1l-1 0 0 -1 1 1zm26 0l-1 0 0 0 1 0 0 0 -1 0 0 0 -1 0 -1 0 0 0 -1 0 -1 0 -1 0 -1 0 -1 0 -2 0 -1 0 -1 0 -1 0 -1 0 -2 0 -1 0 -1 0 -1 0 -1 0 -1 0 -1 0 -1 0 -1 0 -1 0 0 0 -1 0 0 0 0 0 0 0 0 -1 0 0 0 0 0 0 1 0 0 0 1 0 1 0 1 0 1 0 1 0 1 0 1 0 1 0 1 0 2 -1 1 0 1 0 1 0 1 0 2 0 1 0 1 0 1 1 1 0 1 0 1 0 0 0 1 0 0 0 1 0 0 0 0 1 0 0zm0 -30l0 -1 1 1 0 0 0 0 0 1 0 0 0 1 0 1 0 1 0 1 0 1 0 1 0 1 0 1 0 2 0 1 0 2 0 1 0 1 0 2 0 1 0 2 0 1 -1 1 0 1 0 1 0 1 0 1 0 1 0 1 0 0 0 0 0 1 -1 0 1 0 -1 0 0 -1 0 0 0 0 0 -1 0 -1 0 -1 0 -1 0 -1 0 -1 0 -1 0 -1 0 -2 0 -1 0 -2 0 -1 0 -1 0 -2 0 -1 0 -2 0 -1 0 -1 0 -1 0 -1 0 -1 0 -1 0 -1 0 -1 0 0 0 -1 0 0 0 0 1 0zm-4 -7l4 6 0 1 -5 -7 1 0 0 0zm0 0l0 0 0 0 0 0zm0 -1l0 1 -1 1 0 -1 0 -1 1 0zm-1 0l1 0 0 0 -1 0zm-21 1l-1 0 0 0 1 -1 0 0 0 0 1 0 0 0 1 0 0 0 1 0 1 0 1 0 1 0 1 0 1 0 1 0 1 0 1 0 1 0 1 0 1 0 1 0 0 0 1 0 1 0 1 0 1 0 0 0 1 0 0 0 1 0 0 0 0 0 0 0 0 1 0 0 0 0 0 0 -1 0 0 0 -1 0 0 0 -1 0 -1 0 -1 0 -1 0 0 0 -1 0 -1 0 -1 0 -1 0 -1 0 -1 0 -1 0 -1 0 -1 0 -1 0 -1 0 -1 0 -1 0 0 0 -1 0 0 0 -1 0 0 0 0 0 0 0 0 0zm-1 0l0 0 0 0 0 0z"/>
       </g>
       <g>
        <path class="fil2" d="M22 7l0 5c0,0 0,1 1,2 1,0 4,0 4,0l-5 -7 0 0z"/>
        <path id="1" class="fil1" d="M22 12l0 -5 1 0 -1 5 0 0 0 0zm0 0l0 0 0 0 0 0zm1 2l0 0 0 0 0 0 0 0 0 0 0 0 -1 -1 0 0 0 0 0 0 0 0 0 0 0 0 0 0 0 0 0 0 0 0 0 0 0 0 0 -1 0 0 0 0 0 0 0 0 0 0 0 0 0 0 0 0 0 0 0 0 0 0 0 0 0 0 0 0 0 0 0 0 0 0 0 0 0 0 0 0 0 0 0 0 0 0 0 0 0 0 0 0 0 0 0 0 0 0 0 1 0 0 0 0 0 0 0 0 0 0 0 0 0 0 0 0 0 0 1 0 0 0 0 0 0 0 0 0 0 0 0 0 0 1 0 0zm4 0l0 0 0 0 0 0 0 0 0 0 0 0 0 0 0 0 0 0 0 0 -1 0 0 0 0 0 0 0 0 0 0 0 0 0 -1 0 0 0 0 0 0 0 0 0 -1 0 0 0 0 0 0 0 0 0 0 0 -1 0 0 0 0 0 0 0 0 0 0 0 0 0 0 0 0 0 0 0 0 0 0 0 1 0 0 0 0 0 0 0 0 0 0 0 1 0 0 0 0 0 0 0 0 0 1 0 0 0 0 0 0 0 0 0 0 0 0 0 1 0 0 0 0 0 0 0 0 0 0 0 0 0 0 0 0 0 0 0zm-4 -8l4 8 0 0 -5 -7 0 0 1 -1zm-1 1l0 -1 1 0 -1 1zm0 0l0 0 1 0 0 0 0 0 -1 0zm1 0l0 0 0 0 0 0z"/>
       </g>
      </g>
      <rect class="fil2" transform="matrix(-0.236888 -0.000850067 0.00107487 -0.299538 23.2977 25.1301)" width="80.9678" height="7.26676"/>
      <rect class="fil2" transform="matrix(-0.236888 -0.000850067 0.00107487 -0.299538 23.3122 21.1013)" width="80.9678" height="7.26676"/>
      <rect class="fil2" transform="matrix(-0.161901 -0.00058098 0.00107487 -0.299538 17.2559 16.8333)" width="80.9678" height="7.26676"/>
      <rect class="fil2" transform="matrix(-0.236888 -0.000850067 0.00107487 -0.299538 23.2823 29.433)" width="80.9678" height="7.26676"/>
      <rect class="fil2" transform="matrix(-0.236888 -0.000850067 0.00107487 -0.299538 23.2668 33.736)" width="80.9678" height="7.26676"/>
      <rect class="fil2" transform="matrix(-0.236888 -0.000850067 0.00107487 -0.299538 23.2516 37.9872)" width="80.9678" height="7.26676"/>
     </g>
     <g>
      <g>
       <path class="fil0" d="M4 8l0 37c0,0 26,0 26,0 0,1 0,-29 0,-29l-4 -7 0 0c0,0 -22,-1 -22,-1z"/>
       <path id="1" class="fil1" d="M3 45l0 -37 1 0 0 37 0 1 -1 -1zm1 1l-1 0 0 -1 1 1zm27 -1l-2 0 0 0 1 1 0 0 -1 0 0 0 -1 0 0 0 -1 0 -1 0 -1 0 -1 0 -1 0 -1 0 -1 0 -2 0 -1 0 -1 0 -1 0 -2 0 -1 0 -1 0 -1 0 -1 0 -1 0 -1 0 -1 0 -1 0 -1 0 0 0 -1 0 0 0 0 0 0 0 0 -1 0 0 0 -1 0 0 1 0 0 0 1 0 1 0 1 0 1 0 1 0 1 0 1 0 1 0 1 0 2 0 1 0 1 0 1 0 2 0 1 0 1 0 1 0 1 0 1 0 1 0 1 0 0 0 1 0 0 1 1 0 0 0 1 0 0 0zm-1 -29l1 -1 0 1 0 0 0 0 0 0 0 1 0 1 0 0 0 1 0 1 0 2 0 1 0 1 0 1 0 2 0 1 0 1 0 2 0 1 0 2 0 1 0 1 0 2 0 1 0 1 0 1 0 1 0 1 0 1 0 0 0 1 0 0 0 0 -2 0 2 0 -2 0 0 0 1 0 0 -1 0 0 0 -1 0 -1 0 -1 0 -1 0 -1 0 -1 0 -2 0 -1 0 -1 0 -2 0 -1 0 -2 0 -1 0 -1 0 -2 0 -1 0 -1 0 -1 0 -2 0 -1 0 -1 0 0 0 -1 0 -1 0 0 0 0 0 0 0 0zm-4 -8l5 7 -1 1 -5 -7 1 -1 0 0zm0 0l0 0 0 0 0 0zm0 0l0 0 -1 1 0 0 1 -1 0 0zm0 0l0 0 0 0 0 0zm-22 0l-1 0 0 0 1 0 0 0 0 0 1 0 0 0 1 0 0 0 1 0 1 0 1 0 1 0 1 0 1 0 1 0 1 0 1 0 1 0 1 0 1 0 1 0 1 0 1 0 0 0 1 0 1 0 1 0 0 0 1 0 0 0 0 0 0 0 1 0 0 1 -1 0 0 0 0 0 0 0 -1 0 0 0 -1 0 -1 0 -1 0 0 0 -1 0 -1 0 -1 0 -1 0 -1 0 -1 0 -1 0 -1 0 -1 0 -1 0 -1 0 -1 0 -1 0 -1 0 -1 0 0 0 -1 0 0 0 -1 0 0 0 0 0 0 -1 0 0zm0 0l0 0 0 0 0 0z"/>
      </g>
      <g>
       <path class="fil2" d="M26 9l-1 5c0,0 0,1 1,1 1,1 4,1 4,1l-4 -8 0 1z"/>
       <path id="1" class="fil1" d="M25 14l0 -5 1 0 -1 5 0 0 0 0zm0 0l0 0 0 0 0 0zm1 1l0 1 0 0 0 -1 0 0 0 0 0 0 0 0 0 0 0 0 -1 0 0 0 0 0 0 0 0 0 0 0 0 0 0 0 0 -1 0 0 0 0 0 0 0 0 0 0 0 0 0 0 0 0 0 0 0 0 0 0 0 0 0 0 0 0 0 0 0 0 0 0 0 0 0 0 0 0 0 0 0 0 0 0 0 0 0 0 0 0 0 0 0 0 0 0 0 0 0 0 0 0 0 0 0 0 0 1 0 0 0 0 1 0 0 0 0 0 0 0 0 0 0 0 0 0 0 0 0 0 0 0 0 0 0 0 0 0zm4 1l0 0 0 0 0 0 0 0 0 0 0 0 0 0 0 0 0 0 0 0 0 0 -1 0 0 0 0 0 0 0 0 0 0 0 -1 0 0 0 0 0 0 0 0 0 0 0 -1 0 0 0 0 0 0 0 0 0 0 0 -1 0 0 0 0 0 0 0 0 0 0 -1 0 0 0 0 0 0 0 0 1 0 0 0 0 0 0 0 0 0 0 0 1 1 0 0 0 0 0 0 0 0 0 0 1 0 0 0 0 0 0 0 0 0 0 0 1 0 0 0 0 0 0 0 0 0 0 0 0 -1 0 0 0 0 0 0 0 1zm-4 -8l4 8 0 0 -4 -8 -1 0 1 0zm-1 0l0 0 1 0 -1 0zm0 1l0 -1 1 0 0 1 0 0 -1 0zm1 0l0 0 0 0 0 0z"/>
      </g>
     </g>
    </g>
    <g>
     <rect class="fil2" x="8" y="21" width="18.3199" height="2.43569"/>
     <rect class="fil2" x="8" y="25" width="8.56322" height="2.43569"/>
     <rect class="fil2" x="18" y="25" width="8.16299" height="2.43569"/>
     <rect class="fil2" x="8" y="29" width="8.56322" height="2.43569"/>
     <rect class="fil2" x="18" y="29" width="8.16299" height="2.43569"/>
     <rect class="fil2" x="8" y="34" width="8.56322" height="2.43569"/>
     <rect class="fil2" x="18" y="34" width="8.16299" height="2.43569"/>
     <rect class="fil2" x="8" y="39" width="8.56322" height="2.43569"/>
     <rect class="fil2" x="18" y="39" width="8.16299" height="2.43569"/>
    </g>
   </g>
   <path class="fil3" d="M12 0l0 13 -4 0 7 6 7 -6 -3 0 0 -13 -7 0zm0 7m-2 6m2 3m7 0m2 -3m-2 -6m-4 -7"/>
   <g>
    <circle class="fil4" cx="29" cy="40" r="8"/>
    <path class="fil5" d="M30 42c0,0 0,0 0,0 0,-1 -1,-1 -1,-1 -1,0 -1,0 -2,-1 0,0 0,0 0,0 -1,0 -1,-1 -1,-1 0,0 0,-1 0,-1 0,-1 0,-1 1,-2 0,0 1,-1 1,-1l0 -1 1 0 0 1c1,0 2,1 2,1 1,1 1,1 1,2l-2 0c0,0 0,-1 0,-1 -1,0 -1,0 -1,0 -1,0 -1,0 -1,0 0,0 0,1 0,1 0,0 0,0 0,1 0,0 1,0 1,0 1,1 1,1 1,1 1,0 1,0 1,1 0,0 1,0 1,0 0,1 0,1 0,1 0,1 0,2 -1,2 0,1 -1,1 -2,1l0 1 -1 0 0 -1c-1,0 -1,0 -2,-1 0,-1 -1,-1 -1,-2l2 0c0,0 0,1 1,1 0,0 0,0 1,0 0,0 0,0 1,0 0,0 0,0 0,-1z"/>
   </g>
  </g>
 </g>
</svg>
