<?xml version="1.0" encoding="UTF-8"?>
<!DOCTYPE svg PUBLIC "-//W3C//DTD SVG 1.1//EN" "http://www.w3.org/Graphics/SVG/1.1/DTD/svg11.dtd">
<!-- Creator: CorelDRAW X7 -->
<svg xmlns="http://www.w3.org/2000/svg" xml:space="preserve" width="48px" height="48px" version="1.1" style="shape-rendering:geometricPrecision; text-rendering:geometricPrecision; image-rendering:optimizeQuality; fill-rule:evenodd; clip-rule:evenodd"
viewBox="0 0 48 49"
 xmlns:xlink="http://www.w3.org/1999/xlink">
 <defs>
  <style type="text/css">
   <![CDATA[
    .fil0 {fill:#FEFEFE}
    .fil13 {fill:#B8E5FA}
    .fil12 {fill:#0098DA}
    .fil8 {fill:black}
    .fil15 {fill:black}
    .fil2 {fill:#2887D2}
    .fil6 {fill:#F0A71F}
    .fil5 {fill:#FEFEFE;fill-rule:nonzero}
    .fil11 {fill:#606062;fill-rule:nonzero}
    .fil10 {fill:#FFCC29;fill-rule:nonzero}
    .fil7 {fill:#00A859;fill-rule:nonzero}
    .fil9 {fill:black;fill-rule:nonzero}
    .fil1 {fill:#2887D2;fill-rule:nonzero}
    .fil4 {fill:#4E901E;fill-rule:nonzero}
    .fil3 {fill:#7ED63E;fill-rule:nonzero}
    .fil14 {fill:#E32210;fill-rule:nonzero}
   ]]>
  </style>
 </defs>
 <g id="Layer_x0020_1">
  <metadata id="CorelCorpID_0Corel-Layer"/>
  <g id="_800859392">
   <g>
    <g>
     <g>
      <g>
       <path class="fil0" d="M37 2l0 43c0,0 -31,-1 -31,0 0,1 0,-35 0,-35l5 -8 0 0c0,0 26,0 26,0z"/>
       <path id="1" class="fil1" d="M37 45l0 1 -1 -1 0 -43 1 0 0 43zm0 0l0 1 0 0 0 -1zm-32 0l0 0 1 0 0 0 0 -1 1 0 1 0 1 0 1 0 1 0 1 0 1 0 1 0 2 0 1 0 1 0 2 0 1 0 2 0 1 0 2 0 1 0 1 0 2 0 1 0 1 0 1 0 1 0 1 0 1 0 0 0 0 0 1 0 0 0 0 2 0 0 -1 0 0 0 -1 0 0 0 -1 0 -1 0 -1 0 -1 -1 -1 0 -2 0 -1 0 -1 0 -2 0 -1 0 -2 0 -1 0 -2 0 -1 0 -1 0 -2 0 -1 0 -1 0 -1 0 -1 0 -1 0 -1 1 -1 0 0 0 -1 0 0 0 0 -1 0 0 -1 0zm1 -34l0 -1 0 0 0 1 0 0 0 1 0 1 0 0 0 2 0 1 0 1 0 1 0 2 0 2 0 1 0 2 0 1 0 2 0 2 0 1 0 2 0 2 0 1 0 2 0 1 0 1 0 1 0 1 0 1 0 1 0 1 0 0 0 0 -1 0 1 0 -1 0 0 0 0 0 0 -1 0 -1 0 -1 0 -1 0 -1 0 -1 0 -1 0 -2 0 -1 0 -2 0 -2 0 -1 0 -2 0 -2 0 -1 0 -2 0 -1 0 -2 0 -2 0 -1 0 -1 0 -1 0 -2 0 0 0 -1 0 -1 0 0 0 -1 0 0 0 0 1 1zm4 -9l0 0 1 1 -5 8 -1 -1 5 -8zm0 0l0 0 0 0 0 0zm1 -1l0 0 0 1 0 1 -1 -1 1 -1zm0 0l0 0 0 0 0 0zm25 1l0 0 1 0 -1 0 0 0 0 0 -1 0 -1 0 0 0 -1 0 -1 0 -1 0 -1 0 -1 0 -2 0 -1 0 -1 0 -1 0 -1 0 -2 0 -1 0 -1 0 -1 0 -1 0 -1 0 -1 0 -1 0 -1 0 0 0 -1 0 0 0 -1 0 0 0 0 0 0 -1 0 0 0 0 1 0 0 0 1 0 0 0 1 0 1 0 1 0 1 0 1 0 1 0 1 0 1 0 2 0 1 0 1 0 1 0 1 0 2 0 1 0 1 0 1 0 1 0 1 0 0 0 1 0 1 0 0 0 0 0 1 0 0 1 0 0 -1 0zm1 0l0 0 0 0 0 0z"/>
      </g>
      <g>
       <path class="fil2" d="M11 2l0 6c0,0 1,2 0,2 -2,0 -6,0 -6,0l6 -8 0 0z"/>
       <path id="1" class="fil1" d="M12 8l-1 0 0 0 0 -6 0 0 1 6zm-1 0l0 0 0 0 0 0zm-1 2l0 0 1 0 0 0 0 0 0 0 0 0 0 0 0 -1 0 0 0 0 0 0 0 0 0 0 0 0 0 0 0 0 0 0 0 0 0 0 0 -1 0 0 0 0 0 0 0 0 0 0 0 0 0 0 0 0 0 0 0 0 0 0 0 0 0 0 1 0 0 0 0 0 0 0 0 0 0 0 0 0 0 0 0 0 0 0 0 0 0 0 -1 0 0 1 0 0 0 0 0 0 0 0 0 0 0 0 0 0 0 0 0 0 0 0 0 1 0 0 0 0 0 0 0 0 0 0 0 0 0 0 0 0 0 0 -1 0zm-4 0l-1 0 0 0 1 0 0 0 0 0 0 0 0 0 0 0 0 0 0 0 0 0 1 0 0 0 0 0 0 0 0 0 1 0 0 0 0 0 0 0 0 0 1 0 0 0 0 0 0 0 0 0 1 0 0 0 0 0 0 0 0 0 0 0 0 0 1 0 -1 0 0 0 0 0 0 0 0 0 0 0 -1 0 0 0 0 0 0 0 0 0 -1 0 0 0 0 0 0 0 0 0 -1 0 0 0 0 0 0 0 0 0 -1 0 0 0 0 0 0 0 0 0 0 0 0 0 0 0 -1 0 0 0 0 0 0 0 1 0zm5 -9l0 1 0 0 -5 8 -1 0 6 -9zm0 0l0 0 0 1 0 -1zm0 1l0 0 0 0 0 0 0 0 0 0zm0 0l0 0 0 0 0 0z"/>
      </g>
     </g>
     <rect class="fil2" transform="matrix(0.275418 -0.00098833 -0.0012497 -0.348258 10.0258 23.5092)" width="82.0989" height="7.36827"/>
     <rect class="fil2" transform="matrix(0.275418 -0.00098833 -0.0012497 -0.348258 10.0088 18.7597)" width="82.0989" height="7.36827"/>
     <rect class="fil2" transform="matrix(0.188235 -0.000675475 -0.0012497 -0.348258 17.1484 13.7282)" width="82.0989" height="7.36827"/>
     <rect class="fil2" transform="matrix(0.275418 -0.00098833 -0.0012497 -0.348258 10.044 28.5819)" width="82.0989" height="7.36827"/>
     <rect class="fil2" transform="matrix(0.275418 -0.00098833 -0.0012497 -0.348258 10.0622 33.6546)" width="82.0989" height="7.36827"/>
     <rect class="fil2" transform="matrix(0.275418 -0.00098833 -0.0012497 -0.348258 10.0802 38.6663)" width="82.0989" height="7.36827"/>
    </g>
    <g id="_815226768">
     <g>
      <path class="fil0" d="M33 4l0 43c0,0 -31,0 -31,0 0,1 0,-35 0,-35l5 -8 0 0c0,0 26,0 26,0z"/>
      <path id="1" class="fil1" d="M34 47l-1 1 0 -1 0 -43 0 0 1 43zm0 0l0 1 -1 0 1 -1zm-32 0l0 0 0 0 0 0 1 0 0 0 1 0 1 -1 1 0 1 0 1 0 1 0 2 0 1 0 1 0 2 0 1 0 2 0 1 0 2 0 1 0 1 0 2 0 1 0 1 0 1 1 1 0 1 0 1 0 1 0 0 0 1 0 0 0 0 0 0 1 0 0 0 0 -1 0 0 0 -1 0 -1 0 -1 0 -1 0 -1 0 -1 0 -1 0 -2 0 -1 0 -1 0 -2 0 -1 0 -2 0 -1 0 -2 0 -1 0 -1 0 -2 0 -1 0 -1 0 -1 0 -1 0 -1 0 -1 0 0 0 -1 0 0 0 1 -1 0 0 -1 0zm0 -34l0 -1 0 0 0 1 0 0 0 1 0 1 0 1 0 1 0 1 0 1 0 2 0 1 0 2 0 1 0 2 0 2 0 1 0 2 0 2 0 1 0 2 0 1 0 2 0 1 0 1 1 1 0 2 0 0 0 1 0 1 0 0 0 0 -1 0 1 0 -1 0 0 0 0 0 0 -1 0 -1 0 0 0 -2 0 -1 0 -1 0 -1 0 -2 0 -1 0 -2 0 -1 0 -2 0 -2 0 -1 0 -2 0 -2 0 -1 0 -2 0 -1 0 -2 0 -1 0 -1 0 -1 0 -1 -1 -1 0 -1 0 0 0 -1 0 0 1 0 0 1zm5 -9l0 0 0 1 -5 8 0 -1 5 -8zm0 0l0 0 0 0 0 0zm0 0l0 -1 1 1 -1 1 0 -1 0 0zm0 0l0 -1 0 0 0 1zm26 0l0 0 0 0 0 0 -1 0 0 0 -1 0 0 0 -1 0 -1 0 -1 0 -1 0 -1 0 -1 0 -1 0 -1 0 -2 0 -1 0 -1 0 -1 0 -1 0 -2 0 -1 0 -1 0 -1 0 -1 0 0 0 -1 0 -1 0 -1 0 0 0 0 0 -1 0 0 0 0 -1 0 0 1 0 0 0 0 0 1 0 1 0 1 0 0 0 1 0 1 0 1 0 1 0 2 0 1 0 1 0 1 0 1 0 2 0 1 0 1 0 1 0 1 0 1 0 1 0 1 0 1 0 0 0 1 0 0 0 1 0 0 0 0 1 0 0 0 0zm0 0l0 0 0 0 0 0z"/>
     </g>
     <g>
      <path class="fil2" d="M7 4l1 6c0,0 0,2 -1,2 -1,0 -5,0 -5,0l5 -8 0 0z"/>
      <path id="1" class="fil1" d="M8 10l0 0 0 0 -1 -6 0 0 1 6zm0 0l0 0 0 0 0 0zm-1 2l0 0 0 0 0 0 0 0 0 0 0 0 0 0 0 0 0 0 0 -1 0 0 0 0 0 0 0 0 0 0 1 0 0 0 0 0 0 0 0 0 0 0 0 -1 0 0 0 0 0 0 0 0 0 0 0 0 0 0 0 0 0 0 0 0 0 0 0 0 0 0 0 0 0 0 0 0 0 0 0 0 0 0 0 0 0 0 0 0 0 0 0 1 0 0 0 0 0 0 0 0 0 0 0 0 0 0 0 0 0 0 0 0 0 1 -1 0 0 0 0 0 0 0 0 0 0 0 0 0 0 0 0 0 0 0 0 0zm-5 0l0 0 0 0 0 0 0 0 0 0 0 0 0 0 0 0 0 0 1 0 0 0 0 0 0 0 0 0 0 0 1 0 0 0 0 0 0 0 1 0 0 0 0 0 0 0 0 0 1 0 0 0 0 0 0 0 0 0 0 0 1 0 0 0 0 0 0 0 0 0 0 0 -1 0 0 0 0 0 0 0 0 0 0 0 -1 0 0 0 0 0 0 0 0 0 -1 0 0 0 0 0 0 0 -1 0 0 0 0 0 0 0 0 0 0 0 -1 0 0 0 0 0 0 0 0 0 0 0 0 0 0 0 0 0 0 0 0 0zm5 -8l0 0 0 0 -5 8 0 0 5 -8zm0 0l0 -1 0 1 0 0zm0 0l0 0 0 0 0 0 0 0 0 0zm0 0l0 0 0 0 0 0z"/>
     </g>
    </g>
   </g>
   <g>
    <rect class="fil2" x="11" y="11" width="15.6466" height="2.87141"/>
    <rect class="fil2" x="8" y="16" width="10.0951" height="2.87141"/>
    <rect class="fil2" x="20" y="16" width="9.62331" height="2.87141"/>
    <rect class="fil2" x="8" y="22" width="10.0951" height="2.87141"/>
    <rect class="fil2" x="20" y="22" width="9.62331" height="2.87141"/>
    <rect class="fil2" x="8" y="27" width="10.0951" height="2.87141"/>
    <rect class="fil2" x="20" y="27" width="9.62331" height="2.87141"/>
    <rect class="fil2" x="8" y="33" width="10.0951" height="2.87141"/>
    <rect class="fil2" x="20" y="33" width="9.62331" height="2.87141"/>
   </g>
   <g>
    <g>
     <polygon class="fil3" points="5,46 29,46 29,32 5,32 "/>
     <path class="fil4" d="M28 36l0 6c-1,0 -2,1 -2,2l-18 0c0,-1 -1,-2 -2,-2l0 -6c1,0 2,-1 2,-2l18 0c0,1 1,2 2,2z"/>
     <path class="fil5" d="M19 39c0,1 -1,2 -2,2 -1,0 -2,-1 -2,-2 0,-1 1,-2 2,-2 1,0 2,1 2,2z"/>
     <path class="fil3" d="M5 37l0 9 8 0c-2,0 -4,-1 -6,-3 -1,-1 -2,-4 -2,-6z"/>
     <polygon class="fil5" points="22,40 24,40 24,38 22,38 "/>
     <polygon class="fil5" points="10,40 12,40 12,38 10,38 "/>
    </g>
    <g>
     <polygon class="fil3" points="1,49 25,49 25,35 1,35 "/>
     <path class="fil4" d="M24 39l0 6c-1,0 -2,1 -2,2l-18 0c0,-1 -1,-2 -2,-2l0 -6c1,0 2,-1 2,-2l18 0c0,1 1,2 2,2z"/>
     <path class="fil5" d="M15 42c0,1 -1,2 -2,2 -1,0 -2,-1 -2,-2 0,-1 1,-2 2,-2 1,0 2,1 2,2z"/>
     <path class="fil3" d="M1 40l0 9 8 0c-2,0 -4,-1 -6,-3 -1,-1 -2,-4 -2,-6z"/>
     <polygon class="fil5" points="18,42 20,42 20,41 18,41 "/>
     <polygon class="fil5" points="6,42 8,42 8,41 6,41 "/>
    </g>
   </g>
   <g>
    <circle class="fil6" cx="8" cy="39" r="8"/>
    <path class="fil7" d="M10 41c0,0 0,-1 0,-1 -1,0 -1,0 -2,0 0,-1 0,-1 -1,-1 0,0 -1,0 -1,-1 0,0 0,0 0,-1 -1,0 -1,0 -1,-1 0,-1 1,-1 1,-2 1,0 1,0 2,-1l0 -1 1 0 0 1c1,1 2,1 2,2 1,0 1,1 1,2l-2 0c0,-1 0,-1 0,-2 -1,0 -1,0 -1,0 -1,0 -1,0 -1,0 -1,1 -1,1 -1,1 0,1 0,1 1,1 0,0 0,1 1,1 0,0 1,0 1,0 1,1 1,1 1,1 0,0 1,1 1,1 0,0 0,1 0,1 0,1 0,2 -1,2 0,1 -1,1 -2,1l0 1 -1 0 0 -1c-1,0 -2,-1 -2,-1 -1,-1 -1,-1 -1,-2l2 0c0,0 0,1 0,1 1,0 1,0 2,0 0,0 0,0 1,0 0,0 0,-1 0,-1z"/>
   </g>
   <g>
    <path class="fil8" d="M40 45l0 0c0,0 0,0 0,0l0 2 1 1c0,-1 0,-1 0,-1l0 -2c0,0 0,0 -1,0z"/>
    <path class="fil9" d="M41 46c0,0 0,0 0,0l-1 0c0,0 0,0 0,0l-1 -4c0,0 0,0 1,0l2 0c0,0 0,0 0,0l-1 4z"/>
    <path class="fil10" d="M41 44l0 -2 -1 0c-1,0 -1,0 -1,0l1 4c0,0 0,0 0,0l1 0c0,0 0,0 0,0 0,-1 0,-1 0,-2 0,0 0,0 0,0z"/>
    <path class="fil9" d="M42 4l-2 0c0,0 0,0 0,0l0 -3c0,-1 0,-1 0,-1l2 0c0,0 1,1 1,1l0 3c-1,0 -1,0 -1,0z"/>
    <path class="fil10" d="M42 2c0,0 0,0 0,0 -1,0 -1,0 -1,-1l0 -1 -1 0c0,0 0,0 0,1l0 3c0,0 0,0 0,0l2 0c0,0 0,0 1,0l0 -2 -1 0z"/>
    <path class="fil11" d="M42 42l-2 0c-1,0 -1,0 -1,-1l0 -36c0,-1 1,-1 1,-1l2 0c1,0 1,0 1,1l-1 36c0,1 0,1 0,1z"/>
    <path class="fil9" d="M41 40c0,0 -1,0 -1,-1l1 -35 -1 0c0,0 -1,0 -1,1l0 36c0,1 0,1 1,1l2 0c0,0 0,0 0,-1l0 0 -1 -1z"/>
    <polygon class="fil10" points="39,31 43,31 42,36 39,36 "/>
    <polygon class="fil10" points="39,36 39,31 41,31 40,36 "/>
    <polygon class="fil10" points="39,4 43,4 43,31 39,31 "/>
    <polygon class="fil9" points="39,4 39,30 39,31 41,31 41,4 "/>
   </g>
   <g>
    <rect class="fil12" x="30" y="23" width="18.0796" height="23.9985" rx="2" ry="2"/>
    <path class="fil13" d="M32 25l14 0c0,0 0,1 0,1l0 3 -14 0 0 -3c0,0 0,-1 0,-1z"/>
    <g>
     <rect class="fil13" x="32" y="31" width="7.24283" height="6.62568"/>
     <rect class="fil13" x="39" y="31" width="7.16525" height="6.62568"/>
     <rect class="fil13" x="32" y="38" width="7.24283" height="6.62568"/>
     <rect class="fil13" x="39" y="38" width="7.16525" height="6.62568"/>
     <path class="fil14" d="M36 43l-1 -1 0 1c-1,0 -1,0 -1,0 0,0 0,0 0,0 0,0 0,0 0,0 0,0 0,0 0,0 0,0 0,0 0,-1l1 -1 -1 -1c0,0 0,0 0,0 0,0 0,0 0,0 0,-1 0,-1 0,-1 0,0 0,0 0,1 0,0 1,0 1,0l0 1 1 -1c0,0 0,0 0,0 0,-1 0,-1 0,-1 1,0 1,0 1,1 0,0 0,0 0,0 0,0 0,0 0,0 0,0 0,0 0,0l-1 1 1 1c0,1 0,1 0,1 0,0 0,0 0,0 0,0 0,0 0,0 -1,0 -1,0 -1,0 0,0 0,0 0,0z"/>
     <polygon class="fil14" points="36,36 35,36 35,35 33,35 33,34 35,34 35,32 36,32 36,34 37,34 37,35 36,35 "/>
     <path class="fil14" d="M44 35l-2 0c-1,0 -1,0 -1,0 0,0 0,0 0,-1 0,0 0,0 0,0 0,0 0,0 1,0l2 0c0,0 0,0 0,0 1,0 1,0 1,0 0,1 0,1 -1,1 0,0 0,0 0,0z"/>
     <path class="fil14" d="M44 42l-3 0 0 0 3 0 0 0zm0 -1l-3 0 0 -1 3 0 0 1z"/>
    </g>
   </g>
   <path class="fil15" d="M42 4l2 0 0 6c0,0 0,0 -1,0l0 -6 -1 0c0,0 0,0 0,0z"/>
  </g>
 </g>
</svg>
