<?xml version="1.0" encoding="UTF-8"?>
<!DOCTYPE svg PUBLIC "-//W3C//DTD SVG 1.1//EN" "http://www.w3.org/Graphics/SVG/1.1/DTD/svg11.dtd">
<!-- Creator: CorelDRAW X7 -->
<svg xmlns="http://www.w3.org/2000/svg" xml:space="preserve" width="48px" height="37px" version="1.1" style="shape-rendering:geometricPrecision; text-rendering:geometricPrecision; image-rendering:optimizeQuality; fill-rule:evenodd; clip-rule:evenodd"
viewBox="0 0 48 36"
 xmlns:xlink="http://www.w3.org/1999/xlink">
 <defs>
  <style type="text/css">
   <![CDATA[
    .fil0 {fill:#FEFEFE}
    .fil2 {fill:#2887D2}
    .fil3 {fill:#F0A71F}
    .fil6 {fill:#FC4D44}
    .fil4 {fill:#00A859;fill-rule:nonzero}
    .fil1 {fill:#2887D2;fill-rule:nonzero}
    .fil5 {fill:url(#id0);fill-rule:nonzero}
   ]]>
  </style>
  <linearGradient id="id0" gradientUnits="userSpaceOnUse" x1="31.0782" y1="32.1869" x2="44.7029" y2="13.8562">
   <stop offset="0" style="stop-opacity:1; stop-color:#1CC8EB"/>
   <stop offset="0.631373" style="stop-opacity:1; stop-color:#0E96E0"/>
   <stop offset="1" style="stop-opacity:1; stop-color:#0063D4"/>
  </linearGradient>
 </defs>
 <g id="Layer_x0020_1">
  <metadata id="CorelCorpID_0Corel-Layer"/>
  <g id="_805247672">
   <g>
    <g>
     <g>
      <g>
       <path class="fil0" d="M28 13l-9 22c0,0 -16,-6 -16,-6 0,1 7,-18 7,-18l4 -3 0 -1c0,0 14,6 14,6z"/>
       <path id="1" class="fil1" d="M19 35l0 1 0 -1 8 -23 1 1 -9 22zm0 0l0 1 0 0 0 -1zm-17 -6l0 0 1 0 0 0 0 0 1 0 0 0 0 0 1 0 0 0 1 1 1 0 0 0 1 0 1 1 1 0 0 0 1 0 1 1 1 0 0 0 1 1 1 0 0 0 1 0 1 1 0 0 1 0 0 0 0 0 1 1 0 0 0 0 0 0 0 1 0 0 0 0 -1 0 0 -1 0 0 -1 0 0 0 -1 0 0 -1 -1 0 -1 0 0 0 -1 -1 -1 0 0 0 -1 -1 -1 0 -1 0 0 0 -1 -1 -1 0 -1 0 0 0 -1 -1 0 0 -1 0 0 0 -1 0 0 0 0 0 0 0 0 -1 0 0 -1 0zm8 -18l0 0 0 0 0 0 0 0 0 1 0 0 0 1 -1 0 0 1 0 1 -1 0 0 1 0 1 0 1 -1 1 0 0 0 1 -1 1 0 1 0 1 -1 1 0 0 0 1 -1 1 0 1 0 0 0 1 -1 0 0 1 0 0 0 0 0 0 -1 0 1 0 -1 0 0 0 0 -1 1 0 0 0 0 -1 0 0 0 -1 1 -1 0 0 0 -1 1 -1 0 -1 0 0 1 -1 0 -1 0 -1 1 -1 0 -1 0 -1 0 0 1 -1 0 -1 0 -1 1 0 0 -1 0 0 0 -1 0 0 0 0 0 0 0 -1 1 0 0 1zm4 -4l0 0 0 1 -4 3 0 -1 4 -3zm0 0l0 0 0 0 0 0zm0 0l0 0 1 1 -1 0 0 -1 0 0zm0 0l0 0 0 0 0 0zm13 5l0 0 1 1 -1 0 0 0 0 0 0 0 -1 0 0 -1 0 0 -1 0 0 0 -1 0 -1 -1 0 0 -1 0 0 0 -1 -1 -1 0 0 0 -1 0 -1 0 0 -1 -1 0 0 0 -1 0 0 0 -1 -1 0 0 0 0 0 0 -1 0 0 0 0 0 0 -1 1 0 0 0 0 0 0 0 0 0 1 0 0 1 1 0 0 0 1 0 0 0 1 1 0 0 1 0 1 0 0 0 1 1 0 0 1 0 1 0 0 1 1 0 0 0 1 0 0 0 1 1 0 0 0 0 1 0 0 0 0 0 0 1 0 0 -1 -1zm1 1l0 0 0 0 0 0z"/>
      </g>
      <g>
       <path class="fil2" d="M14 8l-1 3c0,0 0,1 -1,1 0,0 -2,-1 -2,-1l4 -4 0 1z"/>
       <path id="1" class="fil1" d="M13 11l0 0 0 0 1 -3 0 0 -1 3zm0 0l0 0 0 0 0 0zm-1 1l0 0 0 0 1 0 0 -1 0 0 0 0 0 0 0 0 0 0 0 0 0 0 0 0 0 0 0 0 0 0 0 0 0 0 0 0 0 0 0 0 0 0 0 0 0 0 0 0 0 0 0 0 0 0 0 0 0 0 0 0 0 0 0 0 0 0 0 0 0 0 0 0 0 0 0 0 0 0 0 0 0 0 0 0 0 0 0 0 0 0 0 0 0 0 0 0 0 0 0 0 0 0 0 0 0 0 0 0 0 0 0 0 0 0 0 0 0 1 0 0 0 0 0 0 0 0 0 0 -1 0 0 0 0 0 0 0zm-2 -1l0 0 0 0 0 0 0 0 0 0 0 0 0 0 0 0 0 0 0 0 0 0 0 0 0 0 1 0 0 0 0 0 0 0 0 0 0 0 0 0 0 0 0 0 1 0 0 0 0 0 0 0 0 0 0 0 0 0 0 0 0 0 0 1 0 0 0 0 0 0 0 0 0 0 0 0 0 0 0 0 0 -1 0 0 0 0 0 0 -1 0 0 0 0 0 0 0 0 0 0 0 0 0 0 0 0 0 -1 0 0 0 0 0 0 0 0 0 0 0 0 0 0 0 0 0 0 0 0 0 0 0 0 0 0 0 0 0zm4 -4l0 0 0 0 -4 4 0 0 4 -4zm0 0l1 0 -1 0 0 0zm0 1l0 0 0 0 0 -1 0 0 0 1zm0 0l0 0 0 0 0 0z"/>
      </g>
     </g>
     <rect class="fil2" transform="matrix(0.147713 0.0570741 0.0721697 -0.186773 9.39329 18.5654)" width="80.0334" height="7.1829"/>
     <rect class="fil2" transform="matrix(0.147713 0.0570741 0.0721697 -0.186773 10.3528 16.0823)" width="80.0334" height="7.1829"/>
     <rect class="fil2" transform="matrix(0.100954 0.0390074 0.0721697 -0.186773 15.1062 14.9111)" width="80.0334" height="7.1829"/>
     <rect class="fil2" transform="matrix(0.147713 0.0570741 0.0721697 -0.186773 8.36852 21.2174)" width="80.0334" height="7.1829"/>
     <rect class="fil2" transform="matrix(0.147713 0.0570741 0.0721697 -0.186773 7.34375 23.8695)" width="80.0334" height="7.1829"/>
     <rect class="fil2" transform="matrix(0.147713 0.0570741 0.0721697 -0.186773 6.3313 26.4897)" width="80.0334" height="7.1829"/>
    </g>
    <g id="_805218992">
     <g>
      <path class="fil0" d="M25 13l-8 23c0,0 -16,-7 -17,-7 0,1 7,-18 7,-18l5 -3 0 0c0,0 13,5 13,5z"/>
      <path id="1" class="fil1" d="M17 36l0 0 -1 -1 9 -22 1 0 -9 23zm0 0l0 0 0 0 0 0zm-17 -7l0 0 0 0 1 0 0 0 0 0 1 0 0 0 1 0 0 1 1 0 0 0 1 0 1 1 0 0 1 0 1 1 1 0 0 0 1 0 1 1 1 0 0 0 1 1 1 0 0 0 1 0 0 1 1 0 0 0 0 0 1 0 0 0 0 0 0 1 -1 0 0 0 0 0 0 0 -1 0 0 0 0 -1 -1 0 -1 0 0 0 -1 -1 -1 0 0 0 -1 -1 -1 0 -1 0 0 0 -1 -1 -1 0 -1 0 0 -1 -1 0 -1 0 0 0 -1 -1 0 0 -1 0 0 0 0 0 0 0 -1 0 1 0 0 0 -1 -1zm8 -17l0 -1 0 0 0 1 0 0 0 0 -1 1 0 0 0 1 0 0 -1 1 0 1 0 0 0 1 -1 1 0 1 0 1 -1 1 0 1 0 0 -1 1 0 1 0 1 -1 1 0 0 0 1 0 1 -1 0 0 1 0 0 0 0 0 1 0 0 -1 -1 1 1 -1 -1 0 0 0 0 0 0 0 -1 1 0 0 -1 0 0 0 -1 1 -1 0 -1 0 0 0 -1 1 -1 0 -1 0 -1 1 -1 0 -1 0 0 1 -1 0 -1 0 -1 1 -1 0 0 0 -1 0 0 1 -1 0 0 0 -1 0 0 0 0 0 0 0 0 1 1zm4 -5l0 0 0 1 -4 4 -1 -1 5 -4zm0 0l0 0 0 0 0 0zm0 0l0 0 0 1 0 0 0 -1 0 0zm0 0l0 0 0 0 0 0zm13 6l0 0 0 0 0 0 0 0 0 0 -1 0 0 0 0 0 -1 0 0 -1 -1 0 0 0 -1 0 -1 0 0 -1 -1 0 0 0 -1 0 -1 -1 0 0 -1 0 0 0 -1 -1 -1 0 0 0 0 0 -1 0 0 0 -1 0 0 -1 0 0 0 0 0 0 0 -1 0 0 0 0 0 0 1 1 0 0 0 0 1 0 0 0 1 0 0 0 1 1 0 0 1 0 1 0 0 1 1 0 0 0 1 0 1 1 0 0 1 0 0 0 1 0 0 1 1 0 0 0 1 0 0 0 0 0 0 0 1 0 0 1 0 0 -1 0zm1 0l0 0 0 0 0 0z"/>
     </g>
     <g>
      <path class="fil2" d="M12 8l-1 3c0,0 0,1 -1,1 -1,0 -3,-1 -3,-1l5 -3 0 0z"/>
      <path id="1" class="fil1" d="M11 11l0 0 0 0 1 -3 0 0 -1 3zm0 0l0 0 0 0 0 0zm-1 1l0 0 0 0 0 0 0 0 0 0 0 0 0 0 0 0 0 0 0 0 0 0 1 0 0 0 0 0 0 0 0 0 0 -1 0 0 0 0 0 0 0 0 0 0 0 0 0 0 0 0 0 0 0 0 0 0 0 0 0 0 0 0 0 0 0 0 0 0 0 0 0 0 0 0 0 0 0 0 0 0 0 0 0 0 0 0 0 0 0 0 0 0 0 0 0 0 0 0 0 1 0 0 0 0 0 0 0 0 0 0 0 0 0 0 -1 0 0 0 0 0 0 0 0 0 0 0 0 0 0 0 0 0 0 0 0 0zm-3 -1l0 0 0 0 0 0 0 0 0 0 1 0 0 0 0 0 0 0 0 0 0 0 0 0 0 0 0 0 0 0 0 0 1 0 0 0 0 0 0 1 0 0 0 0 0 0 0 0 0 0 0 0 1 0 0 0 0 0 0 0 0 0 0 0 0 0 0 0 0 0 0 0 0 0 0 0 0 0 0 0 -1 0 0 0 0 0 0 0 0 0 0 0 0 0 0 0 0 0 -1 0 0 -1 0 0 0 0 0 0 0 0 0 0 0 0 0 0 0 0 0 0 -1 0 0 0 0 0 0 0 0 0 0 0 0 0 0 0zm5 -3l0 0 0 0 -5 3 0 0 5 -3zm0 0l0 0 0 0 0 0zm0 0l0 0 0 0 0 0 0 0 0 0zm0 0l0 0 0 0 0 0z"/>
     </g>
    </g>
   </g>
   <g>
    <circle class="fil3" cx="25" cy="13" r="5"/>
    <path class="fil4" d="M26 15c0,-1 0,-1 0,-1 0,0 0,0 -1,0 0,-1 0,-1 0,-1 -1,0 -1,0 -1,0 0,0 0,-1 0,-1 0,0 -1,0 -1,0 0,-1 1,-1 1,-2 0,0 1,0 1,0l0 -1 1 0 0 1c0,0 1,0 1,0 0,1 1,1 1,2l-2 0c0,-1 0,-1 0,-1 0,0 0,0 -1,0 0,0 0,0 0,0 0,0 0,0 0,1 0,0 0,0 0,0 0,0 0,0 1,0 0,1 0,1 0,1 1,0 1,0 1,0 0,0 0,1 0,1 0,0 1,0 1,1 0,0 -1,0 -1,1 0,0 -1,0 -1,0l0 1 -1 0 0 -1c0,0 -1,0 -1,0 -1,-1 -1,-1 -1,-2l2 0c0,1 0,1 0,1 0,0 0,0 0,0 1,0 1,0 1,0 0,0 0,0 0,0z"/>
   </g>
   <path class="fil5" d="M28 32l1 0c0,0 0,0 0,0 0,0 0,1 0,1 1,0 1,0 1,0 0,0 0,0 1,1 0,0 0,0 0,0 0,0 0,0 1,0 0,0 0,0 0,0 1,1 2,1 3,1 0,0 0,0 0,0 1,0 1,0 2,0 0,0 0,0 0,0 0,1 1,1 1,1 0,0 1,0 1,-1 0,0 0,0 0,0 1,0 1,0 1,0 1,0 1,0 1,0 1,0 2,0 3,-1 0,0 0,0 0,0 1,0 1,0 1,0 0,0 0,0 0,0 1,-1 1,-1 1,-1 0,0 0,0 1,0 0,0 0,-1 0,-1 0,0 0,0 0,0l1 0c-2,-2 -4,-3 -6,-3 0,-1 -1,-1 -1,-2l0 -1c0,0 1,0 1,-1 0,0 1,-1 1,-2 1,-1 1,-1 1,-2l0 -2c0,0 0,-1 0,-1l0 -3c0,0 0,-2 -1,-3 -1,-1 -3,-1 -5,-1 -2,0 -2,0 -3,1 -1,0 -1,-1 -2,0 -1,2 -1,3 -1,3l0 3c0,0 0,1 0,1l0 2c0,1 0,1 0,1 1,2 2,3 2,4l0 1c0,1 0,1 0,1l-5 3c0,0 0,0 -1,1z"/>
   <path class="fil6" d="M28 4c2,1 4,2 6,3 -2,1 -2,1 -3,2l7 0c0,-3 0,-5 0,-7l0 0c-1,1 0,0 -1,1 -5,-2 -7,-4 -13,-2 -2,0 -5,2 -7,4 1,0 2,0 3,-1 2,-1 5,-1 8,0z"/>
   <g>
    <rect class="fil2" transform="matrix(0.186809 0.0721793 -0.0721808 0.186805 9.02697 13.2721)" width="65.2359" height="8.67323"/>
    <rect class="fil2" transform="matrix(0.0873192 0.0337385 -0.0721808 0.186805 7.95082 16.0572)" width="65.2359" height="8.67323"/>
    <rect class="fil2" transform="matrix(-0.0832381 -0.0321616 -0.0721808 0.186805 20.1374 20.7659)" width="65.2359" height="8.67323"/>
    <rect class="fil2" transform="matrix(0.0873192 0.0337385 -0.0721808 0.186805 6.74946 19.1663)" width="65.2359" height="8.67323"/>
    <rect class="fil2" transform="matrix(-0.0832381 -0.0321616 -0.0721808 0.186805 18.9361 23.875)" width="65.2359" height="8.67323"/>
    <rect class="fil2" transform="matrix(0.0873192 0.0337385 -0.0721808 0.186805 5.5481 22.2754)" width="65.2359" height="8.67323"/>
    <rect class="fil2" transform="matrix(-0.0832381 -0.0321616 -0.0721808 0.186805 17.7347 26.9841)" width="65.2359" height="8.67323"/>
    <rect class="fil2" transform="matrix(0.0873192 0.0337385 -0.0721808 0.186805 4.34674 25.3846)" width="65.2359" height="8.67323"/>
    <rect class="fil2" transform="matrix(-0.0832381 -0.0321616 -0.0721808 0.186805 16.5334 30.0933)" width="65.2359" height="8.67323"/>
   </g>
  </g>
 </g>
</svg>
