<?xml version="1.0" encoding="UTF-8"?>
<!DOCTYPE svg PUBLIC "-//W3C//DTD SVG 1.1//EN" "http://www.w3.org/Graphics/SVG/1.1/DTD/svg11.dtd">
<!-- Creator: CorelDRAW X7 -->
<svg xmlns="http://www.w3.org/2000/svg" xml:space="preserve" width="117px" height="112px" version="1.1" style="shape-rendering:geometricPrecision; text-rendering:geometricPrecision; image-rendering:optimizeQuality; fill-rule:evenodd; clip-rule:evenodd"
viewBox="0 0 117 112"
 xmlns:xlink="http://www.w3.org/1999/xlink">
 <defs>
  <style type="text/css">
   <![CDATA[
    .fil2 {fill:#FEFEFE}
    .fil3 {fill:#2887D2}
    .fil1 {fill:#306FB6}
    .fil7 {fill:#FCBC44}
    .fil6 {fill:#FEFEFE;fill-rule:nonzero}
    .fil8 {fill:#00A859;fill-rule:nonzero}
    .fil4 {fill:#0098DA;fill-rule:nonzero}
    .fil0 {fill:#2887D2;fill-rule:nonzero}
    .fil5 {fill:#FC4D44;fill-rule:nonzero}
   ]]>
  </style>
 </defs>
 <g id="Layer_x0020_1">
  <metadata id="CorelCorpID_0Corel-Layer"/>
  <g id="_772723912">
   <g>
    <g>
     <polygon class="fil0" points="93,27 93,12 96,12 96,27 "/>
    </g>
    <g>
     <polygon class="fil0" points="102,37 117,37 117,39 102,39 "/>
    </g>
    <g>
     <polygon class="fil0" points="100,32 99,31 111,19 112,20 "/>
    </g>
   </g>
   <polygon class="fil1" points="18,101 105,101 105,53 63,15 18,53 "/>
   <g>
    <g>
     <path class="fil2" d="M35 22l0 79c0,0 57,-2 57,0 0,2 0,-64 0,-64l-10 -15 0 -1c0,0 -47,0 -47,1z"/>
     <path id="1" class="fil0" d="M35 101l0 -79 0 0 0 79 0 0 0 0zm0 0l0 0 0 0 0 0zm57 0l-1 0 0 0 1 0 -1 0 -1 0 -1 0 -1 0 -1 0 -2 0 -2 0 -2 0 -2 0 -3 0 -2 0 -3 0 -2 0 -3 0 -3 0 -2 0 -3 0 -3 0 -2 0 -3 0 -2 0 -2 0 -2 0 -2 0 -2 0 -1 0 -2 0 -1 0 0 0 -1 0 0 0 0 -1 0 0 1 0 0 0 1 0 2 0 1 0 2 0 2 0 2 0 2 0 2 0 3 0 2 0 3 0 3 0 2 0 3 0 3 0 2 0 3 0 2 0 3 0 2 0 2 0 2 0 2 0 1 0 1 0 1 0 1 0 1 1 0 0 0 0zm0 -64l0 0 0 0 0 0 0 1 0 0 0 2 0 1 0 2 0 2 0 2 0 3 0 2 0 3 0 3 0 3 0 3 0 3 0 3 0 3 0 3 0 3 0 3 0 2 0 3 0 2 0 3 0 2 0 2 0 1 0 2 0 1 0 1 0 0 -1 0 1 0 -1 0 0 0 0 -1 0 -1 0 -2 0 -1 0 -2 0 -2 0 -3 0 -2 0 -3 0 -2 0 -3 0 -3 0 -3 0 -3 0 -3 0 -3 0 -3 0 -3 0 -3 0 -3 0 -2 0 -3 0 -2 0 -2 0 -2 0 -1 0 -2 0 0 0 -1 0 0 1 0zm-9 -15l9 15 0 0 -10 -15 1 0 0 0zm0 0l0 0 0 0 0 0zm-1 -1l1 1 -1 1 0 -1 0 -1 0 0zm0 0l0 0 0 0 0 0zm-47 1l0 0 0 0 0 -1 0 0 1 0 1 0 1 0 1 0 2 0 1 0 2 0 2 0 2 0 2 0 2 0 2 0 2 0 2 0 3 0 2 0 2 0 2 0 2 0 2 0 2 0 2 0 1 0 2 0 1 0 1 0 1 0 0 0 1 0 0 0 0 1 0 0 -1 0 0 0 -1 0 -1 0 -1 0 -2 0 -1 0 -2 0 -2 0 -2 0 -2 0 -2 0 -2 0 -2 0 -3 0 -2 0 -2 0 -2 0 -2 0 -2 0 -2 0 -2 0 -2 0 -1 0 -2 0 -1 0 -1 0 -1 0 -1 0 0 0 0 0 0 0z"/>
    </g>
    <g>
     <path class="fil3" d="M82 22l-1 11c0,0 0,3 2,3 2,1 9,1 9,1l-10 -16 0 1z"/>
     <path id="1" class="fil0" d="M81 33l1 -11 0 0 -1 11 0 0 0 0zm0 0l0 0 0 0 0 0zm2 3l0 1 0 0 0 0 -1 -1 0 0 0 0 0 0 0 0 0 0 0 0 0 0 0 -1 -1 0 0 0 0 0 0 0 0 -1 0 0 0 0 0 0 0 0 0 0 0 0 0 -1 0 0 0 0 0 0 0 0 0 0 0 0 0 0 0 0 0 0 0 0 0 0 0 0 0 0 0 0 0 0 0 0 0 0 0 0 0 0 0 0 0 0 0 0 0 1 0 0 1 0 0 0 0 0 0 0 0 1 0 0 0 0 0 0 0 0 0 0 0 0 0 1 0 0 0 0 0 0 1 0 0 0 0 0 0 0 0 0zm9 1l0 0 0 0 0 0 0 0 0 0 0 0 0 0 -1 0 0 0 0 0 0 0 -1 0 0 0 0 0 -1 0 0 0 0 0 -1 0 0 0 -1 0 0 0 0 0 -1 0 0 0 0 0 -1 0 0 0 -1 0 0 0 0 0 0 0 -1 0 0 0 0 0 0 -1 0 0 0 0 1 0 0 0 0 0 0 0 1 0 0 1 1 0 0 0 0 0 1 0 0 0 0 0 1 0 0 0 1 0 0 0 0 0 1 0 0 0 0 0 1 0 0 0 0 0 0 0 1 0 0 0 0 0 0 0 0 0 0 0 0 0zm-10 -16l10 16 0 0 -10 -16 0 0 0 0zm0 0l0 -1 0 1 0 0zm0 1l0 -1 0 0 0 1 0 0 0 0zm0 0l0 0 0 0 0 0z"/>
    </g>
   </g>
   <polygon class="fil0" points="18,101 105,101 73,77 49,77 "/>
   <polygon class="fil4" points="18,101 18,53 49,77 "/>
   <polygon class="fil4" points="105,101 105,53 73,77 "/>
   <path class="fil5" d="M43 23c1,-10 -7,-20 -17,-22 -11,-3 -23,4 -25,16 -3,11 4,23 16,25 9,3 19,-2 24,-11 5,0 11,0 17,0 -15,-8 -10,-5 -15,-8z"/>
   <g>
    <path class="fil6" d="M33 30l-2 -3c-1,-2 -1,-3 -1,-5l0 -3c0,-3 -3,-6 -6,-7l0 -2c0,-2 -1,-3 -2,-3 -2,0 -3,1 -3,3l0 2c-3,1 -5,4 -5,7l0 3c0,2 -1,3 -2,5l-2 3c0,0 0,1 0,1 1,0 1,0 1,0l21 0c1,0 1,0 1,0 0,0 0,-1 0,-1z"/>
    <path class="fil6" d="M22 34c1,0 3,0 3,-2l-7 0c1,2 2,2 4,2z"/>
   </g>
   <rect class="fil3" x="49" y="61" width="32.3327" height="4.6998"/>
   <rect class="fil3" x="49" y="50" width="32.3327" height="4.6998"/>
   <rect class="fil3" x="49" y="41" width="22.0978" height="4.6998"/>
   <g>
    <circle class="fil7" cx="99" cy="95" r="17"/>
    <path class="fil8" d="M102 100c0,-1 0,-1 0,-2 -1,0 -2,-1 -3,-1 -1,-1 -1,-1 -2,-1 -1,-1 -2,-1 -2,-2 -1,0 -1,-1 -1,-1 -1,-1 -1,-2 -1,-3 0,-1 1,-3 2,-4 1,-1 2,-1 4,-1l0 -3 2 0 0 3c2,0 3,1 4,2 1,1 1,2 1,4l-4 0c0,-1 0,-2 0,-2 -1,-1 -2,-1 -2,-1 -1,0 -2,0 -2,0 -1,1 -1,1 -1,2 0,1 0,2 1,2 0,0 1,1 2,1 1,1 2,1 3,2 1,0 1,0 2,1 0,0 1,1 1,2 0,0 0,1 0,2 0,1 0,3 -1,4 -1,1 -3,1 -4,2l0 2 -3 0 0 -2c-1,-1 -3,-1 -4,-3 -1,-1 -2,-2 -2,-4l4 0c0,1 1,2 1,2 1,1 2,1 3,1 0,0 1,0 2,0 0,-1 0,-1 0,-2z"/>
   </g>
  </g>
 </g>
</svg>
