<?xml version="1.0" encoding="UTF-8"?>
<!DOCTYPE svg PUBLIC "-//W3C//DTD SVG 1.1//EN" "http://www.w3.org/Graphics/SVG/1.1/DTD/svg11.dtd">
<!-- Creator: CorelDRAW X7 -->
<svg xmlns="http://www.w3.org/2000/svg" xml:space="preserve" width="48px" height="46px" version="1.1" style="shape-rendering:geometricPrecision; text-rendering:geometricPrecision; image-rendering:optimizeQuality; fill-rule:evenodd; clip-rule:evenodd"
viewBox="0 0 48 46"
 xmlns:xlink="http://www.w3.org/1999/xlink">
 <defs>
  <style type="text/css">
   <![CDATA[
    .fil2 {fill:#FEFEFE}
    .fil3 {fill:#2887D2}
    .fil1 {fill:#306FB6}
    .fil7 {fill:#FCBC44}
    .fil6 {fill:#FEFEFE;fill-rule:nonzero}
    .fil8 {fill:#00A859;fill-rule:nonzero}
    .fil4 {fill:#0098DA;fill-rule:nonzero}
    .fil0 {fill:#2887D2;fill-rule:nonzero}
    .fil5 {fill:#FC4D44;fill-rule:nonzero}
   ]]>
  </style>
 </defs>
 <g id="Layer_x0020_1">
  <metadata id="CorelCorpID_0Corel-Layer"/>
  <g id="_788028152">
   <g>
    <g>
     <polygon class="fil0" points="38,11 38,5 39,5 39,11 "/>
    </g>
    <g>
     <polygon class="fil0" points="42,15 48,15 48,16 42,16 "/>
    </g>
    <g>
     <polygon class="fil0" points="41,13 41,13 45,8 46,8 "/>
    </g>
   </g>
   <g>
    <g>
     <polygon class="fil1" points="7,42 43,42 43,22 26,6 7,22 "/>
     <g id="_788029688">
      <g>
       <path class="fil2" d="M14 9l0 32c0,0 24,0 24,0 0,1 0,-26 0,-26l-4 -6 0 0c0,0 -20,0 -20,0z"/>
       <path id="1" class="fil0" d="M14 41l0 -32 0 0 0 32 0 1 0 -1zm0 1l0 0 0 -1 0 1zm24 -1l0 0 0 0 0 1 -1 0 0 0 0 -1 -1 0 0 0 -1 0 -1 0 -1 0 -1 0 -1 0 -1 0 -1 0 -1 0 -1 0 -1 0 -1 0 -1 0 -1 0 -1 0 -1 0 -1 0 -1 0 -1 0 -1 1 -1 0 0 0 -1 0 0 0 0 0 -1 0 0 0 0 -1 0 0 1 0 0 0 0 0 1 0 0 0 1 0 1 0 1 0 1 0 1 0 1 0 1 0 1 0 1 0 1 0 1 0 1 0 1 0 1 0 1 0 1 0 1 0 1 0 1 0 1 0 0 0 1 0 0 0 0 0 1 0 0 0 0 0zm0 -26l0 0 0 0 0 0 0 0 0 1 0 0 0 1 0 1 0 0 0 1 0 1 0 1 0 1 0 2 0 1 0 1 0 1 0 2 0 1 0 1 0 1 0 1 0 2 0 1 0 1 0 1 0 1 0 0 0 1 0 1 0 0 0 0 0 0 0 0 0 0 0 0 0 0 0 0 0 0 0 -1 0 -1 0 0 0 -1 0 -1 0 -1 0 -1 0 -2 0 -1 0 -1 0 -1 0 -1 0 -2 0 -1 0 -1 0 -1 0 -2 0 -1 0 -1 0 -1 0 -1 0 0 0 -1 0 -1 0 0 0 -1 0 0 0 0 0 0zm-4 -6l4 6 0 0 -4 -6 0 0 0 0zm0 0l0 0 0 0 0 0zm0 0l0 0 0 0 -1 0 1 0 0 0zm0 0l0 0 0 0 0 0zm-20 0l0 0 0 0 0 0 1 0 0 0 0 0 1 0 0 0 1 0 0 0 1 0 1 0 1 0 0 0 1 0 1 0 1 0 1 0 1 0 1 0 1 0 0 0 1 0 1 0 1 0 1 0 0 0 1 0 0 0 1 0 0 0 0 0 1 0 0 0 0 0 0 0 -1 0 0 0 0 0 -1 0 0 0 -1 0 0 0 -1 0 -1 0 -1 0 -1 0 0 0 -1 0 -1 0 -1 0 -1 0 -1 0 -1 0 -1 0 0 0 -1 0 -1 0 -1 0 0 0 -1 0 0 0 -1 0 0 0 0 0 -1 0 0 0 0 0z"/>
      </g>
      <g>
       <path class="fil3" d="M34 9l-1 4c0,0 0,2 1,2 1,0 4,0 4,0l-4 -6 0 0z"/>
       <path id="1" class="fil0" d="M33 13l1 -4 0 0 -1 4 0 0 0 0zm0 0l0 0 0 0 0 0zm1 2l0 0 0 0 0 0 0 0 0 0 0 0 0 0 0 0 0 0 0 0 -1 0 0 0 0 -1 0 0 0 0 0 0 0 0 0 0 0 0 0 0 0 0 0 0 0 0 0 0 0 0 0 0 0 0 0 -1 0 0 0 0 0 0 0 0 0 0 0 0 0 0 0 0 0 0 0 0 0 0 0 0 0 0 0 1 0 0 0 0 0 0 0 0 0 0 0 0 0 0 0 0 0 0 0 0 0 0 1 0 0 0 0 0 0 0 0 0 0 1 0 0 0 0 0 0 0 0 0 0 0 0 0 0 0 0 0 0zm4 0l0 0 0 0 0 0 0 0 0 0 0 0 0 0 0 0 -1 0 0 0 0 0 0 0 0 0 0 0 0 0 0 0 -1 0 0 0 0 0 0 0 0 0 0 0 -1 0 0 0 0 0 0 0 0 0 0 0 0 0 -1 0 0 0 0 0 0 0 0 0 0 0 0 0 0 0 0 0 0 0 1 0 0 0 0 0 0 0 0 0 0 0 0 0 1 0 0 0 0 0 0 0 0 0 0 0 1 0 0 0 0 0 0 0 0 0 0 0 0 0 0 0 1 0 0 0 0 0 0 0 0 0 0 0 0 0 0 0zm-4 -6l4 6 0 0 -4 -6 0 0 0 0zm0 0l0 -1 0 1 0 0zm0 0l0 0 0 0 0 0 0 0 0 0zm0 0l0 0 0 0 0 0z"/>
      </g>
     </g>
     <polygon class="fil0" points="7,42 43,42 30,32 20,32 "/>
     <polygon class="fil4" points="7,42 7,22 20,32 "/>
     <polygon class="fil4" points="43,42 43,22 30,32 "/>
     <g>
      <path class="fil5" d="M17 12c0,0 0,-1 0,-1 1,-5 -1,-10 -6,-11 -5,-1 -10,2 -11,7 -1,5 2,9 7,10 3,1 6,0 8,-2 1,0 3,-1 4,-2 -2,-1 -1,0 -2,-1z"/>
      <g>
       <path class="fil6" d="M13 12l0 -1c-1,-1 -1,-1 -1,-2l0 -1c0,-2 -1,-3 -2,-3l0 -1c0,-1 -1,-1 -1,-1 -1,0 -1,0 -1,1l0 1c-1,0 -2,1 -2,3l0 1c0,1 -1,1 -1,2l-1 1c0,0 0,1 0,1 0,0 0,0 0,0l9 0c0,0 0,0 0,0 1,0 1,-1 0,-1z"/>
       <path class="fil6" d="M9 14c1,0 1,0 1,-1l-3 0c1,1 1,1 2,1z"/>
      </g>
     </g>
     <rect class="fil3" x="20" y="24" width="13.2647" height="1.92812"/>
     <rect class="fil3" x="20" y="20" width="13.2647" height="1.92812"/>
     <rect class="fil3" x="20" y="16" width="9.06577" height="1.92812"/>
    </g>
    <g>
     <circle class="fil7" cx="41" cy="39" r="7"/>
     <path class="fil8" d="M42 41c0,0 0,-1 0,-1 0,0 -1,0 -1,0 -1,0 -1,-1 -1,-1 -1,0 -1,0 -1,0 0,0 0,-1 -1,-1 0,0 0,-1 0,-1 0,-1 0,-1 1,-2 0,0 1,0 2,0l0 -2 0 0 0 2c1,0 2,0 2,1 0,0 1,1 1,1l-2 0c0,0 0,0 0,-1 -1,0 -1,0 -1,0 0,0 -1,0 -1,0 0,0 0,1 0,1 0,0 0,1 0,1 0,0 1,0 1,0 1,0 1,1 1,1 1,0 1,0 1,0 0,1 0,1 0,1 1,0 1,1 1,1 0,1 -1,1 -1,2 0,0 -1,0 -2,0l0 1 -1 0 0 -1c0,0 -1,0 -1,-1 -1,0 -1,-1 -1,-1l2 0c0,0 0,0 0,1 0,0 0,0 1,0 0,0 0,0 1,0 0,0 0,-1 0,-1z"/>
    </g>
   </g>
  </g>
 </g>
</svg>
