<?xml version="1.0" encoding="UTF-8"?>
<!DOCTYPE svg PUBLIC "-//W3C//DTD SVG 1.1//EN" "http://www.w3.org/Graphics/SVG/1.1/DTD/svg11.dtd">
<!-- Creator: CorelDRAW X7 -->
<svg xmlns="http://www.w3.org/2000/svg" xml:space="preserve" width="48px" height="41px" version="1.1" style="shape-rendering:geometricPrecision; text-rendering:geometricPrecision; image-rendering:optimizeQuality; fill-rule:evenodd; clip-rule:evenodd"
viewBox="0 0 48 41"
 xmlns:xlink="http://www.w3.org/1999/xlink">
 <defs>
  <style type="text/css">
   <![CDATA[
    .fil2 {fill:#51A8B1}
    .fil1 {fill:#FC4D44}
    .fil0 {fill:#FCBC44}
    .fil3 {fill:white}
    .fil4 {fill:#FEFEFE;fill-rule:nonzero}
   ]]>
  </style>
 </defs>
 <g id="Layer_x0020_1">
  <metadata id="CorelCorpID_0Corel-Layer"/>
  <g id="_786675424">
   <g>
    <g>
     <path class="fil0" d="M5 8l41 0c1,0 2,0 2,1l0 25c0,1 -1,2 -2,2l-41 0c-1,0 -2,-1 -2,-2l0 -25c0,-1 1,-1 2,-1z"/>
     <path class="fil1" d="M5 4l41 0c1,0 2,1 2,2l0 5 -45 0 0 -5c0,-1 1,-2 2,-2z"/>
     <g>
      <rect class="fil2" x="9" width="2.63406" height="7.66809" rx="1" ry="1"/>
      <rect class="fil2" x="15" width="2.63406" height="7.66809" rx="1" ry="1"/>
      <rect class="fil2" x="34" width="2.63406" height="7.66809" rx="1" ry="1"/>
      <rect class="fil2" x="40" width="2.63406" height="7.66809" rx="1" ry="1"/>
     </g>
    </g>
    <g>
     <rect class="fil3" x="8" y="15" width="34.2241" height="2.04301"/>
     <rect class="fil3" x="8" y="20" width="34.2241" height="2.04301"/>
     <rect class="fil3" x="20" y="25" width="22.811" height="2.04301"/>
    </g>
   </g>
   <g>
    <circle class="fil1" cx="8" cy="33" r="8"/>
    <g>
     <path class="fil4" d="M3 37l1 -2c1,0 1,-1 1,-2l0 -1c0,-2 1,-3 2,-3l0 -1c0,-1 1,-1 1,-1 1,0 2,0 2,1l0 1c1,0 2,1 2,3l0 1c0,1 0,2 1,2l1 2c0,0 0,0 0,0 -1,0 -1,0 -1,0l-9 0c0,0 0,0 -1,0 0,0 0,0 0,0z"/>
     <path class="fil4" d="M8 39c0,0 -1,-1 -1,-1l3 0c0,0 -1,1 -2,1z"/>
    </g>
   </g>
  </g>
 </g>
</svg>
