<?xml version="1.0" encoding="UTF-8"?>
<!DOCTYPE svg PUBLIC "-//W3C//DTD SVG 1.1//EN" "http://www.w3.org/Graphics/SVG/1.1/DTD/svg11.dtd">
<!-- Creator: CorelDRAW X7 -->
<svg xmlns="http://www.w3.org/2000/svg" xml:space="preserve" width="48px" height="46px" version="1.1" style="shape-rendering:geometricPrecision; text-rendering:geometricPrecision; image-rendering:optimizeQuality; fill-rule:evenodd; clip-rule:evenodd"
viewBox="0 0 48 46"
 xmlns:xlink="http://www.w3.org/1999/xlink">
 <defs>
  <style type="text/css">
   <![CDATA[
    .fil1 {fill:#FEFEFE}
    .fil6 {fill:#00AFEF}
    .fil3 {fill:#1CC8EB}
    .fil0 {fill:#2887D2}
    .fil2 {fill:#FC4D44}
    .fil5 {fill:#0098DA;fill-rule:nonzero}
    .fil4 {fill:#2887D2;fill-rule:nonzero}
    .fil7 {fill:url(#id0);fill-rule:nonzero}
   ]]>
  </style>
  <linearGradient id="id0" gradientUnits="userSpaceOnUse" x1="41.3504" y1="24.4594" x2="36.5634" y2="45.1028">
   <stop offset="0" style="stop-opacity:1; stop-color:#F2DA03"/>
   <stop offset="0.631373" style="stop-opacity:1; stop-color:#EFB202"/>
   <stop offset="1" style="stop-opacity:1; stop-color:#EB8900"/>
  </linearGradient>
 </defs>
 <g id="Layer_x0020_1">
  <metadata id="CorelCorpID_0Corel-Layer"/>
  <g id="_232432928">
   <g>
    <path class="fil0" d="M0 41l30 0 1 -1c1,-1 1,-2 1,-4l0 -2c0,-4 2,-6 5,-7l0 -2c0,-1 1,-2 2,-2 1,0 2,1 2,2l0 2c0,0 1,0 1,0l0 -9 -20 -18 -22 18 0 23z"/>
    <g>
     <g>
      <path class="fil1" d="M6 10l31 0c1,0 1,0 1,1l0 12c-1,1 -1,1 -1,2l0 2c-2,0 -3,2 -4,4l-27 0c-1,0 -1,-1 -1,-2l0 -18c0,-1 0,-1 1,-1z"/>
      <path class="fil2" d="M6 7l31 0c1,0 1,0 1,1l0 4 -33 0 0 -4c0,-1 0,-1 1,-1z"/>
      <g>
       <path class="fil3" d="M10 4l1 0c0,0 0,0 0,0l0 5c0,0 0,1 0,1l-1 0c0,0 -1,-1 -1,-1l0 -5c0,0 1,0 1,0z"/>
       <path class="fil3" d="M14 4l1 0c1,0 1,0 1,0l0 5c0,0 0,1 -1,1l-1 0c0,0 0,-1 0,-1l0 -5c0,0 0,0 0,0z"/>
       <path class="fil3" d="M28 4l1 0c0,0 1,0 1,0l0 5c0,0 -1,1 -1,1l-1 0c0,0 0,-1 0,-1l0 -5c0,0 0,0 0,0z"/>
       <path class="fil3" d="M33 4l1 0c0,0 0,0 0,0l0 5c0,0 0,1 0,1l-1 0c-1,0 -1,-1 -1,-1l0 -5c0,0 0,0 1,0z"/>
      </g>
     </g>
     <g>
      <polygon class="fil3" points="9,13 13,13 13,17 9,17 "/>
      <polygon class="fil3" points="17,13 21,13 21,17 17,17 "/>
      <polygon class="fil3" points="24,13 29,13 29,17 24,17 "/>
      <polygon class="fil2" points="32,13 36,13 36,17 32,17 "/>
      <polygon class="fil3" points="9,19 13,19 13,22 9,22 "/>
      <polygon class="fil3" points="17,19 21,19 21,22 17,22 "/>
      <polygon class="fil3" points="24,19 29,19 29,22 24,22 "/>
      <polygon class="fil2" points="32,19 36,19 36,22 32,22 "/>
      <polygon class="fil3" points="9,25 13,25 13,28 9,28 "/>
      <polygon class="fil3" points="17,25 21,25 21,28 17,28 "/>
      <polygon class="fil3" points="24,25 29,25 29,28 24,28 "/>
      <path class="fil2" d="M32 25l4 0 0 2c0,0 -1,1 -1,1l-3 0 0 -3z"/>
     </g>
    </g>
    <g>
     <path class="fil4" d="M0 41l1 0 29 0 1 -1c1,-1 1,-2 1,-4l0 -2 -5 -4 -12 0 -15 11z"/>
     <polygon class="fil5" points="0,41 0,18 15,30 "/>
     <path class="fil5" d="M42 27l0 -9 -15 12 5 4 0 0c0,-4 2,-6 5,-7l0 -2c0,-1 1,-2 2,-2 1,0 2,1 2,2l0 2c0,0 1,0 1,0z"/>
     <polygon class="fil6" points="16,30 1,41 0,41 15,30 "/>
     <polygon class="fil6" points="26,30 32,34 32,34 27,30 "/>
    </g>
   </g>
   <path class="fil7" d="M30 42l2 -2c0,-2 1,-3 1,-4l0 -3c0,-2 2,-5 4,-6l0 -1c0,-1 1,-2 2,-2 1,0 2,1 2,2l0 1c2,1 4,4 4,6l0 3c0,1 1,2 1,4l2 2c0,0 0,1 0,1 0,0 0,0 0,0l-18 0c0,0 0,0 0,0 0,0 0,-1 0,-1zm9 4c-1,0 -2,-1 -3,-2l6 0c-1,1 -2,2 -3,2z"/>
  </g>
 </g>
</svg>
