<?xml version="1.0" encoding="UTF-8"?>
<!DOCTYPE svg PUBLIC "-//W3C//DTD SVG 1.1//EN" "http://www.w3.org/Graphics/SVG/1.1/DTD/svg11.dtd">
<!-- Creator: CorelDRAW X7 -->
<svg xmlns="http://www.w3.org/2000/svg" xml:space="preserve" width="48px" height="46px" version="1.1" style="shape-rendering:geometricPrecision; text-rendering:geometricPrecision; image-rendering:optimizeQuality; fill-rule:evenodd; clip-rule:evenodd"
viewBox="0 0 48 46"
 xmlns:xlink="http://www.w3.org/1999/xlink">
 <defs>
  <style type="text/css">
   <![CDATA[
    .fil1 {fill:#FEFEFE}
    .fil0 {fill:#E2BB8B}
    .fil3 {fill:#1CC8EB}
    .fil6 {fill:#E3AB42}
    .fil2 {fill:#FC4D44}
    .fil8 {fill:#1CC8EB;fill-rule:nonzero}
    .fil4 {fill:#F3BD5D;fill-rule:nonzero}
    .fil5 {fill:#FFCB68;fill-rule:nonzero}
    .fil7 {fill:url(#id0);fill-rule:nonzero}
   ]]>
  </style>
  <linearGradient id="id0" gradientUnits="userSpaceOnUse" x1="44.2571" y1="41.126" x2="32.1378" y2="24.8197">
   <stop offset="0" style="stop-opacity:1; stop-color:#1CC8EB"/>
   <stop offset="0.631373" style="stop-opacity:1; stop-color:#0E96E0"/>
   <stop offset="1" style="stop-opacity:1; stop-color:#0063D4"/>
  </linearGradient>
 </defs>
 <g id="Layer_x0020_1">
  <metadata id="CorelCorpID_0Corel-Layer"/>
  <g id="_783042496">
   <g>
    <polygon class="fil0" points="0,41 41,41 41,18 21,0 0,18 "/>
    <g>
     <g>
      <path class="fil1" d="M6 9l30 0c1,0 2,1 2,2l0 18c0,0 -1,1 -2,1l-30 0c-1,0 -1,-1 -1,-1l0 -18c0,-1 0,-2 1,-2z"/>
      <path class="fil2" d="M6 7l30 0c1,0 2,0 2,1l0 4 -33 0 0 -4c0,-1 0,-1 1,-1z"/>
      <g>
       <rect class="fil3" x="9" y="4" width="1.92471" height="5.60297" rx="0" ry="1"/>
       <rect class="fil3" x="14" y="4" width="1.92471" height="5.60297" rx="0" ry="1"/>
       <rect class="fil3" x="27" y="4" width="1.92471" height="5.60297" rx="0" ry="1"/>
       <rect class="fil3" x="31" y="4" width="1.92471" height="5.60297" rx="0" ry="1"/>
      </g>
     </g>
     <g>
      <rect class="fil3" x="9" y="13" width="4.15545" height="3.44592"/>
      <rect class="fil3" x="16" y="13" width="4.15545" height="3.44592"/>
      <rect class="fil3" x="24" y="13" width="4.15545" height="3.44592"/>
      <rect class="fil2" x="31" y="13" width="4.15545" height="3.44592"/>
      <rect class="fil3" x="9" y="18" width="4.15545" height="3.44592"/>
      <rect class="fil3" x="16" y="18" width="4.15545" height="3.44592"/>
      <rect class="fil3" x="24" y="18" width="4.15545" height="3.44592"/>
      <rect class="fil2" x="31" y="18" width="4.15545" height="3.44592"/>
      <rect class="fil3" x="9" y="24" width="4.15545" height="3.44592"/>
      <rect class="fil3" x="16" y="24" width="4.15545" height="3.44592"/>
      <rect class="fil3" x="24" y="24" width="4.15545" height="3.44592"/>
      <rect class="fil2" x="31" y="24" width="4.15545" height="3.44592"/>
     </g>
    </g>
    <g>
     <polygon class="fil4" points="0,41 1,41 41,41 26,29 15,29 "/>
     <polygon class="fil5" points="0,41 0,18 15,29 "/>
     <polygon class="fil5" points="41,41 41,18 26,29 "/>
     <polygon class="fil6" points="15,29 1,41 0,41 15,29 "/>
     <polygon class="fil6" points="26,29 41,41 41,41 26,29 "/>
    </g>
   </g>
   <g>
    <path class="fil7" d="M28 43l2 -3c1,-2 1,-3 1,-5l0 -2c0,-3 2,-6 5,-7l0 -1c0,-1 1,-2 2,-2 1,0 2,1 2,2l0 1c3,1 5,4 5,7l0 2c0,2 0,3 1,5l2 3c0,0 0,0 0,0 0,0 0,0 0,0l-19 0c0,0 0,0 -1,0 0,0 0,0 0,0z"/>
    <path class="fil8" d="M38 46c-1,0 -2,-1 -3,-2l6 0c0,1 -1,2 -3,2z"/>
   </g>
  </g>
 </g>
</svg>
