<?xml version="1.0" encoding="UTF-8"?>
<!DOCTYPE svg PUBLIC "-//W3C//DTD SVG 1.1//EN" "http://www.w3.org/Graphics/SVG/1.1/DTD/svg11.dtd">
<!-- Creator: CorelDRAW X7 -->
<svg xmlns="http://www.w3.org/2000/svg" xml:space="preserve" width="48px" height="43px" version="1.1" style="shape-rendering:geometricPrecision; text-rendering:geometricPrecision; image-rendering:optimizeQuality; fill-rule:evenodd; clip-rule:evenodd"
viewBox="0 0 48 43"
 xmlns:xlink="http://www.w3.org/1999/xlink">
 <defs>
  <style type="text/css">
   <![CDATA[
    .fil2 {fill:#FEFEFE}
    .fil3 {fill:#2887D2}
    .fil1 {fill:#306FB6}
    .fil7 {fill:#FC4D44}
    .fil5 {fill:#FCBC44}
    .fil8 {fill:#FEFEFE;fill-rule:nonzero}
    .fil6 {fill:#00A859;fill-rule:nonzero}
    .fil4 {fill:#0098DA;fill-rule:nonzero}
    .fil0 {fill:#2887D2;fill-rule:nonzero}
   ]]>
  </style>
 </defs>
 <g id="Layer_x0020_1">
  <metadata id="CorelCorpID_0Corel-Layer"/>
  <g id="_788078904">
   <g>
    <g>
     <polygon class="fil0" points="38,7 38,0 39,0 39,7 "/>
    </g>
    <g>
     <polygon class="fil0" points="41,11 48,11 48,12 41,12 "/>
    </g>
    <g>
     <polygon class="fil0" points="41,9 40,8 45,3 46,3 "/>
    </g>
   </g>
   <polygon class="fil1" points="5,39 43,39 43,18 24,1 5,18 "/>
   <g>
    <g>
     <path class="fil2" d="M10 2l0 34c0,0 25,0 25,0 0,1 0,-28 0,-28l-5 -6 0 0c0,0 -20,0 -20,0z"/>
     <path id="1" class="fil0" d="M10 36l0 -34 0 0 0 34 0 0 0 0zm0 0l0 0 0 0 0 0zm25 0l-1 0 0 0 0 0 0 0 0 0 0 0 -1 0 -1 0 0 0 -1 0 -1 0 -1 0 -1 0 -1 0 -1 0 -1 0 -2 0 -1 0 -1 0 -1 0 -1 0 -1 0 -1 0 -1 0 -1 0 -1 0 -1 0 -1 0 0 0 -1 0 0 0 -1 0 0 0 0 0 0 0 0 0 0 0 0 0 1 0 1 0 0 0 1 0 1 0 1 0 1 0 1 0 1 0 1 0 1 0 1 0 1 0 1 0 2 0 1 0 1 0 1 0 1 0 1 0 1 0 1 0 0 0 1 0 1 0 0 0 0 0 1 0 0 0 0 0zm-1 -28l1 0 0 0 0 0 0 1 0 0 0 1 0 0 0 1 0 1 0 1 0 1 0 1 0 1 0 1 0 2 0 1 0 1 0 2 0 1 0 1 0 2 0 1 0 1 0 1 0 1 0 1 0 1 0 1 0 1 0 0 0 1 0 0 0 0 -1 0 1 0 -1 0 0 0 0 0 0 -1 0 0 0 -1 0 -1 0 -1 0 -1 0 -1 0 -1 0 -1 0 -1 0 -2 0 -1 0 -1 0 -2 0 -1 0 -1 0 -2 0 -1 0 -1 0 -1 0 -1 0 -1 0 -1 0 -1 0 0 0 -1 0 0 0 -1 0 0 0 0zm-3 -6l4 6 -1 0 -4 -6 1 0 0 0zm0 0l0 0 0 0 0 0zm-1 0l1 0 -1 0 0 0 0 0 0 0zm0 0l0 0 0 0 0 0zm-20 0l0 0 0 0 0 0 0 0 0 0 1 0 0 0 1 -1 0 0 1 0 1 0 1 0 0 0 1 0 1 0 1 0 1 0 1 0 1 0 1 0 1 0 1 0 1 0 1 0 0 0 1 0 1 1 0 0 1 0 0 0 1 0 0 0 0 0 0 0 0 0 0 0 0 0 0 0 -1 0 0 0 -1 0 0 0 -1 0 -1 0 0 0 -1 0 -1 0 -1 0 -1 0 -1 0 -1 0 -1 0 -1 0 -1 0 -1 0 -1 0 0 0 -1 0 -1 0 -1 0 0 0 -1 0 0 0 -1 0 0 0 0 0 0 0 0 0z"/>
    </g>
    <g>
     <path class="fil3" d="M30 2l0 5c0,0 0,1 1,1 1,0 4,0 4,0l-5 -6 0 0z"/>
     <path id="1" class="fil0" d="M30 7l0 -5 0 0 0 5 0 0 0 0zm0 0l0 0 0 0 0 0zm1 1l0 0 0 0 0 0 0 0 -1 0 0 0 0 0 0 0 0 0 0 0 0 0 0 0 0 0 0 0 0 0 0 -1 0 0 0 0 0 0 0 0 0 0 0 0 0 0 0 0 0 0 0 0 0 0 0 0 0 0 0 0 0 0 0 0 0 0 0 0 0 0 0 0 0 0 0 0 0 0 0 0 0 0 0 0 0 0 0 0 0 0 0 0 0 0 0 0 0 0 0 0 0 0 0 0 0 0 0 0 0 1 0 0 0 0 0 0 0 0 0 0 0 0 0 0 1 0 0 0 0 0 0 0 0 0 0 0zm4 0l0 0 0 0 0 0 0 0 0 0 0 0 0 0 -1 0 0 0 0 0 0 0 0 0 0 0 0 0 0 0 -1 0 0 0 0 0 0 0 0 0 0 0 -1 0 0 0 0 0 0 0 0 0 0 0 -1 0 0 0 0 0 0 0 0 0 0 0 0 0 0 0 0 0 0 0 0 0 0 0 0 0 0 0 1 0 0 0 0 0 0 0 0 0 0 0 1 0 0 0 0 0 0 0 0 0 0 0 1 0 0 0 0 0 0 0 0 0 0 0 0 0 0 0 1 0 0 0 0 0 0 0 0 0 0 0 0 0zm-5 -7l5 7 0 0 -5 -6 0 0 0 -1zm0 1l0 -1 0 0 0 1zm0 0l0 0 0 0 0 0 0 0 0 0zm0 0l0 0 0 0 0 0z"/>
    </g>
   </g>
   <g>
    <g>
     <path class="fil2" d="M12 4l0 34c0,0 25,0 25,0 0,1 0,-27 0,-27l-4 -7 0 0c0,0 -21,0 -21,0z"/>
     <path id="1" class="fil0" d="M12 38l0 -34 1 0 0 34 -1 1 0 -1zm0 1l0 0 0 -1 0 1zm25 -1l0 0 0 0 0 1 0 0 -1 -1 0 0 -1 0 0 0 -1 0 -1 0 -1 0 -1 0 -1 0 -1 0 -1 0 -1 0 -1 0 -1 0 -1 0 -2 0 -1 0 -1 0 -1 0 -1 0 -1 0 -1 0 -1 0 0 1 -1 0 -1 0 0 0 0 0 -1 0 0 0 0 -1 0 0 1 0 0 0 0 0 1 0 1 0 0 0 1 0 1 0 1 0 1 0 1 0 1 0 1 0 2 0 1 0 1 0 1 0 1 0 1 0 1 0 1 0 1 0 1 0 1 0 1 0 0 0 1 0 0 0 1 0 0 0 0 0 0 0zm0 -27l0 -1 0 1 0 0 0 0 0 0 0 1 0 0 0 1 0 1 0 1 0 1 0 1 0 1 0 2 0 1 0 1 0 1 0 2 0 1 0 1 0 2 0 1 0 1 0 1 0 1 0 1 0 1 0 1 0 1 0 0 0 1 0 0 0 0 0 0 0 0 0 0 0 0 0 0 0 -1 0 0 0 -1 0 -1 0 -1 0 -1 0 -1 0 -1 0 -1 0 -1 0 -2 0 -1 0 -1 0 -2 0 -1 0 -1 0 -1 0 -2 0 -1 0 -1 0 -1 0 -1 0 -1 0 -1 0 0 0 -1 0 0 0 0 0 0 0 0zm-4 -7l4 6 0 1 -4 -7 0 0 0 0zm0 0l0 0 0 0 0 0zm0 0l0 0 0 0 0 0 0 0 0 0zm0 0l0 0 0 0 0 0zm-20 0l-1 0 0 0 0 0 1 0 0 0 0 0 1 0 0 0 1 0 1 0 0 0 1 0 1 0 1 0 1 0 1 0 1 0 1 0 1 0 0 0 1 0 1 0 1 0 1 0 1 0 1 0 0 0 1 0 0 0 1 0 0 0 1 0 0 0 0 0 0 0 0 0 0 0 -1 0 0 0 -1 0 0 0 -1 0 0 0 -1 0 -1 0 -1 0 -1 0 -1 0 -1 0 0 0 -1 0 -1 0 -1 0 -1 0 -1 0 -1 0 -1 0 -1 0 0 0 -1 0 -1 0 0 0 -1 0 0 0 0 0 -1 0 1 0 0 0z"/>
    </g>
    <g>
     <path class="fil3" d="M33 4l-1 5c0,0 0,1 1,1 1,1 4,1 4,1l-4 -7 0 0z"/>
     <path id="1" class="fil0" d="M32 9l1 -5 0 0 0 5 0 0 -1 0zm1 0l0 0 0 0 0 0zm0 1l0 0 0 0 0 0 0 0 0 0 0 0 0 0 0 0 0 0 0 0 0 0 0 0 0 0 0 0 0 0 -1 0 0 0 0 -1 0 0 0 0 0 0 0 0 0 0 0 0 0 0 0 0 0 0 0 0 0 0 0 0 0 0 0 0 0 0 0 0 1 0 0 0 0 0 0 0 0 0 0 0 0 0 0 0 0 0 0 0 0 0 0 0 0 0 0 0 0 0 0 0 0 0 0 1 0 0 0 0 0 0 0 0 0 0 0 0 0 0 0 0 0 0 0 0 0 0 0 0 0 0 0 0 0 0 0 0zm4 1l0 -1 0 1 0 0 0 0 0 0 0 0 0 0 0 0 0 0 0 0 0 0 -1 0 0 0 0 0 0 0 0 0 0 0 0 0 -1 0 0 0 0 0 0 0 0 0 0 0 -1 0 0 0 0 0 0 0 0 0 0 0 -1 0 0 0 0 0 0 -1 0 0 0 0 0 0 1 0 0 0 0 0 0 0 0 0 0 0 0 0 1 0 0 0 0 0 0 0 0 0 0 0 1 0 0 0 0 0 0 0 0 0 0 0 0 0 1 0 0 0 0 0 0 0 0 0 0 0 0 0 0 0 0 0 0 0 0 1zm-4 -7l4 6 0 1 -4 -7 0 0 0 0zm0 0l0 -1 0 1 0 0zm0 0l0 0 0 0 0 0 0 0 0 0zm0 0l0 0 0 0 0 0z"/>
    </g>
   </g>
   <polygon class="fil0" points="5,39 43,39 29,28 19,28 "/>
   <polygon class="fil4" points="5,39 5,18 19,28 "/>
   <polygon class="fil4" points="43,39 43,18 29,28 "/>
   <rect class="fil3" x="19" y="20" width="14.0258" height="2.03874"/>
   <rect class="fil3" x="19" y="15" width="14.0258" height="2.03874"/>
   <rect class="fil3" x="19" y="11" width="9.58598" height="2.03874"/>
   <g>
    <circle class="fil5" cx="7" cy="36" r="7"/>
    <path class="fil6" d="M9 38c0,0 -1,-1 -1,-1 0,0 0,0 -1,0 0,-1 0,-1 -1,-1 0,0 0,0 -1,0 0,-1 0,-1 0,-1 0,-1 0,-1 0,-1 0,-1 0,-2 0,-2 1,0 1,-1 2,-1l0 -1 1 0 0 1c1,0 1,1 2,1 0,1 0,1 0,2l-1 0c0,0 -1,-1 -1,-1 0,0 0,0 -1,0 0,0 0,0 0,0 0,0 -1,0 -1,1 0,0 1,0 1,0 0,1 0,1 1,1 0,0 1,0 1,1 0,0 0,0 1,0 0,0 0,1 0,1 0,0 0,1 0,1 0,1 0,1 0,2 -1,0 -1,0 -2,0l0 2 -1 0 0 -2c-1,0 -2,0 -2,0 0,-1 -1,-2 -1,-3l2 0c0,1 0,1 0,2 1,0 1,0 1,0 1,0 1,0 1,0 0,0 1,-1 1,-1z"/>
   </g>
   <g>
    <circle class="fil7" cx="37" cy="29" r="9"/>
    <g>
     <path class="fil8" d="M31 34l1 -2c1,0 1,-1 1,-2l0 -1c0,-2 1,-3 2,-4l0 -1c0,0 1,-1 2,-1 0,0 1,1 1,1l0 1c1,1 2,2 2,4l0 1c0,1 1,2 1,2l1 2c0,0 0,0 0,0 0,0 0,0 0,0l-11 0c0,0 0,0 0,0 0,0 0,0 0,0z"/>
     <path class="fil8" d="M37 36c-1,0 -2,-1 -2,-1l3 0c0,0 -1,1 -1,1z"/>
    </g>
   </g>
  </g>
 </g>
</svg>
