<?xml version="1.0" encoding="UTF-8"?>
<!DOCTYPE svg PUBLIC "-//W3C//DTD SVG 1.1//EN" "http://www.w3.org/Graphics/SVG/1.1/DTD/svg11.dtd">
<!-- Creator: CorelDRAW X7 -->
<svg xmlns="http://www.w3.org/2000/svg" xml:space="preserve" width="48px" height="48px" version="1.1" style="shape-rendering:geometricPrecision; text-rendering:geometricPrecision; image-rendering:optimizeQuality; fill-rule:evenodd; clip-rule:evenodd"
viewBox="0 0 48 48"
 xmlns:xlink="http://www.w3.org/1999/xlink">
 <defs>
  <style type="text/css">
   <![CDATA[
    .fil1 {fill:#FEFEFE}
    .fil0 {fill:#BDBFC1}
    .fil3 {fill:#2887D2}
    .fil6 {fill:#FCBC44}
    .fil7 {fill:#00A859;fill-rule:nonzero}
    .fil2 {fill:#0098DA;fill-rule:nonzero}
    .fil4 {fill:#2887D2;fill-rule:nonzero}
    .fil5 {fill:url(#id0);fill-rule:nonzero}
   ]]>
  </style>
  <linearGradient id="id0" gradientUnits="userSpaceOnUse" x1="3.6" y1="43.8815" x2="20.3043" y2="21.4063">
   <stop offset="0" style="stop-opacity:1; stop-color:#1CC8EB"/>
   <stop offset="0.631373" style="stop-opacity:1; stop-color:#0E96E0"/>
   <stop offset="1" style="stop-opacity:1; stop-color:#0063D4"/>
  </linearGradient>
 </defs>
 <g id="Layer_x0020_1">
  <metadata id="CorelCorpID_0Corel-Layer"/>
  <g id="_807756904">
   <path class="fil0" d="M9 0l0 39c0,0 28,0 28,0 0,1 0,-31 0,-31l-5 -8 0 0c0,0 -23,0 -23,0z"/>
   <g>
    <path class="fil1" d="M11 3l0 39c0,0 28,-1 28,0 0,1 0,-32 0,-32l-4 -7 -1 0c0,0 -23,-1 -23,0z"/>
    <path id="1" class="fil2" d="M10 42l0 -39 1 0 0 39 0 0 -1 0zm1 0l-1 0 0 0 1 0zm29 0l-1 0 0 0 0 0 0 0 -1 0 0 0 -1 0 0 0 -1 0 -1 0 -1 0 -1 0 -2 0 -1 0 -1 0 -1 0 -2 0 -1 0 -1 0 -2 0 -1 0 -1 0 -1 0 -1 0 -2 0 -1 0 -1 0 0 0 -1 0 -1 0 0 0 -1 0 0 0 0 0 0 -1 0 0 0 0 1 0 0 0 1 0 1 0 0 0 1 0 1 0 2 0 1 0 1 0 1 0 1 0 2 0 1 0 1 0 2 0 1 0 1 0 1 0 2 0 1 0 1 0 1 0 1 0 0 0 1 0 1 0 0 0 0 0 1 1 0 0zm-1 -31l1 -1 0 0 0 0 0 0 0 1 0 1 0 0 0 1 0 1 0 1 0 1 0 2 0 1 0 1 0 2 0 1 0 2 0 1 0 2 0 1 0 2 0 1 0 2 0 1 0 1 0 1 0 1 0 1 0 1 0 1 0 0 0 1 0 0 -1 0 1 0 -1 0 0 0 0 -1 0 0 0 -1 0 -1 0 -1 0 -1 0 -1 0 -1 0 -1 0 -2 0 -1 0 -2 0 -1 0 -2 0 -1 0 -2 0 -1 0 -2 0 -1 0 -1 0 -2 0 -1 0 -1 0 -1 0 -1 0 0 0 -1 0 -1 0 0 0 0 0 1zm-4 -9l5 8 -1 1 -5 -8 1 -1 0 0zm0 0l0 0 0 0 0 0zm0 0l0 0 -1 1 0 0 0 -1 1 0zm-1 0l0 0 1 0 -1 0zm-23 1l-1 0 0 0 1 -1 0 0 1 0 0 0 0 0 1 0 1 0 1 0 0 0 1 0 1 0 1 0 1 0 1 0 2 0 1 0 1 0 1 0 1 0 1 0 1 0 1 0 1 0 1 0 0 0 1 0 1 0 0 0 1 0 0 0 0 0 0 0 0 1 0 0 0 0 0 0 -1 0 0 0 -1 0 -1 0 0 0 -1 0 -1 0 -1 0 -1 0 -1 0 -1 0 -1 0 -1 0 -1 0 -2 0 -1 0 -1 0 -1 0 -1 0 -1 0 0 0 -1 0 -1 0 0 0 -1 0 0 0 -1 0 0 0 0 0 0 0z"/>
   </g>
   <path class="fil3" d="M34 3l0 5c0,0 0,2 1,2 1,0 4,0 4,0l-5 -8 0 1z"/>
   <g id="_807757480">
    <g>
     <g>
      <polygon class="fil4" points="35,13 15,13 15,12 35,12 "/>
     </g>
     <g>
      <polygon class="fil4" points="25,37 25,13 25,13 25,37 "/>
     </g>
     <rect class="fil3" x="27" y="15" width="8.26619" height="1.17951"/>
     <rect class="fil3" x="27" y="19" width="8.26619" height="1.17951"/>
     <rect class="fil3" x="27" y="22" width="8.26619" height="1.17951"/>
     <rect class="fil3" x="15" y="25" width="8.26619" height="1.17951"/>
     <rect class="fil3" x="27" y="25" width="8.26619" height="1.17951"/>
     <rect class="fil3" x="15" y="15" width="8.26619" height="1.17951"/>
     <rect class="fil3" x="15" y="19" width="8.26619" height="1.17951"/>
     <rect class="fil3" x="15" y="22" width="8.26619" height="1.17951"/>
     <rect class="fil3" x="15" y="28" width="8.26619" height="1.17951"/>
     <rect class="fil3" x="27" y="28" width="8.26619" height="1.17951"/>
     <rect class="fil3" x="15" y="32" width="8.26619" height="1.17951"/>
     <rect class="fil3" x="27" y="32" width="8.26619" height="1.17951"/>
     <rect class="fil3" x="15" y="35" width="8.26619" height="1.17951"/>
     <rect class="fil3" x="27" y="35" width="8.26619" height="1.17951"/>
    </g>
    <path class="fil4" d="M18 12l0 -4 1 0c1,0 1,0 1,0 1,0 1,1 1,1 0,0 0,0 0,1l0 0c0,0 0,0 0,1 0,0 0,0 -1,0 0,0 0,1 -1,1l-1 0zm1 -3l0 2 0 0c1,0 1,0 1,0 0,-1 0,-1 0,-1l0 0c0,-1 0,-1 0,-1 0,0 0,0 -1,0l0 0z"/>
    <path class="fil4" d="M32 10c0,1 0,1 0,1 0,0 -1,1 -1,1 -1,0 -1,-1 -1,-1 0,0 -1,-1 -1,-1l0 0c0,-1 1,-1 1,-1 0,0 0,-1 0,-1 0,0 1,0 1,0 0,0 1,0 1,0 0,1 0,1 0,1l0 0c0,0 0,0 -1,0 0,0 0,0 0,0 0,0 0,0 -1,0 0,0 0,0 0,1l0 0c0,0 0,1 0,1 1,0 1,0 1,0 0,0 0,0 0,0 1,0 1,0 1,-1l0 0z"/>
   </g>
   <path class="fil5" d="M0 43l0 1c1,0 1,0 1,0 0,0 0,0 1,1 0,0 0,0 0,0 0,0 1,0 1,1 0,0 0,0 0,0 1,0 1,0 1,0 0,0 0,0 1,0 1,1 2,1 4,2 0,0 0,0 0,0 0,0 1,0 1,0 0,0 1,0 1,0 0,0 1,0 1,0 1,0 1,0 2,0 0,0 0,0 0,0 0,0 1,0 1,0 0,0 0,0 0,0 2,-1 3,-1 5,-2 0,0 0,0 0,0 0,0 0,0 1,0 0,0 0,0 0,0 0,-1 1,-1 1,-1 0,0 0,0 1,0 0,-1 0,-1 0,-1 0,0 0,0 1,0l0 0c-2,-3 -5,-3 -7,-5 -1,0 -1,0 -1,-1l0 -2c0,0 0,0 1,0 0,-1 1,-3 1,-4 1,0 2,-1 2,-2l0 -2c0,-1 -1,-1 -1,-2l0 -3c0,0 0,-2 -1,-4 -1,-1 -3,-2 -6,-2 -3,0 -2,1 -4,2 0,0 -1,-1 -2,1 -1,1 -1,3 -1,3l0 3c0,1 -1,1 -1,2l0 2c0,1 1,1 1,2 1,2 2,4 2,4l0 2c0,1 0,1 0,1l-6 3c0,0 -1,1 -1,1z"/>
   <circle class="fil6" cx="39" cy="37" r="9"/>
   <path class="fil7" d="M40 40c0,-1 0,-1 0,-1 0,-1 -1,-1 -1,-1 -1,0 -1,-1 -2,-1 0,0 0,0 -1,0 0,-1 0,-1 0,-1 -1,-1 -1,-1 -1,-2 0,-1 1,-1 1,-2 1,0 1,-1 2,-1l0 -1 2 0 0 1c1,0 1,1 2,1 0,1 1,2 1,3l-3 0c0,-1 0,-1 0,-2 0,0 -1,0 -1,0 -1,0 -1,0 -1,0 0,1 0,1 0,1 0,1 0,1 0,1 0,0 1,1 1,1 1,0 1,0 2,1 0,0 0,0 1,0 0,1 0,1 0,1 0,1 1,1 1,2 0,0 -1,1 -1,2 -1,0 -2,1 -3,1l0 1 -1 0 0 -1c-1,0 -2,-1 -2,-1 -1,-1 -1,-2 -1,-3l2 0c0,1 0,1 1,1 0,1 0,1 1,1 0,0 1,0 1,0 0,-1 0,-1 0,-1z"/>
  </g>
 </g>
</svg>
