<?xml version="1.0" encoding="UTF-8"?>
<!DOCTYPE svg PUBLIC "-//W3C//DTD SVG 1.1//EN" "http://www.w3.org/Graphics/SVG/1.1/DTD/svg11.dtd">
<!-- Creator: CorelDRAW X7 -->
<svg xmlns="http://www.w3.org/2000/svg" xml:space="preserve" width="109px" height="117px" version="1.1" style="shape-rendering:geometricPrecision; text-rendering:geometricPrecision; image-rendering:optimizeQuality; fill-rule:evenodd; clip-rule:evenodd"
viewBox="0 0 110 118"
 xmlns:xlink="http://www.w3.org/1999/xlink">
 <defs>
  <style type="text/css">
   <![CDATA[
    .fil1 {fill:#FEFEFE}
    .fil0 {fill:#BDBFC1}
    .fil3 {fill:#2887D2}
    .fil5 {fill:#00A859;fill-rule:nonzero}
    .fil2 {fill:#0098DA;fill-rule:nonzero}
    .fil4 {fill:url(#id0);fill-rule:nonzero}
   ]]>
  </style>
  <linearGradient id="id0" gradientUnits="userSpaceOnUse" x1="8.7789" y1="107.073" x2="49.54" y2="52.2311">
   <stop offset="0" style="stop-opacity:1; stop-color:#1CC8EB"/>
   <stop offset="0.631373" style="stop-opacity:1; stop-color:#0E96E0"/>
   <stop offset="1" style="stop-opacity:1; stop-color:#0063D4"/>
  </linearGradient>
 </defs>
 <g id="Layer_x0020_1">
  <metadata id="CorelCorpID_0Corel-Layer"/>
  <g id="_791973176">
   <path class="fil0" d="M21 0l0 96c0,0 69,-2 69,0 0,2 0,-77 0,-77l-8 -18 -1 -1c0,0 -60,0 -60,0z"/>
   <g>
    <path class="fil1" d="M27 6l0 111c0,0 80,0 82,0 0,0 0,-1 0,-2 0,-13 0,-87 0,-87l-12 -22c0,0 -57,0 -69,0 -1,0 -1,0 -1,0z"/>
    <path id="1" class="fil2" d="M26 117l0 -111 2 0 0 111 -1 1 -1 -1zm1 1l-1 0 0 -1 1 1zm82 -3l0 3 0 0 -1 0 0 0 -2 0 -1 0 -2 0 -2 0 -3 0 -3 0 -3 0 -3 0 -3 0 -4 0 -4 0 -3 0 -4 0 -4 0 -4 0 -3 0 -4 0 -4 0 -3 0 -4 0 -3 0 -3 0 -2 0 -3 0 -2 0 -2 0 -1 0 -1 0 -1 0 0 0 0 -3 0 0 1 0 1 0 1 0 2 0 2 0 3 0 2 0 3 0 3 0 4 0 3 0 4 0 4 0 3 0 4 0 4 0 4 0 3 0 4 0 4 0 3 0 3 0 3 0 3 0 3 0 2 0 2 0 1 0 2 0 0 0 1 0 0 0zm-1 0l2 0 0 0 0 0 0 0 0 0 0 1 0 0 0 0 0 0 0 0 0 0 0 0 0 0 0 0 0 0 0 0 0 0 0 0 0 0 0 0 0 1 0 0 0 0 0 0 0 0 0 0 0 0 0 0 0 1 0 0 -1 0 0 0 0 0 0 0 0 -3 0 0 0 0 -1 0 0 0 0 1 0 0 0 0 0 0 0 0 0 0 0 0 0 0 0 0 0 0 0 0 0 0 0 0 0 0 0 0 0 0 0 0 0 0 0 0 0 0 0 0 0 0 0 0 0 0 0 -1 0 0 0 0 0 0 0 0zm0 -87l2 -1 0 1 0 0 0 0 0 1 0 2 0 1 0 2 0 3 0 2 0 3 0 3 0 3 0 4 0 3 0 4 0 3 0 4 0 4 0 4 0 4 0 3 0 4 0 4 0 3 0 4 0 3 0 3 0 3 0 2 0 3 0 2 0 2 0 1 -2 0 0 -1 0 -2 0 -2 0 -2 0 -3 0 -3 0 -3 0 -3 0 -4 0 -3 0 -4 0 -4 0 -3 0 -4 0 -4 0 -4 0 -4 0 -3 0 -4 0 -3 0 -4 0 -3 0 -3 0 -3 0 -2 0 -3 0 -2 0 -1 0 -2 0 -1 0 0 0 0 0 0zm-10 -23l12 22 -2 1 -12 -21 1 -2 1 0zm-1 0l1 0 0 0 -1 0zm-69 3l0 -3 0 0 1 0 2 0 2 0 1 0 3 0 2 0 2 0 3 0 3 0 2 0 3 0 3 0 3 0 3 0 3 0 3 0 3 0 3 0 3 0 3 0 2 0 3 0 2 0 2 0 2 0 2 0 2 0 1 0 1 0 1 0 0 0 0 0 0 3 0 0 0 0 -1 0 -1 0 -1 0 -2 0 -2 0 -2 0 -2 0 -2 0 -3 0 -2 0 -3 0 -3 0 -3 0 -3 0 -3 0 -3 0 -3 0 -3 0 -3 0 -3 0 -2 0 -3 0 -3 0 -2 0 -2 0 -3 0 -1 0 -2 0 -2 0 -1 0 0 0zm0 -2l-2 0 0 0 0 -1 0 0 0 0 1 0 0 0 0 0 0 0 0 0 0 0 0 0 0 0 0 0 0 0 0 0 0 0 0 0 0 0 0 0 0 0 0 0 0 0 0 0 0 0 1 0 0 0 0 0 0 0 0 0 0 0 0 0 0 0 0 0 0 3 0 0 0 0 0 0 0 0 0 0 0 0 0 0 0 0 0 0 -1 0 0 0 0 0 0 0 0 0 0 0 0 0 0 0 0 0 0 0 0 0 0 0 0 0 0 0 0 0 0 0 0 0 0 0 0 0 0 0 0 0 1 -1 0 -1 0 0z"/>
   </g>
   <rect class="fil3" x="38" y="18" width="46.8805" height="6.18793"/>
   <rect class="fil3" x="38" y="34" width="55.8131" height="6.38475"/>
   <rect class="fil3" x="38" y="49" width="62.2621" height="6.4747"/>
   <path class="fil4" d="M0 106c16,14 40,16 57,1 0,0 0,0 0,0l1 -1c-3,-5 -11,-7 -17,-10 -1,-1 -2,-2 -2,-3l0 -5c1,0 1,-1 1,-1 2,-3 4,-5 5,-8 2,-1 3,-3 3,-6l0 -5c0,-2 -1,-3 -1,-4l0 -7c0,-1 0,-6 -3,-10 -3,-3 -8,-5 -15,-5 -7,0 -6,3 -8,4 -2,1 -4,-1 -6,2 -4,3 -3,8 -3,9l0 7c-1,1 -1,2 -1,4l0 5c0,2 1,4 2,5 1,5 4,9 5,10l0 5c0,1 -1,2 -2,3l-13 7c-1,0 -2,2 -3,3z"/>
   <path class="fil5" d="M92 96c0,-1 -1,-2 -1,-3 -1,-1 -2,-2 -4,-2 -2,-1 -4,-2 -5,-2 -1,-1 -2,-2 -3,-3 -1,0 -2,-1 -2,-3 -1,-1 -1,-2 -1,-4 0,-3 1,-5 3,-7 1,-1 4,-2 7,-3l0 -5 4 0 0 5c2,1 5,2 6,4 2,2 3,5 3,8l-7 0c0,-2 -1,-4 -2,-5 0,-1 -1,-1 -3,-1 -1,0 -2,0 -3,1 -1,1 -1,2 -1,3 0,1 0,2 1,3 1,1 2,2 4,3 2,0 4,1 5,2 1,0 2,1 3,2 1,1 2,2 2,3 1,1 1,2 1,4 0,3 -1,5 -3,7 -2,1 -4,2 -7,3l0 5 -4 0 0 -5c-3,-1 -6,-2 -8,-4 -1,-2 -2,-4 -2,-8l7 0c0,2 0,4 1,5 1,1 2,1 4,1 1,0 3,0 3,-1 1,-1 2,-2 2,-3z"/>
  </g>
 </g>
</svg>
