<svg xmlns="http://www.w3.org/2000/svg" width="120" height="120" shape-rendering="geometricPrecision" text-rendering="geometricPrecision" image-rendering="optimizeQuality" fill-rule="evenodd" clip-rule="evenodd"><defs><linearGradient id="id0" gradientUnits="userSpaceOnUse" x1="90.2" y1="30.3" x2="109" y2="5"><stop offset="0" stop-color="#1cc8eb"/><stop offset=".6" stop-color="#0e96e0"/><stop offset="1" stop-color="#0063d4"/></linearGradient><style>.fil1,.fil4,.fil5{fill:#ffcc29;fill-rule:nonzero}.fil1,.fil4{fill:#000}.fil1{fill:#2887d2}</style></defs><g id="Layer_x0020_1"><path fill="none" d="M0 0h120v120H0z"/><g id="_716538960"><path class="fil1" d="M103 18v99H28V18z"/><path fill="#fefefe" fill-rule="nonzero" d="M99 16v97H24V16z"/><path id="1" class="fil1" d="M98 29V16h2v13h-2zm0 84V29h2v84l-1 2-1-2zm2 0v2h-1l1-2zm-76-2h75v4H24l-1-2 1-2zm0 4h-1v-2l1 2zm2-99v97h-3V16l1-2 2 2zm-3 0v-2h1l-1 2zm76 1H24v-3h75l1 2-1 1zm0-3h1v2l-1-2z"/><g id="_716539992"><path d="M12 113v4-3-1z"/><path class="fil4" d="M11 114c0 1 0 1 1 1s1 0 1-1l2-7-1 1h-4c-1 0-1-1-1-1l2 7z"/><path class="fil5" d="M11 111v-3h3l1-1-2 7c0 1 0 1-1 1s-1 0-1-1c-1-1-1-2-1-2s1 0 1-1z"/><path class="fil4" d="M9 37h4v1-6c0-1 0-2-1-2l-3 1c-1 0-1 0-1 2v5l1-1z"/><path class="fil5" d="M10 34l1-1v-3h1c1 0 1 1 1 2v5H9l-1 1v-4h2z"/><path d="M10 108h4c1 0 1-1 1-2l-1-66c0-2 0-3-1-3H9c-1 0-2 1-1 3v66c0 1 1 2 2 2z" fill="#606062" fill-rule="nonzero"/><path class="fil4" d="M11 105c1 0 1-1 1-3l-1-65h2c1 0 1 1 1 3l1 66c0 1 0 2-1 2h-4c-1 0-2-1-2-2v-1h3z"/><path class="fil5" d="M15 87H8v10h7z"/><path class="fil5" d="M15 97V87h-3v10zM14 38H8v49h7z"/><path class="fil4" d="M14 38l1 48v1h-3V38z"/><path d="M10 37H5v11s1 1 1 0V38h4v-1z"/></g><path fill="#2887d2" d="M36 27h50v5H64v74h-5V32H36z"/><path class="fil1" d="M38 60V40h6c2 0 4 0 5 1 2 1 3 2 3 4 1 1 2 3 2 5s-1 4-2 5c0 2-1 3-3 4-1 0-3 1-4 1h-7zm4-17v14h2c2 0 3-1 4-2s1-2 1-4v-1c0-2 0-4-1-5s-2-2-4-2h-2zM87 53c0 2-1 4-3 5-1 1-3 2-5 2-3 0-5-1-6-3-2-1-2-4-2-7v-1c0-2 0-4 1-5 0-1 1-3 2-3 2-1 3-1 5-1s4 0 5 1c2 2 3 3 3 6h-4c0-2-1-3-1-3-1-1-2-1-3-1-2 0-3 0-3 1-1 1-1 3-1 5v1c0 3 0 4 1 5 0 1 1 2 3 2 1 0 2-1 3-1 0-1 1-2 1-3h4z"/><circle cx="100" cy="18" r="16" fill="url(#id0)"/><path d="M102 22v-2c-1 0-1 0-2-1-1 0-2 0-3-1 0 0-1 0-1-1-1 0-1-1-2-1v-3c0-1 1-2 1-3 1-1 3-2 4-2V6h2v2c2 1 3 1 4 2 0 1 1 2 1 4l-1 1h-2l-1-1v-2c-1-1-1-1-2-1s-1 0-2 1v3c1 0 1 1 2 1 1 1 2 1 3 1 0 1 1 1 1 1 1 1 1 1 1 2 1 1 1 1 1 2s-1 3-1 4c-1 0-3 1-4 1v2s0 1-1 1h-1v-3c-2 0-3-1-4-2s-2-2-2-3 1-1 2-1h1c1 0 1 0 1 1s0 1 1 1c0 1 1 1 2 1h2v-2z" fill="#fff212" fill-rule="nonzero"/></g></g></svg>