<svg xmlns="http://www.w3.org/2000/svg" width="120" height="120" shape-rendering="geometricPrecision" text-rendering="geometricPrecision" image-rendering="optimizeQuality" fill-rule="evenodd" clip-rule="evenodd">
  <defs>
    <linearGradient id="id0" gradientUnits="userSpaceOnUse" x1="66" y1="88.4" x2="118" y2="88.4">
      <stop offset="0" stop-color="#cbe1f4"/>
      <stop offset=".4" stop-color="#e5f0f9"/>
      <stop offset="1" stop-color="#fff"/>
    </linearGradient>
    <linearGradient id="id1" gradientUnits="userSpaceOnUse" x1="76.5" y1="60" x2="107.4" y2="60">
      <stop offset="0" stop-color="#eedec5"/>
      <stop offset=".4" stop-color="#f6eee2"/>
      <stop offset="1" stop-color="#fff"/>
    </linearGradient>
    <linearGradient id="id2" gradientUnits="userSpaceOnUse" x1="29.7" y1="17.1" x2="29.7" y2="62.1">
      <stop offset="0" stop-color="#04870f"/>
      <stop offset="1" stop-color="#1deb23"/>
    </linearGradient>
    <style>
      .fil2{fill:#a98f71}.fil10{fill:#00afef}.fil4{fill:#2887d2}.fil3{fill:#f0a71f}.fil1{fill:#ffcb68}.fil9{fill:#2887d2;fill-rule:nonzero}
    </style>
  </defs>
  <g id="Layer_x0020_1">
    <path fill="none" d="M0 0h120v120H0z"/>
    <g id="_543972688">
      <path class="fil1" d="M52 42h47.5v47.5H52z"/>
      <path class="fil2" d="M68 45h15.5v2.8H68z"/>
      <path class="fil3" d="M52 42l11-4h45l-9 4H52z"/>
      <path class="fil3" d="M99 90l9-7V38l-9 4v48z"/>
      <g>
        <path class="fil1" d="M40 55h47.5v47.5H40z"/>
        <path class="fil2" d="M56 58h15.5v2.8H56z"/>
        <path class="fil3" d="M40 56l11-5h45l-9 4s-47 0-47 1z"/>
        <path class="fil3" d="M87 103l9-6V51l-9 4v48z"/>
      </g>
      <g>
        <path class="fil4" d="M76 43v7c-2 2-2 3-1 5v1l1 2h1c0 1 1 3 1 4l2 2s0 0 0 0 0 0 0 0l1 2c0 1 2 2 2 3l3 1s0 0 0 0c1 1 0 1 1 1 0 0 1 0 2 1 2 0 6 0 8-1 1-1 2-1 3-2l3-3c2-3 1-1 3-4v-2s1-1 1-2h1c0-1 1-2 1-3 1-1 1-3 0-4 0 0 0 0 0 0-2-2-1-3-1-6 0-6-1-8-5-12h-1c-1-1-1-1-2-1-8-4-21-1-23 8-1 1-1 2-1 3z" stroke="#fefefe" stroke-width="2.1"/>
        <path d="M92 70c3 0 5-1 7-3 1 0 2-1 2-2 1 0 1-1 1-1 1-1 1-1 1-2 1-1 1 0 1-1l1-1c0-2 0-3 1-4 1 0 1 0 1-1s1-1 0-2v-2h-1v-1c-2 0-2 3-6 2l-3-1H86l-4 1c-1 0-2 0-3-1 0 0 0-1-1-1l-1 1v2c-1 2 0 3 1 4 1 0 1 2 1 2 1 1 1 3 2 4s1 2 2 3c2 1 1 1 3 2l2 1c1 1 3 1 4 1z" fill="url(#id1)"/>
        <path d="M78 43c0 1 0 3 1 3 7-4 17-5 25-1h1c0-3 1-6-2-9-2-2-2-1-3-2-6-3-15-2-19 2l-1 1c-1 1-2 4-2 6z" fill="#b8e5fa"/>
        <path d="M79 47v1l2 2c1 1 1 0 4 0 1 0 2-1 4-1h7l4 1c3 1 2 0 4-1 0-1 1-1 1-2-8-4-18-4-26 0z" fill="#fc4d44"/>
        <path class="fil4" d="M86 52c-1 0-1 1-1 2s0 1 1 1h1c2 0 1-3-1-3zM99 54s0-1-1-2c-2 0-3 3-1 3 1 1 1 0 2-1z"/>
        <g>
          <path d="M82 76s-12 3-14 4c-3 1-2 19-2 19s0 3 3 3h46c3 0 3-3 3-3s1-18-2-19c-2-1-14-4-14-4 1 0-1-1-4-1-2-1-5 0-7 0-1 0-4-1-6 0-2 0-4 1-3 1z" fill="url(#id0)"/>
          <path id="1" class="fil9" d="M68 81l-1-2h2l1-1h2l1-1h2l1-1h3l1-1h1l1 1h-2v1h-3l-1 1h-2l-1 1h-3v1h-2v1zm-1 18h-2V88h1v-7h1v-2l1 2-1 1v17zm2 3v1h-1l-1-1h-1v-2l-1-1h2v2h1v1h1zm22 0v1H69v-1h22zm0 0zm24 0v1H91v-1h24zm2-3h2v1h-1v2h-1l-1 1h-1v-1l1-1h1v-2zm-1-18l1-2v2h1v7h1v11h-2V82l-1-1zm-14-6v1-1h2v1h4v1h3l1 1h2l1 1h2l-1 2v-1h-2l-1-1h-2l-1-1h-3v-1h-3l-1-1h-1v-1zm-4 0v-1h3v1h2l-1 1v-1l-1 1h1-2v-1h-2zm-7 1l1-2h-1 7v1h-6v1h-1zm1 0h-1 1zm-7-1v-1h7l-1 2v-1h-6zm-3 1l-1-1 1 1h-1v-1h1l1-1h2v1h-1l-1 1h-1v-1h-1l1 1z"/>
        </g>
        <path class="fil4" d="M92 75l-2 3s0 1 1 1v1l-2 22h6l-2-22v-1c1 0 1-1 1-1l-2-3z"/>
        <g>
          <path class="fil10" d="M84 71l-2 3 7 5 3-4s-4-3-5-4h-3zM100 71l2 3-7 5-3-4s4-3 5-4h3z"/>
        </g>
        <path fill="#fefefe" d="M101 87h12.6v7.1H101z"/>
        <g>
          <path class="fil4" d="M106 89h3.8v1H106zM102 89h3.8v3H102zM106 91h4.9v1H106z"/>
        </g>
      </g>
      <g id="_543972304">
        <path class="fil9" d="M30 29c-1 0-2-1-2-2s1-2 2-2 2 1 2 2-1 2-2 2zm9-3h-3c-1-2-3-4-6-4s-6 2-6 4h-4c-3 0-5 1-5 3v2h11c1 1 2 1 4 1 1 0 3 0 4-1h10v-2c0-2-2-3-5-3z"/>
        <path class="fil9" d="M55 103H4c-1 0-2-1-2-3V33c0-1 1-2 2-2h51c1 0 2 1 2 2v67c0 2-1 3-2 3z"/>
        <path fill="#fefefe" fill-rule="nonzero" d="M5 99h49V36H5z"/>
        <path class="fil9" d="M14 49h-4v-4h4v4zm-5 1h6v-6H9v6zM14 59h-4v-4h4v4zm-5 1h6v-6H9v6zM14 69h-4v-4h4v4zm-5 1h6v-6H9v6zM14 80h-4v-4h4v4zm-5 1h6v-6H9v6zM14 90h-4v-4h4v4zm-5 1h6v-6H9v6z"/>
        <path class="fil9" d="M9 91h6v-6h-1l-1 1h1v4h-4z"/>
        <g>
          <path fill="#95a0b9" fill-rule="nonzero" d="M49 91H18v-5h31z"/>
          <path class="fil9" d="M49 91H18v-5h31z"/>
        </g>
        <g>
          <path class="fil9" d="M49 80H18v-5h31z"/>
          <path class="fil9" d="M18 80h31v-5H22z"/>
        </g>
        <g>
          <path class="fil9" d="M49 69H18v-5h31z"/>
          <path class="fil9" d="M26 69h23v-5H30z"/>
        </g>
        <g>
          <path class="fil9" d="M49 58H18v-5h31z"/>
          <path class="fil9" d="M35 58h14v-5H39z"/>
        </g>
        <g>
          <path class="fil9" d="M49 48H18v-5h31z"/>
          <path class="fil9" d="M43 48h6v-5h-2z"/>
        </g>
      </g>
      <g fill-rule="nonzero">
        <path d="M35 17v25h8L30 62 17 42h7V17h11zm-5 0" fill="url(#id2)"/>
        <path id="1" d="M36 42l-1 1-1-1V17h2v25zm-1 1h-1v-1l1 1zm8-1l1 1h-9v-1h8zm0 0h2l-1 1-1-1zM31 63h-2v-1l13-20 2 1-13 20zm0 0l-1 1-1-1h2zM16 43l1-1 14 20-2 1-13-20zm0 0l-1-1h2l-1 1zm8-1h1l-1 1h-7v-1h7zm1 0v1h-1l1-1zm-1-25v-1l1 1v25h-1V17zm0 0v-1 1zm11-1l1 1-1 1H24v-2h11zm0 0h1v1l-1-1z" fill="#fefefe"/>
      </g>
    </g>
  </g>
</svg>
