<svg xmlns="http://www.w3.org/2000/svg" width="50" height="50" shape-rendering="geometricPrecision" text-rendering="geometricPrecision" image-rendering="optimizeQuality" fill-rule="evenodd" clip-rule="evenodd"><defs><linearGradient id="id0" gradientUnits="userSpaceOnUse" x1="1" y1="37.3" x2="29.8" y2="37.3"><stop offset="0" stop-color="#cbe1f4"/><stop offset=".4" stop-color="#e5f0f9"/><stop offset="1" stop-color="#fff"/></linearGradient><linearGradient id="id1" gradientUnits="userSpaceOnUse" x1="6.8" y1="21.6" x2="23.9" y2="21.6"><stop offset="0" stop-color="#eedec5"/><stop offset=".4" stop-color="#f6eee2"/><stop offset="1" stop-color="#fff"/></linearGradient><style>.fil2{fill:#a98f71}.fil10{fill:#00afef}.fil4{fill:#2887d2}.fil3{fill:#f0a71f}.fil1{fill:#ffcb68}</style></defs><g id="Layer_x0020_1"><path fill="none" d="M0 0h50v50H0z"/><g id="_876509960"><path class="fil1" d="M26 19h19.7v19.7H26z"/><path class="fil2" d="M32 20h6.4v1.1H32z"/><path class="fil3" d="M26 19l4-2h19l-4 2H26z"/><path class="fil3" d="M45 38l4-2V17l-4 2v19z"/><g><path class="fil1" d="M21 24h19.7v19.7H21z"/><path class="fil2" d="M27 25h6.4v1.1H27z"/><path class="fil3" d="M21 24l4-2h19l-4 2H21z"/><path class="fil3" d="M40 44l4-3V22l-4 2v20z"/></g><g><path class="fil4" d="M7 12v3c0 1 0 1-1 1v3l1 1v1s0 1 1 2v1h1v1s1 1 2 1l1 1c0 1 0 0 1 1h5l2-2c1 0 1 0 2-1 1-2 0-1 1-3 0-1 1-1 1-1v-1l1-1v-2-1c-1-1-1-1-1-3 0-3 0-4-2-6h-1l-1-1C15 4 8 5 7 10v2z"/><path d="M15 27c2 0 3 0 4-1s1-1 1-2h1c0-1 1-1 1-1v-2c1-1 1-1 1-2h1v-1-1c-1 0-1 0-1-1-1 0-1 2-3 1h-8-4v-1l-1 1v1c0 1 0 1 1 2v1c0 1 1 2 1 2l2 2c0 1 0 0 1 1l1 1h2z" fill="url(#id1)"/><path d="M8 12v2c4-2 10-3 14-1l1 1c0-2 0-4-1-6-1-1-1 0-2-1-3-2-8-1-11 1v1c-1 0-1 2-1 3z" fill="#b8e5fa"/><path d="M8 15l1 1c1 1 1 0 2 0h2c1-1 4-1 5 0h2c1 1 1 0 2-1 0 0 1 0 0 0-4-3-9-3-14 0z" fill="#fc4d44"/><path class="fil4" d="M12 17s-1 1 0 1v1h1c1 0 0-2-1-2zM19 19v-2c-2 0-2 2-1 2h1z"/><g><path d="M2 33c-1 0-1 10-1 10s0 2 2 2h25c2 0 2-2 2-2s0-10-1-10c-1-1-8-3-10-3-1-1-3 0-4 0s-2-1-3 0c-2 0-9 2-10 3z" fill="url(#id0)"/><path id="1" d="M1 43V32h1v4l-1 1v6zm2 2H1v-2 1h1v1h1zm12 0H3h12zm0 0zm13 0H15h13zm1-2h1v2h-2v-1h1v-1zm0-10v-1 1h1v10h-1V33zm-10-3v-1h1v1h4v1h3v1h2v1h-1l-1-1h-3v-1h-3v-1h-2zm-4 0v-1h4v1h-4zm0 0zm-3 0l-1-1h4v1h-3zM2 33v-1h1l1-1h3v-1h3l1-1 1 1h-2l-1 1H6v1H3v1H2z" fill="#2887d2" fill-rule="nonzero"/></g><path class="fil4" d="M15 30l-1 2h1l-1 13h3l-1-13h1l-2-2z"/><g><path class="fil10" d="M11 27l-1 2 4 3 1-2s-2-2-3-2 0-1-1-1zM20 27l1 2-4 3-2-2s2-2 3-2 1-1 2-1z"/></g><path fill="#fefefe" d="M20 37h7v3.9h-7z"/><g><path class="fil4" d="M23 38h2.1v.6H23z"/><path class="fil4" d="M21 38h2.1v1.7H21z"/><path class="fil4" d="M23 39h2.7v.6H23z"/></g></g></g></g></svg>