<svg xmlns="http://www.w3.org/2000/svg" width="120" height="120" shape-rendering="geometricPrecision" text-rendering="geometricPrecision" image-rendering="optimizeQuality" fill-rule="evenodd" clip-rule="evenodd"><defs><style>.fil9{fill:#a98f71}.fil10{fill:#f0a71f}.fil8{fill:#ffcb68}</style></defs><g id="Layer_x0020_1"><path fill="none" d="M0 0h120v120H0z"/><g id="_603740664"><g fill-rule="nonzero"><path d="M92 92c0 2-1 3-2 3H34c-5 0-10-5-10-11 0-5 5-10 10-10h19c4 0 7-4 7-8s-3-8-7-8H37c-2 0-3-1-3-2 0-2 1-3 3-3h16c7 0 13 6 13 13s-6 13-13 13H34c-3 0-5 2-5 5s2 6 5 6h56c1 0 2 1 2 2z" fill="#a8ebfa"/><path d="M92 92c0 2-1 3-2 3H68v-5h22c1 0 2 1 2 2z" fill="#76e2f8"/><path d="M34 13v37c0 2-1 3-2 3-2 0-3-1-3-3V13c0-1 1-2 3-2 1 0 2 1 2 2z" fill="#3e5959"/><path d="M51 26l6-6c1 0 1-1 1-2-1-1-2-2-3-2H32v21h23c1 0 2-1 3-2 0-1 0-2-1-3l-6-6z" fill="#c73538"/><path d="M34 13v37c0 2-1 3-2 3V11c1 0 2 1 2 2z" fill="#384949"/><path d="M32 48c-5 0-8 3-8 8 0 4 3 7 8 7 4 0 8-3 8-7 0-5-4-8-8-8z" fill="#73bcff"/><path d="M40 56c0 4-4 7-8 7V48c4 0 8 3 8 8z" fill="#3aaaff"/></g><path class="fil8" d="M2 74h33.3v33.3H2z"/><path class="fil9" d="M13 76h10.9v1.9H13z"/><path class="fil10" d="M2 74l8-3h31l-6 3H2z"/><path class="fil10" d="M35 107l6-4V71l-6 3v33z"/><g><path class="fil8" d="M81 72h37v37H81z"/><path class="fil9" d="M93 74h12.1v2.1H93z"/><path class="fil10" d="M118 72l-9-3H74l7 3h37z"/><path class="fil10" d="M81 109l-7-5V69l7 3v37z"/></g></g></g></svg>