<svg xmlns="http://www.w3.org/2000/svg" width="120" height="120" shape-rendering="geometricPrecision" text-rendering="geometricPrecision" image-rendering="optimizeQuality" fill-rule="evenodd" clip-rule="evenodd"><defs><linearGradient id="id0" gradientUnits="userSpaceOnUse" x1="90.5" y1="30.9" x2="109.7" y2="5.1"><stop offset="0" stop-color="#1cc8eb"/><stop offset=".6" stop-color="#0e96e0"/><stop offset="1" stop-color="#0063d4"/></linearGradient><style>.fil3{fill:#2887d2}.fil1,.fil7,.fil8{fill:#ffcc29;fill-rule:nonzero}.fil1,.fil7{fill:#000}.fil1{fill:#2887d2}</style></defs><g id="Layer_x0020_1"><path fill="none" d="M0 0h120v120H0z"/><g id="_693714416"><path class="fil1" d="M105 17v101H28V17z"/><path fill="#fefefe" fill-rule="nonzero" d="M100 15v99H24V15z"/><path id="1" class="fil1" d="M99 28V15h3v13h-3zm0 86V28h3v86l-2 2-1-2zm3 0v2h-2l2-2zm-78-1h76v3H24l-1-2 1-1zm0 3h-1v-2l1 2zm1-101v99h-2V15l1-2 1 2zm-2 0v-2h1l-1 2zm77 1H24v-3h76l2 2-2 1zm0-3h2v2l-2-2z"/><g><path class="fil1" d="M42 31h-2v-8l-2 1v-2l4-2z"/><path id="1" class="fil1" d="M44 46h-7v-1l4-4 1-1v-1-1c0-1-1-1-1-1-1 0-1 0-1 1-1 0-1 1-1 1h-2c0-1 0-1 1-2 0 0 0-1 1-1h4c1 1 1 2 1 3v1l-2 2-2 2h4v2z"/><path id="2" class="fil1" d="M38 60c0-1 0-1 1-1l1 1v1c-1 0-1 1-1 1-1 0-1-1-1-1v-1z"/><path id="3" class="fil1" d="M38 76v-1h2v2h-2v-1z"/><path id="4" class="fil1" d="M38 91v-1h2v2h-2v-1z"/><path id="5" class="fil1" d="M39 101h3v-1-1h-2c-1 0-1 1-1 1h-2c0-1 0-1 1-2l1-1h2c1 0 2 0 2 1 1 0 1 1 1 2v1l-1 1 1 1v2c0 1 0 1-1 2 0 0-1 1-2 1s-2-1-3-1c0-1-1-1-1-2h2l1 1h2v-1c0-1 0-2-1-2h-2v-2z"/><path id="6" class="fil1" d="M53 103c0 2-1 3-1 4-1 0-2 1-3 1s-2-1-2-1c-1-1-1-2-1-4v-2c0-1 0-2 1-3 0-1 1-1 2-1s2 0 3 1c0 1 1 2 1 3v2zm-2-2c0-1-1-1-1-2h-1-1v6c0 1 1 1 1 1 1 0 1 0 1-1l1-1v-3z"/><path class="fil3" d="M51 24h30.2v4.6H51zM51 39h40.3v4.6H51zM57 99h33.4v4.6H57z"/></g><g id="_693715568"><circle cx="100" cy="18" r="16" fill="url(#id0)"/><path d="M103 23c0-1 0-2-1-2 0-1-1-1-2-1-1-1-2-1-2-1-1-1-2-1-2-2-1 0-1-1-1-1 0-1-1-1-1-2 0-2 1-3 2-4s2-1 4-2V6h2v3c1 0 2 0 3 1s1 2 1 4c0 1 0 1-1 1h-1c-1 0-1 0-1-1s-1-1-1-2c0 0-1-1-2-1l-1 1c-1 0-1 1-1 2 0 0 0 1 1 1 0 1 1 1 2 1 1 1 2 1 2 2 1 0 2 0 2 1l1 1v2c0 2 0 3-1 4s-2 1-4 2v2h-1-1v-2c-1-1-3-1-4-2s-1-2-1-4c0-1 0-1 1-1h1c1 0 1 0 1 1s1 1 1 2c1 0 1 1 2 1s2 0 2-1c1 0 1-1 1-1z" fill="#fff212" fill-rule="nonzero"/></g><g id="_693714464"><path d="M11 113c1 0 1 0 1 1l-1 3v0-3-1z"/><path class="fil7" d="M10 114c0 1 1 1 1 1h1v-1l2-8c0 1 0 1-1 1H9 8l2 7z"/><path class="fil8" d="M10 111l1-4h2c1 0 1 0 1-1l-2 8v1h-1s-1 0-1-1v-2-1z"/><path class="fil7" d="M8 36h5v-5c0-2-1-2-1-2H8s-1 1-1 2v5h1z"/><path class="fil8" d="M9 32c1 0 1 0 1-1v-2h2s1 0 1 2v5H8 7v-4h2z"/><path d="M9 108h4c1 0 2-1 1-3V38c0-2-1-3-2-3H8c-1 0-1 2-1 3l1 68c0 1 0 2 1 2z" fill="#606062" fill-rule="nonzero"/><path class="fil7" d="M10 104c1 0 2-1 2-2l-1-67h1c1 0 2 1 2 3v67c1 2 0 3-1 3H9c-1 0-1-1-1-2v-1l2-1z"/><path class="fil8" d="M14 86H7l1 11h6z"/><path class="fil8" d="M14 97V86h-3v11zM14 36H7v50h7z"/><path class="fil7" d="M14 36v50h-3V36z"/><path d="M9 35H4v12h2V37h3v-2z"/></g></g></g></svg>