<?xml version="1.0" encoding="UTF-8"?>
<!DOCTYPE svg PUBLIC "-//W3C//DTD SVG 1.1//EN" "http://www.w3.org/Graphics/SVG/1.1/DTD/svg11.dtd">
<!-- Creator: CorelDRAW X7 -->
<svg xmlns="http://www.w3.org/2000/svg" xml:space="preserve" width="120px" height="120px" version="1.1" style="shape-rendering:geometricPrecision; text-rendering:geometricPrecision; image-rendering:optimizeQuality; fill-rule:evenodd; clip-rule:evenodd"
viewBox="0 0 120 120"
 xmlns:xlink="http://www.w3.org/1999/xlink">
 <defs>
  <style type="text/css">
   <![CDATA[
    .fil0 {fill:none}
    .fil1 {fill:#2887D2}
    .fil2 {fill:#F6F6F8}
    .fil4 {fill:#ABABB0;fill-rule:nonzero}
    .fil6 {fill:#F0A71F;fill-rule:nonzero}
    .fil5 {fill:#FC4D44;fill-rule:nonzero}
    .fil3 {fill:#FFCC00;fill-rule:nonzero}
    .fil7 {fill:#F4F4F4;fill-rule:nonzero}
   ]]>
  </style>
 </defs>
 <g id="Layer_x0020_1">
  <metadata id="CorelCorpID_0Corel-Layer"/>
  <rect class="fil0" width="120" height="120"/>
  <g id="_602817008">
   <path class="fil1" d="M22 36c0,0 0,0 0,1l11 3 -21 17 -10 -26 8 2c2,-3 4,-6 6,-9 1,0 1,-1 2,-2 5,-5 11,-10 18,-13 8,-3 16,-5 24,-5 32,0 58,26 58,57 0,7 -1,12 -3,18l-11 -4c2,-4 2,-9 2,-14 0,-25 -20,-46 -46,-46 -16,0 -30,9 -38,21z"/>
   <path class="fil1" d="M105 114c-3,1 -5,2 -8,2 -5,1 -10,-1 -14,-4 -8,-7 -10,-18 -3,-27 6,-9 17,-11 26,-5 4,3 7,7 8,11 1,4 1,8 0,12l-1 3c0,0 -2,5 -8,8z"/>
   <path class="fil2" d="M92 98l0 0c0,0 -1,-1 -1,-1 -2,-2 -4,-5 -7,-3 -1,1 -2,3 -1,5 0,1 1,2 2,2 1,1 3,3 4,4 1,1 1,1 2,1 0,1 1,1 2,0 1,0 6,-5 7,-6 2,-2 4,-4 6,-6 1,-1 2,-2 2,-4 0,-2 -1,-3 -2,-3 -3,-1 -4,1 -6,2 0,1 0,1 0,1 -1,1 -1,0 -1,1 -1,0 -1,0 -1,1 0,0 0,0 -1,0 0,1 0,1 -1,2l-3 2c0,1 -1,1 -1,2z"/>
   <path class="fil1" d="M78 112c-1,1 -7,3 -8,3 -5,1 -7,1 -12,1 -2,0 -6,0 -7,-1 -5,-1 -5,-8 0,-9 2,-1 8,2 19,-1 1,0 2,-1 3,-1 1,2 1,3 2,5 1,1 3,3 3,3z"/>
   <path class="fil1" d="M27 96c0,4 -5,6 -8,3 -1,-1 -2,-2 -3,-4 -1,0 -1,-1 -2,-2 -3,-5 3,-10 7,-6l4 5c1,1 2,2 2,4z"/>
   <path class="fil1" d="M33 99c2,0 3,2 5,2 1,1 4,2 5,3 2,3 0,8 -4,8 -2,0 -8,-3 -9,-5 -3,-3 -1,-8 3,-8z"/>
   <path class="fil1" d="M11 68c3,1 3,4 5,8 0,2 0,4 -1,6 -2,2 -7,3 -8,-2 -1,-2 -2,-4 -2,-5 0,-3 -1,-4 1,-6 1,-1 3,-2 5,-1z"/>
   <g>
    <polygon class="fil3" points="41,94 39,79 49,79 55,87 "/>
    <polygon class="fil4" points="60,40 62,34 78,43 75,48 "/>
    <path class="fil5" d="M68 28c0,0 -1,0 -1,0 -1,1 -2,2 -3,4l-2 2 16 9 2 -3c1,-3 1,-7 -2,-10 -2,-3 -6,-4 -10,-2z"/>
    <path class="fil6" d="M60 40l-21 39 9 2 13 -24 -13 24 3 3 4 3 20 -38 0 -1 -3 -2 -12 -6zm3 12l2 -3 -2 3z"/>
    <path class="fil7" d="M51 77c0,0 -1,0 -1,0 -1,-1 -1,-1 -1,-2l11 -20c0,0 1,-1 1,-1 1,0 1,0 2,1 0,0 0,1 0,1l-11 20c0,1 0,1 -1,1z"/>
    <path class="fil7" d="M64 52c0,0 -1,0 -1,-1 0,0 -1,-1 0,-1l1 -3c1,-1 1,-1 2,0 1,0 1,1 1,2l-2 2c0,1 0,1 -1,1z"/>
   </g>
  </g>
 </g>
</svg>
