<?xml version="1.0" encoding="UTF-8"?>
<!DOCTYPE svg PUBLIC "-//W3C//DTD SVG 1.1//EN" "http://www.w3.org/Graphics/SVG/1.1/DTD/svg11.dtd">
<!-- Creator: CorelDRAW X7 -->
<svg xmlns="http://www.w3.org/2000/svg" xml:space="preserve" width="347px" height="143px" version="1.1" style="shape-rendering:geometricPrecision; text-rendering:geometricPrecision; image-rendering:optimizeQuality; fill-rule:evenodd; clip-rule:evenodd"
viewBox="0 0 359 148"
 xmlns:xlink="http://www.w3.org/1999/xlink">
 <defs>
  <style type="text/css">
   <![CDATA[
    .fil0 {fill:none}
    .fil5 {fill:#FFF212}
    .fil6 {fill:#00AFEF}
    .fil4 {fill:black}
    .fil3 {fill:#4E8AC8}
    .fil13 {fill:#6E3614}
    .fil11 {fill:#99562C}
    .fil12 {fill:#AD5F2F}
    .fil2 {fill:#AD5F2F}
    .fil1 {fill:#BF774A}
    .fil14 {fill:#E09200}
    .fil9 {fill:#FEFEFE;fill-rule:nonzero}
    .fil10 {fill:#FFF212;fill-rule:nonzero}
    .fil15 {fill:#ED3237;fill-rule:nonzero}
    .fil8 {fill:#4E901E;fill-rule:nonzero}
    .fil7 {fill:#7ED63E;fill-rule:nonzero}
   ]]>
  </style>
 </defs>
 <g id="Layer_x0020_1">
  <metadata id="CorelCorpID_0Corel-Layer"/>
  <g id="_677648696">
   <g>
    <rect class="fil0" width="359" height="148"/>
    <path class="fil1" d="M209 25c0,0 -12,-1 -13,6 -1,8 0,12 6,13 6,2 51,1 51,1l64 0c0,0 10,0 13,1 2,0 4,1 4,1 0,0 0,-12 0,-16 0,-4 -3,-6 -30,-6 -26,0 -95,0 -95,0z"/>
    <path class="fil2" d="M204 22l122 0c7,0 12,6 12,12l0 3 0 15c-6,-2 -4,-3 -12,-3l-122 0c-8,0 -12,-9 -12,-13l0 -2c0,-6 5,-12 12,-12zm5 3c0,0 -12,-1 -13,6 -1,8 0,12 6,13 6,2 51,1 51,1l64 0c0,0 10,0 13,1 2,0 4,1 4,1 0,0 0,-12 0,-16 0,-4 -3,-6 -30,-6 -26,0 -95,0 -95,0z"/>
    <g>
     <rect class="fil3" x="212" y="9" width="79.1683" height="47.5005" rx="7" ry="7"/>
     <rect class="fil4" x="212" y="16" width="79.1683" height="4.16887"/>
     <g>
      <rect class="fil5" x="217" y="30" width="4.67929" height="5.20113"/>
      <rect class="fil5" x="224" y="30" width="4.67929" height="5.20113"/>
      <rect class="fil5" x="230" y="30" width="4.67929" height="5.20113"/>
      <rect class="fil5" x="237" y="30" width="4.67929" height="5.20113"/>
      <rect class="fil5" x="243" y="30" width="4.67929" height="5.20113"/>
      <rect class="fil5" x="250" y="30" width="4.67929" height="5.20113"/>
     </g>
    </g>
    <g>
     <rect class="fil6" x="199" y="16" width="79.1683" height="47.5005" rx="7" ry="7"/>
     <rect class="fil4" x="199" y="24" width="79.1683" height="4.16887"/>
     <g>
      <rect class="fil5" x="204" y="38" width="4.67929" height="5.20113"/>
      <rect class="fil5" x="210" y="38" width="4.67929" height="5.20113"/>
      <rect class="fil5" x="217" y="38" width="4.67929" height="5.20113"/>
      <rect class="fil5" x="223" y="38" width="4.67929" height="5.20113"/>
      <rect class="fil5" x="230" y="38" width="4.67929" height="5.20113"/>
      <rect class="fil5" x="236" y="38" width="4.67929" height="5.20113"/>
     </g>
    </g>
    <g>
     <g>
      <g>
       <polygon class="fil7" points="231,79 344,71 340,10 227,17 "/>
       <path class="fil8" d="M335 27l2 27c-6,1 -10,6 -10,12l-80 5c0,-6 -6,-10 -12,-10l-1 -27c6,0 10,-5 10,-11l80 -6c0,6 6,11 11,10z"/>
       <path class="fil9" d="M296 44c0,5 -4,10 -10,11 -5,0 -10,-4 -11,-10 0,-6 4,-11 10,-11 5,0 10,4 11,10z"/>
       <path class="fil7" d="M229 41l2 38 39 -3c-11,1 -21,-2 -28,-9 -8,-7 -13,-16 -13,-26z"/>
       <polygon class="fil9" points="309,45 319,45 319,39 308,40 "/>
       <polygon class="fil9" points="252,49 263,48 262,43 252,44 "/>
      </g>
      <g>
       <polygon class="fil7" points="224,86 336,79 332,17 219,25 "/>
       <path class="fil8" d="M328 35l2 27c-6,0 -11,5 -10,11l-81 6c0,-6 -5,-11 -11,-10l-2 -27c6,0 10,-6 10,-12l80 -5c1,6 6,10 12,10z"/>
       <path class="fil7" d="M221 48l3 38 38 -2c-10,1 -20,-3 -28,-10 -8,-6 -12,-16 -13,-26z"/>
       <polygon class="fil9" points="301,53 311,52 311,47 301,48 "/>
       <polygon class="fil9" points="245,57 255,56 255,51 244,52 "/>
      </g>
     </g>
     <path class="fil10" d="M286 56c0,-1 -1,-2 -1,-2 -1,-1 -2,-1 -3,-2 -2,0 -3,0 -4,-1 -1,0 -2,-1 -3,-1 0,-1 -1,-2 -2,-3 0,0 0,-1 0,-3 0,-2 0,-4 1,-5 2,-1 3,-2 6,-3l-1 -1 0 -2 0 0 0 0c0,0 1,-1 1,-1l1 0c1,0 1,0 1,1l0 0 0 0 0 1 1 2c2,0 4,1 5,2 1,2 2,3 2,6l0 0 0 0c0,1 -1,1 -2,2l-1 0c-1,0 -2,-1 -2,-2l0 0 0 0 0 0 0 0 0 0c0,-1 -1,-2 -1,-3 -1,0 -2,-1 -3,-1 -1,1 -2,1 -2,1 -1,1 -1,2 -1,3 0,1 0,2 1,2 1,1 2,1 3,2 2,0 3,1 4,1 1,1 2,1 3,2 0,0 1,1 1,2 1,1 1,2 1,3 0,2 0,4 -2,5 -1,2 -3,3 -5,3l0 1c0,0 0,0 0,0l0 2c0,0 0,1 -1,1l-1 0c0,0 -1,-1 -1,-1l0 -1c0,0 0,-1 0,-1l0 -1c-2,0 -5,-1 -6,-2 -2,-2 -2,-3 -2,-5l0 0c0,-1 0,-2 1,-2l2 0c1,0 2,0 2,1l0 0 0 0 0 0 0 0 0 0 0 0c0,2 0,2 1,3 1,1 2,1 3,1 1,0 2,-1 3,-1 0,-1 1,-2 1,-3z"/>
    </g>
    <g>
     <path class="fil11" d="M204 49l126 0c7,1 13,6 13,13l0 67c0,6 -6,12 -13,12l-126 0c-7,0 -12,-6 -12,-12l0 -59 0 -11 0 -22c2,5 5,12 12,12z"/>
     <path class="fil11" d="M343 70c0,0 4,1 6,2 1,1 1,2 1,2 0,0 -4,2 -5,3 -2,0 -2,0 -2,0l0 -3 0 -4z"/>
     <path class="fil12" d="M200 54c0,0 -1,70 0,70 1,0 0,7 8,7 8,0 119,0 119,0 0,0 7,1 8,-6 0,-7 0,-63 0,-63 0,0 1,-6 -7,-6 -7,0 -121,0 -122,0 -1,-1 -5,-4 -6,-2z"/>
     <path class="fil11" d="M311 77c0,0 -7,0 -14,6 -6,7 -4,18 -1,21 2,4 6,7 13,9 7,1 32,0 34,0 3,0 5,0 7,-4 2,-3 1,-30 1,-30 0,0 0,-4 -1,-5 -1,-1 -1,-1 -1,-1 0,0 1,2 -4,4 -5,1 -34,0 -34,0z"/>
     <path class="fil13" d="M345 74c1,1 2,2 2,2l-4 1 0 -3 2 0z"/>
     <circle class="fil14" cx="317" cy="95" r="12"/>
    </g>
    <path class="fil15" d="M129 102c0,-3 -1,-5 -3,-7 -1,-2 -4,-3 -8,-5 -4,-1 -8,-3 -11,-4 -3,-2 -5,-3 -7,-5 -2,-2 -4,-5 -5,-7 -1,-3 -2,-6 -2,-10 0,-6 2,-11 6,-15 4,-4 9,-6 16,-7l0 -5 0 -4 0 0 0 0c0,-2 1,-3 3,-3l3 0c2,0 3,1 3,3l0 0 0 0 0 4 0 5c7,1 12,4 15,8 4,5 6,9 6,16l0 0 0 0c0,3 -2,5 -5,5l-6 0c-3,0 -5,-2 -5,-5l0 0 0 0 0 0 0 0 0 0c0,-4 -1,-6 -3,-8 -2,-2 -4,-3 -7,-3 -3,0 -6,1 -7,2 -2,2 -3,4 -3,7 0,3 1,5 3,7 1,2 4,4 9,5 4,2 8,4 11,5 3,2 5,4 7,6 2,2 3,4 4,6 1,3 2,6 2,9 0,7 -2,12 -6,16 -4,4 -9,6 -16,7l0 4c0,0 0,0 0,0l0 4c0,1 -1,3 -3,3l-3 0c-2,0 -3,-2 -3,-3l0 -4c0,0 0,0 0,0l0 -4c-8,-1 -13,-4 -18,-8 -4,-5 -6,-9 -6,-17l0 0c0,-2 3,-4 5,-4l6 0c3,0 5,2 5,4l0 0 0 1 0 0 0 0 0 0 0 0c0,4 1,5 3,7 2,3 5,4 9,4 4,0 6,-1 8,-3 2,-1 3,-4 3,-7z"/>
   </g>
   <path class="fil15" d="M22 100l0 -35 -13 0 26 -36 25 36 -13 0 0 35 -25 0zm0 -17m-6 -18m6 -18m25 0m7 18m-7 18m-12 17"/>
  </g>
 </g>
</svg>
