<?xml version="1.0" encoding="UTF-8"?>
<!DOCTYPE svg PUBLIC "-//W3C//DTD SVG 1.1//EN" "http://www.w3.org/Graphics/SVG/1.1/DTD/svg11.dtd">
<!-- Creator: CorelDRAW X7 -->
<svg xmlns="http://www.w3.org/2000/svg" xml:space="preserve" width="347px" height="143px" version="1.1" style="shape-rendering:geometricPrecision; text-rendering:geometricPrecision; image-rendering:optimizeQuality; fill-rule:evenodd; clip-rule:evenodd"
viewBox="0 0 359 148"
 xmlns:xlink="http://www.w3.org/1999/xlink">
 <defs>
  <style type="text/css">
   <![CDATA[
    .fil12 {fill:none}
    .fil4 {fill:#FFF212}
    .fil5 {fill:#00AFEF}
    .fil3 {fill:black}
    .fil2 {fill:#4E8AC8}
    .fil0 {fill:#99562C}
    .fil9 {fill:#AD5F2F}
    .fil1 {fill:#BF774A}
    .fil10 {fill:#BF774A}
    .fil8 {fill:#FEFEFE;fill-rule:nonzero}
    .fil11 {fill:#FFF212;fill-rule:nonzero}
    .fil7 {fill:#4E901E;fill-rule:nonzero}
    .fil6 {fill:#7ED63E;fill-rule:nonzero}
   ]]>
  </style>
 </defs>
 <g id="Layer_x0020_1">
  <metadata id="CorelCorpID_0Corel-Layer"/>
  <g id="_658569328">
   <rect class="fil0" x="42" y="22" width="297.114" height="30.298" rx="7" ry="11"/>
   <path class="fil1" d="M199 22c0,0 -1,0 -2,0 -1,0 -2,0 -2,0 0,0 -92,1 -117,1 -25,0 -28,3 -28,10 -1,6 -1,26 -1,26 0,0 2,-1 5,-2 3,-1 12,-1 12,-1l61 0c0,0 54,1 70,-1 14,2 60,1 60,1l61 0c0,0 9,0 12,1 3,1 5,2 5,2 0,0 -1,-20 -1,-26 0,-7 -3,-10 -28,-10 -25,0 -107,-1 -107,-1z"/>
   <g>
    <rect class="fil2" x="68" y="18" width="79.1683" height="47.5005" rx="7" ry="7"/>
    <rect class="fil3" x="68" y="25" width="79.1683" height="4.16887"/>
    <g>
     <rect class="fil4" x="73" y="40" width="4.67929" height="5.20113"/>
     <rect class="fil4" x="80" y="40" width="4.67929" height="5.20113"/>
     <rect class="fil4" x="86" y="40" width="4.67929" height="5.20113"/>
     <rect class="fil4" x="93" y="40" width="4.67929" height="5.20113"/>
     <rect class="fil4" x="99" y="40" width="4.67929" height="5.20113"/>
     <rect class="fil4" x="106" y="40" width="4.67929" height="5.20113"/>
    </g>
   </g>
   <g>
    <rect class="fil5" x="55" y="26" width="79.1683" height="47.5005" rx="7" ry="7"/>
    <rect class="fil3" x="55" y="33" width="79.1683" height="4.16887"/>
    <g>
     <rect class="fil4" x="60" y="48" width="4.67929" height="5.20113"/>
     <rect class="fil4" x="66" y="48" width="4.67929" height="5.20113"/>
     <rect class="fil4" x="73" y="48" width="4.67929" height="5.20113"/>
     <rect class="fil4" x="79" y="48" width="4.67929" height="5.20113"/>
     <rect class="fil4" x="86" y="48" width="4.67929" height="5.20113"/>
     <rect class="fil4" x="92" y="48" width="4.67929" height="5.20113"/>
    </g>
   </g>
   <g>
    <g>
     <polygon class="fil6" points="164,79 277,79 277,18 164,18 "/>
     <path class="fil7" d="M272 35l0 27c-6,0 -11,5 -11,11l-81 0c0,-6 -5,-11 -10,-11l0 -27c5,0 10,-5 10,-11l81 0c0,6 5,11 11,11z"/>
     <path class="fil8" d="M231 48c0,6 -5,11 -10,11 -6,0 -11,-5 -11,-11 0,-5 5,-10 11,-10 5,0 10,5 10,10z"/>
     <path class="fil6" d="M164 41l0 38 39 0c-11,0 -20,-4 -28,-11 -7,-7 -11,-17 -11,-27z"/>
     <polygon class="fil8" points="244,51 254,51 254,46 244,46 "/>
     <polygon class="fil8" points="187,51 198,51 198,46 187,46 "/>
    </g>
    <g>
     <polygon class="fil6" points="156,86 269,86 269,25 156,25 "/>
     <path class="fil7" d="M264 42l0 27c-6,0 -11,5 -11,11l-81 0c0,-6 -5,-11 -11,-11l0 -27c6,0 11,-5 11,-11l81 0c0,6 5,11 11,11z"/>
     <path class="fil8" d="M223 55c0,6 -5,11 -11,11 -5,0 -10,-5 -10,-11 0,-5 5,-10 10,-10 6,0 11,5 11,10z"/>
     <path class="fil6" d="M156 48l0 38 38 0c-10,0 -20,-4 -27,-11 -7,-7 -11,-17 -11,-27z"/>
     <polygon class="fil8" points="236,58 246,58 246,53 236,53 "/>
     <polygon class="fil8" points="179,58 189,58 189,53 179,53 "/>
    </g>
   </g>
   <g>
    <g>
     <polygon class="fil6" points="216,83 329,83 329,22 216,22 "/>
     <path class="fil7" d="M323 39l0 27c-6,0 -11,5 -11,11l-80 0c0,-6 -5,-11 -11,-11l0 -27c6,0 11,-5 11,-11l80 0c0,6 5,11 11,11z"/>
     <path class="fil8" d="M282 53c0,5 -4,10 -10,10 -6,0 -10,-5 -10,-10 0,-6 4,-11 10,-11 6,0 10,5 10,11z"/>
     <path class="fil6" d="M216 45l0 38 38 0c-10,0 -20,-4 -27,-11 -7,-7 -11,-17 -11,-27z"/>
     <polygon class="fil8" points="295,55 306,55 306,50 295,50 "/>
     <polygon class="fil8" points="239,55 249,55 249,50 239,50 "/>
    </g>
    <g>
     <polygon class="fil6" points="207,90 321,90 321,29 207,29 "/>
     <path class="fil7" d="M315 46l0 27c-6,0 -11,5 -11,11l-80 0c0,-6 -5,-11 -11,-11l0 -27c6,0 11,-5 11,-11l80 0c0,6 5,11 11,11z"/>
     <path class="fil8" d="M274 59c0,6 -4,11 -10,11 -6,0 -10,-5 -10,-11 0,-5 4,-10 10,-10 6,0 10,5 10,10z"/>
     <path class="fil6" d="M207 52l0 38 39 0c-10,0 -20,-4 -27,-11 -8,-7 -12,-17 -12,-27z"/>
     <polygon class="fil8" points="287,62 297,62 297,57 287,57 "/>
     <polygon class="fil8" points="231,62 241,62 241,57 231,57 "/>
    </g>
   </g>
   <path class="fil0" d="M53 49l137 0c7,0 13,6 13,13l0 67c0,6 -6,12 -13,12l-137 0c-7,0 -11,-6 -11,-13l0 -58 0 -11 0 -20c2,5 3,10 11,10z"/>
   <path class="fil0" d="M25 77c0,0 -7,0 -13,6 -6,6 -4,18 -1,21 2,4 6,7 13,9 6,1 28,0 33,0l0 -36c-9,1 -32,0 -32,0zm4 10c5,0 8,4 8,9 0,4 -3,7 -8,7 -4,0 -7,-3 -7,-8 0,-5 3,-8 7,-8z"/>
   <path class="fil9" d="M49 54c0,0 -1,70 0,70 1,0 0,7 8,7 8,0 119,0 119,0 0,0 7,1 8,-6 0,-7 0,-63 0,-63 0,0 1,-6 -7,-6 -7,0 -121,0 -122,0 -1,-1 -5,-4 -6,-2z"/>
   <g>
    <g>
     <polygon class="fil6" points="195,72 308,64 303,3 191,11 "/>
     <path class="fil7" d="M299 20l2 27c-6,1 -10,6 -10,12l-80 5c-1,-6 -6,-10 -12,-10l-2 -26c6,-1 11,-6 10,-12l81 -6c0,6 5,11 11,10z"/>
     <path class="fil8" d="M259 37c1,5 -4,10 -9,11 -6,0 -11,-4 -11,-10 -1,-6 4,-10 9,-11 6,0 11,4 11,10z"/>
     <path class="fil6" d="M192 34l3 38 38 -3c-10,1 -20,-2 -28,-9 -7,-7 -12,-16 -13,-26z"/>
     <polygon class="fil8" points="272,38 283,38 282,33 272,33 "/>
     <polygon class="fil8" points="216,42 226,42 226,36 216,37 "/>
    </g>
    <g>
     <polygon class="fil6" points="187,80 300,72 296,10 183,18 "/>
     <path class="fil7" d="M291 28l2 27c-6,0 -10,5 -10,11l-80 6c-1,-6 -6,-11 -12,-10l-1 -27c5,0 10,-5 10,-11l80 -6c0,6 6,10 11,10z"/>
     <path class="fil6" d="M184 41l3 39 39 -3c-11,1 -21,-3 -28,-9 -8,-7 -13,-17 -14,-27z"/>
     <polygon class="fil8" points="265,46 275,45 275,40 264,41 "/>
     <polygon class="fil8" points="208,50 219,49 218,44 208,45 "/>
    </g>
   </g>
   <rect class="fil10" x="61" y="70" width="110.271" height="52.4159" rx="4" ry="4"/>
   <path class="fil11" d="M249 49c0,-1 0,-1 -1,-2 0,-1 -1,-1 -3,-1 -1,-1 -2,-1 -3,-2 -1,0 -2,-1 -3,-1 -1,-1 -1,-2 -2,-2 0,-1 -1,-2 -1,-4 0,-2 1,-3 2,-5 1,-1 3,-2 5,-3l0 -1 0 -2 0 0 0 0c0,0 0,-1 1,-1l1 0c0,0 1,1 1,1l0 0 0 0 0 1 0 2c2,0 4,1 6,3 1,1 2,2 2,5l0 0 0 0c0,1 -1,2 -2,2l-2 0c-1,0 -2,-1 -2,-2l0 0 0 0 0 0 0 0 0 0c0,-1 0,-2 -1,-2 0,-1 -1,-1 -2,-1 -1,0 -2,0 -3,1 0,0 0,1 0,2 0,1 0,2 1,2 0,1 1,1 3,2 1,0 3,1 4,1 1,1 2,1 2,2 1,1 1,1 2,2 0,1 1,2 1,3 0,2 -1,4 -2,5 -1,2 -3,3 -5,3l0 1c0,0 0,0 0,0l0 2c0,0 0,1 -1,1l-1 0c-1,0 -1,0 -1,-1l0 -1c0,0 0,0 0,0l0 -2c-3,0 -5,-1 -6,-2 -2,-1 -3,-3 -3,-5l0 0c0,-1 1,-2 2,-2l2 0c1,0 1,0 2,1l0 0 0 0 0 0 0 0 0 0 0 0c0,2 0,2 1,3 1,1 2,1 3,1 1,0 2,-1 2,-1 1,-1 1,-2 1,-3z"/>
   <path class="fil0" d="M331 49l-140 0c-7,0 -12,6 -12,13l0 67c0,6 5,12 12,12l140 0c6,0 8,-6 8,-12l0 -59 0 -11 -1 -20c-2,6 0,10 -7,10z"/>
   <path class="fil9" d="M333 54c0,0 1,70 0,70 -1,0 0,7 -8,7 -9,0 -119,0 -119,0 0,0 -7,1 -8,-6 0,-7 0,-63 0,-63 0,0 -1,-6 6,-6 8,0 122,0 123,0 1,-1 5,-4 6,-2z"/>
   <rect class="fil10" x="210" y="70" width="110.271" height="52.4159" rx="4" ry="4"/>
   <rect class="fil12" width="359" height="148"/>
  </g>
 </g>
</svg>
