<?xml version="1.0" encoding="UTF-8"?>
<!DOCTYPE svg PUBLIC "-//W3C//DTD SVG 1.1//EN" "http://www.w3.org/Graphics/SVG/1.1/DTD/svg11.dtd">
<!-- Creator: CorelDRAW X7 -->
<svg xmlns="http://www.w3.org/2000/svg" xml:space="preserve" width="347px" height="143px" version="1.1" style="shape-rendering:geometricPrecision; text-rendering:geometricPrecision; image-rendering:optimizeQuality; fill-rule:evenodd; clip-rule:evenodd"
viewBox="0 0 359 148"
 xmlns:xlink="http://www.w3.org/1999/xlink">
 <defs>
  <style type="text/css">
   <![CDATA[
    .fil0 {fill:none}
    .fil5 {fill:#6E3614}
    .fil3 {fill:#99562C}
    .fil4 {fill:#AD5F2F}
    .fil2 {fill:#AD5F2F}
    .fil1 {fill:#BF774A}
    .fil6 {fill:#E09200}
    .fil7 {fill:#00A859;fill-rule:nonzero}
   ]]>
  </style>
 </defs>
 <g id="Layer_x0020_1">
  <metadata id="CorelCorpID_0Corel-Layer"/>
  <g id="_677626016">
   <rect class="fil0" width="359" height="148"/>
   <g>
    <path class="fil1" d="M209 25c0,0 -12,-1 -13,6 -1,8 0,12 6,13 6,2 51,1 51,1l64 0c0,0 10,0 13,1 2,0 4,1 4,1 0,0 0,-12 0,-16 0,-4 -3,-6 -30,-6 -26,0 -95,0 -95,0z"/>
    <path class="fil2" d="M204 22l122 0c7,0 12,6 12,12l0 3 0 15c-6,-2 -4,-3 -12,-3l-122 0c-8,0 -12,-9 -12,-13l0 -2c0,-6 5,-12 12,-12zm5 3c0,0 -12,-1 -13,6 -1,8 0,12 6,13 6,2 51,1 51,1l64 0c0,0 10,0 13,1 2,0 4,1 4,1 0,0 0,-12 0,-16 0,-4 -3,-6 -30,-6 -26,0 -95,0 -95,0z"/>
    <g>
     <path class="fil3" d="M204 49l126 0c7,1 13,6 13,13l0 67c0,6 -6,12 -13,12l-126 0c-7,0 -12,-6 -12,-12l0 -59 0 -11 0 -22c2,5 5,12 12,12z"/>
     <path class="fil3" d="M343 70c0,0 4,1 6,2 1,1 1,2 1,2 0,0 -4,2 -5,3 -2,0 -2,0 -2,0l0 -3 0 -4z"/>
     <path class="fil4" d="M200 54c0,0 -1,70 0,70 1,0 0,7 8,7 8,0 119,0 119,0 0,0 7,1 8,-6 0,-7 0,-63 0,-63 0,0 1,-6 -7,-6 -7,0 -121,0 -122,0 -1,-1 -5,-4 -6,-2z"/>
     <path class="fil3" d="M311 77c0,0 -7,0 -14,6 -6,7 -4,18 -1,21 2,4 6,7 13,9 7,1 32,0 34,0 3,0 5,0 7,-4 2,-3 1,-30 1,-30 0,0 0,-4 -1,-5 -1,-1 -1,-1 -1,-1 0,0 1,2 -4,4 -5,1 -34,0 -34,0z"/>
     <path class="fil5" d="M345 74c1,1 2,2 2,2l-4 1 0 -3 2 0z"/>
     <circle class="fil6" cx="317" cy="95" r="12"/>
    </g>
   </g>
   <path class="fil7" d="M129 102c0,-3 -1,-5 -3,-7 -1,-2 -4,-3 -8,-5 -4,-1 -8,-3 -11,-4 -3,-2 -5,-3 -7,-5 -2,-2 -4,-5 -5,-7 -1,-3 -2,-6 -2,-10 0,-6 2,-11 6,-15 4,-4 9,-6 16,-7l0 -5 0 -4 0 0 0 0c0,-2 1,-3 3,-3l3 0c2,0 3,1 3,3l0 0 0 0 0 4 0 5c7,1 12,4 15,8 4,5 6,9 6,16l0 0 0 0c0,3 -2,5 -5,5l-6 0c-3,0 -5,-2 -5,-5l0 0 0 0 0 0 0 0 0 0c0,-4 -1,-6 -3,-8 -2,-2 -4,-3 -7,-3 -3,0 -6,1 -7,2 -2,2 -3,4 -3,7 0,3 1,5 3,7 1,2 4,4 9,5 4,2 8,4 11,5 3,2 5,4 7,6 2,2 3,4 4,6 1,3 2,6 2,9 0,7 -2,12 -6,16 -4,4 -9,6 -16,7l0 4c0,0 0,0 0,0l0 4c0,1 -1,3 -3,3l-3 0c-2,0 -3,-2 -3,-3l0 -4c0,0 0,0 0,0l0 -4c-8,-1 -13,-4 -18,-8 -4,-5 -6,-9 -6,-17l0 0c0,-2 3,-4 5,-4l6 0c3,0 5,2 5,4l0 0 0 1 0 0 0 0 0 0 0 0c0,4 1,5 3,7 2,3 5,4 9,4 4,0 6,-1 8,-3 2,-1 3,-4 3,-7z"/>
   <path class="fil7" d="M22 29l0 36 -13 0 26 35 25 -35 -13 0 0 -36 -25 0zm0 18m-6 18m6 18m25 0m7 -18m-7 -18m-12 -18"/>
  </g>
 </g>
</svg>
