<?xml version="1.0" encoding="UTF-8"?>
<!DOCTYPE svg PUBLIC "-//W3C//DTD SVG 1.1//EN" "http://www.w3.org/Graphics/SVG/1.1/DTD/svg11.dtd">
<!-- Creator: CorelDRAW X7 -->
<svg xmlns="http://www.w3.org/2000/svg" xml:space="preserve" width="270px" height="203px" version="1.1" style="shape-rendering:geometricPrecision; text-rendering:geometricPrecision; image-rendering:optimizeQuality; fill-rule:evenodd; clip-rule:evenodd"
viewBox="0 0 269 202"
 xmlns:xlink="http://www.w3.org/1999/xlink">
 <defs>
  <style type="text/css">
   <![CDATA[
    .str0 {stroke:#373435;stroke-width:0.896682}
    .fil17 {fill:none}
    .fil3 {fill:none;fill-rule:nonzero}
    .fil9 {fill:#FEFEFE}
    .fil4 {fill:#727376}
    .fil12 {fill:#373435}
    .fil15 {fill:#F58634}
    .fil7 {fill:#F58634}
    .fil13 {fill:#BE3437}
    .fil8 {fill:#0098DA}
    .fil2 {fill:black}
    .fil5 {fill:#25A6D9}
    .fil1 {fill:#37210A}
    .fil16 {fill:#484848}
    .fil14 {fill:#AD5F2F}
    .fil10 {fill:#DEAD85}
    .fil6 {fill:#EBB435}
    .fil11 {fill:#FFC18E}
    .fil0 {fill:#FFC18E}
   ]]>
  </style>
   <clipPath id="id0">
    <path d="M0 0l269 0 0 202 -269 0 0 -202z"/>
   </clipPath>
 </defs>
 <g id="Layer_x0020_1">
  <metadata id="CorelCorpID_0Corel-Layer"/>
  <g>
  </g>
  <g style="clip-path:url(#id0)">
   <g>
    <g id="_605967408">
     <path class="fil0" d="M30 132c0,0 1,2 1,5 0,3 -1,6 -1,6 0,0 -1,4 -3,4 -1,0 -2,4 -2,4l-10 -1 -1 -1 -1 -2c0,0 0,-3 -1,-5 0,-1 -2,-9 0,-12 1,-3 3,-5 8,-5 5,0 8,3 9,3 1,0 3,0 4,2 1,1 -3,2 -3,2z"/>
     <path class="fil1 str0" d="M36 235c0,0 4,0 5,1 2,2 -1,5 -3,5 -2,1 -2,1 -3,2 0,1 -1,2 -4,2 -2,0 -4,-4 -3,-5 1,-2 8,-5 8,-5z"/>
     <path class="fil1 str0" d="M60 237c0,0 2,1 4,1 2,0 4,0 4,1 0,2 -1,5 -6,5 -5,0 -5,-1 -7,-1 -2,1 -3,3 -6,2 -2,-2 1,-6 3,-7 2,-2 8,-1 8,-1z"/>
     <path class="fil2 str0" d="M25 199c0,0 0,21 0,24 0,3 1,19 1,19 0,0 3,3 5,2 1,-1 8,-6 8,-6l-1 -30 6 -5c0,0 0,9 0,12 0,3 3,16 3,16l4 11c0,0 11,-3 11,-5 0,-2 -5,-48 -8,-51 -4,-3 -13,0 -16,1 -3,1 -13,12 -13,12z"/>
     <g>
      <path class="fil2" d="M13 151c0,0 -1,3 -7,6 -5,3 -6,3 -5,7 1,5 5,32 6,36 1,4 10,4 18,2 7,-1 18,-4 19,-6 0,-3 -3,-7 -3,-7 0,0 4,0 6,-2 1,-1 -1,-11 -3,-13 -1,-2 -3,-14 -5,-15 -1,-2 -2,-2 -7,-4 -4,-2 -5,-4 -5,-4 0,0 -9,-3 -14,0z"/>
      <path id="1" class="fil3 str0" d="M13 151c0,0 -1,3 -7,6 -5,3 -6,3 -5,7 1,5 5,32 6,36 1,4 10,4 18,2 7,-1 18,-4 19,-6 0,-3 -3,-7 -3,-7 0,0 4,0 6,-2 1,-1 -1,-11 -3,-13 -1,-2 -3,-14 -5,-15 -1,-2 -2,-2 -7,-4 -4,-2 -5,-4 -5,-4 0,0 -9,-3 -14,0z"/>
     </g>
     <path class="fil2" d="M30 132c0,0 -1,1 -2,3 -1,2 -1,1 -1,2 -1,0 0,-3 -1,-2 -1,0 -1,2 -1,3 0,0 0,2 0,2 0,1 -1,2 -1,3 0,0 -1,1 -1,2 0,1 0,3 0,3 -14,-1 -7,3 -11,-3 -1,-3 -1,-7 -1,-8 0,-2 -1,-6 2,-9 3,-3 5,-3 7,-3 1,0 5,-1 6,0 2,1 5,2 6,2 0,0 1,3 1,3 0,0 -1,2 -3,2z"/>
     <path class="fil2" d="M28 130c0,0 0,4 0,5 1,1 2,2 2,2 0,0 -1,-1 -1,-3 1,-1 1,-3 1,-3 0,0 0,4 1,4 0,1 1,2 1,2 0,0 -1,-3 -1,-4 0,-2 1,-3 1,-3l1 5 1 1 -1 -6c0,0 -4,-1 -5,0z"/>
    </g>
    <g>
     <path class="fil4" d="M5 211c0,0 -5,42 -5,42 0,1 2,1 2,1l6 -43 -3 0z"/>
     <polygon class="fil4" points="14,212 13,212 10,246 12,246 17,211 "/>
     <polygon class="fil4" points="45,206 46,206 50,245 48,245 42,208 "/>
     <path class="fil5" d="M0 188c0,0 -1,-11 -2,-14 0,-4 5,-4 9,-5 4,0 17,1 19,2 3,1 6,2 6,5 0,4 1,16 1,20 1,4 1,8 3,8 2,0 5,-2 7,-4 1,-1 3,-1 4,1 0,1 1,2 0,4 0,1 -2,3 -6,6 -4,2 -12,2 -15,2 -2,0 -17,0 -20,-1 -3,0 -4,-1 -5,-4 -1,-2 -1,-20 -1,-20z"/>
     <path class="fil4" d="M39 211c0,0 5,43 5,44 0,1 -2,1 -2,1l-7 -45 4 0z"/>
    </g>
    <g>
     <path class="fil0" d="M238 179l-2 10 -5 2c0,0 1,-11 1,-13 1,-3 1,-3 1,-3l5 4z"/>
     <path class="fil6" d="M262 157c0,0 6,1 8,4 1,2 1,11 1,11 0,0 -1,17 -2,19 -1,3 -24,0 -24,0 0,0 -1,-6 -3,-8 -3,-2 -3,0 -3,0l-8 -5c0,0 5,-17 8,-18 3,-2 8,-2 11,-3 2,0 11,-1 11,-1 0,0 1,1 1,1z"/>
     <path class="fil0" d="M258 204c0,0 1,10 2,13 0,3 0,9 1,12 1,2 2,5 2,6 0,1 -3,2 -6,3 -3,1 -5,1 -5,0 1,-1 5,0 5,-2 0,-1 -3,-10 -4,-13 -2,-3 -5,-10 -5,-13 -1,-2 0,-7 0,-7l10 1z"/>
     <path class="fil0" d="M244 204c0,0 2,9 2,12 1,3 1,10 2,12 1,2 2,6 2,7 0,1 -3,1 -5,3 -3,2 -5,0 -5,-1 0,0 4,0 4,-1 0,-2 -3,-10 -4,-13 -2,-3 -4,-12 -4,-13 1,0 -2,-7 -2,-7l10 1z"/>
     <path class="fil7" d="M237 205c0,0 -6,-7 -6,-9 -1,-2 -1,-5 1,-7 3,-2 4,1 8,0 4,0 27,-4 27,-4 0,0 3,0 3,3 0,2 -1,15 -1,16 -1,1 -27,3 -32,1z"/>
     <path class="fil2" d="M263 234c0,0 2,1 2,3 0,2 0,4 0,4 -1,1 -4,0 -4,0l-1 -2c0,0 0,2 -2,2 -1,1 -4,1 -5,1 0,-1 -1,-2 -1,-4 0,-2 1,-1 1,-1l1 0c0,0 -1,0 0,1 0,1 3,1 3,0 0,0 5,-5 6,-4z"/>
     <path class="fil2" d="M242 237c0,0 1,1 1,0 -1,-1 -3,0 -4,0 -2,1 -1,1 -1,2 1,2 2,3 4,3 2,0 3,-1 3,-1 1,0 1,1 2,1 2,0 3,0 3,0 0,0 1,-3 1,-5 -1,-2 -2,-2 -3,-2 -1,0 -3,2 -3,3 -1,0 -2,1 -3,1 -2,-1 -2,-1 -2,-2 1,0 2,0 2,0z"/>
     <path class="fil2" d="M254 131c0,0 4,0 7,3 3,3 4,10 4,13 1,4 1,7 1,7 0,0 1,2 0,4 0,1 0,3 0,6 0,5 -1,7 -1,7 0,0 -1,-7 -2,-4 -1,4 -4,7 -4,7 0,0 2,-10 1,-7 -2,4 -4,5 -4,5l-1 -5c0,0 -4,7 -3,6 0,-2 2,-9 2,-9l-6 9 1 -3 -3 3 1 -8 -3 7c0,0 -1,-2 0,-4 1,-4 -1,-10 -1,-15l0 0c0,-2 0,-5 0,-8 1,-5 1,-9 3,-11 2,-2 7,-3 8,-3z"/>
    </g>
    <g>
     <path class="fil4" d="M273 211c0,0 6,42 6,42 0,1 -3,1 -3,1l-6 -43 3 0z"/>
     <polygon class="fil4" points="265,212 265,212 268,246 266,246 261,211 "/>
     <polygon class="fil4" points="233,206 232,206 228,245 230,245 236,208 "/>
     <path class="fil5" d="M278 188c0,0 1,-11 2,-14 0,-4 -5,-4 -9,-5 -3,0 -17,1 -19,2 -2,1 -5,2 -6,5 0,4 -1,16 -1,20 0,4 -1,8 -3,8 -2,0 -5,-2 -7,-4 -1,-1 -3,-1 -3,1 -1,1 -1,2 -1,4 0,1 3,3 6,6 4,2 13,2 15,2 2,0 17,0 20,-1 3,0 4,-1 5,-4 1,-2 1,-20 1,-20z"/>
     <path class="fil4" d="M240 211c0,0 -6,43 -6,44 0,1 3,1 3,1l6 -45 -3 0z"/>
    </g>
    <g>
     <g id="_605962800">
      <rect class="fil8" x="19" y="5" width="227" height="119"/>
      <rect class="fil9" x="27" y="13" width="212" height="102"/>
     </g>
     <g id="_605959176">
      <g>
       <path class="fil2" d="M135 182c0,0 2,0 4,3 3,2 4,3 5,3 2,1 4,1 6,0 1,-1 0,-2 -2,-4 -1,-3 -5,-6 -5,-6 0,0 -1,0 -3,-1 -2,0 -5,0 -5,0 0,0 -1,1 -1,2 1,2 0,2 1,3z"/>
       <path id="1" class="fil3 str0" d="M135 182c0,0 2,0 4,3 3,2 4,3 5,3 2,1 4,1 6,0 1,-1 0,-2 -2,-4 -1,-3 -5,-6 -5,-6 0,0 -1,0 -3,-1 -2,0 -5,0 -5,0 0,0 -1,1 -1,2 1,2 0,2 1,3z"/>
      </g>
      <g>
       <path class="fil2" d="M127 182c0,0 -2,0 -5,3 -3,2 -4,3 -5,3 -1,1 -4,1 -5,0 -1,-1 0,-2 1,-4 2,-3 6,-6 6,-6 0,0 0,0 2,-1 3,0 5,0 5,0 0,0 1,1 1,2 0,2 0,2 0,3z"/>
       <path id="1" class="fil3 str0" d="M127 182c0,0 -2,0 -5,3 -3,2 -4,3 -5,3 -1,1 -4,1 -5,0 -1,-1 0,-2 1,-4 2,-3 6,-6 6,-6 0,0 0,0 2,-1 3,0 5,0 5,0 0,0 1,1 1,2 0,2 0,2 0,3z"/>
      </g>
      <g>
       <path class="fil2" d="M120 147l-2 31 11 0 3 -67c0,0 3,36 3,49 -1,13 -1,18 -1,18l10 0c0,0 2,-61 2,-67 1,-6 1,-23 1,-23l-29 0 2 59z"/>
       <path id="1" class="fil3 str0" d="M120 147l-2 31 11 0 3 -67c0,0 3,36 3,49 -1,13 -1,18 -1,18l10 0c0,0 2,-61 2,-67 1,-6 1,-23 1,-23l-29 0 2 59z"/>
      </g>
      <polygon class="fil10" points="127,37 127,40 131,43 137,39 137,37 "/>
      <path class="fil11" d="M139 31c0,0 -2,6 -4,8 -3,1 -5,1 -6,0 -1,0 -4,-5 -4,-6 -1,-2 -1,-2 -1,-2 0,0 -1,-2 -1,-3 0,-1 1,-1 1,0 0,0 1,1 1,1 0,0 -1,-4 -1,-5 1,-1 2,-3 4,-4 2,0 7,0 8,1 1,1 3,2 3,3 0,2 -1,4 0,5 0,1 0,-2 1,-2 0,0 0,1 0,2 -1,0 -1,2 -1,2z"/>
      <path class="fil2 str0" d="M125 19c0,0 3,-2 6,-2 3,0 8,2 8,4 1,1 1,4 1,5 0,1 -1,1 -1,2 0,1 0,2 0,2 -1,0 -1,-3 -1,-5 0,-1 0,-3 -1,-3 0,0 -1,0 -3,1 -1,0 -4,0 -5,-1 -1,0 -1,0 -2,0 -1,0 -2,1 -2,2 0,1 0,3 0,4 0,1 0,1 0,1 -1,0 -2,-4 -2,-6 0,-2 2,-4 2,-4z"/>
      <path class="fil9" d="M127 38l5 5 5 -5 1 2c0,0 10,4 10,6 1,2 -3,22 -3,22l0 22c0,0 -19,0 -20,0 -2,-1 -9,-1 -9,-1l2 -21 -3 -22 10 -5 2 -3z"/>
      <path class="fil0" d="M153 97c0,0 -1,1 -2,2 0,1 -1,2 -1,4 0,2 -1,3 -1,3 0,1 0,1 1,0 1,-1 1,-3 1,-3 0,0 1,1 1,2 0,1 0,2 -1,4 0,2 1,2 1,2 1,-1 1,-2 1,-4 0,-1 0,-2 0,-2 0,0 1,1 1,3 0,2 0,3 1,3 1,0 0,-4 0,-4 0,0 0,-2 0,-2 1,0 1,3 1,3 0,0 0,3 0,2 1,0 1,-3 1,-4 -1,-1 0,0 0,0 0,0 0,2 1,3 0,0 1,-4 1,-5 -1,-1 -1,-4 -1,-5 -1,0 -1,-2 -1,-2 0,0 -2,-1 -3,-1 0,0 -1,1 -1,1z"/>
      <path class="fil0" d="M112 97c0,0 0,0 1,1 1,1 1,3 1,4 0,2 1,3 1,4 0,1 -1,0 -2,-1 0,-1 0,-2 0,-2 0,0 -1,0 -1,1 0,1 0,2 0,4 -1,2 -1,2 -2,2 0,-1 0,-3 0,-4 1,-1 0,-2 0,-2 0,0 0,1 -1,3 0,1 0,3 -1,3 -1,-1 0,-5 0,-5 0,0 1,-1 0,-1 0,0 -1,3 -1,3 0,0 0,2 -1,2 0,-1 0,-3 1,-4 0,-1 -1,-1 -1,-1 0,0 0,3 -1,3 0,0 0,-3 0,-5 1,-1 1,-4 2,-4 1,-1 1,-2 1,-2 0,0 2,-1 3,-1 0,0 1,2 1,2z"/>
      <g>
       <path class="fil2" d="M122 42c0,0 -7,1 -7,6 -1,5 3,20 2,25 0,6 -2,27 -2,29 0,3 12,3 12,3 0,0 1,-35 2,-45 2,-10 -2,-16 -3,-18 -1,-2 -1,-1 -1,-1l-1 0 -2 1z"/>
       <path id="1" class="fil3 str0" d="M122 42c0,0 -7,1 -7,6 -1,5 3,20 2,25 0,6 -2,27 -2,29 0,3 12,3 12,3 0,0 1,-35 2,-45 2,-10 -2,-16 -3,-18 -1,-2 -1,-1 -1,-1l-1 0 -2 1z"/>
      </g>
      <g>
       <path class="fil2" d="M141 42c0,0 7,1 8,6 0,5 -4,20 -3,25 1,6 3,27 3,29 0,3 -13,3 -13,3 0,0 0,-36 -2,-45 -2,-9 2,-16 3,-18 1,-2 1,-1 1,-1l2 0 1 1z"/>
       <path id="1" class="fil3 str0" d="M141 42c0,0 7,1 8,6 0,5 -4,20 -3,25 1,6 3,27 3,29 0,3 -13,3 -13,3 0,0 0,-36 -2,-45 -2,-9 2,-16 3,-18 1,-2 1,-1 1,-1l2 0 1 1z"/>
      </g>
      <path class="fil12 str0" d="M123 45l2 0 -2 3c0,0 2,3 3,8 1,5 2,10 3,10 0,0 0,-11 0,-13 0,-3 -3,-11 -3,-12 -1,0 -4,1 -4,1l1 3z"/>
      <path class="fil12 str0" d="M141 45l-2 0 2 3c0,0 -3,3 -4,8 -1,5 -2,10 -2,10 -1,0 -1,-11 -1,-13 0,-3 3,-11 4,-12 0,0 4,1 4,1l-1 3z"/>
      <g>
       <path class="fil2" d="M114 48c0,0 -3,7 -4,10 -1,3 -2,8 -2,13 -1,6 -1,16 -1,16l0 12 5 0c0,0 1,-15 2,-20 2,-5 1,-5 1,-7 1,-2 3,-10 3,-10l-1 -17c0,0 -3,1 -3,1 0,1 0,2 0,2z"/>
       <path id="1" class="fil3 str0" d="M114 48c0,0 -3,7 -4,10 -1,3 -2,8 -2,13 -1,6 -1,16 -1,16l0 12 5 0c0,0 1,-15 2,-20 2,-5 1,-5 1,-7 1,-2 3,-10 3,-10l-1 -17c0,0 -3,1 -3,1 0,1 0,2 0,2z"/>
      </g>
      <path class="fil13" d="M131 43c0,0 -2,1 -2,2 0,2 2,2 2,2l-2 32 0 3 2 5 4 -4 -2 -33 0 -3c0,0 1,0 1,-1 0,-1 -2,-4 -3,-3z"/>
      <g>
       <path class="fil2" d="M150 48c0,0 3,7 4,10 1,3 2,8 2,13 1,6 1,16 1,16l0 12 -6 0c0,0 0,-15 -1,-20 -2,-5 -1,-5 -2,-7 0,-2 -3,-10 -3,-10l2 -17c0,0 2,1 3,1 0,1 0,2 0,2z"/>
       <path id="1" class="fil3 str0" d="M150 48c0,0 3,7 4,10 1,3 2,8 2,13 1,6 1,16 1,16l0 12 -6 0c0,0 0,-15 -1,-20 -2,-5 -1,-5 -2,-7 0,-2 -3,-10 -3,-10l2 -17c0,0 2,1 3,1 0,1 0,2 0,2z"/>
      </g>
     </g>
    </g>
    <g>
     <path class="fil0" d="M105 132c0,0 1,2 1,5 0,3 -1,6 -1,6 0,0 -1,4 -2,4 -2,0 -3,4 -3,4l-10 -1 -1 -1 0 -2c0,0 0,-3 -1,-5 -1,-1 -2,-9 -1,-12 2,-3 3,-5 8,-5 5,0 8,3 9,3 1,0 3,0 4,2 1,1 -3,2 -3,2z"/>
     <path class="fil1 str0" d="M111 235c0,0 4,0 6,1 1,2 -1,5 -3,5 -2,1 -3,1 -3,2 -1,1 -2,2 -4,2 -3,0 -5,-4 -4,-5 1,-2 8,-5 8,-5z"/>
     <path class="fil1 str0" d="M135 237c0,0 2,1 4,1 2,0 5,0 4,1 0,2 -1,5 -6,5 -4,0 -5,-1 -7,-1 -2,1 -3,3 -5,2 -3,-2 0,-6 2,-7 3,-2 8,-1 8,-1z"/>
     <path class="fil14" d="M101 199c0,0 0,21 0,24 0,3 0,19 0,19 0,0 3,3 5,2 1,-1 8,-6 8,-6l-1 -30 7 -5c0,0 -1,9 -1,12 0,3 4,16 4,16l3 11c0,0 11,-3 11,-5 0,-2 -4,-48 -8,-51 -4,-3 -12,0 -15,1 -3,1 -13,12 -13,12z"/>
     <path class="fil15" d="M88 151c0,0 -1,3 -6,6 -6,3 -7,3 -6,7 1,5 6,32 6,36 1,4 10,4 18,2 7,-1 18,-4 19,-6 1,-3 -3,-7 -3,-7 0,0 4,0 6,-2 2,-1 -1,-11 -2,-13 -2,-2 -4,-14 -6,-15 -1,-2 -2,-2 -7,-4 -4,-2 -5,-4 -5,-4 0,0 -9,-3 -14,0z"/>
     <path class="fil2" d="M105 132c0,0 -1,1 -2,3 0,2 -1,1 -1,2 0,0 0,-3 -1,-2 -1,0 -1,2 -1,3 1,0 0,2 0,2 0,1 -1,2 -1,3 0,0 -1,1 -1,2 0,1 0,3 0,3 -14,-1 -7,3 -10,-3 -1,-3 -1,-7 -1,-8 -1,-2 -1,-6 1,-9 3,-3 6,-3 7,-3 2,0 5,-1 7,0 2,1 4,2 5,2 1,0 1,3 1,3 0,0 -1,2 -3,2z"/>
    </g>
    <g>
     <path class="fil0" d="M207 132c0,0 -1,2 -1,5 0,3 2,6 2,6 0,0 0,4 2,4 1,0 2,4 2,4l10 -1 1 -1 1 -2c0,0 0,-3 1,-5 0,-1 2,-9 0,-12 -1,-3 -3,-5 -8,-5 -5,0 -8,3 -9,3 -1,0 -2,0 -4,2 -1,1 3,2 3,2z"/>
     <path class="fil1 str0" d="M201 235c0,0 -4,0 -5,1 -2,2 1,5 3,5 2,1 3,1 3,2 0,1 2,2 4,2 2,0 4,-4 3,-5 -1,-2 -8,-5 -8,-5z"/>
     <path class="fil1 str0" d="M178 237c0,0 -3,1 -5,1 -2,0 -4,0 -4,1 1,2 2,5 6,5 5,0 6,-1 7,-1 2,1 4,3 6,2 2,-2 -1,-6 -3,-7 -2,-2 -7,-1 -7,-1z"/>
     <path class="fil2 str0" d="M212 199c0,0 0,21 0,24 0,3 -1,19 -1,19 0,0 -3,3 -4,2 -2,-1 -9,-6 -9,-6l2 -30 -7 -5c0,0 1,9 1,12 0,3 -4,16 -4,16l-3 11c0,0 -12,-3 -12,-5 0,-2 5,-48 9,-51 3,-3 12,0 15,1 3,1 13,12 13,12z"/>
     <path class="fil4" d="M224 151c0,0 2,3 7,6 5,3 6,3 5,7 0,5 -5,32 -6,36 -1,4 -10,4 -17,2 -8,-1 -19,-4 -19,-6 -1,-3 3,-7 3,-7 0,0 -5,0 -6,-2 -2,-1 0,-11 2,-13 1,-2 4,-14 5,-15 2,-2 2,-2 7,-4 5,-2 5,-4 5,-4 0,0 10,-3 14,0z"/>
     <path class="fil2" d="M207 132c0,0 1,1 2,3 1,2 1,1 2,2 0,0 0,-3 0,-2 1,0 2,2 1,3 0,0 1,2 1,2 0,1 0,2 0,3 0,0 1,1 1,2 0,1 1,3 1,3 13,-1 7,3 10,-3 1,-3 1,-7 1,-8 0,-2 1,-6 -2,-9 -2,-3 -5,-3 -7,-3 -1,0 -4,-1 -6,0 -2,1 -5,2 -5,2 -1,0 -2,3 -2,3 0,0 2,2 3,2z"/>
    </g>
    <g>
     <path class="fil0" d="M152 179l-2 10 -5 2c0,0 1,-11 2,-13 0,-3 0,-3 0,-3l5 4z"/>
     <path class="fil16" d="M176 157c0,0 6,1 8,4 1,2 1,11 1,11 0,0 -1,17 -2,19 -1,3 -23,0 -23,0 0,0 -2,-6 -4,-8 -3,-2 -3,0 -3,0l-8 -5c0,0 5,-17 8,-18 3,-2 8,-2 11,-3 2,0 11,-1 11,-1 0,0 1,1 1,1z"/>
     <path class="fil0" d="M173 204c0,0 0,10 1,13 0,3 0,9 1,12 1,2 2,5 2,6 0,1 -3,2 -6,3 -3,1 -5,1 -5,0 1,-1 5,0 5,-2 0,-1 -3,-10 -4,-13 -2,-3 -5,-10 -5,-13 -1,-2 0,-7 0,-7l11 1z"/>
     <path class="fil0" d="M159 204c0,0 1,9 1,12 1,3 1,10 2,12 1,2 2,6 2,7 1,1 -3,1 -5,3 -3,2 -5,0 -5,-1 0,0 4,0 4,-1 0,-2 -3,-10 -4,-13 -2,-3 -4,-12 -4,-13 1,0 -2,-7 -2,-7l11 1z"/>
     <path class="fil2" d="M151 205c0,0 -6,-7 -6,-9 -1,-2 -1,-5 1,-7 3,-2 4,1 8,0 4,0 27,-4 27,-4 0,0 3,0 3,3 0,2 -1,15 -1,16 -1,1 -27,3 -32,1z"/>
     <path class="fil2" d="M177 234c0,0 2,1 2,3 0,2 0,4 0,4 -1,1 -4,0 -4,0l-1 -2c0,0 0,2 -2,2 -1,1 -4,1 -4,1 -1,-1 -2,-2 -2,-4 0,-2 1,-1 1,-1l2 0c0,0 -2,0 -1,1 0,1 3,1 3,0 0,0 5,-5 6,-4z"/>
     <path class="fil2" d="M156 237c0,0 2,1 1,0 -1,-1 -3,0 -4,0 -2,1 -1,1 -1,2 1,2 3,3 4,3 2,0 3,-1 4,-1 0,0 0,1 1,1 2,0 3,0 3,0 0,0 1,-3 1,-5 -1,-2 -2,-2 -3,-2 -1,0 -3,2 -3,3 -1,0 -2,1 -3,1 -2,-1 -2,-1 -1,-2 0,0 1,0 1,0z"/>
     <path class="fil2" d="M168 131c0,0 4,0 7,3 3,3 4,10 4,13 1,4 1,7 1,7 0,0 -2,3 -10,3 -9,0 -11,0 -13,-1 -2,0 -3,-1 -3,-1 0,0 3,-5 3,-10 1,-5 1,-9 3,-11 2,-2 7,-3 8,-3z"/>
    </g>
    <g>
     <path class="fil0" d="M77 179l1 10 5 2c0,0 0,-11 -1,-13 -1,-3 -1,-3 -1,-3l-4 4z"/>
     <path class="fil15" d="M52 157c0,0 -6,1 -7,4 -2,2 -2,11 -2,11 0,0 2,17 2,19 1,3 24,0 24,0 0,0 2,-6 4,-8 2,-2 3,0 3,0l8 -5c0,0 -5,-17 -8,-18 -3,-2 -9,-2 -11,-3 -3,0 -12,-1 -12,-1 0,0 0,1 -1,1z"/>
     <path class="fil0" d="M56 204c0,0 -1,10 -1,13 -1,3 -1,9 -1,12 -1,2 -2,5 -2,6 0,1 2,2 6,3 3,1 5,1 4,0 0,-1 -4,0 -4,-2 0,-1 2,-10 4,-13 1,-3 4,-10 5,-13 0,-2 -1,-7 -1,-7l-10 1z"/>
     <path class="fil0" d="M70 204c0,0 -1,9 -2,12 0,3 -1,10 -1,12 -1,2 -3,6 -3,7 0,1 3,1 6,3 2,2 5,0 4,-1 0,0 -4,0 -4,-1 0,-2 3,-10 5,-13 1,-3 4,-12 3,-13 -1,0 2,-7 2,-7l-10 1z"/>
     <path class="fil2" d="M78 205c0,0 6,-7 6,-9 0,-2 0,-5 -2,-7 -2,-2 -4,1 -7,0 -4,0 -27,-4 -27,-4 0,0 -3,0 -3,3 0,2 0,15 1,16 0,1 27,3 32,1z"/>
     <path class="fil2" d="M51 234c0,0 -1,1 -1,3 -1,2 -1,4 0,4 1,1 3,0 3,0l1 -2c0,0 1,2 2,2 2,1 4,1 5,1 1,-1 2,-2 2,-4 0,-2 -2,-1 -2,-1l-1 0c0,0 1,0 1,1 -1,1 -3,1 -3,0 -1,0 -6,-5 -7,-4z"/>
     <path class="fil2" d="M72 237c0,0 -1,1 0,0 1,-1 2,0 4,0 1,1 1,1 0,2 0,2 -2,3 -4,3 -1,0 -2,-1 -3,-1 -1,0 -1,1 -2,1 -1,0 -3,0 -3,0 0,0 -1,-3 0,-5 0,-2 2,-2 3,-2 0,0 2,2 3,3 0,0 2,1 3,1 1,-1 2,-1 1,-2 -1,0 -2,0 -2,0z"/>
     <path class="fil2" d="M60 131c0,0 -4,0 -6,3 -3,3 -4,10 -5,13 -1,4 -1,7 -1,7 0,0 -3,13 10,14 11,0 14,-12 14,-12 0,0 0,-6 -1,-11 0,-5 0,-9 -2,-11 -3,-2 -7,-3 -9,-3z"/>
    </g>
    <g>
     <path class="fil4" d="M43 211c0,0 -6,42 -6,42 0,1 3,1 3,1l6 -43 -3 0z"/>
     <polygon class="fil4" points="51,212 51,212 48,246 50,246 55,211 "/>
     <polygon class="fil4" points="83,206 84,206 88,245 86,245 80,208 "/>
     <path class="fil5" d="M38 188c0,0 -1,-11 -2,-14 0,-4 5,-4 9,-5 3,0 17,1 19,2 2,1 5,2 6,5 0,4 1,16 1,20 0,4 1,8 3,8 2,0 5,-2 6,-4 2,-1 4,-1 4,1 1,1 1,2 1,4 0,1 -3,3 -6,6 -4,2 -13,2 -15,2 -2,0 -18,0 -20,-1 -3,0 -4,-1 -5,-4 -1,-2 -1,-20 -1,-20z"/>
     <path class="fil4" d="M76 211c0,0 6,43 6,44 0,1 -3,1 -3,1l-6 -45 3 0z"/>
    </g>
    <g>
     <path class="fil4" d="M84 211c0,0 -5,42 -5,42 0,1 2,1 2,1l6 -43 -3 0z"/>
     <polygon class="fil4" points="93,212 92,212 89,246 91,246 96,211 "/>
     <polygon class="fil4" points="124,206 125,206 129,245 127,245 121,208 "/>
     <path class="fil5" d="M79 188c0,0 -1,-11 -2,-14 0,-4 5,-4 9,-5 4,0 17,1 19,2 3,1 6,2 6,5 0,4 1,16 1,20 1,4 1,8 3,8 2,0 5,-2 7,-4 1,-1 3,-1 4,1 0,1 1,2 0,4 0,1 -2,3 -6,6 -4,2 -12,2 -15,2 -2,0 -17,0 -20,-1 -3,0 -4,-1 -5,-4 -1,-2 -1,-20 -1,-20z"/>
     <path class="fil4" d="M118 211c0,0 5,43 5,44 0,1 -2,1 -2,1l-7 -45 4 0z"/>
    </g>
    <path class="fil2" d="M103 130c0,0 0,4 0,5 0,1 1,2 1,2 0,0 0,-1 0,-3 0,-1 0,-3 0,-3 0,0 1,4 1,4 0,1 2,2 2,2 0,0 -1,-3 -1,-4 0,-2 0,-3 0,-3l1 5 2 1 -2 -6c0,0 -4,-1 -4,0z"/>
    <g>
     <path class="fil4" d="M187 211c0,0 6,42 6,42 0,1 -3,1 -3,1l-6 -43 3 0z"/>
     <polygon class="fil4" points="179,212 179,212 182,246 180,246 175,211 "/>
     <polygon class="fil4" points="147,206 146,206 142,245 144,245 150,208 "/>
     <path class="fil5" d="M192 188c0,0 1,-11 2,-14 0,-4 -5,-4 -9,-5 -3,0 -17,1 -19,2 -2,1 -5,2 -6,5 0,4 -1,16 -1,20 0,4 -1,8 -3,8 -2,0 -5,-2 -6,-4 -2,-1 -4,-1 -4,1 -1,1 -1,2 -1,4 0,1 3,3 6,6 4,2 13,2 15,2 2,0 18,0 20,-1 3,0 4,-1 5,-4 1,-2 1,-20 1,-20z"/>
     <path class="fil4" d="M154 211c0,0 -6,43 -6,44 0,1 3,1 3,1l6 -45 -3 0z"/>
    </g>
    <g>
     <path class="fil4" d="M231 211c0,0 5,42 5,42 0,1 -2,1 -2,1l-6 -43 3 0z"/>
     <polygon class="fil4" points="222,212 223,212 226,246 224,246 219,211 "/>
     <polygon class="fil4" points="190,206 190,206 186,245 188,245 194,208 "/>
     <path class="fil5" d="M236 188c0,0 1,-11 1,-14 1,-4 -4,-4 -8,-5 -4,0 -17,1 -19,2 -3,1 -6,2 -6,5 -1,4 -1,16 -1,20 -1,4 -1,8 -3,8 -2,0 -5,-2 -7,-4 -1,-1 -3,-1 -4,1 0,1 -1,2 0,4 0,1 2,3 6,6 4,2 12,2 15,2 2,0 17,0 20,-1 3,0 4,-1 5,-4 1,-2 1,-20 1,-20z"/>
     <path class="fil4" d="M197 211c0,0 -5,43 -5,44 0,1 2,1 2,1l6 -45 -3 0z"/>
    </g>
   </g>
  </g>
  <polygon class="fil17" points="0,0 269,0 269,202 0,202 "/>
 </g>
</svg>
