<?xml version="1.0" encoding="UTF-8"?>
<!DOCTYPE svg PUBLIC "-//W3C//DTD SVG 1.1//EN" "http://www.w3.org/Graphics/SVG/1.1/DTD/svg11.dtd">
<!-- Creator: CorelDRAW X7 -->
<svg xmlns="http://www.w3.org/2000/svg" xml:space="preserve" width="173px" height="177px" version="1.1" style="shape-rendering:geometricPrecision; text-rendering:geometricPrecision; image-rendering:optimizeQuality; fill-rule:evenodd; clip-rule:evenodd"
viewBox="0 0 171 175"
 xmlns:xlink="http://www.w3.org/1999/xlink">
 <defs>
  <style type="text/css">
   <![CDATA[
    .str0 {stroke:#373435;stroke-width:0.889718}
    .fil3 {fill:none}
    .fil2 {fill:#F58634}
    .fil0 {fill:black}
    .fil1 {fill:#6E3614}
   ]]>
  </style>
 </defs>
 <g id="Layer_x0020_1">
  <metadata id="CorelCorpID_0Corel-Layer"/>
  <g id="_786453608">
   <g>
    <path class="fil0" d="M102 72l0 21 13 0 0 -21 0 -1c0,-6 -6,-12 -13,-12l-33 0c-6,0 -12,6 -12,12l0 1 0 21 13 0 0 -21 32 0z"/>
    <polygon class="fil1" points="5,104 168,104 146,77 26,77 "/>
    <path class="fil0" d="M10 132l153 0 0 29c0,7 -5,12 -12,12l-129 0c-7,0 -12,-5 -12,-12l0 -29z"/>
    <path class="fil2" d="M5 104l163 0 0 28 -17 0 0 9c0,7 -5,13 -13,13l-8 0c-8,0 -13,-6 -13,-13l0 -9 -62 0 0 9c0,7 -5,13 -13,13l-8 0c-8,0 -13,-6 -13,-13l0 -9 -16 0 0 -28z"/>
    <rect class="fil0 str0" x="32" y="136" width="11.0541" height="11.0541"/>
    <rect class="fil0 str0" x="129" y="136" width="11.0541" height="11.0541"/>
   </g>
   <rect class="fil3" width="171" height="175"/>
  </g>
 </g>
</svg>
