<?xml version="1.0" encoding="UTF-8"?>
<!DOCTYPE svg PUBLIC "-//W3C//DTD SVG 1.1//EN" "http://www.w3.org/Graphics/SVG/1.1/DTD/svg11.dtd">
<!-- Creator: CorelDRAW X7 -->
<svg xmlns="http://www.w3.org/2000/svg" xml:space="preserve" width="173px" height="177px" version="1.1" style="shape-rendering:geometricPrecision; text-rendering:geometricPrecision; image-rendering:optimizeQuality; fill-rule:evenodd; clip-rule:evenodd"
viewBox="0 0 171 175"
 xmlns:xlink="http://www.w3.org/1999/xlink">
 <defs>
  <style type="text/css">
   <![CDATA[
    .str1 {stroke:#373435;stroke-width:0.889718}
    .str0 {stroke:#F58634;stroke-width:1.97676}
    .fil5 {fill:none}
    .fil4 {fill:#F58634}
    .fil0 {fill:black}
    .fil3 {fill:#484848}
    .fil1 {fill:#FFEF94}
    .fil2 {fill:#484848;fill-rule:nonzero}
   ]]>
  </style>
 </defs>
 <g id="Layer_x0020_1">
  <metadata id="CorelCorpID_0Corel-Layer"/>
  <g id="_808683872">
   <g>
    <path class="fil0" d="M102 16l0 21 13 0 0 -21 0 -1c0,-7 -6,-12 -13,-12l-33 0c-6,0 -12,5 -12,12l0 1 0 21 13 0 0 -21 32 0z"/>
    <polygon class="fil1 str0" points="23,97 40,97 40,105 30,105 10,132 163,132 142,105 133,105 133,97 149,97 151,97 168,55 5,55 "/>
    <path class="fil2" d="M38 106l0 1c1,1 3,2 4,2l0 37c-1,1 -3,2 -4,3l0 1c-5,5 -5,12 0,17 2,1 3,2 5,3l0 -12c0,-1 0,-1 0,-2 1,-1 3,-2 4,-2 1,0 2,0 3,1 1,0 1,1 1,1 0,1 1,1 0,2l0 12c2,-1 4,-2 5,-3 5,-5 5,-12 1,-17l-1 -1c-1,-1 -2,-2 -3,-3l0 -37c1,0 2,-1 3,-2l1 -1c4,-5 4,-13 -1,-17 -1,-2 -3,-3 -4,-3l0 12c0,0 0,1 -1,1 0,2 -2,3 -4,3 -1,0 -2,-1 -3,-1 0,-1 0,-1 0,-2 -1,0 -1,-1 -1,-1l0 -12c-2,0 -3,1 -5,3 -4,4 -5,12 0,17z"/>
    <path class="fil3" d="M97 103c0,0 -3,0 -3,-2 0,-3 1,-11 9,-14 7,-2 20,-1 20,-1 0,0 0,3 1,3 1,-1 1,-3 3,-3 1,-1 6,-1 6,-1 0,0 1,10 1,11 0,1 -2,1 -4,2 -2,0 -4,0 -4,-1 0,-1 0,-2 -1,-2 -1,-1 -2,0 -2,0 0,1 0,1 -1,2 -1,0 -2,0 -2,0l0 46 0 11 -12 0 2 -57c0,0 -1,0 -2,-1 -1,-1 -2,-2 -3,-2 -1,1 -4,1 -6,3 -1,3 -2,6 -2,6z"/>
    <path class="fil2" d="M82 107l6 -6 -6 -17 -6 0 -5 18 5 5 0 11 -5 0 0 43c0,5 4,9 9,9 4,0 8,-4 8,-9l0 -43 -6 0 0 -11z"/>
    <path class="fil0" d="M10 132l153 0 0 29c0,7 -5,12 -12,12l-129 0c-7,0 -12,-5 -12,-12l0 -29z"/>
    <rect class="fil4 str1" x="32" y="136" width="11.0542" height="11.0542"/>
    <rect class="fil4 str1" x="129" y="136" width="11.0542" height="11.0542"/>
    <g>
     <path class="fil4" d="M5 26l163 0 0 29 -17 0 0 8c0,7 -5,13 -13,13l-8 0c-8,0 -13,-6 -13,-13l0 -8 -62 0 0 8c0,7 -5,13 -13,13l-8 0c-8,0 -13,-6 -13,-13l0 -8 -16 0 0 -29z"/>
     <rect class="fil0 str1" x="32" y="58" width="11.0542" height="11.0542"/>
     <rect class="fil0 str1" x="129" y="58" width="11.0542" height="11.0542"/>
    </g>
   </g>
   <rect class="fil5" width="171" height="175"/>
  </g>
 </g>
</svg>
