<?xml version="1.0" encoding="UTF-8"?>
<!DOCTYPE svg PUBLIC "-//W3C//DTD SVG 1.1//EN" "http://www.w3.org/Graphics/SVG/1.1/DTD/svg11.dtd">
<!-- Creator: CorelDRAW X7 -->
<svg xmlns="http://www.w3.org/2000/svg" xml:space="preserve" width="229px" height="200px" version="1.1" style="shape-rendering:geometricPrecision; text-rendering:geometricPrecision; image-rendering:optimizeQuality; fill-rule:evenodd; clip-rule:evenodd"
viewBox="0 0 235 205"
 xmlns:xlink="http://www.w3.org/1999/xlink">
 <defs>
  <style type="text/css">
   <![CDATA[
    .str0 {stroke:#6E3614;stroke-width:0.924219}
    .fil14 {fill:none}
    .fil4 {fill:#FEFEFE}
    .fil0 {fill:#96989A}
    .fil13 {fill:#FFCC29}
    .fil2 {fill:#F5886C}
    .fil9 {fill:#F58634}
    .fil5 {fill:#E4684A}
    .fil1 {fill:#E4684A}
    .fil3 {fill:#91D8F7}
    .fil8 {fill:black}
    .fil11 {fill:#003A7D}
    .fil7 {fill:#0063D4}
    .fil6 {fill:#6E3614}
    .fil10 {fill:#FEFEFE}
    .fil12 {fill:black;fill-rule:nonzero}
   ]]>
  </style>
 </defs>
 <g id="Layer_x0020_1">
  <metadata id="CorelCorpID_0Corel-Layer"/>
  <g id="_668049976">
   <ellipse class="fil0" cx="118" cy="172" rx="114" ry="30"/>
   <g>
    <g>
     <polygon class="fil1" points="157,44 157,154 125,150 125,54 "/>
     <polygon class="fil2" points="157,44 157,154 188,150 188,54 "/>
     <polygon class="fil3" points="185,98 162,93 162,100 185,105 "/>
     <polygon class="fil3" points="185,110 162,106 162,113 185,117 "/>
     <polygon class="fil3" points="185,121 162,118 162,125 185,128 "/>
     <polygon class="fil3" points="185,87 162,81 162,88 185,93 "/>
     <polygon class="fil3" points="185,75 162,69 162,76 185,81 "/>
     <polygon class="fil3" points="185,63 162,57 162,64 185,69 "/>
    </g>
    <path class="fil4" d="M148 154c0,1 23,-2 23,-2 0,0 0,-14 0,-14 1,0 -20,-4 -22,-4 -1,0 -1,20 -1,20z"/>
    <g>
     <polygon class="fil5" points="115,3 115,159 73,154 73,16 "/>
     <polygon class="fil2" points="115,3 115,159 157,154 157,16 "/>
     <polygon class="fil3" points="80,86 110,79 110,88 80,95 "/>
     <polygon class="fil3" points="80,101 110,96 110,105 80,110 "/>
     <polygon class="fil3" points="80,116 110,112 110,121 80,125 "/>
     <polygon class="fil3" points="80,132 110,130 110,139 80,141 "/>
     <polygon class="fil3" points="152,86 123,79 123,88 152,95 "/>
     <polygon class="fil3" points="152,101 123,96 123,105 152,110 "/>
     <polygon class="fil3" points="152,116 123,112 123,121 152,125 "/>
     <polygon class="fil3" points="80,68 110,60 110,70 80,77 "/>
     <polygon class="fil3" points="152,68 123,60 123,70 152,77 "/>
     <polygon class="fil3" points="80,49 110,42 110,51 80,58 "/>
     <polygon class="fil3" points="152,49 123,42 123,51 152,58 "/>
     <polygon class="fil3" points="80,31 110,24 110,33 80,40 "/>
     <polygon class="fil3" points="152,31 123,24 123,33 152,40 "/>
    </g>
    <g>
     <polygon class="fil6" points="149,140 149,166 148,166 148,168 154,168 154,166 153,166 153,140 155,140 155,136 147,136 147,140 "/>
     <rect class="fil1 str0" x="139" y="124" width="9.62962" height="13.0238"/>
     <polygon class="fil6" points="198,137 198,158 197,158 197,160 202,160 202,158 201,158 201,137 203,137 203,134 197,134 197,137 "/>
     <polygon class="fil1 str0" points="139,124 186,124 203,134 148,137 "/>
     <polygon class="fil6" points="154,140 154,166 153,166 153,168 158,168 158,166 157,166 157,140 159,140 159,136 152,136 152,140 "/>
     <polygon class="fil6" points="194,137 194,158 193,158 193,160 197,160 197,158 197,158 197,137 198,137 198,134 192,134 192,137 "/>
    </g>
    <g>
     <path class="fil7" d="M53 165c-4,4 -5,6 -5,12 0,0 0,1 0,1 0,5 0,5 0,11 0,1 -1,4 0,5 1,1 15,2 23,2 7,0 13,1 13,1 0,0 3,0 3,-1 2,-1 3,-1 6,-2 0,-18 5,-19 7,-7 0,1 0,3 0,4 0,0 18,-8 20,-8 0,-4 0,-11 2,-13 1,-2 3,2 3,3 0,3 0,5 0,7 1,0 2,0 2,0 0,-1 0,-2 0,-3 0,-3 1,-7 0,-10 0,-2 -1,-3 -3,-4 -2,-1 -7,-1 -7,-1 -2,-1 -7,-8 -15,-8 -4,-1 -21,-1 -25,0 -4,1 -6,1 -10,2 -4,2 -11,6 -14,9z"/>
     <path class="fil3" d="M53 169c4,1 28,0 32,-1l2 -4c0,-1 2,-4 2,-4 -4,0 -18,0 -22,0 -3,0 -3,0 -5,1 -1,1 -2,2 -3,2l-5 5c-1,0 -1,0 -1,1z"/>
     <path class="fil8" d="M94 195l-7 2c0,2 1,5 2,5 1,0 6,0 7,0 2,0 3,-2 3,-4 0,-2 0,-4 0,-6 0,-3 0,-5 -1,-7 0,-1 -1,-4 -2,-2 -2,2 -2,8 -2,12z"/>
     <path class="fil8" d="M120 183c-1,1 -4,2 -5,3 0,1 0,1 0,2 1,1 1,1 3,1l4 0c1,0 2,-1 2,-2 1,-4 1,-15 -2,-15 -2,0 -2,10 -2,11z"/>
     <path class="fil3" d="M97 159l2 3c0,1 0,3 1,4l6 -1c0,-2 -4,-7 -5,-7 -1,-1 -3,0 -4,1z"/>
     <path class="fil8" d="M62 196c-6,0 -7,0 -12,-1 0,2 1,5 1,6 1,2 3,1 4,1 2,0 4,1 5,0 1,0 2,-5 2,-6z"/>
     <path class="fil3" d="M107 165l5 -1c1,0 1,0 1,0l1 0c0,0 0,0 0,0 0,-1 0,-1 -1,-2l-2 -1c0,-1 0,-1 0,-1 -1,0 -1,0 -1,-1 -2,-1 -4,-2 -7,-2 0,0 3,4 4,8z"/>
     <path class="fil9" d="M77 174c0,0 1,2 2,2 1,1 2,0 3,0 1,0 5,0 6,-1 0,0 -1,-2 -1,-2 -1,-1 -9,0 -10,1z"/>
     <path class="fil10" d="M96 198c3,-1 2,-9 1,-10 0,-1 0,-2 -1,-1 -1,1 -2,9 0,11z"/>
     <path class="fil3" d="M93 167l5 -1c0,-1 -1,-5 -2,-6 -1,2 -2,4 -3,7z"/>
     <path class="fil9" d="M49 175c1,1 3,1 5,1 0,0 1,-2 1,-2 -1,-1 -6,-4 -6,1z"/>
     <ellipse class="fil4" cx="123" cy="180" rx="1" ry="5"/>
     <path class="fil8" d="M109 168l2 -1c0,0 0,0 0,0l0 0c0,1 0,1 0,1l-2 1c0,0 -1,-1 -1,-1l0 0c0,0 0,0 1,0z"/>
     <path class="fil11" d="M55 178c0,0 0,4 0,6 0,1 -1,4 -1,4l27 1c0,0 -1,-3 -1,-4 0,-2 1,-6 1,-6l-26 -1z"/>
     <polygon class="fil4" points="59,182 73,183 73,186 59,186 "/>
    </g>
   </g>
   <path class="fil12" d="M160 43l1 -6 2 0 -1 2 3 1 0 -3 1 0 -1 6 -1 0 0 -2 -2 -1 0 3 -2 0zm7 -1c0,-1 0,-1 0,-2 0,0 1,0 1,0 0,-1 1,-1 1,-1 0,0 1,0 1,0 1,0 2,1 2,1 1,1 1,2 1,3 0,1 -1,1 -1,2 -1,0 -2,0 -3,0 -1,0 -1,0 -2,-1 0,0 0,-1 0,-2zm1 0c0,1 0,1 0,2 1,0 1,0 1,0 1,0 1,0 2,0 0,0 0,-1 0,-2 0,0 0,-1 0,-1 0,-1 0,-1 -1,-1 0,0 -1,0 -1,0 -1,1 -1,1 -1,2zm6 4l1 -5 -2 0 0 -1 5 0 0 1 -2 0 -1 5 -1 0zm4 2l0 -6 5 1 0 1 -3 -1 -1 2 3 0 0 1 -3 0 0 1 3 1 0 1 -4 -1zm6 2l1 -6 1 0 -1 5 3 0 0 1 -4 0z"/>
   <polygon class="fil13" points="125,9 126,13 130,14 126,16 126,20 124,17 120,19 122,15 119,12 123,13 "/>
   <polygon class="fil13" points="139,12 139,16 143,17 139,19 140,23 137,20 133,22 135,18 132,15 137,16 "/>
   <polygon class="fil13" points="152,15 152,20 157,21 153,22 153,27 150,23 146,25 149,21 146,18 150,19 "/>
   <rect class="fil14" width="235" height="205"/>
  </g>
 </g>
</svg>
