<?xml version="1.0" encoding="UTF-8"?>
<!DOCTYPE svg PUBLIC "-//W3C//DTD SVG 1.1//EN" "http://www.w3.org/Graphics/SVG/1.1/DTD/svg11.dtd">
<!-- Creator: CorelDRAW X7 -->
<svg xmlns="http://www.w3.org/2000/svg" xml:space="preserve" width="271px" height="161px" version="1.1" style="shape-rendering:geometricPrecision; text-rendering:geometricPrecision; image-rendering:optimizeQuality; fill-rule:evenodd; clip-rule:evenodd"
viewBox="0 0 271 161"
 xmlns:xlink="http://www.w3.org/1999/xlink">
 <defs>
  <style type="text/css">
   <![CDATA[
    .str0 {stroke:#727376;stroke-width:0.262205}
    .fil10 {fill:none}
    .fil5 {fill:#FEFEFE}
    .fil8 {fill:#FEFEFE}
    .fil11 {fill:#96989A}
    .fil13 {fill:#727376}
    .fil12 {fill:#91D8F7}
    .fil3 {fill:black}
    .fil6 {fill:#033857}
    .fil7 {fill:#054F76}
    .fil4 {fill:#2887D2}
    .fil9 {fill:#6E3614}
    .fil1 {fill:#EFAE74}
    .fil2 {fill:#F9C9A9}
    .fil0 {fill:#FFC18E}
    .fil14 {fill:#FFEF94}
   ]]>
  </style>
 </defs>
 <g id="Layer_x0020_1">
  <metadata id="CorelCorpID_0Corel-Layer"/>
  <g id="_598135304">
   <g>
    <g>
     <polygon class="fil0" points="36,72 36,86 37,96 61,96 60,71 "/>
     <path class="fil1" d="M36 81c0,0 5,5 12,5 6,0 13,-4 13,-4l0 -4 -25 -1 0 4z"/>
     <path class="fil2" d="M23 44c0,0 -2,0 -3,1 0,2 0,4 1,8 1,4 2,5 3,5 0,0 1,0 1,0 0,0 1,8 7,15 5,6 10,11 15,11 6,0 14,-5 17,-9 2,-5 7,-13 8,-15 0,-1 -1,-1 1,-2 1,0 3,-2 4,-6 0,-3 0,-6 0,-7 -1,-1 -2,-1 -2,-1 0,0 0,-6 -2,-10 -2,-5 -3,-7 -10,-10 -8,-2 -13,-5 -18,-4 -4,0 -12,3 -14,3 -2,0 -6,2 -7,4 -1,2 -2,6 -2,6l1 11z"/>
     <path class="fil3" d="M77 42c-1,2 -2,3 -3,5l-1 1 1 7 -2 1 0 -6 0 0c0,0 0,-11 -1,-16 -2,-5 -5,-8 -7,-9 -3,0 -7,3 -8,4 -2,0 -10,3 -11,4 -2,0 -7,0 -7,0 0,0 4,-2 4,-3 1,-1 0,-1 -1,0 -1,0 -5,3 -7,4 -2,0 -4,2 -5,2 -1,1 -2,5 -2,5 0,0 -1,4 -1,7 1,3 1,7 1,9 1,1 1,3 1,3 0,0 -2,-2 -2,-5 -1,-2 -1,-10 -2,-11 -2,0 -2,1 -2,1 0,0 -1,-6 -2,-10 0,-3 0,-5 0,-5l-2 2c0,0 0,-8 3,-11 3,-4 4,-5 4,-5 0,0 -3,0 -4,0 -1,1 6,-8 9,-8 3,-1 6,-3 6,-3l-4 0c0,0 8,-3 13,-3 4,1 7,2 9,2 2,0 11,-1 16,4 5,4 6,6 8,12 2,6 0,19 0,21 -1,2 -1,1 -1,1z"/>
    </g>
    <g>
     <path class="fil4" d="M79 159l0 -37 13 -13c0,0 -3,-9 -16,-15 -13,-5 -13,-4 -13,-4l-14 41 0 28c0,0 30,0 30,0z"/>
     <path class="fil4" d="M18 159l0 -37 -13 -13c0,0 0,0 0,0 0,0 1,-1 1,-1 1,-4 5,-10 15,-14 13,-5 13,-4 13,-4l15 41 0 28c0,0 -31,0 -31,0z"/>
     <path class="fil4" d="M3 116c0,4 0,28 0,28l0 15 15 0 0 -37 -13 -13c0,3 -2,4 -2,7z"/>
     <path class="fil4" d="M94 116c0,4 1,28 1,28l0 15 -16 0 0 -37 13 -13c1,3 2,4 2,7z"/>
     <path class="fil5 str0" d="M62 84c0,0 1,4 0,7 0,3 -13,40 -13,40l-15 -41c0,0 1,-4 2,-5 0,-1 9,6 11,7 1,1 2,2 2,2 0,0 6,-5 9,-8 2,-2 3,-2 4,-2z"/>
     <polygon class="fil6" points="58,92 58,101 49,97 49,95 "/>
     <polygon class="fil6" points="40,92 40,101 49,97 49,95 "/>
     <circle class="fil7" cx="49" cy="97" r="3"/>
     <rect class="fil8" x="23" y="119" width="14.9675" height="7.06724" rx="1" ry="1"/>
    </g>
   </g>
   <rect class="fil9" x="3" y="150" width="265.894" height="9.00003"/>
   <rect class="fil10" width="271" height="161"/>
   <g>
    <rect class="fil3" x="207" y="37" width="7.45192" height="12.3421"/>
    <rect class="fil3" x="195" y="100" width="30.7384" height="14.205"/>
    <rect class="fil11" x="172" y="47" width="76.3801" height="55.4224" rx="7" ry="7"/>
    <rect class="fil12" x="178" y="52" width="65.2028" height="44.9434"/>
    <rect class="fil11" x="181" y="18" width="60.5455" height="20.725" rx="5" ry="5"/>
    <rect class="fil11" x="154" y="115" width="114.338" height="6.05444"/>
    <rect class="fil3" x="158" y="121" width="106.491" height="1.86284"/>
    <rect class="fil11" x="154" y="123" width="114.338" height="27.4784"/>
    <rect class="fil13" x="159" y="132" width="103.93" height="1.86284"/>
    <rect class="fil13" x="159" y="134" width="103.93" height="13.5064"/>
    <rect class="fil14" x="195" y="139" width="30.7384" height="3.02736"/>
    <rect class="fil13" x="122" y="123" width="29.8877" height="27.4784"/>
    <rect class="fil11" x="122" y="113" width="29.8877" height="9.7804"/>
    <rect class="fil8" x="125" y="116" width="23.8739" height="4.33977" rx="2" ry="2"/>
    <rect class="fil14" x="188" y="28" width="45.1763" height="1.8107"/>
   </g>
  </g>
 </g>
</svg>
