<?xml version="1.0" encoding="UTF-8"?>
<!DOCTYPE svg PUBLIC "-//W3C//DTD SVG 1.1//EN" "http://www.w3.org/Graphics/SVG/1.1/DTD/svg11.dtd">
<!-- Creator: CorelDRAW X7 -->
<svg xmlns="http://www.w3.org/2000/svg" xml:space="preserve" width="204px" height="140px" version="1.1" style="shape-rendering:geometricPrecision; text-rendering:geometricPrecision; image-rendering:optimizeQuality; fill-rule:evenodd; clip-rule:evenodd"
viewBox="0 0 213 147"
 xmlns:xlink="http://www.w3.org/1999/xlink">
 <defs>
  <style type="text/css">
   <![CDATA[
    .str1 {stroke:#727376;stroke-width:0.1927}
    .str0 {stroke:#2887D2;stroke-width:0.277933}
    .fil16 {fill:none}
    .fil9 {fill:#FEFEFE}
    .fil5 {fill:#FEFEFE}
    .fil4 {fill:#F58634}
    .fil13 {fill:black}
    .fil10 {fill:#033857}
    .fil11 {fill:#054F76}
    .fil2 {fill:#2887D2}
    .fil17 {fill:#E09200}
    .fil8 {fill:#ED9C7F}
    .fil1 {fill:#EF9E80}
    .fil0 {fill:#F0A71F}
    .fil12 {fill:#F5AC89}
    .fil6 {fill:#F7BC9A}
    .fil3 {fill:#FC4D44}
    .fil7 {fill:#FEBC9C}
    .fil14 {fill:url(#id0)}
    .fil15 {fill:url(#id1)}
   ]]>
  </style>
  <linearGradient id="id0" gradientUnits="userSpaceOnUse" x1="43.7577" y1="132.397" x2="24.0233" y2="112.663">
   <stop offset="0" style="stop-opacity:1; stop-color:#E09200"/>
   <stop offset="1" style="stop-opacity:1; stop-color:#FFEF94"/>
  </linearGradient>
  <linearGradient id="id1" gradientUnits="userSpaceOnUse" xlink:href="#id0" x1="45.5105" y1="117.299" x2="22.2754" y2="94.0635">
  </linearGradient>
 </defs>
 <g id="Layer_x0020_1">
  <metadata id="CorelCorpID_0Corel-Layer"/>
  <g id="_749863064">
   <rect class="fil0" x="3" y="131" width="198.79" height="14.0557"/>
   <g>
    <path class="fil1" d="M183 94c0,0 0,-3 1,-3 0,0 4,0 5,-1 1,-1 0,-1 0,-1l-11 -5 -6 -3c0,0 0,3 2,5 2,1 3,1 3,2 -1,1 -2,3 -2,3l8 3z"/>
    <path class="fil2 str0" d="M186 95l-11 -6 -14 24 -15 -22 -7 7 -7 6 26 23c0,0 2,2 5,2 4,-1 5,-2 6,-3 1,-1 17,-31 17,-31z"/>
    <g>
     <path class="fil3" d="M183 62l23 12c0,0 3,2 3,4 1,2 -4,9 -4,9l-2 5c0,0 -3,2 -4,2 -2,-1 -25,-13 -25,-13 0,0 -3,-1 -4,-3 0,-2 6,-14 6,-14 0,0 2,-5 7,-2zm18 26c1,1 1,2 0,3 -1,1 -2,1 -3,0 -1,-1 0,-3 0,-3 1,-1 3,-1 3,0z"/>
     <path class="fil4" d="M196 107c0,0 -4,0 -7,-3 -2,-2 -2,-6 -1,-8 1,-2 3,-4 6,-4 2,-1 6,1 7,3 2,1 2,5 1,7 -1,2 -1,2 0,3 0,1 8,13 8,13 0,0 0,1 -1,1 -1,1 -2,1 -3,1 0,0 1,-1 1,-1 0,0 -2,0 -2,-1 0,0 0,-1 0,-1 0,0 -1,0 -1,-1 0,0 0,-1 0,-1 0,0 -1,0 -1,-1 -1,0 0,-1 0,-1 0,0 -3,0 -2,-1 0,-1 -1,-2 -1,-2 0,1 -1,0 -1,-1 -1,0 0,-1 0,-1 0,0 -1,-1 -2,-1 -1,0 -1,0 -1,0zm-4 -11c1,-1 2,-1 3,0 1,0 1,2 1,3 -1,1 -2,1 -3,0 -1,-1 -2,-2 -1,-3z"/>
     <path class="fil0" d="M189 106c0,0 -3,-2 -4,-5 0,-4 2,-7 4,-8 1,0 1,-1 2,-1 1,0 3,0 4,1 2,1 4,4 4,6 1,2 -1,5 -2,6 -2,1 -2,1 -2,2 0,1 -1,15 -1,15 0,0 0,1 -1,0 -2,0 -2,0 -3,0 0,-1 1,-1 1,-1 0,0 -1,-1 -1,-1 1,-1 1,-1 1,-1 0,0 -1,-1 -1,-2 0,0 1,0 1,0 0,0 -1,-1 -1,-2 1,0 1,-1 1,-1 0,0 -1,-1 -1,-2 1,0 1,-2 0,-1 0,0 0,-1 0,-2 0,0 1,-1 1,-1 0,0 -1,0 -1,-1 -1,-1 -1,-1 -1,-1zm3 -10c1,-1 2,0 2,1 1,1 0,2 -1,2 -1,1 -2,0 -3,-1 0,-1 1,-2 2,-2z"/>
     <path class="fil5" d="M202 93c1,2 0,4 -1,5 0,0 0,0 0,0 1,-1 1,-3 1,-5l0 0zm-1 -2c-2,-2 -5,-2 -7,0 -2,1 -2,5 -1,7 1,1 2,1 4,2l0 0c-2,0 -3,-1 -4,-2 -2,-2 -1,-6 1,-8 2,-1 5,-1 7,1l0 0z"/>
    </g>
    <path class="fil6" d="M176 79c0,0 3,0 5,-1 1,-1 1,-4 0,-4 -2,-1 -6,0 -7,0 -1,1 -3,1 -3,1 -1,1 1,7 2,9 1,2 2,3 3,2 1,0 3,-3 1,-5 -1,-1 -1,-2 -1,-2z"/>
    <path class="fil7" d="M199 68l-4 10c0,0 -1,1 -2,1 -2,-1 -2,-1 -2,-2 0,-1 1,-2 1,-2l4 -9c0,0 0,-2 2,-1 2,1 1,3 1,3z"/>
    <path class="fil7" d="M195 65l-5 12c0,0 -1,1 -2,1 -2,0 -2,-1 -2,-2 0,-1 1,-2 1,-2l4 -10c0,0 1,-2 3,-1 2,1 1,2 1,2z"/>
    <path class="fil7" d="M190 63l-5 12c0,0 0,1 -2,1 -1,-1 -2,-2 -2,-2 0,-1 1,-2 1,-2l4 -10c0,0 1,-2 3,-2 2,1 1,3 1,3z"/>
    <path class="fil7" d="M185 61l-4 12c0,0 -1,1 -3,1 -1,-1 -1,-1 -1,-2 0,-1 0,-2 0,-2l5 -10c0,0 0,-2 2,-1 2,0 1,2 1,2z"/>
   </g>
   <g>
    <path class="fil2" d="M139 131l0 -27 10 -10c0,0 -3,-7 -12,-11 -10,-4 -10,-3 -10,-3l-10 30 0 21c0,0 22,0 22,0z"/>
    <path class="fil2" d="M94 131l0 -27 -9 -10c0,0 0,0 0,0 0,0 0,0 0,-1 1,-2 4,-7 11,-10 10,-4 10,-3 10,-3l11 30 0 21c0,0 -23,0 -23,0z"/>
    <polygon class="fil8" points="126,78 126,67 107,67 107,79 116,90 "/>
    <path class="fil2" d="M83 100c0,2 0,20 0,20l0 11 11 0 0 -27 -9 -10c-1,2 -2,3 -2,6z"/>
    <path class="fil9 str1" d="M126 76c0,0 1,3 1,5 -1,2 -10,29 -10,29l-11 -30c0,0 1,-3 1,-4 1,0 7,5 8,6 1,0 2,1 2,1 0,0 4,-4 6,-5 2,-2 3,-3 3,-2z"/>
    <polygon class="fil10" points="123,82 123,88 117,85 117,84 "/>
    <polygon class="fil10" points="110,82 110,88 117,85 117,84 "/>
    <circle class="fil11" cx="117" cy="85" r="2"/>
    <rect class="fil5" x="98" y="101" width="11.0021" height="5.19488" rx="1" ry="1"/>
    <path class="fil12" d="M93 54c0,0 3,8 8,12 5,3 11,6 13,6 2,1 3,1 3,1 0,0 1,0 3,-1 2,0 8,-3 12,-6 5,-4 8,-12 8,-12 1,0 4,-1 6,-4 1,-3 0,-7 -2,-8 -1,-1 -3,-1 -3,-1 0,0 -2,-12 -7,-17 -6,-4 -17,-3 -17,-3 -3,0 -12,-1 -17,3 -6,5 -8,17 -8,17 0,0 -2,0 -3,1 -2,1 -3,5 -1,8 1,3 4,4 5,4z"/>
    <path class="fil13" d="M141 42c0,0 0,1 2,-6 2,-7 2,-15 -2,-20 -4,-6 -8,-6 -9,-6 -1,0 0,-2 -10,-6 -9,-3 -16,-1 -19,1 -3,2 -14,9 -14,19 -1,10 0,15 2,17 1,1 3,-7 5,-10 3,-3 3,-3 3,-3 0,0 -1,2 -2,5 -1,2 -1,2 -1,2 0,0 3,-6 4,-7 0,-2 0,-3 2,-3 3,0 -1,2 -1,2 0,0 3,-2 4,-2 2,0 2,1 6,2 5,0 13,-1 14,-1 2,-1 3,1 3,2 0,1 0,1 0,1 0,0 1,-3 0,-4 0,0 1,-1 3,0 2,0 2,1 3,4 0,4 0,4 0,4 0,0 1,-6 0,-6 0,-1 4,5 5,10 1,4 2,5 2,5z"/>
   </g>
   <g>
    <path class="fil14" d="M14 119l40 0c1,0 2,1 2,2l0 0c0,0 0,1 0,1l2 0c0,0 1,0 1,0l0 3c0,1 -1,1 -1,1l-48 0c-1,0 -1,0 -1,-1l0 -3c0,0 0,0 1,0l2 0c0,0 0,-1 0,-1l0 0c0,-1 1,-2 2,-2z"/>
    <path class="fil15" d="M13 116l3 0c0,-10 8,-17 17,-18l0 -2 -3 0 0 -1c0,-1 1,-1 1,-1l5 0c1,0 2,0 2,1l0 1 -3 0 0 2c9,1 16,8 17,18l3 0c0,0 0,0 0,0l0 1c0,1 0,1 0,1l-42 0c0,0 0,0 0,-1l0 -1c0,0 0,0 0,0z"/>
   </g>
  </g>
  <rect class="fil16" width="213" height="147"/>
  <path class="fil17" d="M18 85c3,-3 8,-5 13,-6 6,-1 11,1 16,5l-2 2c-4,-3 -9,-5 -14,-4 -4,0 -8,2 -11,5l-2 -2zm7 5c2,-1 4,-2 7,-2 3,-1 7,0 10,2l-1 2c-3,-2 -6,-3 -9,-3 -2,1 -4,1 -6,2l-1 -1zm-3 -2c2,-2 6,-4 9,-4 5,-1 9,1 13,3l-1 2c-3,-2 -7,-3 -12,-3 -2,1 -5,2 -7,3l-2 -1z"/>
 </g>
</svg>
