<?xml version="1.0" encoding="UTF-8"?>
<!DOCTYPE svg PUBLIC "-//W3C//DTD SVG 1.1//EN" "http://www.w3.org/Graphics/SVG/1.1/DTD/svg11.dtd">
<!-- Creator: CorelDRAW X7 -->
<svg xmlns="http://www.w3.org/2000/svg" xml:space="preserve" width="229px" height="164px" version="1.1" style="shape-rendering:geometricPrecision; text-rendering:geometricPrecision; image-rendering:optimizeQuality; fill-rule:evenodd; clip-rule:evenodd"
viewBox="0 0 287 205"
 xmlns:xlink="http://www.w3.org/1999/xlink">
 <defs>
  <style type="text/css">
   <![CDATA[
    .str0 {stroke:#022E61;stroke-width:2.50224}
    .fil14 {fill:none}
    .fil2 {fill:#FEFEFE}
    .fil5 {fill:#5CC6D0}
    .fil7 {fill:black}
    .fil11 {fill:#022E61}
    .fil10 {fill:#022E61}
    .fil1 {fill:#25A6D9}
    .fil3 {fill:#2887D2}
    .fil0 {fill:#2887D2}
    .fil6 {fill:#FEFEFE;fill-rule:nonzero}
    .fil8 {fill:#D2D3D5;fill-rule:nonzero}
    .fil9 {fill:#96989A;fill-rule:nonzero}
    .fil13 {fill:#FFF212;fill-rule:nonzero}
    .fil12 {fill:#00A859;fill-rule:nonzero}
    .fil4 {fill:url(#id0)}
   ]]>
  </style>
  <linearGradient id="id0" gradientUnits="userSpaceOnUse" x1="91.0339" y1="87.6139" x2="35.4408" y2="113.727">
   <stop offset="0" style="stop-opacity:1; stop-color:#91D8F7"/>
   <stop offset="0.701961" style="stop-opacity:1; stop-color:#77CFE4"/>
   <stop offset="1" style="stop-opacity:1; stop-color:#5CC6D0"/>
  </linearGradient>
 </defs>
 <g id="Layer_x0020_1">
  <metadata id="CorelCorpID_0Corel-Layer"/>
  <g id="_667257648">
   <g>
    <path class="fil0" d="M15 59l86 0c4,0 8,6 8,10l0 122c0,5 -3,8 -7,8l-86 0c-4,0 -8,-3 -8,-8l-1 -115c-3,-1 -3,-4 -3,-8 -1,-5 2,-8 5,-8 4,-1 4,-1 6,-1z"/>
    <g>
     <path class="fil1" d="M21 59l82 0c4,0 7,4 7,8l1 122c0,4 -3,7 -8,7l-82 0c-4,0 -7,-3 -7,-8l-1 -122c0,-4 4,-7 8,-7z"/>
     <path class="fil2" d="M24 63l78 0c4,0 7,3 7,7l0 116c0,4 -3,8 -7,8l-78 0c-4,0 -7,-4 -7,-8l0 -116c0,-4 3,-7 7,-7z"/>
     <path class="fil3" d="M27 77l73 0c4,0 7,3 7,7l0 34 -87 0 0 -34c0,-4 4,-7 7,-7z"/>
     <polygon class="fil4" points="23,92 104,92 104,109 23,109 "/>
     <rect class="fil5" transform="matrix(0.330719 4.25003E-005 -4.25003E-005 0.330719 25.1593 125.91)" width="40.0432" height="18.7705" rx="7" ry="7"/>
     <rect class="fil5" transform="matrix(0.330719 4.25003E-005 -4.25003E-005 0.330719 40.8855 125.912)" width="40.0432" height="18.7705" rx="7" ry="7"/>
     <rect class="fil5" transform="matrix(0.330719 4.25003E-005 -4.25003E-005 0.330719 56.6116 125.914)" width="40.0432" height="18.7705" rx="7" ry="7"/>
     <rect class="fil5" transform="matrix(0.330719 4.25003E-005 -4.25003E-005 0.330719 72.3378 125.916)" width="40.0432" height="18.7705" rx="7" ry="7"/>
     <rect class="fil5" transform="matrix(0.330719 4.25003E-005 -4.25003E-005 0.330719 89.0435 125.918)" width="40.0432" height="18.7705" rx="7" ry="7"/>
     <rect class="fil0" transform="matrix(0.330719 4.25003E-005 -4.25003E-005 0.330719 25.158 135.843)" width="41.2951" height="32.535" rx="7" ry="7"/>
     <rect class="fil0" transform="matrix(0.330719 4.25003E-005 -4.25003E-005 0.330719 40.6774 135.845)" width="41.2951" height="32.535" rx="7" ry="7"/>
     <rect class="fil0" transform="matrix(0.330719 4.25003E-005 -4.25003E-005 0.330719 56.1968 135.847)" width="41.2951" height="32.535" rx="7" ry="7"/>
     <rect class="fil5" transform="matrix(0.330719 4.25003E-005 -4.25003E-005 0.330719 71.7162 135.849)" width="41.2951" height="32.535" rx="7" ry="7"/>
     <rect class="fil5" transform="matrix(0.330719 4.25003E-005 -4.25003E-005 0.330719 88.6283 135.851)" width="41.2951" height="32.535" rx="7" ry="7"/>
     <rect class="fil0" transform="matrix(0.330719 4.25003E-005 -4.25003E-005 0.330719 25.1563 149.086)" width="41.2951" height="32.535" rx="7" ry="7"/>
     <rect class="fil0" transform="matrix(0.330719 4.25003E-005 -4.25003E-005 0.330719 40.6757 149.088)" width="41.2951" height="32.535" rx="7" ry="7"/>
     <rect class="fil0" transform="matrix(0.330719 4.25003E-005 -4.25003E-005 0.330719 56.1951 149.09)" width="41.2951" height="32.535" rx="7" ry="7"/>
     <rect class="fil5" transform="matrix(0.330719 4.25003E-005 -4.25003E-005 0.330719 71.7145 149.092)" width="41.2951" height="32.535" rx="7" ry="7"/>
     <rect class="fil5" transform="matrix(0.330719 4.25003E-005 -4.25003E-005 0.330719 88.6265 149.094)" width="41.2951" height="32.535" rx="7" ry="7"/>
     <rect class="fil0" transform="matrix(0.330719 4.25003E-005 -4.25003E-005 0.330719 25.1546 162.329)" width="41.2951" height="32.535" rx="7" ry="7"/>
     <rect class="fil0" transform="matrix(0.330719 4.25003E-005 -4.25003E-005 0.330719 40.674 162.331)" width="41.2951" height="32.535" rx="7" ry="7"/>
     <rect class="fil0" transform="matrix(0.330719 4.25003E-005 -4.25003E-005 0.330719 56.1934 162.333)" width="41.2951" height="32.535" rx="7" ry="7"/>
     <path class="fil0" d="M74 162l9 0c1,0 2,1 2,3l0 20c0,1 -1,2 -2,2l-9 0c-1,0 -2,-1 -2,-2l0 -20c0,-2 1,-3 2,-3z"/>
     <rect class="fil5" transform="matrix(0.330719 4.25003E-005 -4.25003E-005 0.330719 88.6248 162.337)" width="41.2951" height="32.535" rx="7" ry="7"/>
     <rect class="fil0" transform="matrix(0.330719 4.25003E-005 -4.25003E-005 0.330719 25.1528 176.491)" width="41.2951" height="32.535" rx="7" ry="7"/>
     <rect class="fil0" transform="matrix(0.330719 4.25003E-005 -4.25003E-005 0.330719 40.6722 176.493)" width="41.2951" height="32.535" rx="7" ry="7"/>
     <rect class="fil0" transform="matrix(0.330719 4.25003E-005 -4.25003E-005 0.330719 56.1916 176.495)" width="41.2951" height="32.535" rx="7" ry="7"/>
     <rect class="fil5" transform="matrix(0.330719 4.25003E-005 -4.25003E-005 0.330719 88.623 176.499)" width="41.2951" height="32.535" rx="7" ry="7"/>
     <polygon class="fil6" points="33,171 32,171 32,165 31,166 31,165 33,164 33,164 "/>
     <path class="fil6" d="M35 182c0,1 -1,2 -1,3 0,0 -1,0 -1,0 -1,0 -2,0 -2,0 0,-1 -1,-2 -1,-3l0 -1c0,-1 1,-1 1,-2 0,0 1,0 2,0 0,0 1,0 1,0 0,1 1,1 1,2l0 1zm-1 -1c0,0 0,-1 -1,-1 0,-1 0,-1 0,-1 -1,0 -1,0 -1,1 -1,0 -1,1 -1,1l0 2c0,0 0,1 1,1 0,0 0,1 1,1 0,0 0,-1 0,-1 1,0 1,-1 1,-1l0 -2z"/>
     <path class="fil6" d="M50 171l-5 0 0 -1 3 -2c0,0 0,-1 0,-1 1,0 1,0 1,-1 0,0 -1,0 -1,-1 0,0 0,0 -1,0 0,0 0,0 -1,0 0,1 0,1 0,1l-1 0c0,0 0,-1 1,-1 0,0 1,-1 1,-1 1,0 2,1 2,1 0,0 0,1 0,1 0,1 0,2 -1,2l-2 2 4 0 0 1z"/>
     <path class="fil6" d="M62 167l1 0c0,0 0,0 1,0 0,0 0,0 0,-1 0,-1 0,-1 -1,-1 0,0 -1,0 -1,0 0,1 0,1 0,1l-1 0c0,0 0,-1 0,-1 1,0 1,-1 2,-1 1,0 1,1 1,1 1,0 1,1 1,1 0,1 0,1 0,1 -1,0 -1,1 -1,1 0,0 0,0 1,0 0,1 0,1 0,1 0,1 0,1 -1,2 0,0 0,0 -1,0 -1,0 -1,0 -2,0 0,-1 0,-1 0,-2l1 0c0,1 0,1 0,1 0,0 1,0 1,0 0,0 1,0 1,0 0,0 0,0 0,-1 0,0 0,0 0,-1 0,0 -1,0 -1,0l-1 0 0 -1z"/>
     <path class="fil6" d="M34 156l1 0 0 0 -1 0 0 2 -1 0 0 -2 -3 0 0 0 3 -5 1 0 0 5zm-3 0l2 0 0 -4 0 1 -2 3z"/>
     <path class="fil6" d="M46 155l0 -4 3 0 0 1 -2 0 0 2c0,0 0,0 1,0 0,0 1,0 1,0 1,1 1,1 1,2 0,0 -1,1 -1,1 0,1 -1,1 -1,1 -1,0 -1,0 -2,-1 0,0 0,0 0,-1l0 0c0,0 1,1 1,1 0,0 0,0 1,0 0,0 0,0 1,0 0,0 0,-1 0,-1 0,-1 0,-1 -1,-1 0,-1 0,-1 0,-1 -1,0 -1,0 -1,1l-1 0 0 0z"/>
     <path class="fil6" d="M64 151l0 1 0 0c-1,0 -1,0 -1,1 -1,0 -1,0 -1,1 0,0 1,0 1,0 1,0 1,0 2,0 0,1 0,1 0,2 0,0 0,1 0,1 -1,1 -1,1 -2,1 -1,0 -1,0 -1,-1 -1,0 -1,-1 -1,-2l0 0c0,-1 0,-2 1,-3 0,0 1,-1 2,-1l0 0zm-1 3c0,0 0,0 -1,0 0,1 0,1 0,1l0 0c0,1 0,1 0,2 0,0 1,0 1,0 0,0 1,0 1,0 0,0 0,-1 0,-1 0,-1 0,-1 0,-1 0,-1 -1,-1 -1,-1z"/>
     <polygon class="fil6" points="35,138 32,145 31,145 34,139 30,139 30,138 35,138 "/>
     <path class="fil6" d="M49 140c0,0 0,0 0,1 0,0 0,0 -1,0 1,0 1,1 1,1 0,0 1,0 1,1 0,0 -1,1 -1,1 0,0 -1,1 -2,1 0,0 -1,-1 -1,-1 0,0 -1,-1 -1,-1 0,-1 0,-1 1,-1 0,0 0,-1 0,-1 0,0 0,0 0,0 0,-1 0,-1 0,-1 0,-1 0,-1 0,-2 0,0 1,0 1,0 1,0 2,0 2,0 0,1 0,1 0,2zm0 3c0,-1 0,-1 -1,-1 0,0 0,0 -1,0 0,0 0,0 0,0 -1,0 -1,0 -1,1 0,0 0,0 1,1 0,0 0,0 0,0 1,0 1,0 1,0 1,-1 1,-1 1,-1zm-2 -4c0,0 0,0 0,0 -1,0 -1,0 -1,1 0,0 0,0 1,1 0,0 0,0 0,0 1,0 1,0 1,0 0,-1 1,-1 1,-1 0,-1 -1,-1 -1,-1 0,0 0,0 -1,0z"/>
     <path class="fil6" d="M64 142c0,0 0,0 0,0 -1,0 -1,0 -1,0 -1,0 -1,0 -1,0 -1,0 -1,0 -1,-1 0,0 0,0 0,-1 0,0 0,-1 0,-1 0,0 1,-1 1,-1 0,0 0,0 1,0 1,0 1,0 1,1 1,0 1,1 1,2l0 0c0,1 0,2 -1,3 0,0 -1,1 -2,1l0 0 0 -1 0 0c1,0 1,0 2,-1 0,0 0,-1 0,-1zm-1 0c0,0 0,0 1,-1 0,0 0,0 0,0l0 -1c0,0 0,-1 0,-1 0,0 -1,0 -1,0 0,0 -1,0 -1,0 0,0 0,1 0,1 0,1 0,1 0,1 0,1 0,1 1,1z"/>
     <path class="fil6" d="M47 182c0,0 0,0 0,0 0,-1 0,-1 0,-1 1,0 1,0 1,1 0,0 0,0 0,0 0,0 0,0 0,0 0,0 0,0 -1,0 0,0 0,0 0,0 0,0 0,0 0,0z"/>
     <path class="fil6" d="M65 181l-4 0 0 0 4 0 0 0zm0 2l-4 0 0 -1 4 0 0 1z"/>
     <polygon class="fil6" points="79,174 81,174 81,175 79,175 79,177 78,177 78,175 76,175 76,174 78,174 78,172 79,172 "/>
     <rect class="fil7" transform="matrix(0.330719 4.25003E-005 -4.25003E-005 0.330719 22.6813 86.1802)" width="60.0656" height="11.2623"/>
    </g>
    <g>
     <path class="fil8" d="M102 48c-1,0 -4,-1 -6,-1l-13 0 0 11 18 0c2,0 4,-1 4,-1l0 -7c0,-1 -1,-2 -3,-2z"/>
     <g>
      <path class="fil6" d="M46 47l50 0c-5,0 -9,1 -9,3l0 20 -50 0 0 -20c0,-2 4,-3 9,-3z"/>
      <path id="1" class="fil9" d="M96 48l-50 0 0 -1 50 0 0 1zm-8 2l-1 0 0 0 0 -1 0 0 0 0 0 0 0 0 0 0 0 0 0 0 1 0 0 -1 0 0 0 0 1 0 0 0 0 0 0 0 1 0 0 0 0 0 1 0 0 0 1 0 0 0 0 -1 1 0 0 0 1 0 0 0 1 0 0 0 0 0 1 0 0 1 0 0 -1 0 0 0 -1 0 0 0 0 0 -1 0 0 0 0 0 -1 0 0 0 0 0 -1 0 0 0 0 0 -1 0 0 0 0 0 0 0 -1 0 0 1 0 0 0 0 0 0 -1 0 0 0 0 0 0 0 0 0 0 0 0 0 0 1 0 0zm-1 20l0 -20 1 0 0 20 -1 0 0 0zm1 0l0 0 -1 0 1 0zm-51 0l50 0 0 0 -50 0 0 0 0 0zm0 0l0 0 0 0 0 0zm1 -20l0 20 -1 0 0 -20 0 0 1 0zm8 -3l0 1 0 0 -1 0 0 0 0 0 -1 0 0 0 -1 0 0 0 0 0 -1 0 0 0 0 0 -1 0 0 0 0 0 -1 0 0 0 0 0 0 0 -1 0 0 0 0 1 0 0 0 0 -1 0 0 0 0 0 0 0 0 0 0 0 0 0 0 0 0 1 -1 0 0 -1 0 0 0 0 0 0 0 0 0 0 0 0 0 0 1 0 0 -1 0 0 0 0 0 0 1 0 0 0 0 0 1 0 0 0 0 0 1 0 0 0 0 0 1 0 0 -1 1 0 0 0 1 0 0 0 0 0 1 0 0 0 1 0 0 0z"/>
     </g>
    </g>
    <path class="fil10" d="M253 110l-30 41c-33,0 -66,0 -99,0l35 -41 0 -48 94 0 0 48z"/>
    <polygon class="fil2" points="246,109 218,144 138,144 168,109 168,70 246,70 "/>
    <rect class="fil1" x="174" y="76" width="25.2295" height="4.93076"/>
    <rect class="fil1" x="206" y="76" width="9.59584" height="4.93076"/>
    <rect class="fil1" x="174" y="89" width="25.2295" height="4.93076"/>
    <rect class="fil1" x="206" y="89" width="9.59584" height="4.93076"/>
    <rect class="fil1" x="174" y="100" width="25.2295" height="4.93076"/>
    <rect class="fil1" x="206" y="100" width="9.59584" height="4.93076"/>
    <g>
     <path class="fil2 str0" d="M180 156l79 -47 21 39c2,3 1,7 -3,9l-66 39c-4,2 -8,1 -10,-2l-21 -38z"/>
     <path class="fil11" d="M181 155l79 -47 20 34c2,4 1,8 -2,10l-67 39c-4,2 -8,1 -10,-2l-20 -34z"/>
    </g>
    <path class="fil12" d="M233 93c0,-1 -1,-2 -1,-2 -1,-1 -1,-1 -3,-2 -1,0 -2,-1 -3,-1 -1,0 -1,-1 -2,-2 -1,0 -1,-1 -1,-2 -1,0 -1,-1 -1,-2 0,-2 1,-4 2,-5 1,-1 3,-2 5,-2l0 -1 0 -2 0 0 0 0c0,0 0,0 0,0l1 0c1,0 1,0 1,0l0 0 0 0 0 2 0 1c2,0 4,1 5,3 1,1 1,2 1,4l0 0 0 0c0,1 0,2 -1,2l-2 0c-1,0 -1,-1 -1,-2l0 0 0 0 0 0 0 0 0 0c0,-1 -1,-2 -1,-2 -1,-1 -1,-1 -2,-1 -1,0 -2,0 -2,1 -1,0 -1,1 -1,2 0,1 0,1 1,2 0,0 1,1 2,1 2,1 3,1 3,2 1,0 2,1 3,1 0,1 1,2 1,2 0,1 0,2 0,3 0,2 0,3 -1,4 -2,2 -3,2 -5,2l0 2c0,0 0,0 0,0l0 1c0,0 -1,1 -1,1l-1 0c0,0 -1,-1 -1,-1l0 -1c0,0 0,0 0,0l0 -2c-2,0 -4,-1 -5,-2 -1,-1 -2,-2 -2,-5l0 0c0,0 1,-1 2,-1l1 0c1,0 2,1 2,1l0 0 0 0 0 0 0 0 0 0 0 0c0,2 0,2 1,3 0,0 1,1 3,1 0,0 1,-1 2,-1 0,-1 1,-1 1,-2z"/>
    <path class="fil13" d="M211 166c0,-1 -1,-2 -1,-2 -1,0 -2,0 -3,0 -1,0 -3,1 -4,1 -1,0 -1,0 -2,0 -1,-1 -2,-1 -3,-1 0,-1 -1,-2 -1,-3 -1,-1 -2,-3 -1,-4 0,-2 1,-3 3,-5l-1 -1 -1 -1 0 0 0 0c0,0 0,-1 0,-1l1 0c1,-1 1,-1 1,0l0 0 0 0 1 1 1 1c2,-1 3,-1 5,0 2,0 3,1 4,3l0 0 0 0c0,1 0,2 -1,2l-1 1c-1,0 -2,0 -2,-1l0 0 0 0 0 0 0 0 0 0c-1,-1 -1,-1 -2,-1 -1,0 -2,0 -3,0 0,1 -1,1 -1,2 0,1 0,1 1,2 0,1 1,1 1,1 1,1 2,0 3,0 2,0 3,0 4,0 1,0 2,0 2,0 1,0 2,1 3,1 0,0 1,1 1,2 1,2 2,3 1,5 0,1 -1,3 -3,4l1 1c0,0 0,0 0,0l1 1c0,0 0,1 -1,1l0 1c-1,0 -1,0 -2,-1l0 -1c0,0 0,0 0,0l-1 -1c-2,1 -4,2 -6,1 -1,0 -2,-1 -4,-3l0 0c0,-1 0,-2 1,-2l1 -1c1,0 2,0 2,1l0 0 0 0 1 0 0 0 0 0 0 0c0,1 1,1 1,1 1,0 2,0 3,0 1,-1 2,-2 2,-2 0,-1 0,-2 -1,-2z"/>
    <rect class="fil1" x="172" y="118" width="28.8507" height="4.93076"/>
    <rect class="fil1" x="207" y="118" width="9.59584" height="4.93076"/>
    <rect class="fil1" x="161" y="128" width="33.1296" height="4.93076"/>
    <rect class="fil1" x="202" y="128" width="9.59584" height="4.93076"/>
   </g>
   <rect class="fil14" width="287" height="205"/>
  </g>
 </g>
</svg>
