<?xml version="1.0" encoding="UTF-8"?>
<!DOCTYPE svg PUBLIC "-//W3C//DTD SVG 1.1//EN" "http://www.w3.org/Graphics/SVG/1.1/DTD/svg11.dtd">
<!-- Creator: CorelDRAW X7 -->
<svg xmlns="http://www.w3.org/2000/svg" xml:space="preserve" width="229px" height="164px" version="1.1" style="shape-rendering:geometricPrecision; text-rendering:geometricPrecision; image-rendering:optimizeQuality; fill-rule:evenodd; clip-rule:evenodd"
viewBox="0 0 287 205"
 xmlns:xlink="http://www.w3.org/1999/xlink">
 <defs>
  <style type="text/css">
   <![CDATA[
    .fil17 {fill:none}
    .fil8 {fill:#FEFEFE}
    .fil16 {fill:#96989A}
    .fil11 {fill:#5CC6D0}
    .fil13 {fill:black}
    .fil2 {fill:#0D814B}
    .fil3 {fill:#194440}
    .fil7 {fill:#25A6D9}
    .fil9 {fill:#2887D2}
    .fil6 {fill:#2887D2}
    .fil0 {fill:#2CB156}
    .fil4 {fill:#5EE1E9}
    .fil1 {fill:#FCFCFC}
    .fil12 {fill:#FEFEFE;fill-rule:nonzero}
    .fil14 {fill:#D2D3D5;fill-rule:nonzero}
    .fil15 {fill:#96989A;fill-rule:nonzero}
    .fil20 {fill:#FFCF46;fill-rule:nonzero}
    .fil19 {fill:#FAAC4A;fill-rule:nonzero}
    .fil5 {fill:#F58634;fill-rule:nonzero}
    .fil18 {fill:#EB9E47;fill-rule:nonzero}
    .fil21 {fill:#00A859;fill-rule:nonzero}
    .fil10 {fill:url(#id0)}
   ]]>
  </style>
  <linearGradient id="id0" gradientUnits="userSpaceOnUse" x1="91.0339" y1="87.5887" x2="35.4408" y2="113.702">
   <stop offset="0" style="stop-opacity:1; stop-color:#91D8F7"/>
   <stop offset="0.701961" style="stop-opacity:1; stop-color:#77CFE4"/>
   <stop offset="1" style="stop-opacity:1; stop-color:#5CC6D0"/>
  </linearGradient>
 </defs>
 <g id="Layer_x0020_1">
  <metadata id="CorelCorpID_0Corel-Layer"/>
  <g id="_875014848">
   <g>
    <g>
     <path class="fil0" d="M133 140c1,0 4,1 5,2l8 5c2,1 3,1 4,2 3,2 6,4 9,5 1,1 3,2 4,3 1,0 4,2 5,2 3,-1 5,-3 8,-5l60 -34 -25 -15c-3,-2 -5,-3 -7,-4 -2,-2 -1,-2 -6,1l-16 9c-1,1 -2,2 -4,2 -6,4 -13,8 -19,11 -7,4 -15,9 -22,13 -1,1 -1,1 -2,1l-2 2z"/>
     <path class="fil1" d="M142 139c1,0 9,5 11,6 3,2 7,4 10,6 3,1 4,3 6,2 2,-1 3,-2 5,-3 14,-8 29,-17 43,-25 2,-1 4,-2 5,-3 2,0 5,-2 6,-3l-24 -14c-2,0 -2,-1 -3,0 -2,1 -4,2 -5,3l-54 31z"/>
     <path class="fil0" d="M148 139l18 10c2,1 1,1 5,-1 14,-7 28,-16 42,-23l9 -6c-1,0 -16,-9 -19,-10 -1,-1 -1,-2 -2,-1l-44 25c-3,2 -6,4 -9,6z"/>
     <path class="fil2" d="M168 159c-1,0 -4,-2 -5,-2 -1,-1 -3,-2 -4,-3 -3,-1 -6,-3 -9,-5 -1,-1 -2,-1 -4,-2l-8 -5c-1,-1 -4,-2 -5,-2l0 5 31 17c0,1 1,1 2,2 2,1 2,0 2,2 -2,-1 -16,-9 -18,-10 -2,-2 -15,-10 -17,-10l0 4 13 8c2,0 3,1 5,2 1,1 3,2 4,3 2,1 3,1 4,2 2,1 3,2 5,3 2,1 4,2 4,3l-35 -20 0 4 33 19c2,1 2,1 2,2 -1,0 -4,-2 -5,-2 -1,-1 -3,-2 -4,-3 -3,-1 -6,-3 -9,-5l-17 -10 0 5 33 19c1,1 1,0 2,1 0,0 0,0 0,1 5,-4 11,-7 17,-10l51 -30 0 -1 -64 37c-1,1 -3,2 -4,3l0 -5 68 -39 0 -1 -9 5c-2,1 -5,3 -8,5 -6,3 -11,6 -17,10l-34 19c0,-5 -1,-3 4,-6 7,-5 63,-37 64,-38l0 -1 -34 20c-6,4 -12,7 -17,10 -2,1 -16,10 -17,10l0 -4c1,-1 33,-19 34,-20l34 -20 0 -1 -17 10c-6,3 -11,7 -17,10 -3,2 -6,3 -9,5l-21 12c-1,1 -3,2 -4,3l0 -6z"/>
     <path class="fil2" d="M168 182l0 4 0 1c-3,-1 -22,-13 -26,-15l-9 -5 0 4c1,1 4,2 5,3l22 13c1,0 2,1 4,2 2,1 4,2 4,3l-35 -20 0 7c1,0 34,20 35,20 0,0 0,0 0,0 0,-1 0,0 0,-1l0 -3c0,-1 0,-2 0,-3 3,-2 13,-7 17,-10 3,-1 6,-3 8,-5 3,-1 41,-24 43,-24l0 -1c-1,0 -3,1 -4,2l-64 37 0 -4c1,0 3,-2 4,-2l13 -8c11,-7 23,-13 34,-20l17 -10 0 -1 -68 40 0 -4z"/>
     <path class="fil3" d="M168 199l26 -15c7,-4 17,-10 25,-15 3,-1 6,-3 9,-5 1,-1 2,-1 4,-2 1,-1 3,-2 4,-3l0 -6c-2,0 -40,23 -43,24 -2,2 -5,4 -8,5 -4,3 -14,8 -17,10 0,1 0,2 0,3l0 3c0,1 0,0 0,1z"/>
     <path class="fil3" d="M168 159l0 6c1,-1 3,-2 4,-3l21 -12c3,-2 6,-3 9,-5 6,-3 11,-7 17,-10l17 -10 0 -5 -60 34c-3,2 -5,4 -8,5z"/>
     <path class="fil3" d="M236 141l0 -4 -68 39 0 5c1,-1 3,-2 4,-3l64 -37z"/>
     <path class="fil3" d="M236 130l0 -4 -34 20c-1,1 -33,19 -34,20l0 4c1,0 15,-9 17,-10 5,-3 11,-6 17,-10l34 -20z"/>
     <path class="fil3" d="M236 136l0 -5c-1,1 -57,33 -64,38 -5,3 -4,1 -4,6l34 -19c6,-4 11,-7 17,-10 3,-2 6,-4 8,-5l9 -5z"/>
     <path class="fil3" d="M168 182l0 0 0 4 68 -40 0 -4 -51 30c-6,3 -12,6 -17,10z"/>
     <path class="fil3" d="M236 152l0 -5 -17 10c-11,7 -23,13 -34,20l-13 8c-1,0 -3,2 -4,2l0 4 64 -37c1,-1 3,-2 4,-2z"/>
     <path class="fil1" d="M182 118c-8,1 -19,6 -14,13 7,14 43,7 36,-6 -3,-6 -14,-9 -22,-7z"/>
     <path class="fil2" d="M133 166c2,0 4,2 5,2l25 16c1,0 4,2 5,2l0 -4 0 0c0,-1 0,-1 0,-1l0 1c-2,-1 -31,-19 -35,-20l0 4z"/>
     <path class="fil4" d="M202 116c-7,1 -3,6 3,5 6,-1 3,-6 -3,-5z"/>
     <path class="fil4" d="M166 136c-6,2 -2,7 4,5 5,-1 2,-6 -4,-5z"/>
     <path class="fil0" d="M133 167l9 5c4,2 23,14 26,15l0 -1c-1,0 -4,-2 -5,-2l-25 -16c-1,0 -3,-2 -5,-2l0 1z"/>
     <path class="fil0" d="M133 172l35 20c0,-1 -2,-2 -4,-3 -2,-1 -3,-2 -4,-2l-22 -13c-1,-1 -4,-2 -5,-3l0 1z"/>
     <path class="fil0" d="M133 156l17 10c3,2 6,4 9,5 1,1 3,2 4,3 1,0 4,2 5,2 0,-1 0,-1 -2,-2l-33 -19 0 1z"/>
     <path class="fil0" d="M133 146c2,0 15,8 17,10 2,1 16,9 18,10 0,-2 0,-1 -2,-2 -1,-1 -2,-1 -2,-2l-31 -17 0 1z"/>
     <path class="fil0" d="M133 151l35 20c0,-1 -2,-2 -4,-3 -2,-1 -3,-2 -5,-3 -1,-1 -2,-1 -4,-2 -1,-1 -3,-2 -4,-3 -2,-1 -3,-2 -5,-2l-13 -8 0 1z"/>
     <path class="fil0" d="M133 162c4,1 33,19 35,20l0 -1c-1,-1 -1,0 -2,-1l-33 -19 0 1z"/>
    </g>
    <path class="fil5" d="M191 129c-1,0 -1,0 -2,-1 0,0 -1,1 -2,1 -1,1 -2,1 -2,1 -1,0 -2,0 -3,1 0,0 -1,-1 -2,-1 0,0 -1,0 -1,-1 -2,-1 -2,-2 -2,-4 0,-1 0,-2 1,-4l-2 -2 2 -1 2 2c1,-1 3,-1 4,-1 1,0 3,1 4,2l-3 2c-1,0 -1,-1 -2,-1 -1,0 -1,0 -2,1 0,0 -1,1 -1,2 1,0 1,1 1,1 1,1 1,1 2,1 0,0 1,0 2,-1 1,0 2,-1 3,-1 1,0 1,0 2,0 1,0 1,0 2,0 1,1 1,1 2,2 1,1 1,2 1,3 0,1 0,3 -1,4l2 2 -2 1 -2 -1c-1,1 -3,1 -4,1 -2,0 -3,-1 -4,-2l2 -3c1,1 2,2 3,2 0,0 1,-1 2,-1 0,-1 1,-1 1,-2 0,-1 -1,-1 -1,-2z"/>
   </g>
   <path class="fil6" d="M15 59l86 0c4,0 8,6 8,10l0 122c0,5 -3,8 -7,8l-86 0c-4,0 -8,-3 -8,-8l-1 -115c-3,-1 -3,-4 -3,-8 -1,-5 2,-8 5,-8 4,-1 4,-1 6,-1z"/>
   <g>
    <path class="fil7" d="M21 59l82 0c4,0 7,4 7,8l1 122c0,4 -3,7 -8,7l-82 0c-4,0 -7,-4 -7,-8l-1 -122c0,-4 4,-7 8,-7z"/>
    <path class="fil8" d="M24 63l78 0c4,0 7,3 7,7l0 116c0,4 -3,8 -7,8l-78 0c-4,0 -7,-4 -7,-8l0 -116c0,-4 3,-7 7,-7z"/>
    <path class="fil9" d="M27 77l73 0c4,0 7,3 7,7l0 34 -87 0 0 -35c0,-3 4,-6 7,-6z"/>
    <polygon class="fil10" points="23,92 104,92 104,109 23,109 "/>
    <rect class="fil11" transform="matrix(0.330719 4.25003E-005 -4.25003E-005 0.330719 25.1593 125.885)" width="40.0432" height="18.7705" rx="7" ry="7"/>
    <rect class="fil11" transform="matrix(0.330719 4.25003E-005 -4.25003E-005 0.330719 40.8855 125.887)" width="40.0432" height="18.7705" rx="7" ry="7"/>
    <rect class="fil11" transform="matrix(0.330719 4.25003E-005 -4.25003E-005 0.330719 56.6116 125.889)" width="40.0432" height="18.7705" rx="7" ry="7"/>
    <rect class="fil11" transform="matrix(0.330719 4.25003E-005 -4.25003E-005 0.330719 72.3378 125.891)" width="40.0432" height="18.7705" rx="7" ry="7"/>
    <rect class="fil11" transform="matrix(0.330719 4.25003E-005 -4.25003E-005 0.330719 89.0435 125.893)" width="40.0432" height="18.7705" rx="7" ry="7"/>
    <rect class="fil6" transform="matrix(0.330719 4.25003E-005 -4.25003E-005 0.330719 25.158 135.818)" width="41.2951" height="32.535" rx="7" ry="7"/>
    <rect class="fil6" transform="matrix(0.330719 4.25003E-005 -4.25003E-005 0.330719 40.6774 135.82)" width="41.2951" height="32.535" rx="7" ry="7"/>
    <rect class="fil6" transform="matrix(0.330719 4.25003E-005 -4.25003E-005 0.330719 56.1968 135.822)" width="41.2951" height="32.535" rx="7" ry="7"/>
    <rect class="fil11" transform="matrix(0.330719 4.25003E-005 -4.25003E-005 0.330719 71.7162 135.824)" width="41.2951" height="32.535" rx="7" ry="7"/>
    <rect class="fil11" transform="matrix(0.330719 4.25003E-005 -4.25003E-005 0.330719 88.6283 135.826)" width="41.2951" height="32.535" rx="7" ry="7"/>
    <rect class="fil6" transform="matrix(0.330719 4.25003E-005 -4.25003E-005 0.330719 25.1563 149.061)" width="41.2951" height="32.535" rx="7" ry="7"/>
    <rect class="fil6" transform="matrix(0.330719 4.25003E-005 -4.25003E-005 0.330719 40.6757 149.063)" width="41.2951" height="32.535" rx="7" ry="7"/>
    <rect class="fil6" transform="matrix(0.330719 4.25003E-005 -4.25003E-005 0.330719 56.1951 149.065)" width="41.2951" height="32.535" rx="7" ry="7"/>
    <rect class="fil11" transform="matrix(0.330719 4.25003E-005 -4.25003E-005 0.330719 71.7145 149.067)" width="41.2951" height="32.535" rx="7" ry="7"/>
    <rect class="fil11" transform="matrix(0.330719 4.25003E-005 -4.25003E-005 0.330719 88.6265 149.069)" width="41.2951" height="32.535" rx="7" ry="7"/>
    <rect class="fil6" transform="matrix(0.330719 4.25003E-005 -4.25003E-005 0.330719 25.1546 162.304)" width="41.2951" height="32.535" rx="7" ry="7"/>
    <rect class="fil6" transform="matrix(0.330719 4.25003E-005 -4.25003E-005 0.330719 40.674 162.306)" width="41.2951" height="32.535" rx="7" ry="7"/>
    <rect class="fil6" transform="matrix(0.330719 4.25003E-005 -4.25003E-005 0.330719 56.1934 162.308)" width="41.2951" height="32.535" rx="7" ry="7"/>
    <path class="fil6" d="M74 162l9 0c1,0 2,1 2,3l0 20c0,1 -1,2 -2,2l-9 0c-1,0 -2,-1 -2,-2l0 -20c0,-2 1,-3 2,-3z"/>
    <rect class="fil11" transform="matrix(0.330719 4.25003E-005 -4.25003E-005 0.330719 88.6248 162.312)" width="41.2951" height="32.535" rx="7" ry="7"/>
    <rect class="fil6" transform="matrix(0.330719 4.25003E-005 -4.25003E-005 0.330719 25.1528 176.466)" width="41.2951" height="32.535" rx="7" ry="7"/>
    <rect class="fil6" transform="matrix(0.330719 4.25003E-005 -4.25003E-005 0.330719 40.6722 176.468)" width="41.2951" height="32.535" rx="7" ry="7"/>
    <rect class="fil6" transform="matrix(0.330719 4.25003E-005 -4.25003E-005 0.330719 56.1916 176.47)" width="41.2951" height="32.535" rx="7" ry="7"/>
    <rect class="fil11" transform="matrix(0.330719 4.25003E-005 -4.25003E-005 0.330719 88.623 176.474)" width="41.2951" height="32.535" rx="7" ry="7"/>
    <polygon class="fil12" points="33,171 32,171 32,165 31,166 31,165 33,164 33,164 "/>
    <path class="fil12" d="M35 182c0,1 -1,2 -1,3 0,0 -1,0 -1,0 -1,0 -2,0 -2,0 0,-1 -1,-2 -1,-3l0 -1c0,-1 1,-1 1,-2 0,0 1,0 2,0 0,0 1,0 1,0 0,1 1,1 1,2l0 1zm-1 -1c0,0 0,-1 -1,-1 0,-1 0,-1 0,-1 -1,0 -1,0 -1,1 -1,0 -1,0 -1,1l0 1c0,1 0,2 1,2 0,0 0,1 1,1 0,0 0,-1 0,-1 1,0 1,-1 1,-1l0 -2z"/>
    <path class="fil12" d="M50 171l-5 0 0 -1 3 -2c0,0 0,-1 0,-1 1,0 1,-1 1,-1 0,0 -1,0 -1,-1 0,0 0,0 -1,0 0,0 0,0 -1,0 0,1 0,1 0,1l-1 0c0,0 0,-1 1,-1 0,0 1,-1 1,-1 1,0 2,1 2,1 0,0 0,1 0,1 0,1 0,2 -1,2l-2 2 4 0 0 1z"/>
    <path class="fil12" d="M62 167l1 0c0,0 0,0 1,0 0,0 0,0 0,-1 0,-1 0,-1 -1,-1 0,0 -1,0 -1,0 0,1 0,1 0,1l-1 0c0,0 0,-1 0,-1 1,0 1,-1 2,-1 1,0 1,1 1,1 1,0 1,1 1,1 0,1 0,1 0,1 -1,0 -1,1 -1,1 0,0 0,0 1,0 0,0 0,1 0,1 0,1 0,1 -1,2 0,0 0,0 -1,0 -1,0 -1,0 -2,0 0,-1 0,-1 0,-2l1 0c0,1 0,1 0,1 0,0 1,0 1,0 0,0 1,0 1,0 0,0 0,0 0,-1 0,0 0,0 0,-1 0,0 -1,0 -1,0l-1 0 0 -1z"/>
    <path class="fil12" d="M34 156l1 0 0 0 -1 0 0 2 -1 0 0 -2 -3 0 0 0 3 -5 1 0 0 5zm-3 0l2 0 0 -4 0 1 -2 3z"/>
    <path class="fil12" d="M46 154l0 -3 3 0 0 1 -2 0 0 2c0,0 0,0 1,0 0,0 1,0 1,0 1,0 1,1 1,2 0,0 -1,1 -1,1 0,1 -1,1 -1,1 -1,0 -1,0 -2,-1 0,0 0,0 0,-1l0 0c0,0 1,1 1,1 0,0 0,0 1,0 0,0 0,0 1,0 0,0 0,-1 0,-1 0,-1 0,-1 -1,-1 0,-1 0,-1 0,-1 -1,0 -1,0 -1,0l-1 1 0 -1z"/>
    <path class="fil12" d="M64 151l0 1 0 0c-1,0 -1,0 -1,1 -1,0 -1,0 -1,1 0,0 1,-1 1,-1 1,0 1,1 2,1 0,0 0,1 0,2 0,0 0,1 0,1 -1,1 -1,1 -2,1 -1,0 -1,0 -1,-1 -1,0 -1,-1 -1,-2l0 0c0,-1 0,-2 1,-3 0,0 1,-1 2,-1l0 0zm-1 3c0,0 0,0 -1,0 0,1 0,1 0,1l0 0c0,1 0,1 0,2 0,0 1,0 1,0 0,0 1,0 1,0 0,-1 0,-1 0,-1 0,-1 0,-1 0,-1 0,-1 -1,-1 -1,-1z"/>
    <polygon class="fil12" points="35,138 32,144 31,144 34,139 30,139 30,138 35,138 "/>
    <path class="fil12" d="M49 140c0,0 0,0 0,1 0,0 0,0 -1,0 1,0 1,1 1,1 0,0 1,0 1,1 0,0 -1,1 -1,1 0,0 -1,1 -2,1 0,0 -1,-1 -1,-1 0,0 -1,-1 -1,-1 0,-1 0,-1 1,-1 0,0 0,-1 0,-1 0,0 0,0 0,0 0,-1 0,-1 0,-1 0,-1 0,-1 0,-2 0,0 1,0 1,0 1,0 2,0 2,0 0,1 0,1 0,2zm0 3c0,-1 0,-1 -1,-1 0,0 0,0 -1,0 0,0 0,0 0,0 -1,0 -1,0 -1,1 0,0 0,0 1,1 0,0 0,0 0,0 1,0 1,0 1,0 1,-1 1,-1 1,-1zm-2 -4c0,0 0,0 0,0 -1,0 -1,0 -1,1 0,0 0,0 1,1 0,0 0,0 0,0 1,0 1,0 1,0 0,-1 1,-1 1,-1 0,-1 -1,-1 -1,-1 0,0 0,0 -1,0z"/>
    <path class="fil12" d="M64 142c0,0 0,0 0,0 -1,0 -1,0 -1,0 -1,0 -1,0 -1,0 -1,0 -1,0 -1,-1 0,0 0,0 0,-1 0,0 0,-1 0,-1 0,0 1,-1 1,-1 0,0 0,0 1,0 1,0 1,0 1,1 1,0 1,1 1,2l0 0c0,1 0,2 -1,3 0,0 -1,1 -2,1l0 0 0 -1 0 0c1,0 1,0 2,-1 0,0 0,-1 0,-1zm-1 0c0,0 0,0 1,-1 0,0 0,0 0,0l0 -1c0,0 0,-1 0,-1 0,0 -1,0 -1,0 0,0 -1,0 -1,0 0,0 0,1 0,1 0,1 0,1 0,1 0,1 0,1 1,1z"/>
    <path class="fil12" d="M47 182c0,0 0,0 0,0 0,-1 0,-1 0,-1 1,0 1,0 1,1 0,0 0,0 0,0 0,0 0,0 0,0 0,0 0,0 -1,0 0,0 0,0 0,0 0,0 0,0 0,0z"/>
    <path class="fil12" d="M65 181l-4 0 0 0 4 0 0 0zm0 2l-4 0 0 -1 4 0 0 1z"/>
    <polygon class="fil12" points="79,174 81,174 81,175 79,175 79,177 78,177 78,175 76,175 76,174 78,174 78,172 79,172 "/>
    <rect class="fil13" transform="matrix(0.330719 4.25003E-005 -4.25003E-005 0.330719 22.6813 86.1551)" width="60.0656" height="11.2623"/>
   </g>
   <g>
    <path class="fil14" d="M102 6c-1,-1 -4,-2 -6,-2l-13 0 0 37 18 0c2,0 4,-1 4,-3l0 -26c0,-2 -1,-4 -3,-6z"/>
    <g>
     <path class="fil12" d="M46 4l50 0c-5,0 -9,4 -9,8l0 58 -50 0 0 -58c0,-4 4,-8 9,-8z"/>
     <path id="1" class="fil15" d="M96 5l-50 0 0 -1 50 0 0 1zm-8 7l-1 0 0 0 0 0 0 0 0 -1 0 0 0 -1 0 0 0 -1 0 0 1 0 0 -1 0 0 0 0 1 -1 0 0 0 0 0 -1 1 0 0 0 0 0 1 -1 0 0 1 0 0 0 0 0 1 -1 0 0 1 0 0 0 1 0 0 0 0 0 1 0 0 1 0 0 -1 0 0 0 -1 0 0 0 0 0 -1 0 0 1 0 0 -1 0 0 0 0 0 -1 1 0 0 0 0 -1 0 0 0 0 1 0 0 -1 0 0 1 0 0 0 0 0 1 -1 0 0 0 0 1 0 0 0 0 0 1 0 0 0 0 0 0zm-1 58l0 -58 1 0 0 58 -1 1 0 -1zm1 0l0 1 -1 0 1 -1zm-51 -1l50 0 0 2 -50 0 0 -1 0 -1zm0 2l0 0 0 -1 0 1zm1 -59l0 58 -1 0 0 -58 0 0 1 0zm8 -8l0 1 0 0 -1 0 0 0 0 0 -1 0 0 0 -1 0 0 0 0 1 -1 0 0 0 0 0 -1 0 0 1 0 0 -1 0 0 0 0 0 0 1 -1 0 0 0 0 1 0 0 0 0 -1 1 0 0 0 0 0 1 0 0 0 0 0 1 0 0 0 0 -1 0 0 0 0 0 0 -1 0 0 0 -1 0 0 0 -1 0 0 1 0 0 -1 0 0 0 0 0 -1 1 0 0 0 0 -1 1 0 0 0 0 0 1 -1 0 0 0 0 1 0 0 0 1 -1 0 0 1 0 0 0 0 0 1 0 0 0 1 0 0 0z"/>
    </g>
   </g>
   <rect class="fil16" x="43" y="18" width="25.0268" height="6.28442"/>
   <rect class="fil16" x="71" y="18" width="10.3637" height="6.28442"/>
   <rect class="fil16" x="43" y="32" width="25.0268" height="6.28442"/>
   <rect class="fil16" x="71" y="32" width="10.3637" height="6.28442"/>
   <rect class="fil16" x="43" y="46" width="25.0268" height="6.28442"/>
   <rect class="fil16" x="71" y="46" width="10.3637" height="6.28442"/>
   <rect class="fil17" width="287" height="205"/>
   <g id="_875014872">
    <g>
     <path class="fil18" d="M196 97c0,2 -7,5 -16,5 -8,0 -15,-3 -15,-5l0 -1 0 -6 0 0c1,2 7,4 15,4 8,0 16,-2 16,-5l0 0 0 8z"/>
     <path class="fil19" d="M180 61l0 7 0 0c0,3 -7,5 -16,5 -3,0 -7,0 -10,-1l0 0c-1,-1 -3,-2 -5,-3l0 0 0 -8c0,2 7,4 15,4 8,0 16,-2 16,-4l0 0z"/>
     <path class="fil20" d="M180 61l0 0c0,2 -7,4 -16,4 -8,0 -15,-2 -15,-4 0,0 0,0 0,0 0,-3 7,-5 15,-5 9,0 16,2 16,5z"/>
     <path class="fil19" d="M165 90l0 0 0 -2 0 -6c0,2 7,4 15,4 8,0 16,-2 16,-4l0 0 0 7 0 0c0,3 -7,5 -16,5 -8,0 -14,-2 -15,-4z"/>
     <path class="fil18" d="M155 95c1,-2 3,-4 4,-7l0 0c2,0 3,0 5,0l1 0 0 2 0 6 -1 0c-3,0 -6,0 -9,-1l0 0z"/>
     <path class="fil19" d="M165 81l0 1 0 6 -1 0c-2,0 -3,0 -5,0l0 0c0,-1 1,-3 1,-5 0,-1 -1,-2 -1,-3l1 0c1,0 3,0 4,0l1 1c0,0 0,0 0,0z"/>
     <path class="fil18" d="M154 72c3,1 7,1 10,1 9,0 16,-2 16,-5l0 0 0 9c-8,0 -14,2 -15,4l-1 0c-2,0 -3,0 -4,-1l-1 0c0,-3 -2,-6 -5,-8l0 0z"/>
     <path class="fil20" d="M159 80l0 0c0,-3 -2,-6 -5,-8 -1,-2 -3,-3 -5,-3 -2,-1 -3,-1 -5,-1 -9,0 -16,7 -16,15 0,9 7,16 16,16 4,0 8,-1 11,-4 2,-2 3,-4 4,-7 0,-1 1,-3 1,-4 0,-1 -1,-3 -1,-4z"/>
     <path class="fil20" d="M196 81l0 1c0,2 -7,4 -16,4 -8,0 -15,-2 -15,-4l0 -1c0,0 0,0 0,0 1,-2 7,-4 15,-4l0 0c9,0 16,2 16,4z"/>
    </g>
    <path class="fil21" d="M146 88c0,-1 0,-2 0,-2 -1,0 -1,-1 -2,-1 -1,0 -2,-1 -3,-1 0,0 -1,-1 -1,-1 -1,-1 -1,-1 -1,-2 -1,-1 -1,-1 -1,-2 0,-2 1,-3 2,-4 1,-1 2,-1 3,-1l0 -3 2 0 0 3c2,0 3,1 4,2 1,1 1,2 1,4l-4 0c0,-1 0,-2 0,-3 -1,0 -1,0 -2,0 -1,0 -1,0 -1,0 -1,1 -1,1 -1,2 0,1 0,1 0,1 1,1 2,1 3,2 1,0 1,0 2,1 1,0 1,1 2,1 0,1 1,1 1,2 0,0 0,1 0,2 0,1 0,2 -1,3 -1,1 -2,2 -4,2l0 2 -2 0 0 -2c-2,0 -3,-1 -4,-2 -1,-1 -1,-2 -1,-4l3 0c0,1 0,2 1,2 0,1 1,1 2,1 1,0 1,0 2,-1 0,0 0,-1 0,-1z"/>
   </g>
  </g>
 </g>
</svg>
