<?xml version="1.0" encoding="UTF-8"?>
<!DOCTYPE svg PUBLIC "-//W3C//DTD SVG 1.1//EN" "http://www.w3.org/Graphics/SVG/1.1/DTD/svg11.dtd">
<!-- Creator: CorelDRAW X7 -->
<svg xmlns="http://www.w3.org/2000/svg" xml:space="preserve" width="226px" height="158px" version="1.1" style="shape-rendering:geometricPrecision; text-rendering:geometricPrecision; image-rendering:optimizeQuality; fill-rule:evenodd; clip-rule:evenodd"
viewBox="0 0 225 157"
 xmlns:xlink="http://www.w3.org/1999/xlink">
 <defs>
  <style type="text/css">
   <![CDATA[
    .fil15 {fill:none}
    .fil4 {fill:#FEFEFE}
    .fil13 {fill:#A9ABAE}
    .fil3 {fill:#96989A}
    .fil14 {fill:#FFCC29}
    .fil7 {fill:#5CC6D0}
    .fil0 {fill:#00AFEF}
    .fil10 {fill:black}
    .fil12 {fill:black}
    .fil5 {fill:#2887D2}
    .fil8 {fill:#2887D2}
    .fil11 {fill:#484848}
    .fil9 {fill:#FEFEFE;fill-rule:nonzero}
    .fil2 {fill:#FFF212;fill-rule:nonzero}
    .fil6 {fill:url(#id0)}
    .fil1 {fill:url(#id1)}
   ]]>
  </style>
  <linearGradient id="id0" gradientUnits="userSpaceOnUse" x1="59.926" y1="74.6058" x2="24.1341" y2="88.0322">
   <stop offset="0" style="stop-opacity:1; stop-color:#91D8F7"/>
   <stop offset="0.701961" style="stop-opacity:1; stop-color:#77CFE4"/>
   <stop offset="1" style="stop-opacity:1; stop-color:#5CC6D0"/>
  </linearGradient>
  <linearGradient id="id1" gradientUnits="userSpaceOnUse" x1="104.77" y1="107.946" x2="196.846" y2="35.398">
   <stop offset="0" style="stop-opacity:1; stop-color:#1D7CC4"/>
   <stop offset="0.729412" style="stop-opacity:1; stop-color:#0F95D9"/>
   <stop offset="1" style="stop-opacity:1; stop-color:#00AFEF"/>
  </linearGradient>
 </defs>
 <g id="Layer_x0020_1">
  <metadata id="CorelCorpID_0Corel-Layer"/>
  <g id="_684187600">
   <rect class="fil0" x="107" y="2" width="98.2226" height="138.408" rx="6" ry="6"/>
   <rect class="fil1" x="102" y="2" width="98.2226" height="138.408" rx="6" ry="6"/>
   <rect class="fil0" x="89" y="27" width="30.5733" height="9.65452" rx="4" ry="4"/>
   <rect class="fil0" x="89" y="53" width="30.5733" height="9.65452" rx="4" ry="4"/>
   <rect class="fil0" x="89" y="79" width="30.5733" height="9.65452" rx="4" ry="4"/>
   <rect class="fil0" x="89" y="106" width="30.5733" height="9.65452" rx="4" ry="4"/>
   <path class="fil2" d="M158 85c0,-2 0,-4 -1,-5 -2,-1 -3,-2 -6,-3 -3,-1 -5,-2 -7,-3 -2,-1 -3,-3 -5,-4 -1,-1 -2,-3 -3,-4 -1,-2 -1,-4 -1,-6 0,-5 1,-8 4,-11 2,-2 6,-4 10,-4l0 -4 0 -2 0 0 0 0c0,-1 1,-2 2,-2l2 0c1,0 2,1 2,2l0 0 0 0 0 2 0 4c4,1 8,2 10,5 2,3 4,6 4,10l0 1 0 0c0,1 -2,3 -4,3l-3 0c-2,0 -4,-1 -4,-3l0 0 0 0 0 0 0 -1 0 0c0,-2 0,-3 -2,-5 -1,-1 -2,-2 -4,-2 -2,0 -4,1 -5,2 -1,1 -2,3 -2,5 0,1 1,3 2,4 1,1 3,2 6,3 3,2 5,3 7,4 2,1 3,2 5,3 1,1 2,3 3,5 0,1 1,3 1,5 0,5 -2,8 -4,10 -3,3 -6,5 -11,5l0 3c0,0 0,0 0,0l0 2c0,1 -1,2 -2,2l-2 0c-1,0 -2,-1 -2,-2l0 -2c0,0 0,0 0,0l0 -3c-5,0 -8,-2 -11,-5 -3,-3 -4,-6 -4,-11l0 0c0,-2 2,-3 3,-3l4 0c2,0 3,1 3,3l0 0 0 0 0 0 0 0 0 0 0 1c0,2 1,3 2,4 2,2 4,3 6,3 2,0 4,-1 5,-2 2,-1 2,-3 2,-4z"/>
   <g>
    <rect class="fil3" transform="matrix(0.267151 0.00400355 -0.00400355 0.267151 12.9949 65.6041)" width="221" height="281" rx="17" ry="17"/>
    <rect class="fil4" transform="matrix(0.254913 0.00382014 -0.00382014 0.254913 14.3217 67.3425)" width="221" height="281" rx="17" ry="17"/>
    <path class="fil5" d="M20 69l45 1c3,0 4,2 4,4l0 19 -54 -1 0 -19c0,-2 2,-4 5,-4z"/>
    <polygon class="fil6" points="17,76 67,76 67,87 17,86 "/>
    <rect class="fil7" transform="matrix(0.259589 0.00389022 -0.00389022 0.259589 18.0175 96.7277)" width="31.8585" height="14.9339" rx="5" ry="5"/>
    <rect class="fil7" transform="matrix(0.259589 0.00389022 -0.00389022 0.259589 27.8383 96.8749)" width="31.8585" height="14.9339" rx="5" ry="5"/>
    <rect class="fil7" transform="matrix(0.259589 0.00389022 -0.00389022 0.259589 37.6591 97.0221)" width="31.8585" height="14.9339" rx="5" ry="5"/>
    <rect class="fil7" transform="matrix(0.259589 0.00389022 -0.00389022 0.259589 47.4798 97.1693)" width="31.8585" height="14.9339" rx="5" ry="5"/>
    <rect class="fil7" transform="matrix(0.259589 0.00389022 -0.00389022 0.259589 57.9124 97.3256)" width="31.8585" height="14.9339" rx="5" ry="5"/>
    <rect class="fil8" transform="matrix(0.259589 0.00389022 -0.00389022 0.259589 17.9245 102.93)" width="32.8545" height="25.885" rx="6" ry="6"/>
    <rect class="fil8" transform="matrix(0.259589 0.00389022 -0.00389022 0.259589 27.6162 103.076)" width="32.8545" height="25.885" rx="6" ry="6"/>
    <rect class="fil8" transform="matrix(0.259589 0.00389022 -0.00389022 0.259589 37.3079 103.221)" width="32.8545" height="25.885" rx="6" ry="6"/>
    <rect class="fil7" transform="matrix(0.259589 0.00389022 -0.00389022 0.259589 46.9995 103.366)" width="32.8545" height="25.885" rx="6" ry="6"/>
    <rect class="fil7" transform="matrix(0.259589 0.00389022 -0.00389022 0.259589 57.5609 103.524)" width="32.8545" height="25.885" rx="6" ry="6"/>
    <rect class="fil8" transform="matrix(0.259589 0.00389022 -0.00389022 0.259589 17.8006 111.201)" width="32.8545" height="25.885" rx="6" ry="6"/>
    <rect class="fil8" transform="matrix(0.259589 0.00389022 -0.00389022 0.259589 27.4923 111.346)" width="32.8545" height="25.885" rx="6" ry="6"/>
    <rect class="fil8" transform="matrix(0.259589 0.00389022 -0.00389022 0.259589 37.1839 111.491)" width="32.8545" height="25.885" rx="6" ry="6"/>
    <rect class="fil7" transform="matrix(0.259589 0.00389022 -0.00389022 0.259589 46.8756 111.636)" width="32.8545" height="25.885" rx="6" ry="6"/>
    <rect class="fil7" transform="matrix(0.259589 0.00389022 -0.00389022 0.259589 57.4369 111.795)" width="32.8545" height="25.885" rx="6" ry="6"/>
    <rect class="fil8" transform="matrix(0.259589 0.00389022 -0.00389022 0.259589 17.6767 119.471)" width="32.8545" height="25.885" rx="6" ry="6"/>
    <rect class="fil8" transform="matrix(0.259589 0.00389022 -0.00389022 0.259589 27.3683 119.616)" width="32.8545" height="25.885" rx="6" ry="6"/>
    <rect class="fil8" transform="matrix(0.259589 0.00389022 -0.00389022 0.259589 37.06 119.761)" width="32.8545" height="25.885" rx="6" ry="6"/>
    <path class="fil8" d="M48 120l6 0c1,0 1,1 1,2l0 12c0,1 -1,2 -1,2l-6 -1c-1,0 -1,0 -1,-1l0 -13c0,0 0,-1 1,-1z"/>
    <rect class="fil7" transform="matrix(0.259589 0.00389022 -0.00389022 0.259589 57.313 120.065)" width="32.8545" height="25.885" rx="6" ry="6"/>
    <rect class="fil8" transform="matrix(0.259589 0.00389022 -0.00389022 0.259589 17.5441 128.315)" width="32.8545" height="25.885" rx="6" ry="6"/>
    <rect class="fil8" transform="matrix(0.259589 0.00389022 -0.00389022 0.259589 27.2358 128.46)" width="32.8545" height="25.885" rx="6" ry="6"/>
    <rect class="fil8" transform="matrix(0.259589 0.00389022 -0.00389022 0.259589 36.9275 128.605)" width="32.8545" height="25.885" rx="6" ry="6"/>
    <rect class="fil7" transform="matrix(0.259589 0.00389022 -0.00389022 0.259589 57.1804 128.909)" width="32.8545" height="25.885" rx="6" ry="6"/>
    <polygon class="fil9" points="23,125 22,125 22,121 21,122 21,121 23,121 23,121 "/>
    <path class="fil9" d="M23 132c0,1 0,1 0,1 0,1 0,1 -1,1 0,0 -1,0 -1,-1 0,0 0,0 0,-1l0 -1c0,0 0,-1 0,-1 0,0 1,0 1,0 1,0 1,0 1,0 0,0 0,1 0,1l0 1zm0 -1c0,0 0,0 0,-1 0,0 -1,0 -1,0 0,0 0,0 0,0 -1,1 -1,1 -1,1l0 1c0,1 0,1 1,1 0,0 0,0 0,0 0,0 1,0 1,0 0,0 0,0 0,-1l0 -1z"/>
    <path class="fil9" d="M33 125l-3 0 0 0 2 -2c0,0 0,0 0,0 0,-1 0,-1 0,-1 0,0 0,0 0,0 0,-1 0,-1 0,-1 -1,0 -1,0 -1,1 0,0 0,0 0,0l-1 0c0,0 0,0 1,-1 0,0 0,0 1,0 0,0 0,0 0,0 1,0 1,1 1,1 0,0 0,1 -1,2l-1 1 2 0 0 0z"/>
    <path class="fil9" d="M41 123l0 0c0,0 1,0 1,0 0,0 0,-1 0,-1 0,0 0,0 -1,0 0,0 0,0 0,0 0,0 -1,0 -1,0l0 0c0,0 0,0 0,-1 1,0 1,0 1,0 1,0 1,0 1,0 0,1 0,1 0,1 0,0 0,1 0,1 0,0 0,0 0,0 0,0 0,0 0,1 0,0 0,0 0,0 0,1 0,1 0,1 0,0 0,0 -1,0 0,0 -1,0 -1,0 0,0 0,0 0,-1l0 0c0,0 0,1 1,1 0,0 0,0 0,0 0,0 1,0 1,0 0,0 0,-1 0,-1 0,0 0,0 0,0 0,-1 -1,-1 -1,-1l0 0 0 0z"/>
    <path class="fil9" d="M23 115l1 0 0 1 -1 0 0 1 0 0 0 -1 -2 0 0 -1 2 -2 0 0 0 2zm-2 0l2 0 0 -2 0 0 -2 2z"/>
    <path class="fil9" d="M31 115l0 -2 2 0 0 0 -2 0 0 1c0,0 1,0 1,0 0,0 1,0 1,1 0,0 0,0 0,1 0,0 0,0 0,1 -1,0 -1,0 -1,0 -1,0 -1,0 -1,0 0,-1 0,-1 -1,-1l1 0c0,0 0,0 0,0 0,0 1,0 1,0 0,0 0,0 0,0 0,0 1,0 1,0 0,-1 -1,-1 -1,-1 0,0 0,0 0,0 -1,0 -1,0 -1,0l0 0 0 0z"/>
    <path class="fil9" d="M42 113l0 0 0 0c0,0 -1,0 -1,1 0,0 0,0 0,1 0,-1 0,-1 1,-1 0,0 0,0 0,1 1,0 1,0 1,1 0,0 0,0 -1,1 0,0 0,0 -1,0 0,0 0,0 -1,0 0,-1 0,-1 0,-2l0 0c0,-1 0,-1 1,-2 0,0 0,0 1,0l0 0zm-1 2c0,0 0,0 0,0 0,0 0,0 0,0l0 0c0,1 0,1 0,1 0,1 0,1 0,1 1,0 1,0 1,-1 0,0 0,0 0,0 0,-1 0,-1 0,-1 0,0 0,0 -1,0z"/>
    <polygon class="fil9" points="24,105 22,108 22,108 23,105 21,105 21,104 24,104 "/>
    <path class="fil9" d="M33 106c0,0 0,0 0,0 0,0 0,0 -1,0 1,1 1,1 1,1 0,0 0,0 0,0 0,1 0,1 0,1 -1,1 -1,1 -1,1 -1,0 -1,0 -1,-1 0,0 -1,0 -1,-1 0,0 1,0 1,0 0,0 0,0 0,-1 0,0 0,0 0,0 0,0 0,0 0,0 0,-1 0,-1 0,-1 0,0 0,-1 1,-1 0,0 0,1 1,1 0,0 0,0 0,1zm0 1c0,0 -1,0 -1,0 0,0 0,0 0,0 0,0 -1,0 -1,0 0,0 0,0 0,0 0,1 0,1 0,1 0,0 1,0 1,0 0,0 0,0 0,0 0,0 1,0 1,-1zm-1 -2c0,0 -1,0 -1,0 0,0 0,0 0,1 0,0 0,0 0,0 0,0 1,0 1,0 0,0 0,0 0,0 0,0 0,0 0,0 0,-1 0,-1 0,-1 0,0 0,0 0,0z"/>
    <path class="fil9" d="M42 107c0,0 0,0 0,0 0,0 -1,0 -1,0 0,0 0,0 0,0 0,0 -1,0 -1,0 0,-1 0,-1 0,-1 0,0 0,-1 0,-1 0,0 1,0 1,0 0,0 0,0 0,0 1,0 1,0 1,0 1,0 1,1 1,1l0 0c0,1 0,2 -1,2 0,1 -1,1 -1,1l0 0 0 -1 0 0c0,0 1,0 1,0 0,0 0,-1 0,-1zm-1 0c1,0 1,0 1,0 0,0 0,0 0,-1l0 0c0,0 0,0 0,-1 0,0 0,0 -1,0 0,0 0,0 0,0 0,0 0,1 0,1 0,0 0,0 0,1 0,0 0,0 0,0z"/>
    <path class="fil9" d="M31 132c0,0 0,0 0,0 0,0 0,0 0,0 1,0 1,0 1,0 0,0 0,0 0,0 0,0 0,0 0,0 0,0 0,0 -1,0 0,0 0,0 0,0 0,0 0,0 0,0z"/>
    <path class="fil9" d="M42 132l-2 0 0 -1 2 0 0 1zm0 1l-2 0 0 -1 2 0 0 1z"/>
    <polygon class="fil9" points="51,127 52,127 52,128 51,128 51,129 51,129 51,128 50,128 50,127 51,127 51,126 51,126 "/>
    <rect class="fil10" transform="matrix(0.259589 0.00389022 -0.00389022 0.259589 16.8386 71.8938)" width="47.7884" height="8.96032"/>
   </g>
   <g>
    <path class="fil11" d="M217 114c0,0 1,-7 1,-13 0,-6 0,-73 0,-73l0 -4 -4 0 1 44 -1 30 1 15 -1 2c0,0 3,0 3,-1z"/>
    <path class="fil12" d="M212 25c0,0 -1,8 -1,13 0,6 0,73 0,73l0 4 4 0 0 -44 0 -30 0 -15 0 -2c0,0 -3,1 -3,1z"/>
    <path class="fil13" d="M214 129c0,0 1,-1 1,-3 0,-1 -2,0 -2,0l1 3z"/>
    <path class="fil14" d="M217 114l-2 12 -2 0 -2 -11c0,0 6,-1 6,-1z"/>
    <path class="fil14" d="M213 25l4 -1c1,0 1,0 1,0l0 0c0,-1 0,-1 -1,-1l-5 1c0,0 0,0 0,0l0 0c0,1 0,1 1,1z"/>
    <path class="fil14" d="M218 23c0,0 0,-2 0,-2 -1,0 -1,-2 -3,-1 -2,0 -2,0 -3,1 0,1 0,3 0,3 0,0 5,0 6,-1z"/>
    <rect class="fil14" transform="matrix(-0.390556 0.00328252 -0.00328252 -0.390556 215.907 53.6157)" width="6.96953" height="60.7315" rx="3" ry="3"/>
    <path class="fil14" d="M211 68l8 -1c0,0 0,0 0,-1l0 0c0,0 0,-1 -1,-1l-7 1c-1,0 -1,0 -1,1l0 0c0,0 0,1 1,1z"/>
    <path class="fil14" d="M211 66l8 -1c0,0 0,0 0,-1l0 0c0,0 0,-1 -1,-1l-7 1c-1,0 -1,0 -1,1l0 0c0,0 0,1 1,1z"/>
   </g>
   <rect class="fil15" width="225" height="157"/>
  </g>
 </g>
</svg>
