<?xml version="1.0" encoding="UTF-8"?>
<!DOCTYPE svg PUBLIC "-//W3C//DTD SVG 1.1//EN" "http://www.w3.org/Graphics/SVG/1.1/DTD/svg11.dtd">
<!-- Creator: CorelDRAW X7 -->
<svg xmlns="http://www.w3.org/2000/svg" xml:space="preserve" width="226px" height="158px" version="1.1" style="shape-rendering:geometricPrecision; text-rendering:geometricPrecision; image-rendering:optimizeQuality; fill-rule:evenodd; clip-rule:evenodd"
viewBox="0 0 225 157"
 xmlns:xlink="http://www.w3.org/1999/xlink">
 <defs>
  <style type="text/css">
   <![CDATA[
    .str5 {stroke:#00AFEF;stroke-width:3.98158}
    .str4 {stroke:#00AFEF;stroke-width:3.98158}
    .str2 {stroke:#00AFEF;stroke-width:3.98158}
    .str3 {stroke:#00AFEF;stroke-width:3.98158}
    .str0 {stroke:#0098DA;stroke-width:2.18011}
    .str1 {stroke:#0098DA;stroke-width:2.18011}
    .fil19 {fill:none}
    .fil1 {fill:#FEFEFE}
    .fil12 {fill:#A9ABAE}
    .fil3 {fill:#96989A}
    .fil13 {fill:#FFCC29}
    .fil6 {fill:#5CC6D0}
    .fil8 {fill:black}
    .fil11 {fill:black}
    .fil4 {fill:#2887D2}
    .fil0 {fill:#2887D2}
    .fil10 {fill:#484848}
    .fil7 {fill:#FEFEFE;fill-rule:nonzero}
    .fil14 {fill:#00A859;fill-rule:nonzero}
    .fil2 {fill:#0098DA;fill-rule:nonzero}
    .fil9 {fill:url(#id0)}
    .fil17 {fill:url(#id1)}
    .fil5 {fill:url(#id2)}
    .fil15 {fill:url(#id3)}
    .fil16 {fill:url(#id4)}
    .fil18 {fill:url(#id5)}
   ]]>
  </style>
  <linearGradient id="id0" gradientUnits="userSpaceOnUse" x1="114.57" y1="86.9092" x2="175.125" y2="86.9092">
   <stop offset="0" style="stop-opacity:1; stop-color:#91D8F7"/>
   <stop offset="1" style="stop-opacity:1; stop-color:#25A6D9"/>
  </linearGradient>
  <linearGradient id="id1" gradientUnits="userSpaceOnUse" xlink:href="#id0" x1="114.57" y1="27.0421" x2="149.733" y2="27.0421">
  </linearGradient>
  <linearGradient id="id2" gradientUnits="userSpaceOnUse" x1="57.1497" y1="75.2244" x2="29.9771" y2="98.8128">
   <stop offset="0" style="stop-opacity:1; stop-color:#91D8F7"/>
   <stop offset="0.701961" style="stop-opacity:1; stop-color:#77CFE4"/>
   <stop offset="1" style="stop-opacity:1; stop-color:#5CC6D0"/>
  </linearGradient>
  <linearGradient id="id3" gradientUnits="userSpaceOnUse" xlink:href="#id0" x1="22.9335" y1="27.0668" x2="67.0766" y2="27.0668">
  </linearGradient>
  <linearGradient id="id4" gradientUnits="userSpaceOnUse" xlink:href="#id0" x1="22.9335" y1="55.6963" x2="67.0766" y2="55.6963">
  </linearGradient>
  <linearGradient id="id5" gradientUnits="userSpaceOnUse" xlink:href="#id0" x1="114.57" y1="58.0539" x2="158.713" y2="58.0539">
  </linearGradient>
 </defs>
 <g id="Layer_x0020_1">
  <metadata id="CorelCorpID_0Corel-Layer"/>
  <g id="_639413056">
   <g>
    <path class="fil0" d="M195 22c0,1 1,111 0,117 -1,7 -30,-8 -50,-8 -20,0 -45,7 -45,7 0,0 -25,-7 -45,-7 -21,0 -49,16 -50,6 -2,-9 -1,-114 0,-115 2,-1 22,-10 54,-8 32,1 40,4 40,4 0,0 29,-7 50,-6 21,1 45,9 46,10z"/>
    <g>
     <path class="fil1" d="M10 17l-1 119c0,0 27,-10 47,-9 21,1 44,7 44,7l-1 -117c0,0 -32,-8 -50,-6 -18,1 -39,6 -39,6z"/>
     <path id="1" class="fil2" d="M8 136l1 -119 2 0 0 119 -1 1 -2 -1zm2 1l-2 1 0 -2 2 1zm46 -11l0 2 0 0 -2 0 -1 0 -2 0 -2 0 -2 1 -2 0 -2 0 -2 0 -2 1 -2 0 -2 0 -2 1 -2 0 -2 1 -2 0 -2 0 -1 1 -2 0 -1 1 -2 0 -1 1 -1 0 -2 0 -1 1 -1 0 -1 0 0 0 -1 1 -1 0 0 0 0 0 0 0 -1 -2 0 0 0 0 1 0 0 0 1 -1 1 0 1 0 1 0 1 -1 1 0 1 -1 2 0 1 0 2 -1 1 0 2 -1 2 0 2 -1 1 0 2 0 2 -1 2 0 2 0 2 -1 2 0 2 0 2 -1 2 0 2 0 2 0 2 0 2 0 0 0zm42 8l3 0 -2 1 0 0 0 0 0 0 -1 0 0 -1 -1 0 -1 0 -1 0 -1 0 -1 -1 -1 0 -1 0 -1 0 -2 -1 -1 0 -2 0 -1 0 -2 -1 -1 0 -2 0 -2 -1 -2 0 -1 0 -2 0 -2 -1 -2 0 -2 0 -2 0 -2 0 -2 -1 -2 0 -2 0 0 -2 2 0 2 0 2 0 2 1 2 0 2 0 2 0 2 0 2 1 2 0 2 0 1 0 2 1 2 0 1 0 2 1 1 0 2 0 1 1 2 0 1 0 1 0 1 1 1 0 1 0 1 0 0 0 1 0 0 1 1 0 0 0 0 0 -2 1zm3 -117l0 117 -3 0 0 -117 2 -1 1 1zm-1 -1l1 0 0 1 -1 -1zm-51 -4l0 -2 0 0 1 -1 2 0 2 0 2 0 2 1 2 0 2 0 2 0 3 0 2 0 2 1 2 0 2 0 2 1 2 0 2 0 2 0 2 1 2 0 1 0 2 1 2 0 1 0 1 1 2 0 1 0 1 0 0 0 1 1 0 0 1 0 0 0 -1 2 0 0 0 0 -1 0 0 0 -1 -1 -1 0 -1 0 -1 0 -1 -1 -2 0 -1 0 -2 0 -2 -1 -1 0 -2 0 -2 -1 -2 0 -2 0 -2 -1 -2 0 -2 0 -3 0 -2 -1 -2 0 -2 0 -2 0 -2 0 -2 0 -2 0 -2 0 -1 0 -2 0 0 0zm-38 5l-2 0 0 -1 0 0 1 0 0 0 0 0 1 0 0 -1 1 0 1 0 1 0 1 0 1 -1 1 0 1 0 1 0 2 0 1 -1 2 0 1 0 2 -1 1 0 2 0 1 0 2 -1 2 0 2 0 1 0 2 -1 2 0 1 0 2 0 2 0 2 0 0 2 -2 0 -2 0 -1 0 -2 0 -2 1 -1 0 -2 0 -2 0 -2 1 -1 0 -2 0 -1 0 -2 1 -2 0 -1 0 -1 0 -2 1 -1 0 -1 0 -2 0 -1 1 -1 0 -1 0 -1 0 0 0 -1 1 -1 0 0 0 -1 0 0 0 0 0 0 0 1 -1zm-2 0l0 -1 0 0 0 1z"/>
    </g>
    <g>
     <path class="fil1" d="M189 17l1 119c0,0 -27,-10 -47,-9 -21,1 -43,7 -43,7l-1 -117c0,0 33,-8 51,-6 18,1 39,6 39,6z"/>
     <path id="1" class="fil2" d="M191 136l-2 1 0 -1 -1 -119 2 0 1 119zm0 0l0 2 -2 -1 2 -1zm-48 -10l0 0 2 0 2 0 2 0 2 0 2 0 2 1 2 0 2 0 2 1 2 0 2 0 2 1 2 0 2 0 1 1 2 0 2 1 1 0 2 1 2 0 1 0 1 1 1 0 2 1 1 0 0 0 1 0 1 1 0 0 1 0 0 0 0 0 -1 2 0 0 0 0 0 0 -1 0 0 -1 -1 0 -1 0 -1 0 -1 -1 -1 0 -2 0 -1 -1 -2 0 -1 -1 -2 0 -1 -1 -2 0 -2 0 -2 -1 -2 0 -2 -1 -2 0 -1 0 -2 -1 -2 0 -2 0 -2 0 -2 -1 -2 0 -2 0 -2 0 -2 0 0 0 0 -2zm-42 8l-2 -1 0 0 1 0 0 0 0 -1 1 0 1 0 0 0 1 0 1 0 1 -1 1 0 2 0 1 0 1 -1 2 0 1 0 2 -1 1 0 2 0 2 -1 2 0 1 0 2 0 2 -1 2 0 2 0 2 0 2 0 2 -1 2 0 2 0 2 0 0 2 -2 0 -2 0 -2 1 -2 0 -2 0 -2 0 -2 0 -2 1 -1 0 -2 0 -2 0 -2 1 -2 0 -1 0 -2 1 -1 0 -2 0 -1 0 -2 1 -1 0 -1 0 -1 0 -1 1 -1 0 -1 0 -1 0 -1 0 0 1 -1 0 0 0 0 0 0 0 -2 -1 3 0zm-3 -117l1 -1 2 1 0 117 -3 0 0 -117zm0 0l0 -1 1 0 -1 1zm52 -5l0 0 -2 0 -1 0 -2 0 -2 0 -2 0 -2 0 -2 0 -2 0 -2 0 -2 1 -3 0 -2 0 -2 0 -2 1 -2 0 -2 0 -2 1 -2 0 -1 0 -2 1 -2 0 -1 0 -2 0 -1 1 -1 0 -1 0 -1 0 -1 1 0 0 -1 0 0 0 0 0 -1 -2 0 0 1 0 0 0 1 -1 0 0 1 0 1 0 2 0 1 -1 1 0 2 0 2 -1 1 0 2 0 2 -1 2 0 2 0 2 0 2 -1 2 0 2 0 2 -1 2 0 3 0 2 0 2 0 2 0 2 -1 2 0 2 0 2 0 1 1 0 0 0 2zm38 5l1 1 0 0 0 0 0 0 -1 0 0 0 -1 0 -1 -1 0 0 -1 0 -1 0 -1 0 -1 -1 -2 0 -1 0 -1 0 -2 -1 -1 0 -2 0 -1 0 -2 -1 -1 0 -2 0 -1 0 -2 -1 -2 0 -2 0 -1 0 -2 -1 -2 0 -1 0 -2 0 -2 0 0 -2 2 0 2 0 2 0 1 0 2 0 2 1 1 0 2 0 2 0 2 1 1 0 2 0 1 0 2 1 1 0 2 0 1 1 2 0 1 0 1 0 1 0 1 1 1 0 1 0 1 0 1 0 0 1 1 0 0 0 0 0 1 0 0 0 0 1 -2 0zm2 -1l0 0 0 1 0 -1z"/>
    </g>
    <path class="fil1 str0" d="M15 11l-1 121c0,0 25,-8 45,-7 19,1 40,7 40,7l0 -121c0,0 -30,-9 -47,-7 -18,1 -37,7 -37,7z"/>
    <path class="fil1 str1" d="M184 11l1 121c0,0 -25,-8 -45,-7 -19,1 -41,7 -41,7l0 -121c0,0 31,-9 48,-7 18,1 37,7 37,7z"/>
    <g id="_639773264">
     <rect class="fil3" transform="matrix(0.264959 -0.0841479 0.0841479 0.264959 9.72765 81.0856)" width="221" height="281" rx="17" ry="17"/>
     <rect class="fil1" transform="matrix(0.25282 -0.0802928 0.0802928 0.25282 11.6102 82.3635)" width="221" height="281" rx="17" ry="17"/>
     <path class="fil4" d="M17 82l46 -14c2,-1 4,0 5,3l6 18 -54 17 -5 -18c-1,-3 0,-5 2,-6z"/>
     <polygon class="fil5" points="17,90 67,74 70,84 20,100 "/>
     <rect class="fil6" transform="matrix(0.257458 -0.0817658 0.0817658 0.257458 24.9478 110.144)" width="31.8585" height="14.9339" rx="5" ry="5"/>
     <rect class="fil6" transform="matrix(0.257458 -0.0817658 0.0817658 0.257458 34.688 107.05)" width="31.8585" height="14.9339" rx="5" ry="5"/>
     <rect class="fil6" transform="matrix(0.257458 -0.0817658 0.0817658 0.257458 44.4282 103.957)" width="31.8585" height="14.9339" rx="5" ry="5"/>
     <rect class="fil6" transform="matrix(0.257458 -0.0817658 0.0817658 0.257458 54.1684 100.864)" width="31.8585" height="14.9339" rx="5" ry="5"/>
     <rect class="fil6" transform="matrix(0.257458 -0.0817658 0.0817658 0.257458 64.5153 97.5775)" width="31.8585" height="14.9339" rx="5" ry="5"/>
     <rect class="fil0" transform="matrix(0.257458 -0.0817658 0.0817658 0.257458 26.9015 116.295)" width="32.8545" height="25.885" rx="6" ry="6"/>
     <rect class="fil0" transform="matrix(0.257458 -0.0817658 0.0817658 0.257458 36.5137 113.243)" width="32.8545" height="25.885" rx="6" ry="6"/>
     <rect class="fil0" transform="matrix(0.257458 -0.0817658 0.0817658 0.257458 46.1258 110.19)" width="32.8545" height="25.885" rx="6" ry="6"/>
     <rect class="fil6" transform="matrix(0.257458 -0.0817658 0.0817658 0.257458 55.7379 107.137)" width="32.8545" height="25.885" rx="6" ry="6"/>
     <rect class="fil6" transform="matrix(0.257458 -0.0817658 0.0817658 0.257458 66.2126 103.811)" width="32.8545" height="25.885" rx="6" ry="6"/>
     <rect class="fil0" transform="matrix(0.257458 -0.0817658 0.0817658 0.257458 29.5065 124.498)" width="32.8545" height="25.885" rx="6" ry="6"/>
     <rect class="fil0" transform="matrix(0.257458 -0.0817658 0.0817658 0.257458 39.1186 121.445)" width="32.8545" height="25.885" rx="6" ry="6"/>
     <rect class="fil0" transform="matrix(0.257458 -0.0817658 0.0817658 0.257458 48.7307 118.392)" width="32.8545" height="25.885" rx="6" ry="6"/>
     <rect class="fil6" transform="matrix(0.257458 -0.0817658 0.0817658 0.257458 58.3429 115.34)" width="32.8545" height="25.885" rx="6" ry="6"/>
     <rect class="fil6" transform="matrix(0.257458 -0.0817658 0.0817658 0.257458 68.8175 112.013)" width="32.8545" height="25.885" rx="6" ry="6"/>
     <rect class="fil0" transform="matrix(0.257458 -0.0817658 0.0817658 0.257458 32.1114 132.7)" width="32.8545" height="25.885" rx="6" ry="6"/>
     <rect class="fil0" transform="matrix(0.257458 -0.0817658 0.0817658 0.257458 41.7235 129.647)" width="32.8545" height="25.885" rx="6" ry="6"/>
     <rect class="fil0" transform="matrix(0.257458 -0.0817658 0.0817658 0.257458 51.3357 126.594)" width="32.8545" height="25.885" rx="6" ry="6"/>
     <path class="fil0" d="M62 123l6 -2c1,0 2,1 2,1l4 13c0,1 0,1 -1,2l-6 1c-1,1 -1,0 -2,-1l-4 -12c0,-1 1,-2 1,-2z"/>
     <rect class="fil6" transform="matrix(0.257458 -0.0817658 0.0817658 0.257458 71.4224 120.215)" width="32.8545" height="25.885" rx="6" ry="6"/>
     <rect class="fil0" transform="matrix(0.257458 -0.0817658 0.0817658 0.257458 34.8971 141.471)" width="32.8545" height="25.885" rx="6" ry="6"/>
     <rect class="fil0" transform="matrix(0.257458 -0.0817658 0.0817658 0.257458 44.5092 138.419)" width="32.8545" height="25.885" rx="6" ry="6"/>
     <rect class="fil0" transform="matrix(0.257458 -0.0817658 0.0817658 0.257458 54.1214 135.366)" width="32.8545" height="25.885" rx="6" ry="6"/>
     <rect class="fil6" transform="matrix(0.257458 -0.0817658 0.0817658 0.257458 74.2081 128.987)" width="32.8545" height="25.885" rx="6" ry="6"/>
     <polygon class="fil7" points="39,136 38,137 37,133 36,134 36,133 37,132 38,132 "/>
     <path class="fil7" d="M42 143c0,1 0,1 0,2 0,0 0,0 -1,0 0,1 -1,1 -1,0 0,0 0,0 -1,-1l0 -1c0,0 0,-1 0,-1 0,0 0,-1 1,-1 0,0 1,0 1,0 0,1 1,1 1,2l0 0zm-1 0c0,-1 0,-1 0,-1 0,0 -1,0 -1,0 0,0 0,0 0,0 -1,0 0,1 0,1l0 1c0,0 0,1 0,1 1,0 1,0 1,0 0,0 0,0 1,0 0,-1 0,-1 -1,-1l0 -1z"/>
     <path class="fil7" d="M49 133l-3 1 0 0 1 -2c0,-1 0,-1 0,-1 0,0 0,0 0,0 0,-1 0,-1 0,-1 0,0 0,0 -1,0 0,0 0,0 0,0 0,1 0,1 0,1l-1 0c0,0 0,0 0,-1 1,0 1,0 1,0 1,-1 1,-1 1,0 1,0 1,0 1,0 0,1 0,1 0,2l-1 1 2 0 0 0z"/>
     <path class="fil7" d="M56 129l0 -1c1,0 1,0 1,0 0,0 0,0 0,-1 0,0 0,0 -1,0 0,0 0,0 0,0 -1,1 -1,1 0,1l-1 0c0,0 0,-1 0,-1 0,0 1,0 1,0 0,-1 1,-1 1,0 0,0 0,0 1,0 0,1 0,1 -1,1 0,0 0,0 0,0 0,0 1,0 1,1 0,0 0,0 0,0 0,1 0,1 0,1 0,0 0,1 -1,1 0,0 -1,0 -1,0 0,0 0,-1 0,-1l0 0c0,0 0,0 0,0 1,0 1,0 1,0 0,0 1,0 1,0 0,0 0,0 0,-1 0,0 -1,0 -1,0 0,0 0,0 0,0l-1 0 0 0z"/>
     <path class="fil7" d="M36 127l1 0 0 0 -1 0 1 1 -1 0 0 -1 -2 1 0 0 1 -4 0 0 1 3zm-2 0l2 0 -1 -2 0 0 -1 2z"/>
     <path class="fil7" d="M43 124l0 -2 2 -1 0 1 -1 0 0 1c0,0 0,0 0,0 1,0 1,0 1,0 1,0 1,0 1,1 0,0 0,1 0,1 0,0 0,0 -1,1 0,0 -1,0 -1,0 0,-1 0,-1 0,-1l0 0c0,0 0,0 0,0 1,0 1,0 1,0 0,0 0,0 1,0 0,-1 0,-1 -1,-1 0,0 0,-1 0,-1 0,0 0,0 -1,0 0,0 0,0 0,1l0 0 -1 0z"/>
     <path class="fil7" d="M54 118l0 1 0 0c0,0 0,0 -1,0 0,1 0,1 0,1 0,0 1,0 1,0 0,0 1,0 1,0 0,0 0,0 1,1 0,0 0,1 0,1 -1,0 -1,0 -1,0 -1,1 -1,1 -1,0 -1,0 -1,0 -1,-1l0 0c0,-1 0,-1 0,-2 0,0 0,-1 1,-1l0 0zm0 2c0,0 0,0 0,1 -1,0 -1,0 -1,0l0 0c1,1 1,1 1,1 0,0 0,0 1,0 0,0 0,0 0,0 0,-1 0,-1 0,-1 0,0 0,-1 0,-1 -1,0 -1,0 -1,0z"/>
     <polygon class="fil7" points="33,116 33,120 32,120 33,116 31,117 31,117 33,116 "/>
     <path class="fil7" d="M43 114c0,0 0,0 0,1 0,0 0,0 -1,0 1,0 1,0 1,0 0,0 0,1 0,1 0,0 0,0 0,1 0,0 0,0 -1,0 0,0 0,0 -1,0 0,0 0,0 0,0 0,-1 0,-1 0,-1 0,0 0,0 0,-1 0,0 0,0 0,0 -1,0 -1,0 -1,0 0,-1 0,-1 0,-1 1,-1 1,-1 1,-1 1,0 1,0 1,0 0,0 1,1 1,1zm0 2c0,0 0,0 -1,-1 0,0 0,0 0,0 0,1 -1,1 -1,1 0,0 0,0 0,0 0,1 1,1 1,1 0,0 0,0 0,0 1,0 1,0 1,0 0,-1 0,-1 0,-1zm-2 -2c0,0 0,0 0,0 0,0 0,0 0,1 0,0 0,0 0,0 0,0 1,0 1,0 0,0 0,0 0,0 0,-1 0,-1 0,-1 0,0 0,0 0,0 0,0 -1,0 -1,0z"/>
     <path class="fil7" d="M52 112c0,0 0,1 0,1 0,0 0,0 -1,0 0,0 0,0 0,0 0,0 -1,0 -1,0 0,-1 0,-1 0,-1 0,0 0,-1 0,-1 0,0 0,0 0,0 0,-1 0,-1 1,-1 0,0 0,0 1,0 0,1 0,1 1,1l0 1c0,0 0,1 0,1 -1,1 -1,1 -2,1l0 0 0 0 0 0c1,0 1,0 1,-1 0,0 0,0 0,-1zm-1 0c1,0 1,0 1,0 0,0 0,0 0,0l0 -1c0,0 0,0 -1,0 0,0 0,0 0,0 0,0 -1,0 -1,0 0,0 0,0 0,1 0,0 1,0 1,0 0,1 0,1 0,0z"/>
     <path class="fil7" d="M49 141c0,-1 0,-1 0,-1 1,0 1,0 1,0 0,0 0,0 0,0 0,0 0,0 0,0 0,0 0,0 0,1 0,0 0,0 0,0 0,0 0,0 0,0 0,0 0,0 -1,0z"/>
     <path class="fil7" d="M60 137l-2 0 0 0 2 -1 0 1zm1 1l-2 1 -1 -1 3 -1 0 1z"/>
     <polygon class="fil7" points="68,130 69,129 69,130 68,130 68,131 68,131 67,130 66,131 66,130 67,130 67,129 67,128 "/>
     <rect class="fil8" transform="matrix(0.257458 -0.0817658 0.0817658 0.257458 15.595 86.025)" width="47.7884" height="8.96032"/>
    </g>
    <path class="fil9" d="M115 85c9,-3 24,-5 31,-5 7,0 22,5 29,5l0 8c-7,0 -20,-3 -27,-4 -1,0 -2,0 -2,0 -7,0 -23,3 -31,4l0 -8z"/>
    <g id="_638632864">
     <path class="fil10" d="M167 93c0,0 5,-6 9,-11 3,-5 42,-62 42,-62l2 -4 -3 -2 -25 38 -18 26 -9 13 -1 1c0,0 3,2 3,1z"/>
     <path class="fil11" d="M215 14c0,0 -5,6 -9,10 -4,5 -43,63 -43,63l-2 4 3 2 26 -38 18 -26 8 -13 2 -1c0,0 -3,-2 -3,-1z"/>
     <path class="fil12" d="M156 104c0,0 1,-1 2,-2 1,-1 -2,-1 -2,-1l0 3z"/>
     <path class="fil13" d="M167 93l-9 9 -2 -1 5 -10c0,0 6,2 6,2z"/>
     <path class="fil13" d="M215 14l5 2c0,0 0,0 1,0l0 0c0,0 0,-1 -1,-1l-4 -2c0,-1 -1,0 -1,0l0 0c0,0 0,1 0,1z"/>
     <path class="fil13" d="M221 16c0,0 1,-2 1,-3 0,0 0,-2 -2,-2 -2,-1 -2,-1 -3,-1 0,1 -2,3 -2,3 0,0 5,3 6,3z"/>
     <rect class="fil13" transform="matrix(-0.336799 -0.227409 0.227409 -0.336799 201.331 40.4493)" width="6.96953" height="60.7315" rx="3" ry="3"/>
     <path class="fil13" d="M189 50l7 4c0,0 1,0 1,-1l0 0c0,0 0,-1 0,-1l-7 -4c-1,0 -2,0 -2,0l0 0c0,1 0,1 1,2z"/>
     <path class="fil13" d="M190 48l7 4c0,0 1,0 1,-1l0 0c0,0 0,-1 0,-1l-7 -4c-1,0 -1,0 -2,0l0 0c0,1 0,1 1,2z"/>
    </g>
    <path class="fil14" d="M80 32c0,-1 -1,-1 -1,-2 0,0 -1,0 -2,-1 -1,0 -1,0 -2,-1 -1,0 -1,0 -2,-1 0,0 0,-1 -1,-1 0,-1 0,-1 0,-2 0,-1 1,-3 1,-3 1,-1 2,-2 4,-2l0 -1 0 -1 0 0 0 0c0,0 0,0 0,0l1 0c0,0 1,0 1,0l0 0 0 0 0 1 0 1c1,0 2,1 3,2 1,1 1,2 1,3l0 0 0 0c0,1 0,1 -1,1l-1 0c-1,0 -1,0 -1,-1l0 0 0 0 0 0 0 0 0 0c0,-1 -1,-1 -1,-1 0,-1 -1,-1 -1,-1 -1,0 -2,0 -2,0 0,1 -1,1 -1,2 0,0 1,1 1,1 0,1 1,1 2,1 1,1 2,1 2,2 1,0 1,0 2,1 0,0 1,1 1,1 0,1 0,1 0,2 0,1 0,2 -1,3 -1,1 -2,2 -4,2l0 1c0,0 0,0 0,0l0 0c0,1 0,1 0,1l-1 0c0,0 -1,0 -1,-1l0 0c0,0 0,0 1,0l0 -1c-2,0 -3,-1 -4,-2 -1,-1 -2,-2 -2,-3l0 0c1,-1 1,-1 2,-1l1 0c0,0 1,0 1,1l0 0 0 0 0 0 0 0 0 0 0 0c0,1 0,1 1,1 0,1 1,1 1,1 1,0 2,0 2,-1 0,0 1,0 1,-1z"/>
    <path class="fil14" d="M80 63c0,0 -1,-1 -1,-1 0,-1 -1,-1 -2,-1 -1,-1 -1,-1 -2,-1 -1,-1 -1,-1 -2,-1 0,-1 0,-1 -1,-2 0,0 0,-1 0,-2 0,-1 1,-2 1,-3 1,-1 2,-2 4,-2l0 -1 0 -1 0 0 0 0c0,0 0,0 0,0l1 0c0,0 1,0 1,0l0 0 0 0 0 1 0 1c1,1 2,1 3,2 1,1 1,2 1,3l0 0 0 0c0,1 0,2 -1,2l-1 0c-1,0 -1,-1 -1,-1l0 0 0 -1 0 0 0 0 0 0c0,0 -1,-1 -1,-1 0,-1 -1,-1 -1,-1 -1,0 -2,0 -2,1 0,0 -1,0 -1,1 0,1 1,1 1,2 0,0 1,0 2,1 1,0 2,0 2,1 1,0 1,0 2,1 0,0 1,1 1,1 0,1 0,1 0,2 0,1 0,3 -1,3 -1,1 -2,2 -4,2l0 1c0,0 0,0 0,0l0 1c0,0 0,0 0,0l-1 0c0,0 -1,0 -1,0l0 -1c0,0 0,0 1,0l0 -1c-2,0 -3,-1 -4,-2 -1,-1 -2,-2 -2,-3l0 0c1,-1 1,-1 2,-1l1 0c0,0 1,0 1,1l0 0 0 0 0 0 0 0 0 0 0 0c0,1 0,1 1,1 0,1 1,1 1,1 1,0 2,0 2,0 0,-1 1,-1 1,-2z"/>
    <path class="fil15" d="M23 24c9,-3 14,-3 22,-3 7,0 15,3 22,3l0 9c-7,-1 -14,-3 -20,-3 -1,0 -2,0 -2,0 -8,0 -14,1 -22,3l0 -9z"/>
    <path class="fil16" d="M23 53c9,-3 14,-3 22,-3 7,0 15,3 22,3l0 9c-7,-1 -14,-3 -20,-4 -1,0 -2,0 -2,0 -8,0 -14,2 -22,4l0 -9z"/>
    <path class="fil14" d="M169 40c0,-1 0,-1 0,-2 -1,-1 -2,-1 -3,-2 -2,0 -3,-1 -4,-1 -1,-1 -1,-1 -2,-2 -1,0 -1,-1 -2,-2 0,-1 0,-2 0,-3 0,-2 0,-4 2,-5 1,-1 3,-2 5,-2l0 -2 0 -1 0 -1 0 0c0,0 0,0 1,0l1 0c0,0 1,0 1,0l0 0 0 1 0 1 0 2c2,0 4,1 5,2 1,2 2,3 2,5l0 0 0 0c0,1 -1,2 -2,2l-2 0c-1,0 -2,-1 -2,-1l0 0 0 -1 0 0 0 0 0 0c0,-1 0,-2 0,-2 -1,-1 -2,-1 -3,-1 -1,0 -2,0 -2,1 -1,0 -1,1 -1,2 0,1 0,2 1,2 0,1 1,1 3,2 1,0 2,1 3,1 1,1 2,2 3,2 0,1 1,2 1,2 1,1 1,2 1,3 0,2 -1,4 -2,5 -2,2 -3,2 -6,3l0 1c0,0 0,0 0,0l0 1c0,1 0,1 0,1l-2 0c0,0 0,0 0,-1l0 -1c0,0 0,0 0,0l0 -1c-3,-1 -5,-1 -6,-3 -2,-1 -2,-3 -2,-5l0 0c0,-1 1,-2 1,-2l2 0c1,0 2,1 2,2l0 0 0 0 0 0 0 0 0 0 0 0c0,1 0,2 1,2 1,1 2,2 3,2 1,0 2,-1 2,-1 1,-1 1,-2 1,-3z"/>
    <path class="fil17" d="M115 24c9,-3 10,-3 18,-3 7,0 9,2 17,2l0 9c-7,-1 -9,-2 -15,-2 -1,0 -2,0 -2,0 -8,0 -10,1 -18,3l0 -9z"/>
    <path class="fil18" d="M115 55c9,-3 14,-3 21,-3 8,0 15,3 23,3l0 9c-7,-1 -14,-3 -21,-3 0,0 -1,0 -2,0 -7,0 -13,1 -21,3l0 -9z"/>
   </g>
   <rect class="fil19" width="225" height="157"/>
  </g>
  <g>
   <path class="fil19 str2" d="M95 34c0,-3 2,-5 4,-5 3,0 5,2 5,5"/>
   <path class="fil19 str3" d="M95 59c0,-2 2,-4 4,-4 3,0 5,2 5,4"/>
   <path class="fil19 str4" d="M95 85c0,-3 2,-5 4,-5 3,0 5,2 5,5"/>
   <path class="fil19 str5" d="M95 110c0,-2 2,-4 4,-4 3,0 5,2 5,4"/>
  </g>
 </g>
</svg>
