<?xml version="1.0" encoding="UTF-8"?>
<!DOCTYPE svg PUBLIC "-//W3C//DTD SVG 1.1//EN" "http://www.w3.org/Graphics/SVG/1.1/DTD/svg11.dtd">
<!-- Creator: CorelDRAW X7 -->
<svg xmlns="http://www.w3.org/2000/svg" xml:space="preserve" width="304px" height="204px" version="1.1" style="shape-rendering:geometricPrecision; text-rendering:geometricPrecision; image-rendering:optimizeQuality; fill-rule:evenodd; clip-rule:evenodd"
viewBox="0 0 256 172"
 xmlns:xlink="http://www.w3.org/1999/xlink">
 <defs>
  <style type="text/css">
   <![CDATA[
    .str4 {stroke:#FEFEFE;stroke-width:0.841444}
    .str3 {stroke:#A9ABAE;stroke-width:0.757896}
    .str0 {stroke:#373435;stroke-width:0.757896}
    .str1 {stroke:#DB9570;stroke-width:0.757896}
    .str2 {stroke:#EDA57F;stroke-width:0.757896}
    .fil14 {fill:none}
    .fil0 {fill:#FEFEFE}
    .fil7 {fill:#727376}
    .fil10 {fill:#373435}
    .fil8 {fill:#FFF212}
    .fil6 {fill:#FFCC29}
    .fil5 {fill:#F58634}
    .fil4 {fill:#2D2E2E}
    .fil3 {fill:black}
    .fil9 {fill:#484848}
    .fil2 {fill:#EDA57F}
    .fil1 {fill:#F9C9A9}
    .fil13 {fill:#606062;fill-rule:nonzero}
    .fil12 {fill:#373435;fill-rule:nonzero}
    .fil11 {fill:#9C9E9E;fill-rule:nonzero}
   ]]>
  </style>
 </defs>
 <g id="Layer_x0020_1">
  <metadata id="CorelCorpID_0Corel-Layer"/>
  <g id="_681187288">
   <g>
    <g>
     <g>
      <path class="fil0 str0" d="M97 56l-5 23 6 2 4 -23c0,0 -5,-2 -5,-2z"/>
      <path class="fil1 str1" d="M91 82l-5 18c0,0 -1,2 0,4 0,2 1,3 1,4 0,1 1,2 1,3 1,0 2,0 2,-2 0,-2 -1,-3 0,-5 0,-3 4,-8 4,-10 1,-3 2,-6 2,-8 1,-1 1,-3 1,-3l-6 -1z"/>
      <path class="fil0 str0" d="M91 78l-1 4c0,0 -1,1 3,2 4,0 5,0 5,0 0,0 1,-4 1,-4 0,-1 -5,-2 -5,-2l-3 0z"/>
     </g>
     <g>
      <polygon class="fil2" points="99,48 101,50 107,47 105,44 "/>
      <path class="fil1 str2" d="M90 49c0,0 4,2 8,0 3,-1 9,-5 9,-8 1,-2 0,-3 0,-4 0,-1 2,-3 0,-5 -2,-2 -5,-6 -8,-9 -2,-2 -4,-3 -6,-2 -2,1 -9,5 -10,8 -2,3 -2,4 -2,6 1,2 3,7 4,8 0,1 2,2 3,3 1,2 2,3 2,3z"/>
      <path class="fil3 str0" d="M88 46c0,0 -4,2 -7,-8 -4,-10 2,-18 7,-20 2,-1 4,-1 7,-1 3,0 5,1 6,3 2,3 5,5 6,8 1,3 1,8 1,9 0,3 0,1 -1,-1 0,0 1,-2 0,-3 -1,-1 -1,-2 -2,-2 -1,1 -5,1 -8,-3 -2,-3 -4,-5 -4,-5 0,0 -4,6 -7,9 -2,2 -4,2 -4,3 1,2 3,9 6,11z"/>
      <path class="fil3" d="M108 40c-1,0 3,6 3,6 0,0 6,7 7,10 1,2 1,4 1,4 0,0 0,-3 0,-7 -1,-4 2,5 2,5 0,0 0,-4 -1,-6 -1,-2 2,6 2,6 0,0 1,-9 -1,-12 -1,-2 -9,-11 -10,-15 -2,-5 -5,-10 -8,-11 -2,-2 -5,-3 -8,-3 -3,0 4,6 4,6 0,0 7,6 8,8 1,2 0,7 1,9z"/>
      <path class="fil0 str0" d="M82 22c0,0 2,-5 6,-7 3,-1 6,-1 9,0 3,2 5,4 5,4 0,0 -6,-2 -9,-2 -3,0 -7,2 -11,5z"/>
     </g>
     <path class="fil1 str1" d="M106 121c0,0 3,27 3,28 0,1 1,10 1,10l7 0 1 0 -5 -38 -7 0z"/>
     <path class="fil1 str1" d="M126 122c0,0 0,4 1,6 1,3 6,12 6,12l8 16 8 0 -12 -24c0,0 -3,-5 -4,-6 0,-2 0,-3 0,-3l-7 -1z"/>
     <path class="fil0 str3" d="M100 51l1 4 8 -6 -1 -2c0,0 0,-1 -2,0 -2,1 -5,3 -6,4z"/>
     <path class="fil0 str0" d="M101 120c0,0 -1,2 0,2 1,0 37,2 37,2 0,0 1,0 2,-1 0,-1 0,-2 0,-2l-38 -1c0,0 -1,0 -1,0z"/>
     <path class="fil3" d="M131 72c-4,-3 -6,-10 -6,-10l-4 -10c0,0 -5,-8 -6,-7 -1,0 -15,9 -16,10 -2,1 -3,4 -2,6 1,1 2,2 2,3 1,1 0,6 3,7 3,1 5,0 5,0l6 7 4 4c3,-3 8,-7 14,-10z"/>
     <path class="fil3" d="M102 120l38 1c0,0 2,-16 1,-25 -1,-9 -6,-17 -9,-22 -1,0 -1,-1 -1,-2 -7,1 -13,2 -17,3l0 0c0,0 -10,8 -11,23 -1,6 -1,10 -1,14 0,5 0,8 0,8z"/>
     <path class="fil0" d="M117 111c5,-2 8,-4 9,-11 1,-7 -2,-23 -1,-24 1,-2 -10,-3 -13,1 -3,3 -9,11 -10,25 -1,15 -1,14 0,14l15 -5z"/>
     <g>
      <path class="fil4" d="M99 97c0,0 5,-7 12,-11 8,-3 20,-7 30,-3 11,3 20,12 22,16 5,8 4,12 7,21 3,7 5,13 14,17 9,5 10,5 13,5 2,0 2,0 2,0l0 3c0,0 -2,2 -10,-1 -29,-11 -19,-28 -30,-44 -5,-7 -12,-12 -21,-14 -9,-2 -18,0 -26,4 -8,5 -10,10 -10,10l-3 -3z"/>
      <polygon class="fil5" points="198,140 198,147 203,147 203,140 "/>
      <path class="fil6" d="M203 135l40 0 0 18c0,0 -40,-1 -40,0 0,1 0,-18 0,-18z"/>
      <rect class="fil7" x="200" y="152" width="45.1655" height="13.727" rx="3" ry="3"/>
      <path class="fil7" d="M203 122c0,0 1,-10 11,-12 9,-2 16,-2 20,0 3,2 7,4 8,8 1,4 1,4 1,4 0,0 2,1 3,1 0,1 0,10 0,10 0,0 0,2 -2,2 -2,0 -38,0 -38,0 0,0 -4,0 -5,-3 -1,-2 0,-9 0,-9 0,0 0,-1 2,-1z"/>
      <circle class="fil8" cx="205" cy="129" r="2"/>
      <circle class="fil8" cx="212" cy="129" r="2"/>
      <rect class="fil8" x="218" y="126" width="24.0539" height="1.77137"/>
      <rect class="fil8" x="218" y="129" width="24.0539" height="1.77137"/>
      <circle class="fil3" cx="204" cy="165" r="5"/>
      <circle class="fil3" cx="242" cy="163" r="8"/>
      <ellipse class="fil8" cx="223" cy="112" rx="10" ry="2"/>
      <circle class="fil9" cx="242" cy="163" r="5"/>
      <g>
       <path class="fil10" d="M15 149l23 11c0,0 2,1 2,0 0,-1 -1,-1 0,-2 0,-1 1,-2 1,-2 -1,-1 -1,-1 -1,-2 1,0 2,-1 2,-1l-2 -3c0,0 -4,3 -4,3 -1,0 -3,-1 -5,-2 -2,-1 -7,-3 -8,-3 -1,0 -1,0 -2,0 -2,-1 -3,0 -4,0 -1,0 -2,-1 -2,1z"/>
       <path class="fil5" d="M22 149l8 4c0,0 1,-1 1,-2 1,0 1,0 0,-1 -1,0 -9,-3 -9,-1z"/>
       <path class="fil5" d="M43 145l-3 3c0,0 -2,0 0,3 2,2 3,3 3,3 1,-1 4,-3 4,-3 1,-1 0,-1 -1,-3 -1,-2 -3,-3 -3,-3z"/>
       <polygon class="fil10" points="43,146 46,150 98,102 95,100 "/>
       <path class="fil5" d="M98 95c0,0 -3,3 -4,3 0,1 3,5 4,5 0,0 4,-2 4,-3 0,0 -1,-2 -2,-4 -1,-1 -2,-1 -2,-1z"/>
      </g>
     </g>
     <g>
      <path class="fil0 str0" d="M119 54l13 3c0,0 2,1 3,1 1,-1 7,-1 7,-1 0,0 2,-4 -3,-5 -5,-1 -22,-5 -22,-5 0,0 -2,-1 -2,0 0,0 4,7 4,7z"/>
      <path class="fil0 str0" d="M134 56l1 5 7 0c0,0 1,-1 1,-2 0,0 1,-3 0,-3 -1,-1 -3,0 -3,0l-6 0z"/>
      <path class="fil1 str1" d="M132 77l3 -12 0 -4 7 -1c0,0 -3,13 -3,14 0,2 -1,2 0,3 0,1 2,4 2,6 0,1 -3,2 -5,2 -1,1 -3,2 -4,1 -2,-1 -3,-4 -3,-6 0,-1 1,-2 3,-3z"/>
     </g>
     <path class="fil3 str0" d="M98 164c0,0 1,-4 3,-4 1,0 3,1 4,0 1,0 4,-1 7,-1 2,0 6,0 7,0 0,1 0,5 0,5l-21 0z"/>
     <path class="fil0 str0" d="M97 165c0,0 0,0 1,1 0,0 21,0 21,0 0,0 0,-1 1,-1 0,0 0,-1 -1,-1 -1,0 -21,0 -21,0 0,0 -1,0 -1,1z"/>
     <path class="fil3 str0" d="M131 164c0,0 -2,-2 1,-3 2,-1 8,-4 8,-4 0,0 0,-1 3,-1 4,0 6,-1 6,-1 0,0 1,1 2,1 0,1 0,4 0,4 0,0 -5,1 -7,2 -3,0 -13,3 -13,2z"/>
     <path class="fil0 str0" d="M130 165c0,0 0,1 1,0 2,0 12,-2 12,-2 0,0 7,-1 8,-2 1,0 1,0 1,0 0,-1 -5,0 -5,0 -1,0 -16,3 -16,3 0,0 -1,0 -1,1z"/>
     <path class="fil1 str1" d="M92 105c0,0 2,-1 3,-1 0,0 2,2 2,2 0,0 0,2 -1,2 -1,1 -4,2 -4,2 0,0 -1,0 -1,-1 -1,-1 -1,-1 -1,-2 0,-1 2,-2 2,-2z"/>
     <circle class="fil0" transform="matrix(0.267491 -0.125221 0.125221 0.267491 106.34 54.6346)" r="3"/>
     <circle class="fil0" transform="matrix(0.267491 -0.125221 0.125221 0.267491 108.329 57.6005)" r="3"/>
     <circle class="fil0" transform="matrix(0.267491 -0.125221 0.125221 0.267491 110.178 60.0971)" r="3"/>
    </g>
    <g>
     <path class="fil11" d="M9 158c0,0 0,0 1,0 -1,-2 0,-4 2,-6 1,0 4,-1 5,0l2 0c0,1 1,1 1,2 0,0 0,0 0,0 1,-1 1,-1 1,-1 2,-1 5,-1 7,1 0,1 1,2 0,3 1,0 1,1 1,1 1,1 1,3 -1,4 0,0 0,0 -1,0 0,1 0,2 -1,2 -2,1 -4,1 -6,0 -1,1 -2,1 -3,0l-2 1 0 0c-2,1 -5,1 -7,-1 -2,-2 -1,-5 1,-6z"/>
     <path class="fil12" d="M9 158c0,0 0,0 0,0 0,-2 0,-4 3,-6 1,-1 3,-1 5,0 0,0 1,0 0,0 0,0 0,0 0,0 -2,-1 -4,0 -5,1 -2,1 -3,3 -2,5 0,0 0,0 0,0 0,0 -1,0 -1,0 -2,1 -3,4 -1,6 2,2 5,2 7,1 0,0 0,0 0,0l2 -1c0,0 0,0 0,0 1,0 2,0 3,0 0,0 0,0 0,0 2,1 4,1 5,0 1,0 2,-1 2,-2 0,0 0,0 0,0 1,0 1,0 1,0 2,-1 2,-3 1,-4 0,0 -1,0 -1,-1 0,0 0,0 0,0 0,-1 0,-2 -1,-3 -1,-1 -4,-2 -6,-1 0,0 0,1 -1,1 0,0 0,0 0,0 0,0 0,0 0,0l0 0c0,0 0,0 0,0 0,-1 -1,-1 -1,-2 0,0 0,0 0,0 0,0 0,0 0,0 0,1 1,1 1,1 1,0 1,0 1,0 2,-1 5,-1 7,1 1,1 1,2 0,3 1,0 1,1 1,1 1,1 1,3 -1,4 0,0 0,0 -1,0 0,1 0,2 -1,2 -2,1 -4,1 -6,0 -1,1 -2,1 -3,0l-1 1c0,0 0,0 0,0 -3,1 -6,1 -8,-1 -2,-2 -1,-5 1,-6z"/>
     <path class="fil13" d="M9 158c0,0 1,0 1,0 0,0 0,0 0,0 -1,-2 0,-4 2,-5 0,-1 0,-1 1,-1 -2,1 -2,3 -2,5 0,0 0,0 0,0 0,0 0,0 0,0 -2,2 -3,4 -1,6 1,2 4,2 7,1 0,0 0,0 0,0l-2 1c0,0 0,0 0,0 -2,1 -5,1 -7,-1 -2,-2 -1,-5 1,-6z"/>
     <path class="fil13" d="M13 170c1,0 1,0 2,0 0,0 0,0 0,-1 -1,0 -1,0 -1,0 -1,0 -1,1 -1,1z"/>
     <path class="fil13" d="M14 169c0,0 1,0 1,0 0,1 0,1 0,1 -1,1 -1,0 -2,0 0,0 0,-1 1,-1zm0 1c1,0 1,0 1,-1 -1,0 -1,0 -1,0 -1,0 -1,1 0,1 0,0 0,0 0,0z"/>
     <path class="fil13" d="M2 158c1,0 1,0 1,0 1,0 1,-1 1,-1 -1,0 -1,0 -2,0 0,0 0,1 0,1z"/>
     <path class="fil13" d="M2 157c1,0 1,0 2,0 0,0 0,1 0,1 -1,0 -2,0 -2,0 0,0 0,-1 0,-1zm1 1c1,0 1,-1 1,-1 -1,0 -1,0 -1,0 -1,0 -1,0 -1,1 1,0 1,0 1,0z"/>
     <path class="fil13" d="M20 151c1,0 1,0 1,0 1,0 1,-1 1,-1 -1,0 -1,0 -2,0 0,0 0,1 0,1z"/>
     <path class="fil13" d="M20 150c1,0 1,0 2,0 0,0 0,1 0,1 -1,0 -2,0 -2,0 0,0 0,-1 0,-1zm1 1c1,0 1,-1 0,-1 0,0 0,0 0,0 -1,0 -1,1 -1,1 1,0 1,0 1,0z"/>
     <path class="fil13" d="M31 160c0,0 1,1 1,0 1,0 1,0 1,-1 -1,0 -1,0 -2,0 0,0 0,1 0,1z"/>
     <path class="fil13" d="M31 159c1,0 1,0 2,0 0,1 0,1 -1,1 0,1 -1,1 -1,0 0,0 0,-1 0,-1zm1 1c1,0 1,0 0,-1 0,0 0,0 -1,0 0,1 0,1 0,1 0,0 1,0 1,0z"/>
     <path class="fil13" d="M17 167c0,0 1,0 1,0 0,0 1,-1 0,-1 0,0 -1,0 -1,0 0,0 0,1 0,1z"/>
     <path class="fil13" d="M17 166c0,0 1,0 1,0 1,0 1,1 0,1 0,0 -1,0 -1,0 -1,0 0,-1 0,-1zm1 1c0,0 0,-1 0,-1 0,0 0,0 -1,0 0,0 0,1 0,1 0,0 1,0 1,0z"/>
     <path class="fil13" d="M5 154c0,0 1,1 1,0 0,0 0,0 0,-1 0,0 -1,0 -1,0 0,0 -1,1 0,1z"/>
     <path class="fil13" d="M5 153c0,0 1,0 1,0 1,1 0,1 0,1 0,1 -1,1 -1,0 -1,0 -1,-1 0,-1zm1 1c0,0 0,0 0,-1 0,0 -1,0 -1,0 0,0 0,1 0,1 0,0 1,0 1,0z"/>
     <path class="fil13" d="M6 158c0,0 1,0 1,0 1,0 1,-1 0,-1 0,0 0,0 -1,0 0,0 0,1 0,1z"/>
     <path class="fil13" d="M6 157c1,0 1,0 2,0 0,0 0,1 -1,1 0,0 -1,0 -1,0 0,0 0,-1 0,-1zm1 1c0,0 1,-1 0,-1 0,0 0,0 -1,0 0,0 0,1 0,1 0,0 1,0 1,0z"/>
     <path class="fil13" d="M13 150c0,1 1,1 1,0 1,0 1,0 0,0 0,-1 0,-1 -1,-1 0,1 0,1 0,1z"/>
     <path class="fil13" d="M13 149c1,0 1,0 2,0 0,1 0,1 -1,2 0,0 -1,0 -1,-1 0,0 0,-1 0,-1zm1 1c1,0 1,0 0,0 0,-1 0,-1 -1,-1 0,1 0,1 0,1 0,0 1,0 1,0z"/>
    </g>
    <path class="fil14 str4" d="M14 155c0,0 1,0 1,0 1,0 2,0 1,-1 -1,-1 -3,0 -4,0 0,1 2,3 4,3 2,0 9,-2 9,-2"/>
    <path class="fil14 str4" d="M18 160c0,0 0,1 0,1 1,0 2,-1 1,-1 -1,-1 -2,-1 -3,0 0,1 1,2 3,2 2,0 8,-2 8,-2"/>
   </g>
   <rect class="fil14" width="256" height="172"/>
  </g>
 </g>
</svg>
