<?xml version="1.0" encoding="UTF-8"?>
<!DOCTYPE svg PUBLIC "-//W3C//DTD SVG 1.1//EN" "http://www.w3.org/Graphics/SVG/1.1/DTD/svg11.dtd">
<!-- Creator: CorelDRAW X7 -->
<svg xmlns="http://www.w3.org/2000/svg" xml:space="preserve" width="304px" height="204px" version="1.1" style="shape-rendering:geometricPrecision; text-rendering:geometricPrecision; image-rendering:optimizeQuality; fill-rule:evenodd; clip-rule:evenodd"
viewBox="0 0 256 172"
 xmlns:xlink="http://www.w3.org/1999/xlink">
 <defs>
  <style type="text/css">
   <![CDATA[
    .str3 {stroke:#A9ABAE;stroke-width:0.757896}
    .str1 {stroke:#373435;stroke-width:0.757896}
    .str2 {stroke:#DB9570;stroke-width:0.757896}
    .str0 {stroke:#EDA57F;stroke-width:0.757896}
    .fil11 {fill:none}
    .fil3 {fill:#FEFEFE}
    .fil8 {fill:#727376}
    .fil4 {fill:#373435}
    .fil9 {fill:#FFF212}
    .fil7 {fill:#FFCC29}
    .fil5 {fill:#F58634}
    .fil6 {fill:#2D2E2E}
    .fil2 {fill:black}
    .fil10 {fill:#484848}
    .fil0 {fill:#EDA57F}
    .fil1 {fill:#F9C9A9}
   ]]>
  </style>
 </defs>
 <g id="Layer_x0020_1">
  <metadata id="CorelCorpID_0Corel-Layer"/>
  <g id="_595411456">
   <g>
    <g>
     <polygon class="fil0" points="113,36 113,39 120,39 119,35 "/>
     <path class="fil1 str0" d="M104 33c0,0 3,4 6,4 4,0 11,-1 13,-3 1,-2 0,-3 1,-4 0,-1 3,-2 2,-4 -1,-3 -1,-8 -3,-12 -1,-3 -3,-4 -5,-5 -2,0 -10,2 -13,4 -2,2 -3,3 -3,5 -1,2 -1,7 -1,8 1,1 2,3 2,5 1,1 1,2 1,2z"/>
     <path class="fil2 str1" d="M103 31c0,0 -4,-1 -3,-11 1,-11 10,-16 15,-15 2,0 4,1 7,2 2,1 4,3 4,5 1,4 3,7 2,10 0,3 -2,8 -3,9 -2,2 -1,0 -1,-2 0,0 2,-2 2,-3 0,-1 0,-2 -2,-2 -1,0 -4,-2 -5,-6 -1,-4 -1,-7 -1,-7 0,0 -6,4 -10,5 -4,2 -5,1 -6,2 0,1 0,9 1,13z"/>
     <path class="fil2" d="M124 33c-1,0 0,7 0,7 0,0 3,8 2,12 0,3 -1,4 -1,4 0,0 2,-2 3,-6 1,-5 0,5 0,5 0,0 2,-4 2,-6 0,-2 -1,6 -1,6 0,0 5,-8 4,-11 0,-3 -3,-14 -3,-18 0,-5 0,-10 -2,-13 -1,-3 -4,-5 -6,-6 -3,-1 1,7 1,7 0,0 4,9 4,11 0,1 -3,6 -3,8z"/>
     <path class="fil3 str1" d="M108 6c0,0 4,-4 8,-4 3,0 6,1 8,4 2,3 3,6 3,6 0,0 -5,-5 -7,-6 -3,-1 -7,-1 -12,0z"/>
    </g>
    <path class="fil1 str2" d="M106 121c0,0 3,26 3,28 0,1 2,10 2,10l6 0 1 0 -5 -38 -7 0z"/>
    <path class="fil1 str2" d="M126 122c0,0 0,4 1,6 1,3 6,12 6,12l8 16 9 0 -13 -24c0,0 -3,-5 -4,-6 0,-2 0,-4 0,-4l-7 0z"/>
    <g>
     <path class="fil3 str1" d="M105 46l-5 23 6 1 4 -23c0,0 -5,-1 -5,-1z"/>
     <path class="fil1 str2" d="M99 72l-5 18c0,0 -1,2 0,3 0,2 1,4 1,4 0,1 0,3 1,3 1,1 2,0 2,-2 -1,-1 -2,-3 -1,-5 1,-2 4,-8 5,-10 1,-2 2,-6 2,-7 0,-2 0,-3 0,-3l-5 -1z"/>
     <path class="fil3 str1" d="M98 67l-1 5c0,0 0,0 4,1 3,1 4,1 4,1 0,0 2,-4 2,-5 0,0 -5,-1 -5,-1l-4 -1z"/>
    </g>
    <g>
     <path class="fil2 str1" d="M102 119l38 2c0,0 2,-16 1,-25 -1,-9 -6,-17 -9,-22 -3,-5 -3,-14 -3,-14l1 -11c0,0 -1,-8 -2,-9 -1,0 -17,3 -19,3 -2,0 -5,2 -4,4 0,2 1,3 1,5 0,1 -2,4 0,6 2,3 4,3 4,3l2 8 2 6c0,0 -10,8 -11,23 -1,6 -1,10 -1,13 0,6 0,8 0,8z"/>
     <path class="fil3 str3" d="M111 40l0 4 10 -2 0 -3c0,0 0,0 -2,0 -3,0 -6,0 -8,1z"/>
     <path class="fil3 str1" d="M101 120c0,0 -1,2 0,2 1,0 37,2 37,2 0,0 1,0 2,-1 0,-1 0,-2 0,-2l-38 -2c0,0 -1,0 -1,1z"/>
     <path class="fil3" d="M117 110c5,-2 9,-5 9,-11 1,-7 -1,-24 -1,-25 1,-1 -9,-2 -11,1 -3,3 -11,12 -12,26 -1,14 -1,14 0,14l15 -5z"/>
    </g>
    <g>
     <path class="fil4" d="M50 161l25 0c0,0 2,0 2,-1 0,0 -1,0 -1,-1 0,-1 0,-2 0,-2 0,-1 -1,-1 -1,-2 0,0 1,-2 1,-2l-3 -2c0,0 -2,4 -3,5 0,0 -3,0 -5,0 -2,0 -7,1 -8,1 -1,0 -2,0 -3,0 -1,1 -2,2 -3,2 -1,1 -2,0 -1,2z"/>
     <path class="fil5" d="M56 158l9 0c0,0 1,-1 1,-2 0,0 0,0 -1,0 -1,0 -10,0 -9,2z"/>
     <path class="fil5" d="M73 146l-1 4c0,0 -1,1 2,2 2,1 3,2 4,1 0,0 2,-3 2,-4 0,0 0,-1 -2,-2 -2,-1 -4,-2 -5,-1z"/>
     <polygon class="fil4" points="74,147 78,149 105,84 102,83 "/>
     <path class="fil5" d="M102 77c0,0 -1,4 -2,5 0,0 5,3 5,3 1,0 3,-4 3,-5 0,0 -2,-1 -3,-2 -2,-1 -3,-1 -3,-1z"/>
     <path class="fil6" d="M103 78c0,0 5,-7 13,-10 7,-4 19,-7 30,-4 10,4 19,12 21,16 3,4 5,10 6,18 0,7 -1,16 2,22 2,6 4,13 13,17 9,4 11,4 13,4 2,0 2,0 2,0l0 4c0,0 -2,1 -10,-2 -8,-3 -14,-7 -19,-15 -10,-16 0,-30 -11,-46 -5,-7 -12,-13 -21,-15 -9,-2 -17,0 -26,5 -8,4 -8,8 -8,8l-5 -2z"/>
     <polygon class="fil5" points="202,140 202,147 207,147 207,140 "/>
     <path class="fil7" d="M207 135l41 0 0 18c0,0 -41,-1 -41,0 0,1 0,-18 0,-18z"/>
     <rect class="fil8" x="205" y="152" width="45.1655" height="13.7269" rx="3" ry="3"/>
     <path class="fil8" d="M207 122c0,0 1,-10 11,-12 10,-3 16,-2 20,0 3,2 7,4 8,8 2,4 2,4 2,4 0,0 2,1 2,1 0,1 0,10 0,10 0,0 0,1 -2,2 -2,0 -38,-1 -38,0 0,0 -4,0 -5,-3 -1,-2 0,-9 0,-9 0,0 0,-1 2,-1z"/>
     <circle class="fil9" cx="210" cy="129" r="2"/>
     <circle class="fil9" cx="216" cy="129" r="2"/>
     <rect class="fil9" x="222" y="126" width="24.0539" height="1.77136"/>
     <rect class="fil9" x="222" y="129" width="24.0539" height="1.77136"/>
     <circle class="fil2" cx="208" cy="165" r="5"/>
     <circle class="fil2" cx="246" cy="163" r="8"/>
     <ellipse class="fil9" cx="227" cy="112" rx="10" ry="2"/>
     <circle class="fil10" cx="246" cy="163" r="5"/>
    </g>
    <g>
     <path class="fil3 str1" d="M129 49l12 6c0,0 1,2 3,2 1,0 7,1 7,1 0,0 3,-4 -2,-6 -4,-2 -20,-11 -20,-11 0,0 -1,-1 -2,0 0,0 2,8 2,8z"/>
     <path class="fil3 str1" d="M145 52l-3 4 5 4c0,0 1,1 2,0 0,0 2,-1 2,-2 0,-1 -2,-3 -2,-3l-4 -3z"/>
     <path class="fil1 str2" d="M128 64l11 -6 3 -2 5 4c0,0 -11,6 -12,7 -1,1 -2,1 -3,2 0,0 -1,4 -3,5 -1,0 -3,-1 -4,-2 -2,-1 -3,-1 -4,-3 0,-1 1,-4 2,-6 2,-1 3,0 5,1z"/>
    </g>
    <path class="fil2 str1" d="M98 164c0,0 1,-4 3,-4 1,0 3,1 4,0 1,0 5,-1 7,-1 2,0 7,0 7,0 0,1 0,5 0,5l-21 0z"/>
    <path class="fil3 str1" d="M97 165c0,0 0,0 1,0 0,1 21,0 21,0 0,0 0,0 1,0 0,0 0,-1 -1,-1 -1,0 -21,0 -21,0 0,0 -1,0 -1,1z"/>
    <path class="fil2 str1" d="M131 164c0,0 -2,-2 1,-3 2,-2 8,-4 8,-4 0,0 0,-1 4,-1 3,0 5,-1 5,-1 0,0 1,0 2,1 0,1 0,4 0,4 0,0 -5,1 -7,2 -3,0 -13,3 -13,2z"/>
    <path class="fil3 str1" d="M130 165c0,0 0,0 1,0 2,0 12,-2 12,-2 0,0 7,-1 8,-2 1,0 1,0 1,-1 0,0 -5,1 -5,1 -1,0 -16,3 -16,3 0,0 -1,0 -1,1z"/>
    <path class="fil1 str2" d="M99 93c0,0 2,-1 3,-1 1,0 2,2 2,2 0,0 0,2 -1,3 -1,0 -3,1 -3,1 0,0 -1,0 -2,-1 -1,-1 -1,-1 -1,-2 1,-1 2,-2 2,-2z"/>
    <circle class="fil3" cx="116" cy="46" r="1"/>
    <circle class="fil3" cx="117" cy="49" r="1"/>
    <circle class="fil3" cx="117" cy="52" r="1"/>
   </g>
   <rect class="fil11" width="256" height="172"/>
  </g>
 </g>
</svg>
