<?xml version="1.0" encoding="UTF-8"?>
<!DOCTYPE svg PUBLIC "-//W3C//DTD SVG 1.1//EN" "http://www.w3.org/Graphics/SVG/1.1/DTD/svg11.dtd">
<!-- Creator: CorelDRAW X7 -->
<svg xmlns="http://www.w3.org/2000/svg" xml:space="preserve" width="149px" height="55px" version="1.1" style="shape-rendering:geometricPrecision; text-rendering:geometricPrecision; image-rendering:optimizeQuality; fill-rule:evenodd; clip-rule:evenodd"
viewBox="0 0 149 55"
 xmlns:xlink="http://www.w3.org/1999/xlink">
 <defs>
  <style type="text/css">
   <![CDATA[
    .fil0 {fill:none}
    .fil3 {fill:url(#id0)}
    .fil2 {fill:url(#id1)}
    .fil6 {fill:url(#id2)}
    .fil1 {fill:url(#id3)}
    .fil5 {fill:url(#id4)}
    .fil7 {fill:url(#id5)}
    .fil8 {fill:url(#id6)}
    .fil4 {fill:url(#id7)}
   ]]>
  </style>
  <linearGradient id="id0" gradientUnits="userSpaceOnUse" x1="125.737" y1="27.1219" x2="139.957" y2="31.2972">
   <stop offset="0" style="stop-opacity:1; stop-color:#B4B4B4"/>
   <stop offset="0.360784" style="stop-opacity:1; stop-color:#CDCACA"/>
   <stop offset="1" style="stop-opacity:1; stop-color:#E6E1E1"/>
  </linearGradient>
  <linearGradient id="id1" gradientUnits="userSpaceOnUse" xlink:href="#id0" x1="126.435" y1="21.2542" x2="145.752" y2="26.9259">
  </linearGradient>
  <linearGradient id="id2" gradientUnits="userSpaceOnUse" x1="70.5492" y1="51.773" x2="42.1741" y2="22.8357">
   <stop offset="0" style="stop-opacity:1; stop-color:#BB1211"/>
   <stop offset="1" style="stop-opacity:1; stop-color:red"/>
  </linearGradient>
  <linearGradient id="id3" gradientUnits="userSpaceOnUse" xlink:href="#id2" x1="110.389" y1="45.8414" x2="72.289" y2="7.73985">
  </linearGradient>
  <linearGradient id="id4" gradientUnits="userSpaceOnUse" xlink:href="#id0" x1="124.762" y1="31.3964" x2="129.858" y2="43.7957">
  </linearGradient>
  <linearGradient id="id5" gradientUnits="userSpaceOnUse" xlink:href="#id2" x1="55.8644" y1="23.1109" x2="50.86" y2="18.1077">
  </linearGradient>
  <linearGradient id="id6" gradientUnits="userSpaceOnUse" xlink:href="#id2" x1="54.8793" y1="52.5419" x2="43.3115" y2="40.9717">
  </linearGradient>
  <linearGradient id="id7" gradientUnits="userSpaceOnUse" xlink:href="#id0" x1="121.504" y1="35.3708" x2="131.175" y2="53.0805">
  </linearGradient>
 </defs>
 <g id="Layer_x0020_1">
  <metadata id="CorelCorpID_0Corel-Layer"/>
  <rect class="fil0" width="149.001" height="55.001"/>
  <g id="_652602800">
   <path class="fil1" d="M72 31c3,2 5,5 6,10 -1,0 -1,-1 -1,-1 0,2 1,7 2,10 1,0 1,-1 2,-1l0 0 0 -1 1 0 -1 0c1,-9 -2,-17 -6,-19l-5 -3c-6,-3 -8,-8 -5,-14 3,-5 9,-6 13,-4l31 16 -2 3 4 2 -2 5 3 2 10 -18 -3 -2 -4 4 -3 -1 -1 2 -31 -16c-7,-4 -14,-1 -18,6 -4,8 -1,14 6,18l4 2z"/>
   <path class="fil2" d="M126 19c0,0 7,6 13,8 6,2 9,2 9,2 0,0 -2,0 -7,0 -5,0 -8,-3 -10,-4 -3,-2 -6,-5 -6,-6 -1,-1 1,0 1,0z"/>
   <path class="fil3" d="M125 25c0,0 2,4 5,6 4,2 8,3 10,3 1,0 1,0 1,0 0,0 -6,-1 -8,-3 -2,-1 -6,-4 -7,-5 -1,-1 -1,-2 -1,-2l0 1z"/>
   <path class="fil4" d="M119 36c0,0 7,5 11,10 4,5 5,7 5,7 0,0 0,0 -1,-4 -2,-4 -6,-8 -9,-10 -2,-2 -6,-4 -7,-4 -1,0 1,1 1,1z"/>
   <path class="fil5" d="M122 31c0,0 5,2 7,5 3,3 4,5 4,6 0,2 0,2 0,2 0,0 -1,-4 -3,-6 -2,-2 -5,-5 -7,-5 -1,-1 -2,-2 -2,-2l1 0z"/>
   <path class="fil6" d="M35 26c1,-2 3,-3 4,-5 21,1 35,10 42,28 -4,3 -8,5 -12,4l-11 0c2,-2 2,-4 2,-6 0,-6 -5,-11 -11,-11 -6,0 -11,5 -11,11 0,2 1,4 2,6l-3 0c-3,0 -4,-2 -5,-4 -1,-5 -1,-11 0,-18 1,-3 2,-5 3,-5z"/>
   <polygon class="fil7" points="49,21 50,18 58,21 56,23 "/>
   <path class="fil8" d="M49 38c5,0 8,4 8,9 0,4 -3,8 -8,8 -4,0 -8,-4 -8,-8 0,-5 4,-9 8,-9zm0 4c3,0 5,2 5,5 0,3 -2,5 -5,5 -3,0 -5,-2 -5,-5 0,-3 2,-5 5,-5z"/>
  </g>
 </g>
</svg>
