<?xml version="1.0" encoding="UTF-8"?>
<!DOCTYPE svg PUBLIC "-//W3C//DTD SVG 1.1//EN" "http://www.w3.org/Graphics/SVG/1.1/DTD/svg11.dtd">
<!-- Creator: CorelDRAW X7 -->
<svg xmlns="http://www.w3.org/2000/svg" xml:space="preserve" width="278px" height="175px" version="1.1" style="shape-rendering:geometricPrecision; text-rendering:geometricPrecision; image-rendering:optimizeQuality; fill-rule:evenodd; clip-rule:evenodd"
viewBox="0 0 316 199"
 xmlns:xlink="http://www.w3.org/1999/xlink">
 <defs>
  <style type="text/css">
   <![CDATA[
    .str2 {stroke:#373435;stroke-width:2.37379}
    .str0 {stroke:#96989A;stroke-width:0.113038}
    .str1 {stroke:#2887D2;stroke-width:2.53662}
    .fil197 {fill:none}
    .fil14 {fill:#FEFEFE}
    .fil1 {fill:#FEFEFE}
    .fil0 {fill:#D2D3D5}
    .fil8 {fill:#BDBFC1}
    .fil195 {fill:#A9ABAE}
    .fil191 {fill:#A9ABAE}
    .fil193 {fill:#96989A}
    .fil173 {fill:#96989A}
    .fil194 {fill:#727376}
    .fil187 {fill:#FFCC29}
    .fil192 {fill:#F58634}
    .fil15 {fill:#FCFCFD}
    .fil16 {fill:#FCFCFC}
    .fil17 {fill:#FBFCFC}
    .fil18 {fill:#FBFAFB}
    .fil19 {fill:#F9FAFB}
    .fil20 {fill:#F9F9FA}
    .fil21 {fill:#F8F8FA}
    .fil22 {fill:#F8F8F9}
    .fil23 {fill:#F8F7F8}
    .fil24 {fill:#F7F6F8}
    .fil25 {fill:#F5F5F7}
    .fil26 {fill:#F4F5F6}
    .fil27 {fill:#F4F4F6}
    .fil28 {fill:#F3F3F6}
    .fil29 {fill:#F3F2F5}
    .fil30 {fill:#F2F2F5}
    .fil31 {fill:#F2F1F4}
    .fil32 {fill:#F1F1F4}
    .fil33 {fill:#F0F0F3}
    .fil34 {fill:#EFEFF3}
    .fil35 {fill:#EFEEF2}
    .fil36 {fill:#EEEEF2}
    .fil37 {fill:#EEEDF1}
    .fil38 {fill:#EDEDF1}
    .fil39 {fill:#EDECF1}
    .fil40 {fill:#EDECF0}
    .fil41 {fill:#ECECF0}
    .fil42 {fill:#ECEBEF}
    .fil43 {fill:#EBEBEF}
    .fil44 {fill:#EBEAEF}
    .fil45 {fill:#EAEAEF}
    .fil46 {fill:#EAEAEE}
    .fil47 {fill:#E9E9ED}
    .fil48 {fill:#E8E8ED}
    .fil49 {fill:#E8E7ED}
    .fil50 {fill:#E7E7EC}
    .fil51 {fill:#E7E6EC}
    .fil52 {fill:#E6E6EC}
    .fil53 {fill:#E6E5EB}
    .fil54 {fill:#E5E5EB}
    .fil55 {fill:#E5E5EA}
    .fil56 {fill:#E4E4EA}
    .fil57 {fill:#E3E3EA}
    .fil58 {fill:#E3E3E9}
    .fil59 {fill:#E2E2E9}
    .fil60 {fill:#E2E2E8}
    .fil61 {fill:#E1E1E8}
    .fil62 {fill:#E1E1E8}
    .fil63 {fill:#E0E0E8}
    .fil64 {fill:#DFDFE6}
    .fil65 {fill:#DEDEE6}
    .fil66 {fill:#DDDEE6}
    .fil67 {fill:#DDDDE5}
    .fil68 {fill:#DDDDE5}
    .fil69 {fill:#DCDDE5}
    .fil70 {fill:#DCDCE4}
    .fil71 {fill:#DBDCE4}
    .fil72 {fill:#DBDBE4}
    .fil73 {fill:#DADBE4}
    .fil74 {fill:#DADBE3}
    .fil75 {fill:#D9D9E3}
    .fil76 {fill:#D9D9E2}
    .fil77 {fill:#D8D8E2}
    .fil78 {fill:#D8D8E1}
    .fil79 {fill:#D8D7E1}
    .fil80 {fill:#D7D7E1}
    .fil81 {fill:#D7D6E0}
    .fil82 {fill:#D6D6E0}
    .fil83 {fill:#D6D6E0}
    .fil84 {fill:#D5D5DF}
    .fil85 {fill:#D4D5DF}
    .fil86 {fill:#D4D4DF}
    .fil87 {fill:#D3D4DF}
    .fil88 {fill:#D3D3DE}
    .fil89 {fill:#D2D3DE}
    .fil90 {fill:#D2D2DD}
    .fil91 {fill:#D1D2DD}
    .fil92 {fill:#D1D1DC}
    .fil93 {fill:#D0D1DC}
    .fil94 {fill:#D0D0DC}
    .fil95 {fill:#CFD0DC}
    .fil96 {fill:#CECFDB}
    .fil97 {fill:#CECFDB}
    .fil98 {fill:#CECFDB}
    .fil99 {fill:#CECEDA}
    .fil100 {fill:#CDCEDA}
    .fil101 {fill:#CDCDDA}
    .fil102 {fill:#CCCDD9}
    .fil103 {fill:#CCCCD9}
    .fil104 {fill:#CBCCD9}
    .fil105 {fill:#CACBD8}
    .fil106 {fill:#CACBD8}
    .fil107 {fill:#C9CAD7}
    .fil108 {fill:#C9CAD7}
    .fil109 {fill:#C8C9D7}
    .fil110 {fill:#C8C9D7}
    .fil111 {fill:#C7C8D7}
    .fil112 {fill:#C7C8D6}
    .fil113 {fill:#C7C8D6}
    .fil114 {fill:#C6C7D6}
    .fil115 {fill:#C6C6D5}
    .fil116 {fill:#C5C5D4}
    .fil117 {fill:#C4C5D4}
    .fil118 {fill:#C4C4D4}
    .fil119 {fill:#C3C4D4}
    .fil120 {fill:#C3C4D2}
    .fil121 {fill:#C2C3D2}
    .fil122 {fill:#C2C3D2}
    .fil123 {fill:#C1C2D2}
    .fil124 {fill:#C0C1D2}
    .fil125 {fill:#C0C1D1}
    .fil126 {fill:#C0C1D1}
    .fil127 {fill:#C0C0D0}
    .fil128 {fill:#BFC0D0}
    .fil129 {fill:#BFC0D0}
    .fil130 {fill:#BEBFCF}
    .fil131 {fill:#BEBFCF}
    .fil132 {fill:#BDBECF}
    .fil133 {fill:#BCBDCF}
    .fil134 {fill:#BCBDCE}
    .fil135 {fill:#BBBDCE}
    .fil136 {fill:#BBBCCD}
    .fil137 {fill:#BABCCD}
    .fil138 {fill:#BABCCD}
    .fil139 {fill:#B9BBCD}
    .fil140 {fill:#BABBCC}
    .fil141 {fill:#BABBCC}
    .fil142 {fill:#B9BACC}
    .fil143 {fill:#B9BACC}
    .fil144 {fill:#B8B9CC}
    .fil145 {fill:#B8B9CA}
    .fil146 {fill:#B7B8CA}
    .fil147 {fill:#B6B8CA}
    .fil148 {fill:#B5B7CA}
    .fil149 {fill:#B5B7C9}
    .fil150 {fill:#B4B6C9}
    .fil151 {fill:#B4B6C9}
    .fil152 {fill:#B3B5C9}
    .fil153 {fill:#B4B5C8}
    .fil154 {fill:#B3B5C7}
    .fil155 {fill:#B2B4C7}
    .fil156 {fill:#B1B3C7}
    .fil157 {fill:#B1B3C7}
    .fil158 {fill:#B1B3C6}
    .fil159 {fill:#B0B3C6}
    .fil160 {fill:#B0B2C6}
    .fil161 {fill:#AFB2C6}
    .fil162 {fill:#AFB1C5}
    .fil163 {fill:#AFB1C5}
    .fil164 {fill:#AFB1C5}
    .fil165 {fill:#AEB0C4}
    .fil171 {fill:#5CC6D0}
    .fil172 {fill:#5CC6D0}
    .fil167 {fill:#51A8B1}
    .fil169 {fill:#00A859}
    .fil177 {fill:black}
    .fil13 {fill:black}
    .fil174 {fill:#2887D2}
    .fil176 {fill:#2887D2}
    .fil12 {fill:#947D5B}
    .fil166 {fill:#AEB0C4}
    .fil11 {fill:#BA9D72}
    .fil188 {fill:#EBB435}
    .fil168 {fill:#FEFEFE;fill-rule:nonzero}
    .fil9 {fill:#96989A;fill-rule:nonzero}
    .fil181 {fill:#FFF212;fill-rule:nonzero}
    .fil189 {fill:#FFF212;fill-rule:nonzero}
    .fil182 {fill:#FFF212;fill-rule:nonzero}
    .fil170 {fill:#FFF212;fill-rule:nonzero}
    .fil190 {fill:#E4684A;fill-rule:nonzero}
    .fil4 {fill:#07AD89;fill-rule:nonzero}
    .fil2 {fill:#1996B0;fill-rule:nonzero}
    .fil7 {fill:#38393B;fill-rule:nonzero}
    .fil179 {fill:#4E901E;fill-rule:nonzero}
    .fil10 {fill:#5B6975;fill-rule:nonzero}
    .fil6 {fill:#B1B4BA;fill-rule:nonzero}
    .fil5 {fill:#EB5244;fill-rule:nonzero}
    .fil3 {fill:#FCB030;fill-rule:nonzero}
    .fil196 {fill:#91D8F7;fill-opacity:0.349020}
    .fil175 {fill:url(#id1)}
    .fil183 {fill:url(#id2);fill-rule:nonzero}
    .fil185 {fill:url(#id3);fill-rule:nonzero}
    .fil178 {fill:url(#id4);fill-rule:nonzero}
    .fil186 {fill:url(#id5);fill-rule:nonzero}
    .fil180 {fill:url(#id6);fill-rule:nonzero}
    .fil184 {fill:url(#id7);fill-rule:nonzero}
   ]]>
  </style>
       <clipPath id="id0">
        <path d="M190 26c0,0 0,0 0,-1 1,-1 1,-9 1,-9 0,0 0,-2 0,-2 -1,0 -2,-1 -2,-3 -1,-1 0,-2 0,-3 1,0 3,-1 4,-2 2,0 3,1 4,2 1,1 2,2 1,3 0,1 -1,2 -2,3 0,1 1,9 1,9 0,0 1,1 1,2 0,0 1,2 0,2 0,0 -1,-1 -1,-2 -1,-1 -1,-4 -2,-5 0,-1 0,-4 0,-5 0,-1 0,-1 1,-2 0,-1 1,-2 1,-2 0,-1 0,-2 -1,-2 0,-1 -1,-1 -2,-1 -1,-1 -2,0 -3,0 -1,1 -1,2 -1,2 0,0 0,1 1,2 0,1 1,2 1,2 1,1 0,6 0,7 0,2 -1,4 -1,5 0,1 0,1 -1,1 0,0 0,0 0,-1z"/>
       </clipPath>
  <linearGradient id="id1" gradientUnits="userSpaceOnUse" x1="294.232" y1="25.381" x2="263.37" y2="35.5275">
   <stop offset="0" style="stop-opacity:1; stop-color:#91D8F7"/>
   <stop offset="0.701961" style="stop-opacity:1; stop-color:#77CFE4"/>
   <stop offset="1" style="stop-opacity:1; stop-color:#5CC6D0"/>
  </linearGradient>
  <linearGradient id="id2" gradientUnits="userSpaceOnUse" x1="295.705" y1="117.749" x2="269.236" y2="90.1139">
   <stop offset="0" style="stop-opacity:1; stop-color:#04870F"/>
   <stop offset="1" style="stop-opacity:1; stop-color:#03690C"/>
  </linearGradient>
  <linearGradient id="id3" gradientUnits="userSpaceOnUse" xlink:href="#id2" x1="293.244" y1="116.094" x2="266.774" y2="88.4587">
  </linearGradient>
  <linearGradient id="id4" gradientUnits="userSpaceOnUse" xlink:href="#id2" x1="297.724" y1="120.45" x2="271.254" y2="92.8147">
  </linearGradient>
  <linearGradient id="id5" gradientUnits="userSpaceOnUse" xlink:href="#id2" x1="269.293" y1="113.27" x2="257.605" y2="101.076">
  </linearGradient>
  <linearGradient id="id6" gradientUnits="userSpaceOnUse" xlink:href="#id2" x1="273.775" y1="117.628" x2="262.086" y2="105.431">
  </linearGradient>
  <linearGradient id="id7" gradientUnits="userSpaceOnUse" xlink:href="#id2" x1="271.755" y1="114.926" x2="260.066" y2="102.731">
  </linearGradient>
 </defs>
 <g id="Layer_x0020_1">
  <metadata id="CorelCorpID_0Corel-Layer"/>
  <g id="_811759624">
   <g>
    <g>
     <rect class="fil0" transform="matrix(0.0988615 -0.000253581 0.000253581 0.0988615 28.9795 16.2739)" width="1265" height="832"/>
     <g>
      <rect class="fil1 str0" transform="matrix(0.0988615 -0.000253581 0.000253581 0.0988615 32.1178 12.349)" width="1265" height="832"/>
      <path class="fil2" d="M74 22l0 28 23 -14c-5,-8 -13,-14 -23,-14z"/>
      <path class="fil3" d="M74 50l0 27c15,0 28,-12 27,-27 0,-5 -1,-10 -4,-14l-23 14z"/>
      <path class="fil4" d="M74 23c-16,0 -28,12 -28,27 0,11 6,20 15,25l13 -26 0 -26z"/>
      <path class="fil5" d="M74 49l-13 25c4,2 8,3 13,3l0 -28z"/>
      <path class="fil6" d="M74 21c-17,0 -30,13 -30,29 0,16 13,30 30,30 16,0 29,-14 29,-30 0,-16 -13,-29 -29,-29zm0 60c-17,0 -31,-14 -31,-31 0,-17 14,-31 30,-31 17,0 31,14 31,31 0,17 -13,31 -30,31z"/>
      <path class="fil7" d="M55 48l0 -1 1 0 0 0 -1 0 0 -3 0 0 -2 3 0 0 2 0 0 1 0 0zm-2 -1l0 0 1 -2c0,0 1,0 1,0l0 0c0,0 0,0 0,0l0 2 -2 0zm5 2c1,0 1,-1 1,-2 0,0 0,-1 -1,-1l0 0c1,0 1,-1 1,-1 0,-1 0,-1 -1,-1 -1,0 -2,0 -2,1 0,0 1,1 1,1l0 0c0,0 -1,1 -1,1 0,1 1,2 2,2zm0 -1c-1,0 -1,0 -1,-1 0,0 0,-1 1,-1 0,0 1,1 1,1 0,1 -1,1 -1,1zm0 -4c0,0 1,1 1,1 0,0 -1,1 -1,1 -1,0 -1,-1 -1,-1 0,0 0,-1 1,-1zm3 0c-1,0 -1,0 -1,1 0,1 0,2 1,2 0,0 1,-1 1,-2 0,-1 -1,-1 -1,-1zm0 0c0,0 0,1 0,1 0,1 0,1 0,1 -1,0 -1,0 -1,-1 0,0 0,-1 1,-1zm0 5l3 -5 -1 0 -2 5 0 0zm3 -3c-1,0 -1,0 -1,1 0,1 0,1 1,1 0,0 1,0 1,-1 0,-1 -1,-1 -1,-1zm0 0c0,0 0,1 0,1 0,1 0,1 0,1 -1,0 -1,0 -1,-1 0,0 0,-1 1,-1z"/>
      <path class="fil7" d="M79 58c0,1 0,1 1,1 1,0 1,-1 1,-2 0,0 0,-1 -1,-1l0 0c1,0 1,0 1,-1 0,0 0,-1 -1,-1 0,0 -1,0 -1,0l0 1c0,0 1,0 1,0 0,0 1,0 1,0 0,1 -1,1 -1,1l-1 0 0 0 1 0c0,0 1,1 1,1 0,1 0,1 -1,1 -1,0 -1,0 -1,0l0 0zm5 -4c-1,0 -2,1 -2,2 0,2 1,3 2,3 1,0 1,-1 1,-3 0,-1 0,-2 -1,-2zm0 1c0,0 1,0 1,1 0,1 -1,2 -1,2 -1,0 -1,0 -1,-2 0,-1 0,-1 1,-1zm3 -1c-1,0 -1,1 -1,1 0,1 0,2 1,2 0,0 1,-1 1,-2 0,0 -1,-1 -1,-1zm0 0c0,0 0,1 0,1 0,1 0,1 0,1 -1,0 -1,0 -1,-1 0,0 0,-1 1,-1zm0 5l3 -5 -1 0 -2 5 0 0zm3 -3c-1,0 -1,0 -1,1 0,1 0,2 1,2 0,0 1,-1 1,-2 0,-1 -1,-1 -1,-1zm0 0c0,0 0,1 0,1 0,1 0,1 0,1 -1,0 -1,0 -1,-1 0,0 0,-1 1,-1z"/>
      <path class="fil7" d="M76 36l1 0 0 -5 -1 0 -1 1 1 0 0 0 0 0 0 4zm5 -5l-2 0 0 3c0,-1 0,-1 0,-1 1,0 2,1 2,1 0,1 -1,1 -1,1 -1,0 -1,0 -1,0l0 1c0,0 0,0 1,0 1,0 1,-1 1,-2 0,0 0,-1 0,-1 -1,0 -1,0 -1,0 0,0 0,0 -1,0l1 -1 1 0 0 -1zm2 0c0,0 -1,1 -1,2 0,1 1,1 1,1 1,0 1,0 1,-1 0,-1 0,-2 -1,-2zm0 1c1,0 1,0 1,1 0,0 0,1 -1,1 0,0 0,-1 0,-1 0,-1 0,-1 0,-1zm0 4l3 -5 0 0 -3 5 0 0zm3 -3c-1,0 -1,1 -1,2 0,0 0,1 1,1 1,0 1,-1 1,-2 0,0 0,-1 -1,-1zm0 0c0,0 1,1 1,1 0,1 -1,2 -1,2 0,0 -1,-1 -1,-1 0,-1 1,-2 1,-2z"/>
      <path class="fil7" d="M66 70l-2 0 0 2c0,0 0,0 1,0 0,0 1,1 1,1 0,1 -1,1 -1,1 -1,0 -1,0 -1,0l0 0c0,1 0,1 1,1 1,0 1,-1 1,-2 0,0 0,-1 0,-1 0,0 -1,0 -1,0 0,0 0,0 -1,0l1 -1 1 0 0 -1zm2 0c0,0 -1,1 -1,2 0,0 1,1 1,1 1,0 1,-1 1,-2 0,0 0,-1 -1,-1zm0 0c1,0 1,1 1,1 0,1 0,1 -1,1 0,0 0,0 0,-1 0,0 0,-1 0,-1zm1 5l2 -5 0 0 -3 5 1 0zm2 -3c0,0 -1,0 -1,1 0,1 1,2 1,2 1,0 1,-1 1,-2 0,-1 0,-1 -1,-1zm0 0c1,0 1,1 1,1 0,1 0,1 -1,1 0,0 0,0 0,-1 0,0 0,-1 0,-1z"/>
      <rect class="fil8" transform="matrix(0.119704 -0.000307042 0.000253581 0.0988615 113.899 25.6559)" width="305.344" height="54.6887"/>
      <rect class="fil8" transform="matrix(0.119704 -0.000307042 0.000253581 0.0988615 113.933 38.6655)" width="305.344" height="54.6887"/>
      <rect class="fil8" transform="matrix(0.119704 -0.000307042 0.000253581 0.0988615 113.966 51.6752)" width="305.344" height="54.6887"/>
      <rect class="fil8" transform="matrix(0.119704 -0.000307042 0.000253581 0.0988615 113.999 64.6848)" width="305.344" height="54.6887"/>
      <rect class="fil8" transform="matrix(0.119704 -0.000307042 0.000253581 0.0988615 114.033 77.6945)" width="305.344" height="54.6887"/>
     </g>
    </g>
    <g>
     <rect class="fil0" transform="matrix(0.0682008 0.000115671 -0.000127037 0.0620987 56.0847 86.0272)" width="1196" height="1151"/>
     <g>
      <polygon class="fil1" points="59,83 141,84 141,155 59,155 "/>
      <path id="1" class="fil9" d="M141 84l-82 0 0 -1 82 0 1 1 -1 0zm0 -1l1 0 0 1 -1 -1zm-1 72l1 -71 1 0 -1 71 0 1 -1 -1zm1 0l0 1 0 0 0 -1zm-82 -1l82 1 0 1 -82 -1 0 0 0 -1zm0 1l0 0 0 0 0 0zm1 -72l0 72 -1 0 0 -72 0 0 1 0zm-1 0l0 0 0 0 0 0z"/>
     </g>
     <g>
      <polygon class="fil10" points="78,124 78,118 78,118 78,117 78,117 78,111 78,111 78,110 78,110 78,104 78,104 78,103 78,103 78,97 78,97 78,97 78,97 78,90 114,90 114,90 78,90 78,125 114,125 114,124 "/>
      <polygon class="fil10" points="78,119 114,119 114,119 78,119 "/>
      <polygon class="fil10" points="78,119 78,119 78,119 78,119 "/>
      <polygon class="fil10" points="78,113 114,113 114,113 78,113 "/>
      <polygon class="fil10" points="78,113 78,113 78,113 78,113 "/>
      <polygon class="fil10" points="78,107 114,107 114,107 78,107 "/>
      <polygon class="fil10" points="78,107 78,107 78,107 78,107 "/>
      <polygon class="fil10" points="78,102 114,102 114,101 78,101 "/>
      <polygon class="fil10" points="78,102 78,102 78,101 78,101 "/>
      <polygon class="fil4" points="81,124 87,124 87,107 81,107 "/>
      <polygon class="fil5" points="89,124 95,124 95,96 89,96 "/>
      <polygon class="fil2" points="97,124 103,124 103,102 97,102 "/>
      <polygon class="fil3" points="105,124 112,124 112,113 105,113 "/>
      <polygon class="fil10" points="114,96 114,101 114,101 114,102 114,102 114,107 114,107 114,107 114,107 114,113 114,113 114,113 114,113 114,119 114,119 114,119 114,119 114,124 78,124 78,125 114,125 114,96 78,96 78,96 "/>
      <polygon class="fil10" points="114,124 114,124 114,90 114,90 "/>
      <path class="fil7" d="M81 106l1 0 0 -3 -1 0 0 1 0 0 0 0 0 0 0 2zm3 -3l-1 0 0 2c0,0 0,0 0,0 1,0 1,0 1,0 0,1 0,1 -1,1 0,0 0,0 0,0l0 0c0,0 0,0 0,0 1,0 1,0 1,-1 0,0 0,0 0,-1 0,0 0,0 -1,0 0,0 0,0 0,0l0 0 1 0 0 -1zm1 0c0,0 0,1 0,1 0,1 0,1 0,1 1,0 1,0 1,-1 0,0 0,-1 -1,-1zm0 1c1,0 1,0 1,0 0,0 0,1 -1,1 0,0 0,-1 0,-1 0,0 0,0 0,0zm1 2l1 -3 0 0 -2 3 1 0zm1 -2c0,0 -1,1 -1,1 0,1 1,1 1,1 0,0 1,0 1,-1 0,0 -1,-1 -1,-1zm0 1c0,0 0,0 0,0 0,1 0,1 0,1 0,0 0,0 0,-1 0,0 0,0 0,0z"/>
      <path class="fil7" d="M99 101l0 -1 -1 0 0 0 0 0c0,-1 1,-1 1,-1 0,-1 -1,-1 -1,-1 0,0 -1,0 -1,0l0 0c0,0 1,0 1,0 0,0 0,0 0,1 0,0 0,0 -1,1l0 0 0 1 2 0zm1 -3c-1,0 -1,0 -1,1 0,1 0,2 1,2 1,0 1,-1 1,-2 0,-1 0,-1 -1,-1zm0 0c0,0 0,1 0,1 0,1 0,1 0,1 0,0 -1,0 -1,-1 0,-1 1,-1 1,-1zm2 0c-1,0 -1,0 -1,1 0,0 0,0 1,0 0,0 0,0 0,0 0,-1 0,-1 0,-1zm0 0c0,0 0,0 0,1 0,0 0,0 0,0 0,0 -1,0 -1,0 0,-1 1,-1 1,-1zm0 3l1 -3 0 0 -1 3 0 0zm1 -2c0,0 0,0 0,1 0,0 0,1 0,1 1,0 1,-1 1,-1 0,-1 0,-1 -1,-1zm0 0c1,0 1,0 1,1 0,0 0,0 -1,0 0,0 0,0 0,0 0,-1 0,-1 0,-1z"/>
      <path class="fil7" d="M90 95l0 -1 -1 0 0 0 0 0c1,0 1,-1 1,-1 0,-1 0,-1 -1,-1 0,0 0,0 0,0l0 0c0,0 0,0 0,0 1,0 1,1 1,1 0,0 0,1 -1,1l0 0 0 1 1 0zm2 -3l-1 0 0 1c0,0 0,0 0,0 1,0 1,1 1,1 0,0 0,0 -1,0 0,0 0,0 0,0l0 1c0,0 0,0 0,0 1,0 1,-1 1,-1 0,-1 0,-1 0,-1 0,0 0,0 -1,0 0,0 0,0 0,0l0 -1 1 0 0 0zm1 0c0,0 0,0 0,1 0,0 0,1 0,1 1,0 1,-1 1,-1 0,-1 0,-1 -1,-1zm0 0c1,0 1,0 1,1 0,0 0,0 -1,0 0,0 0,0 0,0 0,-1 0,-1 0,-1zm1 3l1 -3 0 0 -2 3 1 0zm1 -2c0,0 -1,0 -1,1 0,0 1,1 1,1 0,0 1,-1 1,-1 0,-1 -1,-1 -1,-1zm0 0c0,0 0,1 0,1 0,0 0,0 0,0 0,0 0,0 0,0 0,0 0,-1 0,-1z"/>
      <path class="fil7" d="M105 112l1 0 0 -3 -1 0 0 1 0 0 0 0 0 0 0 2zm3 -3c-1,0 -1,1 -1,2 0,1 0,1 1,1 0,0 0,0 0,-1 0,-1 0,-2 0,-2zm0 1c0,0 0,0 0,1 0,0 0,1 0,1 -1,0 -1,-1 -1,-1 0,-1 0,-1 1,-1zm1 -1c0,0 0,1 0,1 0,1 0,1 0,1 1,0 1,0 1,-1 0,0 0,-1 -1,-1zm0 1c1,0 1,0 1,0 0,0 0,1 -1,1 0,0 0,-1 0,-1 0,0 0,0 0,0zm1 2l1 -3 0 0 -2 3 1 0zm1 -2c0,0 -1,1 -1,1 0,1 1,1 1,1 0,0 1,0 1,-1 0,0 -1,-1 -1,-1zm0 1c0,0 0,0 0,0 0,1 0,1 0,1 0,0 0,0 0,-1 0,0 0,0 0,0z"/>
     </g>
     <polygon class="fil6" points="65,131 65,135 134,135 134,131 "/>
     <polygon class="fil6" points="65,139 65,142 134,142 134,139 "/>
     <polygon class="fil6" points="65,146 65,150 134,150 134,146 "/>
    </g>
    <g>
     <rect class="fil11" transform="matrix(0.198966 -0.000154425 -0.000349457 0.20314 138.544 19.422)" width="556" height="659" rx="25" ry="25"/>
     <rect class="fil12" transform="matrix(0.189878 -0.000147371 -0.000333495 0.193861 141.065 22.4753)" width="556" height="659" rx="25" ry="25"/>
     <rect class="fil1" transform="matrix(0.182511 -0.000141654 -0.000320557 0.18634 143.109 24.9501)" width="556" height="659"/>
     <path class="fil13" d="M185 18l18 -1 0 8 0 2 -5 0c0,0 0,-1 0,-1 -1,0 -1,1 -1,1l-6 0c0,0 0,0 -1,-1 0,0 0,2 0,2l-5 0 0 -10z"/>
     <g>
      <g style="clip-path:url(#id0)">
       <polygon class="fil14" points="194,17 194,17 194,17 194,17 "/>
       <path id="1" class="fil14" d="M194 17l0 0 0 0 0 0 0 0zm0 0l0 0 0 0 0 0 0 0z"/>
       <path id="2" class="fil15" d="M194 17l0 0 0 0 0 0 0 0zm-1 0l1 0 0 0 0 0 -1 0z"/>
       <path id="3" class="fil15" d="M194 17l0 0 0 0 0 0 0 0zm-1 0l1 0 0 0 0 0 -1 0z"/>
       <path id="4" class="fil16" d="M193 17l1 0 0 0 0 0 -1 0zm0 0l0 0 1 0 0 0 -1 0z"/>
       <path id="5" class="fil17" d="M193 17l0 0 1 0 0 0 -1 0zm0 0l0 -1 1 1 0 0 -1 0z"/>
       <path id="6" class="fil18" d="M193 17l0 0 1 0 0 0 -1 0zm0 0l0 -1 1 1 0 0 -1 0z"/>
       <path id="7" class="fil18" d="M193 17l0 -1 1 1 0 0 -1 0zm0 0l0 -1 1 1 0 0 -1 0z"/>
       <path id="8" class="fil19" d="M193 17l0 -1 1 1 0 0 -1 0zm0 0l0 -1 1 0 0 1 -1 0z"/>
       <path id="9" class="fil19" d="M193 17l0 -1 1 0 0 1 -1 0zm0 0l0 -1 1 0 0 1 -1 0z"/>
       <path id="10" class="fil20" d="M193 17l0 -1 1 0 0 1 -1 0zm0 0l0 -1 1 0 0 1 -1 0z"/>
       <path id="11" class="fil21" d="M193 17l0 -1 1 0 0 1 -1 0zm0 0l0 -1 1 0 0 1 -1 0z"/>
       <path id="12" class="fil22" d="M193 17l0 -1 1 0 0 1 -1 0zm0 0l0 -1 1 0 0 1 -1 0z"/>
       <path id="13" class="fil23" d="M193 17l0 -1 1 0 0 1 -1 0zm0 0l0 -1 1 0 0 1 -1 0z"/>
       <path id="14" class="fil24" d="M193 17l0 -1 1 0 0 1 -1 0zm0 0l0 -1 1 0 0 2 -1 -1z"/>
       <path id="15" class="fil24" d="M193 17l0 -1 1 0 0 1 -1 0zm0 0l0 -1 1 0 0 2 -1 -1z"/>
       <path id="16" class="fil24" d="M193 17l0 -1 1 0 0 2 -1 -1zm0 0l0 -1 1 0 0 2 -1 -1z"/>
       <path id="17" class="fil25" d="M193 17l0 -1 1 0 0 2 -1 -1zm0 0l0 -1 1 0 0 2 -1 -1z"/>
       <path id="18" class="fil25" d="M193 17l0 -1 1 0 0 2 -1 -1zm0 0l0 -1 1 0 0 2 -1 -1z"/>
       <path id="19" class="fil25" d="M193 17l0 -1 1 0 0 2 -1 -1zm0 0l0 -1 1 0 0 2 -1 -1z"/>
       <path id="20" class="fil26" d="M193 17l0 -1 1 0 0 2 -1 -1zm0 1l0 -2 1 0 0 2 -1 0z"/>
       <path id="21" class="fil27" d="M193 18l0 -2 1 0 0 2 -1 0zm0 0l0 -2 1 0 0 2 -1 0z"/>
       <path id="22" class="fil27" d="M193 18l0 -2 1 0 0 2 -1 0zm0 0l0 -2 1 0 0 2 -1 0z"/>
       <path id="23" class="fil28" d="M193 18l0 -2 1 0 0 2 -1 0zm0 0l0 -2 1 0 0 2 -1 0z"/>
       <path id="24" class="fil28" d="M193 18l0 -2 1 0 0 2 -1 0zm0 0l0 -2 1 0 0 2 -1 0z"/>
       <path id="25" class="fil29" d="M193 18l0 -2 1 0 0 2 -1 0zm0 0l0 -2 1 0 0 2 -1 0z"/>
       <path id="26" class="fil30" d="M193 18l0 -2 1 0 0 2 -1 0zm0 0l0 -2 1 0 0 2 -1 0z"/>
       <path id="27" class="fil30" d="M193 18l0 -2 1 0 0 2 -1 0zm0 0l0 -3 1 1 0 2 -1 0z"/>
       <path id="28" class="fil31" d="M193 18l0 -2 1 0 0 2 -1 0zm0 0l0 -3 1 1 0 2 -1 0z"/>
       <path id="29" class="fil32" d="M193 18l0 -3 1 1 0 2 -1 0zm0 0l0 -3 1 1 0 2 -1 0z"/>
       <path id="30" class="fil32" d="M193 18l0 -3 1 1 0 2 -1 0zm0 0l0 -3 1 1 0 2 -1 0z"/>
       <path id="31" class="fil32" d="M193 18l0 -3 1 1 0 2 -1 0zm0 0l0 -3 1 1 0 2 -1 0z"/>
       <path id="32" class="fil33" d="M193 18l0 -3 1 1 0 2 -1 0zm0 0l0 -3 1 1 0 2 -1 0z"/>
       <path id="33" class="fil33" d="M193 18l0 -3 1 1 0 2 -1 0zm0 0l0 -3 1 1 0 2 -1 0z"/>
       <path id="34" class="fil33" d="M193 18l0 -3 1 1 0 2 -1 0zm0 0l0 -3 1 1 0 2 -1 0z"/>
       <path id="35" class="fil34" d="M193 18l0 -3 1 1 0 2 -1 0zm0 0l0 -3 1 1 0 2 -1 0z"/>
       <path id="36" class="fil35" d="M193 18l0 -3 1 1 0 2 -1 0zm0 0l0 -3 1 1 0 3 -1 -1z"/>
       <path id="37" class="fil35" d="M193 18l0 -3 1 1 0 2 -1 0zm0 0l0 -3 1 0 0 4 -1 -1z"/>
       <path id="38" class="fil36" d="M193 18l0 -3 1 1 0 3 -1 -1zm0 0l0 -3 2 0 -1 4 -1 -1z"/>
       <path id="39" class="fil37" d="M193 18l0 -3 1 0 0 4 -1 -1zm0 0l0 -3 2 0 -1 4 -1 -1z"/>
       <path id="40" class="fil37" d="M193 18l0 -3 2 0 -1 4 -1 -1zm0 0l0 -3 2 0 -1 4 -1 -1z"/>
       <path id="41" class="fil38" d="M193 18l0 -3 2 0 -1 4 -1 -1zm0 0l0 -3 2 0 -1 4 -1 -1z"/>
       <path id="42" class="fil38" d="M193 18l0 -3 2 0 -1 4 -1 -1zm0 0l0 -3 2 0 -1 4 -1 -1z"/>
       <path id="43" class="fil39" d="M193 18l0 -3 2 0 -1 4 -1 -1zm0 0l0 -3 2 0 -1 4 -1 -1z"/>
       <path id="44" class="fil40" d="M193 18l0 -3 2 0 -1 4 -1 -1zm-1 0l1 -3 2 0 -1 4 -2 -1z"/>
       <path id="45" class="fil41" d="M193 18l0 -3 2 0 -1 4 -1 -1zm-1 0l1 -3 2 0 -1 4 -2 -1z"/>
       <path id="46" class="fil41" d="M192 18l1 -3 2 0 -1 4 -2 -1zm0 0l1 -3 2 0 -1 4 -2 -1z"/>
       <path id="47" class="fil42" d="M192 18l1 -3 2 0 -1 4 -2 -1zm0 0l1 -3 2 0 -1 4 -2 -1z"/>
       <path id="48" class="fil43" d="M192 18l1 -3 2 0 -1 4 -2 -1zm0 0l1 -3 2 0 -1 4 -2 -1z"/>
       <path id="49" class="fil43" d="M192 18l1 -3 2 0 -1 4 -2 -1zm0 1l1 -5 2 1 -1 4 -2 0z"/>
       <path id="50" class="fil44" d="M192 18l1 -3 2 0 -1 4 -2 -1zm0 1l1 -5 2 1 -1 4 -2 0z"/>
       <path id="51" class="fil45" d="M192 19l1 -5 2 1 -1 4 -2 0zm0 0l1 -5 2 1 -1 4 -2 0z"/>
       <path id="52" class="fil46" d="M192 19l1 -5 2 1 -1 4 -2 0zm0 0l1 -5 2 1 -1 4 -2 0z"/>
       <path id="53" class="fil46" d="M192 19l1 -5 2 1 -1 4 -2 0zm0 0l1 -5 2 1 -1 4 -2 0z"/>
       <path id="54" class="fil47" d="M192 19l1 -5 2 1 -1 4 -2 0zm0 0l1 -5 2 1 -1 4 -2 0z"/>
       <path id="55" class="fil47" d="M192 19l1 -5 2 1 -1 4 -2 0zm0 0l1 -5 2 1 -1 4 -2 0z"/>
       <path id="56" class="fil47" d="M192 19l1 -5 2 1 -1 4 -2 0zm0 0l1 -5 2 1 -1 4 -2 0z"/>
       <path id="57" class="fil48" d="M192 19l1 -5 2 1 -1 4 -2 0zm0 0l1 -5 2 1 -1 4 -2 0z"/>
       <path id="58" class="fil49" d="M192 19l1 -5 2 1 -1 4 -2 0zm0 0l1 -5 2 1 0 5 -3 -1z"/>
       <path id="59" class="fil49" d="M192 19l1 -5 2 1 0 4 -3 0zm0 0l1 -5 2 1 0 5 -3 -1z"/>
       <path id="60" class="fil50" d="M192 19l1 -5 2 1 0 5 -3 -1zm0 0l1 -5 2 1 0 5 -3 -1z"/>
       <path id="61" class="fil51" d="M192 19l1 -5 2 1 0 5 -3 -1zm0 0l1 -5 2 1 0 5 -3 -1z"/>
       <path id="62" class="fil51" d="M192 19l1 -5 2 1 0 5 -3 -1zm0 0l1 -5 2 1 0 5 -3 -1z"/>
       <path id="63" class="fil52" d="M192 19l1 -5 2 1 0 5 -3 -1zm0 0l1 -5 2 1 0 5 -3 -1z"/>
       <path id="64" class="fil52" d="M192 19l1 -5 2 1 0 5 -3 -1zm0 0l1 -5 2 1 0 5 -3 -1z"/>
       <path id="65" class="fil53" d="M192 19l1 -5 2 1 0 5 -3 -1zm0 0l1 -5 2 1 0 5 -3 -1z"/>
       <path id="66" class="fil54" d="M192 19l1 -5 2 1 0 5 -3 -1zm0 0l1 -5 2 1 0 5 -3 -1z"/>
       <path id="67" class="fil54" d="M192 19l1 -5 2 1 0 5 -3 -1zm0 0l0 -5 3 0 0 6 -3 -1z"/>
       <path id="68" class="fil55" d="M192 19l1 -5 2 0 0 6 -3 -1zm0 0l0 -5 3 0 0 6 -3 -1z"/>
       <path id="69" class="fil56" d="M192 19l0 -5 3 0 0 6 -3 -1zm0 0l0 -5 3 0 0 6 -3 -1z"/>
       <path id="70" class="fil56" d="M192 19l0 -5 3 0 0 6 -3 -1zm0 0l0 -5 3 0 0 6 -3 -1z"/>
       <path id="71" class="fil56" d="M192 19l0 -5 3 0 0 6 -3 -1zm0 0l0 -6 3 1 0 6 -3 -1z"/>
       <path id="72" class="fil57" d="M192 19l0 -6 3 1 0 6 -3 -1zm0 0l0 -6 3 1 0 6 -3 -1z"/>
       <path id="73" class="fil58" d="M192 19l0 -6 3 1 0 6 -3 -1zm0 0l0 -6 3 1 0 6 -3 -1z"/>
       <path id="74" class="fil58" d="M192 19l0 -6 3 1 0 6 -3 -1zm0 0l0 -6 3 1 0 6 -3 -1z"/>
       <path id="75" class="fil59" d="M192 19l0 -6 3 1 0 6 -3 -1zm0 0l0 -6 3 1 0 6 -3 -1z"/>
       <path id="76" class="fil60" d="M192 19l0 -6 3 1 0 6 -3 -1zm0 0l0 -6 3 1 0 6 -3 -1z"/>
       <path id="77" class="fil60" d="M192 19l0 -6 3 1 0 6 -3 -1zm0 0l0 -6 3 1 0 6 -3 -1z"/>
       <path id="78" class="fil61" d="M192 19l0 -6 3 1 0 6 -3 -1zm0 0l0 -6 3 1 0 6 -3 -1z"/>
       <path id="79" class="fil61" d="M192 19l0 -6 3 1 0 6 -3 -1zm0 1l0 -7 3 1 0 6 -3 0z"/>
       <path id="80" class="fil62" d="M192 20l0 -7 3 1 0 6 -3 0zm0 0l0 -7 4 1 -1 7 -3 -1z"/>
       <path id="81" class="fil63" d="M192 20l0 -7 3 1 0 7 -3 -1zm0 0l0 -7 4 1 -1 7 -3 -1z"/>
       <path id="82" class="fil63" d="M192 20l0 -7 4 1 -1 7 -3 -1zm0 0l0 -7 4 1 -1 7 -3 -1z"/>
       <path id="83" class="fil63" d="M192 20l0 -7 4 1 -1 7 -3 -1zm0 0l0 -7 4 1 -1 7 -3 -1z"/>
       <path id="84" class="fil64" d="M192 20l0 -7 4 1 -1 7 -3 -1zm0 0l0 -7 4 1 -1 7 -3 -1z"/>
       <path id="85" class="fil64" d="M192 20l0 -7 4 1 -1 7 -3 -1zm0 0l0 -7 4 1 -1 7 -3 -1z"/>
       <path id="86" class="fil64" d="M192 20l0 -7 4 1 -1 7 -3 -1zm0 0l0 -7 4 1 -1 7 -3 -1z"/>
       <path id="87" class="fil65" d="M192 20l0 -7 4 1 -1 7 -3 -1zm-1 0l1 -7 4 1 -1 7 -4 -1z"/>
       <path id="88" class="fil65" d="M191 20l1 -7 4 1 -1 7 -4 -1zm0 0l1 -7 4 1 -1 7 -4 -1z"/>
       <path id="89" class="fil65" d="M191 20l1 -7 4 1 -1 7 -4 -1zm0 0l1 -7 4 1 -1 7 -4 -1z"/>
       <path id="90" class="fil66" d="M191 20l1 -7 4 1 -1 7 -4 -1zm0 0l1 -7 4 1 -1 7 -4 -1z"/>
       <path id="91" class="fil67" d="M191 20l1 -7 4 1 -1 7 -4 -1zm0 0l1 -7 4 1 -1 7 -4 -1z"/>
       <path id="92" class="fil68" d="M191 20l1 -7 4 1 -1 7 -4 -1zm0 0l1 -7 4 1 -1 7 -4 -1z"/>
       <path id="93" class="fil69" d="M191 20l1 -7 4 1 -1 7 -4 -1zm0 0l1 -8 4 2 -1 7 -4 -1z"/>
       <path id="94" class="fil69" d="M191 20l1 -8 4 2 -1 7 -4 -1zm0 0l1 -8 4 2 -1 7 -4 -1z"/>
       <path id="95" class="fil70" d="M191 20l1 -8 4 2 -1 7 -4 -1zm0 0l1 -8 4 2 -1 7 -4 -1z"/>
       <path id="96" class="fil71" d="M191 20l1 -8 4 2 -1 7 -4 -1zm0 0l1 -8 4 1 -1 8 -4 -1z"/>
       <path id="97" class="fil71" d="M191 20l1 -8 4 2 -1 7 -4 -1zm0 0l1 -8 4 1 -1 8 -4 -1z"/>
       <path id="98" class="fil72" d="M191 20l1 -8 4 1 -1 8 -4 -1zm0 0l1 -8 4 1 -1 8 -4 -1z"/>
       <path id="99" class="fil73" d="M191 20l1 -8 4 1 -1 8 -4 -1zm0 0l1 -8 4 1 -1 8 -4 -1z"/>
       <path id="100" class="fil74" d="M191 20l1 -8 4 1 -1 8 -4 -1zm0 0l1 -8 4 1 -1 8 -4 -1z"/>
       <path id="101" class="fil74" d="M191 20l1 -8 4 1 -1 8 -4 -1zm0 0l1 -8 4 1 -1 8 -4 -1z"/>
       <path id="102" class="fil75" d="M191 20l1 -8 4 1 -1 8 -4 -1zm0 0l1 -8 4 1 -1 9 -4 -2z"/>
       <path id="103" class="fil75" d="M191 20l1 -8 4 1 -1 9 -4 -2zm0 0l1 -8 4 1 -1 9 -4 -2z"/>
       <path id="104" class="fil75" d="M191 20l1 -8 4 1 -1 9 -4 -2zm0 0l1 -8 4 1 -1 9 -4 -2z"/>
       <path id="105" class="fil76" d="M191 20l1 -8 4 1 -1 9 -4 -2zm0 0l1 -8 4 1 -1 9 -4 -2z"/>
       <path id="106" class="fil77" d="M191 20l1 -8 4 1 -1 9 -4 -2zm0 0l1 -8 4 1 -1 9 -4 -2z"/>
       <path id="107" class="fil77" d="M191 20l1 -8 4 1 -1 9 -4 -2zm0 0l1 -8 4 1 -1 9 -4 -2z"/>
       <path id="108" class="fil78" d="M191 20l1 -8 4 1 -1 9 -4 -2zm0 1l1 -9 4 1 -1 9 -4 -1z"/>
       <path id="109" class="fil78" d="M191 20l1 -8 4 1 -1 9 -4 -2zm0 1l1 -9 4 1 -1 9 -4 -1z"/>
       <path id="110" class="fil79" d="M191 21l1 -9 4 1 -1 9 -4 -1zm0 0l1 -9 4 1 -1 9 -4 -1z"/>
       <path id="111" class="fil80" d="M191 21l1 -9 4 1 -1 9 -4 -1zm0 0l1 -9 4 1 -1 9 -4 -1z"/>
       <path id="112" class="fil80" d="M191 21l1 -9 4 1 -1 9 -4 -1zm0 0l1 -9 4 1 -1 9 -4 -1z"/>
       <path id="113" class="fil81" d="M191 21l1 -9 4 1 -1 9 -4 -1zm0 0l1 -9 4 1 -1 9 -4 -1z"/>
       <path id="114" class="fil82" d="M191 21l1 -9 4 1 -1 9 -4 -1zm0 0l1 -10 4 2 -1 9 -4 -1z"/>
       <path id="115" class="fil82" d="M191 21l1 -9 4 1 -1 9 -4 -1zm0 0l1 -10 4 2 -1 9 -4 -1z"/>
       <path id="116" class="fil83" d="M191 21l1 -10 4 2 -1 9 -4 -1zm0 0l1 -10 4 2 -1 9 -4 -1z"/>
       <path id="117" class="fil84" d="M191 21l1 -10 4 2 -1 9 -4 -1zm0 0l1 -10 4 2 -1 9 -4 -1z"/>
       <path id="118" class="fil84" d="M191 21l1 -10 4 2 -1 9 -4 -1zm0 0l1 -10 4 2 -1 9 -4 -1z"/>
       <path id="119" class="fil84" d="M191 21l1 -10 4 2 -1 9 -4 -1zm0 0l1 -10 4 2 -1 9 -4 -1z"/>
       <path id="120" class="fil85" d="M191 21l1 -10 4 2 -1 9 -4 -1zm0 0l1 -10 4 2 -1 9 -4 -1z"/>
       <path id="121" class="fil86" d="M191 21l1 -10 4 2 -1 9 -4 -1zm0 0l1 -10 4 2 0 9 -5 -1z"/>
       <path id="122" class="fil86" d="M191 21l1 -10 4 2 -1 9 -4 -1zm0 0l1 -10 4 2 0 9 -5 -1z"/>
       <path id="123" class="fil87" d="M191 21l1 -10 4 2 0 9 -5 -1zm0 0l1 -10 5 2 -1 9 -5 -1z"/>
       <path id="124" class="fil88" d="M191 21l1 -10 5 2 -1 9 -5 -1zm0 0l1 -10 5 2 -1 10 -5 -2z"/>
       <path id="125" class="fil88" d="M191 21l1 -10 5 2 -1 10 -5 -2zm0 0l1 -10 5 2 -1 10 -5 -2z"/>
       <path id="126" class="fil89" d="M191 21l1 -10 5 2 -1 10 -5 -2zm0 0l1 -10 5 1 -1 11 -5 -2z"/>
       <path id="127" class="fil89" d="M191 21l1 -10 5 1 -1 11 -5 -2zm0 0l1 -10 5 1 -1 11 -5 -2z"/>
       <path id="128" class="fil90" d="M191 21l1 -10 5 1 -1 11 -5 -2zm0 0l1 -10 5 1 -1 11 -5 -2z"/>
       <path id="129" class="fil90" d="M191 21l1 -10 5 1 -1 11 -5 -2zm-1 0l2 -10 5 1 -1 11 -6 -2z"/>
       <path id="130" class="fil91" d="M190 21l2 -10 5 1 -1 11 -6 -2zm0 0l1 -10 6 1 -1 11 -6 -2z"/>
       <path id="131" class="fil91" d="M190 21l2 -10 5 1 -1 11 -6 -2zm0 0l1 -10 6 1 -1 11 -6 -2z"/>
       <path id="132" class="fil92" d="M190 21l1 -10 6 1 -1 11 -6 -2zm0 0l1 -10 6 1 -1 11 -6 -2z"/>
       <path id="133" class="fil93" d="M190 21l1 -10 6 1 -1 11 -6 -2zm0 0l1 -10 6 1 -1 11 -6 -2z"/>
       <path id="134" class="fil93" d="M190 21l1 -10 6 1 -1 11 -6 -2zm0 0l1 -10 6 1 -1 11 -6 -2z"/>
       <path id="135" class="fil94" d="M190 21l1 -10 6 1 -1 11 -6 -2zm0 0l1 -10 6 1 -1 11 -6 -2z"/>
       <path id="136" class="fil95" d="M190 21l1 -10 6 1 -1 11 -6 -2zm0 0l1 -11 6 2 -1 11 -6 -2z"/>
       <path id="137" class="fil95" d="M190 21l1 -10 6 1 -1 11 -6 -2zm0 0l1 -11 6 2 -1 11 -6 -2z"/>
       <path id="138" class="fil95" d="M190 21l1 -11 6 2 -1 11 -6 -2zm0 1l1 -12 6 2 -1 11 -6 -1z"/>
       <path id="139" class="fil96" d="M190 22l1 -12 6 2 -1 11 -6 -1zm0 0l1 -12 6 2 -1 11 -6 -1z"/>
       <path id="140" class="fil97" d="M190 22l1 -12 6 2 -1 11 -6 -1zm0 0l1 -12 6 2 -1 11 -6 -1z"/>
       <path id="141" class="fil97" d="M190 22l1 -12 6 2 -1 11 -6 -1zm0 0l1 -12 6 2 -1 11 -6 -1z"/>
       <path id="142" class="fil98" d="M190 22l1 -12 6 2 -1 11 -6 -1zm0 0l1 -12 6 2 -1 11 -6 -1z"/>
       <path id="143" class="fil99" d="M190 22l1 -12 6 2 -1 11 -6 -1zm0 0l1 -12 6 2 -1 11 -6 -1z"/>
       <path id="144" class="fil99" d="M190 22l1 -12 6 2 -1 11 -6 -1zm0 0l1 -12 6 2 -1 11 -6 -1z"/>
       <path id="145" class="fil100" d="M190 22l1 -12 6 2 -1 11 -6 -1zm0 0l1 -12 6 2 -1 12 -6 -2z"/>
       <path id="146" class="fil101" d="M190 22l1 -12 6 2 -1 11 -6 -1zm0 0l1 -12 6 2 -1 12 -6 -2z"/>
       <path id="147" class="fil101" d="M190 22l1 -12 6 2 -1 12 -6 -2zm0 0l1 -12 6 2 -1 12 -6 -2z"/>
       <path id="148" class="fil102" d="M190 22l1 -12 6 2 -1 12 -6 -2zm0 0l1 -12 6 2 -1 12 -6 -2z"/>
       <path id="149" class="fil102" d="M190 22l1 -12 6 2 -1 12 -6 -2zm0 0l1 -12 6 2 -1 12 -6 -2z"/>
       <path id="150" class="fil103" d="M190 22l1 -12 6 2 -1 12 -6 -2zm0 0l1 -12 6 2 -1 12 -6 -2z"/>
       <path id="151" class="fil104" d="M190 22l1 -12 6 2 -1 12 -6 -2zm0 0l1 -12 6 2 -1 12 -6 -2z"/>
       <path id="152" class="fil104" d="M190 22l1 -12 6 2 -1 12 -6 -2zm0 0l1 -12 6 2 -1 12 -6 -2z"/>
       <path id="153" class="fil104" d="M190 22l1 -12 6 2 -1 12 -6 -2zm0 0l1 -12 6 2 -1 12 -6 -2z"/>
       <path id="154" class="fil105" d="M190 22l1 -12 6 2 -1 12 -6 -2zm0 0l1 -12 6 2 -1 12 -6 -2z"/>
       <path id="155" class="fil105" d="M190 22l1 -12 6 2 -1 12 -6 -2zm0 0l1 -12 6 1 -1 13 -6 -2z"/>
       <path id="156" class="fil106" d="M190 22l1 -12 6 2 -1 12 -6 -2zm0 0l1 -12 6 1 -1 13 -6 -2z"/>
       <path id="157" class="fil107" d="M190 22l1 -12 6 1 -1 13 -6 -2zm0 0l1 -12 6 1 -1 13 -6 -2z"/>
       <path id="158" class="fil108" d="M190 22l1 -12 6 1 -1 13 -6 -2zm0 0l1 -13 6 2 -1 13 -6 -2z"/>
       <path id="159" class="fil108" d="M190 22l1 -12 6 1 -1 13 -6 -2zm0 0l1 -13 6 2 -1 13 -6 -2z"/>
       <path id="160" class="fil109" d="M190 22l1 -13 6 2 -1 13 -6 -2zm0 0l1 -13 6 2 -1 13 -6 -2z"/>
       <path id="161" class="fil110" d="M190 22l1 -13 6 2 -1 13 -6 -2zm0 0l1 -13 6 2 -1 13 -6 -2z"/>
       <path id="162" class="fil110" d="M190 22l1 -13 6 2 -1 13 -6 -2zm0 0l1 -13 6 2 -1 13 -6 -2z"/>
       <path id="163" class="fil111" d="M190 22l1 -13 6 2 -1 13 -6 -2zm0 0l1 -13 6 2 -1 13 -6 -2z"/>
       <path id="164" class="fil112" d="M190 22l1 -13 6 2 -1 13 -6 -2zm0 0l1 -13 6 2 -1 13 -6 -2z"/>
       <path id="165" class="fil113" d="M190 22l1 -13 6 2 -1 13 -6 -2zm0 0l1 -13 7 2 -2 13 -6 -2z"/>
       <path id="166" class="fil114" d="M190 22l1 -13 7 2 -2 13 -6 -2zm0 0l1 -13 7 2 -2 13 -6 -2z"/>
       <path id="167" class="fil114" d="M190 22l1 -13 7 2 -2 13 -6 -2zm0 0l1 -13 7 2 -2 14 -6 -3z"/>
       <path id="168" class="fil114" d="M190 22l1 -13 7 2 -2 13 -6 -2zm0 1l1 -14 7 2 -2 14 -6 -2z"/>
       <path id="169" class="fil115" d="M190 23l1 -14 7 2 -2 14 -6 -2zm0 0l1 -14 7 2 -2 14 -6 -2z"/>
       <path id="170" class="fil115" d="M190 23l1 -14 7 2 -2 14 -6 -2zm0 0l1 -14 7 2 -2 14 -6 -2z"/>
       <path id="171" class="fil115" d="M190 23l1 -14 7 2 -2 14 -6 -2zm-1 0l2 -14 7 2 -2 14 -7 -2z"/>
       <path id="172" class="fil116" d="M190 23l1 -14 7 2 -2 14 -6 -2zm-1 0l2 -14 7 2 -2 14 -7 -2z"/>
       <path id="173" class="fil116" d="M189 23l2 -14 7 2 -2 14 -7 -2zm0 0l2 -14 7 2 -2 14 -7 -2z"/>
       <path id="174" class="fil116" d="M189 23l2 -14 7 2 -2 14 -7 -2zm0 0l2 -14 7 2 -2 14 -7 -2z"/>
       <path id="175" class="fil117" d="M189 23l2 -14 7 2 -2 14 -7 -2zm0 0l2 -14 7 2 -2 14 -7 -2z"/>
       <path id="176" class="fil118" d="M189 23l2 -14 7 2 -2 14 -7 -2zm0 0l2 -14 7 2 -2 14 -7 -2z"/>
       <path id="177" class="fil118" d="M189 23l2 -14 7 2 -2 14 -7 -2zm0 0l2 -14 7 2 -2 14 -7 -2z"/>
       <path id="178" class="fil119" d="M189 23l2 -14 7 2 -2 14 -7 -2zm0 0l2 -14 7 2 -2 14 -7 -2z"/>
       <path id="179" class="fil119" d="M189 23l2 -14 7 2 -2 14 -7 -2zm0 0l2 -14 7 2 -2 14 -7 -2z"/>
       <path id="180" class="fil120" d="M189 23l2 -14 7 2 -2 14 -7 -2zm0 0l2 -15 7 3 -2 14 -7 -2z"/>
       <path id="181" class="fil121" d="M189 23l2 -15 7 3 -2 14 -7 -2zm0 0l2 -15 7 3 -2 14 -7 -2z"/>
       <path id="182" class="fil121" d="M189 23l2 -15 7 3 -2 14 -7 -2zm0 0l2 -15 7 3 -2 14 -7 -2z"/>
       <path id="183" class="fil122" d="M189 23l2 -15 7 3 -2 14 -7 -2zm0 0l2 -15 7 3 -2 14 -7 -2z"/>
       <path id="184" class="fil123" d="M189 23l2 -15 7 3 -2 14 -7 -2zm0 0l2 -15 7 3 -2 14 -7 -2z"/>
       <path id="185" class="fil123" d="M189 23l2 -15 7 3 -2 14 -7 -2zm0 0l2 -15 7 2 -1 15 -8 -2z"/>
       <path id="186" class="fil123" d="M189 23l2 -15 7 2 -1 15 -8 -2zm0 0l2 -15 7 2 -1 15 -8 -2z"/>
       <path id="187" class="fil124" d="M189 23l2 -15 7 2 -1 15 -8 -2zm0 0l2 -15 7 2 -1 15 -8 -2z"/>
       <path id="188" class="fil125" d="M189 23l2 -15 7 2 -1 15 -8 -2zm0 0l2 -15 7 2 -1 15 -8 -2z"/>
       <path id="189" class="fil125" d="M189 23l2 -15 7 2 -1 15 -8 -2zm0 0l2 -15 7 2 -1 16 -8 -3z"/>
       <path id="190" class="fil126" d="M189 23l2 -15 7 2 -1 15 -8 -2zm0 0l2 -15 7 2 -1 16 -8 -3z"/>
       <path id="191" class="fil127" d="M189 23l2 -15 7 2 -1 16 -8 -3zm0 0l2 -15 7 2 -1 16 -8 -3z"/>
       <path id="192" class="fil127" d="M189 23l2 -15 7 2 -1 16 -8 -3zm0 0l2 -15 7 2 -1 16 -8 -3z"/>
       <path id="193" class="fil128" d="M189 23l2 -15 7 2 -1 16 -8 -3zm0 0l2 -15 7 2 -1 16 -8 -3z"/>
       <path id="194" class="fil128" d="M189 23l2 -15 7 2 -1 16 -8 -3zm0 0l1 -15 8 2 -1 16 -8 -3z"/>
       <path id="195" class="fil129" d="M189 23l1 -15 8 2 -1 16 -8 -3zm0 0l1 -15 8 2 -1 16 -8 -3z"/>
       <path id="196" class="fil130" d="M189 23l1 -15 8 2 -1 16 -8 -3zm0 0l1 -15 8 2 -1 16 -8 -3z"/>
       <path id="197" class="fil130" d="M189 23l1 -15 8 2 -1 16 -8 -3zm0 1l1 -16 8 2 -1 16 -8 -2z"/>
       <path id="198" class="fil131" d="M189 23l1 -15 8 2 -1 16 -8 -3zm0 1l1 -16 8 2 -1 16 -8 -2z"/>
       <path id="199" class="fil132" d="M189 24l1 -16 8 2 -1 16 -8 -2zm0 0l1 -16 8 2 -1 16 -8 -2z"/>
       <path id="200" class="fil132" d="M189 24l1 -16 8 2 -1 16 -8 -2zm0 0l1 -16 8 2 -1 16 -8 -2z"/>
       <path id="201" class="fil132" d="M189 24l1 -16 8 2 -1 16 -8 -2zm0 0l1 -16 8 2 -1 16 -8 -2z"/>
       <path id="202" class="fil133" d="M189 24l1 -16 8 2 -1 16 -8 -2zm0 0l1 -17 8 3 -1 16 -8 -2z"/>
       <path id="203" class="fil133" d="M189 24l1 -17 8 3 -1 16 -8 -2zm0 0l1 -17 8 3 -1 16 -8 -2z"/>
       <path id="204" class="fil134" d="M189 24l1 -17 8 3 -1 16 -8 -2zm0 0l1 -17 8 3 -1 16 -8 -2z"/>
       <path id="205" class="fil135" d="M189 24l1 -17 8 3 -1 16 -8 -2zm0 0l1 -17 8 3 -1 16 -8 -2z"/>
       <path id="206" class="fil136" d="M189 24l1 -17 8 3 -1 16 -8 -2zm0 0l1 -17 8 3 -1 16 -8 -2z"/>
       <path id="207" class="fil136" d="M189 24l1 -17 8 3 -1 16 -8 -2zm0 0l1 -17 9 3 -2 16 -8 -2z"/>
       <path id="208" class="fil137" d="M189 24l1 -17 8 3 -1 16 -8 -2zm0 0l1 -17 9 3 -2 16 -8 -2z"/>
       <path id="209" class="fil138" d="M189 24l1 -17 9 3 -2 16 -8 -2zm0 0l1 -17 9 3 -2 16 -8 -2z"/>
       <path id="210" class="fil138" d="M189 24l1 -17 9 3 -2 16 -8 -2zm0 0l1 -17 9 3 -2 16 -8 -2z"/>
       <path id="211" class="fil139" d="M189 24l1 -17 9 3 -2 16 -8 -2zm0 0l1 -17 9 3 -2 17 -8 -3z"/>
       <path id="212" class="fil140" d="M189 24l1 -17 9 3 -2 17 -8 -3zm0 0l1 -17 9 3 -2 17 -8 -3z"/>
       <path id="213" class="fil141" d="M189 24l1 -17 9 3 -2 17 -8 -3zm-1 0l2 -17 9 3 -2 17 -9 -3z"/>
       <path id="214" class="fil141" d="M189 24l1 -17 9 3 -2 17 -8 -3zm-1 0l2 -17 9 2 -2 18 -9 -3z"/>
       <path id="215" class="fil142" d="M188 24l2 -17 9 3 -2 17 -9 -3zm0 0l2 -17 9 2 -2 18 -9 -3z"/>
       <path id="216" class="fil142" d="M188 24l2 -17 9 2 -2 18 -9 -3zm0 0l2 -17 9 2 -2 18 -9 -3z"/>
       <path id="217" class="fil143" d="M188 24l2 -17 9 2 -2 18 -9 -3zm0 0l2 -17 9 2 -2 18 -9 -3z"/>
       <path id="218" class="fil144" d="M188 24l2 -17 9 2 -2 18 -9 -3zm0 0l2 -17 9 2 -2 18 -9 -3z"/>
       <path id="219" class="fil144" d="M188 24l2 -17 9 2 -2 18 -9 -3zm0 0l2 -17 9 2 -2 18 -9 -3z"/>
       <path id="220" class="fil145" d="M188 24l2 -17 9 2 -2 18 -9 -3zm0 0l2 -17 9 2 -2 18 -9 -3z"/>
       <path id="221" class="fil146" d="M188 24l2 -17 9 2 -2 18 -9 -3zm0 0l2 -17 9 2 -2 18 -9 -3z"/>
       <path id="222" class="fil146" d="M188 24l2 -17 9 2 -2 18 -9 -3zm0 0l2 -17 9 2 -2 18 -9 -3z"/>
       <path id="223" class="fil146" d="M188 24l2 -17 9 2 -2 18 -9 -3zm0 0l2 -17 9 2 -2 18 -9 -3z"/>
       <path id="224" class="fil147" d="M188 24l2 -17 9 2 -2 18 -9 -3zm0 0l2 -18 9 3 -2 18 -9 -3z"/>
       <path id="225" class="fil147" d="M188 24l2 -18 9 3 -2 18 -9 -3zm0 0l2 -18 9 3 -2 18 -9 -3z"/>
       <path id="226" class="fil147" d="M188 24l2 -18 9 3 -2 18 -9 -3zm0 0l2 -18 9 3 -2 18 -9 -3z"/>
       <path id="227" class="fil148" d="M188 24l2 -18 9 3 -2 18 -9 -3zm0 1l2 -19 9 3 -2 18 -9 -2z"/>
       <path id="228" class="fil149" d="M188 25l2 -19 9 3 -2 18 -9 -2zm0 0l2 -19 9 3 -2 18 -9 -2z"/>
       <path id="229" class="fil149" d="M188 25l2 -19 9 3 -2 18 -9 -2zm0 0l2 -19 9 3 -2 18 -9 -2z"/>
       <path id="230" class="fil150" d="M188 25l2 -19 9 3 -2 18 -9 -2zm0 0l2 -19 9 3 -2 18 -9 -2z"/>
       <path id="231" class="fil151" d="M188 25l2 -19 9 3 -2 18 -9 -2zm0 0l2 -19 9 3 -2 18 -9 -2z"/>
       <path id="232" class="fil151" d="M188 25l2 -19 9 3 -2 18 -9 -2zm0 0l2 -19 9 3 -2 18 -9 -2z"/>
       <path id="233" class="fil152" d="M188 25l2 -19 9 3 -2 18 -9 -2zm0 0l2 -19 9 3 -2 19 -9 -3z"/>
       <path id="234" class="fil152" d="M188 25l2 -19 9 3 -2 19 -9 -3zm0 0l2 -19 9 3 -2 19 -9 -3z"/>
       <path id="235" class="fil153" d="M188 25l2 -19 9 3 -2 19 -9 -3zm0 0l2 -19 9 3 -2 19 -9 -3z"/>
       <path id="236" class="fil154" d="M188 25l2 -19 9 3 -2 19 -9 -3zm0 0l2 -19 9 3 -2 19 -9 -3z"/>
       <path id="237" class="fil154" d="M188 25l2 -19 9 3 -2 19 -9 -3zm0 0l2 -19 9 3 -2 19 -9 -3z"/>
       <path id="238" class="fil154" d="M188 25l2 -19 9 3 -2 19 -9 -3zm0 0l2 -19 9 3 -2 19 -9 -3z"/>
       <path id="239" class="fil155" d="M188 25l2 -19 9 3 -2 19 -9 -3zm0 0l2 -19 9 3 -2 19 -9 -3z"/>
       <path id="240" class="fil155" d="M188 25l2 -19 9 3 -2 19 -9 -3zm0 0l2 -19 9 3 -2 19 -9 -3z"/>
       <path id="241" class="fil155" d="M188 25l2 -19 9 3 -2 19 -9 -3zm0 0l2 -19 9 3 -2 19 -9 -3z"/>
       <path id="242" class="fil156" d="M188 25l2 -19 9 3 -2 19 -9 -3zm0 0l2 -19 9 3 -2 19 -9 -3z"/>
       <path id="243" class="fil157" d="M188 25l2 -19 9 3 -2 19 -9 -3zm0 0l2 -19 9 3 -2 19 -9 -3z"/>
       <path id="244" class="fil158" d="M188 25l2 -19 9 3 -2 19 -9 -3zm0 0l2 -19 9 2 -2 20 -9 -3z"/>
       <path id="245" class="fil159" d="M188 25l2 -19 9 2 -2 20 -9 -3zm0 0l2 -20 9 3 -2 20 -9 -3z"/>
       <path id="246" class="fil160" d="M188 25l2 -19 9 2 -2 20 -9 -3zm0 0l2 -20 9 3 -2 20 -9 -3z"/>
       <path id="247" class="fil160" d="M188 25l2 -20 9 3 -2 20 -9 -3zm0 0l2 -20 9 3 -2 20 -9 -3z"/>
       <path id="248" class="fil161" d="M188 25l2 -20 9 3 -2 20 -9 -3zm0 0l2 -20 9 3 -1 20 -10 -3z"/>
       <path id="249" class="fil161" d="M188 25l2 -20 9 3 -2 20 -9 -3zm0 0l2 -20 10 3 -2 20 -10 -3z"/>
       <path id="250" class="fil162" d="M188 25l2 -20 9 3 -1 20 -10 -3zm0 0l2 -20 10 3 -2 20 -10 -3z"/>
       <path id="251" class="fil163" d="M188 25l2 -20 10 3 -2 20 -10 -3zm0 0l2 -20 10 3 -2 20 -10 -3z"/>
       <path id="252" class="fil164" d="M188 25l2 -20 10 3 -2 20 -10 -3zm0 0l2 -20 10 3 -2 20 -10 -3z"/>
       <path id="253" class="fil164" d="M188 25l2 -20 10 3 -2 20 -10 -3zm0 0l2 -20 10 3 -2 20 -10 -3z"/>
       <path id="254" class="fil165" d="M188 25l2 -20 10 3 -2 20 -10 -3zm0 0l2 -20 10 3 -2 20 -10 -3z"/>
       <path id="255" class="fil166" d="M188 25l2 -20 10 3 -2 20 -10 -3zm0 0l2 -20 10 3 -2 21 -10 -4z"/>
       <path id="256" class="fil165" d="M188 25l2 -20 10 3 -2 21 -10 -4zm-1 1l3 -21 10 3 -2 21 -11 -3z"/>
       <path id="257" class="fil164" d="M187 25l3 -20 10 3 -2 21 -11 -4zm0 1l2 -21 11 3 -2 21 -11 -3z"/>
       <path id="258" class="fil164" d="M187 26l3 -21 10 3 -2 21 -11 -3zm0 0l2 -21 11 3 -2 21 -11 -3z"/>
       <path id="259" class="fil163" d="M187 26l2 -21 11 3 -2 21 -11 -3zm0 0l2 -21 11 3 -2 21 -11 -3z"/>
       <path id="260" class="fil162" d="M187 26l2 -21 11 3 -2 21 -11 -3zm0 0l2 -21 11 3 -2 21 -11 -3z"/>
       <path id="261" class="fil161" d="M187 26l2 -21 11 3 -2 21 -11 -3zm0 0l2 -21 11 3 -2 21 -11 -3z"/>
       <path id="262" class="fil161" d="M187 26l2 -21 11 3 -2 21 -11 -3zm0 0l2 -21 11 3 -2 21 -11 -3z"/>
       <path id="263" class="fil160" d="M187 26l2 -21 11 3 -2 21 -11 -3zm0 0l2 -21 11 3 -2 21 -11 -3z"/>
       <path id="264" class="fil160" d="M187 26l2 -21 11 3 -2 21 -11 -3zm0 0l2 -21 11 3 -2 21 -11 -3z"/>
       <path id="265" class="fil159" d="M187 26l2 -21 11 3 -2 21 -11 -3zm0 0l2 -21 11 3 -2 21 -11 -3z"/>
       <path id="266" class="fil158" d="M187 26l2 -21 11 3 -2 21 -11 -3zm0 0l2 -21 11 3 -2 21 -11 -3z"/>
       <path id="267" class="fil157" d="M187 26l2 -21 11 3 -2 21 -11 -3zm0 0l2 -22 11 4 -2 21 -11 -3z"/>
       <path id="268" class="fil156" d="M187 26l2 -21 11 3 -2 21 -11 -3zm0 0l2 -22 11 4 -2 21 -11 -3z"/>
       <path id="269" class="fil155" d="M187 26l2 -22 11 4 -2 21 -11 -3zm0 0l2 -22 11 4 -2 21 -11 -3z"/>
       <path id="270" class="fil155" d="M187 26l2 -22 11 4 -2 21 -11 -3zm0 0l2 -22 11 4 -2 21 -11 -3z"/>
       <path id="271" class="fil155" d="M187 26l2 -22 11 4 -2 21 -11 -3zm0 0l2 -22 11 4 -2 21 -11 -3z"/>
       <path id="272" class="fil154" d="M187 26l2 -22 11 4 -2 21 -11 -3zm0 0l2 -22 11 4 -2 21 -11 -3z"/>
       <path id="273" class="fil154" d="M187 26l2 -22 11 4 -2 21 -11 -3zm0 0l2 -22 11 3 -2 22 -11 -3z"/>
       <path id="274" class="fil154" d="M187 26l2 -22 11 4 -2 21 -11 -3zm0 0l2 -22 11 3 -2 22 -11 -3z"/>
       <path id="275" class="fil153" d="M187 26l2 -22 11 3 -2 22 -11 -3zm0 0l2 -22 11 3 -2 22 -11 -3z"/>
       <path id="276" class="fil152" d="M187 26l2 -22 11 3 -2 22 -11 -3zm0 0l2 -22 11 3 -2 23 -11 -4z"/>
       <path id="277" class="fil152" d="M187 26l2 -22 11 3 -2 22 -11 -3zm0 0l2 -22 11 3 -2 23 -11 -4z"/>
       <path id="278" class="fil151" d="M187 26l2 -22 11 3 -2 23 -11 -4zm0 0l2 -22 11 3 -2 23 -11 -4z"/>
       <path id="279" class="fil151" d="M187 26l2 -22 11 3 -2 23 -11 -4zm0 0l2 -22 11 3 -2 23 -11 -4z"/>
       <path id="280" class="fil150" d="M187 26l2 -22 11 3 -2 23 -11 -4zm0 0l2 -22 11 3 -2 23 -11 -4z"/>
       <path id="281" class="fil149" d="M187 26l2 -22 11 3 -2 23 -11 -4zm0 0l2 -22 11 3 -2 23 -11 -4z"/>
       <path id="282" class="fil149" d="M187 26l2 -22 11 3 -2 23 -11 -4zm0 0l2 -22 11 3 -2 23 -11 -4z"/>
       <path id="283" class="fil148" d="M187 26l2 -22 11 3 -2 23 -11 -4zm0 0l2 -22 11 3 -2 23 -11 -4z"/>
       <path id="284" class="fil147" d="M187 26l2 -22 11 3 -2 23 -11 -4zm0 0l2 -22 11 3 -2 23 -11 -4z"/>
       <path id="285" class="fil147" d="M187 26l2 -22 11 3 -2 23 -11 -4zm0 0l2 -22 11 3 -2 23 -11 -4z"/>
       <path id="286" class="fil147" d="M187 26l2 -22 11 3 -2 23 -11 -4zm0 1l2 -23 11 3 -2 23 -11 -3z"/>
       <path id="287" class="fil146" d="M187 27l2 -23 11 3 -2 23 -11 -3zm0 0l2 -23 11 3 -2 23 -11 -3z"/>
       <path id="288" class="fil146" d="M187 27l2 -23 11 3 -2 23 -11 -3zm0 0l2 -23 11 3 -2 23 -11 -3z"/>
       <path id="289" class="fil146" d="M187 27l2 -23 11 3 -2 23 -11 -3zm0 0l2 -24 11 4 -2 23 -11 -3z"/>
       <path id="290" class="fil145" d="M187 27l2 -23 11 3 -2 23 -11 -3zm0 0l2 -24 11 4 -2 23 -11 -3z"/>
       <path id="291" class="fil144" d="M187 27l2 -24 11 4 -2 23 -11 -3zm0 0l2 -24 11 4 -2 23 -11 -3z"/>
       <path id="292" class="fil144" d="M187 27l2 -24 11 4 -2 23 -11 -3zm0 0l2 -24 12 4 -3 23 -11 -3z"/>
      </g>
     </g>
     <g>
      <polygon class="fil167" points="239,42 193,42 193,47 239,47 "/>
      <path id="1" class="fil168" d="M193 42l46 0 0 0 -46 0 0 0 0 0zm0 0l0 0 0 0 0 0zm0 5l0 -5 0 0 0 5 0 0 0 0zm0 0l0 0 0 0 0 0zm46 0l-46 0 0 0 46 0 0 0 0 0zm0 0l0 0 0 0 0 0zm0 -5l0 5 0 0 0 -5 0 0 0 0zm0 0l0 0 0 0 0 0z"/>
     </g>
     <g>
      <polygon class="fil167" points="223,51 193,51 193,56 222,56 "/>
      <path id="1" class="fil168" d="M193 51l30 -1 0 1 -30 0 0 0 0 0zm0 0l0 0 0 0 0 0zm0 5l0 -5 0 0 0 5 0 0 0 0zm0 0l0 0 0 0 0 0zm29 0l-29 0 0 0 29 0 0 0 0 0zm0 0l0 0 0 0 0 0zm1 -5l-1 5 0 0 0 -5 1 -1 0 1zm0 -1l0 0 0 1 0 -1z"/>
     </g>
     <g>
      <circle class="fil169" transform="matrix(0.568803 -0.000441813 0.000441813 0.568803 167.664 52.7621)" r="32"/>
      <path class="fil170" d="M171 58c0,-1 -1,-2 -1,-2 -1,-1 -1,-1 -2,-1 -1,-1 -2,-1 -3,-2 -1,0 -1,0 -2,-1 0,0 -1,-1 -1,-2 0,0 0,-1 0,-2 0,-1 0,-3 1,-4 1,-1 2,-1 4,-2l0 -3 2 0 0 3c2,1 3,1 4,3 1,1 2,2 2,4l-4 0c0,-1 -1,-2 -1,-3 -1,0 -1,0 -2,0 -1,0 -1,0 -2,0 0,1 0,1 0,2 0,1 0,1 0,2 1,0 1,1 2,1 2,1 2,1 3,1 1,1 2,1 2,2 1,0 1,1 1,1 0,1 1,2 1,3 0,1 -1,3 -2,4 -1,1 -2,1 -4,1l0 3 -2 0 0 -3c-2,0 -4,-1 -5,-2 -1,-1 -1,-2 -1,-4l4 0c0,1 0,2 1,2 0,1 1,1 2,1 1,0 1,0 2,-1 0,0 1,-1 1,-1z"/>
     </g>
     <g>
      <g>
       <polygon class="fil167" points="147,80 156,80 156,87 147,87 "/>
       <path id="1" class="fil168" d="M156 80l-9 0 0 0 9 0 0 0 0 0zm0 0l0 0 0 0 0 0zm0 7l0 -7 0 0 0 7 0 0 0 0zm0 0l0 0 0 0 0 0zm-9 0l9 0 0 0 -9 0 0 0 0 0zm0 0l0 0 0 0 0 0zm0 -7l0 7 0 0 0 -7 0 0 0 0zm0 0l0 0 0 0 0 0z"/>
      </g>
      <g>
       <polygon class="fil167" points="208,80 156,80 156,87 208,87 "/>
       <path id="1" class="fil168" d="M156 80l0 0 0 0 52 0 0 0 -52 0zm0 0l0 0 0 0 0 0zm0 7l0 0 0 0 0 -7 0 0 0 7zm0 0l0 0 0 0 0 0zm52 0l0 0 0 0 -52 0 0 0 52 0zm0 0l0 0 0 0 0 0zm0 -7l0 0 0 0 0 7 0 0 0 -7zm0 0l0 0 0 0 0 0z"/>
      </g>
      <g>
       <polygon class="fil167" points="208,80 220,80 220,87 208,87 "/>
       <path id="1" class="fil168" d="M220 80l-12 0 0 0 12 0 0 0 0 0zm0 0l0 0 0 0 0 0zm0 7l0 -7 0 0 0 7 0 0 0 0zm0 0l0 0 0 0 0 0zm-12 0l12 0 0 0 -12 0 0 0 0 0zm0 0l0 0 0 0 0 0zm0 -7l0 7 0 0 0 -7 0 0 0 0zm0 0l0 0 0 0 0 0z"/>
      </g>
      <g>
       <polygon class="fil167" points="228,80 220,80 220,87 228,87 "/>
       <path id="1" class="fil168" d="M220 80l0 0 0 0 8 0 0 0 -8 0zm0 0l0 0 0 0 0 0zm0 7l0 0 0 0 0 -7 0 0 0 7zm0 0l0 0 0 0 0 0zm8 0l0 0 0 0 -8 0 0 0 8 0zm0 0l0 0 0 0 0 0zm0 -7l0 0 0 0 0 7 0 0 0 -7zm0 0l0 0 0 0 0 0z"/>
      </g>
      <g>
       <polygon class="fil167" points="228,80 240,80 240,87 228,87 "/>
       <path id="1" class="fil168" d="M240 80l-12 0 0 0 12 0 0 0 0 0zm0 0l0 0 0 0 0 0zm0 7l0 -7 0 0 0 7 0 0 0 0zm0 0l0 0 0 0 0 0zm-12 0l12 0 0 0 -12 0 0 0 0 0zm0 0l0 0 0 0 0 0zm0 -7l0 7 0 0 0 -7 0 0 0 0zm0 0l0 0 0 0 0 0z"/>
      </g>
      <g>
       <polygon class="fil171" points="147,94 156,94 156,87 147,87 "/>
       <path id="1" class="fil168" d="M156 94l0 0 0 0 -9 0 0 0 9 0zm0 0l0 0 0 0 0 0zm0 -7l0 0 0 0 0 7 0 0 0 -7zm0 0l0 0 0 0 0 0zm-9 0l0 0 0 0 9 0 0 0 -9 0zm0 0l0 0 0 0 0 0zm0 7l0 0 0 0 0 -7 0 0 0 7zm0 0l0 0 0 0 0 0z"/>
      </g>
      <g>
       <polygon class="fil171" points="208,94 156,94 156,87 208,87 "/>
       <path id="1" class="fil168" d="M156 94l52 0 0 0 -52 0 0 0 0 0zm0 0l0 0 0 0 0 0zm0 -7l0 7 0 0 0 -7 0 0 0 0zm0 0l0 0 0 0 0 0zm52 0l-52 0 0 0 52 0 0 0 0 0zm0 0l0 0 0 0 0 0zm0 7l0 -7 0 0 0 7 0 0 0 0zm0 0l0 0 0 0 0 0z"/>
      </g>
      <g>
       <polygon class="fil171" points="208,94 220,94 220,87 208,87 "/>
       <path id="1" class="fil168" d="M220 94l0 0 0 0 -12 0 0 0 12 0zm0 0l0 0 0 0 0 0zm0 -7l0 0 0 0 0 7 0 0 0 -7zm0 0l0 0 0 0 0 0zm-12 0l0 0 0 0 12 0 0 0 -12 0zm0 0l0 0 0 0 0 0zm0 7l0 0 0 0 0 -7 0 0 0 7zm0 0l0 0 0 0 0 0z"/>
      </g>
      <g>
       <polygon class="fil171" points="228,94 220,94 220,87 228,87 "/>
       <path id="1" class="fil168" d="M220 94l8 0 0 0 -8 0 0 0 0 0zm0 0l0 0 0 0 0 0zm0 -7l0 7 0 0 0 -7 0 0 0 0zm0 0l0 0 0 0 0 0zm8 0l-8 0 0 0 8 0 0 0 0 0zm0 0l0 0 0 0 0 0zm0 7l0 -7 0 0 0 7 0 0 0 0zm0 0l0 0 0 0 0 0z"/>
      </g>
      <g>
       <polygon class="fil171" points="228,94 240,94 240,87 228,87 "/>
       <path id="1" class="fil168" d="M240 94l0 0 0 0 -12 0 0 0 12 0zm0 0l0 0 0 0 0 0zm0 -7l0 0 0 0 0 7 0 0 0 -7zm0 0l0 0 0 0 0 0zm-12 0l0 0 0 0 12 0 0 0 -12 0zm0 0l0 0 0 0 0 0zm0 7l0 0 0 0 0 -7 0 0 0 7zm0 0l0 0 0 0 0 0z"/>
      </g>
      <g>
       <polygon class="fil171" points="147,94 156,94 156,101 147,101 "/>
       <path id="1" class="fil168" d="M156 94l-9 0 0 0 9 0 0 0 0 0zm0 0l0 0 0 0 0 0zm0 7l0 -7 0 0 0 7 0 0 0 0zm0 0l0 0 0 0 0 0zm-9 0l9 0 0 0 -9 0 0 0 0 0zm0 0l0 0 0 0 0 0zm0 -7l0 7 0 0 0 -7 0 0 0 0zm0 0l0 0 0 0 0 0z"/>
      </g>
      <g>
       <polygon class="fil171" points="208,94 156,94 156,101 208,101 "/>
       <path id="1" class="fil168" d="M156 94l0 0 0 0 52 0 0 0 -52 0zm0 0l0 0 0 0 0 0zm0 7l0 0 0 0 0 -7 0 0 0 7zm0 0l0 0 0 0 0 0zm52 0l0 0 0 0 -52 0 0 0 52 0zm0 0l0 0 0 0 0 0zm0 -7l0 0 0 0 0 7 0 0 0 -7zm0 0l0 0 0 0 0 0z"/>
      </g>
      <g>
       <polygon class="fil171" points="208,94 220,94 220,101 208,101 "/>
       <path id="1" class="fil168" d="M220 94l-12 0 0 0 12 0 0 0 0 0zm0 0l0 0 0 0 0 0zm0 7l0 -7 0 0 0 7 0 0 0 0zm0 0l0 0 0 0 0 0zm-12 0l12 0 0 0 -12 0 0 0 0 0zm0 0l0 0 0 0 0 0zm0 -7l0 7 0 0 0 -7 0 0 0 0zm0 0l0 0 0 0 0 0z"/>
      </g>
      <g>
       <polygon class="fil171" points="228,94 220,94 220,101 228,101 "/>
       <path id="1" class="fil168" d="M220 94l0 0 0 0 8 0 0 0 -8 0zm0 0l0 0 0 0 0 0zm0 7l0 0 0 0 0 -7 0 0 0 7zm0 0l0 0 0 0 0 0zm8 0l0 0 0 0 -8 0 0 0 8 0zm0 0l0 0 0 0 0 0zm0 -7l0 0 0 0 0 7 0 0 0 -7zm0 0l0 0 0 0 0 0z"/>
      </g>
      <g>
       <polygon class="fil171" points="228,94 240,94 240,101 228,101 "/>
       <path id="1" class="fil168" d="M240 94l-12 0 0 0 12 0 0 0 0 0zm0 0l0 0 0 0 0 0zm0 7l0 -7 0 0 0 7 0 0 0 0zm0 0l0 0 0 0 0 0zm-12 0l12 0 0 0 -12 0 0 0 0 0zm0 0l0 0 0 0 0 0zm0 -7l0 7 0 0 0 -7 0 0 0 0zm0 0l0 0 0 0 0 0z"/>
      </g>
      <g>
       <polygon class="fil171" points="147,108 156,108 156,101 147,101 "/>
       <path id="1" class="fil168" d="M156 108l0 0 0 0 -9 0 0 0 9 0zm0 0l0 0 0 0 0 0zm0 -7l0 0 0 0 0 7 0 0 0 -7zm0 0l0 0 0 0 0 0zm-9 0l0 0 0 0 9 0 0 0 -9 0zm0 0l0 0 0 0 0 0zm0 7l0 0 0 0 0 -7 0 0 0 7zm0 0l0 0 0 0 0 0z"/>
      </g>
      <g>
       <polygon class="fil171" points="208,108 156,108 156,101 208,101 "/>
       <path id="1" class="fil168" d="M156 108l52 0 0 0 -52 0 0 0 0 0zm0 0l0 0 0 0 0 0zm0 -7l0 7 0 0 0 -7 0 0 0 0zm0 0l0 0 0 0 0 0zm52 0l-52 0 0 0 52 0 0 0 0 0zm0 0l0 0 0 0 0 0zm0 7l0 -7 0 0 0 7 0 0 0 0zm0 0l0 0 0 0 0 0z"/>
      </g>
      <g>
       <polygon class="fil171" points="208,108 220,108 220,101 208,101 "/>
       <path id="1" class="fil168" d="M220 108l0 0 0 0 -12 0 0 0 12 0zm0 0l0 0 0 0 0 0zm0 -7l0 0 0 0 0 7 0 0 0 -7zm0 0l0 0 0 0 0 0zm-12 0l0 0 0 0 12 0 0 0 -12 0zm0 0l0 0 0 0 0 0zm0 7l0 0 0 0 0 -7 0 0 0 7zm0 0l0 0 0 0 0 0z"/>
      </g>
      <g>
       <polygon class="fil171" points="228,108 220,108 220,101 228,101 "/>
       <path id="1" class="fil168" d="M220 108l8 0 0 0 -8 0 0 0 0 0zm0 0l0 0 0 0 0 0zm0 -7l0 7 0 0 0 -7 0 0 0 0zm0 0l0 0 0 0 0 0zm8 0l-8 0 0 0 8 0 0 0 0 0zm0 0l0 0 0 0 0 0zm0 7l0 -7 0 0 0 7 0 0 0 0zm0 0l0 0 0 0 0 0z"/>
      </g>
      <g>
       <polygon class="fil171" points="228,108 240,108 240,101 228,101 "/>
       <path id="1" class="fil168" d="M240 108l0 0 0 0 -12 0 0 0 12 0zm0 0l0 0 0 0 0 0zm0 -7l0 0 0 0 0 7 0 0 0 -7zm0 0l0 0 0 0 0 0zm-12 0l0 0 0 0 12 0 0 0 -12 0zm0 0l0 0 0 0 0 0zm0 7l0 0 0 0 0 -7 0 0 0 7zm0 0l0 0 0 0 0 0z"/>
      </g>
      <g>
       <polygon class="fil171" points="147,108 156,108 156,115 147,115 "/>
       <path id="1" class="fil168" d="M156 108l-9 0 0 0 9 0 0 0 0 0zm0 0l0 0 0 0 0 0zm0 7l0 -7 0 0 0 7 0 0 0 0zm0 0l0 0 0 0 0 0zm-9 0l9 0 0 0 -9 0 0 0 0 0zm0 0l0 0 0 0 0 0zm0 -7l0 7 0 0 0 -7 0 0 0 0zm0 0l0 0 0 0 0 0z"/>
      </g>
      <g>
       <polygon class="fil171" points="208,108 156,108 156,115 208,115 "/>
       <path id="1" class="fil168" d="M156 108l0 0 0 0 52 0 0 0 -52 0zm0 0l0 0 0 0 0 0zm0 7l0 0 0 0 0 -7 0 0 0 7zm0 0l0 0 0 0 0 0zm52 0l0 0 0 0 -52 0 0 0 52 0zm0 0l0 0 0 0 0 0zm0 -7l0 0 0 0 0 7 0 0 0 -7zm0 0l0 0 0 0 0 0z"/>
      </g>
      <g>
       <polygon class="fil171" points="208,108 220,108 220,115 208,115 "/>
       <path id="1" class="fil168" d="M220 108l-12 0 0 0 12 0 0 0 0 0zm0 0l0 0 0 0 0 0zm0 7l0 -7 0 0 0 7 0 0 0 0zm0 0l0 0 0 0 0 0zm-12 0l12 0 0 0 -12 0 0 0 0 0zm0 0l0 0 0 0 0 0zm0 -7l0 7 0 0 0 -7 0 0 0 0zm0 0l0 0 0 0 0 0z"/>
      </g>
      <g>
       <polygon class="fil171" points="228,108 220,108 220,115 228,115 "/>
       <path id="1" class="fil168" d="M220 108l0 0 0 0 8 0 0 0 -8 0zm0 0l0 0 0 0 0 0zm0 7l0 0 0 0 0 -7 0 0 0 7zm0 0l0 0 0 0 0 0zm8 0l0 0 0 0 -8 0 0 0 8 0zm0 0l0 0 0 0 0 0zm0 -7l0 0 0 0 0 7 0 0 0 -7zm0 0l0 0 0 0 0 0z"/>
      </g>
      <g>
       <polygon class="fil171" points="228,108 240,108 240,115 228,115 "/>
       <path id="1" class="fil168" d="M240 108l-12 0 0 0 12 0 0 0 0 0zm0 0l0 0 0 0 0 0zm0 7l0 -7 0 0 0 7 0 0 0 0zm0 0l0 0 0 0 0 0zm-12 0l12 0 0 0 -12 0 0 0 0 0zm0 0l0 0 0 0 0 0zm0 -7l0 7 0 0 0 -7 0 0 0 0zm0 0l0 0 0 0 0 0z"/>
      </g>
      <g>
       <polygon class="fil171" points="147,122 156,122 156,115 147,115 "/>
       <path id="1" class="fil168" d="M156 122l0 0 0 0 -9 0 0 0 9 0zm0 0l0 0 0 0 0 0zm0 -7l0 0 0 0 0 7 0 0 0 -7zm0 0l0 0 0 0 0 0zm-9 0l0 0 0 0 9 0 0 0 -9 0zm0 0l0 0 0 0 0 0zm0 7l0 0 0 0 0 -7 0 0 0 7zm0 0l0 0 0 0 0 0z"/>
      </g>
      <g>
       <polygon class="fil171" points="208,122 156,122 156,115 208,115 "/>
       <path id="1" class="fil168" d="M156 122l52 0 0 0 -52 0 0 0 0 0zm0 0l0 0 0 0 0 0zm0 -7l0 7 0 0 0 -7 0 0 0 0zm0 0l0 0 0 0 0 0zm52 0l-52 0 0 0 52 0 0 0 0 0zm0 0l0 0 0 0 0 0zm0 7l0 -7 0 0 0 7 0 0 0 0zm0 0l0 0 0 0 0 0z"/>
      </g>
      <g>
       <polygon class="fil171" points="208,122 220,122 220,115 208,115 "/>
       <path id="1" class="fil168" d="M220 122l0 0 0 0 -12 0 0 0 12 0zm0 0l0 0 0 0 0 0zm0 -7l0 0 0 0 0 7 0 0 0 -7zm0 0l0 0 0 0 0 0zm-12 0l0 0 0 0 12 0 0 0 -12 0zm0 0l0 0 0 0 0 0zm0 7l0 0 0 0 0 -7 0 0 0 7zm0 0l0 0 0 0 0 0z"/>
      </g>
      <g>
       <polygon class="fil171" points="228,122 220,122 220,115 228,115 "/>
       <path id="1" class="fil168" d="M220 122l8 0 0 0 -8 0 0 0 0 0zm0 0l0 0 0 0 0 0zm0 -7l0 7 0 0 0 -7 0 0 0 0zm0 0l0 0 0 0 0 0zm8 0l-8 0 0 0 8 0 0 0 0 0zm0 0l0 0 0 0 0 0zm0 7l0 -7 0 0 0 7 0 0 0 0zm0 0l0 0 0 0 0 0z"/>
      </g>
      <g>
       <polygon class="fil171" points="228,122 240,122 240,115 228,115 "/>
       <path id="1" class="fil168" d="M240 122l0 0 0 0 -12 0 0 0 12 0zm0 0l0 0 0 0 0 0zm0 -7l0 0 0 0 0 7 0 0 0 -7zm0 0l0 0 0 0 0 0zm-12 0l0 0 0 0 12 0 0 0 -12 0zm0 0l0 0 0 0 0 0zm0 7l0 0 0 0 0 -7 0 0 0 7zm0 0l0 0 0 0 0 0z"/>
      </g>
      <polygon class="fil167" points="204,89 159,89 159,92 204,92 "/>
      <polygon class="fil167" points="199,96 159,96 159,98 199,99 "/>
      <polygon class="fil172" points="205,82 159,83 159,85 205,85 "/>
      <polygon class="fil167" points="203,104 159,104 159,106 203,107 "/>
      <polygon class="fil172" points="154,83 150,83 149,85 154,85 "/>
      <polygon class="fil167" points="154,89 149,89 149,92 153,92 "/>
      <polygon class="fil167" points="154,96 150,96 150,98 154,99 "/>
      <polygon class="fil167" points="154,103 150,103 150,105 154,105 "/>
     </g>
    </g>
    <g>
     <rect class="fil173 str1" transform="matrix(0.192456 0.00443035 -0.00443035 0.192456 254.961 17.7058)" width="253" height="321" rx="20" ry="20"/>
     <rect class="fil1" transform="matrix(0.187658 0.00431991 -0.00431991 0.187658 255.55 18.4905)" width="253" height="321" rx="20" ry="20"/>
     <path class="fil174" d="M260 20l38 1c2,0 4,1 4,3l0 16 -46 -1 0 -16c0,-2 2,-3 4,-3z"/>
     <polygon class="fil175" points="258,25 300,26 300,36 257,35 "/>
     <rect class="fil171" transform="matrix(0.191101 0.00439916 -0.00439916 0.191101 258.465 43.2745)" width="36.4587" height="17.0902" rx="6" ry="6"/>
     <rect class="fil171" transform="matrix(0.191101 0.00439916 -0.00439916 0.191101 266.739 43.465)" width="36.4587" height="17.0902" rx="6" ry="6"/>
     <rect class="fil171" transform="matrix(0.191101 0.00439916 -0.00439916 0.191101 275.012 43.6555)" width="36.4587" height="17.0902" rx="6" ry="6"/>
     <rect class="fil171" transform="matrix(0.191101 0.00439916 -0.00439916 0.191101 283.286 43.8459)" width="36.4587" height="17.0902" rx="6" ry="6"/>
     <rect class="fil171" transform="matrix(0.191101 0.00439916 -0.00439916 0.191101 292.075 44.0482)" width="36.4587" height="17.0902" rx="6" ry="6"/>
     <rect class="fil176" transform="matrix(0.191101 0.00439916 -0.00439916 0.191101 258.345 48.5001)" width="37.5985" height="29.6226" rx="7" ry="7"/>
     <rect class="fil176" transform="matrix(0.191101 0.00439916 -0.00439916 0.191101 266.51 48.688)" width="37.5985" height="29.6226" rx="7" ry="7"/>
     <rect class="fil176" transform="matrix(0.191101 0.00439916 -0.00439916 0.191101 274.674 48.876)" width="37.5985" height="29.6226" rx="7" ry="7"/>
     <rect class="fil171" transform="matrix(0.191101 0.00439916 -0.00439916 0.191101 282.839 49.0639)" width="37.5985" height="29.6226" rx="7" ry="7"/>
     <rect class="fil171" transform="matrix(0.191101 0.00439916 -0.00439916 0.191101 291.737 49.2688)" width="37.5985" height="29.6226" rx="7" ry="7"/>
     <rect class="fil176" transform="matrix(0.191101 0.00439916 -0.00439916 0.191101 258.184 55.4673)" width="37.5985" height="29.6226" rx="7" ry="7"/>
     <rect class="fil176" transform="matrix(0.191101 0.00439916 -0.00439916 0.191101 266.349 55.6553)" width="37.5985" height="29.6226" rx="7" ry="7"/>
     <rect class="fil176" transform="matrix(0.191101 0.00439916 -0.00439916 0.191101 274.514 55.8433)" width="37.5985" height="29.6226" rx="7" ry="7"/>
     <rect class="fil171" transform="matrix(0.191101 0.00439916 -0.00439916 0.191101 282.679 56.0312)" width="37.5985" height="29.6226" rx="7" ry="7"/>
     <rect class="fil171" transform="matrix(0.191101 0.00439916 -0.00439916 0.191101 291.577 56.236)" width="37.5985" height="29.6226" rx="7" ry="7"/>
     <rect class="fil176" transform="matrix(0.191101 0.00439916 -0.00439916 0.191101 258.024 62.4346)" width="37.5985" height="29.6226" rx="7" ry="7"/>
     <rect class="fil176" transform="matrix(0.191101 0.00439916 -0.00439916 0.191101 266.189 62.6226)" width="37.5985" height="29.6226" rx="7" ry="7"/>
     <rect class="fil176" transform="matrix(0.191101 0.00439916 -0.00439916 0.191101 274.354 62.8106)" width="37.5985" height="29.6226" rx="7" ry="7"/>
     <path class="fil176" d="M284 63l4 0c1,0 2,1 2,1l-1 11c0,1 0,1 -1,1l-5 0c0,0 -1,-1 -1,-1l0 -11c1,0 1,-1 2,-1z"/>
     <rect class="fil171" transform="matrix(0.191101 0.00439916 -0.00439916 0.191101 291.416 63.2033)" width="37.5985" height="29.6226" rx="7" ry="7"/>
     <rect class="fil176" transform="matrix(0.191101 0.00439916 -0.00439916 0.191101 257.852 69.8854)" width="37.5985" height="29.6226" rx="7" ry="7"/>
     <rect class="fil176" transform="matrix(0.191101 0.00439916 -0.00439916 0.191101 266.017 70.0733)" width="37.5985" height="29.6226" rx="7" ry="7"/>
     <rect class="fil176" transform="matrix(0.191101 0.00439916 -0.00439916 0.191101 274.182 70.2613)" width="37.5985" height="29.6226" rx="7" ry="7"/>
     <rect class="fil171" transform="matrix(0.191101 0.00439916 -0.00439916 0.191101 291.245 70.6541)" width="37.5985" height="29.6226" rx="7" ry="7"/>
     <polygon class="fil168" points="262,67 262,67 262,64 261,64 261,64 262,64 262,64 "/>
     <path class="fil168" d="M263 73c0,1 0,1 -1,1 0,0 0,1 0,1 -1,0 -1,-1 -1,-1 0,0 0,0 0,-1l0 0c0,-1 0,-1 0,-2 0,0 0,0 1,0 0,0 0,0 1,0 0,1 0,1 0,2l0 0zm-1 -1c0,0 0,0 0,0 0,0 0,-1 0,-1 0,0 -1,0 -1,1 0,0 0,0 0,0l0 1c0,0 0,1 0,1 0,0 0,0 1,0 0,0 0,0 0,0 0,0 0,0 0,-1l0 -1z"/>
     <path class="fil168" d="M271 67l-2 0 0 0 1 -1c0,-1 0,-1 0,-1 0,0 0,0 0,0 0,0 0,-1 0,-1 0,0 0,0 0,0 0,0 -1,0 -1,0 0,0 0,1 0,1l0 0c0,0 0,-1 0,-1 0,0 0,0 1,0 0,0 0,0 0,0 1,0 1,0 1,1 0,0 0,0 -1,1l-1 1 2 0 0 0z"/>
     <path class="fil168" d="M277 66l1 0c0,0 0,-1 0,-1 0,0 0,0 0,0 0,0 0,-1 0,-1 0,0 0,0 -1,0 0,1 0,1 0,1l0 0c0,0 0,-1 0,-1 0,0 1,0 1,0 0,0 0,0 1,0 0,0 0,1 0,1 0,0 0,0 0,0 0,1 -1,1 -1,1 1,0 1,0 1,0 0,0 0,0 0,1 0,0 0,0 0,0 -1,0 -1,1 -1,1 -1,0 -1,-1 -1,-1 0,0 0,0 0,0l0 0c0,0 0,0 0,0 0,0 1,0 1,0 0,0 0,0 0,0 0,0 0,0 0,0 0,-1 0,-1 0,-1 0,0 0,0 0,0l-1 0 0 0z"/>
     <path class="fil168" d="M263 59l0 0 0 0 0 0 0 1 -1 0 0 -1 -1 0 0 0 1 -2 1 0 0 2zm-2 0l1 0 0 -2 0 0 -1 2z"/>
     <path class="fil168" d="M269 59l0 -2 2 0 0 0 -1 0 -1 1c1,0 1,0 1,0 0,0 1,0 1,0 0,1 0,1 0,1 0,1 0,1 0,1 0,0 -1,0 -1,0 0,0 -1,0 -1,0 0,0 0,0 0,-1l0 0c0,1 0,1 0,1 1,0 1,0 1,0 0,0 0,0 0,0 1,0 1,-1 1,-1 0,0 0,0 -1,0 0,0 0,-1 0,-1 0,0 0,1 -1,1l0 0 0 0z"/>
     <path class="fil168" d="M279 57l0 0 0 0c-1,0 -1,1 -1,1 0,0 -1,0 -1,1 1,-1 1,-1 1,-1 0,0 1,0 1,1 0,0 0,0 0,0 0,1 0,1 0,1 0,0 -1,1 -1,1 0,0 -1,-1 -1,-1 0,0 0,0 0,-1l0 0c0,-1 0,-1 0,-1 1,-1 1,-1 2,-1l0 0zm-1 2c0,0 0,0 0,0 0,0 -1,0 -1,0l0 0c0,1 0,1 1,1 0,0 0,0 0,0 0,0 0,0 1,0 0,0 0,0 0,-1 0,0 0,0 0,0 -1,0 -1,0 -1,0z"/>
     <polygon class="fil168" points="263,50 262,53 261,53 263,50 261,50 261,50 263,50 "/>
     <path class="fil168" d="M271 51c0,0 0,0 0,0 0,0 0,1 0,1 0,0 0,0 0,0 0,0 0,0 0,0 0,1 0,1 0,1 0,0 -1,0 -1,0 0,0 -1,0 -1,0 0,0 0,0 0,-1 0,0 0,0 0,0 0,0 0,0 1,0 -1,-1 -1,-1 -1,-1 0,0 0,0 0,0 0,-1 0,-1 0,-1 1,0 1,0 1,0 0,0 1,0 1,0 0,0 0,1 0,1zm0 1c0,0 0,0 -1,0 0,0 0,0 0,0 0,0 0,0 0,0 -1,0 -1,0 -1,0 0,1 0,1 1,1 0,0 0,0 0,0 0,0 0,0 0,0 1,0 1,0 1,-1zm-1 -2c0,0 0,0 0,0 0,0 -1,1 -1,1 0,0 1,0 1,0 0,0 0,0 0,0 0,0 0,0 0,0 1,0 1,0 1,0 0,0 0,0 -1,-1 0,0 0,0 0,0z"/>
     <path class="fil168" d="M279 52c0,0 0,0 -1,0 0,0 0,0 0,0 0,0 0,0 0,0 -1,0 -1,0 -1,0 0,0 0,-1 0,-1 0,0 0,0 0,0 0,-1 0,-1 1,-1 0,0 0,0 0,0 1,0 1,0 1,0 0,1 0,1 0,2l0 0c0,0 0,1 0,1 0,0 -1,1 -1,1l0 0 0 -1 0 0c0,0 0,0 0,0 1,0 1,-1 1,-1zm-1 0c0,0 0,0 1,0 0,0 0,0 0,0l0 -1c0,0 0,0 0,0 0,0 -1,-1 -1,-1 0,0 0,0 0,1 0,0 0,0 0,0 0,0 0,1 0,1 0,0 0,0 0,0z"/>
     <path class="fil168" d="M269 73c0,0 0,0 0,0 0,0 0,0 1,0 0,0 0,0 0,0 0,0 0,0 0,0 0,0 0,0 0,0 0,0 0,0 0,0 -1,0 -1,0 -1,0 0,0 0,0 0,0z"/>
     <path class="fil168" d="M279 73l-2 0 0 -1 2 1 0 0zm0 1l-2 0 0 -1 2 1 0 0z"/>
     <polygon class="fil168" points="286,69 287,69 287,70 286,70 286,71 286,71 286,70 285,70 285,69 286,69 286,68 286,68 "/>
     <rect class="fil177" transform="matrix(0.191101 0.00439916 -0.00439916 0.191101 257.64 22.3423)" width="54.6887" height="10.2541"/>
    </g>
    <g>
     <g>
      <polygon class="fil178" points="259,120 309,120 310,93 260,93 "/>
      <path class="fil179" d="M307 101l0 12c-3,0 -5,2 -5,4l-35 0c0,-3 -2,-5 -5,-5l0 -12c3,0 5,-2 5,-4l35 0c0,3 2,5 5,5z"/>
      <path class="fil180" d="M260 103l-1 17 17 0c-4,0 -8,-2 -12,-5 -3,-3 -4,-8 -4,-12z"/>
      <polygon class="fil181" points="295,108 299,108 299,106 295,106 "/>
      <polygon class="fil181" points="270,108 274,108 274,105 270,105 "/>
     </g>
     <path class="fil182" d="M286 109c0,0 0,0 0,-1 -1,0 -1,0 -2,0 0,-1 -1,-1 -1,-1 0,0 -1,0 -1,-1 0,0 -1,0 -1,-1 0,0 0,-1 0,-1 0,-1 0,-2 1,-2 0,-1 1,-1 2,-1l0 -2 1 0 0 2c1,0 2,0 3,1 0,1 0,1 0,2l-2 0c0,0 0,-1 0,-1 -1,0 -1,0 -1,0 -1,0 -1,0 -1,0 -1,0 -1,0 -1,1 0,0 0,1 1,1 0,0 0,0 1,1 1,0 1,0 2,0 0,1 0,1 1,1 0,0 0,1 0,1 0,1 0,1 0,1 0,1 0,2 0,3 -1,0 -2,1 -3,1l0 1 -1 0 0 -1c-1,0 -2,-1 -3,-2 0,0 -1,-1 -1,-2l3 0c0,0 0,1 0,1 1,1 1,1 2,1 0,0 0,0 1,-1 0,0 0,0 0,-1z"/>
    </g>
    <g>
     <g>
      <polygon class="fil183" points="257,117 307,118 308,91 258,90 "/>
      <path class="fil179" d="M305 98l0 12c-3,0 -5,2 -5,5l-35 -1c0,-2 -2,-4 -5,-4l0 -12c3,0 5,-2 5,-5l35 0c0,3 2,5 5,5z"/>
      <path class="fil184" d="M258 100l-1 17 17 0c-4,0 -8,-1 -12,-5 -3,-3 -4,-7 -4,-12z"/>
      <polygon class="fil181" points="293,105 297,105 297,103 293,103 "/>
      <polygon class="fil181" points="268,105 272,105 272,103 268,103 "/>
     </g>
     <path class="fil182" d="M284 107c0,-1 0,-1 0,-1 -1,-1 -1,-1 -2,-1 0,0 -1,0 -1,-1 0,0 -1,0 -1,0 0,-1 -1,-1 -1,-1 0,-1 0,-1 0,-2 0,-1 0,-1 1,-2 0,-1 1,-1 2,-1l0 -2 1 0 0 2c1,0 2,1 3,1 0,1 0,2 0,3l-2 0c0,-1 0,-1 0,-2 -1,0 -1,0 -1,0 -1,0 -1,0 -1,0 -1,0 -1,1 -1,1 0,1 0,1 1,1 0,0 0,1 1,1 1,0 1,0 1,1 1,0 1,0 2,0 0,1 0,1 0,1 0,1 0,1 0,2 0,1 0,1 0,2 -1,1 -2,1 -3,1l0 2 -1 0 0 -2c-1,0 -2,-1 -3,-1 0,-1 -1,-2 -1,-3l3 0c0,1 0,1 0,2 1,0 1,0 2,0 0,0 0,0 1,0 0,0 0,-1 0,-1z"/>
    </g>
    <g>
     <g>
      <polygon class="fil185" points="255,116 305,116 305,89 255,88 "/>
      <path class="fil179" d="M303 97l-1 11c-2,0 -4,3 -4,5l-36 0c0,-3 -2,-5 -5,-5l1 -12c2,0 4,-2 4,-5l36 1c0,2 2,5 5,5z"/>
      <path class="fil186" d="M255 99l0 17 17 0c-5,0 -9,-2 -12,-5 -3,-4 -5,-8 -5,-12z"/>
      <polygon class="fil181" points="290,104 295,104 295,101 290,101 "/>
      <polygon class="fil181" points="265,103 270,103 270,101 265,101 "/>
     </g>
     <path class="fil182" d="M282 105c0,0 -1,-1 -1,-1 0,0 0,0 -1,-1 -1,0 -1,0 -2,0 0,-1 0,-1 -1,-1 0,0 0,-1 0,-1 0,0 -1,-1 -1,-1 0,-1 1,-2 1,-3 1,0 2,-1 3,-1l0 -1 1 0 0 1c1,0 2,1 2,2 1,0 1,1 1,2l-2 0c0,-1 0,-1 -1,-1 0,-1 0,-1 -1,-1 0,0 -1,0 -1,1 0,0 0,0 0,1 0,0 0,0 0,1 0,0 1,0 1,0 1,1 2,1 2,1 0,0 1,1 1,1 0,0 1,0 1,1 0,0 0,1 0,1 0,1 0,2 -1,2 -1,1 -1,1 -2,1l0 2 -2 0 0 -2c-1,0 -2,0 -2,-1 -1,-1 -1,-1 -1,-3l2 0c0,1 0,2 1,2 0,0 0,0 1,0 1,0 1,0 1,0 0,0 1,0 1,-1z"/>
    </g>
    <g>
     <circle class="fil187" cx="264" cy="139" r="8"/>
     <circle class="fil188" cx="264" cy="139" r="7"/>
     <path class="fil189" d="M265 141c0,0 0,0 0,0 0,-1 -1,-1 -1,-1 -1,0 -1,0 -1,0 0,-1 -1,-1 -1,-1 0,0 0,0 0,-1 -1,0 -1,0 -1,-1 0,0 1,-1 1,-1 0,0 1,-1 2,-1l0 -1 1 0 0 1c0,0 1,1 1,1 0,1 1,1 1,2l-2 0c0,-1 0,-1 0,-1 0,0 -1,-1 -1,-1 0,0 -1,1 -1,1 0,0 0,0 0,0 0,1 0,1 0,1 0,0 1,1 1,1 1,0 1,0 1,0 1,0 1,1 1,1 0,0 0,0 0,0 1,1 1,1 1,1 0,1 -1,1 -1,2 0,0 -1,0 -2,1l0 1 0 0 0 -1c-1,-1 -2,-1 -2,-1 -1,-1 -1,-1 -1,-2l2 0c0,0 0,1 0,1 0,0 1,0 1,0 0,0 1,0 1,0 0,0 0,0 0,-1z"/>
    </g>
    <g>
     <circle class="fil187" cx="281" cy="130" r="8"/>
     <circle class="fil188" cx="281" cy="130" r="7"/>
     <path class="fil189" d="M282 132c0,0 0,-1 0,-1 0,0 0,0 -1,0 0,-1 0,-1 -1,-1 0,0 0,0 -1,0 0,-1 0,-1 0,-1 0,0 0,-1 0,-1 0,-1 0,-1 0,-2 1,0 1,0 2,0l0 -1 1 0 0 1c1,0 1,0 1,1 1,0 1,1 1,1l-2 0c0,0 0,0 0,-1 0,0 0,0 -1,0 0,0 0,0 0,0 0,0 -1,1 -1,1 0,0 1,1 1,1 0,0 0,0 1,0 0,0 0,1 1,1 0,0 0,0 0,0 1,0 1,1 1,1 0,0 0,1 0,1 0,0 0,1 -1,1 0,1 -1,1 -1,1l0 1 -1 0 0 -1c-1,0 -1,0 -2,-1 0,0 -1,-1 -1,-2l2 0c0,1 0,1 0,1 1,1 1,1 1,1 1,0 1,0 1,0 0,-1 0,-1 0,-1z"/>
    </g>
    <polygon class="fil190" points="180,161 172,161 172,183 166,183 166,161 158,161 158,156 180,156 "/>
    <path id="1" class="fil190" d="M197 178l-10 0 -2 5 -6 0 10 -27 6 0 10 27 -6 0 -2 -5zm-8 -5l7 0 -4 -10 -3 10z"/>
    <polygon id="2" class="fil190" points="218,166 223,156 229,156 221,170 229,183 223,183 218,174 212,183 206,183 214,170 206,156 212,156 "/>
    <g>
     <path class="fil191" d="M58 81l9 10 -53 49 -9 -10 53 -49zm79 -47c2,4 3,8 3,13 0,20 -16,35 -36,35 -15,0 -28,-9 -33,-23 -1,0 -2,0 -2,-1 0,2 1,4 2,6 0,1 -1,1 -1,1 0,0 3,4 6,8l0 0c0,0 -1,-1 -1,-1 -2,-3 -3,-4 -3,-4 0,0 -1,2 -1,4l0 0c-1,-1 -1,-1 -2,0l0 0c0,0 0,1 0,1l1 0 -1 1 0 -1c0,0 -1,0 -1,0l0 0c-1,1 -1,1 0,2l0 0 -5 5 0 0c-1,-1 -1,-1 -2,0l0 0c0,0 0,1 0,1l1 0 -1 0 0 0c0,0 -1,0 -1,0l0 0c-1,1 -1,1 0,2l0 0 0 0 6 6 0 0c0,0 1,0 1,0l0 0c0,0 0,-1 0,-1l0 -1 0 0c1,1 1,1 2,0l0 0c0,0 0,-1 0,-1l0 0 5 -5c0,1 1,1 1,0l0 0c0,0 0,-1 0,-1l0 -1 0 0c1,1 1,1 2,0l0 0c0,0 0,0 0,-1l5 1c0,0 -1,-1 -1,-2 1,2 3,3 3,3 0,0 0,-1 1,-1 0,0 1,1 2,1 18,10 41,3 51,-15 6,-11 6,-24 1,-34 -1,1 -1,2 -2,3z"/>
     <g>
      <polygon class="fil192" points="57,78 67,89 14,138 4,127 "/>
      <path class="fil193" d="M70 70l-11 10 6 7 11 -11 5 0c0,0 -5,-5 -7,-7 -2,-2 -3,-4 -3,-4 0,0 -1,3 -1,5z"/>
      <rect class="fil194" transform="matrix(0.155793 0.166283 -0.114977 0.118977 61.3998 76.4416)" width="46.7128" height="11.3926" rx="6" ry="6"/>
      <rect class="fil194" transform="matrix(0.157369 0.168023 -0.118292 0.135812 59.5581 77.952)" width="46.7128" height="11.3926" rx="6" ry="6"/>
      <rect class="fil194" transform="matrix(0.155793 0.166283 -0.114977 0.118977 69.3165 68.5539)" width="46.7128" height="11.3926" rx="6" ry="6"/>
      <rect class="fil194" transform="matrix(0.157369 0.168023 -0.118292 0.135812 67.4747 70.0644)" width="46.7128" height="11.3926" rx="6" ry="6"/>
      <path class="fil195" d="M69 63c0,0 3,4 6,8 4,3 8,6 8,6 0,0 2,-2 3,-2 0,-1 -4,-4 -7,-7 -3,-3 -5,-6 -5,-7 -1,-1 -1,-1 -2,-1 0,0 -2,2 -3,3z"/>
      <path class="fil13 str2" d="M122 11c18,10 25,33 15,51 -10,19 -33,26 -51,16 -18,-10 -25,-33 -15,-51 9,-19 32,-26 51,-16zm-2 2c18,10 24,31 15,48 -9,17 -31,24 -48,15 -17,-10 -23,-31 -14,-48 9,-17 30,-24 47,-15z"/>
      <path class="fil196" d="M120 13c18,10 24,31 15,48 -9,17 -31,24 -48,15 -17,-10 -23,-31 -14,-48 9,-17 30,-24 47,-15z"/>
     </g>
    </g>
   </g>
   <rect class="fil197" width="316" height="199"/>
  </g>
 </g>
</svg>
