<?xml version="1.0" encoding="UTF-8"?>
<!DOCTYPE svg PUBLIC "-//W3C//DTD SVG 1.1//EN" "http://www.w3.org/Graphics/SVG/1.1/DTD/svg11.dtd">
<!-- Creator: CorelDRAW X7 -->
<svg xmlns="http://www.w3.org/2000/svg" xml:space="preserve" width="276px" height="197px" version="1.1" style="shape-rendering:geometricPrecision; text-rendering:geometricPrecision; image-rendering:optimizeQuality; fill-rule:evenodd; clip-rule:evenodd"
viewBox="0 0 275 196"
 xmlns:xlink="http://www.w3.org/1999/xlink">
 <defs>
  <style type="text/css">
   <![CDATA[
    .fil0 {fill:none}
    .fil24 {fill:#A98F71}
    .fil20 {fill:black}
    .fil25 {fill:#BA9D72}
    .fil23 {fill:#E4BF87}
    .fil12 {fill:#BDBFC1;fill-rule:nonzero}
    .fil14 {fill:#A9ABAE;fill-rule:nonzero}
    .fil15 {fill:#727376;fill-rule:nonzero}
    .fil19 {fill:#F6B998;fill-rule:nonzero}
    .fil13 {fill:#EEA880;fill-rule:nonzero}
    .fil5 {fill:#E8E9EC;fill-rule:nonzero}
    .fil16 {fill:#EBE1B6;fill-rule:nonzero}
    .fil17 {fill:#D97839;fill-rule:nonzero}
    .fil7 {fill:#CDCFD6;fill-rule:nonzero}
    .fil22 {fill:#BBBBBA;fill-rule:nonzero}
    .fil4 {fill:#A3A9B3;fill-rule:nonzero}
    .fil10 {fill:#9DA2AF;fill-rule:nonzero}
    .fil9 {fill:#4E4E53;fill-rule:nonzero}
    .fil21 {fill:#00AFEF;fill-rule:nonzero}
    .fil11 {fill:black;fill-rule:nonzero}
    .fil3 {fill:#2887D2;fill-rule:nonzero}
    .fil18 {fill:#BFC3C4;fill-rule:nonzero}
    .fil2 {fill:url(#id0);fill-rule:nonzero}
    .fil1 {fill:url(#id1);fill-rule:nonzero}
    .fil6 {fill:url(#id2);fill-rule:nonzero}
    .fil8 {fill:url(#id3);fill-rule:nonzero}
   ]]>
  </style>
  <linearGradient id="id0" gradientUnits="userSpaceOnUse" x1="137.401" y1="31.7053" x2="138.6" y2="-2.82677">
   <stop offset="0" style="stop-opacity:1; stop-color:#848688"/>
   <stop offset="1" style="stop-opacity:1; stop-color:white"/>
  </linearGradient>
  <linearGradient id="id1" gradientUnits="userSpaceOnUse" xlink:href="#id0" x1="136.191" y1="158.348" x2="139.809" y2="14.2904">
  </linearGradient>
  <linearGradient id="id2" gradientUnits="userSpaceOnUse" x1="159.422" y1="47.8398" x2="182.432" y2="47.8398">
   <stop offset="0" style="stop-opacity:1; stop-color:#91D8F7"/>
   <stop offset="1" style="stop-opacity:1; stop-color:#25A6D9"/>
  </linearGradient>
  <linearGradient id="id3" gradientUnits="userSpaceOnUse" xlink:href="#id2" x1="191.456" y1="47.8398" x2="214.465" y2="47.8398">
  </linearGradient>
 </defs>
 <g id="Layer_x0020_1">
  <metadata id="CorelCorpID_0Corel-Layer"/>
  <g id="_601756680">
   <rect class="fil0" width="275" height="196"/>
   <polygon class="fil1" points="13,155 263,155 263,17 13,17 "/>
   <polygon class="fil2" points="13,29 263,29 263,0 13,0 "/>
   <polygon class="fil3" points="275,19 1,19 8,0 268,0 "/>
   <g>
    <polygon class="fil4" points="183,55 158,55 158,42 158,42 158,54 183,54 "/>
    <polygon class="fil4" points="215,55 190,55 190,42 190,42 190,54 215,54 "/>
    <polygon class="fil5" points="158,54 184,54 184,41 158,41 "/>
    <polygon class="fil6" points="159,53 182,53 182,43 159,43 "/>
    <polygon class="fil7" points="170,53 171,53 171,43 170,43 "/>
    <polygon class="fil7" points="159,48 182,48 182,47 159,47 "/>
    <polygon class="fil5" points="190,54 216,54 216,41 190,41 "/>
    <polygon class="fil8" points="191,53 214,53 214,43 191,43 "/>
    <polygon class="fil7" points="202,53 203,53 203,43 202,43 "/>
    <polygon class="fil7" points="191,48 214,48 214,47 191,47 "/>
   </g>
   <g>
    <polygon class="fil5" points="31,155 114,155 114,44 31,44 "/>
    <polygon class="fil9" points="30,45 115,45 115,41 30,41 "/>
    <polygon class="fil9" points="33,117 112,117 112,106 33,106 "/>
    <polygon class="fil7" points="33,155 112,155 112,45 33,45 "/>
    <polygon class="fil10" points="33,50 112,50 112,49 33,49 "/>
    <polygon class="fil10" points="33,55 112,55 112,53 33,53 "/>
    <polygon class="fil10" points="33,59 112,59 112,57 33,57 "/>
    <polygon class="fil10" points="33,63 112,63 112,62 33,62 "/>
    <polygon class="fil10" points="33,68 112,68 112,66 33,66 "/>
    <polygon class="fil10" points="33,72 112,72 112,70 33,70 "/>
    <polygon class="fil10" points="33,76 112,76 112,74 33,74 "/>
    <polygon class="fil10" points="33,80 112,80 112,79 33,79 "/>
    <polygon class="fil10" points="33,85 112,85 112,83 33,83 "/>
    <polygon class="fil10" points="33,89 112,89 112,87 33,87 "/>
    <polygon class="fil10" points="33,93 112,93 112,92 33,92 "/>
    <polygon class="fil10" points="33,98 112,98 112,96 33,96 "/>
    <polygon class="fil10" points="33,102 112,102 112,100 33,100 "/>
    <polygon class="fil10" points="33,106 112,106 112,105 33,105 "/>
    <polygon class="fil10" points="33,111 112,111 112,109 33,109 "/>
    <polygon class="fil10" points="33,115 112,115 112,113 33,113 "/>
    <polygon class="fil10" points="33,119 112,119 112,118 33,118 "/>
    <polygon class="fil10" points="33,124 112,124 112,122 33,122 "/>
    <polygon class="fil10" points="33,128 112,128 112,126 33,126 "/>
    <polygon class="fil10" points="33,132 112,132 112,131 33,131 "/>
    <polygon class="fil10" points="33,136 112,136 112,134 33,134 "/>
    <polygon class="fil10" points="33,140 112,140 112,138 33,138 "/>
    <polygon class="fil10" points="33,144 112,144 112,143 33,143 "/>
    <polygon class="fil10" points="33,148 112,148 112,146 33,146 "/>
    <polygon class="fil10" points="33,152 112,152 112,150 33,150 "/>
    <polygon class="fil10" points="33,156 112,156 112,155 33,155 "/>
   </g>
   <g>
    <path class="fil11" d="M223 155c0,-1 -1,-2 -2,-3 0,-1 -2,-2 -2,-2 -1,0 0,2 1,3 1,1 2,2 3,2zm-9 5l4 -7c-1,-2 -1,-4 0,-4 1,0 2,1 4,2 1,2 2,4 2,5 -1,1 -2,0 -4,-1l-4 5 -2 0z"/>
    <g>
     <path class="fil12" d="M234 158c0,0 1,0 1,0l4 -8c1,0 1,0 1,-1 0,0 -1,-2 -3,-1 0,0 0,0 -1,0l-3 6c0,0 0,0 -1,0l-8 0 0 3 10 1z"/>
     <path class="fil13" d="M224 154c0,0 0,0 0,0l0 3c0,0 0,0 -1,0 -1,0 -1,-1 -1,-2 0,-1 1,-1 2,-1z"/>
     <polygon class="fil13" points="241,145 240,149 238,149 238,144 "/>
     <path class="fil14" d="M233 160l-7 3c-1,1 -2,1 -2,2l0 9 5 1 1 -8 8 -1c1,0 3,-1 3,-3l0 -3 -8 0z"/>
     <path class="fil11" d="M229 175l-1 2 -6 0c0,0 -1,-2 2,-3l5 1z"/>
     <path class="fil15" d="M227 163l5 -3c1,-5 2,-7 3,-10 0,-1 1,-2 3,-3 0,0 0,0 0,0 1,0 2,0 3,0 1,1 2,2 2,3 0,5 -1,10 -1,11l0 2c0,2 -1,3 -3,3l-8 1 -1 8 -4 0 0 -10c0,0 0,-1 1,-2z"/>
     <path class="fil16" d="M233 158l0 0c0,0 0,0 0,1l0 -1z"/>
     <path class="fil17" d="M233 158c0,-1 0,-2 0,-3l0 0c0,1 0,2 0,3l0 0z"/>
     <path class="fil18" d="M236 159c0,0 1,0 1,0l4 -8c0,0 0,0 0,0 0,-1 0,-2 -2,-2 0,0 0,0 -1,0 0,0 0,0 0,0l-4 6 -1 0c0,1 0,2 0,3 0,0 0,0 0,1 0,0 0,0 0,0l3 0c0,0 0,0 0,0z"/>
     <path class="fil12" d="M235 158c0,0 1,0 1,0l4 -8c1,0 1,0 1,0 0,-1 -1,-3 -3,-2 0,0 -1,0 -1,1l-3 5c0,0 0,0 -1,0l-8 0 0 3 10 1z"/>
     <path class="fil19" d="M225 154c0,0 0,0 0,0l0 3c0,0 0,0 -1,0 -1,0 -1,-1 -1,-2 0,0 1,-1 2,-1z"/>
     <path class="fil11" d="M241 133c1,0 3,1 3,1 2,2 2,4 1,7 0,2 -3,2 -3,2 0,-1 0,-2 0,-2 0,0 1,-1 1,-2 0,0 -1,1 -1,1l-1 0c0,0 1,-2 1,-3 -1,0 -1,0 -5,0 -1,0 -1,-1 -2,-1 -3,-3 5,-3 6,-3z"/>
     <path class="fil19" d="M242 137c0,1 -1,2 -1,2l1 1c0,0 1,-1 1,-1 1,0 1,0 1,1l0 0c0,1 -1,2 -1,1l-1 0 0 2c0,2 -2,3 -4,3l0 0c-2,0 -3,-2 -3,-4l0 -6c1,0 1,0 2,0 4,1 4,0 5,1z"/>
     <path class="fil11" d="M230 175l0 3 -7 -1c0,0 -1,-2 3,-2l4 0z"/>
     <path class="fil20" d="M240 136c0,0 0,1 0,1 0,1 -1,1 -1,1 0,0 1,1 1,0 1,-1 1,-2 1,-2l-1 0z"/>
     <path class="fil20" d="M240 135c0,0 0,1 0,2 -1,0 -1,1 -1,1 0,0 0,0 1,-1 1,-1 0,-2 0,-2l0 0z"/>
     <path class="fil20" d="M241 136c0,0 0,1 0,1 0,1 -1,2 -1,2 0,0 1,0 1,-1 1,-1 1,-2 1,-2l-1 0z"/>
     <path class="fil20" d="M237 136c0,0 -1,0 -1,1 0,0 -1,1 -1,1 0,0 0,-1 0,-1 1,-1 2,-2 2,-2l0 1z"/>
     <path class="fil20" d="M238 136c0,0 -1,0 -1,1 -1,0 -1,1 -1,1 0,0 0,-1 0,-2 1,0 1,-1 1,-1l1 1z"/>
     <path class="fil20" d="M236 135c0,0 0,0 -1,1 0,1 0,1 0,1 0,0 -1,0 0,-1 0,-1 1,-1 1,-1l0 0z"/>
    </g>
    <polygon class="fil11" points="185,184 185,149 190,149 190,126 201,126 201,136 198,136 198,181 190,181 190,154 189,154 189,187 127,187 127,184 "/>
    <polygon class="fil3" points="195,181 193,181 193,126 195,126 "/>
    <path class="fil11" d="M214 125c1,-2 3,-3 5,-3l39 0c1,0 2,1 2,2l0 29 -4 5 0 -29c0,-1 -2,-2 -3,-2l-31 -1c-2,0 -4,2 -5,4l-6 24 0 1 -6 0 9 -30z"/>
    <polygon class="fil11" points="216,153 224,158 224,179 214,179 214,153 "/>
    <path class="fil11" d="M242 161c1,-1 1,-5 2,-9 1,-2 2,-3 3,-3l0 0c2,-1 3,-1 4,-1 1,0 1,1 1,1 0,5 -1,14 -4,17 -4,6 -10,14 -10,14l-9 0 2 -14c0,0 0,-2 9,-3 1,0 2,-1 2,-2z"/>
    <path class="fil21" d="M207 153l10 0c0,0 -2,23 2,23 4,0 19,0 19,0l14 -25 9 0c6,0 9,3 12,9l0 0c1,2 2,5 2,8l0 14c0,4 -1,6 -4,6l-73 0c7,-14 -1,-16 -1,-16 0,0 8,-16 10,-19z"/>
    <path class="fil11" d="M255 169c9,0 16,7 16,15 0,2 0,3 -1,4l-3 0c0,0 0,-1 0,-2 0,-7 -5,-13 -12,-13 -6,0 -11,6 -11,13 0,1 0,2 0,2l-4 0c0,-1 0,-2 0,-4 0,-8 7,-15 15,-15z"/>
    <path class="fil11" d="M194 178l-3 -5c3,-2 7,-4 12,-4 8,0 15,7 15,15 0,2 0,3 0,4l-4 0c0,0 0,-1 0,-2 0,-7 -5,-13 -11,-13 -4,0 -7,2 -9,5z"/>
    <path class="fil11" d="M191 184c0,7 5,12 12,12 6,0 11,-5 11,-12 0,-6 -5,-12 -11,-12 -7,0 -12,6 -12,12z"/>
    <path class="fil22" d="M195 184c0,4 4,7 8,7 4,0 7,-3 7,-7 0,-4 -3,-7 -7,-7 -4,0 -8,3 -8,7z"/>
    <path class="fil11" d="M244 184c0,7 5,12 11,12 7,0 12,-5 12,-12 0,-6 -5,-12 -12,-12 -6,0 -11,6 -11,12z"/>
    <path class="fil22" d="M248 184c0,4 3,7 7,7 4,0 7,-3 7,-7 0,-4 -3,-7 -7,-7 -4,0 -7,3 -7,7z"/>
    <path class="fil11" d="M200 184c0,2 1,3 3,3 1,0 3,-1 3,-3 0,-1 -2,-3 -3,-3 -2,0 -3,2 -3,3z"/>
    <path class="fil11" d="M252 184c0,2 2,3 3,3 2,0 3,-1 3,-3 0,-1 -1,-3 -3,-3 -1,0 -3,2 -3,3z"/>
    <g>
     <g>
      <rect class="fil23" x="122" y="151" width="33.3703" height="33.3703"/>
      <rect class="fil24" x="134" y="153" width="10.8749" height="1.93644"/>
     </g>
     <path class="fil25" d="M156 151l-8 -3 -31 0 5 3c0,0 34,0 34,0z"/>
     <path class="fil25" d="M122 184l-5 -4c0,0 0,-32 0,-32 0,0 5,3 5,3l0 33z"/>
    </g>
    <g>
     <g>
      <rect class="fil23" x="152" y="151" width="33.3703" height="33.3703"/>
      <rect class="fil24" x="163" y="153" width="10.8749" height="1.93644"/>
     </g>
     <path class="fil25" d="M185 151l-8 -4 -31 0 6 4c0,0 33,0 33,0z"/>
     <path class="fil25" d="M152 184l-3 -4c0,0 0,-33 0,-33 0,0 3,4 3,4l0 33z"/>
    </g>
    <g>
     <g>
      <rect class="fil23" x="138" y="117" width="33.3703" height="33.3703"/>
      <rect class="fil24" x="149" y="119" width="10.8749" height="1.93644"/>
     </g>
     <path class="fil25" d="M171 117l-8 -4 -31 0 6 4c0,0 33,0 33,0z"/>
     <path class="fil25" d="M138 150l-6 -4c0,0 0,-33 0,-33 0,0 6,4 6,4l0 33z"/>
    </g>
   </g>
  </g>
 </g>
</svg>
