<?xml version="1.0" encoding="UTF-8"?>
<!DOCTYPE svg PUBLIC "-//W3C//DTD SVG 1.1//EN" "http://www.w3.org/Graphics/SVG/1.1/DTD/svg11.dtd">
<!-- Creator: CorelDRAW X7 -->
<svg xmlns="http://www.w3.org/2000/svg" xml:space="preserve" width="225px" height="173px" version="1.1" style="shape-rendering:geometricPrecision; text-rendering:geometricPrecision; image-rendering:optimizeQuality; fill-rule:evenodd; clip-rule:evenodd"
viewBox="0 0 208 159"
 xmlns:xlink="http://www.w3.org/1999/xlink">
 <defs>
  <style type="text/css">
   <![CDATA[
    .str0 {stroke:#FEFEFE;stroke-width:0.829921}
    .str1 {stroke:#373435;stroke-width:0.829921}
    .str2 {stroke:#1672A5;stroke-width:0.829921}
    .fil55 {fill:none}
    .fil13 {fill:#FEFEFE}
    .fil3 {fill:#FEFEFE}
    .fil1 {fill:#BDBFC1}
    .fil57 {fill:#FEFEFD}
    .fil58 {fill:#FFFEFB}
    .fil59 {fill:#FFFEFA}
    .fil60 {fill:#FFFEF9}
    .fil61 {fill:#FFFEF8}
    .fil62 {fill:#FFFEF7}
    .fil63 {fill:#FFFEF6}
    .fil64 {fill:#FFFEF6}
    .fil65 {fill:#FFFEF5}
    .fil66 {fill:#FFFEF4}
    .fil67 {fill:#FFFDF3}
    .fil68 {fill:#FFFDF2}
    .fil69 {fill:#FFFDF2}
    .fil70 {fill:#FFFDF1}
    .fil71 {fill:#FFFCF0}
    .fil72 {fill:#FFFCEF}
    .fil73 {fill:#FFFCEF}
    .fil74 {fill:#FFFCEE}
    .fil75 {fill:#FFFCED}
    .fil76 {fill:#FFFBEC}
    .fil77 {fill:#FFFBEC}
    .fil78 {fill:#FFFBEB}
    .fil79 {fill:#FFFBEA}
    .fil80 {fill:#FFFBE9}
    .fil31 {fill:#FCD3C2}
    .fil81 {fill:#FEFBE9}
    .fil82 {fill:#FEFBE9}
    .fil83 {fill:#FEFAE8}
    .fil84 {fill:#FEFAE7}
    .fil85 {fill:#FEFAE6}
    .fil86 {fill:#FEFAE6}
    .fil87 {fill:#FEFAE5}
    .fil88 {fill:#FEFAE4}
    .fil89 {fill:#FEFAE3}
    .fil90 {fill:#FEFAE3}
    .fil91 {fill:#FEFAE2}
    .fil92 {fill:#FEFAE1}
    .fil93 {fill:#FEFAE1}
    .fil94 {fill:#FEFAE0}
    .fil95 {fill:#FEFADF}
    .fil96 {fill:#FEFADE}
    .fil97 {fill:#FEFADE}
    .fil98 {fill:#FEFADD}
    .fil99 {fill:#FEFADC}
    .fil100 {fill:#FEF8DC}
    .fil101 {fill:#FEF8DB}
    .fil102 {fill:#FEF8DA}
    .fil103 {fill:#FEF8D9}
    .fil104 {fill:#FEF8D9}
    .fil105 {fill:#FEF8D8}
    .fil106 {fill:#FEF8D7}
    .fil107 {fill:#FEF8D7}
    .fil108 {fill:#FEF8D6}
    .fil109 {fill:#FEF8D5}
    .fil110 {fill:#FEF8D4}
    .fil111 {fill:#FEF8D4}
    .fil112 {fill:#FEF8D3}
    .fil113 {fill:#FEF7D2}
    .fil114 {fill:#FEF7D1}
    .fil115 {fill:#FEF7D1}
    .fil116 {fill:#FEF7D0}
    .fil117 {fill:#FEF7CF}
    .fil118 {fill:#FEF7CF}
    .fil119 {fill:#FEF7CE}
    .fil120 {fill:#FEF7CD}
    .fil121 {fill:#FEF7CC}
    .fil122 {fill:#FEF7CC}
    .fil123 {fill:#FEF7CB}
    .fil124 {fill:#FEF7CA}
    .fil125 {fill:#FEF7C9}
    .fil126 {fill:#FEF7C9}
    .fil127 {fill:#FEF7C8}
    .fil128 {fill:#FCF5C7}
    .fil129 {fill:#FDF5C6}
    .fil130 {fill:#FDF5C5}
    .fil131 {fill:#FDF5C4}
    .fil132 {fill:#FDF5C3}
    .fil133 {fill:#FDF5C2}
    .fil134 {fill:#FDF5C2}
    .fil135 {fill:#FDF5C1}
    .fil136 {fill:#FDF4C0}
    .fil137 {fill:#FDF4BF}
    .fil138 {fill:#FDF4BF}
    .fil139 {fill:#FDF4BE}
    .fil140 {fill:#FDF4BD}
    .fil141 {fill:#FDF4BC}
    .fil142 {fill:#FDF4BB}
    .fil143 {fill:#FDF4BB}
    .fil144 {fill:#FDF4BA}
    .fil145 {fill:#FDF4B9}
    .fil146 {fill:#FDF4B8}
    .fil147 {fill:#FDF4B7}
    .fil148 {fill:#FDF4B6}
    .fil149 {fill:#FDF4B5}
    .fil150 {fill:#FDF4B5}
    .fil151 {fill:#FDF4B4}
    .fil152 {fill:#FDF4B3}
    .fil153 {fill:#FDF3B2}
    .fil154 {fill:#FDF2B1}
    .fil155 {fill:#FDF2B0}
    .fil156 {fill:#FDF2B0}
    .fil157 {fill:#FDF2AF}
    .fil158 {fill:#FDF2AD}
    .fil159 {fill:#FDF2AD}
    .fil160 {fill:#FDF2AC}
    .fil161 {fill:#FDF2AB}
    .fil162 {fill:#FDF2AB}
    .fil163 {fill:#FDF2AA}
    .fil164 {fill:#FDF2A9}
    .fil165 {fill:#FDF2A8}
    .fil166 {fill:#FDF2A7}
    .fil167 {fill:#FDF2A7}
    .fil168 {fill:#FDF2A6}
    .fil169 {fill:#FDF2A5}
    .fil170 {fill:#FCF1A4}
    .fil171 {fill:#FCF1A3}
    .fil172 {fill:#FCF1A2}
    .fil173 {fill:#FCF1A1}
    .fil174 {fill:#FCF1A1}
    .fil175 {fill:#FCF1A0}
    .fil176 {fill:#FCF19F}
    .fil177 {fill:#FCF19E}
    .fil178 {fill:#FCF19E}
    .fil179 {fill:#FCF09D}
    .fil180 {fill:#FCF09C}
    .fil181 {fill:#FCF09B}
    .fil182 {fill:#FCF09B}
    .fil183 {fill:#FCF09A}
    .fil184 {fill:#FCEF99}
    .fil185 {fill:#FCEF98}
    .fil186 {fill:#FCEF97}
    .fil187 {fill:#FCEF96}
    .fil188 {fill:#FCEF95}
    .fil189 {fill:#FCEF94}
    .fil190 {fill:#FCEF94}
    .fil32 {fill:#EEC8B9}
    .fil12 {fill:#E8E7E8}
    .fil42 {fill:#E0E2E4}
    .fil33 {fill:#DDDDDC}
    .fil48 {fill:#DCB6A8}
    .fil35 {fill:#D8DAE0}
    .fil34 {fill:#D2D4D4}
    .fil29 {fill:#BCBFC1}
    .fil43 {fill:#AEAEB1}
    .fil30 {fill:#A8AAAD}
    .fil36 {fill:#989B9D}
    .fil27 {fill:#96989B}
    .fil38 {fill:#919191}
    .fil28 {fill:#868B90}
    .fil37 {fill:#848588}
    .fil50 {fill:#84858A}
    .fil41 {fill:#737576}
    .fil0 {fill:#52658C}
    .fil40 {fill:#606263}
    .fil51 {fill:#5C5D5E}
    .fil49 {fill:#4D4D4E}
    .fil10 {fill:#4C4C4D}
    .fil11 {fill:#49494A}
    .fil8 {fill:#464647}
    .fil9 {fill:#444444}
    .fil44 {fill:#434446}
    .fil14 {fill:#363435}
    .fil7 {fill:#3E4043}
    .fil26 {fill:#4E5C63}
    .fil45 {fill:#595772}
    .fil39 {fill:#424C53}
    .fil47 {fill:#295166}
    .fil46 {fill:#284658}
    .fil5 {fill:black}
    .fil52 {fill:#1672A5}
    .fil6 {fill:#EFAE74}
    .fil191 {fill:#FFEF94}
    .fil15 {fill:#FEFEFE;fill-rule:nonzero}
    .fil54 {fill:#FEFEFE;fill-rule:nonzero}
    .fil53 {fill:#373435;fill-rule:nonzero}
    .fil20 {fill:#F2F3F2;fill-rule:nonzero}
    .fil22 {fill:#E8E7E8;fill-rule:nonzero}
    .fil18 {fill:#DFE6ED;fill-rule:nonzero}
    .fil23 {fill:#DAE0EC;fill-rule:nonzero}
    .fil19 {fill:#D2D4D5;fill-rule:nonzero}
    .fil25 {fill:#C7CCD9;fill-rule:nonzero}
    .fil16 {fill:#BFC0C1;fill-rule:nonzero}
    .fil24 {fill:#B9BBC9;fill-rule:nonzero}
    .fil17 {fill:#B7C0C6;fill-rule:nonzero}
    .fil21 {fill:#A5ABB3;fill-rule:nonzero}
    .fil4 {fill:#1672A5;fill-rule:nonzero}
    .fil56 {fill:url(#id1)}
    .fil2 {fill:url(#id2)}
   ]]>
  </style>
    <clipPath id="id0">
     <path d="M95 45c6,0 12,4 13,9l-27 0c2,-5 7,-9 14,-9z"/>
    </clipPath>
  <linearGradient id="id1" gradientUnits="userSpaceOnUse" x1="104.202" y1="3.08879" x2="104.202" y2="53.9056">
   <stop offset="0" style="stop-opacity:1; stop-color:#6CAED1"/>
   <stop offset="1" style="stop-opacity:1; stop-color:#F6ECBE"/>
  </linearGradient>
  <linearGradient id="id2" gradientUnits="userSpaceOnUse" xlink:href="#id1" x1="163.724" y1="3.08879" x2="163.724" y2="53.9056">
  </linearGradient>
 </defs>
 <g id="Layer_x0020_1">
  <metadata id="CorelCorpID_0Corel-Layer"/>
  <path class="fil0 str0" d="M76 3l57 0 0 51 -57 0 0 -51zm117 0l-59 0 0 51 59 0 0 -51z"/>
  <path class="fil1" d="M8 17l31 0c1,0 2,1 2,3l0 37 -35 0 0 -37c0,-2 1,-3 2,-3z"/>
  <rect class="fil2" x="135" y="3" width="58.003" height="50.8179"/>
  <g>
   <path class="fil3" d="M6 17l30 0c1,0 3,1 3,3l0 34 -35 0 0 -34c0,-2 1,-3 2,-3z"/>
   <path id="1" class="fil4" d="M36 18l-30 0 0 -2 30 0 0 0 0 2zm4 2l-2 0 0 0 0 0 0 0 0 0 0 -1 0 0 0 0 0 0 0 0 -1 0 0 0 0 0 0 0 0 0 0 0 0 0 0 0 0 -1 0 0 0 0 0 0 0 0 0 0 0 0 0 0 -1 0 0 0 0 0 0 0 0 0 0 0 0 0 0 0 0 -2 0 0 0 0 0 0 1 0 0 0 0 0 0 0 0 0 0 1 1 0 0 0 0 0 0 0 0 0 0 0 0 0 1 0 0 0 0 1 0 0 0 0 0 0 0 0 0 0 0 1 0 0 0 0 0 0 0 0 0 0 1 1 0 0 0 0zm-2 34l0 -34 2 0 0 34 -1 1 -1 -1zm2 0l0 1 -1 0 1 -1zm-36 -1l35 0 0 2 -35 0 -1 -1 1 -1zm0 2l-1 0 0 -1 1 1zm1 -35l0 34 -2 0 0 -34 0 0 2 0zm1 -4l0 2 0 0 0 0 0 0 0 0 0 0 0 0 0 0 0 0 0 0 0 0 0 0 0 0 -1 0 0 0 0 0 0 0 0 1 0 0 0 0 0 0 0 0 0 0 0 0 0 0 0 0 0 0 0 0 0 0 0 0 0 1 0 0 0 0 0 0 -2 0 0 0 0 -1 0 0 0 0 0 0 0 0 0 0 0 -1 0 0 0 0 0 0 0 0 1 0 0 -1 0 0 0 0 0 0 0 0 0 0 0 0 1 0 0 0 0 0 0 -1 0 0 0 0 1 0 0 0 0 0 0 0 0 0 0 0 0 0z"/>
  </g>
  <g>
   <path class="fil5 str1" d="M165 22c0,0 -1,-1 2,-3 2,-2 4,-3 8,-3 4,-1 8,2 9,6 1,4 -1,12 -2,13 -1,1 -1,2 -1,2 0,0 -4,-3 -4,-4 0,-1 -5,-2 -6,-4 -1,-3 -2,-6 -2,-6l-1 -1c0,0 -3,0 -3,0z"/>
   <path class="fil6" d="M172 41l-1 -3c0,0 -4,1 -5,1 0,-1 -1,-3 -1,-4 0,-2 0,-3 0,-3l-2 -1c0,0 0,0 1,-1 1,-2 1,-2 1,-3 1,-1 0,-4 0,-5 0,-1 0,-1 0,-1 1,-1 4,0 5,0 1,1 1,2 1,4 1,1 0,3 1,3 0,1 0,0 0,-1 1,-1 1,-2 2,-2 2,0 2,0 2,2 0,2 0,6 1,6 0,1 4,4 4,4l1 2c0,0 -9,0 -10,2z"/>
   <path class="fil7" d="M139 145c-1,0 -1,7 -1,10 0,1 -1,1 -1,1 -2,0 -5,0 -8,0 -1,0 -1,-1 -1,-1 -1,0 -6,1 -7,1 -1,0 -21,0 -16,-4 15,-2 19,-5 26,-10l8 3z"/>
   <path class="fil8" d="M178 97c-6,2 -33,10 -33,10l-6 42c0,0 -15,-2 -14,-3 0,0 11,-50 13,-51 1,-1 35,-3 35,-3l5 5z"/>
   <path class="fil9" d="M144 111l-5 38c0,0 -2,0 -4,0l8 -38 1 0z"/>
   <path class="fil7" d="M117 141c0,0 -1,6 -1,9 0,1 -1,2 -1,2 -2,0 -6,-1 -9,-1 0,0 0,-2 -1,-1 0,0 -6,0 -6,0 -2,0 -21,-3 -16,-6 16,0 20,-3 28,-7l6 4z"/>
   <path class="fil10" d="M183 92c1,2 0,8 -2,11 -1,2 -39,0 -39,0 0,0 -18,30 -20,34 -2,3 -4,7 -4,7 0,0 -13,-3 -13,-4 1,-1 28,-44 30,-46 2,-2 48,-2 48,-2z"/>
   <path class="fil11" d="M178 103l0 0c0,0 0,1 -1,1 -10,1 -35,-1 -35,-1 0,0 -18,30 -20,34 -2,3 -4,7 -4,7 0,0 -3,0 -6,-1 7,-11 28,-42 28,-42l38 2z"/>
   <path class="fil12" d="M180 39c-14,1 -14,16 -13,27 1,11 1,13 0,19 -1,6 -3,8 0,8 2,1 16,2 18,0 2,-1 6,-15 4,-29 0,-4 -3,-26 -9,-25z"/>
   <path class="fil10" d="M171 49c-1,3 -1,30 -2,31 -1,4 -2,9 -3,9 0,0 -1,-5 -1,-10 0,-4 4,-30 4,-30l2 0z"/>
   <polygon class="fil13" points="116,58 115,58 115,58 115,58 115,58 115,59 116,59 116,58 "/>
   <path class="fil14" d="M106 73c0,0 -1,1 -1,1 1,0 1,0 1,-1 0,0 0,0 0,0 0,0 0,0 0,0z"/>
   <g id="_687865296">
    <polygon class="fil15" points="68,79 99,80 111,73 87,72 "/>
    <g>
     <path class="fil16" d="M99 80l-31 -1 0 0 31 1 0 0 0 0zm0 0l0 0 0 0 0 0zm12 -7l-12 7 0 0 12 -8 0 0 0 1zm0 -1l0 0 0 1 0 -1zm-24 0l24 0 0 1 -24 -1 0 0 0 0zm0 0l0 0 0 0 0 0zm-19 7l19 -7 0 0 -19 7 0 0 0 0zm0 0l0 0 0 0 0 0z"/>
    </g>
    <polygon class="fil15" points="68,78 99,79 111,71 87,70 "/>
    <g>
     <path class="fil16" d="M99 79l-31 -1 0 0 31 1 0 0 0 0zm0 0l0 0 0 0 0 0zm12 -8l-12 8 0 0 12 -8 0 0 0 0zm0 0l0 0 0 0 0 0zm-24 -1l24 1 0 0 -24 -1 0 0 0 0zm0 0l0 0 0 0 0 0zm-19 8l19 -8 0 0 -19 8 0 0 0 0zm0 0l0 0 0 0 0 0z"/>
    </g>
    <polygon class="fil17" points="68,76 99,77 111,69 87,69 "/>
    <polygon class="fil18" points="69,75 100,76 112,68 88,67 "/>
    <polygon class="fil15" points="68,74 94,75 99,75 111,67 87,66 "/>
    <g>
     <path class="fil19" d="M94 75l-26 -1 0 0 26 1 0 0zm5 0l-5 0 0 0 5 0 0 0 0 0zm0 0l0 0 0 0 0 0zm12 -8l-12 8 0 0 12 -8 0 0 0 0zm0 0l0 0 0 0 0 0zm-24 -1l24 1 0 0 -24 -1 0 0 0 0zm0 0l0 0 0 0 0 0zm-19 8l19 -8 0 0 -19 8 0 0 0 0zm0 0l0 0 0 0 0 0z"/>
    </g>
    <polygon class="fil18" points="69,72 100,73 112,65 88,65 "/>
    <polygon class="fil20" points="69,70 100,72 112,64 88,63 "/>
    <polygon class="fil15" points="70,69 101,70 113,62 89,61 "/>
    <polygon class="fil15" points="70,67 101,69 113,61 89,60 "/>
    <g>
     <path class="fil16" d="M101 69l-31 -2 0 0 31 2 0 0 0 0zm0 0l0 0 0 0 0 0zm12 -8l-12 8 0 0 12 -8 0 0 0 0zm0 0l0 0 0 0 0 0zm-24 -1l24 1 0 0 -24 -1 0 0 0 0zm0 0l0 0 0 0 0 0zm-19 7l19 -7 0 0 -19 7 0 0 0 0zm0 0l0 0 0 0 0 0z"/>
    </g>
    <polygon class="fil21" points="76,66 100,67 101,66 78,65 "/>
    <polygon class="fil21" points="79,65 102,66 103,65 81,64 "/>
    <polygon class="fil21" points="83,63 104,64 105,64 84,63 "/>
    <polygon class="fil21" points="85,62 106,63 107,63 87,62 "/>
    <polygon class="fil21" points="88,61 108,62 109,61 89,61 "/>
    <polygon class="fil20" points="67,66 86,67 80,61 "/>
    <path class="fil22" d="M82 60l-2 1 6 6 12 1 12 -8 -21 -1c-2,2 -4,2 -7,1z"/>
    <path class="fil23" d="M82 60c3,1 5,1 7,-1l-3 0 0 0 -4 1z"/>
    <polygon class="fil24" points="85,66 97,66 98,65 84,65 "/>
    <polygon class="fil25" points="75,64 73,65 85,66 84,65 "/>
    <polygon class="fil24" points="83,64 99,65 100,64 83,63 "/>
    <polygon class="fil25" points="78,63 76,64 83,64 83,63 "/>
    <polygon class="fil25" points="81,62 79,63 82,63 81,62 "/>
    <polygon class="fil24" points="82,63 101,63 102,63 81,62 "/>
    <polygon class="fil24" points="82,61 103,62 104,62 83,61 "/>
    <polygon class="fil24" points="85,60 105,61 106,61 86,60 "/>
   </g>
   <path class="fil26" d="M110 65c-2,3 -3,5 -4,7l1 0c1,-1 3,-3 5,-6 2,-3 3,-6 4,-7 0,0 0,0 -1,-1 0,0 0,0 0,0 -1,1 -3,4 -5,7z"/>
   <path class="fil13" d="M115 59l0 0c1,0 1,0 1,1 0,0 -2,3 -3,4 0,1 -1,1 -1,2 0,0 4,-6 4,-6 0,-1 0,-1 0,-1l-1 -1c0,0 -1,1 -1,1l1 0 0 0z"/>
   <path class="fil13" d="M110 65c0,0 -1,1 -1,1l2 1c0,0 0,0 0,-1l-1 -1z"/>
   <path class="fil13" d="M106 72c0,1 -1,1 -1,1l1 1c0,-1 0,-1 1,-2l-1 0z"/>
   <polygon class="fil27" points="105,88 136,88 136,84 105,84 "/>
   <polygon class="fil28" points="105,88 136,88 136,86 105,86 "/>
   <polygon class="fil29" points="38,156 112,156 112,76 38,76 "/>
   <polygon class="fil30" points="33,78 117,78 117,74 33,74 "/>
   <g>
    <path class="fil31" d="M156 55c-2,1 -32,14 -33,14 -1,0 -4,-4 -5,-5 -1,0 -4,0 -4,0 0,0 -4,0 -5,0 0,1 -4,2 -4,2 1,1 2,1 3,1 1,0 4,-1 3,0 0,0 -5,3 -5,4 -1,2 4,-2 7,-2 0,0 -5,4 -5,4 0,0 0,1 1,1 0,0 1,-1 3,-2 1,0 1,0 2,-1 0,1 0,3 1,3 1,0 3,0 5,0 1,0 3,-1 3,-1 1,0 32,-8 32,-8l1 -10z"/>
    <path class="fil32" d="M108 73c0,0 1,0 1,0 1,0 3,-2 4,-2 1,0 3,-1 3,-1 0,0 -2,1 -2,1 0,1 1,2 1,2 0,1 2,1 3,0 0,0 0,-1 0,-1 0,0 1,0 1,1 0,0 -1,1 -1,1 0,0 1,0 2,0 0,-1 3,-2 3,-2l31 -10c0,0 0,1 1,3 -4,1 -31,8 -32,8 0,0 -2,1 -3,1 -2,0 -4,0 -5,0 -1,0 -1,-2 -1,-3 -1,1 -1,1 -2,1 -2,1 -3,2 -3,2 -1,0 -1,0 -1,-1zm-2 -2c-1,1 4,-2 7,-2 0,0 1,-1 1,-1 -1,0 -5,2 -6,3 -1,0 -2,0 -2,0l0 0zm-1 -5c0,0 0,0 0,0 1,1 2,1 3,1 1,0 3,0 3,0l0 0c0,0 2,-1 2,-1 0,0 -4,0 -5,0 -1,0 -2,0 -3,0l0 0z"/>
   </g>
   <path class="fil12" d="M183 51c3,-3 -1,-11 -4,-10 -2,1 -20,10 -23,12 -4,2 -6,3 -5,3 0,1 3,6 3,7 0,1 1,3 1,2 7,-3 23,-9 28,-14z"/>
   <path class="fil33" d="M183 94c1,0 2,-1 2,-1 2,-1 6,-15 4,-29 0,-4 -3,-20 -7,-24 -1,0 -2,1 -2,1 0,0 6,18 6,22 1,3 -3,25 -3,31z"/>
   <path class="fil34" d="M155 64c1,1 -1,2 1,2 7,-4 15,-7 22,-11 -8,3 -16,6 -23,9z"/>
   <path class="fil35" d="M155 58c0,0 -1,-3 -2,-3 -1,0 -3,0 -4,1 -1,0 -1,2 -1,2 0,1 2,4 3,6 0,2 0,4 1,4 0,0 4,0 4,0 1,0 2,0 2,0 0,0 -1,-3 -1,-3 -1,0 -2,-7 -2,-7z"/>
   <polygon class="fil36" points="112,76 33,76 33,78 117,78 117,76 "/>
   <path class="fil26" d="M156 104c7,0 18,-1 26,-1 -1,-13 5,-14 6,-23 -13,0 -36,-5 -32,24zm-10 1c1,0 4,0 5,-1 -1,-5 -1,-19 5,-24 7,-7 23,-5 32,-5 0,-7 2,-28 2,-32 1,-10 10,-9 13,-8 6,1 0,61 -5,69 0,0 0,0 0,0 2,3 3,8 -3,9 -6,1 -51,4 -54,0 -4,-5 1,-8 5,-8l0 0z"/>
   <polygon class="fil37" points="168,135 172,135 172,113 168,113 "/>
   <polygon class="fil38" points="170,135 172,135 172,113 170,113 "/>
   <path class="fil39" d="M199 108c1,2 0,4 -4,5 -2,0 -11,1 -20,2l0 1 2 1c0,-1 1,-1 2,0l2 2c1,0 1,1 0,2l0 0c0,0 -1,0 -2,0l-2 -2c-1,0 -1,-1 -1,-2l-1 -1 -1 0 0 0 0 -1c-14,0 -31,0 -33,-2 -1,-1 -1,-2 -1,-3l59 -2z"/>
   <path class="fil39" d="M200 34c1,0 3,1 3,1 6,1 0,61 -5,69 0,0 0,0 -2,-1 -2,-1 -13,0 -13,0 0,0 7,-1 9,-4 1,-1 7,-59 8,-65z"/>
   <path class="fil10" d="M167 132l6 0 0 15 15 3c1,0 2,0 2,1l0 0c0,2 -1,3 -2,2l-16 -2 -4 0 -16 2c-1,1 -2,0 -2,-2l0 0c0,-1 1,-1 2,-1l15 -3 0 -15z"/>
   <path class="fil10" d="M151 156c2,0 3,-1 3,-3 0,-1 -1,-2 -3,-2 -1,0 -2,1 -2,2 0,2 1,3 2,3z"/>
   <path class="fil10" d="M188 156c2,0 3,-1 3,-3 0,-1 -1,-2 -3,-2 -1,0 -2,1 -2,2 0,2 1,3 2,3z"/>
   <polygon class="fil10" points="168,147 172,147 171,154 169,154 "/>
   <path class="fil10" d="M170 156c1,0 2,-1 2,-3 0,-1 -1,-2 -2,-2 -2,0 -3,1 -3,2 0,2 1,3 3,3z"/>
   <polygon class="fil40" points="133,82 131,82 131,83 133,83 "/>
   <polygon class="fil40" points="130,82 128,82 128,83 130,83 "/>
   <polygon class="fil40" points="128,82 126,82 126,83 128,83 "/>
   <polygon class="fil40" points="125,82 123,82 123,83 125,83 "/>
   <polygon class="fil40" points="123,82 121,82 121,83 123,83 "/>
   <polygon class="fil40" points="120,82 118,82 118,83 120,83 "/>
   <polygon class="fil40" points="118,82 116,81 116,83 118,83 "/>
   <path class="fil10" d="M134 84c0,-1 0,-1 0,-1 0,0 0,0 0,0l-21 -1c0,0 0,0 0,0 0,0 0,0 0,1l0 0c0,0 0,0 0,1l20 0c1,0 1,0 1,0l0 0z"/>
   <path class="fil10" d="M114 83l0 0 0 0 0 1 0 0c0,0 0,-1 0,-1z"/>
   <polygon class="fil10" points="38,156 112,156 112,154 38,154 "/>
   <polygon class="fil41" points="38,79 112,79 112,78 38,78 "/>
   <path class="fil42" d="M176 42c-4,3 -28,12 -28,12 1,3 2,11 3,10 0,0 26,-11 28,-12 2,-1 2,-2 2,-3 -1,0 -5,-7 -5,-7z"/>
   <path class="fil31" d="M148 55c-1,1 -24,12 -25,12 0,0 -3,-3 -4,-3 -1,0 -3,0 -3,0 0,0 -3,1 -4,1 -1,1 -4,2 -3,2 1,1 2,0 2,0 1,0 3,-1 3,0 0,0 -4,3 -4,4 0,1 3,-2 5,-3 0,0 -3,4 -3,4 0,1 0,1 1,1 0,-1 1,-1 2,-2 0,-1 1,-1 2,-1 -1,0 0,2 1,2 0,0 2,0 4,-1 1,0 2,-1 2,-1 0,0 25,-8 25,-8l-1 -7z"/>
   <path class="fil34" d="M151 56c0,0 -1,-3 -2,-3 -1,0 -3,0 -4,1 -1,0 -1,2 -1,2 0,1 2,4 3,6 0,2 0,4 1,4 2,0 5,0 5,-2 -1,-2 -2,-5 -2,-8z"/>
   <path class="fil10" d="M173 41c-1,1 -3,1 -4,2 0,1 -1,3 0,3 1,0 1,0 2,-1 1,0 2,-4 2,-4z"/>
   <path class="fil33" d="M182 40c0,0 -1,-3 -1,-3 0,0 -8,2 -9,3 0,0 -2,4 -2,4l12 -4z"/>
   <path class="fil10" d="M59 18l1 -1 4 47 -1 0c-3,-5 -5,-14 -6,-23 0,-2 -1,-4 -1,-6 0,-7 1,-13 3,-17z"/>
   <polygon class="fil40" points="62,17 59,18 63,64 66,64 "/>
   <polygon class="fil40" points="67,74 74,74 74,73 67,73 "/>
   <path class="fil41" d="M71 64l0 0 -1 0 0 0 1 0zm0 0l0 0 0 0 -1 0 0 0 1 0 0 0zm0 -1l0 0 -1 0 0 0 1 0 0 0zm0 0l0 0 -1 0 0 0 1 0 0 0zm0 0l0 0 -1 0 0 0 1 0 0 0zm0 -1l0 0 0 0 -1 0 0 0 1 0 0 0zm0 0l0 0 -1 0 0 0 1 0 0 0zm0 0l0 0 -1 0 0 0 1 0 0 0zm0 -1l0 0 -1 0 0 0 1 0 0 0zm0 0l0 0 0 0 -1 0 0 0 1 0 0 0zm0 0l0 0 -1 0 0 0 1 0 0 0zm0 -1l0 0 0 0 -1 0 0 0 1 0 0 0zm0 0l0 0 0 0 -1 0 0 0 1 0 0 0zm0 0l0 0 -1 0 0 0 1 0 0 0zm0 -1l0 0 0 0 -1 0 0 0 1 0 0 0zm0 0l0 0 -1 0 0 0 1 0 0 0zm0 0l0 0 0 0 -1 0 0 0 1 0 0 0zm0 -1l0 0 0 0 -1 0 0 0 1 0 0 0zm0 0l0 0 -1 0 0 0 1 0 0 0zm0 0l0 0 0 0 -1 0 0 0 1 0 0 0zm0 -1l0 0 0 0 -1 0 0 0 1 0 0 0zm0 0l0 0 0 0 -1 0 0 0 1 0 0 0zm0 0l0 0 0 0 -1 0 0 0 1 0 0 0zm0 -1l0 0 -1 0 0 0 1 0 0 0zm0 0l0 0 0 0 -1 0 0 0 1 0 0 0zm0 0l0 0 -1 0 0 0 1 0 0 0zm0 -1l0 0 0 0 -1 0 0 0 1 0 0 0zm0 0l0 0 0 0 -1 0 0 0 1 0 0 0zm0 0l0 0 0 0 -1 0 0 0 1 0 0 0zm0 -1l0 0 -1 0 0 0 1 0 0 0zm0 0l0 0 0 0 -1 0 0 0 1 0 0 0zm0 0l0 0 -1 0 0 0 1 0 0 0zm0 -1l0 0 0 0 -1 0 0 0 1 0 0 0zm0 0l0 0 0 0 -1 0 0 0 1 0 0 0zm0 0l0 0 0 0 -1 0 0 0 1 0 0 0zm0 -1l0 0 -1 0 0 0 1 0 0 0zm0 0l0 0 0 0 -1 0 0 0 1 0 0 0zm0 0l0 0 0 0 -1 0 0 0 1 0 0 0zm0 -1l0 0 0 0 -1 0 0 0 1 0 0 0zm0 0l0 0 0 0 -1 0 0 0 1 0 0 0zm0 13l0 0 -1 0 0 0 1 0 0 0zm-1 -14l0 15 3 0 0 -15 -3 0 0 0z"/>
   <polygon class="fil27" points="73,65 73,65 73,50 73,50 "/>
   <path class="fil29" d="M70 57l-1 0 0 -2c0,0 0,0 0,0l0 0 0 0c0,0 1,0 1,0l0 2z"/>
   <path class="fil40" d="M70 58l-1 0 -1 -2c0,0 0,0 0,0 1,0 1,0 1,0l1 0c0,0 0,0 0,0 0,0 0,0 0,0l0 2z"/>
   <path class="fil10" d="M69 56l1 0c0,0 0,0 0,0 0,0 0,0 0,0l0 1 -1 0 0 -1 0 0z"/>
   <polygon class="fil40" points="70,71 68,57 70,57 72,71 "/>
   <polygon class="fil10" points="71,71 69,57 70,57 72,71 "/>
   <polygon class="fil43" points="70,57 70,56 68,57 68,57 68,57 68,57 68,61 69,61 69,61 69,60 69,59 68,57 68,57 68,57 "/>
   <polygon class="fil10" points="74,58 73,58 72,71 73,71 "/>
   <polygon class="fil44" points="74,58 73,58 72,71 72,71 "/>
   <path class="fil10" d="M74 54c0,0 0,0 0,0l-1 5 1 0 0 3 0 0c0,0 0,0 0,-1 0,0 0,-2 0,-2 0,-2 0,-3 0,-5z"/>
   <polygon class="fil45" points="74,59 73,59 73,59 74,59 "/>
   <polygon class="fil46" points="66,58 69,69 70,69 67,58 66,58 "/>
   <polygon class="fil47" points="66,58 69,69 69,69 66,58 "/>
   <path class="fil31" d="M67 58l-1 -2 0 2c0,1 0,1 0,1 0,0 0,-1 0,-1 1,0 1,1 1,0 0,0 0,0 0,0z"/>
   <path class="fil48" d="M66 56l0 2c0,1 0,1 0,1 0,0 0,-1 0,-1l0 0 0 -2z"/>
   <polygon class="fil49" points="66,57 66,56 66,57 "/>
   <polygon class="fil46" points="67,57 68,68 69,68 68,57 67,57 "/>
   <polygon class="fil47" points="67,57 68,68 69,68 67,57 "/>
   <path class="fil31" d="M68 57l-1 -3 0 3c0,0 0,0 0,0 0,0 0,0 0,0 1,0 1,0 1,0 0,0 0,0 0,0z"/>
   <path class="fil48" d="M67 54l0 3c0,0 0,0 0,0 0,0 0,0 0,0l0 0 0 -3z"/>
   <polygon class="fil49" points="67,55 67,54 67,55 "/>
   <path class="fil41" d="M74 61l0 11c0,1 0,1 0,1l-7 0c0,0 -1,0 -1,-1l0 -11 8 0z"/>
   <polygon class="fil10" points="66,63 74,63 74,61 66,61 "/>
   <path class="fil50" d="M74 72l0 -9 -4 0 0 10 4 0c0,0 0,0 0,-1z"/>
   <polygon class="fil51" points="70,63 74,63 74,61 70,61 "/>
   <polygon class="fil40" points="59,42 57,42 56,73 59,73 "/>
   <path class="fil10" d="M73 74c-1,-2 -3,-3 -5,-3l-16 0c-2,0 -4,1 -5,3l26 0 0 0z"/>
  </g>
  <path class="fil52 str2" d="M4 25l35 0 0 -5c0,-2 -2,-3 -3,-3l-30 0c-1,0 -2,1 -2,3l0 5z"/>
  <g>
   <path class="fil52" d="M3 24l0 4 5 -3 2 2 3 -2 3 2 3 -1 3 1 2 -1 3 1 3 -2 3 3 3 -3 2 3 1 -9c0,0 0,-1 -2,-2 -2,0 -30,0 -30,0 0,0 -3,0 -3,1 0,1 -1,6 -1,6z"/>
   <path id="1" class="fil4" d="M3 28l0 -4 1 0 0 4 -1 0 0 0zm0 0l0 1 0 -1 0 0zm5 -2l-5 2 0 -1 5 -2 1 0 -1 1zm0 -1l0 0 1 0 -1 0zm2 2l-2 -1 1 -1 1 2 0 0 0 0zm0 0l0 1 0 -1 0 0zm3 -1l-3 1 0 0 3 -2 0 0 0 1zm0 -1l0 0 0 0 0 0zm2 3l-2 -2 0 -1 3 2 0 1 -1 0zm1 0l0 0 -1 0 1 0zm3 -2l-3 2 -1 -1 4 -2 0 0 0 1zm0 -1l0 0 0 0 0 0zm2 3l-2 -2 0 -1 3 2 0 1 -1 0zm1 0l0 0 -1 0 1 0zm2 -2l-2 2 -1 -1 3 -1 0 -1 0 1zm0 0l0 -1 0 0 0 1zm3 2l-3 -2 0 -1 3 2 0 1 0 0zm0 0l0 0 0 0 0 0zm4 -2l-4 2 0 -1 3 -2 1 0 0 1zm-1 -1l0 0 1 0 -1 0zm2 3l-2 -2 1 -1 2 3 0 0 -1 0zm1 0l0 0 -1 0 1 0zm3 -2l-3 2 -1 0 4 -3 0 0 0 1zm0 -1l0 0 0 0 0 0zm2 3l-2 -2 0 -1 2 2 1 1 -1 0zm1 0l-1 1 0 -1 1 0zm0 -9l0 9 -1 0 0 -9 1 0 0 0zm0 0l0 0 0 0 0 0zm-2 -1l0 -1 0 0 0 0 0 0 0 0 1 0 0 0 0 0 0 0 0 1 0 0 0 0 0 0 1 0 0 0 0 0 0 0 0 0 0 0 0 1 0 0 0 0 0 0 0 0 0 0 0 0 0 0 0 0 0 0 0 0 0 0 0 0 0 0 0 0 -1 0 0 0 0 0 0 0 0 0 0 0 0 0 0 0 0 0 0 0 0 0 0 0 0 0 0 0 0 0 0 0 0 0 0 0 0 0 0 -1 0 0 0 0 0 0 0 0 -1 0 0 0 0 0 0 0 0 0 0 0 0 0 0 0 0 0 0 0zm-30 -1l0 0 0 0 0 0 1 0 0 0 0 0 1 0 1 0 1 0 1 0 1 0 1 0 1 0 1 0 1 0 2 0 1 0 1 0 2 0 1 0 1 0 2 0 1 0 1 0 1 0 1 0 1 0 1 0 1 0 1 0 1 0 0 0 1 0 0 0 0 1 -1 0 0 -1 0 0 -1 0 -1 0 -1 0 -1 0 -1 0 -1 0 -1 0 -1 0 -1 0 -2 0 -1 0 -1 0 -2 0 -1 0 -1 0 -2 0 -1 0 -1 0 -1 0 -1 0 -1 0 -1 0 -1 0 -1 0 -1 0 0 0 0 0 -1 0 0 0 0 0zm-3 1l0 0 0 0 0 0 0 0 0 0 0 0 0 0 0 0 0 -1 0 0 0 0 1 0 0 0 0 0 0 0 0 0 0 0 1 0 0 0 0 0 0 0 0 0 0 0 0 0 1 0 0 0 0 0 0 0 0 0 0 0 0 0 0 0 0 0 0 0 0 0 0 0 0 0 0 0 0 0 0 0 0 0 0 0 0 0 0 1 0 0 0 0 -1 0 0 0 0 0 0 0 0 0 0 0 0 0 -1 0 0 0 0 0 0 0 0 0 0 0 0 0 0 0 0 0 0 0 -1 0 0 0 0 0 0 0 0 0zm0 6l-1 0 0 0 0 0 0 0 0 0 0 0 0 0 0 0 0 -1 0 0 0 0 0 0 0 0 0 -1 0 0 0 0 0 0 0 0 0 -1 0 0 0 0 0 0 0 -1 0 0 0 0 0 0 0 -1 0 0 0 0 0 0 0 0 0 0 0 -1 1 0 0 0 0 1 0 0 0 0 0 0 0 0 0 0 0 1 0 0 0 0 0 0 0 0 0 1 0 0 0 0 0 0 0 1 0 0 0 0 0 0 0 1 0 0 0 0 0 0 0 0 0 0 0 1 0 0 0 0 0 0 0 0 0 0 0 0 0 0zm-1 0l0 0 0 0 0 0z"/>
  </g>
  <polygon class="fil53" points="17,47 14,47 14,35 10,37 10,34 16,32 17,32 "/>
  <path id="1" class="fil53" d="M32 41c0,2 0,4 -1,5 -1,1 -2,1 -4,1 -2,0 -3,0 -4,-1 -1,-1 -1,-3 -1,-5l0 -3c0,-2 0,-4 1,-5 1,-1 2,-1 4,-1 2,0 3,0 4,1 1,1 1,3 1,5l0 3zm-3 -3c0,-1 0,-2 0,-3 -1,-1 -1,-1 -2,-1 -1,0 -1,0 -2,1 0,1 0,1 0,3l0 3c0,2 0,2 0,3 1,1 1,1 2,1 1,0 1,0 2,-1 0,0 0,-1 0,-3l0 -3z"/>
  <g>
   <g>
    <path class="fil52" d="M11 12l2 0c0,0 1,0 1,1l0 7c0,1 -1,1 -1,1l-2 0c0,0 -1,0 -1,-1l0 -7c0,-1 1,-1 1,-1z"/>
    <path id="1" class="fil54" d="M13 13l-2 0 0 -2 2 0 0 0 0 2zm2 0l-2 0 0 0 0 0 0 0 0 0 0 0 0 0 0 0 0 0 0 0 0 0 0 0 0 0 0 0 0 0 0 0 0 0 0 0 0 0 0 0 0 0 0 0 0 0 0 0 0 0 0 0 0 0 0 0 0 0 0 0 0 0 0 0 0 0 0 0 0 -2 0 0 0 0 0 0 0 0 0 0 0 0 0 0 0 0 0 0 1 0 0 0 0 0 0 0 0 1 0 0 0 0 0 0 0 0 0 0 0 0 0 0 0 0 0 0 0 0 0 0 0 0 0 1 0 0 1 0 0 0 0 0 0 0 0 0zm-2 7l0 -7 2 0 0 7 0 0 -2 0zm0 2l0 -2 0 0 0 0 0 0 0 0 0 0 0 0 0 0 0 0 0 0 0 0 0 0 0 0 0 0 0 0 0 0 0 0 0 0 0 0 0 0 0 0 0 0 0 0 0 0 0 0 0 0 0 0 0 0 0 0 0 0 0 0 0 0 0 0 0 0 2 0 0 0 0 0 0 0 -1 1 0 0 0 0 0 0 0 0 0 0 0 0 0 0 0 0 0 0 0 0 0 0 0 1 0 0 0 0 0 0 0 0 0 0 0 0 -1 0 0 0 0 0 0 0 0 0 0 0 0 0 0 0 0 0 0 0 0 0zm-2 -2l2 0 0 2 -2 0 0 0 0 -2zm-2 0l2 0 0 0 0 0 0 0 0 0 0 0 0 0 0 0 0 0 0 0 0 0 0 0 0 0 0 0 0 0 0 0 0 0 0 0 0 0 0 0 0 0 0 0 0 0 0 0 0 0 0 0 0 0 0 0 0 0 0 0 0 0 0 0 0 0 0 0 0 2 0 0 0 0 0 0 0 0 0 0 0 0 0 0 0 0 -1 0 0 0 0 0 0 0 0 0 0 0 0 0 0 0 0 -1 0 0 0 0 0 0 0 0 0 0 0 0 -1 0 0 0 0 0 0 0 0 0 0 -1 0 0 0 0 0 0 0 0zm2 -7l0 7 -2 0 0 -7 0 0 2 0zm0 -2l0 2 0 0 0 0 0 0 0 0 0 0 0 0 0 0 0 0 0 0 0 0 0 0 0 0 0 0 0 0 0 0 0 0 0 0 0 0 0 0 0 0 0 0 0 0 0 0 0 0 0 0 0 0 0 0 0 0 0 0 0 0 0 0 0 0 0 0 -2 0 0 0 0 0 0 0 0 0 0 0 0 -1 0 0 0 0 1 0 0 0 0 0 0 0 0 0 0 0 0 0 0 0 0 0 0 0 0 -1 0 0 0 0 0 0 0 0 1 0 0 0 0 0 0 0 0 0 0 0 0 0 0 0 0 0 0 0z"/>
   </g>
   <g>
    <path class="fil52" d="M20 12l2 0c0,0 1,0 1,1l0 7c0,1 -1,1 -1,1l-2 0c0,0 -1,0 -1,-1l0 -7c0,-1 1,-1 1,-1z"/>
    <path id="1" class="fil54" d="M22 13l-2 0 0 -2 2 0 0 0 0 2zm2 0l-2 0 0 0 0 0 0 0 0 0 0 0 0 0 0 0 0 0 0 0 0 0 0 0 0 0 0 0 0 0 0 0 0 0 0 0 0 0 0 0 0 0 0 0 0 0 0 0 0 0 0 0 0 0 0 0 0 0 0 0 0 0 0 0 0 0 0 0 0 -2 0 0 0 0 0 0 0 0 0 0 0 0 0 0 1 0 0 0 0 0 0 0 0 0 0 0 0 1 0 0 0 0 0 0 0 0 0 0 0 0 0 0 1 0 0 0 0 0 0 0 0 0 0 1 0 0 0 0 0 0 0 0 0 0 0 0zm-2 7l0 -7 2 0 0 7 0 0 -2 0zm0 2l0 -2 0 0 0 0 0 0 0 0 0 0 0 0 0 0 0 0 0 0 0 0 0 0 0 0 0 0 0 0 0 0 0 0 0 0 0 0 0 0 0 0 0 0 0 0 0 0 0 0 0 0 0 0 0 0 0 0 0 0 0 0 0 0 0 0 0 0 2 0 0 0 0 0 0 0 0 1 0 0 0 0 0 0 0 0 0 0 0 0 -1 0 0 0 0 0 0 0 0 0 0 1 0 0 0 0 0 0 0 0 0 0 0 0 0 0 0 0 -1 0 0 0 0 0 0 0 0 0 0 0 0 0 0 0 0 0zm-2 -2l2 0 0 2 -2 0 0 0 0 -2zm-1 0l1 0 0 0 0 0 0 0 0 0 0 0 0 0 0 0 0 0 0 0 0 0 0 0 0 0 0 0 0 0 0 0 0 0 0 0 0 0 0 0 0 0 0 0 0 0 0 0 0 0 0 0 0 0 0 0 0 0 0 0 0 0 0 0 0 0 0 0 0 2 0 0 0 0 0 0 0 0 0 0 0 0 0 0 0 0 0 0 0 0 -1 0 0 0 0 0 0 0 0 0 0 0 0 -1 0 0 0 0 0 0 0 0 0 0 0 0 0 0 0 0 0 0 0 0 0 0 0 -1 0 0 0 0 0 0 0 0zm1 -7l0 7 -1 0 0 -7 0 0 1 0zm0 -2l0 2 0 0 0 0 0 0 0 0 0 0 0 0 0 0 0 0 0 0 0 0 0 0 0 0 0 0 0 0 0 0 0 0 0 0 0 0 0 0 0 0 0 0 0 0 0 0 0 0 0 0 0 0 0 0 0 0 0 0 0 0 0 0 0 0 0 0 -1 0 0 0 0 0 0 0 0 0 0 0 0 -1 0 0 0 0 0 0 0 0 0 0 0 0 0 0 0 0 0 0 0 0 0 0 0 0 0 -1 0 0 0 0 1 0 0 0 0 0 0 0 0 0 0 0 0 0 0 0 0 0 0 0 0 0 0 0z"/>
   </g>
   <g>
    <path class="fil52" d="M29 12l2 0c0,0 1,0 1,1l0 7c0,1 -1,1 -1,1l-2 0c0,0 -1,0 -1,-1l0 -7c0,-1 1,-1 1,-1z"/>
    <path id="1" class="fil54" d="M31 13l-2 0 0 -2 2 0 0 0 0 2zm2 0l-2 0 0 0 0 0 0 0 0 0 0 0 0 0 0 0 0 0 0 0 0 0 0 0 0 0 0 0 0 0 0 0 0 0 0 0 0 0 0 0 0 0 0 0 0 0 0 0 0 0 0 0 0 0 0 0 0 0 0 0 0 0 0 0 0 0 0 0 0 -2 0 0 0 0 0 0 0 0 0 0 0 0 0 0 0 0 1 0 0 0 0 0 0 0 0 0 0 1 0 0 0 0 0 0 0 0 0 0 0 0 0 0 0 0 0 0 1 0 0 0 0 0 0 1 0 0 0 0 0 0 0 0 0 0 0 0zm-2 7l0 -7 2 0 0 7 0 0 -2 0zm0 2l0 -2 0 0 0 0 0 0 0 0 0 0 0 0 0 0 0 0 0 0 0 0 0 0 0 0 0 0 0 0 0 0 0 0 0 0 0 0 0 0 0 0 0 0 0 0 0 0 0 0 0 0 0 0 0 0 0 0 0 0 0 0 0 0 0 0 0 0 2 0 0 0 0 0 0 0 0 1 0 0 0 0 0 0 0 0 -1 0 0 0 0 0 0 0 0 0 0 0 0 0 0 1 0 0 0 0 0 0 0 0 0 0 0 0 0 0 -1 0 0 0 0 0 0 0 0 0 0 0 0 0 0 0 0 0 0 0zm-2 -2l2 0 0 2 -2 0 0 0 0 -2zm-2 0l2 0 0 0 0 0 0 0 0 0 0 0 0 0 0 0 0 0 0 0 0 0 0 0 0 0 0 0 0 0 0 0 0 0 0 0 0 0 0 0 0 0 0 0 0 0 0 0 0 0 0 0 0 0 0 0 0 0 0 0 0 0 0 0 0 0 0 0 0 2 0 0 0 0 0 0 0 0 0 0 0 0 0 0 0 0 0 0 -1 0 0 0 0 0 0 0 0 0 0 0 0 0 0 -1 0 0 0 0 0 0 0 0 0 0 0 0 0 0 0 0 0 0 0 0 -1 0 0 -1 0 0 0 0 0 0 0 0zm2 -7l0 7 -2 0 0 -7 0 0 2 0zm0 -2l0 2 0 0 0 0 0 0 0 0 0 0 0 0 0 0 0 0 0 0 0 0 0 0 0 0 0 0 0 0 0 0 0 0 0 0 0 0 0 0 0 0 0 0 0 0 0 0 0 0 0 0 0 0 0 0 0 0 0 0 0 0 0 0 0 0 0 0 -2 0 0 0 0 0 0 0 0 0 1 0 0 -1 0 0 0 0 0 0 0 0 0 0 0 0 0 0 0 0 0 0 0 0 0 0 0 0 0 -1 0 0 0 0 0 0 1 0 0 0 0 0 0 0 0 0 0 0 0 0 0 0 0 0 0 0 0 0z"/>
   </g>
  </g>
  <rect class="fil55" width="208" height="159"/>
  <rect class="fil56" x="76" y="3" width="57.172" height="50.8179"/>
  <g>
   <g style="clip-path:url(#id0)">
    <polygon class="fil13" points="95,49 95,49 95,49 95,49 "/>
    <path id="1" class="fil13" d="M95 49l0 0 0 0 0 0 0 0zm0 0l0 0 0 0 0 0 0 0z"/>
    <path id="2" class="fil57" d="M95 49l0 0 0 0 0 0 0 0zm0 0l0 0 0 0 0 0 0 0z"/>
    <path id="3" class="fil57" d="M95 49l0 0 0 0 0 0 0 0zm0 0l0 0 0 0 0 0 0 0z"/>
    <path id="4" class="fil57" d="M95 49l0 0 0 0 0 0 0 0zm-1 0l1 0 0 0 -1 0 0 0z"/>
    <path id="5" class="fil58" d="M94 49l1 0 0 0 -1 0 0 0zm0 0l1 0 0 0 -1 0 0 0z"/>
    <path id="6" class="fil58" d="M94 49l1 0 0 0 -1 0 0 0zm0 0l1 0 0 1 -1 0 0 -1z"/>
    <path id="7" class="fil59" d="M94 49l1 0 0 0 -1 0 0 0zm0 0l1 0 0 1 -1 0 0 -1z"/>
    <path id="8" class="fil59" d="M94 49l1 0 0 1 -1 0 0 -1zm0 0l1 0 0 1 -1 0 0 -1z"/>
    <path id="9" class="fil59" d="M94 49l1 0 0 1 -1 0 0 -1zm0 0l1 0 0 1 -1 0 0 -1z"/>
    <path id="10" class="fil60" d="M94 49l1 0 0 1 -1 0 0 -1zm0 0l1 0 0 1 -1 0 0 -1z"/>
    <path id="11" class="fil60" d="M94 49l1 0 0 1 -1 0 0 -1zm0 0l1 0 0 1 -1 0 0 -1z"/>
    <path id="12" class="fil60" d="M94 49l1 0 0 1 -1 0 0 -1zm0 0l1 0 0 1 -1 0 0 -1z"/>
    <path id="13" class="fil61" d="M94 49l1 0 0 1 -1 0 0 -1zm0 0l2 0 0 1 -2 0 0 -1z"/>
    <path id="14" class="fil61" d="M94 49l2 0 0 1 -2 0 0 -1zm0 0l2 0 0 1 -2 0 0 -1z"/>
    <path id="15" class="fil61" d="M94 49l2 0 0 1 -2 0 0 -1zm0 0l2 0 0 1 -2 0 0 -1z"/>
    <path id="16" class="fil62" d="M94 49l2 0 0 1 -2 0 0 -1zm0 0l2 0 0 1 -2 0 0 -1z"/>
    <path id="17" class="fil62" d="M94 49l2 0 0 1 -2 0 0 -1zm0 0l2 0 0 1 -2 0 0 -1z"/>
    <path id="18" class="fil62" d="M94 49l2 0 0 1 -2 0 0 -1zm0 0l2 0 0 1 -2 0 0 -1z"/>
    <path id="19" class="fil63" d="M94 49l2 0 0 1 -2 0 0 -1zm0 0l2 0 0 1 -2 0 0 -1z"/>
    <path id="20" class="fil63" d="M94 49l2 0 0 1 -2 0 0 -1zm0 0l2 0 0 1 -2 0 0 -1z"/>
    <path id="21" class="fil64" d="M94 49l2 0 0 1 -2 0 0 -1zm0 0l2 0 0 1 -2 0 0 -1z"/>
    <path id="22" class="fil64" d="M94 49l2 0 0 1 -2 0 0 -1zm0 0l2 0 0 1 -2 0 0 -1z"/>
    <path id="23" class="fil64" d="M94 49l2 0 0 1 -2 0 0 -1zm-1 0l3 0 0 1 -3 0 0 -1z"/>
    <path id="24" class="fil65" d="M93 49l3 0 0 1 -3 0 0 -1zm0 0l3 0 0 1 -3 0 0 -1z"/>
    <path id="25" class="fil65" d="M93 49l3 0 0 1 -3 0 0 -1zm0 0l3 0 0 1 -3 0 0 -1z"/>
    <path id="26" class="fil65" d="M93 49l3 0 0 1 -3 0 0 -1zm0 0l3 0 0 1 -3 0 0 -1z"/>
    <path id="27" class="fil66" d="M93 49l3 0 0 1 -3 0 0 -1zm0 0l3 0 0 1 -3 0 0 -1z"/>
    <path id="28" class="fil66" d="M93 49l3 0 0 1 -3 0 0 -1zm0 0l3 0 0 1 -3 0 0 -1z"/>
    <path id="29" class="fil66" d="M93 49l3 0 0 1 -3 0 0 -1zm0 0l3 0 0 1 -3 0 0 -1z"/>
    <path id="30" class="fil67" d="M93 49l3 0 0 1 -3 0 0 -1zm0 0l3 0 0 1 -3 0 0 -1z"/>
    <path id="31" class="fil67" d="M93 49l3 0 0 1 -3 0 0 -1zm0 0l3 0 0 1 -3 0 0 -1z"/>
    <path id="32" class="fil67" d="M93 49l3 0 0 1 -3 0 0 -1zm0 0l4 0 0 1 -4 0 0 -1z"/>
    <path id="33" class="fil68" d="M93 49l4 0 0 1 -4 0 0 -1zm0 0l4 0 0 1 -4 0 0 -1z"/>
    <path id="34" class="fil68" d="M93 49l4 0 0 1 -4 0 0 -1zm0 0l4 0 0 1 -4 0 0 -1z"/>
    <path id="35" class="fil69" d="M93 49l4 0 0 1 -4 0 0 -1zm0 0l4 0 0 1 -4 0 0 -1z"/>
    <path id="36" class="fil69" d="M93 49l4 0 0 1 -4 0 0 -1zm0 0l4 0 0 1 -4 0 0 -1z"/>
    <path id="37" class="fil69" d="M93 49l4 0 0 1 -4 0 0 -1zm0 0l4 0 0 1 -4 0 0 -1z"/>
    <path id="38" class="fil70" d="M93 49l4 0 0 1 -4 0 0 -1zm0 0l4 0 0 1 -4 0 0 -1z"/>
    <path id="39" class="fil71" d="M93 49l4 0 0 1 -4 0 0 -1zm0 0l4 0 0 1 -4 0 0 -1z"/>
    <path id="40" class="fil71" d="M93 49l4 0 0 1 -4 0 0 -1zm0 0l4 0 0 1 -4 0 0 -1z"/>
    <path id="41" class="fil72" d="M93 49l4 0 0 1 -4 0 0 -1zm0 0l4 0 0 1 -4 0 0 -1z"/>
    <path id="42" class="fil72" d="M93 49l4 0 0 1 -4 0 0 -1zm-1 0l5 0 0 1 -5 0 0 -1z"/>
    <path id="43" class="fil72" d="M92 49l5 0 0 1 -5 0 0 -1zm0 0l5 0 0 1 -5 0 0 -1z"/>
    <path id="44" class="fil73" d="M92 49l5 0 0 1 -5 0 0 -1zm0 0l5 0 0 1 -5 0 0 -1z"/>
    <path id="45" class="fil73" d="M92 49l5 0 0 1 -5 0 0 -1zm0 0l5 0 0 1 -5 0 0 -1z"/>
    <path id="46" class="fil73" d="M92 49l5 0 0 1 -5 0 0 -1zm0 0l5 0 0 1 -5 0 0 -1z"/>
    <path id="47" class="fil74" d="M92 49l5 0 0 1 -5 0 0 -1zm0 0l5 0 0 1 -5 0 0 -1z"/>
    <path id="48" class="fil74" d="M92 49l5 0 0 1 -5 0 0 -1zm0 -1l5 0 0 2 -5 0 0 -2z"/>
    <path id="49" class="fil75" d="M92 49l5 0 0 1 -5 0 0 -1zm0 -1l5 0 0 2 -5 0 0 -2z"/>
    <path id="50" class="fil75" d="M92 48l5 0 0 2 -5 0 0 -2zm0 0l5 0 0 2 -5 0 0 -2z"/>
    <path id="51" class="fil75" d="M92 48l5 0 0 2 -5 0 0 -2zm0 0l6 0 0 2 -6 0 0 -2z"/>
    <path id="52" class="fil76" d="M92 48l6 0 0 2 -6 0 0 -2zm0 0l6 0 0 2 -6 0 0 -2z"/>
    <path id="53" class="fil76" d="M92 48l6 0 0 2 -6 0 0 -2zm0 0l6 0 0 2 -6 0 0 -2z"/>
    <path id="54" class="fil76" d="M92 48l6 0 0 2 -6 0 0 -2zm0 0l6 0 0 2 -6 0 0 -2z"/>
    <path id="55" class="fil77" d="M92 48l6 0 0 2 -6 0 0 -2zm0 0l6 0 0 2 -6 0 0 -2z"/>
    <path id="56" class="fil77" d="M92 48l6 0 0 2 -6 0 0 -2zm0 0l6 0 0 2 -6 0 0 -2z"/>
    <path id="57" class="fil77" d="M92 48l6 0 0 2 -6 0 0 -2zm0 0l6 0 0 2 -6 0 0 -2z"/>
    <path id="58" class="fil78" d="M92 48l6 0 0 2 -6 0 0 -2zm0 0l6 0 0 2 -6 0 0 -2z"/>
    <path id="59" class="fil78" d="M92 48l6 0 0 2 -6 0 0 -2zm0 0l6 0 0 2 -6 0 0 -2z"/>
    <path id="60" class="fil78" d="M92 48l6 0 0 2 -6 0 0 -2zm-1 0l7 0 0 2 -7 0 0 -2z"/>
    <path id="61" class="fil79" d="M92 48l6 0 0 2 -6 0 0 -2zm-1 0l7 0 0 2 -7 0 0 -2z"/>
    <path id="62" class="fil79" d="M91 48l7 0 0 2 -7 0 0 -2zm0 0l7 0 0 2 -7 0 0 -2z"/>
    <path id="63" class="fil80" d="M91 48l7 0 0 2 -7 0 0 -2zm0 0l7 0 0 3 -7 0 0 -3z"/>
    <path id="64" class="fil81" d="M91 48l7 0 0 3 -7 0 0 -3zm0 0l7 0 0 3 -7 0 0 -3z"/>
    <path id="65" class="fil81" d="M91 48l7 0 0 3 -7 0 0 -3zm0 0l7 0 0 3 -7 0 0 -3z"/>
    <path id="66" class="fil82" d="M91 48l7 0 0 3 -7 0 0 -3zm0 0l7 0 0 3 -7 0 0 -3z"/>
    <path id="67" class="fil82" d="M91 48l7 0 0 3 -7 0 0 -3zm0 0l7 0 0 3 -7 0 0 -3z"/>
    <path id="68" class="fil82" d="M91 48l7 0 0 3 -7 0 0 -3zm0 0l7 0 0 3 -7 0 0 -3z"/>
    <path id="69" class="fil83" d="M91 48l7 0 0 3 -7 0 0 -3zm0 0l8 0 0 3 -8 0 0 -3z"/>
    <path id="70" class="fil83" d="M91 48l7 0 0 3 -7 0 0 -3zm0 0l8 0 0 3 -8 0 0 -3z"/>
    <path id="71" class="fil83" d="M91 48l8 0 0 3 -8 0 0 -3zm0 0l8 0 0 3 -8 0 0 -3z"/>
    <path id="72" class="fil84" d="M91 48l8 0 0 3 -8 0 0 -3zm0 0l8 0 0 3 -8 0 0 -3z"/>
    <path id="73" class="fil84" d="M91 48l8 0 0 3 -8 0 0 -3zm0 0l8 0 0 3 -8 0 0 -3z"/>
    <path id="74" class="fil85" d="M91 48l8 0 0 3 -8 0 0 -3zm0 0l8 0 0 3 -8 0 0 -3z"/>
    <path id="75" class="fil85" d="M91 48l8 0 0 3 -8 0 0 -3zm0 0l8 0 0 3 -8 0 0 -3z"/>
    <path id="76" class="fil85" d="M91 48l8 0 0 3 -8 0 0 -3zm0 0l8 0 0 3 -8 0 0 -3z"/>
    <path id="77" class="fil86" d="M91 48l8 0 0 3 -8 0 0 -3zm0 0l8 0 0 3 -8 0 0 -3z"/>
    <path id="78" class="fil86" d="M91 48l8 0 0 3 -8 0 0 -3zm0 0l8 0 0 3 -8 0 0 -3z"/>
    <path id="79" class="fil86" d="M91 48l8 0 0 3 -8 0 0 -3zm-1 0l9 0 0 3 -9 0 0 -3z"/>
    <path id="80" class="fil87" d="M91 48l8 0 0 3 -8 0 0 -3zm-1 0l9 0 0 3 -9 0 0 -3z"/>
    <path id="81" class="fil87" d="M90 48l9 0 0 3 -9 0 0 -3zm0 0l9 0 0 3 -9 0 0 -3z"/>
    <path id="82" class="fil87" d="M90 48l9 0 0 3 -9 0 0 -3zm0 0l9 0 0 3 -9 0 0 -3z"/>
    <path id="83" class="fil88" d="M90 48l9 0 0 3 -9 0 0 -3zm0 0l9 0 0 3 -9 0 0 -3z"/>
    <path id="84" class="fil88" d="M90 48l9 0 0 3 -9 0 0 -3zm0 0l9 0 0 3 -9 0 0 -3z"/>
    <path id="85" class="fil88" d="M90 48l9 0 0 3 -9 0 0 -3zm0 0l9 0 0 3 -9 0 0 -3z"/>
    <path id="86" class="fil89" d="M90 48l9 0 0 3 -9 0 0 -3zm0 0l9 0 0 3 -9 0 0 -3z"/>
    <path id="87" class="fil89" d="M90 48l9 0 0 3 -9 0 0 -3zm0 0l9 0 0 3 -9 0 0 -3z"/>
    <path id="88" class="fil90" d="M90 48l9 0 0 3 -9 0 0 -3zm0 0l10 0 0 3 -10 0 0 -3z"/>
    <path id="89" class="fil90" d="M90 48l9 0 0 3 -9 0 0 -3zm0 0l10 0 0 3 -10 0 0 -3z"/>
    <path id="90" class="fil90" d="M90 48l10 0 0 3 -10 0 0 -3zm0 0l10 0 0 3 -10 0 0 -3z"/>
    <path id="91" class="fil91" d="M90 48l10 0 0 3 -10 0 0 -3zm0 0l10 0 0 3 -10 0 0 -3z"/>
    <path id="92" class="fil91" d="M90 48l10 0 0 3 -10 0 0 -3zm0 0l10 0 0 3 -10 0 0 -3z"/>
    <path id="93" class="fil91" d="M90 48l10 0 0 3 -10 0 0 -3zm0 0l10 0 0 3 -10 0 0 -3z"/>
    <path id="94" class="fil92" d="M90 48l10 0 0 3 -10 0 0 -3zm0 0l10 0 0 3 -10 0 0 -3z"/>
    <path id="95" class="fil92" d="M90 48l10 0 0 3 -10 0 0 -3zm0 0l10 0 0 3 -10 0 0 -3z"/>
    <path id="96" class="fil92" d="M90 48l10 0 0 3 -10 0 0 -3zm0 0l10 0 0 3 -10 0 0 -3z"/>
    <path id="97" class="fil93" d="M90 48l10 0 0 3 -10 0 0 -3zm0 0l10 0 0 3 -10 0 0 -3z"/>
    <path id="98" class="fil93" d="M90 48l10 0 0 3 -10 0 0 -3zm-1 0l11 0 0 3 -11 0 0 -3z"/>
    <path id="99" class="fil93" d="M90 48l10 0 0 3 -10 0 0 -3zm-1 0l11 0 0 3 -11 0 0 -3z"/>
    <path id="100" class="fil94" d="M89 48l11 0 0 3 -11 0 0 -3zm0 0l11 0 0 3 -11 0 0 -3z"/>
    <path id="101" class="fil94" d="M89 48l11 0 0 3 -11 0 0 -3zm0 0l11 0 0 3 -11 0 0 -3z"/>
    <path id="102" class="fil95" d="M89 48l11 0 0 3 -11 0 0 -3zm0 0l11 0 0 3 -11 0 0 -3z"/>
    <path id="103" class="fil95" d="M89 48l11 0 0 3 -11 0 0 -3zm0 0l11 0 0 3 -11 0 0 -3z"/>
    <path id="104" class="fil95" d="M89 48l11 0 0 3 -11 0 0 -3zm0 0l11 0 0 3 -11 0 0 -3z"/>
    <path id="105" class="fil96" d="M89 48l11 0 0 3 -11 0 0 -3zm0 -1l11 0 0 4 -11 0 0 -4z"/>
    <path id="106" class="fil96" d="M89 47l11 0 0 4 -11 0 0 -4zm0 0l11 0 0 4 -11 0 0 -4z"/>
    <path id="107" class="fil96" d="M89 47l11 0 0 4 -11 0 0 -4zm0 0l12 0 0 4 -12 0 0 -4z"/>
    <path id="108" class="fil97" d="M89 47l11 0 0 4 -11 0 0 -4zm0 0l12 0 0 4 -12 0 0 -4z"/>
    <path id="109" class="fil97" d="M89 47l12 0 0 4 -12 0 0 -4zm0 0l12 0 0 4 -12 0 0 -4z"/>
    <path id="110" class="fil97" d="M89 47l12 0 0 4 -12 0 0 -4zm0 0l12 0 0 4 -12 0 0 -4z"/>
    <path id="111" class="fil98" d="M89 47l12 0 0 4 -12 0 0 -4zm0 0l12 0 0 4 -12 0 0 -4z"/>
    <path id="112" class="fil98" d="M89 47l12 0 0 4 -12 0 0 -4zm0 0l12 0 0 4 -12 0 0 -4z"/>
    <path id="113" class="fil98" d="M89 47l12 0 0 4 -12 0 0 -4zm0 0l12 0 0 4 -12 0 0 -4z"/>
    <path id="114" class="fil99" d="M89 47l12 0 0 4 -12 0 0 -4zm0 0l12 0 0 4 -12 0 0 -4z"/>
    <path id="115" class="fil100" d="M89 47l12 0 0 4 -12 0 0 -4zm0 0l12 0 0 4 -12 0 0 -4z"/>
    <path id="116" class="fil101" d="M89 47l12 0 0 4 -12 0 0 -4zm0 0l12 0 0 4 -12 0 0 -4z"/>
    <path id="117" class="fil101" d="M89 47l12 0 0 4 -12 0 0 -4zm-1 0l13 0 0 4 -13 0 0 -4z"/>
    <path id="118" class="fil101" d="M88 47l13 0 0 4 -13 0 0 -4zm0 0l13 0 0 4 -13 0 0 -4z"/>
    <path id="119" class="fil102" d="M88 47l13 0 0 4 -13 0 0 -4zm0 0l13 0 0 5 -13 0 0 -5z"/>
    <path id="120" class="fil102" d="M88 47l13 0 0 4 -13 0 0 -4zm0 0l13 0 0 5 -13 0 0 -5z"/>
    <path id="121" class="fil102" d="M88 47l13 0 0 5 -13 0 0 -5zm0 0l13 0 0 5 -13 0 0 -5z"/>
    <path id="122" class="fil103" d="M88 47l13 0 0 5 -13 0 0 -5zm0 0l13 0 0 5 -13 0 0 -5z"/>
    <path id="123" class="fil103" d="M88 47l13 0 0 5 -13 0 0 -5zm0 0l13 0 0 5 -13 0 0 -5z"/>
    <path id="124" class="fil103" d="M88 47l13 0 0 5 -13 0 0 -5zm0 0l13 0 0 5 -13 0 0 -5z"/>
    <path id="125" class="fil104" d="M88 47l13 0 0 5 -13 0 0 -5zm0 0l13 0 0 5 -13 0 0 -5z"/>
    <path id="126" class="fil104" d="M88 47l13 0 0 5 -13 0 0 -5zm0 0l14 0 0 5 -14 0 0 -5z"/>
    <path id="127" class="fil104" d="M88 47l14 0 0 5 -14 0 0 -5zm0 0l14 0 0 5 -14 0 0 -5z"/>
    <path id="128" class="fil105" d="M88 47l14 0 0 5 -14 0 0 -5zm0 0l14 0 0 5 -14 0 0 -5z"/>
    <path id="129" class="fil105" d="M88 47l14 0 0 5 -14 0 0 -5zm0 0l14 0 0 5 -14 0 0 -5z"/>
    <path id="130" class="fil106" d="M88 47l14 0 0 5 -14 0 0 -5zm0 0l14 0 0 5 -14 0 0 -5z"/>
    <path id="131" class="fil106" d="M88 47l14 0 0 5 -14 0 0 -5zm0 0l14 0 0 5 -14 0 0 -5z"/>
    <path id="132" class="fil106" d="M88 47l14 0 0 5 -14 0 0 -5zm0 0l14 0 0 5 -14 0 0 -5z"/>
    <path id="133" class="fil107" d="M88 47l14 0 0 5 -14 0 0 -5zm0 0l14 0 0 5 -14 0 0 -5z"/>
    <path id="134" class="fil107" d="M88 47l14 0 0 5 -14 0 0 -5zm0 0l14 0 0 5 -14 0 0 -5z"/>
    <path id="135" class="fil107" d="M88 47l14 0 0 5 -14 0 0 -5zm0 0l14 0 0 5 -14 0 0 -5z"/>
    <path id="136" class="fil108" d="M88 47l14 0 0 5 -14 0 0 -5zm-1 0l15 0 0 5 -15 0 0 -5z"/>
    <path id="137" class="fil108" d="M87 47l15 0 0 5 -15 0 0 -5zm0 0l15 0 0 5 -15 0 0 -5z"/>
    <path id="138" class="fil108" d="M87 47l15 0 0 5 -15 0 0 -5zm0 0l15 0 0 5 -15 0 0 -5z"/>
    <path id="139" class="fil109" d="M87 47l15 0 0 5 -15 0 0 -5zm0 0l15 0 0 5 -15 0 0 -5z"/>
    <path id="140" class="fil109" d="M87 47l15 0 0 5 -15 0 0 -5zm0 0l15 0 0 5 -15 0 0 -5z"/>
    <path id="141" class="fil110" d="M87 47l15 0 0 5 -15 0 0 -5zm0 0l15 0 0 5 -15 0 0 -5z"/>
    <path id="142" class="fil110" d="M87 47l15 0 0 5 -15 0 0 -5zm0 0l15 0 0 5 -15 0 0 -5z"/>
    <path id="143" class="fil110" d="M87 47l15 0 0 5 -15 0 0 -5zm0 0l15 0 0 5 -15 0 0 -5z"/>
    <path id="144" class="fil111" d="M87 47l15 0 0 5 -15 0 0 -5zm0 0l15 0 0 5 -15 0 0 -5z"/>
    <path id="145" class="fil111" d="M87 47l15 0 0 5 -15 0 0 -5zm0 0l16 0 0 5 -16 0 0 -5z"/>
    <path id="146" class="fil111" d="M87 47l16 0 0 5 -16 0 0 -5zm0 0l16 0 0 5 -16 0 0 -5z"/>
    <path id="147" class="fil112" d="M87 47l16 0 0 5 -16 0 0 -5zm0 0l16 0 0 5 -16 0 0 -5z"/>
    <path id="148" class="fil112" d="M87 47l16 0 0 5 -16 0 0 -5zm0 0l16 0 0 5 -16 0 0 -5z"/>
    <path id="149" class="fil112" d="M87 47l16 0 0 5 -16 0 0 -5zm0 0l16 0 0 5 -16 0 0 -5z"/>
    <path id="150" class="fil113" d="M87 47l16 0 0 5 -16 0 0 -5zm0 0l16 0 0 5 -16 0 0 -5z"/>
    <path id="151" class="fil113" d="M87 47l16 0 0 5 -16 0 0 -5zm0 0l16 0 0 5 -16 0 0 -5z"/>
    <path id="152" class="fil113" d="M87 47l16 0 0 5 -16 0 0 -5zm0 0l16 0 0 5 -16 0 0 -5z"/>
    <path id="153" class="fil114" d="M87 47l16 0 0 5 -16 0 0 -5zm0 0l16 0 0 5 -16 0 0 -5z"/>
    <path id="154" class="fil114" d="M87 47l16 0 0 5 -16 0 0 -5zm0 0l16 0 0 5 -16 0 0 -5z"/>
    <path id="155" class="fil115" d="M87 47l16 0 0 5 -16 0 0 -5zm-1 0l17 0 0 5 -17 0 0 -5z"/>
    <path id="156" class="fil115" d="M86 47l17 0 0 5 -17 0 0 -5zm0 0l17 0 0 5 -17 0 0 -5z"/>
    <path id="157" class="fil115" d="M86 47l17 0 0 5 -17 0 0 -5zm0 0l17 0 0 5 -17 0 0 -5z"/>
    <path id="158" class="fil116" d="M86 47l17 0 0 5 -17 0 0 -5zm0 0l17 0 0 5 -17 0 0 -5z"/>
    <path id="159" class="fil116" d="M86 47l17 0 0 5 -17 0 0 -5zm0 0l17 0 0 5 -17 0 0 -5z"/>
    <path id="160" class="fil116" d="M86 47l17 0 0 5 -17 0 0 -5zm0 0l17 0 0 5 -17 0 0 -5z"/>
    <path id="161" class="fil117" d="M86 47l17 0 0 5 -17 0 0 -5zm0 -1l17 0 0 6 -17 0 0 -6z"/>
    <path id="162" class="fil117" d="M86 46l17 0 0 6 -17 0 0 -6zm0 0l17 0 0 6 -17 0 0 -6z"/>
    <path id="163" class="fil117" d="M86 46l17 0 0 6 -17 0 0 -6zm0 0l17 0 0 6 -17 0 0 -6z"/>
    <path id="164" class="fil118" d="M86 46l17 0 0 6 -17 0 0 -6zm0 0l18 0 0 6 -18 0 0 -6z"/>
    <path id="165" class="fil118" d="M86 46l18 0 0 6 -18 0 0 -6zm0 0l18 0 0 6 -18 0 0 -6z"/>
    <path id="166" class="fil118" d="M86 46l18 0 0 6 -18 0 0 -6zm0 0l18 0 0 6 -18 0 0 -6z"/>
    <path id="167" class="fil119" d="M86 46l18 0 0 6 -18 0 0 -6zm0 0l18 0 0 6 -18 0 0 -6z"/>
    <path id="168" class="fil119" d="M86 46l18 0 0 6 -18 0 0 -6zm0 0l18 0 0 6 -18 0 0 -6z"/>
    <path id="169" class="fil120" d="M86 46l18 0 0 6 -18 0 0 -6zm0 0l18 0 0 6 -18 0 0 -6z"/>
    <path id="170" class="fil120" d="M86 46l18 0 0 6 -18 0 0 -6zm0 0l18 0 0 6 -18 0 0 -6z"/>
    <path id="171" class="fil120" d="M86 46l18 0 0 6 -18 0 0 -6zm0 0l18 0 0 6 -18 0 0 -6z"/>
    <path id="172" class="fil121" d="M86 46l18 0 0 6 -18 0 0 -6zm0 0l18 0 0 6 -18 0 0 -6z"/>
    <path id="173" class="fil121" d="M86 46l18 0 0 6 -18 0 0 -6zm-1 0l19 0 0 6 -19 0 0 -6z"/>
    <path id="174" class="fil121" d="M86 46l18 0 0 6 -18 0 0 -6zm-1 0l19 0 0 6 -19 0 0 -6z"/>
    <path id="175" class="fil122" d="M85 46l19 0 0 6 -19 0 0 -6zm0 0l19 0 0 6 -19 0 0 -6z"/>
    <path id="176" class="fil122" d="M85 46l19 0 0 6 -19 0 0 -6zm0 0l19 0 0 7 -19 0 0 -7z"/>
    <path id="177" class="fil122" d="M85 46l19 0 0 7 -19 0 0 -7zm0 0l19 0 0 7 -19 0 0 -7z"/>
    <path id="178" class="fil123" d="M85 46l19 0 0 7 -19 0 0 -7zm0 0l19 0 0 7 -19 0 0 -7z"/>
    <path id="179" class="fil123" d="M85 46l19 0 0 7 -19 0 0 -7zm0 0l19 0 0 7 -19 0 0 -7z"/>
    <path id="180" class="fil123" d="M85 46l19 0 0 7 -19 0 0 -7zm0 0l19 0 0 7 -19 0 0 -7z"/>
    <path id="181" class="fil124" d="M85 46l19 0 0 7 -19 0 0 -7zm0 0l19 0 0 7 -19 0 0 -7z"/>
    <path id="182" class="fil124" d="M85 46l19 0 0 7 -19 0 0 -7zm0 0l20 0 0 7 -20 0 0 -7z"/>
    <path id="183" class="fil125" d="M85 46l19 0 0 7 -19 0 0 -7zm0 0l20 0 0 7 -20 0 0 -7z"/>
    <path id="184" class="fil125" d="M85 46l20 0 0 7 -20 0 0 -7zm0 0l20 0 0 7 -20 0 0 -7z"/>
    <path id="185" class="fil125" d="M85 46l20 0 0 7 -20 0 0 -7zm0 0l20 0 0 7 -20 0 0 -7z"/>
    <path id="186" class="fil126" d="M85 46l20 0 0 7 -20 0 0 -7zm0 0l20 0 0 7 -20 0 0 -7z"/>
    <path id="187" class="fil126" d="M85 46l20 0 0 7 -20 0 0 -7zm0 0l20 0 0 7 -20 0 0 -7z"/>
    <path id="188" class="fil126" d="M85 46l20 0 0 7 -20 0 0 -7zm0 0l20 0 0 7 -20 0 0 -7z"/>
    <path id="189" class="fil127" d="M85 46l20 0 0 7 -20 0 0 -7zm0 0l20 0 0 7 -20 0 0 -7z"/>
    <path id="190" class="fil127" d="M85 46l20 0 0 7 -20 0 0 -7zm0 0l20 0 0 7 -20 0 0 -7z"/>
    <path id="191" class="fil127" d="M85 46l20 0 0 7 -20 0 0 -7zm0 0l20 0 0 7 -20 0 0 -7z"/>
    <path id="192" class="fil128" d="M85 46l20 0 0 7 -20 0 0 -7zm-1 0l21 0 0 7 -21 0 0 -7z"/>
    <path id="193" class="fil129" d="M85 46l20 0 0 7 -20 0 0 -7zm-1 0l21 0 0 7 -21 0 0 -7z"/>
    <path id="194" class="fil130" d="M84 46l21 0 0 7 -21 0 0 -7zm0 0l21 0 0 7 -21 0 0 -7z"/>
    <path id="195" class="fil131" d="M84 46l21 0 0 7 -21 0 0 -7zm0 0l21 0 0 7 -21 0 0 -7z"/>
    <path id="196" class="fil132" d="M84 46l21 0 0 7 -21 0 0 -7zm0 0l21 0 0 7 -21 0 0 -7z"/>
    <path id="197" class="fil133" d="M84 46l21 0 0 7 -21 0 0 -7zm0 0l21 0 0 7 -21 0 0 -7z"/>
    <path id="198" class="fil134" d="M84 46l21 0 0 7 -21 0 0 -7zm0 0l21 0 0 7 -21 0 0 -7z"/>
    <path id="199" class="fil135" d="M84 46l21 0 0 7 -21 0 0 -7zm0 0l21 0 0 7 -21 0 0 -7z"/>
    <path id="200" class="fil136" d="M84 46l21 0 0 7 -21 0 0 -7zm0 0l21 0 0 7 -21 0 0 -7z"/>
    <path id="201" class="fil137" d="M84 46l21 0 0 7 -21 0 0 -7zm0 0l22 0 0 7 -22 0 0 -7z"/>
    <path id="202" class="fil138" d="M84 46l21 0 0 7 -21 0 0 -7zm0 0l22 0 0 7 -22 0 0 -7z"/>
    <path id="203" class="fil139" d="M84 46l22 0 0 7 -22 0 0 -7zm0 0l22 0 0 7 -22 0 0 -7z"/>
    <path id="204" class="fil140" d="M84 46l22 0 0 7 -22 0 0 -7zm0 0l22 0 0 7 -22 0 0 -7z"/>
    <path id="205" class="fil141" d="M84 46l22 0 0 7 -22 0 0 -7zm0 0l22 0 0 7 -22 0 0 -7z"/>
    <path id="206" class="fil142" d="M84 46l22 0 0 7 -22 0 0 -7zm0 0l22 0 0 7 -22 0 0 -7z"/>
    <path id="207" class="fil143" d="M84 46l22 0 0 7 -22 0 0 -7zm0 0l22 0 0 7 -22 0 0 -7z"/>
    <path id="208" class="fil144" d="M84 46l22 0 0 7 -22 0 0 -7zm0 0l22 0 0 7 -22 0 0 -7z"/>
    <path id="209" class="fil145" d="M84 46l22 0 0 7 -22 0 0 -7zm0 0l22 0 0 7 -22 0 0 -7z"/>
    <path id="210" class="fil146" d="M84 46l22 0 0 7 -22 0 0 -7zm0 0l22 0 0 7 -22 0 0 -7z"/>
    <path id="211" class="fil147" d="M84 46l22 0 0 7 -22 0 0 -7zm-1 0l23 0 0 7 -23 0 0 -7z"/>
    <path id="212" class="fil148" d="M84 46l22 0 0 7 -22 0 0 -7zm-1 0l23 0 0 7 -23 0 0 -7z"/>
    <path id="213" class="fil149" d="M83 46l23 0 0 7 -23 0 0 -7zm0 0l23 0 0 7 -23 0 0 -7z"/>
    <path id="214" class="fil150" d="M83 46l23 0 0 7 -23 0 0 -7zm0 0l23 0 0 7 -23 0 0 -7z"/>
    <path id="215" class="fil151" d="M83 46l23 0 0 7 -23 0 0 -7zm0 0l23 0 0 7 -23 0 0 -7z"/>
    <path id="216" class="fil152" d="M83 46l23 0 0 7 -23 0 0 -7zm0 0l23 0 0 7 -23 0 0 -7z"/>
    <path id="217" class="fil153" d="M83 46l23 0 0 7 -23 0 0 -7zm0 -1l23 0 0 8 -23 0 0 -8z"/>
    <path id="218" class="fil154" d="M83 46l23 0 0 7 -23 0 0 -7zm0 -1l23 0 0 8 -23 0 0 -8z"/>
    <path id="219" class="fil155" d="M83 45l23 0 0 8 -23 0 0 -8zm0 0l23 0 0 8 -23 0 0 -8z"/>
    <path id="220" class="fil156" d="M83 45l23 0 0 8 -23 0 0 -8zm0 0l24 0 0 8 -24 0 0 -8z"/>
    <path id="221" class="fil157" d="M83 45l23 0 0 8 -23 0 0 -8zm0 0l24 0 0 8 -24 0 0 -8z"/>
    <path id="222" class="fil158" d="M83 45l24 0 0 8 -24 0 0 -8zm0 0l24 0 0 8 -24 0 0 -8z"/>
    <path id="223" class="fil159" d="M83 45l24 0 0 8 -24 0 0 -8zm0 0l24 0 0 8 -24 0 0 -8z"/>
    <path id="224" class="fil160" d="M83 45l24 0 0 8 -24 0 0 -8zm0 0l24 0 0 8 -24 0 0 -8z"/>
    <path id="225" class="fil161" d="M83 45l24 0 0 8 -24 0 0 -8zm0 0l24 0 0 8 -24 0 0 -8z"/>
    <path id="226" class="fil162" d="M83 45l24 0 0 8 -24 0 0 -8zm0 0l24 0 0 8 -24 0 0 -8z"/>
    <path id="227" class="fil163" d="M83 45l24 0 0 8 -24 0 0 -8zm0 0l24 0 0 8 -24 0 0 -8z"/>
    <path id="228" class="fil164" d="M83 45l24 0 0 8 -24 0 0 -8zm0 0l24 0 0 8 -24 0 0 -8z"/>
    <path id="229" class="fil165" d="M83 45l24 0 0 8 -24 0 0 -8zm0 0l24 0 0 8 -24 0 0 -8z"/>
    <path id="230" class="fil166" d="M83 45l24 0 0 8 -24 0 0 -8zm-1 0l25 0 0 8 -25 0 0 -8z"/>
    <path id="231" class="fil167" d="M82 45l25 0 0 8 -25 0 0 -8zm0 0l25 0 0 8 -25 0 0 -8z"/>
    <path id="232" class="fil168" d="M82 45l25 0 0 8 -25 0 0 -8zm0 0l25 0 0 9 -25 0 0 -9z"/>
    <path id="233" class="fil169" d="M82 45l25 0 0 8 -25 0 0 -8zm0 0l25 0 0 9 -25 0 0 -9z"/>
    <path id="234" class="fil170" d="M82 45l25 0 0 9 -25 0 0 -9zm0 0l25 0 0 9 -25 0 0 -9z"/>
    <path id="235" class="fil171" d="M82 45l25 0 0 9 -25 0 0 -9zm0 0l25 0 0 9 -25 0 0 -9z"/>
    <path id="236" class="fil172" d="M82 45l25 0 0 9 -25 0 0 -9zm0 0l25 0 0 9 -25 0 0 -9z"/>
    <path id="237" class="fil173" d="M82 45l25 0 0 9 -25 0 0 -9zm0 0l25 0 0 9 -25 0 0 -9z"/>
    <path id="238" class="fil174" d="M82 45l25 0 0 9 -25 0 0 -9zm0 0l25 0 0 9 -25 0 0 -9z"/>
    <path id="239" class="fil175" d="M82 45l25 0 0 9 -25 0 0 -9zm0 0l26 0 0 9 -26 0 0 -9z"/>
    <path id="240" class="fil176" d="M82 45l26 0 0 9 -26 0 0 -9zm0 0l26 0 0 9 -26 0 0 -9z"/>
    <path id="241" class="fil177" d="M82 45l26 0 0 9 -26 0 0 -9zm0 0l26 0 0 9 -26 0 0 -9z"/>
    <path id="242" class="fil178" d="M82 45l26 0 0 9 -26 0 0 -9zm0 0l26 0 0 9 -26 0 0 -9z"/>
    <path id="243" class="fil179" d="M82 45l26 0 0 9 -26 0 0 -9zm0 0l26 0 0 9 -26 0 0 -9z"/>
    <path id="244" class="fil180" d="M82 45l26 0 0 9 -26 0 0 -9zm0 0l26 0 0 9 -26 0 0 -9z"/>
    <path id="245" class="fil181" d="M82 45l26 0 0 9 -26 0 0 -9zm0 0l26 0 0 9 -26 0 0 -9z"/>
    <path id="246" class="fil182" d="M82 45l26 0 0 9 -26 0 0 -9zm0 0l26 0 0 9 -26 0 0 -9z"/>
    <path id="247" class="fil183" d="M82 45l26 0 0 9 -26 0 0 -9zm0 0l26 0 0 9 -26 0 0 -9z"/>
    <path id="248" class="fil184" d="M82 45l26 0 0 9 -26 0 0 -9zm0 0l26 0 0 9 -26 0 0 -9z"/>
    <path id="249" class="fil185" d="M82 45l26 0 0 9 -26 0 0 -9zm-1 0l27 0 0 9 -27 0 0 -9z"/>
    <path id="250" class="fil186" d="M81 45l27 0 0 9 -27 0 0 -9zm0 0l27 0 0 9 -27 0 0 -9z"/>
    <path id="251" class="fil187" d="M81 45l27 0 0 9 -27 0 0 -9zm0 0l27 0 0 9 -27 0 0 -9z"/>
    <path id="252" class="fil188" d="M81 45l27 0 0 9 -27 0 0 -9zm0 0l27 0 0 9 -27 0 0 -9z"/>
    <path id="253" class="fil189" d="M81 45l27 0 0 9 -27 0 0 -9zm0 0l27 0 0 9 -27 0 0 -9z"/>
    <path id="254" class="fil190" d="M81 45l27 0 0 9 -27 0 0 -9zm0 0l27 0 0 9 -27 0 0 -9z"/>
    <path id="255" class="fil191" d="M81 45l27 0 0 9 -27 0 0 -9zm0 0l27 0 0 9 -27 0 0 -9z"/>
   </g>
  </g>
 </g>
</svg>
