<?xml version="1.0" encoding="UTF-8"?>
<!DOCTYPE svg PUBLIC "-//W3C//DTD SVG 1.1//EN" "http://www.w3.org/Graphics/SVG/1.1/DTD/svg11.dtd">
<!-- Creator: CorelDRAW X7 -->
<svg xmlns="http://www.w3.org/2000/svg" xml:space="preserve" width="250px" height="188px" version="1.1" style="shape-rendering:geometricPrecision; text-rendering:geometricPrecision; image-rendering:optimizeQuality; fill-rule:evenodd; clip-rule:evenodd"
viewBox="0 0 250 187"
 xmlns:xlink="http://www.w3.org/1999/xlink">
 <defs>
  <style type="text/css">
   <![CDATA[
    .str2 {stroke:#FEFEFE;stroke-width:1.99959}
    .str0 {stroke:#373435;stroke-width:0.899994}
    .str1 {stroke:#FEFEFE;stroke-width:0.314171}
    .fil0 {fill:none}
    .fil12 {fill:#FEFEFE}
    .fil6 {fill:#A53235}
    .fil7 {fill:#91D8F7}
    .fil9 {fill:black}
    .fil5 {fill:#6E3614}
    .fil1 {fill:#D8A182}
    .fil4 {fill:whitesmoke}
    .fil3 {fill:#FA0303}
    .fil11 {fill:#FA0303}
    .fil13 {fill:#FEFEFE;fill-rule:nonzero}
    .fil2 {fill:black;fill-opacity:0.501961}
    .fil10 {fill:url(#id0)}
    .fil8 {fill:url(#id1)}
   ]]>
  </style>
  <linearGradient id="id0" gradientUnits="userSpaceOnUse" x1="147.88" y1="162.686" x2="143.406" y2="114.465">
   <stop offset="0" style="stop-opacity:1; stop-color:#37210A"/>
   <stop offset="1" style="stop-opacity:1; stop-color:#6E3614"/>
  </linearGradient>
  <linearGradient id="id1" gradientUnits="userSpaceOnUse" xlink:href="#id0" x1="106.358" y1="162.686" x2="101.827" y2="114.465">
  </linearGradient>
 </defs>
 <g id="Layer_x0020_1">
  <metadata id="CorelCorpID_0Corel-Layer"/>
  <g id="_643431080">
   <g>
    <rect class="fil0" width="250" height="187"/>
    <rect class="fil1" x="25" y="10" width="201" height="166"/>
    <g>
     <path class="fil2" d="M61 56c3,1 0,0 2,1 3,2 6,6 12,2l4 -3c0,0 0,0 0,0 0,0 1,0 1,0l0 -44c-6,-1 -13,0 -19,0l0 44z"/>
     <path class="fil2" d="M117 56c4,6 13,6 17,0 1,-2 1,-40 0,-43 -2,-2 0,-1 -3,-1 -2,0 -4,0 -5,0 -3,0 -7,-1 -9,0 -2,5 -1,17 -1,22 0,4 -1,21 1,22z"/>
     <path class="fil2" d="M98 55l1 2c10,8 11,1 18,-1 -2,-3 0,-38 0,-44 -6,-1 -14,0 -19,0l0 43z"/>
     <path class="fil2" d="M29 59c6,2 7,2 12,-1 2,-2 0,0 2,-2l0 -44 -18 0c0,9 0,17 0,26 0,4 0,9 0,13 0,5 0,7 4,8z"/>
     <path class="fil2" d="M43 56c3,1 4,4 9,4 4,1 6,-2 9,-4l0 -44 -18 0 0 44z"/>
     <path class="fil2" d="M80 56c4,5 14,7 18,-1l0 -43c-4,-1 -14,-1 -18,0l0 44z"/>
     <path class="fil2" d="M190 56c-3,1 -1,0 -3,1 -2,2 -5,6 -12,2l-3 -3c0,0 0,0 0,0 -1,0 -1,0 -1,0l0 -44c6,-1 13,0 19,0l0 44z"/>
     <path class="fil2" d="M153 55l-1 2c-11,8 -11,1 -18,-1 1,-7 0,-31 0,-44 6,-1 14,0 19,0l0 43z"/>
     <path class="fil2" d="M222 59c-6,2 -7,2 -12,-1 -2,-2 0,0 -2,-2l0 -44 18 0c0,9 0,17 0,26 0,4 0,9 0,13 0,5 -1,7 -4,8z"/>
     <path class="fil2" d="M208 56c-3,1 -4,4 -9,4 -4,1 -6,-2 -9,-4l0 -44 18 0 0 44z"/>
     <path class="fil2" d="M171 56c-4,5 -14,7 -18,-1l0 -43c4,-1 14,-1 18,0l0 44z"/>
    </g>
    <g>
     <path class="fil3" d="M58 52c3,1 0,0 2,1 3,1 6,5 13,2l4 -3c0,0 0,0 0,-1 0,0 0,0 1,0l-1 -46c-5,-1 -13,0 -19,0l0 47z"/>
     <path class="fil4" d="M117 52c4,5 13,6 17,0 1,-3 2,-41 1,-44 -2,-1 -1,0 -4,-1 -2,0 -4,0 -5,0 -3,0 -8,0 -10,1 -1,5 0,16 0,22 0,4 -2,20 1,22z"/>
     <path class="fil3" d="M96 51l2 1c11,9 11,2 19,0 -2,-4 -1,-41 -1,-46 -5,-2 -14,-1 -20,-1l0 46z"/>
     <path class="fil3" d="M25 55c6,2 7,1 11,-2 3,-1 1,0 3,-1l0 -47 -19 0c0,9 0,18 0,28 0,4 0,9 0,13 0,5 0,8 5,9z"/>
     <path class="fil4" d="M39 52c3,1 5,4 9,4 4,0 7,-2 10,-4l0 -45 -19 1 0 44z"/>
     <path class="fil4" d="M78 51c4,5 14,8 18,0l0 -43c-4,-1 -14,-1 -19,0l1 43z"/>
     <path class="fil3" d="M193 52c-3,1 0,0 -2,1 -3,1 -6,5 -13,2l-4 -3c0,0 0,0 0,-1 0,0 0,0 -1,0l1 -46c5,-1 13,0 19,0l0 47z"/>
     <path class="fil3" d="M155 51l-2 1c-11,9 -11,2 -19,0 1,-8 1,-33 1,-46 5,-2 14,-1 19,-1l1 46z"/>
     <path class="fil3" d="M226 55c-6,2 -7,1 -11,-2 -3,-1 -1,0 -3,-1l0 -47 19 0c0,9 0,18 0,28 0,4 0,9 0,13 0,5 -1,8 -5,9z"/>
     <path class="fil4" d="M212 52c-3,1 -5,4 -9,4 -5,0 -7,-2 -10,-4l0 -45 19 1 0 44z"/>
     <path class="fil4" d="M173 51c-4,5 -14,8 -18,0l-1 -43c5,-1 15,-1 20,0l-1 43z"/>
    </g>
    <rect class="fil5" x="25" y="166" width="201.061" height="10.1189"/>
    <rect class="fil5" x="3" y="176" width="244.711" height="10.1189"/>
    <rect class="fil6" x="20" y="2" width="211.721" height="5.05925"/>
    <g>
     <rect class="fil5" x="86" y="63" width="39.4994" height="101.108"/>
     <rect class="fil7 str0" x="90" y="70" width="28.5931" height="39.3256"/>
     <rect class="fil8" x="90" y="113" width="28.5931" height="50.2544"/>
     <rect class="fil9" x="121" y="101" width="1.94477" height="13.248" rx="1" ry="2"/>
    </g>
    <g>
     <rect class="fil5" x="125" y="63" width="38.9998" height="101.108"/>
     <rect class="fil7 str0" x="132" y="70" width="28.2314" height="39.3256"/>
     <rect class="fil10" x="132" y="113" width="28.2314" height="50.2544"/>
     <rect class="fil9" x="127" y="101" width="1.92017" height="13.248" rx="1" ry="2"/>
    </g>
   </g>
   <g>
    <g>
     <rect class="fil11" transform="matrix(0.338217 0.00157333 -0.00157333 0.338217 36.4283 88.9946)" width="118.999" height="65.9996" rx="7" ry="7"/>
     <rect class="fil0 str1" transform="matrix(0.307468 0.00143029 -0.00143029 0.307468 38.2531 90.0178)" width="118.999" height="65.9996" rx="7" ry="7"/>
     <circle class="fil12" transform="matrix(0.338217 0.00157333 -0.00157333 0.338217 40.2593 91.9078)" r="3"/>
     <path class="fil13" d="M45 100c0,0 0,-1 0,-1 0,-1 1,-1 1,-1 0,0 0,-1 1,-1 0,0 0,0 1,0 1,0 2,0 2,1 1,1 1,1 1,2 0,1 0,2 -1,3 0,0 -1,0 -2,0 -1,0 -2,0 -2,0 -1,-1 -1,-2 -1,-3zm1 0c0,1 0,1 1,2 0,0 0,0 1,0 0,0 1,0 1,0 0,-1 1,-1 1,-2 0,0 -1,-1 -1,-1 0,-1 -1,-1 -1,-1 -1,0 -1,0 -1,1 -1,0 -1,1 -1,1z"/>
     <path id="1" class="fil13" d="M52 103l0 -6 2 0c1,0 1,0 1,0 1,0 1,1 1,1 0,0 1,1 1,1 0,0 -1,1 -1,1 0,0 0,1 0,1 0,0 -1,0 -1,0 0,0 -1,0 -1,0l-1 0 0 2 -1 0zm1 -5l0 2 1 0c0,0 1,0 1,0 0,0 0,0 0,0 0,-1 0,-1 0,-1 0,0 0,0 0,0 0,-1 0,-1 0,-1 -1,0 -1,0 -1,0l-1 0z"/>
     <polygon id="2" class="fil13" points="57,103 58,97 62,97 62,98 59,98 59,100 62,100 62,101 59,101 59,102 62,102 62,103 "/>
     <polygon id="3" class="fil13" points="63,103 63,97 64,97 67,101 67,97 68,97 68,103 67,103 64,99 64,103 "/>
     <circle class="fil12" transform="matrix(0.338217 0.00157333 -0.00157333 0.338217 72.9064 92.0596)" r="3"/>
    </g>
    <path class="fil0 str2" d="M41 92c0,0 11,-11 16,-11 5,0 16,11 16,11"/>
   </g>
  </g>
 </g>
</svg>
