<?xml version="1.0" encoding="UTF-8"?>
<!DOCTYPE svg PUBLIC "-//W3C//DTD SVG 1.1//EN" "http://www.w3.org/Graphics/SVG/1.1/DTD/svg11.dtd">
<!-- Creator: CorelDRAW X7 -->
<svg xmlns="http://www.w3.org/2000/svg" xml:space="preserve" width="250px" height="188px" version="1.1" style="shape-rendering:geometricPrecision; text-rendering:geometricPrecision; image-rendering:optimizeQuality; fill-rule:evenodd; clip-rule:evenodd"
viewBox="0 0 250 187"
 xmlns:xlink="http://www.w3.org/1999/xlink">
 <defs>
  <style type="text/css">
   <![CDATA[
    .str2 {stroke:#FEFEFE;stroke-width:1.99959}
    .str0 {stroke:#373435;stroke-width:0.899994}
    .str1 {stroke:#FEFEFE;stroke-width:0.314171}
    .fil1 {fill:none}
    .fil10 {fill:#FEFEFE}
    .fil0 {fill:#E6E7E8}
    .fil14 {fill:#A9ABAE}
    .fil15 {fill:#848688}
    .fil3 {fill:#727376}
    .fil4 {fill:#606062}
    .fil5 {fill:#4B4B4D}
    .fil6 {fill:#373435}
    .fil13 {fill:#F58634}
    .fil24 {fill:#A53235}
    .fil25 {fill:#91D8F7}
    .fil2 {fill:#2D2E2E}
    .fil12 {fill:#00AFEF}
    .fil11 {fill:#0098DA}
    .fil8 {fill:black}
    .fil23 {fill:#6E3614}
    .fil17 {fill:#99562C}
    .fil16 {fill:#AD5F2F}
    .fil19 {fill:#D8A182}
    .fil18 {fill:#E09200}
    .fil22 {fill:whitesmoke}
    .fil7 {fill:#F9C9A9}
    .fil21 {fill:#FA0303}
    .fil9 {fill:#FA0303}
    .fil28 {fill:#FEFEFE;fill-rule:nonzero}
    .fil20 {fill:black;fill-opacity:0.501961}
    .fil26 {fill:url(#id0)}
    .fil27 {fill:url(#id1)}
   ]]>
  </style>
  <linearGradient id="id0" gradientUnits="userSpaceOnUse" x1="160.342" y1="162.686" x2="159.326" y2="114.465">
   <stop offset="0" style="stop-opacity:1; stop-color:#37210A"/>
   <stop offset="1" style="stop-opacity:1; stop-color:#6E3614"/>
  </linearGradient>
  <linearGradient id="id1" gradientUnits="userSpaceOnUse" xlink:href="#id0" x1="90.4801" y1="162.686" x2="89.4172" y2="114.465">
  </linearGradient>
 </defs>
 <g id="Layer_x0020_1">
  <metadata id="CorelCorpID_0Corel-Layer"/>
  <g id="_643418960">
   <rect class="fil0" x="95" y="63" width="60.2973" height="101.109"/>
   <rect class="fil1" width="250" height="187"/>
   <g>
    <g>
     <g>
      <path class="fil2 str0" d="M85 161c0,0 1,0 1,0 0,1 0,1 0,1 0,0 -1,0 -1,0 0,-1 0,-1 0,-1 0,0 0,0 0,0z"/>
      <path class="fil3 str0" d="M87 129c0,0 -1,1 -1,2 -1,1 -1,5 0,6 2,2 2,2 2,2l-2 0c0,0 -1,-1 -1,-2 -1,-1 -1,-3 -1,-4 0,-2 1,-3 1,-4 0,0 1,0 1,0 -1,0 1,0 1,0z"/>
      <path class="fil3 str0" d="M88 154c0,0 -2,7 -2,7l-1 0 2 -7 1 0z"/>
      <path class="fil4 str0" d="M88 142l0 1c0,0 3,0 6,0 4,0 7,0 8,0 0,0 0,0 0,0l0 -2 -14 1z"/>
      <path class="fil3 str0" d="M91 143c0,0 -3,11 -3,11l-1 0 3 -11 1 0z"/>
      <path class="fil5 str0" d="M86 139l0 2c0,0 3,1 8,1 5,0 7,0 8,0 0,-1 1,-1 1,-1l0 -2 -17 0z"/>
      <path class="fil2 str0" d="M93 163c0,0 1,0 1,0 0,0 0,1 -1,1 0,0 -1,0 -1,0 0,-1 0,-1 0,-1 0,0 1,0 1,0z"/>
      <ellipse class="fil6 str0" cx="94" cy="139" rx="9" ry="1"/>
      <path class="fil3 str0" d="M95 143c0,0 -2,20 -2,20l-1 0 2 -20 1 0z"/>
      <path class="fil2 str0" d="M108 162c0,0 0,0 0,0 0,0 1,0 0,0 0,1 -1,1 -1,1 0,0 0,-1 0,-1 0,0 1,0 1,0z"/>
      <path class="fil6 str0" d="M95 150l-2 0 0 5c0,0 0,0 0,1 1,0 1,-1 1,-1l1 -5z"/>
      <path class="fil3 str0" d="M102 143c0,0 6,19 6,19l-1 0 -6 -19 1 0z"/>
      <path class="fil2 str0" d="M99 160c0,0 1,0 1,0 0,0 0,0 0,1 -1,0 -1,0 -1,0 -1,0 -1,-1 0,-1 0,0 0,0 0,0z"/>
      <path class="fil6 str0" d="M104 149l-1 1 2 5c0,0 0,0 0,0 1,0 1,-1 1,-1l-2 -5z"/>
      <path class="fil3 str0" d="M98 143c0,0 2,17 2,17 0,0 -1,0 -1,0 0,0 0,0 0,0l-1 -17 0 0z"/>
      <polygon class="fil6 str0" points="99,148 98,148 98,153 99,153 "/>
      <path class="fil6 str0" d="M90 148l-2 -1 -1 6c0,0 0,0 0,0 1,0 1,0 1,0l2 -5z"/>
     </g>
     <g>
      <path class="fil7" d="M106 154c-1,0 0,3 0,3 0,0 2,2 3,2 1,1 2,1 2,1 1,0 1,-1 1,-1 -1,0 -2,0 -2,-1 0,0 -1,-1 -2,-1 0,0 -1,-1 -1,-1 0,0 0,-1 1,-1 0,0 -2,-1 -2,-1z"/>
      <path class="fil8" d="M103 123c0,0 1,-2 2,-5 0,-2 0,-6 0,-8 0,-1 -1,-4 -2,-5 -1,-2 -3,-5 -5,-6 -1,0 -3,1 -3,2 -1,0 -1,0 -1,0 0,0 0,0 -1,0 -1,0 -2,2 -2,4 0,3 0,10 0,10l0 7c0,0 9,0 9,0 1,0 2,0 2,0 0,1 1,1 1,1z"/>
      <path class="fil7" d="M110 124l4 -2c0,0 1,0 0,0 0,-1 1,-1 1,-1 1,0 2,0 2,0 0,1 0,2 -1,2 -1,0 -1,0 -2,0 0,0 0,1 0,1l-3 1 -1 -1z"/>
      <path class="fil7" d="M88 133c0,0 0,3 0,4 0,0 0,2 0,2 0,0 0,0 0,1 0,1 0,2 1,2 1,0 2,0 2,0 0,0 -1,-2 -1,-3 -1,0 -1,-1 -1,-1 0,-1 0,-5 0,-5l0 0 -1 0z"/>
      <path class="fil9" d="M90 115c0,0 0,-1 1,-1 0,0 3,-1 3,-1 0,0 2,0 4,0 2,1 3,1 4,1 1,1 1,5 2,6 0,1 0,5 1,5 0,0 0,1 0,1 0,0 4,-2 4,-2l3 -1 2 1 -9 4c0,0 -1,1 -2,1 -1,-1 -1,-2 -1,-3 0,-2 -1,-4 -1,-4l-1 9c0,0 -1,0 -4,0 -3,0 -4,0 -4,0l-1 -9c0,0 -1,1 -1,3 0,1 0,8 0,8 0,0 -2,0 -2,0 0,0 0,0 0,0 0,0 0,-5 0,-10 1,-4 1,-8 2,-8z"/>
      <path class="fil10" d="M94 113c0,0 -1,0 0,1 0,1 1,2 2,1 0,0 0,0 1,0 0,-1 -1,-2 -1,-2 0,0 0,1 -1,0 0,0 -1,0 -1,0z"/>
      <path class="fil10" d="M97 113c0,0 0,0 0,0 0,0 0,0 0,0 0,0 0,0 0,1 0,0 0,1 0,1 0,0 0,0 0,0 0,0 1,0 1,-1 0,0 0,-1 -1,-1z"/>
      <path class="fil11" d="M92 131c0,0 -1,2 -2,3 0,2 -1,4 0,6 2,2 2,2 4,2 2,0 4,1 5,1 1,0 6,1 6,1l0 7c0,0 0,3 0,3 0,1 3,1 3,1 0,0 0,-4 0,-6 0,-1 1,-5 1,-7 0,-1 -1,-2 -2,-3 -1,0 -4,-1 -5,-2 -1,-2 -2,-6 -2,-6l-8 0z"/>
      <path class="fil12" d="M101 134c0,0 5,0 6,1 1,1 0,2 0,2 0,1 -5,11 -5,11l-2 5 -2 -1c0,0 2,-7 2,-8 0,-2 1,-4 2,-6 0,-1 0,-2 -1,-4z"/>
      <path class="fil7" d="M94 109c0,0 -1,0 -1,0 -1,-1 -1,-2 -1,-3 0,0 1,0 1,1 1,0 1,0 1,0 0,0 2,-1 2,-1 1,-1 2,-3 2,-3 0,-1 0,-1 0,-1 0,0 1,0 1,2 1,1 1,2 1,4 -1,2 -1,3 -2,4 -1,0 -2,0 -3,-1 -1,-2 -1,-2 -1,-2z"/>
      <path class="fil7" d="M97 112l0 1c0,0 0,0 -1,1 -1,0 -2,-1 -2,-1 0,0 0,-1 0,-2 0,0 0,-2 0,-2 0,0 2,2 3,3z"/>
      <path class="fil7" d="M98 152c0,0 -1,2 -1,2 0,0 -1,1 -1,2 1,0 1,1 1,1 1,0 2,0 2,-1 0,0 0,0 0,-1 0,0 0,-1 0,-1 0,0 0,0 0,0 0,-1 1,-1 1,-1l-2 -1z"/>
      <path class="fil13" d="M106 160c0,0 0,-1 -1,-1 0,-1 0,-1 0,-1 0,0 0,-2 1,-1 0,0 1,0 2,1 0,1 1,1 2,2 1,0 1,0 1,-1 1,0 -1,-1 -1,-1 0,0 2,1 2,1 1,0 2,0 1,1 0,0 -1,1 -2,1 -1,0 -2,-1 -4,-2 -1,-1 -1,0 -1,0l0 2c0,0 0,0 0,-1z"/>
      <path class="fil13" d="M97 153c0,0 0,1 -1,1 0,1 0,2 0,3 0,1 0,2 1,2 1,0 1,-1 1,-1 1,0 1,-1 1,-1 0,-1 0,-1 0,-1 0,0 0,1 -1,1 -2,0 -1,-3 -1,-4z"/>
     </g>
     <path class="fil14 str0" d="M85 120l0 9c0,0 3,0 4,0 0,0 1,-1 1,-1 0,-1 0,-7 0,-7 0,0 0,-1 -1,-1 -1,0 -4,0 -4,0z"/>
    </g>
    <path class="fil15" d="M109 124l30 0c1,0 2,1 2,2l0 0c0,2 -1,3 -2,3l-13 0 0 26 1 0 0 1 2 0 0 2 -10 0 0 -2 2 0 0 -1 2 0 0 -26 -14 0c-1,0 -1,-1 -1,-3l0 0c0,-1 0,-2 1,-2z"/>
    <g>
     <g>
      <path class="fil2 str0" d="M162 157c0,0 -1,0 -1,0 0,0 0,1 0,1 1,0 1,0 1,-1 1,0 1,0 1,0 -1,0 -1,0 -1,0z"/>
      <path class="fil14 str0" d="M162 116l0 9c0,0 -3,0 -3,0 -1,0 -2,-1 -2,-2 0,0 0,-6 0,-6 0,0 0,-1 1,-1 2,0 4,0 4,0z"/>
      <path class="fil3 str0" d="M160 125c0,0 1,1 2,2 0,1 0,5 -1,6 -2,2 -2,2 -2,2l2 0c0,0 1,-1 1,-2 1,-1 1,-3 1,-5 0,-1 -1,-2 -1,-3 0,0 0,0 0,0 0,0 -2,0 -2,0z"/>
      <path class="fil3 str0" d="M160 150c0,0 1,7 1,7l1 0 -2 -7 0 0z"/>
      <path class="fil4 str0" d="M159 137l0 1c0,0 -3,1 -6,1 -4,0 -7,0 -7,0 -1,0 -1,0 -1,0l0 -2 14 0z"/>
      <path class="fil3 str0" d="M157 139c0,0 2,11 2,11l2 0 -3 -11 -1 0z"/>
      <path class="fil5 str0" d="M161 135l0 2c0,0 -3,1 -8,1 -5,0 -7,0 -8,-1 0,0 -1,0 -1,0l0 -2 17 0z"/>
      <path class="fil2 str0" d="M154 159c0,0 0,0 0,0 0,0 0,1 0,1 0,0 1,0 1,-1 0,0 0,0 0,0 0,0 -1,0 -1,0z"/>
      <ellipse class="fil6 str0" cx="153" cy="135" rx="9" ry="1"/>
      <path class="fil3 str0" d="M152 139c0,0 2,20 2,20l1 0 -2 -20 -1 0z"/>
      <path class="fil2 str0" d="M140 158c0,0 -1,0 -1,0 0,0 0,0 0,0 0,1 1,1 1,1 0,0 0,-1 0,-1 0,0 0,0 0,0z"/>
      <path class="fil6 str0" d="M153 146l1 0 1 5c0,0 -1,0 -1,0 -1,1 -1,0 -1,0l0 -5z"/>
      <path class="fil3 str0" d="M145 139c0,0 -6,19 -6,19l1 0 6 -19 -1 0z"/>
      <path class="fil2 str0" d="M148 156c0,0 0,0 -1,0 0,0 0,0 1,0 0,1 0,0 1,0 0,0 0,0 0,0 0,0 -1,0 -1,0z"/>
      <path class="fil6 str0" d="M143 145l1 0 -1 6c0,0 -1,0 -1,0 -1,0 -1,-1 -1,-1l2 -5z"/>
      <path class="fil3 str0" d="M149 139c0,0 -1,17 -1,17 0,0 0,0 0,0 0,0 1,0 1,0l1 -17 -1 0z"/>
      <polygon class="fil6 str0" points="148,144 150,144 149,149 148,149 "/>
      <path class="fil6 str0" d="M158 144l1 -1 1 6c0,0 0,0 0,0 -1,0 -1,0 -1,0l-1 -5z"/>
     </g>
     <g>
      <path class="fil7" d="M144 121c0,0 -5,2 -5,2 0,0 -1,2 -2,2 -1,-1 -1,-1 -2,-2 0,-2 -2,-10 -2,-10 0,0 -2,-1 -1,-2 0,-1 0,-1 1,-2 1,0 2,1 2,1 0,0 -1,1 -1,2 0,1 4,9 4,9l4 -3 2 3z"/>
      <path class="fil13" d="M141 118l3 3 2 -1c0,0 0,5 0,7 0,2 0,4 0,4l3 1 6 2 1 -7c0,0 2,-7 2,-9 0,-1 -1,-2 -1,-2 -1,-1 -4,-2 -4,-2 0,0 0,1 -1,1 -1,0 -2,-1 -2,-1 0,0 -4,1 -5,2 -1,1 -4,2 -4,2z"/>
      <path class="fil16" d="M147 131c0,0 -2,0 -4,1 -1,0 -5,1 -6,3 -1,1 0,2 1,3 0,1 7,5 7,5l10 6 1 -2 -13 -12c0,0 1,-1 2,-1 1,-1 4,-3 4,-2 0,0 -2,-1 -2,-1z"/>
      <path class="fil17" d="M155 133c0,0 1,2 0,3 0,1 -1,1 -2,2 0,0 -5,1 -5,1l-5 -4c0,0 0,0 3,-2 2,-1 3,-1 3,-1l6 1z"/>
      <path class="fil17" d="M138 138c0,0 -1,0 -1,1 -1,1 -1,2 -1,3 1,1 3,3 4,4 2,1 5,4 6,5 2,2 3,4 3,4l2 -1 -6 -10 -2 -3 -5 -3z"/>
      <path class="fil7" d="M155 149c0,0 1,1 2,2 0,1 2,2 2,2 1,0 2,0 2,-1 0,0 0,-3 0,-3 0,0 -2,0 -3,0 0,-1 -2,-2 -2,-2l-1 2z"/>
      <path class="fil7" d="M151 154c0,0 1,1 2,1 0,1 1,1 1,1 0,0 0,2 -1,3 -1,2 -2,2 -3,2 -1,0 -2,0 -2,0 0,0 1,-1 2,-2 0,-1 1,-2 1,-2 0,0 -2,-2 -2,-2l2 -1z"/>
      <path class="fil18" d="M148 162c0,0 3,-1 3,-1 1,0 2,-1 3,-2 1,-1 1,-1 1,-2 0,0 -1,-1 -1,-1 0,0 0,1 0,1 -1,1 -1,3 -3,4 -2,0 -3,-1 -3,-1 0,0 -1,1 -1,1 -1,1 -1,1 1,1z"/>
      <path class="fil18" d="M161 150c0,-1 1,0 1,0 1,1 2,2 2,3 0,1 -1,1 -2,1 0,0 -1,0 -1,0 -1,0 -2,-1 -2,-1 0,0 2,0 2,-1 0,-1 0,-2 0,-2z"/>
      <path class="fil7" d="M154 122l3 1c0,0 -2,5 -2,6 -1,1 -1,1 -3,1 -2,1 -10,1 -10,1 0,0 -2,1 -2,0 -1,0 -1,-1 0,-1 1,-1 2,0 2,0l11 -2 1 -6z"/>
      <path class="fil8" d="M153 101c0,0 -1,-1 -1,-2 1,-1 2,-1 4,0 1,1 1,3 0,3 -1,0 -1,0 -1,0 0,0 1,1 1,3 0,1 0,2 0,2 0,1 -1,1 -1,1l-1 0c0,0 1,-2 0,-3 -1,-1 -3,-1 -4,-1 0,0 -1,1 -2,2 0,1 0,2 0,2 0,0 -1,-1 -1,-2 1,-1 1,-3 2,-4 2,-1 3,-1 4,-1z"/>
      <path class="fil7" d="M154 110c0,0 0,1 0,2 -1,1 -1,2 -1,2 0,0 0,1 0,1 0,0 -1,1 -2,0 -1,0 -1,-1 -1,-1l1 -1 3 -3z"/>
      <path class="fil7" d="M151 104c0,0 1,-1 2,0 2,1 2,2 2,3 0,0 -1,1 -1,1 0,0 1,0 1,0 1,0 1,1 0,2 0,0 0,0 -1,0 0,0 0,0 0,0 0,0 -1,1 -1,2 -1,1 -2,1 -3,1 -1,0 -2,-2 -2,-5 0,-3 1,-4 3,-4z"/>
     </g>
    </g>
   </g>
   <path class="fil19" d="M25 10l201 0 0 166 -201 0 0 -166zm70 53l60 0 0 101 -60 0 0 -101z"/>
   <g>
    <path class="fil20" d="M61 56c3,1 0,0 2,1 3,2 6,6 12,2l4 -3c0,0 0,0 0,0 0,0 1,0 1,0l0 -44c-6,-1 -13,0 -19,0l0 44z"/>
    <path class="fil20" d="M117 56c4,6 13,6 17,0 1,-2 1,-40 0,-43 -2,-2 0,-1 -3,-1 -2,0 -4,0 -5,0 -3,0 -7,-1 -9,0 -2,5 -1,17 -1,22 0,4 -1,21 1,22z"/>
    <path class="fil20" d="M98 55l1 2c10,8 11,1 18,-1 -2,-3 0,-38 0,-44 -6,-1 -14,0 -19,0l0 43z"/>
    <path class="fil20" d="M29 59c6,2 7,2 12,-1 2,-2 0,0 2,-2l0 -44 -18 0c0,9 0,17 0,26 0,4 0,9 0,13 0,5 0,7 4,8z"/>
    <path class="fil20" d="M43 56c3,1 4,4 9,4 4,1 6,-2 9,-4l0 -44 -18 0 0 44z"/>
    <path class="fil20" d="M80 56c4,5 14,7 18,-1l0 -43c-4,-1 -14,-1 -18,0l0 44z"/>
    <path class="fil20" d="M190 56c-3,1 -1,0 -3,1 -2,2 -5,6 -12,2l-3 -3c0,0 0,0 0,0 -1,0 -1,0 -1,0l0 -44c6,-1 13,0 19,0l0 44z"/>
    <path class="fil20" d="M153 55l-1 2c-11,8 -11,1 -18,-1 1,-7 0,-31 0,-44 6,-1 14,0 19,0l0 43z"/>
    <path class="fil20" d="M222 59c-6,2 -7,2 -12,-1 -2,-2 0,0 -2,-2l0 -44 18 0c0,9 0,17 0,26 0,4 0,9 0,13 0,5 -1,7 -4,8z"/>
    <path class="fil20" d="M208 56c-3,1 -4,4 -9,4 -4,1 -6,-2 -9,-4l0 -44 18 0 0 44z"/>
    <path class="fil20" d="M171 56c-4,5 -14,7 -18,-1l0 -43c4,-1 14,-1 18,0l0 44z"/>
   </g>
   <g>
    <path class="fil21" d="M58 52c3,1 0,0 2,1 3,1 6,5 13,2l4 -3c0,0 0,0 0,-1 0,0 0,0 1,0l-1 -46c-5,-1 -13,0 -19,0l0 47z"/>
    <path class="fil22" d="M117 52c4,5 13,6 17,0 1,-3 2,-41 1,-44 -2,-1 -1,0 -4,-1 -2,0 -4,0 -5,0 -3,0 -8,0 -10,1 -1,5 0,16 0,22 0,4 -2,20 1,22z"/>
    <path class="fil21" d="M96 51l2 1c11,9 11,2 19,0 -2,-4 -1,-41 -1,-46 -5,-2 -14,-1 -20,-1l0 46z"/>
    <path class="fil21" d="M25 55c6,2 7,1 11,-2 3,-1 1,0 3,-1l0 -47 -19 0c0,9 0,18 0,28 0,4 0,9 0,13 0,5 0,8 5,9z"/>
    <path class="fil22" d="M39 52c3,1 5,4 9,4 4,0 7,-2 10,-4l0 -45 -19 1 0 44z"/>
    <path class="fil22" d="M78 51c4,5 14,8 18,0l0 -43c-4,-1 -14,-1 -19,0l1 43z"/>
    <path class="fil21" d="M193 52c-3,1 0,0 -2,1 -3,1 -6,5 -13,2l-4 -3c0,0 0,0 0,-1 0,0 0,0 -1,0l1 -46c5,-1 13,0 19,0l0 47z"/>
    <path class="fil21" d="M155 51l-2 1c-11,9 -11,2 -19,0 1,-8 1,-33 1,-46 5,-2 14,-1 19,-1l1 46z"/>
    <path class="fil21" d="M226 55c-6,2 -7,1 -11,-2 -3,-1 -1,0 -3,-1l0 -47 19 0c0,9 0,18 0,28 0,4 0,9 0,13 0,5 -1,8 -5,9z"/>
    <path class="fil22" d="M212 52c-3,1 -5,4 -9,4 -5,0 -7,-2 -10,-4l0 -45 19 1 0 44z"/>
    <path class="fil22" d="M173 51c-4,5 -14,8 -18,0l-1 -43c5,-1 15,-1 20,0l-1 43z"/>
   </g>
   <rect class="fil23" x="25" y="166" width="201.061" height="10.1189"/>
   <rect class="fil23" x="3" y="176" width="244.711" height="10.1189"/>
   <rect class="fil24" x="20" y="2" width="211.721" height="5.05925"/>
   <polygon class="fil16" points="95,155 155,155 155,164 95,164 "/>
   <g>
    <polygon class="fil23" points="164,56 155,63 155,164 164,164 "/>
    <polygon class="fil25 str0" points="163,64 157,70 157,109 163,105 "/>
    <rect class="fil26" x="157" y="113" width="6.40721" height="50.2544"/>
   </g>
   <g>
    <polygon class="fil23" points="86,56 95,63 95,164 86,164 "/>
    <polygon class="fil25 str0" points="87,64 93,70 93,109 87,105 "/>
    <rect class="fil27" x="87" y="113" width="6.70474" height="50.2544"/>
   </g>
   <g>
    <g>
     <rect class="fil9" transform="matrix(0.338217 0.00157333 -0.00157333 0.338217 36.4283 88.9946)" width="118.999" height="65.9996" rx="7" ry="7"/>
     <rect class="fil1 str1" transform="matrix(0.307468 0.00143029 -0.00143029 0.307468 38.2531 90.0178)" width="118.999" height="65.9996" rx="7" ry="7"/>
     <circle class="fil10" transform="matrix(0.338217 0.00157333 -0.00157333 0.338217 40.2593 91.9078)" r="3"/>
     <path class="fil28" d="M45 100c0,0 0,-1 0,-1 0,-1 1,-1 1,-1 0,0 0,-1 1,-1 0,0 0,0 1,0 1,0 2,0 2,1 1,1 1,1 1,2 0,1 0,2 -1,3 0,0 -1,0 -2,0 -1,0 -2,0 -2,0 -1,-1 -1,-2 -1,-3zm1 0c0,1 0,1 1,2 0,0 0,0 1,0 0,0 1,0 1,0 0,-1 1,-1 1,-2 0,0 -1,-1 -1,-1 0,-1 -1,-1 -1,-1 -1,0 -1,0 -1,1 -1,0 -1,1 -1,1z"/>
     <path id="1" class="fil28" d="M52 103l0 -6 2 0c1,0 1,0 1,0 1,0 1,1 1,1 0,0 1,1 1,1 0,0 -1,1 -1,1 0,0 0,1 0,1 0,0 -1,0 -1,0 0,0 -1,0 -1,0l-1 0 0 2 -1 0zm1 -5l0 2 1 0c0,0 1,0 1,0 0,0 0,0 0,0 0,-1 0,-1 0,-1 0,0 0,0 0,0 0,-1 0,-1 0,-1 -1,0 -1,0 -1,0l-1 0z"/>
     <polygon id="2" class="fil28" points="57,103 58,97 62,97 62,98 59,98 59,100 62,100 62,101 59,101 59,102 62,102 62,103 "/>
     <polygon id="3" class="fil28" points="63,103 63,97 64,97 67,101 67,97 68,97 68,103 67,103 64,99 64,103 "/>
     <circle class="fil10" transform="matrix(0.338217 0.00157333 -0.00157333 0.338217 72.9064 92.0596)" r="3"/>
    </g>
    <path class="fil1 str2" d="M41 92c0,0 11,-11 16,-11 5,0 16,11 16,11"/>
   </g>
  </g>
 </g>
</svg>
