<?xml version="1.0" encoding="UTF-8"?>
<!DOCTYPE svg PUBLIC "-//W3C//DTD SVG 1.1//EN" "http://www.w3.org/Graphics/SVG/1.1/DTD/svg11.dtd">
<!-- Creator: CorelDRAW X7 -->
<svg xmlns="http://www.w3.org/2000/svg" xml:space="preserve" width="163px" height="190px" version="1.1" style="shape-rendering:geometricPrecision; text-rendering:geometricPrecision; image-rendering:optimizeQuality; fill-rule:evenodd; clip-rule:evenodd"
viewBox="0 0 163 191"
 xmlns:xlink="http://www.w3.org/1999/xlink">
 <defs>
  <style type="text/css">
   <![CDATA[
    .str2 {stroke:#373435;stroke-width:0.902765}
    .str8 {stroke:#373435;stroke-width:0.930014}
    .str4 {stroke:#373435;stroke-width:0.930014}
    .str3 {stroke:#373435;stroke-width:0.930014}
    .str7 {stroke:#373435;stroke-width:0.930014}
    .str6 {stroke:#373435;stroke-width:0.930014}
    .str5 {stroke:#373435;stroke-width:0.930014}
    .str0 {stroke:#373435;stroke-width:0.209697}
    .str1 {stroke:#373435;stroke-width:0.209697}
    .fil13 {fill:none}
    .fil9 {fill:#FEFEFE}
    .fil8 {fill:#E6E7E8}
    .fil3 {fill:#D2D3D5}
    .fil5 {fill:#BDBFC1}
    .fil4 {fill:#96989A}
    .fil1 {fill:#848688}
    .fil0 {fill:#606062}
    .fil11 {fill:#4B4B4D}
    .fil10 {fill:#373435}
    .fil7 {fill:#2094C7}
    .fil12 {fill:#373435;fill-rule:nonzero}
    .fil17 {fill:#FFF212;fill-rule:nonzero}
    .fil47 {fill:#FFF212;fill-rule:nonzero}
    .fil33 {fill:#FFCC29;fill-rule:nonzero}
    .fil32 {fill:#F58634;fill-rule:nonzero}
    .fil15 {fill:#4E901E;fill-rule:nonzero}
    .fil34 {fill:#F0A71F;fill-rule:nonzero}
    .fil2 {fill:url(#id0)}
    .fil6 {fill:url(#id1)}
    .fil26 {fill:url(#id2);fill-rule:nonzero}
    .fil41 {fill:url(#id3);fill-rule:nonzero}
    .fil39 {fill:url(#id4);fill-rule:nonzero}
    .fil16 {fill:url(#id5);fill-rule:nonzero}
    .fil24 {fill:url(#id6);fill-rule:nonzero}
    .fil20 {fill:url(#id7);fill-rule:nonzero}
    .fil23 {fill:url(#id8);fill-rule:nonzero}
    .fil35 {fill:url(#id9);fill-rule:nonzero}
    .fil18 {fill:url(#id10);fill-rule:nonzero}
    .fil14 {fill:url(#id11);fill-rule:nonzero}
    .fil29 {fill:url(#id12);fill-rule:nonzero}
    .fil25 {fill:url(#id13);fill-rule:nonzero}
    .fil31 {fill:url(#id14);fill-rule:nonzero}
    .fil45 {fill:url(#id15);fill-rule:nonzero}
    .fil19 {fill:url(#id16);fill-rule:nonzero}
    .fil30 {fill:url(#id17);fill-rule:nonzero}
    .fil28 {fill:url(#id18);fill-rule:nonzero}
    .fil27 {fill:url(#id19);fill-rule:nonzero}
    .fil22 {fill:url(#id20);fill-rule:nonzero}
    .fil37 {fill:url(#id21);fill-rule:nonzero}
    .fil21 {fill:url(#id22);fill-rule:nonzero}
    .fil43 {fill:url(#id23);fill-rule:nonzero}
    .fil42 {fill:url(#id24);fill-rule:nonzero}
    .fil38 {fill:url(#id25);fill-rule:nonzero}
    .fil40 {fill:url(#id26);fill-rule:nonzero}
    .fil46 {fill:url(#id27);fill-rule:nonzero}
    .fil44 {fill:url(#id28);fill-rule:nonzero}
    .fil36 {fill:url(#id29);fill-rule:nonzero}
   ]]>
  </style>
  <linearGradient id="id0" gradientUnits="userSpaceOnUse" x1="113.648" y1="4.40009" x2="115.657" y2="24.7798">
   <stop offset="0" style="stop-opacity:1; stop-color:#25A6D9"/>
   <stop offset="1" style="stop-opacity:1; stop-color:#1672A5"/>
  </linearGradient>
  <linearGradient id="id1" gradientUnits="userSpaceOnUse" xlink:href="#id0" x1="112.259" y1="43.6715" x2="114.254" y2="63.9103">
  </linearGradient>
  <linearGradient id="id2" gradientUnits="userSpaceOnUse" x1="26.5628" y1="133.286" x2="10.8936" y2="148.296">
   <stop offset="0" style="stop-opacity:1; stop-color:#04870F"/>
   <stop offset="1" style="stop-opacity:1; stop-color:#03690C"/>
  </linearGradient>
  <linearGradient id="id3" gradientUnits="userSpaceOnUse" xlink:href="#id2" x1="99.3728" y1="143.708" x2="84.3623" y2="128.036">
  </linearGradient>
  <linearGradient id="id4" gradientUnits="userSpaceOnUse" xlink:href="#id2" x1="101.852" y1="144.96" x2="86.842" y2="129.288">
  </linearGradient>
  <linearGradient id="id5" gradientUnits="userSpaceOnUse" xlink:href="#id2" x1="33.5658" y1="143.445" x2="26.6493" y2="150.072">
  </linearGradient>
  <linearGradient id="id6" gradientUnits="userSpaceOnUse" xlink:href="#id2" x1="27.8175" y1="130.807" x2="12.1459" y2="145.818">
  </linearGradient>
  <linearGradient id="id7" gradientUnits="userSpaceOnUse" xlink:href="#id2" x1="47.3821" y1="129.031" x2="31.7105" y2="144.042">
  </linearGradient>
  <linearGradient id="id8" gradientUnits="userSpaceOnUse" xlink:href="#id2" x1="44.5293" y1="145.092" x2="37.6128" y2="151.719">
  </linearGradient>
  <linearGradient id="id9" gradientUnits="userSpaceOnUse" xlink:href="#id2" x1="86.0209" y1="146.407" x2="71.0104" y2="130.737">
  </linearGradient>
  <linearGradient id="id10" gradientUnits="userSpaceOnUse" xlink:href="#id2" x1="33.9141" y1="132.343" x2="18.2425" y2="147.353">
  </linearGradient>
  <linearGradient id="id11" gradientUnits="userSpaceOnUse" xlink:href="#id2" x1="35.1664" y1="129.863" x2="19.4947" y2="144.874">
  </linearGradient>
  <linearGradient id="id12" gradientUnits="userSpaceOnUse" xlink:href="#id2" x1="30.4772" y1="142.375" x2="23.5607" y2="149.002">
  </linearGradient>
  <linearGradient id="id13" gradientUnits="userSpaceOnUse" xlink:href="#id2" x1="26.2169" y1="144.388" x2="19.3016" y2="151.015">
  </linearGradient>
  <linearGradient id="id14" gradientUnits="userSpaceOnUse" xlink:href="#id2" x1="29.2249" y1="144.853" x2="22.3097" y2="151.482">
  </linearGradient>
  <linearGradient id="id15" gradientUnits="userSpaceOnUse" xlink:href="#id2" x1="87.7708" y1="150.602" x2="72.7602" y2="134.93">
  </linearGradient>
  <linearGradient id="id16" gradientUnits="userSpaceOnUse" xlink:href="#id2" x1="32.3135" y1="145.923" x2="25.3983" y2="152.552">
  </linearGradient>
  <linearGradient id="id17" gradientUnits="userSpaceOnUse" xlink:href="#id2" x1="30.8255" y1="131.273" x2="15.1539" y2="146.283">
  </linearGradient>
  <linearGradient id="id18" gradientUnits="userSpaceOnUse" xlink:href="#id2" x1="32.0778" y1="128.793" x2="16.4062" y2="143.804">
  </linearGradient>
  <linearGradient id="id19" gradientUnits="userSpaceOnUse" xlink:href="#id2" x1="24.9635" y1="146.868" x2="18.0494" y2="153.495">
  </linearGradient>
  <linearGradient id="id20" gradientUnits="userSpaceOnUse" xlink:href="#id2" x1="46.1299" y1="131.51" x2="30.4582" y2="146.52">
  </linearGradient>
  <linearGradient id="id21" gradientUnits="userSpaceOnUse" xlink:href="#id2" x1="83.5425" y1="145.156" x2="68.5319" y2="129.484">
  </linearGradient>
  <linearGradient id="id22" gradientUnits="userSpaceOnUse" xlink:href="#id2" x1="45.7816" y1="142.612" x2="38.8663" y2="149.241">
  </linearGradient>
  <linearGradient id="id23" gradientUnits="userSpaceOnUse" xlink:href="#id2" x1="90.2492" y1="151.854" x2="75.2387" y2="136.185">
  </linearGradient>
  <linearGradient id="id24" gradientUnits="userSpaceOnUse" xlink:href="#id2" x1="85.7911" y1="142.108" x2="79.1637" y2="135.192">
  </linearGradient>
  <linearGradient id="id25" gradientUnits="userSpaceOnUse" xlink:href="#id2" x1="69.9607" y1="143.555" x2="63.3333" y2="136.639">
  </linearGradient>
  <linearGradient id="id26" gradientUnits="userSpaceOnUse" xlink:href="#id2" x1="88.2707" y1="143.36" x2="81.6422" y2="136.444">
  </linearGradient>
  <linearGradient id="id27" gradientUnits="userSpaceOnUse" xlink:href="#id2" x1="74.189" y1="149.002" x2="67.5616" y2="142.086">
  </linearGradient>
  <linearGradient id="id28" gradientUnits="userSpaceOnUse" xlink:href="#id2" x1="76.6675" y1="150.253" x2="70.0401" y2="143.339">
  </linearGradient>
  <linearGradient id="id29" gradientUnits="userSpaceOnUse" xlink:href="#id2" x1="72.4392" y1="144.806" x2="65.8118" y2="137.892">
  </linearGradient>
 </defs>
 <g id="Layer_x0020_1">
  <metadata id="CorelCorpID_0Corel-Layer"/>
  <g id="_655073968">
   <g>
    <rect class="fil0" x="97" y="26" width="7.90981" height="13.2609"/>
    <rect class="fil0" x="124" y="26" width="7.90981" height="13.2609"/>
    <rect class="fil1" x="89" y="1" width="51.1824" height="26.289" rx="2" ry="2"/>
    <rect class="fil2" x="93" y="6" width="42.8071" height="18.1464"/>
    <path class="fil3" d="M21 39l119 0c4,0 6,3 6,6l0 26 -130 0 0 -26c0,-3 2,-6 5,-6z"/>
    <polygon class="fil4" points="16,71 146,71 158,107 5,107 "/>
    <rect class="fil5" x="5" y="107" width="153.314" height="6.04872"/>
    <rect class="fil6" x="87" y="45" width="53.0435" height="16.9833"/>
    <rect class="fil7" x="87" y="62" width="53.0435" height="2.44279"/>
    <rect class="fil8 str0" x="25" y="53" width="50.4844" height="5.11832" rx="3" ry="3"/>
    <path class="fil9 str1" d="M29 6l4 4 3 -4 4 4 3 -4 4 4 3 -4 4 4 3 -3 3 3 4 -4 3 4 4 -4c0,0 1,49 0,49 -1,0 -42,0 -42,0l0 -49z"/>
    <rect class="fil1" x="34" y="19" width="20.9382" height="2.32656" rx="1" ry="1"/>
    <rect class="fil1" x="34" y="26" width="20.9382" height="2.32656" rx="1" ry="1"/>
    <rect class="fil1" x="34" y="34" width="20.9382" height="2.32656" rx="1" ry="1"/>
    <rect class="fil1" x="58" y="19" width="8.30357" height="2.32656" rx="1" ry="1"/>
    <rect class="fil1" x="58" y="26" width="8.30357" height="2.32656" rx="1" ry="1"/>
    <rect class="fil1" x="58" y="34" width="8.30357" height="2.32656" rx="1" ry="1"/>
    <rect class="fil1" x="34" y="41" width="20.9382" height="2.32656" rx="1" ry="1"/>
    <rect class="fil1" x="58" y="41" width="8.30357" height="2.32656" rx="1" ry="1"/>
    <rect class="fil1" x="53" y="49" width="14.2358" height="2.32656" rx="1" ry="1"/>
    <path class="fil10 str2" d="M31 76l6 0c0,0 1,0 1,1l-1 4c0,0 0,1 -1,1l-6 0c0,0 -1,-1 -1,-1l1 -4c1,-1 1,-1 1,-1z"/>
    <path class="fil10 str2" d="M29 85l6 0c0,0 1,1 1,1l-1 4c0,1 -1,1 -1,1l-6 0c-1,0 -1,0 -1,-1l1 -4c0,0 1,-1 1,-1z"/>
    <path class="fil10 str2" d="M27 95l6 0c1,0 1,1 1,1l-1 5c0,0 0,1 -1,1l-7 0c0,0 -1,-1 -1,-1l2 -5c0,0 0,-1 1,-1z"/>
    <path class="fil10 str2" d="M47 76l6 0c0,0 1,1 1,1l-1 4c0,0 0,1 -1,1l-6 0c0,0 -1,-1 -1,-1l1 -4c0,-1 0,-1 1,-1z"/>
    <path class="fil10 str2" d="M45 85l7 0c0,0 1,1 1,1l-1 4c0,1 0,1 -1,1l-6 0c0,0 -1,0 -1,-1l0 -4c0,0 1,-1 1,-1z"/>
    <path class="fil10 str2" d="M44 95l6 0c1,0 1,1 1,1l0 5c-1,0 -1,1 -1,1l-7 0c-1,0 -1,-1 -1,-1l1 -5c0,0 0,-1 1,-1z"/>
    <path class="fil10 str2" d="M63 76l5 0c1,0 1,1 1,1l0 4c0,0 0,1 -1,1l-6 0c0,0 -1,-1 0,-1l0 -4c0,-1 0,-1 1,-1z"/>
    <path class="fil10 str2" d="M62 85l6 0c0,0 1,1 1,1l-1 4c0,1 0,1 -1,1l-6 0c0,0 -1,0 0,-1l0 -4c0,0 0,-1 1,-1z"/>
    <path class="fil10 str2" d="M61 95l6 0c1,0 1,1 1,1l0 5c0,0 0,1 -1,1l-7 0c0,0 -1,-1 -1,-1l1 -5c0,0 1,-1 1,-1z"/>
    <rect class="fil10 str2" x="78" y="76" width="7.41951" height="5.8921" rx="1" ry="1"/>
    <rect class="fil10 str2" x="77" y="85" width="8.12459" height="6.45203" rx="1" ry="1"/>
    <rect class="fil10 str2" x="77" y="95" width="8.12459" height="6.45203" rx="1" ry="1"/>
    <path class="fil10 str2" d="M131 76l-6 0c0,0 -1,0 0,1l0 4c0,0 1,1 1,1l6 0c1,0 1,-1 1,-1l-1 -4c0,-1 0,-1 -1,-1z"/>
    <path class="fil10 str2" d="M133 85l-5 0c-1,0 -1,1 -1,1l1 4c0,1 0,1 0,1l6 0c1,0 2,0 1,-1l-1 -4c0,0 0,-1 -1,-1z"/>
    <path class="fil10 str2" d="M136 95l-7 0c0,0 -1,1 -1,1l1 5c0,0 1,1 1,1l7 0c1,0 1,-1 1,-1l-1 -5c0,0 -1,-1 -1,-1z"/>
    <path class="fil10 str2" d="M116 76l-6 0c-1,0 -1,1 -1,1l0 4c0,0 1,1 1,1l6 0c1,0 1,-1 1,-1l-1 -4c0,-1 0,-1 0,-1z"/>
    <path class="fil10 str2" d="M117 85l-6 0c-1,0 -1,1 -1,1l0 4c1,1 1,1 1,1l6 0c1,0 1,0 1,-1l0 -4c0,0 0,-1 -1,-1z"/>
    <path class="fil10 str2" d="M119 95l-7 0c0,0 -1,1 -1,1l1 5c0,0 0,1 1,1l6 0c1,0 2,-1 1,-1l0 -5c0,0 -1,-1 -1,-1z"/>
    <path class="fil10 str2" d="M100 76l-6 0c-1,0 -1,1 -1,1l0 4c0,0 1,1 1,1l6 0c0,0 1,-1 1,-1l-1 -4c0,-1 0,-1 0,-1z"/>
    <path class="fil10 str2" d="M101 85l-6 0c-1,0 -1,1 -1,1l0 4c0,1 1,1 1,1l6 0c1,0 1,0 1,-1l0 -4c0,0 -1,-1 -1,-1z"/>
    <path class="fil10 str2" d="M101 95l-6 0c0,0 -1,1 -1,1l0 5c0,0 1,1 1,1l7 0c1,0 1,-1 1,-1l-1 -5c0,0 0,-1 -1,-1z"/>
    <path class="fil10 str2" d="M1 179l161 0 0 4c0,3 -3,6 -6,6l-149 0c-3,0 -6,-3 -6,-6l0 -4z"/>
    <polygon class="fil0 str2" points="5,113 158,113 162,165 1,165 "/>
    <path class="fil11 str2" d="M7 184l149 0c3,0 6,-2 6,-6l0 -22 -161 0 0 22c0,4 3,6 6,6z"/>
    <ellipse class="fil10 str2" cx="82" cy="175" rx="4" ry="2"/>
    <g>
     <path class="fil12" d="M1 156l3 -43 2 0 -3 43 -1 1 -1 -1zm1 1l-1 0 0 -1 1 1zm49 0l-49 0 0 -2 49 0 1 1 -1 1zm1 -1l0 1 -1 0 1 -1zm0 -43l0 43 -2 0 0 -43 1 -1 1 1zm-1 -1l1 0 0 1 -1 -1zm-46 0l46 0 0 2 -46 0 -1 -1 1 -1zm-1 1l0 -1 1 0 -1 1z"/>
    </g>
    <g>
     <path class="fil12" d="M112 114l-61 0 0 -2 61 0 1 1 -1 1zm0 -2l1 0 0 1 -1 -1zm-1 44l0 -43 2 0 0 43 -1 1 -1 -1zm2 0l0 1 -1 0 1 -1zm-62 -1l61 0 0 2 -61 0 -1 -1 1 -1zm0 2l-1 0 0 -1 1 1zm1 -44l0 43 -2 0 0 -43 1 -1 1 1zm-2 0l0 -1 1 0 -1 1z"/>
    </g>
    <g>
     <path class="fil12" d="M162 156l-1 1 -1 -1 -3 -43 2 0 3 43zm0 0l0 1 -1 0 1 -1zm-50 1l-1 -1 1 -1 49 0 0 2 -49 0zm0 0l-1 0 0 -1 1 1zm-1 -44l1 -1 1 1 0 43 -2 0 0 -43zm0 0l0 -1 1 0 -1 1zm47 -1l1 1 -1 1 -46 0 0 -2 46 0zm0 0l1 0 0 1 -1 -1z"/>
    </g>
    <polyline class="fil13 str3" points="5,113 9,128 7,156 51,156 51,137 51,135 51,131 "/>
    <line class="fil13 str4" x1="9" y1="128" x2="51" y2= "128" />
    <g>
     <g id="_745841776">
      <g>
       <polygon class="fil14" points="35,152 35,123 20,123 19,151 "/>
       <path class="fil15" d="M24 125l7 0c0,1 1,2 2,2l0 21c-1,-1 -2,1 -2,2l-7 0c0,-1 -1,-3 -3,-3l0 -20c2,0 3,-1 3,-2z"/>
       <path class="fil16" d="M25 151l10 1 0 -10c0,3 -1,5 -3,7 -2,2 -4,2 -7,2z"/>
       <polygon class="fil17" points="28,132 28,129 27,129 27,132 "/>
       <polygon class="fil17" points="28,146 28,143 27,143 27,146 "/>
      </g>
      <path class="fil17" d="M29 136c0,0 -1,1 -1,1 0,0 0,0 0,0 0,1 0,1 0,1 -1,0 -1,1 -1,1 0,0 0,0 0,0 -1,0 -1,0 -1,0 -1,0 -1,0 -1,0 -1,0 -1,-1 -1,-1l-1 0 0 -1 1 0c0,-1 0,-1 1,-1 0,-1 1,-1 1,-1l0 1c0,0 -1,1 -1,1 0,0 0,0 0,0 0,1 0,1 0,1 0,0 1,0 1,0 0,0 0,0 0,0 0,0 1,-1 1,-1 0,0 0,-1 0,-1 0,0 0,0 1,0 0,-1 0,-1 0,-1 0,0 1,0 1,0 0,0 1,0 1,1 1,0 1,0 1,1l1 0 0 1 -1 0c0,0 -1,1 -1,1 0,0 -1,1 -1,1l0 -2c0,0 0,0 0,0 1,0 1,0 1,-1 0,0 0,0 0,0 -1,0 -1,-1 -1,-1z"/>
     </g>
     <g id="_745841200">
      <g>
       <polygon class="fil18" points="34,154 34,126 19,126 18,154 "/>
       <path class="fil15" d="M23 127l7 0c0,2 1,3 2,3l0 20c-1,0 -3,1 -3,3l-6 0c0,-2 -2,-3 -3,-3l0 -20c2,0 3,-1 3,-3z"/>
       <path class="fil19" d="M24 154l10 0 0 -10c0,3 -1,5 -3,7 -2,2 -4,3 -7,3z"/>
       <polygon class="fil17" points="27,134 27,132 26,132 26,134 "/>
       <polygon class="fil17" points="27,148 27,146 25,146 25,148 "/>
      </g>
      <path class="fil17" d="M28 139c-1,0 -1,0 -1,0 0,0 0,1 0,1 0,0 -1,0 -1,1 0,0 0,0 0,0 0,1 0,1 -1,1 0,0 0,0 0,0 -1,0 -1,0 -2,-1 0,0 0,0 0,-1l-1 0 0 -1 1 0c0,0 0,-1 0,-1 1,0 1,0 2,0l0 1c-1,0 -1,0 -1,0 0,0 0,0 0,1 0,0 0,0 0,0 0,0 0,1 1,1 0,0 0,-1 0,-1 0,0 0,0 1,0 0,-1 0,-1 0,-1 0,-1 0,-1 0,-1 1,0 1,0 1,0 0,0 0,0 1,0 0,0 1,0 1,0 0,0 0,1 1,1l0 0 0 1 0 0c-1,1 -1,1 -1,2 -1,0 -1,0 -2,0l0 -1c1,0 1,0 1,0 0,-1 0,-1 0,-1 0,0 0,-1 0,-1 0,0 0,0 0,0z"/>
     </g>
    </g>
    <g>
     <g id="_745839424">
      <g>
       <polygon class="fil20" points="47,151 47,123 32,122 32,151 "/>
       <path class="fil15" d="M36 124l7 0c0,1 1,3 3,3l-1 20c-1,0 -2,1 -2,2l-7 0c0,-1 -1,-2 -3,-2l1 -21c1,0 2,-1 2,-2z"/>
       <path class="fil21" d="M37 151l10 0 0 -10c0,3 -1,5 -3,7 -2,2 -4,3 -7,3z"/>
       <polygon class="fil17" points="40,131 40,128 39,128 39,131 "/>
       <polygon class="fil17" points="40,145 40,142 39,142 39,145 "/>
      </g>
      <path class="fil17" d="M41 136c0,0 0,0 0,0 -1,0 -1,0 -1,1 0,0 0,0 0,0 0,1 -1,1 -1,1 0,0 0,0 0,0 0,1 -1,1 -1,1 -1,0 -1,-1 -1,-1 -1,0 -1,-1 -1,-1l-1 0 0 -1 1 0c0,-1 0,-1 1,-1 0,-1 1,-1 1,-1l0 2c0,0 0,0 -1,0 0,0 0,0 0,0 0,1 0,1 0,1 1,0 1,0 1,0 0,0 0,0 1,0 0,0 0,0 0,-1 0,0 0,0 0,-1 1,0 1,0 1,0 0,0 0,0 0,-1 1,0 1,0 1,0 1,0 1,0 1,1 1,0 1,1 1,1l1 0 0 1 -1 0c0,0 0,1 -1,1 0,1 -1,1 -1,1l0 -1c0,0 0,-1 1,-1 0,0 0,0 0,0 0,-1 0,-1 0,-1 0,0 -1,0 -1,0z"/>
     </g>
     <g id="_745837456">
      <g>
       <polygon class="fil22" points="46,153 46,125 31,125 30,153 "/>
       <path class="fil15" d="M35 126l7 0c0,2 1,3 2,3l0 20c-1,0 -2,1 -3,3l-6 0c0,-2 -1,-3 -3,-3l0 -20c2,0 3,-1 3,-3z"/>
       <path class="fil23" d="M36 153l10 0 0 -9c0,2 -1,5 -3,6 -2,2 -4,3 -7,3z"/>
       <polygon class="fil17" points="39,133 39,131 38,131 38,133 "/>
       <polygon class="fil17" points="39,147 39,145 38,145 38,147 "/>
      </g>
      <path class="fil17" d="M40 138c0,0 -1,0 -1,0 0,0 0,1 0,1 0,0 0,1 0,1 -1,0 -1,0 -1,0 0,1 0,1 0,1 -1,0 -1,0 -1,0 -1,0 -1,0 -2,0 0,-1 0,-1 0,-2l-1 0 0 -1 1 0c0,0 0,0 1,-1 0,0 0,0 1,0l0 1c0,0 -1,0 -1,0 0,0 0,1 0,1 0,0 0,0 0,1 0,0 0,0 1,0 0,0 0,0 0,0 0,-1 1,-1 1,-1 0,-1 0,-1 0,-1 0,0 0,-1 1,-1 0,0 0,0 0,0 0,0 1,0 1,0 0,0 1,0 1,0 0,1 1,1 1,2l1 0 0 0 -1 0c0,1 -1,1 -1,2 0,0 -1,0 -1,0l0 -1c0,0 0,0 0,0 1,0 1,-1 1,-1 0,0 0,0 -1,-1 0,0 0,0 0,0z"/>
     </g>
    </g>
    <g>
     <g id="_745836664">
      <g>
       <polygon class="fil24" points="28,153 28,124 12,124 12,152 "/>
       <path class="fil15" d="M17 126l6 0c0,1 2,2 3,2l0 20c-2,0 -3,2 -3,3l-7 0c0,-1 -1,-3 -2,-3l0 -20c2,0 3,-1 3,-2z"/>
       <path class="fil25" d="M18 152l10 1 0 -10c0,2 -1,5 -3,7 -2,1 -5,2 -7,2z"/>
       <polygon class="fil17" points="21,133 21,130 19,130 19,133 "/>
       <polygon class="fil17" points="21,147 21,144 19,144 19,147 "/>
      </g>
      <path class="fil17" d="M22 137c-1,0 -1,0 -1,1 0,0 0,0 0,0 -1,1 -1,1 -1,1 0,0 0,1 0,1 0,0 -1,0 -1,0 0,0 0,0 -1,0 0,0 -1,0 -1,0 0,-1 0,-1 0,-1l-1 0 0 -1 1 0c0,-1 0,-1 0,-1 1,-1 1,-1 2,-1l0 1c-1,0 -1,0 -1,1 0,0 0,0 0,0 0,0 0,1 0,1 0,0 0,0 0,0 1,0 1,0 1,0 0,0 0,-1 0,-1 1,0 1,-1 1,-1 0,0 0,0 0,0 0,-1 1,-1 1,-1 0,0 0,0 1,0 0,0 1,0 1,1 0,0 0,0 0,1l1 0 0 1 -1 0c0,0 0,1 0,1 -1,0 -1,1 -2,1l0 -2c1,0 1,0 1,0 0,0 0,0 0,-1 0,0 0,0 0,0 0,-1 0,-1 0,-1z"/>
     </g>
     <g id="_745835560">
      <g>
       <polygon class="fil26" points="26,155 27,127 11,127 11,155 "/>
       <path class="fil15" d="M16 128l6 0c0,2 1,3 3,3l0 20c-2,0 -3,1 -3,3l-7 -1c0,-1 -1,-2 -2,-2l0 -20c1,0 3,-2 3,-3z"/>
       <path class="fil27" d="M17 155l9 0 0 -10c0,3 -1,5 -3,7 -1,2 -4,3 -6,3z"/>
       <polygon class="fil17" points="19,135 19,132 18,132 18,135 "/>
       <polygon class="fil17" points="19,149 19,147 18,147 18,149 "/>
      </g>
      <path class="fil17" d="M20 140c0,0 0,0 0,0 0,0 -1,0 -1,1 0,0 0,0 0,1 0,0 0,0 0,0 -1,0 -1,1 -1,1 0,0 -1,0 -1,0 0,0 -1,0 -1,-1 0,0 -1,0 -1,-1l-1 0 0 -1 1 0c0,0 1,-1 1,-1 0,0 1,0 1,0l0 1c0,0 0,0 0,0 -1,0 -1,0 -1,1 0,0 0,0 1,0 0,0 0,0 0,0 0,0 1,0 1,0 0,0 0,0 0,0 0,-1 0,-1 1,-1 0,-1 0,-1 0,-1 0,0 0,0 1,0 0,0 0,0 0,0 1,0 1,0 2,0 0,0 0,1 0,1l1 0 0 1 -1 0c0,1 0,1 -1,2 0,0 0,0 -1,0l0 -1c0,0 1,0 1,0 0,-1 0,-1 0,-1 0,-1 0,-1 0,-1 0,0 0,0 -1,0z"/>
     </g>
    </g>
    <g>
     <g id="_745834576">
      <g>
       <polygon class="fil28" points="32,150 32,122 17,122 16,150 "/>
       <path class="fil15" d="M21 124l7 0c0,1 1,2 2,2l0 20c-1,0 -3,2 -3,3l-6 0c0,-1 -1,-3 -3,-3l0 -20c2,0 3,-1 3,-2z"/>
       <path class="fil29" d="M22 150l10 0 0 -9c0,2 -1,5 -3,7 -2,1 -4,2 -7,2z"/>
       <polygon class="fil17" points="25,131 25,128 24,128 24,131 "/>
       <polygon class="fil17" points="25,145 25,142 24,142 24,145 "/>
      </g>
      <path class="fil17" d="M26 135c0,0 -1,0 -1,1 0,0 0,0 0,0 0,1 0,1 -1,1 0,0 0,1 0,1 0,0 0,0 -1,0 0,0 0,0 0,0 -1,0 -1,0 -2,0 0,-1 0,-1 0,-2l-1 0 0 0 1 0c0,-1 0,-1 1,-1 0,-1 0,-1 1,-1l0 1c0,0 -1,0 -1,1 0,0 0,0 0,0 0,0 0,1 0,1 0,0 0,0 1,0 0,0 0,0 0,0 0,0 1,-1 1,-1 0,0 0,-1 0,-1 0,0 0,0 1,0 0,-1 0,-1 0,-1 0,0 1,0 1,0 0,0 1,0 1,1 0,0 1,0 1,1l1 0 0 1 -1 0c0,0 -1,1 -1,1 0,0 -1,1 -2,1l1 -2c0,0 0,0 0,0 1,0 1,0 1,-1 0,0 0,0 -1,0 0,-1 0,-1 0,-1z"/>
     </g>
     <g id="_745833280">
      <g>
       <polygon class="fil30" points="31,153 31,125 15,125 15,153 "/>
       <path class="fil15" d="M20 126l6 0c0,2 2,3 3,3l0 20c-2,0 -3,1 -3,3l-7 -1c1,-1 -1,-2 -2,-2l0 -20c2,0 3,-2 3,-3z"/>
       <path class="fil31" d="M21 153l10 0 0 -10c0,3 -1,5 -3,7 -2,2 -5,3 -7,3z"/>
       <polygon class="fil17" points="24,133 24,130 22,130 22,133 "/>
       <polygon class="fil17" points="24,147 24,145 22,145 22,147 "/>
      </g>
      <path class="fil17" d="M25 138c-1,0 -1,0 -1,0 0,0 0,0 0,1 -1,0 -1,0 -1,1 0,0 0,0 0,0 0,0 -1,1 -1,1 0,0 0,0 -1,0 0,0 -1,0 -1,-1 0,0 0,0 0,-1l-1 0 0 -1 1 0c0,0 0,-1 0,-1 1,0 1,0 2,0l0 1c-1,0 -1,0 -1,0 0,0 0,0 0,1 0,0 0,0 0,0 0,0 0,0 0,0 1,0 1,0 1,0 0,0 0,0 0,0 1,-1 1,-1 1,-1 0,-1 0,-1 0,-1 0,0 1,0 1,0 0,0 0,0 1,0 0,0 1,0 1,0 0,0 0,1 0,1l1 0 0 1 -1 0c0,1 0,1 0,2 -1,0 -1,0 -2,0l0 -1c1,0 1,0 1,-1 0,0 0,0 0,0 0,-1 0,-1 0,-1 0,0 0,0 0,0z"/>
     </g>
    </g>
    <polyline class="fil13 str5" points="158,113 154,128 156,156 112,156 112,137 112,135 112,131 "/>
    <line class="fil13 str6" x1="154" y1="128" x2="112" y2= "128" />
    <polyline class="fil13 str2" points="111,113 109,128 109,156 "/>
    <g>
     <polyline class="fil13 str7" points="52,113 54,128 54,156 "/>
     <path class="fil13 str8" d="M54 128c0,0 48,-1 55,-1"/>
    </g>
    <g>
     <g id="_745829368">
      <path class="fil32" d="M148 143c-3,0 -6,-3 -6,-7 0,-3 3,-6 6,-6 3,0 6,3 6,6 0,4 -3,7 -6,7z"/>
      <path class="fil33" d="M142 136c0,-3 2,-6 5,-6 0,0 0,0 0,0 -4,0 -6,3 -6,6 0,4 2,7 6,7 0,0 0,0 0,0 -3,0 -5,-3 -5,-7z"/>
      <path class="fil34" d="M142 137l-1 0c0,0 0,0 0,0l1 0c0,0 0,0 0,0z"/>
      <path class="fil34" d="M142 135l-1 0c0,0 0,1 0,1l1 0c0,0 0,-1 0,-1z"/>
      <path class="fil34" d="M142 138l-1 0c0,0 0,0 0,0l1 0c0,0 0,0 0,0z"/>
      <path class="fil34" d="M143 139l-2 0c0,0 0,0 0,0l2 0c0,0 0,0 0,0z"/>
      <path class="fil34" d="M142 134l-1 0c0,0 0,0 0,1l1 0c0,-1 0,-1 0,-1z"/>
      <path class="fil34" d="M143 133l-1 0c-1,0 -1,0 -1,0l2 0c0,0 0,0 0,0z"/>
      <path class="fil34" d="M144 131l-1 0c-1,1 -1,1 -1,1l2 0c0,0 0,0 0,-1z"/>
      <path class="fil34" d="M145 130l-1 0c0,0 -1,1 -1,1l2 0c0,0 0,-1 0,-1z"/>
      <path class="fil34" d="M143 140l-1 0c0,1 0,1 0,1l2 0c0,0 0,0 -1,-1z"/>
      <path class="fil34" d="M143 142c0,0 0,0 1,0l1 0c0,0 0,0 -1,0l-1 0z"/>
     </g>
     <path class="fil17" d="M149 138c0,0 0,0 0,-1 0,0 0,0 -1,0 0,0 0,0 -1,0 0,-1 0,-1 0,-1 -1,0 -1,0 -1,0 0,-1 0,-1 0,-1 0,-1 0,-1 1,-2 0,0 0,0 1,0l0 -1 1 0 0 1c0,0 1,0 1,0 0,1 1,1 1,2l-2 0c0,0 0,-1 0,-1 0,0 0,0 -1,0 0,0 0,0 0,0 -1,0 -1,0 -1,1 0,0 0,0 1,0 0,0 0,1 0,1 1,0 1,0 1,0 1,0 1,0 1,1 0,0 0,0 0,0 1,0 1,1 1,1 0,1 -1,1 -1,1 0,1 -1,1 -1,1l0 1 -1 0 0 -1c-1,0 -1,0 -2,-1 0,0 0,-1 0,-1l1 0c0,0 0,0 0,1 1,0 1,0 1,0 1,0 1,0 1,0 0,0 0,-1 0,-1z"/>
    </g>
    <g>
     <g id="_745827016">
      <path class="fil32" d="M143 147c-3,0 -6,-3 -6,-7 0,-3 3,-6 6,-6 4,0 6,3 6,6 0,4 -2,7 -6,7z"/>
      <path class="fil33" d="M137 140c0,-3 3,-6 6,-6 -1,0 -1,0 -1,0 -3,0 -6,3 -6,6 0,4 3,7 6,7 0,0 0,0 1,0 -3,0 -6,-3 -6,-7z"/>
      <path class="fil34" d="M137 141l-1 0c0,0 0,0 0,0l1 0c0,0 0,0 0,0z"/>
      <path class="fil34" d="M137 139l-1 0c0,1 0,1 0,1l1 0c0,0 0,0 0,-1z"/>
      <path class="fil34" d="M138 142l-2 0c0,0 0,0 0,0l2 0c0,0 0,0 0,0z"/>
      <path class="fil34" d="M138 143l-2 0c0,0 1,0 1,1l1 0c0,-1 0,-1 0,-1z"/>
      <path class="fil34" d="M138 138l-2 0c0,0 0,1 0,1l2 0c0,0 0,-1 0,-1z"/>
      <path class="fil34" d="M138 137l-1 0c0,0 0,0 0,0l1 0c0,0 0,0 0,0z"/>
      <path class="fil34" d="M139 136l-1 0c0,0 -1,0 -1,0l2 0c0,0 0,0 0,0z"/>
      <path class="fil34" d="M141 134l-2 0c0,0 0,1 0,1l1 0c0,0 0,-1 1,-1z"/>
      <path class="fil34" d="M139 144l-2 0c0,1 0,1 1,1l1 0c0,0 0,0 0,-1z"/>
      <path class="fil34" d="M138 146c0,0 1,0 1,0l1 0c0,0 0,0 0,0l-2 0z"/>
     </g>
     <path class="fil17" d="M144 142c0,0 0,0 0,-1 0,0 0,0 -1,0 0,0 0,0 -1,0 0,0 0,-1 0,-1 0,0 0,0 -1,0 0,-1 0,-1 0,-1 0,-1 0,-1 1,-2 0,0 1,0 1,0l0 -1 1 0 0 1c1,0 1,0 1,1 1,0 1,0 1,1l-2 0c0,0 0,-1 0,-1 0,0 0,0 0,0 -1,0 -1,0 -1,0 0,0 0,1 0,1 0,0 0,0 0,0 0,1 0,1 1,1 0,0 0,0 1,0 0,0 0,1 0,1 0,0 1,0 1,0 0,1 0,1 0,1 0,1 0,1 -1,1 0,1 -1,1 -1,1l0 1 -1 0 0 -1c-1,0 -1,0 -1,-1 -1,0 -1,-1 -1,-1l1 0c0,0 0,0 1,1 0,0 0,0 0,0 1,0 1,0 1,0 0,0 0,-1 0,-1z"/>
    </g>
    <g>
     <g id="_655069000">
      <path class="fil32" d="M141 144c-4,0 -6,-3 -6,-7 0,-4 2,-7 6,-7 3,0 6,3 6,7 0,4 -3,7 -6,7z"/>
      <path class="fil33" d="M135 137c0,-3 2,-6 5,-7 0,0 -1,0 -1,0 -3,0 -6,3 -6,7 0,4 3,7 6,7 0,0 1,0 1,0 -3,-1 -5,-4 -5,-7z"/>
      <path class="fil34" d="M135 137l-2 0c0,0 0,1 0,1l2 0c0,0 0,-1 0,-1z"/>
      <path class="fil34" d="M135 136l-2 0c0,0 0,0 0,0l2 0c0,0 0,0 0,0z"/>
      <path class="fil34" d="M135 138l-2 0c0,1 1,1 1,1l1 0c0,0 0,0 0,-1z"/>
      <path class="fil34" d="M135 140l-1 0c0,0 0,0 0,0l1 0c0,0 0,0 0,0z"/>
      <path class="fil34" d="M135 135l-1 0c0,0 0,0 0,0l1 0c0,0 0,0 0,0z"/>
      <path class="fil34" d="M136 134l-2 0c0,0 0,0 0,0l1 0c0,0 0,0 1,0z"/>
      <path class="fil34" d="M137 132l-2 0c0,0 0,0 0,1l1 0c0,-1 0,-1 1,-1z"/>
      <path class="fil34" d="M138 131l-1 0c-1,0 -1,0 -1,0l1 0c1,0 1,0 1,0z"/>
      <path class="fil34" d="M136 141l-1 0c0,0 0,0 0,1l1 0c0,-1 0,-1 0,-1z"/>
      <path class="fil34" d="M136 142c0,0 0,1 0,1l2 0c-1,0 -1,-1 -1,-1l-1 0z"/>
     </g>
     <path class="fil17" d="M142 139c0,-1 0,-1 0,-1 -1,0 -1,0 -1,0 -1,0 -1,-1 -1,-1 0,0 -1,0 -1,0 0,0 0,-1 0,-1 0,0 0,0 0,-1 0,0 0,-1 0,-1 0,0 1,-1 2,-1l0 -1 0 0 0 1c1,1 1,1 2,1 0,1 0,1 0,2l-1 0c0,-1 0,-1 0,-1 -1,0 -1,0 -1,0 0,0 -1,0 -1,0 0,0 0,0 0,0 0,1 0,1 0,1 0,0 1,0 1,0 0,1 1,1 1,1 0,0 0,0 1,0 0,1 0,1 0,1 0,0 0,0 0,1 0,0 0,1 0,1 -1,0 -1,1 -2,1l0 1 -1 0 0 -1c0,0 -1,-1 -1,-1 0,0 -1,-1 -1,-2l2 0c0,1 0,1 0,1 0,0 0,1 1,1 0,0 0,0 1,-1 0,0 0,0 0,0z"/>
    </g>
    <g>
     <g id="_655058824">
      <path class="fil32" d="M151 149c-3,0 -6,-3 -6,-7 0,-4 3,-7 6,-7 3,0 6,3 6,7 0,4 -3,7 -6,7z"/>
      <path class="fil33" d="M145 142c0,-3 2,-6 5,-7 0,0 0,0 0,0 -4,0 -6,3 -6,7 0,4 2,7 6,7 0,0 0,0 0,0 -3,-1 -5,-3 -5,-7z"/>
      <path class="fil34" d="M145 142l-1 0c0,1 0,1 0,1l1 0c0,0 0,0 0,-1z"/>
      <path class="fil34" d="M145 141l-1 0c0,0 0,0 0,1l1 0c0,-1 0,-1 0,-1z"/>
      <path class="fil34" d="M145 144l-1 0c0,0 0,0 0,0l1 0c0,0 0,0 0,0z"/>
      <path class="fil34" d="M146 145l-2 0c0,0 0,0 0,0l2 0c0,0 0,0 0,0z"/>
      <path class="fil34" d="M145 140l-1 0c0,0 0,0 0,0l1 0c0,0 0,0 0,0z"/>
      <path class="fil34" d="M146 139l-2 0c0,0 0,0 0,0l2 0c0,0 0,0 0,0z"/>
      <path class="fil34" d="M147 137l-2 0c0,0 0,1 0,1l1 0c1,0 1,-1 1,-1z"/>
      <path class="fil34" d="M148 136l-1 0c0,0 -1,0 -1,1l2 0c0,-1 0,-1 0,-1z"/>
      <path class="fil34" d="M146 146l-1 0c0,0 0,1 0,1l2 0c0,0 -1,-1 -1,-1z"/>
      <path class="fil34" d="M146 147c0,1 0,1 0,1l2 0c0,0 0,0 -1,-1l-1 0z"/>
     </g>
     <path class="fil17" d="M152 144c0,0 0,-1 0,-1 0,0 -1,0 -1,0 0,0 -1,0 -1,-1 0,0 0,0 -1,0 0,0 0,0 0,-1 0,0 0,0 0,0 0,-1 0,-1 0,-2 1,0 1,0 2,0l0 -1 1 0 0 1c0,0 1,0 1,0 0,1 0,1 0,2l-1 0c0,-1 0,-1 0,-1 0,0 -1,0 -1,0 0,0 0,0 0,0 -1,0 -1,0 -1,1 0,0 0,0 1,0 0,0 0,0 0,1 1,0 1,0 1,0 1,0 1,0 1,0 0,1 0,1 0,1 0,0 0,1 0,1 0,0 0,1 0,1 0,1 -1,1 -1,1l0 1 -1 0 0 -1c-1,0 -1,0 -2,-1 0,0 0,-1 0,-1l1 0c0,0 0,0 0,0 1,1 1,1 1,1 0,0 1,0 1,-1 0,0 0,0 0,0z"/>
    </g>
    <g>
     <g id="_655057576">
      <path class="fil32" d="M138 153c-4,0 -6,-3 -6,-7 0,-4 2,-7 6,-7 3,0 6,3 6,7 0,4 -3,7 -6,7z"/>
      <path class="fil33" d="M132 146c0,-3 2,-6 5,-7 0,0 -1,0 -1,0 -3,0 -6,3 -6,7 0,4 3,7 6,7 0,0 1,0 1,0 -3,-1 -5,-4 -5,-7z"/>
      <path class="fil34" d="M132 146l-2 0c0,0 0,1 0,1l2 0c0,0 0,-1 0,-1z"/>
      <path class="fil34" d="M132 145l-2 0c0,0 0,0 0,0l2 0c0,0 0,0 0,0z"/>
      <path class="fil34" d="M132 147l-2 0c0,1 1,1 1,1l1 0c0,0 0,0 0,-1z"/>
      <path class="fil34" d="M132 149l-1 0c0,0 0,0 0,0l1 0c0,0 0,0 0,0z"/>
      <path class="fil34" d="M132 144l-1 0c0,0 0,0 -1,0l2 0c0,0 0,0 0,0z"/>
      <path class="fil34" d="M133 143l-2 0c0,0 0,0 0,0l1 0c0,0 0,0 1,0z"/>
      <path class="fil34" d="M134 141l-2 0c0,0 0,0 0,1l1 0c0,-1 0,-1 1,-1z"/>
      <path class="fil34" d="M135 140l-1 0c-1,0 -1,0 -1,0l1 0c1,0 1,0 1,0z"/>
      <path class="fil34" d="M133 150l-1 0c0,0 0,0 0,1l1 0c0,-1 0,-1 0,-1z"/>
      <path class="fil34" d="M133 151c0,0 0,1 0,1l2 0c-1,0 -1,-1 -1,-1l-1 0z"/>
     </g>
     <path class="fil17" d="M139 148c0,-1 0,-1 0,-1 -1,0 -1,0 -1,0 -1,0 -1,-1 -1,-1 0,0 -1,0 -1,0 0,0 0,-1 0,-1 0,0 0,0 0,-1 0,0 0,-1 0,-1 0,0 1,-1 2,-1l0 -1 0 0 0 1c1,0 1,1 2,1 0,1 0,1 0,2l-1 0c0,-1 0,-1 -1,-1 0,0 0,0 0,0 0,0 -1,0 -1,0 0,0 0,0 0,0 0,1 0,1 0,1 0,0 1,0 1,0 0,1 1,1 1,1 0,0 0,0 1,0 0,1 0,1 0,1 0,0 0,0 0,1 0,0 0,1 0,1 -1,0 -1,1 -2,1l0 1 -1 0 0 -1c0,0 -1,-1 -1,-1 0,0 -1,-1 -1,-2l2 0c0,1 0,1 0,1 0,0 0,1 1,1 0,0 0,-1 0,-1 1,0 1,0 1,0z"/>
    </g>
    <g>
     <g id="_655086928">
      <path class="fil32" d="M146 154c-3,0 -6,-3 -6,-7 0,-3 3,-6 6,-6 3,0 6,3 6,6 0,4 -3,7 -6,7z"/>
      <path class="fil33" d="M140 147c0,-3 2,-6 5,-6 0,0 0,0 -1,0 -3,0 -6,3 -6,6 0,4 3,7 6,7 1,0 1,0 1,0 -3,0 -5,-3 -5,-7z"/>
      <path class="fil34" d="M140 148l-2 0c0,0 0,0 0,0l2 0c0,0 0,0 0,0z"/>
      <path class="fil34" d="M140 146l-1 0c-1,1 -1,1 -1,1l2 0c0,0 0,0 0,-1z"/>
      <path class="fil34" d="M140 149l-1 0c0,0 0,0 0,0l1 0c0,0 0,0 0,0z"/>
      <path class="fil34" d="M140 150l-1 0c0,0 0,0 0,1l2 0c0,-1 -1,-1 -1,-1z"/>
      <path class="fil34" d="M140 145l-1 0c0,0 0,1 0,1l1 0c0,0 0,-1 0,-1z"/>
      <path class="fil34" d="M141 144l-2 0c0,0 0,0 0,1l1 0c1,-1 1,-1 1,-1z"/>
      <path class="fil34" d="M142 143l-2 0c0,0 0,0 0,0l1 0c0,0 1,0 1,0z"/>
      <path class="fil34" d="M143 141l-1 0c-1,1 -1,1 -1,1l1 0c1,0 1,0 1,-1z"/>
      <path class="fil34" d="M141 152l-1 0c0,0 0,0 0,0l1 0c0,0 0,0 0,0z"/>
      <path class="fil34" d="M141 153c0,0 0,0 0,0l2 0c0,0 -1,0 -1,0l-1 0z"/>
     </g>
     <path class="fil17" d="M147 149c0,0 0,0 0,0 0,-1 -1,-1 -1,-1 0,0 -1,0 -1,0 0,0 0,-1 -1,-1 0,0 0,0 0,0 0,-1 0,-1 0,-1 0,-1 0,-1 0,-2 1,0 1,0 2,0l0 -1 0 0 0 1c1,0 1,0 2,1 0,0 0,0 0,1l-1 0c0,0 0,-1 0,-1 -1,0 -1,0 -1,0 0,0 0,0 -1,0 0,0 0,1 0,1 0,0 0,0 0,0 1,1 1,1 1,1 1,0 1,0 1,0 0,0 1,1 1,1 0,0 0,0 0,0 0,1 0,1 0,1 0,1 0,1 0,1 -1,1 -1,1 -2,1l0 1 0 0 0 -1c-1,0 -2,0 -2,-1 0,0 -1,-1 -1,-1l2 0c0,0 0,0 0,1 0,0 1,0 1,0 0,0 0,0 1,0 0,0 0,-1 0,-1z"/>
    </g>
    <g>
     <g id="_655085200">
      <path class="fil32" d="M133 143c-3,0 -6,-3 -6,-7 0,-4 3,-7 6,-7 4,0 6,3 6,7 0,4 -2,7 -6,7z"/>
      <path class="fil33" d="M127 136c0,-3 3,-6 6,-7 -1,0 -1,0 -1,0 -3,0 -6,3 -6,7 0,4 3,7 6,7 0,0 0,0 1,0 -3,-1 -6,-4 -6,-7z"/>
      <path class="fil34" d="M127 136l-1 0c0,0 0,1 0,1l1 0c0,0 0,-1 0,-1z"/>
      <path class="fil34" d="M128 135l-2 0c0,0 0,0 0,1l1 0c0,-1 1,-1 1,-1z"/>
      <path class="fil34" d="M128 137l-2 0c0,1 0,1 0,1l2 0c0,0 0,0 0,-1z"/>
      <path class="fil34" d="M128 139l-2 0c1,0 1,0 1,0l1 0c0,0 0,0 0,0z"/>
      <path class="fil34" d="M128 134l-2 0c0,0 0,0 0,0l2 0c0,0 0,0 0,0z"/>
      <path class="fil34" d="M128 133l-1 0c0,0 0,0 0,0l1 0c0,0 0,0 0,0z"/>
      <path class="fil34" d="M129 131l-1 0c0,0 0,0 -1,1l2 0c0,-1 0,-1 0,-1z"/>
      <path class="fil34" d="M131 130l-2 0c0,0 0,0 0,0l1 0c0,0 0,0 1,0z"/>
      <path class="fil34" d="M129 140l-2 0c0,0 0,0 1,1l1 0c0,-1 0,-1 0,-1z"/>
      <path class="fil34" d="M128 141c0,1 1,1 1,1l1 0c0,0 0,0 0,-1l-2 0z"/>
     </g>
     <path class="fil17" d="M134 138c0,0 0,-1 0,-1 0,0 0,0 -1,0 0,0 0,-1 0,-1 -1,0 -1,0 -1,0 0,0 0,-1 -1,-1 0,0 0,0 0,-1 0,0 0,-1 1,-1 0,0 1,0 1,-1l0 -1 1 0 0 1c1,1 1,1 1,1 1,1 1,1 1,2l-2 0c0,-1 0,-1 0,-1 0,0 0,0 0,0 -1,0 -1,0 -1,0 0,0 0,0 0,0 0,1 0,1 0,1 0,0 0,0 1,0 0,1 0,1 1,1 0,0 0,0 0,0 0,1 1,1 1,1 0,0 0,0 0,1 0,0 0,1 -1,1 0,0 0,1 -1,1l0 1 -1 0 0 -1c-1,0 -1,-1 -1,-1 -1,0 -1,-1 -1,-2l1 0c0,1 1,1 1,1 0,1 0,1 1,1 0,0 0,0 0,-1 0,0 0,0 0,0z"/>
    </g>
    <g>
     <g id="_655084408">
      <g>
       <polygon class="fil35" points="64,146 93,146 93,131 64,131 "/>
       <path class="fil15" d="M91 135l0 7c-1,0 -2,1 -2,3l-21 -1c0,-1 -1,-2 -2,-2l0 -7c1,0 3,-1 3,-3l20 1c0,1 1,2 2,2z"/>
       <path class="fil36" d="M64 136l0 10 10 0c-3,0 -5,-1 -7,-3 -2,-2 -3,-4 -3,-7z"/>
       <polygon class="fil17" points="84,139 87,139 87,138 84,138 "/>
       <polygon class="fil17" points="70,139 73,139 73,138 70,138 "/>
      </g>
      <path class="fil17" d="M79 140c0,0 0,0 0,0 0,-1 0,-1 0,-1 -1,0 -1,0 -1,0 -1,0 -1,0 -1,-1 0,0 0,0 0,0 0,0 -1,-1 -1,-1 0,-1 1,-1 1,-1 0,-1 1,-1 1,-1l0 -1 1 0 0 1c1,0 1,1 1,1 1,0 1,1 1,1l-2 0c0,0 0,0 0,0 0,-1 0,-1 0,-1 -1,0 -1,0 -1,0 0,1 0,1 0,1 0,0 0,0 0,1 0,0 0,0 1,0 0,0 0,0 1,0 0,1 0,1 0,1 0,0 1,0 1,0 0,1 0,1 0,1 0,1 0,1 -1,1 0,1 -1,1 -1,1l0 1 -1 0 0 -1c0,0 -1,0 -1,-1 -1,0 -1,-1 -1,-1l2 0c0,0 0,0 0,1 0,0 0,0 1,0 0,0 0,0 0,0 0,0 0,-1 0,-1z"/>
     </g>
     <g id="_655082872">
      <g>
       <polygon class="fil37" points="62,145 90,145 90,130 62,129 "/>
       <path class="fil15" d="M89 134l0 7c-2,0 -3,1 -3,2l-20 0c0,-1 -1,-2 -3,-2l0 -7c2,0 3,-1 3,-3l20 0c0,2 1,3 3,3z"/>
       <path class="fil38" d="M62 135l0 10 9 0c-2,0 -5,-1 -6,-3 -2,-2 -3,-4 -3,-7z"/>
       <polygon class="fil17" points="82,138 84,138 84,137 82,137 "/>
       <polygon class="fil17" points="68,138 70,138 70,137 68,137 "/>
      </g>
      <path class="fil17" d="M77 139c0,0 0,-1 0,-1 0,0 -1,0 -1,0 0,0 -1,0 -1,0 0,-1 0,-1 0,-1 -1,0 -1,0 -1,0 0,-1 0,-1 0,-1 0,-1 0,-1 1,-2 0,0 0,0 1,0l0 -1 1 0 0 1c0,0 1,0 1,1 0,0 0,0 0,1l-1 0c0,0 0,-1 0,-1 0,0 -1,0 -1,0 0,0 0,0 0,0 -1,0 -1,1 -1,1 0,0 0,0 1,0 0,0 0,1 0,1 1,0 1,0 1,0 0,0 1,0 1,1 0,0 0,0 0,0 0,0 0,1 0,1 0,0 0,1 0,1 -1,1 -1,1 -2,1l0 1 0 0 0 -1c-1,0 -1,-1 -2,-1 0,0 0,-1 0,-1l1 0c0,0 0,0 0,0 0,1 1,1 1,1 0,0 1,0 1,0 0,-1 0,-1 0,-1z"/>
     </g>
    </g>
    <g>
     <g id="_655081792">
      <g>
       <polygon class="fil39" points="80,145 108,145 109,130 80,129 "/>
       <path class="fil15" d="M107 134l0 7c-1,0 -3,1 -3,2l-20 0c0,-1 -1,-3 -2,-3l0 -6c1,0 2,-2 2,-3l20 0c0,2 2,3 3,3z"/>
       <path class="fil40" d="M80 135l0 10 10 0c-3,0 -5,-1 -7,-3 -2,-2 -3,-4 -3,-7z"/>
       <polygon class="fil17" points="100,138 103,138 103,137 100,137 "/>
       <polygon class="fil17" points="86,138 89,138 89,136 86,136 "/>
      </g>
      <path class="fil17" d="M95 139c0,-1 0,-1 0,-1 0,0 0,0 -1,0 0,0 0,-1 -1,-1 0,0 0,0 0,0 0,0 0,0 -1,-1 0,0 0,0 0,0 0,-1 0,-1 1,-2 0,0 1,0 1,0l0 -1 1 0 0 1c0,0 1,0 1,0 0,1 1,1 1,2l-2 0c0,0 0,-1 0,-1 0,0 0,0 -1,0 0,0 0,0 0,0 0,0 0,0 0,1 0,0 0,0 0,0 0,0 0,0 1,1 0,0 0,0 0,0 1,0 1,0 1,0 0,1 0,1 0,1 1,0 1,0 1,1 0,0 -1,1 -1,1 0,0 -1,1 -1,1l0 0 -1 0 0 0c-1,-1 -1,-1 -1,-1 -1,0 -1,-1 -1,-2l1 0c0,1 0,1 1,1 0,0 0,1 0,1 1,0 1,-1 1,-1 0,0 0,0 0,0z"/>
     </g>
     <g id="_655080808">
      <g>
       <polygon class="fil41" points="78,143 106,144 106,128 78,128 "/>
       <path class="fil15" d="M105 133l0 6c-2,0 -3,2 -3,3l-20 0c0,-2 -1,-3 -3,-3l0 -7c2,0 3,-1 3,-2l20 0c0,1 1,3 3,3z"/>
       <path class="fil42" d="M78 134l0 9 9 1c-2,-1 -5,-2 -6,-3 -2,-2 -3,-5 -3,-7z"/>
       <polygon class="fil17" points="98,137 100,137 100,135 98,135 "/>
       <polygon class="fil17" points="84,136 86,136 86,135 84,135 "/>
      </g>
      <path class="fil17" d="M93 137c0,0 0,0 0,0 -1,0 -1,0 -1,-1 0,0 -1,0 -1,0 0,0 0,0 -1,0 0,-1 0,-1 0,-1 0,0 0,0 0,-1 0,0 0,-1 0,-1 1,0 1,0 2,-1l0 -1 0 1 0 0c1,1 1,1 2,1 0,1 0,1 0,2l-1 0c0,-1 0,-1 0,-1 -1,0 -1,0 -1,0 0,0 0,0 -1,0 0,0 0,0 0,0 0,1 0,1 0,1 1,0 1,0 1,0 0,0 1,1 1,1 0,0 0,0 1,0 0,0 0,1 0,1 0,0 0,0 0,0 0,1 0,1 0,2 -1,0 -1,0 -2,0l0 1 0 0 0 -1c-1,0 -2,0 -2,0 0,-1 0,-1 0,-2l1 0c0,0 0,1 0,1 0,0 1,0 1,0 0,0 0,0 1,0 0,0 0,0 0,-1z"/>
     </g>
    </g>
    <g>
     <g id="_655079968">
      <g>
       <polygon class="fil43" points="69,152 97,152 97,136 69,136 "/>
       <path class="fil15" d="M96 141l-1 7c-1,0 -2,1 -2,2l-20 0c0,-2 -2,-3 -3,-3l0 -6c2,0 3,-2 3,-3l20 0c0,2 1,3 3,3z"/>
       <path class="fil44" d="M69 142l0 10 9 0c-2,0 -5,-1 -7,-3 -1,-2 -2,-5 -2,-7z"/>
       <polygon class="fil17" points="89,145 91,145 91,143 89,143 "/>
       <polygon class="fil17" points="74,145 77,145 77,143 74,143 "/>
      </g>
      <path class="fil17" d="M84 146c0,-1 0,-1 -1,-1 0,0 0,0 0,0 -1,-1 -1,-1 -1,-1 0,0 -1,0 -1,0 0,0 0,-1 0,-1 0,0 0,0 0,-1 0,0 0,0 0,-1 1,0 1,0 2,0l0 -1 0 0 0 1c1,0 1,0 2,0 0,1 0,1 0,2l-1 0c0,-1 0,-1 -1,-1 0,0 0,0 0,0 0,0 -1,0 -1,0 0,0 0,0 0,0 0,1 0,1 0,1 0,0 1,0 1,0 0,1 1,1 1,1 0,0 0,0 0,0 1,0 1,1 1,1 0,0 0,0 0,1 0,0 0,1 -1,1 0,0 0,0 -1,0l0 1 -1 0 0 -1c0,0 -1,0 -1,0 0,-1 -1,-1 -1,-2l2 0c0,1 0,1 0,1 0,0 0,0 1,0 0,0 0,0 0,0 1,0 1,0 1,0z"/>
     </g>
     <g id="_655078768">
      <g>
       <polygon class="fil45" points="66,150 94,151 94,135 66,135 "/>
       <path class="fil15" d="M93 140l0 6c-2,0 -3,1 -3,3l-20 0c0,-2 -1,-3 -3,-3l1 -7c1,0 2,-1 2,-2l20 0c0,1 2,3 3,3z"/>
       <path class="fil46" d="M66 141l0 9 10 0c-3,0 -5,-1 -7,-2 -2,-2 -3,-5 -3,-7z"/>
       <polygon class="fil17" points="86,143 89,144 89,142 86,142 "/>
       <polygon class="fil17" points="72,143 74,143 75,142 72,142 "/>
      </g>
      <path class="fil17" d="M81 144c0,0 0,0 0,0 0,0 0,-1 -1,-1 0,0 0,0 -1,0 0,0 0,0 0,0 0,-1 -1,-1 -1,-1 0,0 0,0 0,-1 0,0 0,-1 1,-1 0,0 1,-1 1,-1l0 -1 1 0 0 1c0,0 1,1 1,1 0,0 1,1 1,2l-2 0c0,-1 0,-1 0,-1 0,0 0,-1 -1,-1 0,0 0,0 0,1 0,0 0,0 0,0 0,0 0,1 0,1 0,0 0,0 1,0 0,0 0,1 0,1 1,0 1,0 1,0 0,0 0,0 0,1 0,0 0,0 0,0 0,1 0,1 0,2 0,0 -1,0 -1,0l0 1 -1 0 0 -1c-1,0 -1,0 -2,0 0,-1 0,-1 0,-2l1 0c0,0 0,1 1,1 0,0 0,0 0,0 1,0 1,0 1,0 0,0 0,0 0,-1z"/>
     </g>
    </g>
    <path class="fil47" d="M107 7l-1 2 -5 0 -2 -2 8 0zm0 15l-8 0 2 -2 5 0 1 2zm-7 -6l0 4 -1 2 0 -7 0 0 1 1zm6 -3l0 -4 2 -2 0 7 -1 0 -1 -1zm0 1l1 1 -1 0 -6 0 0 0 0 -1 6 0z"/>
    <path id="1" class="fil47" d="M119 7l-2 2 -5 0 -1 -2 8 0zm0 15l-8 0 1 -2 5 0 2 2zm-9 -8l0 -7 2 2 0 4 -1 1 -1 0zm9 1l0 7 -1 -2 0 -4 1 -1 0 0zm-2 -1l1 1 -1 0 -5 0 -1 0 1 -1 5 0z"/>
    <path id="2" class="fil47" d="M130 14l0 0 -1 -1 0 -4 1 -2 0 7zm0 -7l-1 2 -6 0 -1 -2 8 0zm-7 6l-1 1 0 0 0 -7 1 2 0 4zm7 9l-1 -2 0 -4 1 -1 0 0 0 7zm0 0l-8 0 1 -2 6 0 1 2zm-7 -2l-1 2 0 -7 0 0 1 1 0 4z"/>
    <path class="fil47" d="M111 55l0 6 -2 -2 0 -4 1 -1 1 1zm-2 -3l0 -4 2 -1 0 6 -1 0 -1 -1z"/>
    <path id="1" class="fil47" d="M123 46l-2 2 -5 0 -2 -2 9 0zm0 15l-9 0 2 -1 5 0 2 1zm-7 -6l0 4 -2 2 0 -6 1 -1 1 1zm-2 -2l0 -6 2 1 0 4 -1 1 -1 0zm9 2l0 6 -2 -2 0 -4 1 -1 1 1zm-2 -2l0 -5 2 -1 0 6 -1 0 -1 0zm0 0l1 1 -1 1 -5 0 -1 -1 1 -1 5 0z"/>
    <path id="2" class="fil47" d="M134 46l-2 2 -5 0 -1 -2 8 0zm0 15l-8 0 1 -1 5 0 2 1zm-9 -8l0 -6 2 1 0 4 -1 1 -1 0zm9 2l0 6 -1 -2 0 -4 1 -1 0 1zm-1 -2l0 1 0 1 -6 0 -1 -1 1 -1 6 0z"/>
   </g>
   <rect class="fil13" width="163" height="191"/>
  </g>
 </g>
</svg>
