<?xml version="1.0" encoding="UTF-8"?>
<!DOCTYPE svg PUBLIC "-//W3C//DTD SVG 1.1//EN" "http://www.w3.org/Graphics/SVG/1.1/DTD/svg11.dtd">
<!-- Creator: CorelDRAW X7 -->
<svg xmlns="http://www.w3.org/2000/svg" xml:space="preserve" width="223px" height="208px" version="1.1" style="shape-rendering:geometricPrecision; text-rendering:geometricPrecision; image-rendering:optimizeQuality; fill-rule:evenodd; clip-rule:evenodd"
viewBox="0 0 386 359"
 xmlns:xlink="http://www.w3.org/1999/xlink">
 <defs>
  <style type="text/css">
   <![CDATA[
    .str1 {stroke:#373435;stroke-width:1.55618}
    .str4 {stroke:#6E3614;stroke-width:0.671896}
    .str2 {stroke:#373435;stroke-width:0.671896}
    .str5 {stroke:#6E3614;stroke-width:0.671896}
    .str3 {stroke:#373435;stroke-width:0.671896}
    .str0 {stroke:#FEFEFE;stroke-width:1.354}
    .fil5 {fill:none}
    .fil2 {fill:#D2D3D5}
    .fil3 {fill:#4B4B4D}
    .fil4 {fill:#F58634}
    .fil8 {fill:#0098DA}
    .fil1 {fill:black}
    .fil10 {fill:#1672A5}
    .fil6 {fill:#D8A182}
    .fil9 {fill:#E09200}
    .fil7 {fill:#EDA57F}
    .fil0 {fill:url(#id0)}
   ]]>
  </style>
  <linearGradient id="id0" gradientUnits="userSpaceOnUse" x1="190.281" y1="162.591" x2="51.0518" y2="314.87">
   <stop offset="0" style="stop-opacity:1; stop-color:#1CC8EB"/>
   <stop offset="0.631373" style="stop-opacity:1; stop-color:#0E96E0"/>
   <stop offset="1" style="stop-opacity:1; stop-color:#0063D4"/>
  </linearGradient>
 </defs>
 <g id="Layer_x0020_1">
  <metadata id="CorelCorpID_0Corel-Layer"/>
  <g id="_642164584">
   <g>
    <g>
     <path class="fil0 str0" d="M6 183c63,-1 126,0 189,0 9,-10 24,-44 44,-32 2,2 1,7 1,7 0,0 -8,0 -14,2 -12,3 -78,147 -89,168 0,0 1,1 -10,1 -11,0 -110,0 -110,0l11 -10 101 0 8 -20 -113 0c0,0 -9,1 -11,-6 -2,-7 -12,-102 -12,-102 0,0 -2,-8 5,-8zm127 95c0,0 12,0 12,0 0,1 -4,10 -4,10l-12 -1c0,0 3,-9 4,-9 0,0 0,0 0,0zm15 -31c0,0 12,-1 12,0 0,1 -10,25 -10,25l-13 -1c0,0 9,-24 10,-24 1,0 1,0 1,0zm12 -27c0,0 14,-1 14,0 0,0 -10,21 -10,21l-14 0c0,0 8,-21 9,-21 1,0 1,0 1,0zm11 -25c0,0 14,-1 14,0 0,1 -8,19 -8,19l-15 -1c0,0 7,-18 8,-18 1,0 1,0 1,0zm-58 83c0,0 16,0 16,0 0,1 -4,10 -4,10l-13 0c0,0 0,-10 0,-10 1,0 1,0 1,0zm8 -31c0,0 21,-1 21,0 0,0 -9,24 -9,24l-18 0c0,0 5,-24 5,-24 0,0 1,0 1,0zm6 -27c0,0 27,-1 27,0 0,0 -9,21 -9,21l-24 0c0,0 6,-21 6,-21 0,0 0,0 0,0zm37 -25c0,1 -7,19 -7,19l-28 0c0,0 5,-19 5,-19 4,0 30,-1 30,0zm-74 83c0,0 20,0 20,0 0,1 -3,10 -3,10l-18 0c0,0 0,-10 1,-10 0,0 0,0 0,0zm3 -31c0,0 23,-1 23,0 0,1 -5,25 -5,25l-20 0c0,0 2,-25 2,-25 0,0 0,0 0,0zm3 -27c0,0 27,-1 27,0 0,0 -5,21 -5,21l-24 0c0,0 2,-21 2,-21 0,0 0,0 0,0zm32 -25c0,1 -4,19 -4,19l-27 0c0,0 1,-19 2,-19 3,0 29,-1 29,0zm-64 83c0,0 21,0 21,0 0,1 -1,10 -1,10l-21 0c0,0 -1,-10 0,-10 1,0 1,0 1,0zm-37 0l6 0 -1 9 -4 0 -2 -9 1 0zm-3 -30l9 0 -1 24 -7 0 -2 -24 1 0zm-4 -28l13 0 -1 21 -11 0 -2 -21 1 0zm17 58c0,0 21,0 21,0 0,1 0,10 0,10l-22 0c0,0 -1,-10 0,-10 1,0 1,0 1,0zm0 -31c0,0 23,-1 23,0 0,1 0,25 0,25l-24 0c0,0 -1,-25 0,-25 1,0 1,0 1,0zm0 -27c0,0 24,-1 24,0 0,1 0,21 0,21l-25 0c0,0 -1,-21 0,-21 1,0 1,0 1,0zm28 27c0,0 23,-1 23,0 0,1 -2,25 -2,25l-22 0c0,0 0,-25 0,-25 1,0 1,0 1,0zm3 -27c0,0 24,-1 24,0 0,0 -1,21 -1,21l-26 0c0,0 1,-21 2,-21 1,0 1,0 1,0zm0 -25c0,0 26,-1 26,0 0,1 -1,19 -1,19l-26 0c0,0 -1,-19 0,-19 1,0 1,0 1,0zm-31 0c0,0 27,-1 27,0 0,1 0,19 0,19l-28 0c0,0 -1,-19 0,-19 1,0 1,0 1,0zm-20 0l15 0 0 19 -15 0 -2 -19 2 0z"/>
     <circle class="fil1" cx="32" cy="337" r="19"/>
     <circle class="fil1 str1" cx="134" cy="337" r="19"/>
     <circle class="fil2" cx="32" cy="337" r="11"/>
     <circle class="fil2 str1" cx="134" cy="337" r="11"/>
     <circle class="fil3" cx="32" cy="337" r="6"/>
     <circle class="fil3" cx="134" cy="337" r="6"/>
     <path class="fil4" d="M213 156l12 9c0,0 1,-6 11,-7 10,-1 11,1 11,-2 0,-2 0,-6 -1,-8 -2,-2 -11,-2 -18,0 -7,2 -15,8 -15,8z"/>
    </g>
    <rect class="fil5" x="2" width="384" height="359"/>
   </g>
   <g>
    <path class="fil6" d="M321 49l8 11c0,0 8,-6 8,-6 1,0 -1,-7 -2,-7 0,0 -6,-4 -6,-4l-7 4 -1 2z"/>
    <g>
     <polygon class="fil7" points="356,296 365,304 373,297 363,290 "/>
     <path class="fil7" d="M253 139c0,0 -1,0 -7,3 -7,2 -12,4 -10,-1 1,-6 10,-9 13,-10 2,0 2,0 2,0l2 8 0 0z"/>
     <path class="fil7" d="M253 142l3 7c0,0 -8,4 -10,6 -3,1 -5,1 -6,2 -2,1 -4,0 -3,-3 0,-4 3,-7 8,-9 5,-2 8,-3 8,-3z"/>
     <polygon class="fil7" points="303,310 303,320 313,321 313,309 "/>
     <path class="fil8 str2" d="M300 312l15 -1c0,0 1,-23 1,-29 0,-6 -1,-23 -1,-26 0,-2 -6,-29 -3,-40 2,-10 9,-37 9,-37l-23 -4c0,0 -11,39 -10,62 0,23 9,46 10,54 1,9 2,21 2,21z"/>
     <path class="fil8 str3" d="M300 168c0,0 -5,16 -6,21 0,4 -5,27 -3,37 1,9 0,11 12,22 12,11 38,37 38,37l14 15 12 -12c0,0 -10,-12 -16,-20 -6,-9 -23,-29 -23,-29 0,0 -8,-7 -9,-9 -1,-2 0,-3 5,-15 6,-11 14,-27 17,-35 3,-9 2,-12 2,-10 0,1 -43,-2 -43,-2z"/>
     <path class="fil9 str4" d="M251 130c0,0 3,0 7,-2 4,-2 34,-16 34,-16l11 -4c0,0 0,-1 0,-2 0,-2 -4,-8 -1,-16 3,-8 11,-14 14,-17 2,-4 6,-10 7,-12 1,-1 2,-3 2,-3l5 -3 7 -2c0,0 3,4 4,8 1,4 3,7 3,14 0,7 -3,30 -4,33 -1,3 -3,8 -3,12 1,4 4,13 4,13 0,0 2,8 3,10 1,3 2,14 2,17 -1,4 -1,11 -1,11 0,0 -4,1 -9,1 -4,0 -21,0 -26,0 -4,-1 -8,-2 -10,-2 -1,1 -3,0 -3,0 0,0 1,-14 3,-20 2,-5 3,-15 4,-16 0,0 0,-1 0,-1l2 -15c0,0 -28,12 -34,15 -6,2 -18,7 -18,7l-3 -10z"/>
     <path class="fil10" d="M369 294c0,0 4,1 10,5 5,4 5,7 3,9 -2,2 -6,4 -8,8 -3,4 -4,5 -4,7 0,3 -4,7 -7,9 -3,2 -6,4 -10,3 -5,-1 -4,-4 -3,-6 1,-2 5,-4 6,-8 2,-5 4,-14 4,-16 0,-1 -1,-3 0,-4 1,-1 5,-3 7,-4 2,-1 2,-3 2,-3z"/>
     <path class="fil10" d="M302 317c0,0 2,2 4,3 3,0 7,-1 9,0 1,0 2,3 3,6 0,2 1,8 0,9 -2,1 -2,3 -7,3 -5,0 -7,-2 -10,0 -4,1 -4,4 -8,5 -4,1 -9,1 -12,-1 -4,-1 -6,-4 -7,-7 -1,-3 2,-3 6,-3 3,-1 11,-5 15,-8 4,-3 7,-7 7,-7z"/>
     <path class="fil7" d="M308 48c0,0 0,5 1,5 1,1 10,0 12,-1 1,0 4,-1 5,-4 0,-2 0,-10 -2,-15 -2,-4 -2,-4 -6,-6 -5,-1 -9,0 -10,-2 -1,-2 -7,-3 -7,-3 0,0 0,3 0,5 1,2 0,3 2,4 1,1 1,3 0,4 0,1 -2,3 -2,4 0,2 1,2 2,2 1,0 3,0 3,1 0,0 2,6 2,6z"/>
     <path class="fil1" d="M301 21c0,0 3,5 7,6 4,2 10,0 12,3 2,4 5,8 4,13 -1,5 7,9 8,11 2,2 7,7 7,7 0,0 -2,-8 -1,-8 1,0 0,0 4,-2 4,-2 4,-4 6,-6 3,-3 5,-17 3,-22 -2,-5 -10,-17 -17,-20 -8,-3 -16,0 -24,4 -7,5 -9,9 -10,10 -1,2 0,8 0,10 0,1 1,3 1,3 1,1 2,1 2,1 0,0 -1,-1 -2,-4 0,-3 0,-6 0,-6z"/>
     <path class="fil9 str5" d="M256 151c0,0 23,-9 27,-10 5,-2 17,-5 18,-6 2,-1 15,-10 17,-12 2,-3 10,-16 11,-19 2,-3 6,-13 7,-16 1,-4 3,-12 2,-17 0,-4 0,-6 -2,-6 -1,0 -8,2 -11,6 -3,5 -10,19 -12,23 -1,5 -6,14 -6,14 0,0 -2,9 -4,11 -2,1 -37,18 -37,18 0,0 -14,6 -14,6 0,-1 4,5 4,6 0,1 -1,2 0,2z"/>
    </g>
    <path class="fil1" d="M346 18c0,0 8,3 8,26 1,24 -1,23 -1,30 0,7 -5,30 -4,33 1,2 -1,8 -1,8l-1 -15 -5 19c0,0 7,-11 1,-32 -5,-20 -8,-37 -8,-43 -1,-5 0,-14 0,-14l11 -12z"/>
   </g>
  </g>
 </g>
</svg>
