<?xml version="1.0" encoding="UTF-8"?>
<!DOCTYPE svg PUBLIC "-//W3C//DTD SVG 1.1//EN" "http://www.w3.org/Graphics/SVG/1.1/DTD/svg11.dtd">
<!-- Creator: CorelDRAW X7 -->
<svg xmlns="http://www.w3.org/2000/svg" xml:space="preserve" width="auto" height="55px" version="1.1" style="shape-rendering:geometricPrecision; text-rendering:geometricPrecision; image-rendering:optimizeQuality; fill-rule:evenodd; clip-rule:evenodd"
viewBox="0 0 118 128"
 xmlns:xlink="http://www.w3.org/1999/xlink">
 <defs>
  <style type="text/css">
   <![CDATA[
    .fil35 {fill:#688606;fill-rule:nonzero}
    .fil21 {fill:#6D6646;fill-rule:nonzero}
    .fil26 {fill:#70431C;fill-rule:nonzero}
    .fil34 {fill:#89B61E;fill-rule:nonzero}
    .fil5 {fill:#9B6E09;fill-rule:nonzero}
    .fil28 {fill:#CC5640;fill-rule:nonzero}
    .fil14 {fill:#D1B17D;fill-rule:nonzero}
    .fil9 {fill:#D89503;fill-rule:nonzero}
    .fil6 {fill:#E82500;fill-rule:nonzero}
    .fil24 {fill:#E87457;fill-rule:nonzero}
    .fil18 {fill:#E9936E;fill-rule:nonzero}
    .fil19 {fill:#E9CAE5;fill-rule:nonzero}
    .fil2 {fill:#EE4F00;fill-rule:nonzero}
    .fil16 {fill:#F17900;fill-rule:nonzero}
    .fil15 {fill:#F1CECE;fill-rule:nonzero}
    .fil4 {fill:#F3AC1A;fill-rule:nonzero}
    .fil22 {fill:#F69F9F;fill-rule:nonzero}
    .fil13 {fill:#F8AA1D;fill-rule:nonzero}
    .fil1 {fill:#FBE777;fill-rule:nonzero}
    .fil7 {fill:#FF462D;fill-rule:nonzero}
    .fil29 {fill:#FF5400;fill-rule:nonzero}
    .fil30 {fill:#FF722B;fill-rule:nonzero}
    .fil17 {fill:#FF8C26;fill-rule:nonzero}
    .fil33 {fill:#FF9933;fill-rule:nonzero}
    .fil25 {fill:#FFA491;fill-rule:nonzero}
    .fil31 {fill:#FFB38C;fill-rule:nonzero}
    .fil10 {fill:#FFC24A;fill-rule:nonzero}
    .fil0 {fill:#FFC443;fill-rule:nonzero}
    .fil8 {fill:#FFC4CB;fill-rule:nonzero}
    .fil32 {fill:#FFC7B0;fill-rule:nonzero}
    .fil11 {fill:#FFE8E8;fill-rule:nonzero}
    .fil20 {fill:#FFE8FC;fill-rule:nonzero}
    .fil3 {fill:#FFEF97;fill-rule:nonzero}
    .fil27 {fill:#FFF4EF;fill-rule:nonzero}
    .fil23 {fill:#FFF8CC;fill-rule:nonzero}
    .fil36 {fill:#FFFFC1;fill-rule:nonzero}
    .fil12 {fill:white;fill-rule:nonzero}
   ]]>
  </style>
 </defs>
 <g id="Layer_x0020_1">
  <metadata id="CorelCorpID_0Corel-Layer"/>
  <g id="_843987952">
   <g>
    <path class="fil0" d="M19 31c0,0 17,14 25,20 8,6 17,12 18,12 1,-1 0,-27 0,-29 -1,-2 -1,-14 -1,-18 0,-4 -1,-6 -1,-7 -1,-2 -12,-4 -20,1 -8,5 -22,14 -21,21z"/>
    <path class="fil1" d="M23 33c0,0 14,11 21,17 7,5 15,10 16,10 1,-1 0,-24 0,-26 -1,-2 -1,-13 -1,-16 0,-3 -1,-6 -1,-7 -1,-1 -9,0 -16,5 -7,4 -18,11 -19,17z"/>
    <path class="fil2" d="M60 9c0,0 0,0 0,0 -1,0 -1,0 -1,0 0,0 0,0 0,0 0,0 0,0 0,0 0,-1 -1,-1 -1,-1 -1,0 -1,1 -2,1 0,0 -1,0 -1,0 -2,0 -3,0 -5,1 -1,0 -2,1 -3,1 -1,0 -2,1 -2,1 -1,0 -2,1 -3,2 -1,1 -2,1 -3,2 -1,0 -2,1 -3,2 -2,1 -3,1 -4,2 -3,1 -4,3 -6,5 -1,1 -2,2 -3,3 -1,1 -1,1 -2,2 0,0 -1,0 -1,1 0,0 0,1 0,1 1,0 3,-2 3,-2 1,-1 2,-2 3,-3 0,0 0,0 0,0 0,0 0,0 0,0 1,0 1,1 1,0 0,0 0,0 0,0 0,0 0,0 0,0 0,0 0,0 0,0 0,-1 0,-1 0,-1 0,0 0,0 0,0 0,0 0,0 0,0 0,0 0,0 0,0 1,-1 1,-2 2,-3 1,-1 2,-2 4,-2 1,-1 2,-1 3,-2 1,0 2,-1 3,-2 1,0 1,-1 2,-1 0,0 0,0 0,0 0,0 0,1 0,1 0,0 0,0 0,0 1,0 1,0 1,0 0,0 0,0 1,-1 0,0 -1,0 -1,-1 0,0 1,0 1,0 0,0 1,-1 1,-1 1,1 2,0 3,0 0,0 0,-1 1,-1 0,0 0,-1 0,-1 2,0 3,-1 4,-1 1,0 3,0 5,0 1,0 2,0 3,-1 0,0 0,0 0,-1z"/>
    <path class="fil2" d="M49 13c0,0 0,0 0,0 0,0 0,0 0,0 0,0 0,-1 -1,0 0,0 0,0 0,0 0,0 0,0 0,0 0,0 0,0 0,0 0,0 0,0 0,0 0,1 0,1 0,1 1,0 1,0 1,0 0,-1 1,-1 0,-1z"/>
    <path class="fil2" d="M24 30c0,0 -1,0 -1,0 0,0 0,0 0,1 0,0 0,0 0,0 0,0 0,0 0,0 0,0 0,0 0,0 1,0 1,0 1,0 0,0 0,0 0,-1z"/>
    <path class="fil3" d="M24 32c0,0 4,-4 5,-5 2,-2 11,-6 12,-7 1,-2 6,-4 8,-5 3,-1 7,-1 8,0 0,0 2,8 1,11 -1,3 0,16 1,20 0,4 0,8 -1,9 -1,1 -8,-4 -10,-5 -2,-2 -7,-7 -9,-8 -2,-2 -12,-6 -15,-10z"/>
    <path class="fil0" d="M46 23c-2,-3 -5,-5 -8,-4 0,1 0,1 0,1 2,0 3,0 4,1 2,1 2,2 3,4 0,3 -1,6 -3,7 -2,1 -3,2 -5,2 -1,0 -3,0 -4,-1 -1,-1 -2,-2 -3,-3 0,-2 0,-3 0,-5 0,0 0,0 0,0 -2,2 -1,5 1,7 1,2 4,4 7,3 3,0 5,-2 7,-4 1,-3 2,-6 1,-8z"/>
    <path class="fil0" d="M60 24c-4,0 -9,3 -9,8 0,5 5,8 9,8 1,0 1,-1 0,-1 -4,0 -7,-3 -8,-7 0,-2 1,-4 3,-5 1,-1 3,-2 5,-2 1,-1 1,-1 0,-1z"/>
    <path class="fil0" d="M52 44c-4,-3 -11,-2 -13,2 -1,0 0,1 0,0 2,-1 3,-2 5,-2 2,-1 5,0 6,1 2,1 4,2 4,4 0,2 0,3 -1,4 0,1 0,2 -1,3 0,0 0,0 1,0 1,1 1,-1 1,-2 1,-1 1,-2 1,-4 0,-2 -1,-5 -3,-6z"/>
    <path class="fil0" d="M34 38c-1,-1 -2,-1 -3,-1 0,0 -1,0 -1,0 -1,0 -1,0 -1,1 0,0 0,0 0,0 0,1 1,0 1,0 1,0 2,0 3,0 2,1 1,4 1,5 0,1 1,1 2,1 0,-3 0,-5 -2,-6z"/>
    <path class="fil0" d="M60 19c-1,-1 -3,-2 -3,-3 0,-1 0,-2 1,-3 0,0 1,-1 1,-1 1,-1 0,-1 0,-1 -2,1 -3,3 -3,5 0,2 2,3 4,4 0,1 1,0 0,-1z"/>
    <path class="fil4" d="M14 27c0,-1 5,-10 16,-17 12,-8 25,-11 29,-10 4,2 3,9 1,10 -1,1 -8,0 -9,0 -1,0 -10,4 -12,6 -2,2 -5,4 -8,5 -1,0 -6,5 -8,7 -1,2 -2,3 -4,4 -1,0 -5,-2 -5,-5z"/>
    <g>
     <path class="fil5" d="M48 33c0,0 0,2 1,2 0,0 0,-2 0,-2 0,0 -1,0 -1,0z"/>
     <path class="fil5" d="M27 34c0,0 1,2 1,2 0,0 1,-2 1,-2 0,0 -1,0 -2,0z"/>
     <path class="fil5" d="M40 37c0,0 1,0 2,0 0,0 -1,3 -2,3 0,0 0,0 0,0 0,0 0,-3 0,-3z"/>
     <path class="fil5" d="M53 42c0,0 0,0 0,1 0,0 2,-1 2,-1 0,0 0,-1 0,-1 -1,0 -2,1 -2,1z"/>
     <path class="fil5" d="M49 27c0,0 0,-1 0,-1 1,0 3,-1 3,0 0,0 0,1 0,1 0,0 -2,0 -3,0z"/>
     <path class="fil5" d="M53 23c0,0 0,-1 0,-1 0,-1 3,-1 3,-1 0,1 -3,2 -3,2z"/>
     <path class="fil5" d="M25 32c0,0 -1,-1 -1,-1 0,-1 2,-2 2,-2 0,1 -1,3 -1,3z"/>
     <path class="fil5" d="M47 17c0,0 0,1 1,1 0,0 2,-1 2,-1 0,0 0,-1 -1,-1 0,0 -2,1 -2,1z"/>
     <path class="fil5" d="M53 13c0,0 -1,1 -1,1 0,0 2,0 2,0 0,0 0,0 0,0 0,0 -1,-1 -1,-1z"/>
     <path class="fil5" d="M56 52c0,0 1,0 2,-1 0,0 0,1 0,1l-1 1 -1 -1z"/>
     <path class="fil5" d="M58 58c0,0 0,-1 0,-1 1,0 2,1 2,1l-1 0c0,0 -1,0 -1,0z"/>
     <path class="fil5" d="M59 46c0,0 -1,0 0,1 0,0 2,0 2,0l0 -2c0,0 -2,0 -2,1z"/>
     <path class="fil5" d="M38 44c0,1 -1,0 -1,0l1 -1c0,0 0,1 0,1z"/>
    </g>
    <g>
     <path class="fil6" d="M39 47c0,0 3,-6 11,-3 7,2 4,11 2,13l-13 -10z"/>
     <path class="fil7" d="M41 48c0,0 -1,-1 0,-2 1,-1 4,-3 8,-1 5,1 4,6 3,9 0,1 -1,1 -2,1l-9 -7z"/>
     <path class="fil8" d="M46 48c0,-1 3,0 2,2 -1,2 -3,-1 -2,-2z"/>
     <path class="fil8" d="M52 48c1,-1 1,1 0,2 -1,1 -1,-2 0,-2z"/>
     <path class="fil8" d="M48 46c1,-1 -1,-2 -2,-1 -2,1 1,2 2,1z"/>
     <path class="fil8" d="M41 46c1,0 1,1 0,1 0,0 0,-1 0,-1z"/>
     <path class="fil8" d="M51 53c1,-1 2,1 1,2 -1,0 -2,-2 -1,-2z"/>
    </g>
    <g>
     <path class="fil6" d="M62 24c0,0 -9,0 -10,8 0,7 8,8 10,7 0,0 0,-12 0,-15z"/>
     <path class="fil7" d="M61 27c0,-1 -1,-2 -2,-2 -2,1 -6,2 -6,7 0,5 4,6 7,6 0,0 1,0 1,-1 0,-2 0,-7 0,-10z"/>
     <path class="fil8" d="M55 33c2,-1 3,3 2,3 -1,1 -3,-2 -2,-3z"/>
     <path class="fil8" d="M59 27c1,-1 1,3 0,3 -2,0 -2,-3 0,-3z"/>
     <path class="fil8" d="M59 33c1,0 3,2 2,4 -2,1 -3,-3 -2,-4z"/>
     <path class="fil8" d="M60 31c0,1 1,0 1,0 0,-1 -1,-1 -1,0z"/>
     <path class="fil8" d="M55 29c0,0 0,1 0,2 -1,0 -1,-2 0,-2z"/>
    </g>
    <g>
     <path class="fil6" d="M28 38c0,0 4,-1 6,0 2,2 1,6 1,6 0,0 -5,-4 -7,-6z"/>
     <path class="fil7" d="M29 39c0,0 0,0 0,-1 1,0 3,-1 5,1 1,1 1,2 0,3 0,1 0,1 0,1 -1,-1 -4,-3 -5,-4z"/>
     <path class="fil8" d="M31 39c0,-1 2,-1 2,0 0,1 -3,0 -2,0z"/>
     <path class="fil8" d="M33 41c0,0 1,0 1,-1 0,0 -1,0 -1,1z"/>
    </g>
    <g>
     <path class="fil6" d="M33 21c3,-3 8,-3 11,1 4,4 0,10 -3,12 -2,1 -8,1 -10,-3 -3,-4 -2,-7 2,-10z"/>
     <path class="fil7" d="M33 21c3,-2 8,-2 11,1 2,4 -1,9 -3,10 -2,2 -7,1 -9,-2 -3,-3 -2,-6 1,-9z"/>
     <path class="fil8" d="M37 32c0,1 3,1 2,0 0,-2 -2,-2 -2,0z"/>
     <path class="fil8" d="M41 29c1,0 2,-3 0,-3 -2,0 -2,3 0,3z"/>
     <path class="fil8" d="M38 22c2,0 2,2 0,2 -1,1 -1,-2 0,-2z"/>
     <path class="fil8" d="M35 28c2,0 0,-4 -2,-3 -2,0 0,4 2,3z"/>
     <path class="fil8" d="M37 29c-1,0 -1,-1 1,-1 1,0 0,1 -1,1z"/>
    </g>
    <g>
     <path class="fil6" d="M61 10c0,0 -5,2 -5,6 1,3 5,4 5,4 0,0 0,-7 0,-10z"/>
     <path class="fil7" d="M60 13c0,-1 -1,-1 -1,0 -1,0 -2,1 -2,3 0,1 1,2 2,3 1,0 2,-1 2,-1 0,-2 0,-3 -1,-5z"/>
     <path class="fil8" d="M60 18c0,-1 1,0 1,1 -1,0 -2,0 -1,-1z"/>
     <path class="fil8" d="M58 16c1,1 2,1 1,-1 0,-1 -1,0 -1,1z"/>
     <path class="fil8" d="M59 12c0,0 1,1 1,1 -1,1 -1,0 -1,-1z"/>
    </g>
    <g>
     <g>
      <g>
       <g>
        <path class="fil9" d="M51 10c0,0 0,0 0,0 0,0 0,0 1,-1 0,0 0,0 0,0 0,0 0,0 0,0 0,0 0,-1 0,-1 0,0 0,0 0,0 0,0 0,-1 0,-1 0,0 0,0 0,0 0,0 0,-1 0,-1 0,0 0,0 0,0 0,0 0,-1 0,-1 0,0 0,0 0,0 0,0 0,0 0,0 0,0 0,-1 0,-1 0,0 0,1 0,1 0,0 0,0 0,0 0,0 0,0 0,0 0,0 0,0 0,1 0,0 0,0 0,0 0,0 1,0 1,1 0,0 0,0 0,0 0,0 0,1 -1,1 0,0 0,0 0,0 0,1 0,1 0,1 0,0 0,0 0,0 0,0 0,0 0,1 0,0 0,0 0,0 -1,0 -1,0 -1,0z"/>
       </g>
      </g>
     </g>
    </g>
    <g>
     <g>
      <g>
       <g>
        <path class="fil9" d="M40 16c0,0 0,0 0,-1 0,0 0,0 0,0 0,0 -1,0 -1,0 0,0 0,0 0,-1 0,0 0,0 0,0 0,0 0,0 0,0 0,0 0,0 0,-1 0,0 0,0 0,0 0,0 -1,0 -1,0 0,0 0,0 0,0 0,-1 0,-1 0,-1 0,0 0,0 0,0 0,0 0,0 0,0 0,0 0,0 1,0 0,0 0,0 0,0 0,1 0,1 0,1 0,0 0,0 0,0 0,0 1,0 1,0 0,1 0,1 0,1 0,0 0,0 0,0 0,0 0,0 0,1 0,0 0,0 0,0 0,0 0,0 0,0 0,1 0,1 0,1z"/>
       </g>
      </g>
     </g>
    </g>
    <g>
     <g>
      <g>
       <g>
        <path class="fil9" d="M30 21c0,0 0,0 0,0 0,0 -1,0 -1,0 0,0 0,0 0,0 0,0 0,0 0,0 0,-1 -1,-1 -1,-1 0,0 0,0 0,0 0,0 0,0 0,0 -1,0 -1,0 -1,0 0,-1 0,-1 0,-1 0,0 0,0 0,0 0,0 0,0 0,0 0,-1 -1,-1 -1,-1 0,0 0,0 0,0 0,0 0,0 0,0 0,0 0,0 1,0 0,0 0,0 0,0 0,0 0,0 0,0 0,0 0,0 0,1 0,0 0,0 0,0 1,0 1,0 1,0 0,0 0,0 0,0 0,0 0,0 0,1 0,0 1,0 1,0 0,0 0,0 0,0 0,0 0,0 0,0 0,0 0,0 0,0 1,0 1,0 1,1 0,0 0,0 0,0z"/>
       </g>
      </g>
     </g>
    </g>
    <g>
     <g>
      <g>
       <g>
        <path class="fil9" d="M16 28c0,0 0,0 0,0 0,0 0,0 0,0 0,0 1,0 1,1 0,0 0,0 0,0 0,0 0,0 0,0 1,0 1,0 1,0 0,0 0,0 0,0 1,0 1,0 1,0 0,0 0,0 0,0 0,0 1,0 1,0 0,1 0,1 0,1 0,0 0,0 1,0 0,0 0,0 0,0 0,0 0,0 0,0 0,0 0,0 0,0 0,0 0,0 0,0 -1,0 -1,0 -1,0 0,0 0,0 0,0 0,0 -1,0 -1,0 0,0 0,0 0,0 0,0 -1,0 -1,0 0,0 0,0 0,0 -1,0 -1,0 -1,-1 0,0 0,0 0,0 0,0 -1,0 -1,0 0,0 0,0 0,0 0,0 0,-1 0,-1 0,0 0,0 0,0z"/>
       </g>
      </g>
     </g>
    </g>
    <path class="fil1" d="M49 41c-3,0 -4,-2 -4,-3 1,-1 5,-2 7,0 2,1 0,4 -3,3z"/>
    <path class="fil1" d="M48 32c-3,0 -3,-2 -2,-3 1,-1 5,-1 5,1 0,1 -2,2 -3,2z"/>
    <path class="fil1" d="M36 39c-1,0 2,-3 3,-4 1,0 1,3 0,3 -1,1 -2,2 -3,1z"/>
    <path class="fil10" d="M21 29c-1,0 -5,0 -5,-3 -1,-2 5,-8 7,-8 2,-1 5,2 5,3 -1,2 -5,8 -7,8l0 0z"/>
    <path class="fil10" d="M57 9c-2,0 -4,0 -4,-1 0,-1 -1,-4 1,-5 3,-1 6,-1 7,1 1,2 0,4 -1,5 -1,0 -2,0 -3,0z"/>
    <path class="fil10" d="M50 6c0,-1 -4,-2 -7,-1 0,0 0,0 0,0 -2,0 -11,4 -14,8 -1,0 -1,0 -1,1 -2,2 -1,4 0,5 1,1 4,1 6,0 1,-1 3,-2 4,-4 0,0 0,0 0,0l0 0c0,0 0,-2 -1,-3 0,0 0,0 0,0 -1,-1 0,-1 1,0 2,2 5,1 8,-1 3,-1 5,-3 4,-5z"/>
    <path class="fil0" d="M45 33c0,0 0,0 -1,0 0,0 0,0 0,0 -1,1 -1,1 -1,1 0,0 0,1 0,1 1,0 1,-1 1,-1 1,0 1,-1 1,-1z"/>
    <path class="fil0" d="M46 28c0,0 0,0 0,0 0,0 0,1 0,1 0,0 1,0 1,0 0,0 0,0 0,0 0,-1 0,-1 -1,-1z"/>
    <path class="fil0" d="M45 41c-1,0 -1,0 -2,0 0,0 0,1 1,1 0,0 0,0 1,0 0,0 0,-1 0,-1z"/>
    <path class="fil0" d="M51 36c0,0 0,0 0,0 0,-1 0,-1 -1,0 0,0 0,0 0,0 0,0 0,0 0,0 1,0 1,0 1,0 0,0 0,0 0,0 0,0 0,0 0,0z"/>
    <path class="fil0" d="M31 35c0,0 0,0 0,0 0,0 0,0 0,0 0,1 0,1 0,1 0,0 0,0 1,0 0,0 0,-1 -1,-1z"/>
    <path class="fil0" d="M53 15c-1,-1 -1,0 -2,0 0,0 0,0 0,0 0,1 1,1 1,1 0,0 1,-1 1,-1 0,0 0,0 0,0z"/>
    <path class="fil0" d="M51 13c-1,0 -1,1 0,1 0,-1 0,-1 0,-1z"/>
    <path class="fil0" d="M59 41c0,-1 0,-1 0,-1 0,0 0,0 0,0 -1,0 -1,0 -1,0 0,0 0,0 0,0 0,1 0,1 0,1 0,0 0,0 1,0 0,0 0,0 0,0z"/>
    <path class="fil0" d="M55 45c-1,0 -1,0 -1,1 0,0 0,0 1,1 0,0 0,0 0,1 0,0 1,0 1,0 0,-1 -1,-2 -1,-3z"/>
    <path class="fil0" d="M56 49c0,0 0,0 0,0 0,0 0,0 0,0z"/>
   </g>
   <g>
    <path class="fil0" d="M18 78c0,0 -1,0 -1,0 0,0 0,0 0,0 0,0 0,0 1,0 0,0 0,0 0,0 0,0 0,0 0,0z"/>
    <g>
     <g>
      <path class="fil0" d="M12 84c0,0 21,-6 31,-10 9,-3 18,-8 18,-9 1,-1 -22,-14 -24,-15 -2,-1 -12,-7 -16,-9 -3,-2 -5,-3 -6,-3 -2,0 -10,9 -10,18 0,9 0,26 7,28z"/>
      <path class="fil1" d="M15 82c0,0 18,-5 26,-8 8,-4 17,-8 17,-9 1,-1 -21,-13 -22,-13 -2,-1 -11,-7 -14,-8 -3,-2 -5,-3 -6,-3 -1,0 -4,8 -4,16 0,8 -1,21 3,25z"/>
      <path class="fil2" d="M16 39c0,-1 -1,-1 -1,-1 -2,2 -4,6 -5,8 0,2 -1,3 -1,5 0,1 0,3 0,5 0,1 0,3 0,4 -1,2 -1,4 -1,5 0,2 1,4 1,5 0,2 -1,3 -1,5 0,1 2,3 2,4 0,1 1,2 1,3 0,0 0,1 0,2 -1,0 0,1 1,1 1,-1 1,-3 1,-4 0,-2 -1,-4 -1,-6 0,1 0,1 0,0 0,0 0,0 0,0 0,0 0,0 0,0 0,-1 0,-1 0,-1 0,-1 0,-1 0,0 -1,-3 -1,-5 -1,-7 0,-1 0,-3 0,-4 0,-2 0,-3 0,-5 0,-2 0,-4 0,-6 0,-1 0,-3 1,-4 0,0 0,0 0,-1 0,0 0,0 0,0 0,0 0,0 0,0 1,-2 2,-5 4,-7 0,0 1,-1 0,-1z"/>
      <path class="fil3" d="M16 81c-1,0 -2,-5 -2,-8 -1,-2 1,-11 0,-13 -1,-2 0,-7 0,-10 1,-2 3,-6 4,-6 1,0 8,2 10,5 3,2 15,8 18,10 3,2 7,4 7,6 0,1 -8,4 -10,5 -2,0 -9,2 -11,3 -3,1 -12,8 -16,8z"/>
      <path class="fil4" d="M6 87c-1,-1 -6,-10 -6,-23 0,-14 4,-27 7,-30 4,-2 9,2 9,4 0,2 -4,7 -5,8 0,1 -2,11 -1,14 0,2 1,6 0,9 -1,0 1,8 2,11 1,2 1,3 1,5 -1,1 -4,3 -7,2z"/>
      <path class="fil10" d="M15 38c-1,-1 -1,-2 -3,-3 -1,0 -1,0 -2,0 -3,-1 -4,6 -6,10 -2,4 -3,12 -4,15 0,4 2,11 3,11 2,0 4,-2 4,-4 1,-3 -1,-8 -2,-9 1,0 1,0 1,0 2,-1 3,-4 4,-7 0,-2 0,-4 0,-5 0,0 0,0 0,0 -1,-1 -4,-2 -3,-3 1,-1 4,0 4,0 0,1 1,0 3,-2 0,-1 1,-2 1,-3z"/>
      <g>
       <g>
        <g>
         <g>
          <path class="fil9" d="M11 46c0,0 0,0 0,0 0,0 0,0 0,-1 0,0 -1,0 -1,0 0,0 0,0 0,0 0,0 0,0 0,0 0,0 0,0 -1,-1 0,0 0,0 0,0 0,0 0,0 0,0 0,0 -1,0 -1,0 0,0 0,0 0,0 0,0 0,0 0,-1 -1,0 -1,0 -1,0 0,0 0,0 1,0 0,0 0,0 0,0 0,0 0,0 1,0 0,0 0,0 0,0 0,0 0,1 0,1 1,0 1,0 1,0 0,0 0,0 0,0 0,0 0,0 1,1 0,0 0,0 0,0 0,0 0,0 0,0 0,0 0,1 0,1 0,0 0,0 0,0z"/>
         </g>
        </g>
       </g>
      </g>
      <g>
       <g>
        <g>
         <g>
          <path class="fil9" d="M10 59c0,0 0,0 -1,0 0,-1 0,-1 0,-1 0,0 0,0 0,0 0,0 0,0 -1,0 0,0 0,0 0,0 0,0 0,0 0,0 0,0 0,0 -1,0 0,0 0,0 0,0 0,1 0,0 0,0 0,0 0,0 -1,0 0,0 0,0 0,0 0,0 0,0 0,0 0,0 0,0 0,0 0,0 0,0 0,0 0,0 1,0 1,0 0,0 0,0 0,0 0,0 0,0 0,0 0,0 1,0 1,0 0,0 0,0 0,0 0,0 0,0 1,0 0,0 0,0 0,0 0,0 0,0 0,0 0,0 0,0 0,0 0,0 0,0 1,0 0,0 0,1 0,1z"/>
         </g>
        </g>
       </g>
      </g>
      <g>
       <g>
        <g>
         <g>
          <path class="fil9" d="M9 70c0,0 0,0 0,0 0,0 0,0 0,0 0,0 0,1 -1,1 0,0 0,0 0,0 0,0 0,0 0,0 0,0 0,0 -1,0 0,0 0,0 0,0 0,1 0,1 0,1 -1,0 -1,0 -1,0 0,0 0,0 0,0 0,0 0,0 -1,0 0,0 0,0 0,0 0,0 0,0 0,-1 0,0 0,0 0,0 0,0 0,0 0,0 0,0 0,0 0,0 0,0 0,0 0,0 0,0 1,0 1,0 0,0 0,0 0,0 0,0 0,0 0,0 1,0 1,0 1,0 0,0 0,0 0,0 0,0 0,0 1,-1 0,0 0,0 0,0 0,0 0,0 0,0 0,0 0,0 0,0 1,0 1,0 1,0 0,0 0,0 0,0z"/>
         </g>
        </g>
       </g>
      </g>
      <g>
       <g>
        <g>
         <g>
          <path class="fil9" d="M8 86c0,0 0,0 0,0 0,0 0,0 0,0 0,-1 0,-1 1,-1 0,0 0,0 0,0 0,0 0,0 0,0 0,0 1,0 1,0 0,-1 0,-1 0,-1 0,0 0,0 0,0 1,0 1,0 1,0 0,-1 0,-1 0,-1 0,0 0,0 0,0 0,0 0,0 1,0 0,0 0,-1 0,-1 0,0 0,0 0,0 0,0 0,0 0,0 0,1 0,1 0,1 0,0 0,0 0,0 0,0 0,0 0,1 -1,0 -1,0 -1,0 0,0 0,0 0,0 0,1 0,1 0,1 -1,0 -1,0 -1,0 0,0 0,0 0,0 -1,0 -1,1 -1,1 0,0 0,0 0,0 0,0 -1,0 -1,0 0,0 0,0 0,0 0,0 0,0 0,0z"/>
         </g>
        </g>
       </g>
      </g>
      <path class="fil10" d="M12 82c-1,1 -3,4 -6,3 -2,-1 -4,-9 -3,-11 0,-1 4,-3 5,-2 1,2 4,8 3,10l1 0z"/>
     </g>
     <g>
      <path class="fil0" d="M38 58c-1,0 -2,-1 -4,0 0,0 0,0 -1,1 -1,0 -1,0 -1,1 -1,0 -1,1 -1,2 -1,1 0,4 2,4 2,2 6,0 5,-3 0,-1 -1,-1 -1,-1 -1,0 -2,0 -1,-1 1,-1 1,0 2,0 0,1 1,1 1,0 2,-1 1,-2 -1,-3zm-2 6l0 0c-1,1 -2,0 -3,0 0,0 0,0 0,0 0,0 0,0 0,0 -1,-1 0,-1 0,-2 0,0 0,0 0,0 0,-1 0,-1 0,-1 1,-1 1,-1 1,-1 0,1 0,2 0,3 1,0 1,1 1,1 1,0 1,0 1,0z"/>
      <g>
       <path class="fil11" d="M35 62c0,0 2,0 2,2 0,2 -2,3 -3,1 0,0 -3,0 -2,-3 0,0 -1,-3 2,-3 1,-2 3,-1 3,-1 3,0 3,2 2,3 0,0 -2,1 -2,-1 0,0 -1,1 -2,1 0,0 1,0 0,1 0,0 0,0 0,0z"/>
       <path class="fil12" d="M36 64c1,0 0,-1 0,-1 0,0 -1,0 -1,0 -1,0 -1,0 -1,1 0,0 0,0 0,0 0,0 0,0 0,0 0,0 0,1 0,1 0,0 0,0 0,0 0,0 0,0 1,0 0,0 1,0 1,0 0,0 0,0 0,0 0,-1 0,-1 0,-1z"/>
       <path class="fil12" d="M36 58c0,0 0,0 0,0 0,0 0,0 0,0 -1,0 -1,1 -1,1 0,0 0,0 0,0 0,1 0,1 0,1 0,0 0,0 0,0 -1,-1 -1,-1 -2,0 0,0 0,0 0,0 0,0 0,0 0,0 0,1 0,1 1,1 0,0 0,0 0,0 0,0 0,0 0,0 -1,1 -1,1 -1,1 -1,1 0,2 1,2 0,-1 1,-1 1,-1 0,0 0,-1 0,-1 0,0 0,0 0,0 0,0 0,-1 0,-1 0,0 -1,0 -1,0 1,0 1,0 1,-1 0,0 0,0 0,0 0,0 1,0 1,0 0,0 0,0 0,0 1,0 1,0 1,-1 0,-1 -1,-1 -1,-1z"/>
       <g>
        <path class="fil13" d="M34 66c0,0 0,0 0,0 0,-1 -1,-1 -1,-1 0,0 0,0 0,0 0,0 0,0 0,0 0,0 0,0 0,0 0,0 0,0 0,-1 0,0 0,0 0,0 0,0 0,0 0,0 1,0 1,0 1,0 0,0 0,0 0,0 0,0 0,0 0,0 0,0 0,0 0,0 0,0 0,0 0,0 0,0 0,0 0,0 0,0 0,0 0,0 0,0 0,0 0,0 0,0 0,0 0,0 0,0 0,1 0,1 0,0 0,0 0,0 0,0 0,0 0,0 0,0 0,0 0,0 0,0 0,0 0,0 0,0 0,0 0,1 0,0 0,0 0,0z"/>
       </g>
       <g>
        <path class="fil13" d="M32 62c0,0 0,0 0,0 0,0 0,0 0,0 0,0 0,0 0,0 0,0 0,0 0,0 0,0 0,0 0,0 0,0 0,0 0,0 0,0 0,0 1,0 0,0 0,0 0,0 0,0 0,0 0,0 0,0 0,0 0,0 0,0 0,0 0,0 0,0 0,0 0,0 0,0 0,0 0,0 0,0 0,0 0,0 0,0 0,0 0,0 0,0 0,0 0,0 0,0 0,0 0,0 0,0 -1,0 -1,0 0,0 0,0 0,0 0,0 0,0 0,0 0,0 0,0 0,0 0,0 0,0 0,0 0,0 0,0 0,0z"/>
       </g>
       <g>
        <path class="fil13" d="M34 59c0,0 0,0 0,0 0,0 0,0 0,0 0,0 0,0 0,0 0,0 0,0 1,0 0,0 0,0 0,0 0,0 0,0 0,0 0,0 0,0 0,0 0,0 0,0 0,0 0,0 0,1 0,1 0,0 0,0 0,0 0,0 0,0 0,0 0,0 0,0 0,0 0,0 0,0 0,0 0,0 0,0 0,0 0,0 0,0 -1,0 0,0 0,0 0,0 0,-1 0,-1 0,-1 0,0 0,0 0,0 0,0 0,0 0,0 0,0 0,0 0,0 0,0 0,0 0,0 0,0 0,0 0,0z"/>
       </g>
       <g>
        <path class="fil13" d="M37 58c0,0 0,0 1,0 0,0 0,0 0,1 0,0 0,0 0,0 0,0 0,0 0,0 0,0 0,0 0,0 0,0 0,0 0,0 0,0 0,0 0,0 0,0 0,0 0,0 0,0 -1,0 -1,0 0,0 0,0 0,0 0,0 0,0 0,0 0,0 0,0 0,0 0,0 0,0 0,0l0 0c0,0 0,0 0,0 0,0 0,0 0,0 0,0 0,0 0,0 0,0 0,0 0,0 0,0 0,0 0,0 0,0 0,0 0,0 0,0 0,0 0,0 0,-1 0,-1 0,-1z"/>
       </g>
       <g>
        <path class="fil14" d="M37 63c0,0 0,0 0,0 0,1 0,1 0,1 0,0 0,0 0,0 0,0 0,0 0,0 0,0 0,0 0,1 0,0 0,0 0,0 0,0 0,0 0,0 0,0 0,0 -1,0 0,0 0,0 0,0 0,0 0,0 0,0 0,0 0,0 0,0 0,0 0,0 0,0 0,0 0,0 0,0 0,0 0,0 0,0 0,0 0,0 0,0 0,0 0,0 0,0 0,0 0,0 0,0 0,0 0,0 1,0 0,-1 0,-1 0,-1 0,0 0,0 0,0 0,0 0,0 0,0 0,0 0,0 0,0 0,0 0,0 0,0 0,-1 0,-1 0,-1z"/>
       </g>
       <g>
        <path class="fil15" d="M36 61c0,0 0,-1 0,-1 0,0 0,0 0,0 0,0 0,0 0,0 0,0 0,0 0,0 0,0 0,0 0,0 1,0 1,0 1,0 0,0 0,0 0,0 0,0 0,0 0,0 0,0 0,0 0,0 0,0 0,0 0,0 0,0 0,0 0,0 0,0 0,0 0,0 0,0 0,0 0,0 0,0 0,0 0,0 0,0 0,0 0,0 0,0 0,0 0,0 0,0 0,0 0,0 0,0 0,0 0,0 0,0 0,0 0,0 0,0 0,0 0,0 0,0 0,0 0,0 -1,1 -1,1 -1,1z"/>
       </g>
       <g>
        <path class="fil15" d="M35 61c0,0 0,0 0,0 0,0 0,0 0,0 0,0 0,0 0,0 0,0 0,0 0,0l0 -1 0 0c0,0 0,0 0,0 0,0 0,0 0,0 0,0 0,0 0,0 0,0 0,0 0,0 0,0 0,0 0,0 0,0 0,0 0,0 0,0 0,0 0,0 0,0 0,0 0,0 0,0 0,0 0,0 0,0 0,0 0,0 0,0 0,0 0,0 0,0 0,0 0,0 0,0 0,0 0,0 0,1 0,1 0,1 0,0 0,0 0,0 0,0 0,0 0,0z"/>
       </g>
       <g>
        <path class="fil15" d="M35 62c0,0 0,0 0,0 0,0 0,0 0,0 0,0 0,0 0,0 0,-1 0,-1 0,-1 0,0 0,0 0,0 0,0 -1,0 -1,0 0,0 0,0 0,0 0,0 0,0 0,0 0,0 0,0 0,0 0,0 0,0 0,0 0,0 0,0 0,0 0,0 0,0 0,0 0,0 0,0 0,0 0,0 0,0 0,0 0,0 0,0 0,0 0,0 0,0 1,0 0,0 0,0 0,0 0,0 0,0 0,0 0,0 0,0 0,0 0,0 0,0 0,0 0,0 0,1 0,1 0,0 0,0 0,0z"/>
       </g>
       <g>
        <path class="fil15" d="M35 63c0,0 0,0 0,0 0,0 0,0 0,0 0,0 0,0 0,0 0,0 0,0 0,0 0,0 0,0 0,0 0,0 0,0 0,0 0,0 0,0 0,0 0,0 0,0 -1,0 0,0 0,0 0,0 0,0 0,0 0,0 0,0 0,0 0,0 0,0 0,0 0,0 0,0 0,0 0,0 0,0 0,0 0,0 0,0 0,0 0,0 0,0 0,0 0,0 0,0 0,0 0,0 0,0 0,0 1,0 0,0 0,0 0,0 0,-1 0,-1 0,-1 0,0 0,0 0,0 0,0 0,0 0,0 0,1 0,1 0,1 0,0 0,0 0,0z"/>
       </g>
      </g>
     </g>
     <g>
      <path class="fil0" d="M15 65c1,1 2,1 4,1 0,0 1,-1 1,-1 1,0 1,-1 2,-1 0,-1 0,-2 0,-2 1,-2 0,-5 -2,-5 -2,-1 -6,1 -5,3 0,1 1,1 2,2 0,0 1,0 0,0 0,1 -1,0 -1,0 -1,0 -2,0 -2,0 -2,1 0,3 1,3zm2 -6l0 0c1,0 2,0 3,1 0,0 0,0 0,0 0,0 0,0 0,0 1,0 0,1 1,1 0,0 0,1 0,1 -1,0 -1,0 -1,1 0,0 -1,0 -1,0 1,-1 1,-2 0,-3 0,0 -1,0 -1,0 -1,0 -1,0 -1,-1z"/>
      <g>
       <path class="fil11" d="M18 61c0,0 -2,0 -2,-2 0,-1 2,-3 4,-1 0,0 3,0 2,3 0,0 0,3 -3,3 -1,2 -3,1 -3,1 -2,0 -2,-2 -2,-2 0,-1 2,-1 3,0 0,0 0,0 1,0 0,0 0,-1 0,-1 0,0 0,0 0,-1z"/>
       <g>
        <path class="fil12" d="M22 60c-1,-1 -1,-1 -2,-1 0,0 0,0 0,0 0,0 0,-1 -1,-1 0,0 -2,0 -2,1 0,0 0,0 0,0 0,1 1,2 2,1 0,1 0,1 0,1 0,0 0,0 1,1 -1,0 -1,0 -1,0 0,0 0,0 0,1 -1,0 -1,0 -1,0 0,0 0,0 -1,0 0,0 -1,0 -1,1 0,0 0,1 1,1 0,0 1,1 1,0 1,0 1,-1 1,-1 0,0 0,0 0,0 0,0 1,0 2,0 0,0 0,0 0,0 0,-1 0,-1 0,-1 0,0 0,0 0,0 0,0 0,-1 0,-1 0,0 0,0 0,0 0,0 -1,0 -1,0 1,0 1,-1 1,-1 1,0 1,-1 1,-1z"/>
        <path class="fil12" d="M16 63c0,0 0,0 0,0 0,0 -1,0 -1,0 -1,0 -1,0 -1,1 0,0 0,0 1,1 0,0 0,0 1,0 0,0 0,0 0,-1 0,0 0,0 0,0 0,0 0,0 0,0 0,0 0,0 0,0 0,0 0,0 0,-1z"/>
       </g>
       <g>
        <path class="fil13" d="M20 58c0,0 0,0 0,0 0,0 0,0 0,0 0,0 0,0 0,0 0,0 0,0 0,0 0,1 0,1 0,1 0,0 0,0 0,0 0,0 0,0 0,0 0,0 0,0 0,0 0,0 0,0 0,1 0,0 0,0 0,0 -1,0 -1,0 -1,0 0,0 0,0 0,0 0,0 0,0 0,0 0,0 0,0 0,-1 0,0 0,0 0,0 0,0 0,0 0,0 0,0 0,0 0,0 1,0 1,0 1,0 0,0 0,0 0,0 0,0 0,0 0,-1 0,0 0,0 0,0 0,0 0,0 0,0 0,0 0,0 0,0 0,0 0,0 0,0z"/>
       </g>
       <g>
        <path class="fil13" d="M22 61c0,0 0,0 0,0 0,0 0,0 -1,1 0,0 0,0 0,0 0,0 0,0 0,0 0,0 0,0 0,0 0,0 0,0 0,0 0,0 0,0 0,0 0,0 0,0 0,0 0,0 -1,0 -1,0 0,0 0,0 0,0 0,0 0,0 0,0 0,0 0,-1 0,-1 0,0 0,0 0,0 0,0 0,0 0,0 0,0 0,0 0,0 1,0 1,0 1,0 0,0 0,0 0,0 0,0 0,0 0,0 0,0 0,0 0,0 0,0 0,0 0,0 0,0 0,0 0,0 0,0 0,0 0,0 0,0 1,0 1,0z"/>
       </g>
       <g>
        <path class="fil13" d="M19 65c0,0 0,0 0,0 0,0 0,0 0,0 0,0 0,0 0,0 0,-1 0,-1 0,-1 0,0 0,0 0,0 0,0 -1,0 -1,0 0,0 0,0 0,0 0,0 0,0 0,0 0,0 0,0 0,0 0,0 0,0 0,0 0,0 0,0 0,0 0,0 0,0 0,0 0,0 1,0 1,0 0,0 0,0 0,0 0,0 0,0 0,0 0,0 0,0 0,0 0,0 0,0 0,0 0,0 0,0 0,0 0,0 0,0 0,0 0,0 0,0 0,0 0,0 0,0 0,0 0,0 0,1 0,1z"/>
       </g>
       <g>
        <path class="fil13" d="M16 65c0,0 0,0 0,0 0,0 0,0 0,0 0,0 0,0 0,0 0,0 0,0 0,0 0,0 0,0 0,0 0,-1 0,-1 0,-1 0,0 0,0 0,0 0,0 0,0 0,0 0,0 0,0 0,0 0,0 0,0 0,0 0,0 0,0 0,0 0,0 0,0 0,0 0,0 0,0 0,0l0 0c0,0 0,0 0,0 0,0 0,0 0,0 0,0 0,1 0,1 0,0 0,0 0,0 0,0 0,0 0,0 0,0 0,0 0,0 0,0 0,0 0,0 0,0 0,0 0,0z"/>
       </g>
       <g>
        <path class="fil14" d="M16 60c0,0 0,0 0,0 0,0 0,0 0,0 0,-1 0,-1 0,-1 0,0 0,0 0,0 0,0 0,0 0,0 0,0 0,0 0,0 0,-1 1,-1 1,-1 0,0 0,0 0,0 0,0 0,0 0,0 0,0 0,0 0,0 0,0 1,0 1,0 0,0 0,0 0,0 0,0 0,0 0,0 0,0 0,0 -1,0 0,0 0,0 0,0 0,0 0,0 0,1 0,0 0,0 0,0 0,0 0,0 0,0 0,0 0,0 0,0 0,0 0,0 0,0 0,0 0,0 0,0 -1,0 -1,1 -1,1 0,0 0,0 0,0 0,0 0,0 0,0z"/>
       </g>
       <g>
        <path class="fil15" d="M17 63c0,0 0,0 0,0 0,0 0,0 0,0 0,0 0,0 0,0 0,0 0,0 0,0 0,0 0,0 0,0 0,0 0,0 0,0 0,0 0,0 0,0 0,0 0,0 0,0 0,1 0,1 0,1 0,0 -1,0 -1,0 0,0 0,0 0,0 0,0 0,0 0,0 0,0 0,0 0,-1 0,0 0,0 0,0 0,0 0,0 0,0 0,0 0,0 0,0 0,0 1,0 1,0 0,0 0,0 0,0 0,0 0,0 0,0 0,0 0,0 0,0 0,0 0,0 0,0 0,0 0,0 0,0z"/>
       </g>
       <g>
        <path class="fil15" d="M18 63c0,0 0,0 0,0 0,0 0,0 0,0 0,0 0,0 0,0 0,0 0,0 0,0l0 0 0 0c0,0 0,0 0,0 0,0 0,0 0,0 0,0 0,0 0,0 0,0 0,0 0,0 0,0 0,0 0,0 0,0 0,0 0,0 0,0 0,0 0,0 0,0 0,0 0,0 0,0 0,0 0,0 0,0 0,0 0,0 0,0 0,0 0,0 0,0 0,0 0,0 0,0 0,0 0,0 0,0 0,0 0,0 0,0 0,0 0,0 0,0 0,0 0,0z"/>
       </g>
       <g>
        <path class="fil15" d="M18 62c0,0 0,0 0,0 0,0 0,0 0,0 0,0 0,0 0,0 1,0 1,0 1,0 0,0 0,0 0,0 0,0 0,0 0,0 0,0 0,0 0,0 0,0 0,0 0,0 0,0 0,0 0,0 0,0 0,0 0,0 0,0 0,0 0,0 0,0 0,0 0,0 0,0 0,0 0,0 0,0 0,0 0,0 0,0 0,0 0,0 0,0 0,0 0,0 0,0 0,0 0,0 0,0 0,0 -1,0 0,0 0,0 0,0 0,0 0,0 0,0 0,0 0,0 0,0 0,0 0,0 0,0z"/>
       </g>
       <g>
        <path class="fil15" d="M18 61c0,0 0,0 0,0 0,0 0,0 0,0 0,0 0,0 0,0 0,0 0,0 0,0 0,0 0,0 1,0 0,0 0,0 0,0 0,0 0,0 0,0 0,0 0,-1 0,-1 0,0 0,0 0,0 0,0 0,0 0,0 0,0 0,0 0,0 0,0 0,0 0,0 0,0 0,0 0,0 0,0 0,0 0,0 0,0 0,0 0,0 0,1 0,1 0,1 0,0 0,0 0,0 0,0 0,0 0,0 0,0 0,0 0,0 0,0 -1,0 -1,0 0,0 0,0 0,0 0,0 0,0 0,0 0,0 0,0 0,0 0,0 0,0 0,0z"/>
       </g>
      </g>
     </g>
     <g>
      <path class="fil0" d="M31 49c-1,-1 -1,-2 -2,-2 -1,0 -1,0 -2,0 0,0 -1,0 -1,0 -1,0 -1,0 -2,1 -1,0 -2,3 0,4 0,2 4,2 4,0 0,0 0,-1 0,-1 0,-1 -1,-1 0,-1 1,0 0,0 1,1 0,0 1,1 1,1 1,0 1,-2 1,-3zm-5 3l0 0c0,0 -1,-1 -1,-2 0,0 0,0 0,0 0,0 -1,0 -1,0 0,-1 1,-1 1,-1 0,0 0,0 0,0 1,-1 1,-1 1,-1 1,0 1,0 1,0 -1,1 -1,1 -1,2 0,1 0,1 0,1 0,0 1,1 0,1z"/>
      <g>
       <path class="fil11" d="M27 50c0,0 1,1 0,2 -1,1 -3,1 -3,-1 0,0 -2,-1 1,-3 0,0 1,-2 3,-1 1,0 2,1 2,2 2,1 1,2 0,2 0,0 -2,0 -1,-1 0,0 -1,0 -1,-1 0,0 0,1 -1,1 0,0 0,0 0,0z"/>
       <path class="fil12" d="M31 49c-1,0 -1,0 -1,0 0,0 0,0 -1,0 0,0 0,0 0,0 0,0 1,0 1,0 0,0 0,-1 0,-1 -1,0 -1,0 -1,0 0,-1 0,-1 -1,0 0,0 0,0 0,0 0,0 0,0 -1,-1 0,0 0,0 -1,0 0,0 0,1 0,1 0,0 0,0 0,1 0,0 -1,0 -1,0 0,0 0,0 0,0 -1,0 -1,0 -1,1 0,0 0,0 0,0 1,0 1,0 1,1 0,0 0,0 0,0 0,0 0,0 0,0 0,1 0,1 0,1 0,0 1,0 1,0 0,0 0,0 1,0 0,0 0,-1 0,-1 0,0 0,-1 -1,-1 0,0 1,0 1,0 0,0 0,0 0,-1 0,0 0,0 0,0 1,0 1,0 1,0 0,0 0,0 0,0 0,1 1,1 1,0 0,1 0,1 0,1 0,0 0,0 0,1 1,0 1,0 1,0 1,-1 1,-1 1,-2z"/>
       <g>
        <path class="fil13" d="M24 51c0,0 0,0 0,0 0,0 0,0 0,0 0,0 0,0 0,0 0,0 0,0 0,0 0,0 0,0 0,0 0,0 0,0 0,0 0,0 1,0 1,-1 0,0 0,0 0,0 0,0 0,0 0,0 0,0 0,0 0,0 0,0 0,0 0,0 0,0 0,0 0,0 0,0 0,0 0,0 0,1 0,1 0,1 0,0 0,0 0,0 0,0 0,0 0,0 0,0 0,0 0,0 0,0 0,0 0,0 0,0 0,0 0,0 0,0 -1,0 -1,0 0,0 0,0 0,0 0,0 0,0 0,0 0,0 0,0 0,0 0,0 0,0 0,0z"/>
       </g>
       <g>
        <path class="fil13" d="M25 48c0,0 0,0 0,0 0,0 0,0 0,0 0,0 0,0 0,0 0,0 0,0 0,0 0,0 0,0 0,0 0,0 0,0 0,0 0,0 0,0 0,0 0,0 0,0 0,0 1,0 1,0 1,1 0,0 0,0 0,0 0,0 0,0 0,0 0,0 0,0 0,0 0,0 0,0 0,0 0,0 -1,0 -1,0 0,0 0,0 0,0 0,0 0,0 0,0 0,0 0,0 0,0 0,0 0,0 0,0 0,0 0,0 0,0 0,0 0,0 0,0 0,0 0,-1 0,-1 0,0 0,0 0,0 0,0 0,0 0,0z"/>
       </g>
       <g>
        <path class="fil13" d="M28 47c0,0 0,0 0,0 0,0 0,0 0,0 0,0 0,0 0,1 0,0 0,0 0,0 0,0 0,0 0,0 0,0 0,0 0,0 0,0 0,0 0,0 0,0 0,0 0,0 0,0 0,0 0,0 0,0 0,0 0,0 0,0 0,0 0,0 0,0 0,0 0,0 0,0 0,0 0,0 0,0 0,0 0,0 0,0 0,0 0,0 0,0 0,0 0,0 0,0 0,0 0,0 0,0 0,0 0,0 0,0 0,0 0,0 0,0 0,0 0,0 0,0 0,0 0,-1 0,0 0,0 0,0z"/>
       </g>
       <g>
        <path class="fil13" d="M30 49c0,0 0,0 0,0 0,0 0,0 0,0 0,0 0,0 0,0 0,0 0,0 0,0 0,0 0,0 0,0 0,0 0,0 0,0 0,0 0,0 0,0 0,0 0,0 0,0 0,0 0,0 0,0 0,0 0,0 0,0 0,0 0,0 0,0 0,0 0,0 0,0 0,0 0,0 0,0l0 0c0,0 0,0 0,0 0,0 0,0 0,0 0,0 0,0 0,0 0,0 0,0 0,0 0,0 0,0 0,0 0,0 0,0 0,0 0,0 0,0 0,0 0,0 0,0 0,0z"/>
       </g>
       <g>
        <path class="fil14" d="M27 52c0,0 0,0 0,0 0,0 0,0 0,0 0,0 0,0 0,0 0,0 0,0 0,0 0,0 0,0 0,1 0,0 0,0 0,0 -1,0 -1,0 -1,0 0,0 0,0 0,0 0,0 0,0 0,0 0,0 0,0 0,0 0,-1 0,-1 -1,-1 0,0 0,0 0,0 0,0 0,0 1,0 0,0 0,0 0,0 0,0 0,0 0,0 0,0 0,0 0,0 0,0 0,0 0,0 0,0 0,0 0,0 0,0 1,0 1,0 0,0 0,0 0,0 0,0 0,0 0,0 0,0 0,0 0,0 0,0 0,0 0,0 0,0 0,0 0,0z"/>
       </g>
       <g>
        <path class="fil15" d="M28 50c0,0 0,0 0,0 0,-1 1,-1 1,-1 0,0 0,0 0,0 0,0 0,0 0,0 0,0 0,0 0,0 0,0 0,0 0,0 0,0 0,0 0,0 0,0 0,0 0,0 0,0 0,0 0,0 0,0 0,0 0,0 0,0 0,0 0,0 0,0 0,0 0,0 0,0 0,0 0,0 0,0 0,0 0,0 0,0 0,0 0,0 0,0 0,0 0,1 0,0 0,0 0,0 0,0 0,0 0,0 0,0 0,0 0,0 0,0 0,0 0,0 0,0 0,0 0,0 -1,0 -1,0 -1,0z"/>
       </g>
       <g>
        <path class="fil15" d="M28 49c0,0 0,0 0,0 0,0 0,0 0,0 0,0 0,0 0,0 0,0 0,0 0,0l0 0 0 0c0,0 0,0 0,0 0,0 0,0 0,0 0,0 0,0 0,0 0,0 0,0 0,0 0,-1 0,-1 0,-1 0,0 0,0 0,1 0,0 0,0 0,0 0,0 0,0 0,0 0,0 0,0 0,0 0,0 0,0 0,0 0,0 0,0 0,0 0,0 0,0 0,0 0,0 0,0 0,0 0,0 0,0 0,0 0,0 0,0 0,0 0,0 0,0 0,0z"/>
       </g>
       <g>
        <path class="fil15" d="M27 50c0,0 0,0 0,0 0,0 0,0 0,0 0,-1 0,-1 0,-1 0,0 0,0 0,0 0,0 0,0 0,0 0,0 0,0 0,0 0,0 0,0 0,0 0,0 0,0 0,0 0,0 0,0 0,0 0,0 0,0 -1,0 0,0 0,0 0,0 0,0 0,0 1,0 0,0 0,0 0,0 0,0 0,0 0,0 0,0 0,0 0,0 0,0 0,0 0,0 0,0 0,0 0,0 0,0 0,0 0,0 0,0 0,0 0,0 0,0 0,0 0,0 0,1 0,1 0,1 0,0 0,0 0,0z"/>
       </g>
       <g>
        <path class="fil15" d="M27 50c0,0 0,0 0,0 0,0 0,0 0,0 -1,0 -1,0 -1,0 0,0 0,0 0,0 0,0 0,0 0,0 0,0 0,0 0,0 0,0 0,0 0,0 0,0 0,0 0,0 0,0 0,0 0,0 0,0 0,0 0,0 0,0 0,0 0,0 0,0 0,0 0,0 0,0 0,0 0,0 0,0 0,0 0,0 0,0 0,0 0,0 0,0 0,0 0,0 0,0 0,0 0,0 0,0 0,0 0,0 0,0 0,0 0,0 0,0 0,0 0,0 0,0 0,0 1,0 0,0 0,0 0,0 0,0 0,0 0,0 0,0 0,0 0,0z"/>
       </g>
      </g>
     </g>
     <g>
      <path class="fil0" d="M26 79c0,-1 1,-2 1,-3 0,-1 0,-1 0,-2 0,0 0,-1 0,-1 -1,-1 -2,-1 -2,-1 -1,-1 -3,-1 -4,1 -1,1 -1,4 1,4 1,0 1,0 1,-1 1,0 1,-1 1,0 0,0 0,1 -1,1 0,1 0,1 0,1 1,2 2,1 3,1zm-4 -4l0 0c-1,-1 0,-1 1,-2 0,0 0,0 0,0 0,0 0,0 0,0 0,0 1,0 1,0 0,0 0,0 0,0 1,0 1,1 1,1 0,0 0,0 0,1 0,-1 -1,-1 -2,-1 0,0 -1,1 -1,1 0,0 0,1 0,0z"/>
      <g>
       <path class="fil11" d="M23 75c0,0 0,2 -2,1 -1,0 -1,-2 0,-3 0,0 1,-2 3,-1 0,0 3,1 2,3 1,1 0,3 0,3 -1,1 -2,1 -2,1 -1,-1 -1,-2 1,-3 0,0 -1,0 0,0 0,0 -1,0 -1,-1 0,0 0,0 -1,0z"/>
       <path class="fil12" d="M26 73c0,0 0,0 0,0 -1,0 -1,0 -2,1 0,-1 0,-1 0,-1 0,0 0,-1 -1,-1 0,0 0,1 -1,1 0,0 0,0 1,1 0,0 0,0 -1,0 0,0 0,-1 0,0 0,-1 0,-1 0,-1 0,0 0,0 0,0 -1,0 -1,0 -1,0 0,1 0,1 0,1 0,0 0,1 0,1 0,0 0,0 0,0 0,0 1,0 1,0 0,0 0,0 0,0 0,0 1,0 1,0 0,0 0,0 0,-1 0,1 0,1 1,1 0,0 0,-1 0,-1 0,1 0,1 1,1 0,0 0,0 0,0 0,0 0,0 1,0 0,0 0,-1 0,-1 0,0 0,-1 0,-1z"/>
       <path class="fil12" d="M26 76c0,-1 -1,-1 -1,-1 0,1 0,1 0,1 0,0 0,0 0,1 0,0 0,0 0,0 0,0 1,0 1,0 0,0 0,0 0,0 0,0 0,0 0,0 0,0 0,0 0,-1 0,0 0,0 0,0z"/>
       <path class="fil12" d="M25 78c0,0 0,-1 0,-1 0,0 0,0 0,0 -1,0 -1,0 -1,1 0,0 0,1 1,1 0,0 0,-1 0,-1z"/>
       <g>
        <path class="fil13" d="M21 73c0,0 0,0 0,0 0,0 0,0 1,0 0,0 0,0 0,0 0,0 0,0 0,0 0,0 0,0 0,0 0,0 0,0 0,0 0,0 0,0 0,0 0,0 0,0 0,0 0,0 1,0 1,0 0,0 0,0 0,0 0,1 0,1 0,1 0,0 0,0 0,0 0,0 0,0 0,0 0,0 -1,0 -1,0 0,0 0,0 0,0 0,-1 0,-1 0,-1 0,0 0,0 0,0 0,0 0,0 0,0 0,0 0,0 0,0 0,0 0,0 0,0 0,0 0,0 0,0 0,0 0,0 -1,0 0,0 0,0 0,0 0,0 0,0 0,0z"/>
       </g>
       <g>
        <path class="fil13" d="M24 72c0,0 0,0 0,0 0,0 0,0 1,0 0,0 0,0 0,1 0,0 0,0 0,0 0,0 0,0 0,0 0,0 0,0 0,0 0,0 0,0 0,0 0,0 0,0 0,0 0,0 0,0 -1,0 0,0 0,0 0,0 0,0 0,0 0,0 0,0 0,1 0,1 0,0 0,-1 0,-1 0,0 0,0 0,0 0,0 0,0 0,0 0,0 0,0 0,0 0,0 0,0 0,0 0,0 0,0 0,0 0,0 0,0 0,0 0,0 0,0 0,0 0,0 0,0 0,0 0,0 0,0 0,0 0,-1 0,-1 0,-1z"/>
       </g>
       <g>
        <path class="fil13" d="M26 75c0,0 0,0 0,0 0,0 0,0 0,0 0,0 0,0 0,0 0,0 0,0 0,0 0,0 0,0 0,0 0,0 0,0 0,0 0,0 0,0 0,0 0,0 0,0 0,0 0,0 0,0 0,0 -1,0 -1,0 -1,0 0,0 0,0 0,0 0,0 0,0 0,0 0,0 0,0 1,0 0,0 0,0 0,0 0,0 0,0 0,0 0,0 0,0 0,0 0,0 0,0 0,0 0,0 0,0 0,0 0,0 0,0 0,0 0,0 0,0 0,0 0,0 0,0 0,0 0,0 0,0 0,0z"/>
       </g>
       <g>
        <path class="fil13" d="M26 78c0,0 0,0 0,0 0,0 0,0 0,0 0,0 0,0 0,0 0,0 0,0 -1,0 0,0 0,0 0,0 0,0 0,0 0,0 0,0 0,0 0,0 0,0 0,0 0,0 0,0 0,-1 0,-1 0,0 0,0 0,0 0,0 0,0 0,0 0,0 0,0 0,0 0,0 0,0 0,0l0 0c0,0 0,0 0,0 0,0 0,0 0,0 0,0 0,0 1,0 0,0 0,0 0,0 0,0 0,0 0,0 0,0 0,0 0,0 0,0 0,1 0,1 0,0 0,0 0,0z"/>
       </g>
       <g>
        <path class="fil14" d="M22 76c0,0 0,0 0,0 0,0 0,0 0,0 0,0 0,0 0,0 -1,0 -1,0 -1,0 0,0 0,0 0,0 0,0 0,0 0,0 0,0 0,-1 0,-1 0,0 0,0 0,0 0,0 0,0 0,0 0,0 0,0 0,0 0,0 0,0 0,0 0,-1 0,-1 0,-1 0,0 0,0 0,1 0,0 0,0 0,0 0,0 0,0 0,0 0,0 0,0 0,0 0,0 0,0 0,0 0,0 0,0 0,0 0,0 0,0 0,1 0,0 0,0 1,0 0,0 0,0 0,0 0,0 0,0 0,0 0,0 0,0 0,0 0,0 0,0 0,0z"/>
       </g>
       <g>
        <path class="fil15" d="M24 76c0,0 0,0 1,0 0,0 0,0 0,0 0,0 0,0 0,0 0,0 0,0 0,0 0,0 0,1 0,1 0,0 0,0 0,0 0,0 0,0 0,0 0,0 0,0 0,0 0,0 0,0 0,0 0,0 0,0 0,0 0,0 0,0 0,0 0,0 0,0 0,0 0,0 0,0 0,0 0,0 0,0 0,0 0,0 0,0 0,0 0,0 0,0 0,0 0,0 0,0 0,0 0,0 0,0 0,0 0,0 0,0 0,0 -1,0 -1,0 -1,0 0,-1 0,-1 0,-1 0,0 0,0 0,0z"/>
       </g>
       <g>
        <path class="fil15" d="M24 75c0,0 0,0 1,0 0,0 0,0 0,0 0,0 0,0 0,0 0,0 0,0 0,0l0 0 0 0c0,0 0,0 0,0 0,0 0,0 0,0 0,0 0,0 0,0 0,0 0,0 0,0 0,0 0,0 0,0 0,0 0,0 0,0 0,0 0,0 0,0 0,0 0,0 0,0 0,0 0,0 0,0 0,1 0,1 0,1 0,0 0,0 0,0 0,0 0,0 0,0 0,0 0,0 0,0 0,0 0,0 0,0 0,0 0,0 0,0 -1,0 -1,-1 -1,-1z"/>
       </g>
       <g>
        <path class="fil15" d="M24 75c0,0 0,0 0,0 0,0 0,0 0,0 0,0 0,0 0,0 0,0 0,0 0,0 0,0 0,0 0,0 0,0 0,0 0,0 0,0 0,0 0,0 0,0 0,-1 0,-1 0,0 0,0 1,0 0,0 0,0 0,0 0,0 0,0 0,0 0,0 0,0 0,0 0,0 0,0 0,0 0,0 0,1 0,1 0,0 0,0 0,0 0,0 -1,0 -1,0 0,0 0,0 0,0 0,0 0,0 0,0 0,0 0,0 0,0 0,0 0,0 0,0 0,0 0,0 0,0 0,0 0,0 0,0z"/>
       </g>
       <g>
        <path class="fil15" d="M23 75c0,0 0,0 0,0 0,0 0,0 0,0 0,0 0,0 0,0 0,0 0,0 0,0 0,0 0,0 0,0 0,-1 0,-1 0,-1 0,0 0,0 0,0 0,0 0,0 0,0 0,0 0,0 0,0 0,0 0,0 0,0 0,0 0,0 0,0 0,0 0,0 0,0 0,0 0,0 0,0 0,0 0,0 0,0 0,0 0,0 0,0 0,0 0,0 0,0 0,0 0,0 0,0 0,0 0,0 0,0 0,0 0,0 0,1 0,0 0,0 0,0 0,0 0,0 0,0 0,0 0,0 0,0 0,0 0,0 0,0 0,0 0,0 0,0z"/>
       </g>
      </g>
     </g>
     <g>
      <g>
       <path class="fil0" d="M50 63c0,0 0,0 0,0 0,0 0,0 0,0z"/>
       <path class="fil0" d="M50 63c0,0 0,0 0,0 0,0 0,0 0,0z"/>
       <path class="fil0" d="M55 60c-1,0 -1,0 -1,0 -1,0 -1,0 -1,0 -1,0 -1,0 -1,0 -1,0 -2,1 -2,2 0,0 0,0 0,0 0,0 0,0 0,0 0,0 0,0 0,0 -1,0 -1,1 -1,1 1,0 1,0 1,0 0,1 0,1 0,0 0,0 0,0 0,0 0,0 0,0 0,0 0,0 0,0 0,0 0,0 0,0 0,0 0,0 0,0 0,0 0,0 0,0 0,0 0,0 0,0 0,0 0,0 0,0 0,0 0,1 2,1 3,0 0,0 0,0 0,-1 0,0 0,0 0,0 1,0 0,1 0,1 0,0 0,0 1,1 1,0 1,-1 1,-1 0,-1 0,-2 0,-3zm-3 2l0 0c0,0 0,0 0,0 0,0 0,1 0,1 -1,-1 -1,-1 -1,-2 0,0 0,0 0,0 0,0 0,0 0,0 0,0 1,0 1,0 0,0 0,0 0,0 0,0 1,-1 1,0 0,0 0,0 0,0 0,0 -1,0 -1,1z"/>
      </g>
      <g>
       <path class="fil11" d="M52 62c0,0 1,1 0,1 -1,1 -2,0 -1,-1 0,0 -1,-2 1,-2 0,0 1,-1 2,1 1,0 1,1 1,1 0,1 -1,1 -1,1 0,0 -1,0 0,-1 0,0 -1,0 -1,0 0,0 0,0 0,0 0,0 0,0 -1,0z"/>
       <path class="fil12" d="M53 60c0,0 0,0 0,0 0,0 -1,0 -1,0 0,0 0,1 0,1 0,0 0,0 0,0 0,0 0,0 0,0 0,0 0,-1 0,-1 0,0 0,0 0,0 -1,0 -1,1 -1,1 0,0 0,0 0,0 0,0 0,0 0,0 0,0 0,1 0,1 0,0 0,0 0,0 0,1 0,1 0,1 1,0 1,0 1,0 0,-1 0,-1 0,-1 0,0 0,0 0,0 0,0 1,0 1,-1 0,0 0,0 0,0 0,0 0,0 0,0 0,0 0,0 0,0 0,0 0,0 0,0 0,0 0,-1 0,-1z"/>
       <path class="fil12" d="M55 61c0,0 -1,0 -1,0 0,0 0,0 0,0 -1,0 -1,0 -1,1 0,0 1,0 1,0 0,0 0,0 0,0 0,0 0,0 0,0 0,0 0,0 0,0 1,0 1,-1 1,-1z"/>
       <path class="fil12" d="M55 62c0,0 -1,0 -1,0 0,0 0,0 0,0 0,0 0,0 0,0 0,0 0,0 0,1 0,0 0,0 0,0 1,0 1,0 1,-1z"/>
       <g>
        <path class="fil13" d="M50 62c0,0 0,0 0,0 0,0 1,0 1,0 0,0 0,0 0,-1 0,0 0,0 0,0 0,0 0,0 0,0 0,0 0,0 0,0 0,0 0,0 0,0 0,0 0,0 0,0 0,0 0,0 0,0 0,0 0,0 0,0 0,0 0,0 0,0 0,1 1,1 1,1 0,0 -1,0 -1,0 0,0 0,0 0,0 0,0 0,0 0,0 0,0 0,0 0,0 0,0 0,0 0,0 0,0 0,0 0,0 0,0 0,0 0,0 0,0 0,0 0,0 0,0 0,0 0,0 0,0 0,0 0,0 0,0 0,0 0,0 -1,0 -1,0 -1,0z"/>
       </g>
       <g>
        <path class="fil13" d="M52 60c0,0 0,0 0,0 0,0 0,0 0,0 0,0 0,0 0,0 0,0 0,0 0,0 0,0 0,0 0,0 0,0 0,0 0,0 0,0 0,0 0,0 0,0 0,0 0,0 0,0 0,1 0,1 0,0 0,0 0,0 0,0 0,0 0,0 0,0 0,0 0,0 0,0 0,0 0,0 0,0 0,0 0,0 0,0 0,0 0,0 0,0 0,0 0,0 0,0 0,0 0,-1 0,0 0,0 0,0 0,0 0,0 0,0 0,0 0,0 0,0 0,0 0,0 0,0 0,0 0,0 0,0 0,0 0,0 0,0z"/>
       </g>
       <g>
        <path class="fil13" d="M54 60c0,0 0,1 0,1 0,0 0,0 0,0 0,0 0,0 0,0 0,0 0,0 0,0 0,0 0,0 0,0 0,0 0,0 0,0 0,0 0,0 0,0 0,0 0,0 0,0 0,0 0,0 0,0 0,0 0,0 0,0 0,0 0,0 0,0 0,0 0,0 0,0 0,0 0,0 0,0 0,0 0,0 0,0 0,0 0,0 0,0 0,0 0,0 0,0 0,0 0,0 0,0 0,0 0,0 0,0 0,0 0,0 0,0 0,0 0,0 0,0 0,0 0,0 0,0 0,0 0,-1 0,-1z"/>
       </g>
       <g>
        <path class="fil13" d="M55 62c0,0 0,0 0,0 0,0 0,0 0,0 0,0 0,0 0,0 0,0 0,0 0,0 0,0 0,0 0,0 0,0 -1,0 -1,0 0,0 0,0 0,0 0,0 0,0 0,0 0,0 0,0 0,0 0,0 0,0 0,0 0,0 0,0 0,0 0,0 0,0 0,0 0,0 0,0 0,0l0 0c0,0 0,0 0,0 0,0 0,0 0,0 0,0 0,0 0,0 0,0 0,0 0,0 0,0 1,0 1,0 0,0 0,0 0,0 0,0 0,0 0,0 0,0 0,0 0,0z"/>
       </g>
       <g>
        <path class="fil14" d="M52 63c0,0 0,0 0,0 0,0 0,0 0,0 0,0 0,0 0,0 0,0 0,0 0,0 0,0 0,0 0,0 0,0 0,0 0,0 -1,0 -1,0 -1,0 0,0 0,0 0,0 0,0 0,0 0,0 0,0 0,0 0,0 0,0 0,0 0,0 0,0 0,0 0,0 0,0 0,0 0,0 0,0 0,0 0,0 0,0 0,0 0,0 0,0 0,0 0,0 0,0 0,0 0,0 0,0 1,0 1,0 0,0 0,0 0,0 0,0 0,0 0,0 0,0 0,0 0,0 0,0 0,0 0,0 0,0 0,0 0,0 0,0 0,0 0,0z"/>
       </g>
       <g>
        <path class="fil15" d="M53 62c0,0 0,0 1,0 0,0 0,0 0,0 0,0 0,0 0,0 0,0 0,0 0,0 0,0 0,0 0,0 0,0 0,0 0,0 0,0 0,0 0,0 0,0 0,0 0,0 0,0 0,0 0,0 0,0 0,0 0,0 0,0 0,0 0,0 0,0 0,0 0,0 0,0 0,0 0,0 0,0 0,0 0,0 0,0 0,0 0,0 0,0 0,0 0,0 0,0 0,0 0,0 0,0 0,0 0,0 0,0 0,0 0,0 0,0 0,0 0,0 0,0 0,0 0,0 -1,0 -1,0 -1,0z"/>
       </g>
       <g>
        <path class="fil15" d="M53 62c0,0 0,0 0,0 0,0 0,0 0,-1 0,0 0,0 0,0 0,0 0,0 0,0l0 0 0 0c0,0 0,0 0,0 0,0 0,0 0,0 0,0 0,0 0,0 0,0 0,0 0,0 0,0 0,0 0,0 0,0 0,0 0,0 0,0 0,0 0,0 0,0 0,0 0,0 0,0 0,0 0,0 0,0 0,0 0,0 0,0 0,0 0,0 0,0 0,0 0,0 0,1 0,1 0,1 0,0 0,0 0,0 0,0 0,0 0,0 0,0 0,0 0,0z"/>
       </g>
       <g>
        <path class="fil15" d="M53 62c0,0 0,0 0,0 0,0 0,0 0,0 0,-1 0,-1 0,-1 0,0 0,0 0,0 0,0 0,0 0,0 0,0 0,0 0,0 0,0 0,0 0,0 0,0 0,0 0,0 0,0 0,0 0,0 0,0 0,0 0,0 0,0 0,0 0,0 0,0 0,0 0,0 0,0 0,0 0,0 0,0 0,0 0,0 0,0 0,0 0,0 0,0 0,0 0,0 0,0 0,0 0,0 0,0 0,0 0,0 0,0 0,0 0,0 0,1 0,1 0,1 0,0 0,0 0,0 0,0 0,0 0,0z"/>
       </g>
       <g>
        <path class="fil15" d="M52 62c0,0 0,0 0,0 0,0 0,0 0,0 0,0 0,0 0,0 0,0 0,0 0,0 0,0 0,0 0,0 0,0 0,0 0,0 0,0 0,0 0,0 0,0 0,0 0,0 0,0 0,0 0,0 0,0 0,0 0,0 0,0 0,0 0,0 0,0 0,0 0,0 0,0 0,0 0,0 0,0 0,-1 0,-1 0,0 0,0 0,0 0,0 0,0 0,0 0,0 0,0 0,1 0,0 0,0 0,0 0,0 0,0 0,0 0,0 0,0 0,0 0,0 0,0 0,0 0,0 0,0 0,0 0,0 0,0 0,0 0,0 0,0 0,0z"/>
       </g>
      </g>
     </g>
     <g>
      <path class="fil0" d="M48 66c-1,0 -1,0 -1,1 0,0 0,1 -1,1 0,0 0,-1 0,-1 0,0 0,-1 0,-1 -1,-2 -4,-1 -4,2 0,1 1,2 2,2 0,1 1,1 1,1 1,0 1,0 2,0 0,-1 1,-1 1,-1 1,0 1,-2 1,-2 0,-1 0,-3 -1,-2zm-3 1l0 0c0,0 -1,1 0,1 0,1 0,1 1,1 0,0 0,1 0,1 -1,0 -1,0 -1,-1 0,0 0,0 0,0 -1,0 -1,0 -1,0 0,0 0,0 0,0 0,-1 0,-1 0,-1 0,0 0,-1 1,-1 0,0 0,0 0,0z"/>
      <g>
       <path class="fil11" d="M45 68c0,0 1,-2 0,-2 -1,-1 -3,0 -2,2 0,0 -1,1 1,2 0,0 2,2 3,0 2,0 2,-2 2,-2 0,-1 -1,-2 -1,-2 0,0 -1,1 -1,2 0,0 0,0 -1,0 0,0 0,0 0,0 0,0 0,0 -1,0z"/>
       <path class="fil12" d="M45 66c0,0 -1,0 -1,0 0,0 0,0 -1,1 0,0 0,0 0,0 0,0 0,1 1,1 0,0 0,0 0,0 0,0 0,0 1,0 0,0 0,0 0,-1 0,0 0,0 0,-1z"/>
       <path class="fil12" d="M45 69c0,-1 0,-1 0,-1 -1,0 -1,0 -1,0 0,0 0,0 0,0 -1,1 -1,1 -1,1 0,0 0,0 0,0 0,1 1,1 1,1 0,0 1,0 1,-1 0,0 0,0 0,0z"/>
       <path class="fil12" d="M46 69c0,0 0,0 -1,0 0,0 0,0 0,0 0,1 0,1 0,1 0,0 0,0 0,0 0,0 0,0 0,0 0,0 0,0 0,0 1,0 1,1 1,0 1,0 1,0 1,0 0,-1 0,-1 -1,-1z"/>
       <path class="fil12" d="M48 68c0,0 0,0 0,0 0,0 0,0 0,0 0,0 0,0 0,0 -1,0 -1,0 -1,0 0,0 0,0 0,1 0,0 0,0 0,0 0,0 1,1 1,0 0,0 0,0 0,0 0,0 1,0 0,-1z"/>
       <path class="fil12" d="M48 66c0,0 0,0 0,0 0,0 -1,0 -1,1 0,0 0,0 1,1 0,0 0,0 0,0 0,0 0,0 0,0 1,0 1,-1 1,-1 0,0 0,0 -1,-1z"/>
       <g>
        <path class="fil13" d="M43 67c0,0 0,0 0,1 0,0 0,0 0,0 0,0 0,0 0,0 0,0 0,0 0,0 0,0 0,0 0,0 0,0 0,0 0,0 0,0 0,0 0,0 0,0 1,0 1,0 0,0 0,0 0,0 0,0 0,0 0,0 0,0 0,0 0,0 0,0 0,0 0,0 0,0 0,0 0,0 0,0 0,0 0,0 0,0 0,0 0,0 0,0 0,0 0,0 0,0 0,0 -1,0 0,0 0,0 0,0 0,0 0,0 0,0 0,0 0,0 0,0 0,0 0,0 0,0 0,0 0,0 0,0 0,0 0,0 0,0 0,-1 0,-1 0,-1z"/>
       </g>
       <g>
        <path class="fil13" d="M44 70c0,0 0,0 0,0 0,0 0,0 0,0 0,0 0,0 0,0 0,0 0,0 0,0 0,0 1,0 1,0 0,0 0,0 0,0 0,0 0,0 0,0 0,0 0,0 0,0 0,0 0,0 0,0 0,-1 0,-1 0,-1 0,0 0,0 0,0 0,0 0,0 0,0 0,0 0,0 0,0 0,0 0,0 0,0 0,0 0,0 0,0 0,0 0,0 0,0 -1,1 -1,1 -1,1 0,0 0,0 0,0 0,0 0,0 0,0 0,0 0,0 0,0 0,0 0,0 0,0 0,0 0,0 0,0 0,0 0,0 0,0z"/>
       </g>
       <g>
        <path class="fil13" d="M47 70c0,0 0,0 0,0 0,0 0,0 0,0 0,0 0,0 0,0 0,0 0,0 0,0 0,0 0,0 0,-1 0,0 0,0 0,0 0,0 0,0 0,0 0,0 0,0 0,0 0,0 0,0 0,0 0,0 0,0 0,0 0,0 0,0 0,0 0,0 0,0 0,0 0,0 0,0 0,0 0,0 0,0 0,0 0,0 0,0 0,0 0,0 0,0 0,0 0,0 0,1 0,1 0,0 0,0 0,0 0,0 0,0 0,0 0,0 0,0 0,0 0,0 0,0 0,0 0,0 0,0 0,0z"/>
       </g>
       <g>
        <path class="fil13" d="M49 68c0,0 0,0 0,0 0,0 0,0 0,0 0,0 0,0 0,0 0,0 0,0 0,0 0,0 0,0 -1,0 0,0 0,0 0,0 0,0 0,0 0,0 0,0 0,0 0,0 0,0 0,0 0,0 0,0 0,0 0,0 0,0 0,0 0,0 0,0 0,0 0,0 0,0 0,0 0,0l0 0c0,0 0,0 0,0 0,0 0,0 0,0 0,0 0,0 0,0 0,0 0,0 0,0 0,0 0,0 0,0 0,0 0,0 0,0 0,0 0,0 0,0 1,0 1,0 1,0z"/>
       </g>
       <g>
        <path class="fil14" d="M45 66c0,0 0,0 0,0 0,0 0,0 0,0 0,0 0,0 0,0 0,0 0,0 0,0 0,0 0,0 0,0 0,0 0,0 -1,0 0,0 0,0 0,0 0,0 0,0 0,0 0,0 0,0 0,0 0,0 0,0 0,0 0,0 0,0 0,0 0,0 0,0 0,0 0,0 0,0 0,0 0,0 0,0 0,0 0,0 0,0 0,0 0,0 0,0 0,0 0,0 0,0 0,0 0,0 0,0 1,0 0,0 0,0 0,0 0,0 0,0 0,0 0,0 0,0 0,0 0,0 0,0 0,0 0,0 0,0 0,0 0,0 0,0 0,0z"/>
       </g>
       <g>
        <path class="fil15" d="M47 68c0,0 0,0 0,0 0,0 0,0 0,0 0,0 0,0 0,0 0,0 0,0 0,0 0,0 0,0 0,0 0,0 0,0 0,0 0,0 0,0 0,0 0,0 0,0 0,0 0,0 0,0 0,0 1,0 1,0 1,0 0,0 0,0 0,0 0,0 0,0 0,0 0,0 0,0 -1,0 0,0 0,0 0,0 0,0 0,0 0,0 0,0 0,0 0,0 0,0 0,0 0,0 0,0 0,0 0,0 0,0 0,0 0,0 0,0 0,0 0,0 0,0 0,0 0,0 0,0 0,0 0,0z"/>
       </g>
       <g>
        <path class="fil15" d="M46 68c0,0 0,0 0,0 0,0 0,0 0,0 0,0 0,1 0,1 0,0 0,0 0,0l0 0 0 0c0,0 0,0 1,0 0,0 0,0 0,0 0,0 0,0 0,0 0,0 0,0 0,0 0,0 0,0 0,0 0,0 0,0 0,0 0,0 0,0 0,0 0,0 0,0 0,0 0,0 0,0 0,0 0,0 0,0 0,0 0,0 0,0 0,0 0,0 0,0 0,0 0,-1 0,-1 0,-1 0,0 0,0 -1,0 0,0 0,0 0,0 0,0 0,0 0,0z"/>
       </g>
       <g>
        <path class="fil15" d="M46 68c0,0 0,0 0,0 0,0 0,0 0,0 0,0 0,0 0,0 0,0 0,0 0,0 0,1 0,1 0,1 0,0 0,0 0,0 0,0 0,0 0,0 0,0 0,0 0,0 0,0 0,0 0,0 0,0 0,0 0,0 0,0 0,0 0,0 0,0 0,0 0,0 0,0 0,0 0,0 0,0 0,0 0,0 0,0 0,0 0,0 0,0 0,0 0,0 0,0 0,0 0,0 0,0 0,0 0,0 0,-1 0,-1 0,-1 0,0 0,0 0,0 0,0 0,0 0,0 0,0 0,0 0,0z"/>
       </g>
       <g>
        <path class="fil15" d="M45 68c0,0 0,0 0,0 0,0 0,0 0,0 0,0 0,0 0,0 0,0 0,0 0,0 0,0 0,0 0,0 0,0 0,0 0,0 0,0 0,0 0,0 0,0 0,0 0,0 0,0 0,0 0,0 0,0 0,0 -1,0 0,0 0,0 0,0 0,0 0,0 0,0 0,0 0,0 0,0 0,0 0,0 0,0 1,0 1,0 1,0 0,0 0,0 0,0 0,0 0,0 0,0 0,0 0,0 0,0 0,0 0,0 0,0 0,0 0,0 0,0 0,0 0,0 0,0 0,0 0,0 0,0 0,0 0,0 0,0 0,0 0,0 0,0z"/>
       </g>
      </g>
     </g>
     <path class="fil1" d="M27 60c-2,0 -1,-4 1,-4 2,0 1,4 -1,4z"/>
     <path class="fil1" d="M28 69c2,-2 7,2 5,5 -3,2 -6,-3 -5,-5z"/>
     <path class="fil1" d="M45 62c-2,0 -1,-2 1,-2 2,0 1,2 -1,2z"/>
     <path class="fil1" d="M19 52c-2,0 -1,-3 1,-3 1,0 0,4 -1,3z"/>
     <path class="fil1" d="M26 68c-1,0 -1,-2 0,-2 1,0 1,1 0,2z"/>
     <path class="fil1" d="M17 75c-2,0 -2,-5 0,-5 3,-1 2,5 0,5z"/>
     <path class="fil0" d="M41 60c0,0 0,0 -1,0 0,0 0,0 0,0 0,0 0,1 0,1 0,0 0,0 0,0 0,0 0,0 0,0 0,0 1,0 1,0 0,0 0,0 0,0 0,0 0,0 0,-1z"/>
     <path class="fil0" d="M50 66c0,0 0,0 0,0 0,0 0,0 0,0 0,0 0,0 0,0 0,0 0,0 0,0 0,0 0,0 0,0 0,0 0,0 0,0 0,0 0,0 0,0 0,0 0,0 0,0 0,0 0,0 0,0 0,1 0,1 0,1 0,0 0,0 0,0 0,0 1,0 1,-1 0,0 -1,0 -1,0z"/>
     <path class="fil0" d="M23 56c0,0 -1,0 -1,0 0,0 0,0 0,0 0,0 0,0 0,0 0,0 0,0 0,0 0,1 0,1 0,1 0,0 0,0 0,0 0,0 0,0 0,0 0,0 1,0 1,0 0,0 0,0 0,0 0,-1 0,-1 0,-1z"/>
     <path class="fil0" d="M22 62c0,0 0,0 0,0 0,1 0,1 0,1 0,0 0,0 0,0 0,0 0,0 0,0 0,0 0,0 0,0 0,0 0,0 0,0 0,0 0,0 0,0 0,0 0,0 0,0 0,0 0,0 0,0 0,0 0,0 0,0 0,0 0,0 1,0 0,0 0,0 0,0 0,0 0,0 0,-1 0,0 0,0 -1,0z"/>
     <path class="fil0" d="M23 61c0,0 0,0 0,0 0,1 0,1 0,1 0,0 0,0 0,0 0,0 0,0 0,0 0,0 0,-1 0,-1z"/>
     <path class="fil0" d="M30 56c0,0 0,0 0,0 0,0 0,0 0,0 0,0 0,0 0,0 0,0 0,0 0,0 0,0 0,1 0,1 0,0 0,0 0,0 0,0 0,0 0,0 0,0 0,0 0,0 0,0 0,0 0,0 0,0 0,0 0,0 0,0 0,0 0,0 0,0 0,0 0,0 1,0 1,0 1,0 0,0 0,-1 -1,-1z"/>
     <path class="fil0" d="M32 53c0,0 0,0 0,0 0,0 0,1 0,1 1,0 1,-1 1,-1 0,0 0,0 -1,0z"/>
     <path class="fil0" d="M20 45c0,0 0,0 0,0 0,0 0,0 0,0 0,0 0,1 0,1 0,0 0,0 1,0 0,0 0,0 -1,-1z"/>
     <path class="fil0" d="M18 47c0,0 0,0 0,-1 0,0 0,0 0,1 0,0 0,0 0,0 0,0 0,0 0,0 0,0 0,0 0,0 0,0 0,0 0,0z"/>
     <path class="fil0" d="M35 71c0,0 0,0 0,0 0,0 0,0 0,0 0,0 0,0 0,0 0,0 0,0 0,0 0,0 0,-1 0,-1 0,1 -1,1 -1,1 0,0 0,0 0,0 0,0 0,0 0,0 0,0 0,0 0,0 0,0 0,0 0,0 0,0 0,0 0,0 0,0 0,0 0,0 0,0 0,1 0,1 1,0 1,0 1,0 0,0 0,-1 0,-1 0,0 0,0 0,0z"/>
     <path class="fil0" d="M28 73c0,0 0,0 0,0 0,0 -1,0 -1,0 0,0 0,0 0,0 0,0 0,0 0,0 0,0 0,0 0,0 0,0 0,0 0,0 0,0 0,0 0,0 0,0 0,0 0,0 0,0 0,1 0,1 0,0 0,0 0,0 0,0 1,0 1,0 0,0 0,-1 0,-1z"/>
     <path class="fil0" d="M28 74c0,0 0,0 0,0 -1,0 -1,1 0,1 0,0 0,0 0,0 0,0 0,-1 0,-1z"/>
     <path class="fil0" d="M21 77c-1,-1 -1,-1 -1,-1 0,0 0,0 0,0 0,0 0,0 0,0 0,0 0,0 0,1 0,0 0,0 0,0 0,0 1,0 1,0z"/>
     <path class="fil0" d="M13 67c0,0 0,0 0,-1 0,0 -1,0 -1,0 0,0 0,1 0,1 0,1 0,1 0,1 0,0 0,0 1,0 0,0 0,-1 0,-1z"/>
     <path class="fil0" d="M12 64c0,0 0,0 0,0 0,0 0,0 0,0 0,0 0,0 0,0 0,0 0,0 -1,0 0,0 0,1 1,1 0,0 0,0 0,0 0,0 0,0 0,0 0,0 0,0 0,0 0,0 0,0 0,0 0,0 0,0 0,-1 0,0 0,0 0,0z"/>
     <g>
      <path class="fil0" d="M12 62l0 0c0,0 0,0 0,0z"/>
      <path class="fil0" d="M13 63c0,-1 -1,-1 -1,-1 0,0 0,0 0,0 0,0 0,0 0,0 0,0 0,0 0,0 0,0 0,1 0,1 0,0 0,0 0,0 0,0 0,0 0,0 1,0 1,0 1,0 0,0 0,0 0,0z"/>
     </g>
     <g>
      <path class="fil16" d="M27 61c-1,-1 -3,-3 -2,-4 1,0 2,-2 4,-2 2,0 3,2 1,3 -1,1 -1,4 -3,3z"/>
      <path class="fil16" d="M28 71c-2,-1 -3,-3 -2,-4 1,-1 5,-1 5,1 0,1 -2,3 -3,3z"/>
      <path class="fil16" d="M43 62c-1,-1 1,-4 2,-3 2,1 0,4 -2,3z"/>
      <path class="fil16" d="M21 47c-2,-2 -4,0 -4,1 0,1 2,3 3,3 1,-1 2,-4 1,-4z"/>
      <path class="fil16" d="M16 77c-1,1 -3,-5 -1,-5 2,-1 3,3 1,5z"/>
      <path class="fil16" d="M53 68c-2,0 -1,-4 2,-3 2,0 0,3 -2,3z"/>
      <path class="fil16" d="M14 57c-2,1 -2,-3 -1,-4 2,-1 3,3 1,4z"/>
      <path class="fil16" d="M20 69c-2,0 0,-2 0,-2 1,1 1,3 0,2z"/>
     </g>
     <path class="fil17" d="M20 47c0,0 0,0 -1,0 0,0 0,0 0,0 0,0 0,0 0,0 -1,0 -1,1 -1,1 0,0 0,0 0,0 0,0 0,0 1,1 0,0 0,0 0,0 0,0 1,-1 1,-1 0,0 0,0 0,-1z"/>
     <path class="fil17" d="M20 49c0,0 0,0 0,0 0,0 0,0 0,0 0,0 0,0 -1,0 0,0 0,0 0,0 0,0 0,0 0,0 0,0 0,0 0,1 0,0 0,0 1,0 0,0 0,0 0,0 0,-1 0,-1 0,-1z"/>
     <path class="fil17" d="M30 55c-1,0 -1,0 -1,0 -1,0 -1,0 -1,0 -1,1 -1,1 -1,2 0,0 0,0 0,0 0,0 0,0 0,0 0,0 -1,0 -1,0 0,0 0,0 0,0 0,0 0,0 0,0 0,0 0,0 0,1 0,0 1,0 1,0 0,0 1,0 1,-1 0,0 0,0 0,0 0,0 0,0 0,0 0,1 1,1 1,1 0,0 1,-1 1,-1 0,0 0,-1 0,-2z"/>
     <path class="fil17" d="M27 68c0,0 0,0 0,0 0,0 0,0 0,0 0,0 0,0 -1,0 0,1 0,1 0,1 1,0 1,0 1,0 0,0 0,0 0,0 0,0 1,0 0,-1z"/>
     <path class="fil17" d="M30 67c0,0 -1,0 -1,0 0,0 -1,0 -1,0 0,0 0,1 0,1 0,1 0,1 1,1 1,0 1,-1 1,-2z"/>
     <path class="fil17" d="M45 60c-1,-1 -1,-1 -1,0 0,0 0,0 0,0 0,0 0,0 0,1 0,0 0,0 0,0 0,0 0,0 0,0 1,0 1,0 1,-1 0,0 0,0 0,0z"/>
     <path class="fil17" d="M54 67c0,0 0,-1 -1,0 0,0 0,0 0,0 0,0 0,0 0,0 0,0 0,1 0,1 1,-1 1,-1 1,-1 0,0 0,0 0,0z"/>
     <path class="fil17" d="M14 53c0,0 -1,0 -1,0 0,0 0,1 0,1 0,0 0,0 0,0 0,1 0,1 1,1 0,0 0,0 0,0 0,-1 0,-1 0,-2z"/>
     <path class="fil17" d="M15 73c-1,0 -1,1 0,1 0,0 0,0 0,0 0,0 0,0 0,1 0,0 0,0 1,0 0,0 1,-1 1,-1 -1,-1 -2,-2 -2,-1z"/>
     <path class="fil17" d="M15 75c-1,1 0,2 1,1 0,0 0,-1 -1,-1z"/>
    </g>
    <path class="fil18" d="M39 68c0,0 0,2 -1,4l1 0c0,0 2,-2 1,-4l-1 0z"/>
    <path class="fil18" d="M27 62c0,0 -2,3 -4,2l1 2c0,0 3,-1 4,-3l-1 -1z"/>
    <path class="fil18" d="M35 55c0,0 3,0 4,2l1 -2c0,0 -2,-2 -4,-1l-1 1z"/>
    <path class="fil18" d="M16 46c0,0 2,-3 4,-2l-1 -2c0,0 -3,1 -4,3l1 1z"/>
    <path class="fil18" d="M20 79c0,0 -3,0 -4,-1l0 1c0,0 2,2 4,1l0 -1z"/>
   </g>
   <g>
    <g>
     <path class="fil0" d="M56 120c0,0 3,-22 5,-32 1,-10 1,-20 0,-21 0,-1 -23,14 -25,15 -1,1 -12,8 -15,9 -3,2 -5,4 -5,5 -1,1 3,13 11,17 8,4 23,12 29,7z"/>
     <path class="fil1" d="M55 116c0,0 3,-18 4,-27 1,-9 1,-18 0,-19 0,-1 -20,13 -21,14 -2,1 -11,7 -14,8 -3,2 -4,4 -5,5 -1,0 5,7 12,11 7,4 19,10 24,8z"/>
     <path class="fil2" d="M55 120c-1,-2 -2,-3 -4,-3 -1,-1 -2,-1 -3,-1 -1,0 -3,0 -4,-1 -2,0 -3,-2 -5,-3 -1,-1 -2,-1 -4,-1 -1,-1 -3,-2 -4,-3 -1,0 -1,0 -1,-1 0,-1 -2,-2 -3,-2 -1,-1 -3,-1 -4,-2 0,0 -1,0 -1,0 0,-1 0,-1 0,-1 -1,-1 -2,-3 -2,-4 -1,-1 -2,-3 -3,-3 0,0 -1,0 -1,1 1,0 1,1 2,1 0,1 0,1 1,2 0,1 1,2 1,3 1,2 2,2 3,3 2,1 4,2 5,3 2,1 3,2 5,3 1,1 3,1 4,2 3,1 5,4 8,5 3,1 7,-1 9,2 0,1 1,0 1,0z"/>
     <path class="fil2" d="M31 106c0,0 0,0 0,0 -1,0 -1,0 -1,0 0,0 0,0 0,0 0,0 0,0 0,1 0,0 0,0 0,0 0,0 0,0 0,-1 0,1 0,1 0,1 0,0 0,0 0,0 1,0 1,0 1,0 0,0 0,-1 0,-1z"/>
     <path class="fil2" d="M42 112c-1,-1 -2,-1 -2,-1 -1,0 -1,0 -1,1 0,0 0,0 1,0 0,0 0,1 0,1 0,0 1,0 1,0 1,0 1,-1 1,-1z"/>
     <path class="fil3" d="M54 115c0,1 -5,-1 -7,-2 -2,0 -10,-6 -12,-6 -2,0 -6,-3 -8,-5 -3,-2 -5,-5 -4,-6 0,-1 5,-6 8,-7 4,-1 15,-9 18,-11 3,-2 7,-4 8,-4 1,1 1,9 0,12 0,2 -2,9 -2,11 0,3 1,14 -1,18z"/>
     <path class="fil4" d="M55 127c-1,0 -11,0 -23,-6 -13,-6 -22,-16 -23,-20 -1,-4 6,-7 8,-6 1,1 4,7 4,8 1,0 9,7 12,7 2,1 6,3 8,5 0,0 8,2 10,3 3,0 4,0 5,1 2,1 2,6 -1,8z"/>
     <g>
      <g>
       <g>
        <g>
         <path class="fil9" d="M21 103c0,0 0,0 0,0 0,0 0,0 0,0 0,0 0,0 -1,0 0,0 0,0 0,0 0,0 0,0 0,1 -1,0 -1,0 -1,0 0,0 0,0 0,0 0,0 -1,0 -1,0 0,0 0,0 0,0 0,1 0,1 -1,1 0,0 0,0 0,0 0,0 0,0 0,0 0,0 0,0 0,0 -1,0 -1,1 -1,1 0,0 0,-1 0,-1 0,0 1,0 1,0 0,0 0,0 0,0 0,0 0,-1 0,-1 0,0 0,0 0,0 1,0 1,0 1,0 0,-1 0,-1 0,-1 0,0 1,0 1,0 0,0 0,0 0,0 1,0 1,0 1,0 0,0 0,0 0,0 0,0 1,0 1,0 0,0 0,0 0,0 0,0 0,0 0,0z"/>
        </g>
       </g>
      </g>
     </g>
     <g>
      <g>
       <g>
        <g>
         <path class="fil9" d="M32 110c0,0 0,0 0,0 0,0 0,0 0,1 0,0 0,0 -1,0 0,0 0,0 0,0 0,0 0,0 0,0 0,0 0,1 0,1 0,0 0,0 0,0 0,0 0,0 0,0 -1,0 -1,1 -1,1 0,0 0,0 0,0 0,0 0,0 0,0 0,0 0,0 0,0 0,0 0,0 0,0 0,0 0,0 0,0 0,0 0,0 0,-1 0,0 0,0 0,0 0,0 0,0 0,0 0,0 0,-1 0,-1 0,0 0,0 0,0 1,0 1,0 1,0 0,0 0,-1 0,-1 0,0 0,0 0,0 1,0 1,0 1,0 0,0 0,0 0,0z"/>
        </g>
       </g>
      </g>
     </g>
     <g>
      <g>
       <g>
        <g>
         <path class="fil9" d="M41 116c0,0 0,0 1,0 0,0 0,0 0,0 0,1 0,1 0,1 0,0 0,0 0,0 0,0 0,0 0,0 0,1 0,1 0,1 0,0 0,0 0,0 0,0 0,1 0,1 0,0 0,0 0,0 0,0 0,0 0,1 -1,0 -1,0 -1,0 0,0 0,0 0,0 0,0 0,0 0,0 0,0 0,0 0,0 0,0 0,0 0,0 0,0 0,0 0,0 0,0 0,0 0,0 0,0 0,-1 0,-1 0,0 0,0 0,0 0,0 0,0 0,0 0,-1 0,-1 0,-1 0,0 0,0 0,0 0,0 0,0 0,-1 0,0 0,0 0,0 0,0 0,0 0,0 0,0 0,0 0,-1 0,0 0,0 0,0 0,0 0,0 0,0z"/>
        </g>
       </g>
      </g>
     </g>
     <g>
      <g>
       <g>
        <g>
         <path class="fil9" d="M55 124c0,0 0,0 0,0 0,0 0,0 0,0 0,0 0,-1 0,-1 0,0 0,0 0,0 0,0 0,0 0,-1 0,0 0,0 0,0 0,0 0,0 0,0 0,-1 0,-1 -1,-1 0,0 0,0 0,0 0,-1 0,-1 0,-1 0,0 0,0 0,0 0,0 0,0 0,-1 0,0 0,0 0,0 0,0 0,0 0,0 0,0 0,0 0,0 0,0 0,0 0,0 0,0 0,0 0,1 0,0 1,0 1,0 0,0 0,0 0,0 0,0 0,1 0,1 0,0 0,0 0,0 0,1 0,1 0,1 0,0 0,0 0,0 0,1 0,1 0,1 0,0 0,0 0,0 0,1 0,1 0,1 0,0 0,0 0,0 0,0 0,0 0,0z"/>
        </g>
       </g>
      </g>
     </g>
     <path class="fil10" d="M53 119c1,1 3,5 0,6 -2,2 -9,0 -10,-1 -2,-2 -1,-6 0,-6 2,-1 9,0 10,1l0 0z"/>
     <path class="fil10" d="M18 98c1,3 1,4 1,4 -1,1 -3,4 -5,2 -2,-2 -4,-5 -3,-6 2,-2 4,-2 5,-2 1,0 2,2 2,2z"/>
    </g>
    <path class="fil10" d="M39 115c-2,-3 -7,-2 -8,-2 -1,1 -2,2 -2,0 1,-1 0,-2 -1,-3 0,-1 -1,-2 -3,-3 0,0 0,-1 0,-1 -3,-2 -5,-2 -7,-1 0,1 0,2 0,4l0 0c0,0 1,1 2,2 0,1 1,1 1,2 1,1 3,2 5,3 5,3 13,6 13,6 1,0 2,-4 0,-7z"/>
    <g>
     <path class="fil1" d="M45 104c0,-1 0,-2 -1,-2 0,-1 0,-1 0,-1 1,-2 0,-3 -1,-3 -1,-1 -3,-1 -4,0 0,0 -1,0 -1,0 -2,1 -3,3 -2,5 1,2 2,2 3,2 0,1 1,2 2,2 1,0 2,0 3,0 1,-1 1,-2 1,-3zm-5 -2l0 0c0,1 -2,1 -2,0 0,0 0,-1 0,-1 0,0 0,0 0,0 2,0 2,-1 3,-1 1,0 1,0 1,1 0,0 0,0 0,0 0,0 -1,1 -1,1 0,0 0,0 -1,0zm3 3l0 0c-1,0 -1,0 -1,0 -1,0 -1,0 -1,0 0,-1 0,-1 0,-1 1,0 1,0 1,0 0,0 0,-1 0,-1 1,1 1,1 1,2z"/>
     <g>
      <path class="fil19" d="M40 103c0,0 0,2 -2,1 -2,-1 -2,-4 1,-6 3,-1 6,2 4,4 0,0 2,1 1,3 0,2 -3,2 -3,2 -1,-1 -1,-1 -1,-4z"/>
      <path class="fil20" d="M40 103c0,0 0,1 -2,1 -1,-1 -1,-3 1,-5 3,-1 6,1 4,3 0,0 1,1 1,3 -1,1 -3,1 -3,1 0,0 -1,-1 -1,-3z"/>
      <g>
       <g>
        <g>
         <g>
          <path class="fil21" d="M40 103c0,0 0,0 0,0 0,0 0,0 0,0 0,0 0,0 0,0 0,0 0,-1 0,-1 0,0 0,0 0,0 0,0 0,0 0,0 -1,0 -1,0 -1,0 0,0 0,0 0,0 0,0 0,0 0,0 0,0 0,0 0,0 0,0 0,0 0,0l0 0c0,0 0,0 0,0 -1,0 -1,1 -1,1 0,0 0,0 0,0 0,0 1,0 1,0 0,0 0,0 0,0 0,0 0,0 -1,0 0,0 0,0 0,0 0,0 0,0 0,0 0,-1 0,-1 0,-1 0,0 0,0 0,0 0,0 0,0 0,0 0,0 0,0 0,0 0,0 0,0 0,0 1,0 1,-1 1,-1 0,0 0,0 0,0 0,0 1,0 1,0 0,1 0,1 0,1 0,0 0,0 0,0 0,0 0,1 0,1 0,0 0,0 0,0 0,0 0,0 0,0 0,0 0,0 0,0z"/>
         </g>
        </g>
       </g>
      </g>
      <g>
       <g>
        <g>
         <g>
          <path class="fil21" d="M43 102c0,0 0,0 0,0 0,0 0,0 -1,0 0,0 0,0 0,0 0,0 0,0 0,0 0,0 0,0 0,0 -1,0 -1,-1 -1,-1 0,0 0,0 0,0 0,0 0,0 0,-1 0,0 1,0 1,0 0,0 0,0 0,0 0,0 0,0 0,0 0,0 0,0 0,0 0,0 1,0 1,0 0,0 0,0 0,0 0,0 0,0 0,0 -1,0 -1,0 -1,0 0,0 0,0 0,0 0,0 0,0 0,0 0,0 0,1 0,1 0,0 0,0 0,0 0,0 0,0 0,0 0,0 0,0 0,0 0,0 0,0 0,1 0,0 0,0 0,0 0,0 0,0 0,0 1,0 1,0 1,0 0,0 0,0 0,0z"/>
         </g>
        </g>
       </g>
      </g>
     </g>
    </g>
    <g>
     <path class="fil1" d="M42 84c-1,0 -3,1 -3,2 -1,-1 -2,-1 -3,-1 -1,1 -1,2 -2,3 0,1 1,2 1,2 0,0 0,0 0,0 -1,-1 -3,0 -2,2 0,0 0,1 1,1 0,1 1,1 2,0 0,0 0,-1 0,-2 0,0 0,0 0,0 0,0 0,0 0,0 1,1 1,1 2,1 0,0 0,0 1,0 1,1 2,2 3,1 1,0 2,-2 2,-3 0,0 0,-1 0,-1 1,-2 0,-4 -2,-5zm-5 5l0 0c0,-1 0,-1 0,-1 0,0 0,-1 0,0 1,0 1,0 1,0 0,0 0,0 0,1 0,0 0,0 0,0 -1,0 -1,0 -1,0zm5 -1l0 0c0,1 0,2 -1,3 0,0 0,0 -1,0 0,0 0,-1 0,-1 0,0 0,-1 0,-1 0,0 0,0 0,-1 0,-1 1,-2 2,-1 0,0 0,0 0,0 0,0 0,0 0,1z"/>
     <g>
      <path class="fil19" d="M39 87c0,0 -1,-1 1,-2 2,-1 4,1 4,5 -1,3 -5,4 -6,0 0,0 -1,1 -3,0 -1,-2 1,-4 1,-4 1,0 1,-1 3,1z"/>
      <path class="fil20" d="M40 88c0,0 -1,-2 0,-2 2,-1 4,1 3,3 0,3 -4,4 -4,1 0,0 -2,1 -3,0 -1,-2 0,-3 1,-4 0,0 1,0 3,2z"/>
      <g>
       <g>
        <g>
         <g>
          <path class="fil21" d="M39 87c0,0 0,0 0,0 0,0 0,0 0,0 0,1 1,1 1,1 0,0 0,0 0,0 0,0 0,0 0,0 1,0 1,0 1,0 0,0 0,0 0,0 0,0 0,0 0,-1 0,0 0,0 0,0 0,0 0,0 0,0 0,0 0,0 0,0l0 0c0,0 0,0 0,0 0,0 0,0 0,0 0,-1 0,-1 0,-1 -1,0 -1,0 -1,0 0,0 0,0 0,0 0,0 0,0 0,0 0,0 0,0 1,0 0,0 0,0 0,0 0,0 0,0 0,1 0,0 0,0 0,0 0,0 0,0 1,0 0,0 0,0 0,0 0,0 0,0 0,0 0,0 0,0 0,1 0,0 0,0 -1,0 0,0 0,0 0,0 0,0 0,0 -1,0 0,0 0,0 0,0 0,0 0,0 0,0 -1,0 -1,0 -1,0 0,-1 0,-1 0,-1 0,0 0,0 0,0z"/>
         </g>
        </g>
       </g>
      </g>
      <g>
       <g>
        <g>
         <g>
          <path class="fil21" d="M38 90c0,0 0,0 0,0 1,0 1,0 1,0 0,0 0,0 0,0 0,0 0,0 0,0 0,0 1,0 1,0 0,0 0,0 0,0 0,0 0,0 1,0 0,0 0,0 0,0 0,0 0,0 0,1 0,0 0,0 0,0 0,0 0,0 -1,0 0,0 0,0 0,0 0,0 0,0 0,0 0,0 0,0 0,0 0,0 0,0 0,0 0,0 0,0 0,0 0,0 0,0 0,0 0,0 0,0 0,0 0,0 0,-1 0,-1 0,0 0,0 0,0 0,0 0,0 0,0 0,0 0,0 0,0 0,0 0,0 -1,0 0,0 0,0 0,0 0,0 0,0 0,0 0,0 0,0 -1,0 0,0 0,0 0,0z"/>
         </g>
        </g>
       </g>
      </g>
     </g>
    </g>
    <g>
     <path class="fil1" d="M58 74c-1,0 -1,0 -2,0 0,0 0,0 0,-1 -1,0 -2,0 -3,1 -1,0 -2,1 -2,2 0,0 0,1 1,1 0,2 1,4 2,4 2,0 2,-1 3,-2 0,0 1,0 2,0 0,-1 1,-2 1,-3 0,-1 -1,-2 -2,-2zm-3 3l0 0c0,1 0,2 -1,2 0,0 0,-1 0,-1 0,0 0,0 0,0 0,-1 -1,-2 0,-3 0,0 0,0 1,0 0,0 0,0 0,1 0,0 0,0 0,0 0,0 0,1 0,1zm3 -1l0 0c0,0 0,1 0,1 -1,0 0,0 -1,0 0,0 0,0 0,0 0,0 0,0 0,-1 0,0 0,0 0,0 0,0 1,0 1,0z"/>
     <g>
      <path class="fil19" d="M56 78c0,0 1,0 -1,2 -1,1 -3,-1 -3,-3 0,-3 3,-5 4,-2 0,0 1,-1 3,0 1,1 0,3 0,3 -1,0 -1,1 -3,0z"/>
      <path class="fil20" d="M56 77c0,0 1,1 -1,2 -1,1 -2,0 -3,-2 0,-3 3,-4 4,-2 0,0 1,-1 2,0 1,1 0,3 0,3 0,0 -1,0 -2,-1z"/>
      <g>
       <g>
        <g>
         <g>
          <path class="fil21" d="M56 78c0,0 0,0 0,0 0,0 0,-1 -1,-1 0,0 0,0 0,0 0,0 0,0 0,0 0,0 0,0 0,1 0,0 0,0 -1,0 0,0 0,0 0,0 0,0 0,0 0,0 0,0 0,0 0,0 1,0 1,0 1,0 0,0 0,0 0,0 0,0 0,0 0,1 0,0 0,0 0,0 0,0 0,0 0,0 0,0 0,0 0,0 0,0 0,0 0,0 0,0 0,0 0,0 0,0 0,0 0,0 0,0 -1,0 -1,0 0,0 0,0 0,-1 0,0 0,0 0,0 0,0 0,0 0,0 0,0 0,0 0,0 0,0 0,0 0,-1 0,0 0,0 0,0 1,0 1,0 1,0 0,0 0,0 0,0 0,0 0,0 1,0 0,0 0,0 0,0 0,1 0,1 0,1z"/>
         </g>
        </g>
       </g>
      </g>
      <g>
       <g>
        <g>
         <g>
          <path class="fil21" d="M56 75c0,0 0,0 0,0 0,0 0,0 0,1 0,0 0,0 0,0 0,0 0,0 0,0 -1,0 -1,0 -1,0 0,0 0,0 0,0 0,0 0,0 -1,0 0,0 0,0 0,0 0,-1 0,-1 0,-1 0,0 0,0 0,0 0,0 0,0 0,0 0,0 0,0 0,0 1,0 1,0 1,0 0,0 0,0 0,0 0,0 0,0 0,0 0,0 0,0 0,0 -1,0 -1,0 -1,0 0,0 0,0 1,0 0,0 0,0 0,0 0,0 0,0 0,0 0,0 0,0 0,0 0,0 0,0 0,0 0,0 0,0 0,0 0,0 0,0 1,0 0,0 0,0 0,0 0,0 0,0 0,0 0,0 0,0 0,0z"/>
         </g>
        </g>
       </g>
      </g>
     </g>
    </g>
    <g>
     <path class="fil1" d="M58 86c0,0 -1,0 -1,0 0,0 -1,-1 -1,-1 0,-1 -1,-1 -2,-1 -1,0 -2,1 -3,2 0,0 0,0 0,1 -1,1 -1,3 1,4 1,1 2,0 3,-1 1,1 1,1 2,1 1,0 2,-1 2,-2 0,-1 0,-2 -1,-3zm-4 2l0 0c0,1 -1,2 -1,1 0,0 -1,0 -1,-1 0,0 0,0 1,0 0,0 0,-2 1,-2 0,0 1,-1 1,0 0,0 0,1 0,1 0,0 0,0 0,0 0,0 -1,1 -1,1zm3 1l0 0c0,0 0,0 0,0 -1,0 0,0 -1,0 0,0 0,0 0,0 0,0 0,-1 0,-1 0,0 0,0 0,0 1,0 1,0 1,1z"/>
     <g>
      <path class="fil19" d="M55 89c0,0 0,1 -2,1 -1,1 -2,-1 -1,-4 1,-2 4,-2 4,1 0,0 2,-1 2,1 1,1 -1,3 -1,3 0,0 -1,0 -2,-2z"/>
      <path class="fil20" d="M55 89c0,0 0,1 -1,1 -2,0 -3,-1 -2,-3 1,-3 4,-3 4,0 0,0 1,0 2,1 0,1 -1,2 -1,2 -1,0 -2,0 -2,-1z"/>
      <g>
       <g>
        <g>
         <g>
          <path class="fil21" d="M55 89c0,0 0,0 0,0 0,0 0,0 -1,0 0,-1 0,-1 0,-1 0,0 0,0 0,0 0,0 0,0 0,0 0,0 0,0 -1,0 0,0 0,0 0,1 0,0 0,0 0,0 0,0 0,0 0,0 0,0 0,0 0,0 0,0 0,0 0,0 0,0 0,0 0,0 0,0 1,1 1,1 0,0 0,0 0,0 0,0 0,0 0,0 0,0 0,0 0,0 0,0 0,0 0,0 -1,0 -1,0 -1,-1 0,0 0,0 0,0 0,0 0,0 0,0 0,0 0,0 0,0 0,0 0,0 0,0 0,-1 0,-1 0,-1 0,0 0,0 0,0 0,0 1,0 1,0 0,0 0,0 0,0 0,0 0,0 0,0 1,0 1,0 1,0 0,1 0,1 0,1 0,0 0,0 0,0z"/>
         </g>
        </g>
       </g>
      </g>
      <g>
       <g>
        <g>
         <g>
          <path class="fil21" d="M56 87c0,0 0,0 0,0 0,0 0,0 0,0 0,0 0,0 0,0 -1,0 -1,0 -1,0 0,0 0,0 0,0 0,0 0,0 0,0 -1,0 -1,0 -1,0 0,0 0,-1 0,-1 0,0 0,0 0,0 0,0 0,0 0,0 0,0 1,0 1,0 0,0 0,0 0,0 0,0 0,0 0,0 0,0 0,0 0,0 0,0 0,0 0,0 0,0 0,0 0,0 0,0 0,0 0,0 0,0 0,0 0,0 0,0 0,0 0,0 0,0 0,0 0,0 0,0 0,1 0,1 0,0 0,0 0,0 0,0 0,0 0,0 0,0 0,0 0,0 1,0 1,0 1,0 0,0 0,0 0,0 0,0 0,0 0,0z"/>
         </g>
        </g>
       </g>
      </g>
     </g>
    </g>
    <g>
     <path class="fil1" d="M26 98c0,0 0,0 -1,-1 1,0 1,0 1,0 0,-1 0,-2 -1,-2 -1,-1 -1,-1 -2,-1 0,1 -1,1 -1,1 -1,0 -2,1 -1,2 0,1 1,2 1,2 0,0 1,1 1,1 1,0 1,0 2,0 0,0 1,-1 1,-2zm-3 -1l0 0c0,0 -1,0 -1,0 0,0 0,-1 0,-1 0,0 0,0 0,0 1,0 1,0 2,0 0,0 1,0 0,0 0,1 0,1 0,1 0,0 0,0 0,0 0,0 -1,0 -1,0zm1 2l0 0c0,0 0,0 0,0 0,0 0,0 0,0 0,0 0,0 0,-1 0,0 0,0 0,0 0,0 0,0 0,0 1,0 1,0 0,1z"/>
     <g>
      <path class="fil19" d="M23 98c0,0 0,1 -1,0 -1,-1 -1,-2 1,-3 2,-1 3,1 2,3 0,0 1,0 0,1 0,1 -2,1 -2,1 0,0 0,-1 0,-2z"/>
      <path class="fil20" d="M23 98c0,0 0,0 -1,0 -1,-1 -1,-2 1,-3 1,0 3,1 2,2 0,0 0,1 0,2 0,1 -2,1 -2,0 0,0 0,0 0,-1z"/>
      <g>
       <g>
        <g>
         <g>
          <path class="fil21" d="M23 98c0,0 0,0 0,0 0,0 0,0 0,-1 0,0 0,0 0,0 0,0 0,0 0,0 0,0 0,0 0,0 0,0 0,0 0,0 0,0 0,0 0,0 -1,0 -1,0 -1,0 0,0 0,0 0,0 0,0 0,0 0,0 0,0 0,0 0,0 0,0 0,0 0,1 0,0 0,0 0,0 0,0 0,0 0,0 0,0 0,0 0,0 0,0 0,-1 0,-1 0,0 0,0 0,0 0,0 0,0 0,0 0,0 0,0 0,0 0,0 0,0 0,0 0,-1 1,-1 1,-1 0,1 0,1 0,1 0,0 0,0 0,0 0,0 0,0 0,0 0,0 0,0 0,0 0,1 0,1 0,1 0,0 0,0 0,0z"/>
         </g>
        </g>
       </g>
      </g>
      <g>
       <g>
        <g>
         <g>
          <path class="fil21" d="M25 98c0,0 0,0 0,0 0,-1 -1,-1 -1,-1 0,0 0,0 0,0 0,0 0,0 0,0 0,0 0,0 0,0 0,0 0,0 0,0 0,0 0,0 0,-1 0,0 0,0 0,0 0,0 0,0 0,0 0,0 0,0 0,0 1,0 1,0 1,0 0,0 0,0 0,0 0,0 0,0 0,0 0,0 -1,0 -1,0 0,0 0,0 0,0 0,0 0,0 0,0 0,1 0,1 0,1 0,0 0,0 0,0 0,0 0,0 0,0 0,0 0,0 0,0 0,0 0,0 0,0 1,0 1,0 1,0 0,0 0,0 0,0 0,0 0,1 0,1z"/>
         </g>
        </g>
       </g>
      </g>
     </g>
    </g>
    <g>
     <path class="fil1" d="M49 104c1,0 1,1 2,1 0,0 0,0 0,1 0,1 1,1 2,1 1,0 2,0 3,-1 0,0 0,-1 0,-1 1,-1 2,-3 0,-4 -1,-1 -2,-1 -3,0 0,-1 -1,-1 -2,-1 0,0 -1,0 -2,1 0,1 0,2 0,3zm5 -1l0 0c0,-1 1,-1 1,-1 0,1 0,1 0,1 0,0 0,0 0,0 -1,1 0,2 -1,2 -1,1 -1,1 -1,0 0,0 0,-1 0,-1 0,0 0,0 0,0 0,0 0,-1 1,-1zm-3 -1l0 0c0,0 0,0 0,0 1,0 0,-1 1,0 0,0 0,0 0,0 0,0 0,0 0,1 0,0 0,0 0,0 -1,0 -1,0 -1,-1z"/>
     <g>
      <path class="fil19" d="M53 102c0,0 0,-1 2,-1 1,0 2,2 1,4 -2,3 -5,2 -5,-1 0,0 -1,0 -2,-1 0,-2 2,-3 2,-3 1,0 1,0 2,2z"/>
      <path class="fil20" d="M53 102c0,0 0,-1 1,-1 2,0 3,2 1,4 -1,2 -4,1 -3,-1 0,0 -2,0 -2,-1 0,-2 1,-2 2,-2 0,0 1,0 1,1z"/>
      <g>
       <g>
        <g>
         <g>
          <path class="fil21" d="M53 102c0,0 0,0 0,0 0,0 0,0 0,1 0,0 1,0 1,0 0,0 0,0 0,0 0,0 0,0 0,0 0,0 0,0 0,0 0,0 0,0 0,0 1,0 1,0 1,0 0,0 0,0 0,0 0,0 0,-1 0,-1 0,0 0,0 0,0 0,0 0,0 0,0 0,0 0,0 -1,0 0,0 0,0 0,0 0,0 0,0 0,0 0,0 0,0 0,0 0,0 0,0 0,0 1,0 1,0 1,0 0,0 0,0 0,0 0,0 0,0 0,0 0,1 0,1 0,1 0,0 0,0 0,0 0,0 0,0 0,0 0,0 0,0 0,0 -1,0 -1,0 -1,0 0,0 0,0 0,0 -1,0 -1,0 -1,0 0,0 0,0 0,0 0,0 0,-1 0,-1 0,0 0,0 0,0z"/>
         </g>
        </g>
       </g>
      </g>
      <g>
       <g>
        <g>
         <g>
          <path class="fil21" d="M51 104c0,0 0,0 1,0 0,0 0,0 0,0 0,0 0,0 0,0 0,0 0,0 0,0 0,0 1,0 1,0 0,0 0,0 0,0 0,0 0,0 0,0 0,1 0,1 0,1 0,0 0,0 0,0 0,0 0,0 0,0 0,0 0,0 0,0 0,0 0,0 0,0 -1,0 -1,0 -1,0 0,0 0,0 0,0 0,0 0,0 0,0 0,0 1,0 1,0 0,0 0,0 0,0 0,0 0,0 0,0 0,0 0,0 0,0 0,0 0,0 0,0 0,0 0,-1 0,-1 0,0 0,0 -1,0 0,0 0,0 0,0 0,0 0,0 0,0 0,0 0,0 0,0 0,0 0,0 0,0 -1,0 -1,0 -1,0z"/>
         </g>
        </g>
       </g>
      </g>
     </g>
    </g>
    <path class="fil1" d="M47 91c0,0 0,0 0,0 0,0 -1,0 -1,0 0,0 0,0 0,0 0,0 0,0 -1,0 0,0 0,0 0,1 0,0 0,0 0,0 0,0 0,0 0,0 0,0 0,0 0,0 0,1 1,1 1,1 0,0 0,0 0,0 0,0 1,0 1,0 0,-1 0,-1 0,-1 0,0 0,-1 0,-1z"/>
    <path class="fil1" d="M49 81c0,-1 -2,-2 -3,-1 -1,1 0,3 2,3 0,0 0,0 0,1 1,0 1,-1 2,-1 0,-1 0,-2 -1,-2z"/>
    <path class="fil1" d="M54 93c0,0 0,0 0,0 -1,0 -2,0 -3,0 0,0 0,0 0,1 -1,1 1,3 2,3 1,1 2,0 2,-1 0,-1 0,-2 -1,-3z"/>
    <path class="fil1" d="M49 108c-1,0 -1,-1 -2,-1 0,-1 -1,-1 -1,0 -1,0 -1,0 -1,1 0,0 0,1 1,1 0,0 0,0 0,0 0,1 1,1 1,1 1,0 1,0 1,-1 1,0 1,0 1,-1z"/>
    <path class="fil1" d="M28 98c0,0 0,0 -1,0 0,0 0,0 -1,0 0,1 0,1 0,1 0,0 0,0 0,0 0,1 0,1 1,1l0 0c0,0 0,0 0,0 0,0 1,0 1,0 0,0 0,0 0,0 0,-1 0,-1 0,-1 0,0 0,-1 0,-1z"/>
    <path class="fil1" d="M29 94c-1,-1 -2,-2 -3,-1 0,1 0,1 0,2 0,0 0,1 0,1 1,0 1,1 2,1 0,1 1,0 1,0 1,-1 1,-2 0,-3z"/>
    <path class="fil1" d="M46 98c0,0 0,0 0,0 0,0 0,0 0,0 0,0 -1,-1 -1,-1 0,0 0,0 0,1 0,0 -1,0 -1,0 0,0 1,1 1,1 0,0 0,0 0,0 0,0 1,0 1,0 0,0 0,0 0,0 0,-1 0,-1 0,-1z"/>
    <path class="fil0" d="M48 80c0,0 0,0 0,0 -1,0 -1,0 -1,0 0,0 0,1 0,1 0,0 0,0 0,0 0,0 0,0 0,0 0,0 0,0 0,0 0,0 0,0 0,1 0,0 1,0 1,0 0,0 0,0 0,0 0,0 0,-1 0,-1 0,0 0,0 0,-1z"/>
    <g>
     <path class="fil0" d="M53 80c0,0 0,0 0,0 0,0 0,0 0,0 0,0 0,0 0,0 0,0 0,0 0,0 0,0 0,0 0,0 0,0 0,0 0,0 0,0 0,0 0,0 0,0 0,0 0,0 0,-1 0,-1 0,-1 0,0 0,0 0,0 0,0 0,0 0,0 0,0 0,0 0,0 0,0 0,0 0,0 0,0 -1,0 -1,0 0,1 -1,1 0,1 0,1 0,1 1,1 0,0 0,0 0,0 0,0 0,0 0,0 1,-1 0,-1 0,-1z"/>
     <path class="fil0" d="M53 80c0,-1 0,-1 0,-1 0,0 0,0 0,1 0,0 0,0 0,0z"/>
    </g>
    <path class="fil0" d="M59 73c0,0 0,0 0,0 -1,0 -1,0 -1,0 0,0 0,0 0,0 0,0 0,0 0,1 0,0 0,0 0,0 0,0 0,0 0,0 0,0 0,0 0,0 0,0 0,0 0,0 1,0 1,0 1,0 0,0 0,0 0,0 0,0 0,-1 0,-1z"/>
    <path class="fil0" d="M28 95c0,0 0,0 -1,-1 0,0 0,0 0,0 0,0 0,0 0,0 0,0 -1,0 -1,0 0,0 0,1 0,1 0,0 0,0 0,0 0,0 0,1 0,1 1,0 1,0 1,0 1,0 1,0 1,-1 0,0 0,0 0,0z"/>
    <path class="fil0" d="M36 91c0,0 -1,0 -1,0 0,0 0,0 0,0 0,-1 0,-1 0,-1l0 0c0,0 0,0 0,0 0,0 0,0 0,0 0,0 0,0 0,0 0,0 0,0 -1,0 0,0 0,0 0,1 0,0 0,0 0,0 0,1 1,1 1,1 0,0 0,0 1,0 0,-1 0,-1 0,-1z"/>
    <path class="fil0" d="M38 106c0,0 0,0 -1,0 0,0 0,0 0,0 -1,0 -1,0 -1,0l0 0c0,1 0,1 0,1 0,0 0,0 0,0 0,0 0,0 0,1 0,0 0,0 1,0 0,0 1,0 1,0 0,-1 0,-1 0,-2z"/>
    <path class="fil0" d="M34 103c0,0 0,0 -1,0 0,0 0,0 0,-1 0,0 -1,0 -1,1 0,0 0,0 0,1 0,0 0,0 0,0 1,0 1,0 1,0 0,0 0,0 0,0 1,0 1,-1 1,-1z"/>
    <path class="fil0" d="M56 95c-1,-1 -1,-1 -2,-2 -1,0 -1,0 -2,1 0,0 0,0 0,0 0,2 1,3 2,3 1,0 2,-1 2,-2z"/>
    <path class="fil0" d="M58 95c0,0 0,0 -1,0 0,0 0,0 0,1 0,0 0,1 1,1 0,-1 1,-1 0,-2z"/>
    <g>
     <path class="fil22" d="M30 92c0,0 4,1 2,5l-2 0c0,0 2,-1 1,-2 0,-2 -2,-2 -2,-2l1 -1z"/>
     <path class="fil22" d="M47 100c0,0 0,-2 1,-3l1 0c0,0 -1,1 -1,2 0,0 1,1 1,1l-2 0z"/>
     <path class="fil22" d="M40 95c0,0 3,-3 4,0l0 1c0,0 0,-1 -2,-2 -1,0 -2,1 -2,1l0 0z"/>
     <path class="fil22" d="M47 85c0,0 0,1 3,0l0 1c0,0 -3,1 -4,0l1 -1z"/>
     <path class="fil22" d="M53 83c0,0 2,0 4,-3l-1 0c0,0 0,2 -3,2l0 1z"/>
     <path class="fil22" d="M46 108l0 1c0,0 3,3 6,0l0 -2c0,0 -1,2 -3,2 -2,1 -3,-1 -3,-1z"/>
     <path class="fil22" d="M46 77c0,0 -2,2 0,4l0 0c0,0 -1,-2 0,-4l0 0z"/>
     <path class="fil22" d="M54 112c0,0 -1,2 0,3l1 0c0,0 -1,-2 0,-4l-1 1z"/>
     <path class="fil22" d="M29 100c0,0 -2,2 -1,5l1 0c0,0 -1,-2 0,-2 0,-2 1,-2 1,-2l-1 -1z"/>
     <path class="fil22" d="M59 98c0,0 -2,-2 -4,0l0 0c0,0 1,-1 4,1l0 -1z"/>
    </g>
    <path class="fil23" d="M35 95c-1,0 -1,1 -1,1 -1,1 -1,1 -1,2 1,1 2,2 3,1 0,0 1,0 1,0 0,-1 0,-1 0,-1 1,-2 -1,-3 -2,-3z"/>
    <path class="fil23" d="M50 92c0,0 0,0 -1,0l0 0c0,-1 0,-1 0,-1 0,0 -1,1 -1,1 0,0 0,0 0,0 0,0 0,0 0,1 0,0 0,0 0,0 0,0 0,1 1,1 0,0 0,0 0,0 0,0 0,0 0,0 1,-1 1,-1 1,-1 0,0 0,0 0,0 0,0 0,0 0,0 0,-1 0,-1 0,-1z"/>
    <path class="fil23" d="M45 81c-1,0 -1,0 -2,1 0,0 0,0 0,1 0,0 0,0 0,0 0,1 0,1 0,2 1,0 1,0 2,0 0,0 1,0 1,-1 0,-1 0,-2 -1,-3z"/>
    <path class="fil23" d="M52 83c0,0 0,0 0,0 0,0 0,0 0,0 -1,0 -1,0 -1,0 0,0 0,0 0,0 0,0 0,0 -1,0 0,0 0,1 0,1 1,0 1,0 1,0 0,0 0,1 0,0 1,0 1,0 1,0 0,0 0,-1 0,-1z"/>
    <path class="fil23" d="M51 112c-1,0 -2,0 -3,0 0,0 -1,0 -1,1 0,1 1,1 1,1 0,0 1,0 1,0 0,0 0,0 0,0 1,0 1,0 1,0 1,0 1,0 1,-1 0,0 0,-1 0,-1z"/>
    <path class="fil23" d="M57 83c0,0 -1,-1 -1,-1 0,0 0,1 0,1 0,0 -1,0 0,0 0,0 0,0 0,0 0,1 0,1 0,1 0,0 0,0 0,0 1,0 1,0 1,0 0,0 0,-1 0,-1 0,0 0,0 0,0 0,0 0,0 0,0z"/>
    <path class="fil23" d="M34 106c0,0 -1,-1 -1,-1 0,0 0,0 0,0 -1,0 -1,1 -1,1 0,0 0,1 0,1 0,0 0,0 0,0 0,1 1,1 1,1 0,0 0,0 0,0 1,-1 1,-1 1,-1 0,0 0,0 0,0 0,0 0,-1 0,-1z"/>
   </g>
   <g>
    <g>
     <path class="fil0" d="M72 10c0,0 -5,21 -6,31 -2,10 -3,20 -2,21 1,1 24,-12 25,-14 2,-1 13,-7 16,-8 3,-2 5,-4 6,-5 0,-1 -3,-13 -11,-17 -8,-5 -23,-13 -28,-8z"/>
     <path class="fil1" d="M72 14c0,0 -4,17 -5,26 -2,9 -2,19 -1,19 1,1 21,-11 22,-12 2,-1 11,-7 14,-8 3,-2 5,-4 5,-5 1,0 -4,-7 -11,-11 -7,-5 -18,-11 -24,-9z"/>
     <path class="fil2" d="M110 34c0,1 -1,0 -2,-1 0,0 -1,-1 -1,-2 0,-1 0,-1 0,-2 0,-1 -1,-1 -2,-2 -1,-1 -2,-2 -3,-2 -1,-1 -2,-1 -2,-2 0,-1 0,-1 -1,-2 -1,0 -1,0 -2,0 -1,-1 -1,-1 -2,-1 -1,-1 -3,-2 -4,-3 -2,0 -3,-1 -4,-2 -1,0 -2,-1 -2,-1 -1,-1 -2,-1 -3,-1 -1,0 -3,-2 -4,-2 -1,0 -2,0 -3,0 -1,0 -2,0 -3,-1 0,0 -1,0 -1,1 1,1 3,1 4,1 1,0 2,0 3,1 1,0 1,0 2,1 1,0 1,0 1,0 0,0 0,0 0,0 0,1 0,1 0,1 0,0 1,1 2,1 0,0 0,-1 0,-1 0,0 0,0 0,0 0,0 0,0 0,0 1,0 1,0 2,1 1,0 1,1 2,1 1,1 2,1 3,1 0,1 1,1 2,1 1,1 1,1 2,2 1,0 1,1 2,1 1,0 2,0 2,1 1,0 1,1 1,2 1,1 1,1 2,1 1,1 2,1 2,1 1,1 2,2 2,2 1,1 1,1 1,2 0,0 0,1 0,1 0,1 1,2 1,2 1,2 3,3 4,1 1,-1 0,-1 -1,-1z"/>
     <path class="fil2" d="M97 23c0,0 0,0 -1,0 0,1 1,1 1,2 0,0 1,0 1,-1 0,0 0,-1 -1,-1z"/>
     <path class="fil2" d="M96 22c-1,0 -1,0 -1,0 0,1 0,1 1,1 0,0 0,0 0,-1 0,0 0,0 0,0z"/>
     <path class="fil2" d="M81 15c-1,0 -1,1 0,1 0,-1 0,-1 0,-1z"/>
     <path class="fil3" d="M73 15c0,-1 5,1 8,1 2,1 9,7 11,8 2,0 6,3 8,5 2,2 4,5 4,6 0,1 -6,6 -9,7 -3,0 -15,8 -18,9 -3,2 -7,4 -9,4 -1,-1 0,-9 1,-11 1,-2 2,-9 3,-12 0,-2 -1,-14 1,-17z"/>
     <path class="fil4" d="M73 3c1,-1 11,0 23,6 12,7 21,17 22,21 0,5 -7,7 -8,6 -2,-1 -4,-7 -5,-8 0,-1 -8,-7 -11,-8 -2,-1 -6,-3 -8,-5 0,0 -8,-3 -10,-3 -2,-1 -4,-1 -5,-2 -1,-1 -1,-5 2,-7z"/>
     <g>
      <g>
       <g>
        <g>
         <path class="fil9" d="M106 28c0,0 0,0 0,0 0,0 0,0 0,0 0,0 0,0 0,0 0,0 1,0 1,0 0,0 0,0 0,-1 0,0 0,0 1,0 0,0 0,0 0,0 0,0 0,0 1,0 0,0 0,0 0,0 0,0 0,-1 0,-1 1,0 1,0 1,0 0,0 0,0 0,0 0,0 0,0 0,0 0,0 0,0 0,0 0,0 0,0 0,0 0,0 0,0 0,0 0,0 0,0 0,0 0,1 0,1 0,1 0,0 0,0 -1,0 0,0 0,0 0,0 0,1 0,1 -1,1 0,0 0,0 0,0 0,0 0,0 -1,0 0,0 0,0 0,0 0,0 0,0 -1,0 0,0 0,0 0,0 0,0 0,0 0,0 0,0 0,0 0,0z"/>
        </g>
       </g>
      </g>
     </g>
     <g>
      <g>
       <g>
        <g>
         <path class="fil9" d="M95 21c0,0 0,-1 0,-1 0,0 0,0 0,0 0,0 1,0 1,0 0,0 0,0 0,-1 0,0 0,0 0,0 0,0 0,0 0,0 0,0 0,0 0,0 1,-1 1,-1 1,-1 0,0 0,0 0,0 0,0 0,0 0,0 0,0 0,-1 0,-1 0,0 0,0 0,0 0,0 0,0 0,0 0,0 0,1 0,1 0,0 0,0 0,0 0,0 0,0 0,1 0,0 0,0 0,0 0,0 0,0 0,0 0,0 0,0 0,1 0,0 -1,0 -1,0 0,0 0,0 0,0 0,0 0,0 0,0 0,0 -1,0 -1,0 0,1 0,1 0,1z"/>
        </g>
       </g>
      </g>
     </g>
     <g>
      <g>
       <g>
        <g>
         <path class="fil9" d="M86 14c0,0 0,0 0,0 0,0 0,0 0,0 0,0 0,-1 0,-1 0,0 0,0 0,0 -1,0 -1,0 -1,0 0,-1 0,-1 0,-1 0,0 0,0 1,0 0,0 0,-1 0,-1 0,0 0,0 0,0 0,0 0,0 0,-1 0,0 0,0 0,0 0,0 0,0 0,0 0,0 1,0 1,0 0,0 0,0 0,0 0,0 0,0 0,0 0,0 0,0 0,0 0,0 0,0 0,0 0,1 0,1 0,1 -1,0 -1,0 -1,0 0,0 0,0 0,0 0,1 0,1 0,1 0,0 0,0 0,0 0,0 0,0 0,1 0,0 0,0 0,0 0,0 0,0 0,0 0,0 0,1 0,1 0,0 0,0 0,0 0,0 0,0 0,0z"/>
        </g>
       </g>
      </g>
     </g>
     <g>
      <g>
       <g>
        <g>
         <path class="fil9" d="M73 5c0,0 0,0 0,0 0,1 0,1 0,1 0,0 0,0 0,0 0,0 0,0 0,1 0,0 0,0 0,0 0,0 0,0 0,0 0,1 0,1 0,1 0,0 0,0 0,0 0,1 0,1 0,1 0,0 0,0 0,0 0,0 0,1 1,1 0,0 0,0 0,0 0,0 0,0 0,0 0,0 0,1 0,1 0,0 0,-1 0,-1 0,0 -1,0 -1,0 0,0 0,0 0,0 0,0 0,0 0,0 0,-1 0,-1 0,-1 0,0 -1,0 -1,0 0,-1 0,-1 0,-1 0,0 0,0 0,0 0,-1 0,-1 0,-1 0,0 0,0 0,0 0,-1 0,-1 0,-1 0,0 0,0 0,0 0,0 1,0 1,-1 0,0 0,0 0,0z"/>
        </g>
       </g>
      </g>
     </g>
     <path class="fil10" d="M75 10c-2,-1 -3,-4 -1,-6 3,-1 10,1 11,2 1,2 1,6 -1,6 -1,1 -8,0 -9,-2z"/>
     <path class="fil10" d="M102 24c-2,-2 -5,-4 -4,-6 0,-2 4,-3 7,0 4,2 5,6 3,8 -1,1 -3,1 -6,-2z"/>
     <path class="fil10" d="M109 33c-1,-3 -2,-4 -1,-4 1,-1 3,-3 5,-2 2,2 4,5 2,7 -1,1 -3,1 -4,1 -1,0 -2,-2 -2,-2z"/>
    </g>
    <path class="fil1" d="M80 30c0,0 -1,0 -1,0 0,1 -1,1 -1,2 0,0 0,1 0,2 0,0 0,0 0,0 0,0 0,0 -1,0 0,0 -1,0 -1,0 -1,1 -3,1 -4,0 -1,0 -2,-1 -3,0 0,0 -1,0 0,1 0,1 2,1 3,2 2,0 3,0 5,0 1,0 3,-1 4,-2 0,-1 0,-2 0,-2 0,-1 0,-2 -1,-3z"/>
    <path class="fil1" d="M90 23c0,-2 -1,-2 -2,-2 -1,0 -2,0 -4,0 -1,0 -2,-1 -3,-1 -1,-1 -1,0 -1,1 -1,0 -2,1 -2,2 0,1 0,1 0,2 2,1 3,1 5,2 1,0 2,-1 3,-1 1,0 1,0 2,0 0,0 0,1 1,1 0,0 1,0 1,-1 0,-1 0,-2 0,-3zm-5 1l0 0c-2,0 -3,0 -5,-1 0,0 0,-1 1,-1 1,1 3,1 5,1 0,0 1,0 2,0 0,0 0,0 0,0 0,1 0,1 0,1 0,0 0,0 0,0 -1,0 -2,0 -3,0z"/>
    <path class="fil1" d="M91 36c0,0 0,-1 -1,-1 -1,0 -2,0 -3,0 -1,0 -2,0 -2,0 -1,0 -1,0 -1,0 0,0 -1,1 -1,1 0,3 0,6 0,9 1,1 1,1 2,1 2,0 3,0 5,0 1,0 2,0 1,-1 0,-3 -2,-6 0,-9zm-4 1l0 0c0,0 1,0 1,0 0,2 0,5 1,7 -1,0 -2,0 -3,0 -1,-3 -1,-5 0,-7 0,0 1,0 1,0z"/>
    <path class="fil1" d="M101 34c0,-1 -1,-1 -2,-2 -1,-1 -2,-2 -2,-4 0,0 -1,-1 -1,-1 -1,1 -2,1 -2,1 -1,1 -1,1 0,2 -1,1 0,2 0,3 1,1 1,1 2,2 0,0 0,1 1,1 0,1 0,2 1,1 1,0 2,-1 3,-1 1,-1 1,-1 0,-2zm-6 -3l0 0c0,0 0,0 0,-1 0,0 0,0 0,0 0,0 0,0 0,0 0,1 1,2 2,3 0,0 1,1 2,2 0,0 -1,0 -1,0 0,-1 -1,-1 -1,-2 -1,0 -1,-1 -2,-2z"/>
    <path class="fil1" d="M75 18c-1,-1 -2,0 -3,0 0,0 -1,0 -1,1 0,0 0,0 0,0 0,1 1,1 1,1 0,0 1,0 1,0 0,0 0,0 0,0 0,0 0,1 0,1 0,0 0,0 0,0 0,0 -1,0 -1,0 0,0 -1,0 -1,1 -1,0 0,1 0,1 1,0 2,0 3,0 1,-1 1,-2 1,-2 0,-1 0,-2 0,-3z"/>
    <path class="fil1" d="M78 51c0,-1 -1,-2 -2,-3 -1,0 -1,-1 -1,-1 -1,-1 -1,-1 -1,-2 -1,-1 -2,0 -3,0 -2,0 -3,1 -4,2 0,0 0,0 0,1 0,2 3,4 4,5 1,0 1,0 1,1 1,0 1,0 1,1 1,0 3,-1 4,-2 0,0 0,0 0,0 1,-1 1,-1 1,-2zm-6 -1l0 0c-1,0 -2,-1 -2,-1 0,-1 -1,-1 -1,-1 1,0 2,-1 2,-1 1,0 1,0 1,0 0,0 0,0 0,1 1,0 1,1 2,2 1,0 1,1 2,1 -1,1 -1,1 -2,1 0,0 0,-1 0,-1 -1,0 -2,-1 -2,-1z"/>
    <path class="fil0" d="M79 33c-1,0 -1,0 -1,0 0,1 0,1 -1,1 0,1 0,1 0,1 -1,0 -2,0 -2,0 -1,0 -2,0 -2,0 0,0 0,0 0,-1 -1,0 -1,0 -2,0 0,0 -1,0 -1,0 -1,0 -1,0 -1,0 1,1 1,1 2,1 0,1 1,1 1,0 1,1 3,1 4,1 1,0 2,-1 3,-2 0,0 0,-1 0,-1z"/>
    <path class="fil0" d="M85 39c0,-1 0,-2 0,-2 0,-1 0,-1 0,-1 -1,0 -1,1 -1,2 0,1 0,2 0,3 0,2 -1,4 1,5 1,0 1,-1 1,-1 -1,0 -1,-1 -1,-1 0,-1 0,-1 0,-1 0,-2 0,-3 0,-4z"/>
    <path class="fil0" d="M72 51c-1,0 -2,-1 -2,-1 -1,-1 -1,-2 -1,-3 0,0 0,0 -1,0 0,2 1,3 2,4 0,1 1,1 2,1 0,1 1,1 1,1 0,1 0,1 1,1 0,0 0,0 0,0 1,-1 -1,-2 -2,-3z"/>
    <path class="fil0" d="M97 34c-1,-2 -1,-3 -2,-5 0,0 -1,0 -1,1 0,1 1,2 1,3 0,1 1,1 1,2 0,0 1,0 1,1 0,0 1,0 1,0 1,-1 -1,-2 -1,-2z"/>
    <path class="fil0" d="M89 25c-1,-1 -3,0 -5,0 0,0 -1,0 -2,-1 -1,0 -2,0 -2,0 -1,0 -1,0 -1,0 1,2 3,2 4,2 1,0 2,0 3,0 1,-1 2,-1 3,-1 0,0 0,0 0,0z"/>
    <path class="fil24" d="M74 55c0,0 -1,-2 -2,-3 -3,-1 -4,-4 -4,-5 0,0 5,-2 5,-1 0,0 0,2 1,3 1,1 3,2 3,3 0,0 -1,2 -3,3z"/>
    <path class="fil24" d="M69 34c0,0 1,1 3,1 0,0 3,1 4,1 2,-1 3,-2 3,-2 0,0 0,-5 0,-5 0,0 -3,2 -4,2 -1,0 -3,-1 -5,-1 0,0 -1,3 -1,4z"/>
    <path class="fil24" d="M79 24c0,0 1,-3 1,-4 0,0 3,2 4,2 1,-1 4,-1 5,0 0,0 0,3 0,4 0,0 -1,-1 -3,-1 -1,0 -3,0 -4,0 -2,0 -3,-1 -3,-1z"/>
    <path class="fil24" d="M85 35c0,0 5,0 5,1 0,0 -1,3 -1,4 1,1 2,5 2,5 0,0 -6,1 -6,1 -1,-1 -1,-3 -1,-4 0,-1 0,-6 1,-7z"/>
    <path class="fil24" d="M94 29c0,0 2,-1 2,0 0,0 1,2 2,3 1,1 2,1 3,3 0,0 -3,1 -3,1 0,0 -1,-1 -1,-1 -1,-1 -2,-2 -3,-6z"/>
    <path class="fil24" d="M70 18c0,0 2,1 4,1 0,0 0,2 0,3 -1,1 -4,0 -5,0 0,0 1,-3 1,-4z"/>
    <g>
     <path class="fil25" d="M71 21c0,-1 0,-2 1,-2 -1,0 -1,-1 -1,-1 0,1 0,1 0,1 0,1 -1,2 -1,3 1,0 1,0 1,0 0,0 0,-1 0,-1z"/>
    </g>
    <g>
     <path class="fil25" d="M82 21c0,0 0,0 0,0 -1,1 -1,1 -1,2 0,1 -1,1 -1,2 1,0 1,0 2,0 0,0 0,-1 0,-2 0,0 0,-1 0,-2z"/>
     <path class="fil25" d="M86 21c-1,1 -1,1 -1,1 0,1 0,2 0,3 1,0 1,0 1,0 0,-1 -1,-2 0,-4z"/>
    </g>
    <g>
     <path class="fil25" d="M73 30c0,0 -1,0 -1,0 0,2 -1,3 -1,5 0,0 0,0 0,0 0,0 1,-1 1,-1 0,-1 1,-2 1,-4z"/>
     <path class="fil25" d="M77 31c0,0 0,0 0,-1 -1,1 -1,1 -2,1 0,0 0,0 0,0 0,1 0,2 0,3 -1,0 -1,1 0,2 0,0 1,0 1,0 0,0 1,0 1,0 0,-2 0,-4 0,-5z"/>
    </g>
    <g>
     <path class="fil25" d="M89 40c0,0 0,0 0,0 0,0 0,-1 0,-1 0,0 0,0 0,0 0,0 0,0 -1,0 -1,0 -2,0 -4,0 0,0 0,1 0,1 2,1 4,1 5,0z"/>
     <path class="fil25" d="M84 44c0,0 0,0 0,0 2,0 4,0 6,0 0,-1 0,-1 0,-1 -2,0 -4,0 -6,1z"/>
    </g>
    <g>
     <path class="fil25" d="M97 32c0,0 0,-1 0,-1 0,0 0,0 0,-1 0,1 0,1 -1,1 0,0 -1,0 -1,0 0,0 0,0 0,0 0,1 0,2 0,2 1,0 1,-1 2,-1z"/>
     <path class="fil25" d="M100 33c-1,0 -1,1 -1,1 0,0 -1,1 -2,1 0,0 0,0 0,1 1,-1 2,-1 4,-2 -1,0 -1,0 -1,-1z"/>
    </g>
    <g>
     <path class="fil25" d="M74 47c-1,0 -1,0 -1,-1 0,1 -1,1 -1,1 -1,1 -2,1 -3,1 0,1 0,1 0,1 0,0 0,0 0,1 1,-1 2,-1 2,-2 1,0 2,0 3,-1z"/>
     <path class="fil25" d="M75 50c0,-1 0,-1 -1,-1 -1,1 -2,1 -3,2 0,0 0,0 0,0 0,1 0,1 1,1 0,0 0,0 0,0 1,-1 2,-2 3,-2z"/>
    </g>
    <path class="fil0" d="M76 14c-1,0 -1,0 -1,0 0,0 0,0 0,0 0,0 0,-1 0,-1 0,0 0,0 -1,0 0,0 0,0 0,0 0,0 0,0 0,0 0,0 0,0 0,0 0,0 0,0 0,1 -1,0 -1,0 -1,0 0,0 0,0 0,0 0,1 0,1 1,1 0,0 0,0 0,0 0,0 0,0 0,0 0,1 0,1 1,1 0,0 0,-1 0,-1 0,0 0,0 0,0 1,0 1,-1 1,-1z"/>
    <path class="fil0" d="M83 18c0,0 0,0 0,0 0,0 0,0 0,0 0,0 0,0 0,0 0,0 0,0 0,0 0,0 0,0 0,0 0,0 0,0 0,0 0,0 0,0 0,0 0,-1 0,-1 0,-1 0,0 0,0 -1,0 0,0 0,1 0,1l0 0c0,0 0,0 0,0 0,0 0,0 0,0 0,1 0,1 0,1 0,0 0,0 0,0 0,0 0,0 1,0 0,0 0,0 0,0 0,0 0,0 0,0 0,0 0,0 0,0 1,-1 1,-1 0,-1z"/>
    <path class="fil0" d="M75 26c-1,0 -1,0 -1,0 0,0 0,0 0,0 0,0 0,0 0,-1 0,0 0,0 -1,0 0,0 0,0 0,1 0,0 0,0 0,0 -1,0 -1,1 0,1 0,0 0,0 0,0 0,1 1,1 1,0 0,0 0,0 0,0 0,0 0,0 1,0 0,0 0,0 0,-1 0,0 0,0 0,0z"/>
    <path class="fil0" d="M88 30c0,0 0,0 1,0 -1,0 -1,-1 -1,-1 0,0 0,0 0,0 0,0 0,0 0,0 -1,0 -1,0 -1,0 0,0 -1,0 -1,1 0,0 0,1 0,1 1,0 1,1 2,0 0,0 1,0 1,-1 0,0 0,0 0,0 0,0 0,0 -1,0z"/>
    <path class="fil0" d="M95 36c0,0 -1,-1 -1,-1 0,0 0,0 0,0 0,0 -1,0 -1,0 0,0 0,0 0,0 0,0 0,0 0,0 0,0 -1,1 -1,1 0,1 0,1 1,1 0,0 0,1 0,1 1,0 1,0 1,-1 1,0 1,0 1,-1z"/>
    <path class="fil0" d="M81 45c-1,0 -1,0 -1,0 0,0 0,0 0,0 0,0 0,0 0,0 0,0 0,0 0,0 0,-1 0,-1 0,-1 0,0 -1,0 -1,0 0,0 0,0 0,0 -1,0 -1,1 -1,1 0,0 0,0 0,1 0,0 0,0 0,1 0,0 1,0 1,0 0,0 0,0 0,0 0,0 1,0 1,0 0,0 0,0 0,0 0,0 0,0 0,0 0,0 0,0 0,0 0,0 0,0 0,-1 0,0 1,0 1,0 0,0 0,0 0,0 0,-1 0,-1 0,-1z"/>
    <path class="fil0" d="M73 38c0,0 0,0 0,0 -1,0 -1,0 -1,0 0,0 0,0 0,0 0,0 -1,0 -1,0 0,0 0,0 0,0 0,0 0,0 0,0 0,0 -1,0 -1,0 0,0 0,1 0,1 0,0 0,0 0,0 0,0 0,1 0,1 0,0 0,0 1,0 0,0 0,0 0,0 0,0 0,0 0,0 0,0 0,0 0,0 0,0 0,0 1,0 0,0 0,0 0,0 0,0 0,0 0,0 0,0 0,0 0,0 1,0 1,0 1,0 0,0 0,-1 0,-1 0,0 0,0 0,-1z"/>
    <path class="fil0" d="M70 55l0 -1c0,0 0,0 0,0 -1,0 -1,0 -1,0 0,0 0,0 0,0 0,0 -1,0 -1,0 0,0 0,0 0,0 -1,0 -1,1 -1,1 0,1 1,1 1,1 0,0 0,0 1,0 0,0 1,0 1,0 0,-1 0,-1 0,-1 0,0 0,0 0,0z"/>
    <path class="fil0" d="M96 26c0,0 0,-1 0,-1 -1,0 -1,0 -1,0 0,0 -1,0 -1,1 0,0 0,0 0,0 0,0 0,0 0,0 0,0 0,1 0,1 0,0 0,0 0,0 1,0 1,0 1,0 0,0 0,0 1,0 0,0 0,0 0,0 0,-1 0,-1 0,-1z"/>
    <g>
     <path class="fil26" d="M79 46c-1,0 -1,0 0,-1 -1,0 0,0 1,0 0,0 0,1 -1,1z"/>
     <path class="fil26" d="M68 56c0,0 0,-1 0,-1 0,-1 1,-1 1,0 1,0 1,1 -1,1z"/>
     <path class="fil26" d="M93 36c0,0 0,0 0,0 1,-1 1,-1 1,0 1,1 -1,1 -1,0z"/>
     <path class="fil26" d="M71 39c0,0 0,-1 0,0 1,-1 2,-1 1,0 1,1 -1,1 -1,0z"/>
     <path class="fil26" d="M87 30c0,0 0,-1 0,-1 0,0 1,0 1,1 0,1 -1,1 -1,0z"/>
     <path class="fil0" d="M84 38c0,0 0,0 0,0 0,-1 -1,-1 -1,-1 0,0 0,0 0,0 0,0 0,0 0,0 0,0 -1,0 -1,0 0,0 -1,0 -1,1 0,0 0,0 1,1 0,0 1,0 1,0 0,0 1,0 1,-1 0,0 0,0 0,0 0,0 0,0 0,0z"/>
     <path class="fil26" d="M82 38c0,0 0,-1 0,-1 1,-1 1,0 1,1 1,0 -1,1 -1,0z"/>
     <path class="fil26" d="M73 27c0,0 0,-1 0,-1 1,-1 2,0 1,0 1,1 -1,1 -1,1z"/>
     <path class="fil26" d="M82 18c0,0 0,0 1,0 0,-1 1,0 0,0 1,0 -1,1 -1,0z"/>
     <path class="fil26" d="M74 15c0,-1 0,-1 0,-1 1,-1 1,0 1,0 1,0 -1,1 -1,1z"/>
     <path class="fil26" d="M95 26c0,0 0,-1 0,-1 1,0 1,0 1,1 1,0 -1,1 -1,0z"/>
    </g>
    <path class="fil0" d="M73 42c0,0 -1,0 -1,0 0,0 -1,0 -1,0 0,0 0,0 0,0 0,1 2,1 2,0 1,0 0,0 0,0z"/>
    <path class="fil0" d="M79 41c0,0 0,1 0,1 0,0 1,0 1,0 0,1 0,1 1,1 0,0 0,0 0,0 1,-1 -1,-2 -2,-2z"/>
    <path class="fil0" d="M81 49c0,0 -1,0 -1,0 0,1 -1,0 -1,0 -1,0 -1,0 -1,0 0,1 1,1 2,1 0,1 1,1 1,0 0,0 0,-1 0,-1z"/>
    <path class="fil0" d="M67 50c0,0 0,0 0,0 -1,0 -1,0 -1,0 0,0 1,0 1,1 0,0 0,0 0,1 1,0 1,0 1,-1 0,0 0,-1 -1,-1z"/>
    <path class="fil0" d="M95 41c0,0 -1,0 -1,0 0,-1 -1,0 -1,0 1,1 2,1 3,1 0,0 0,-1 -1,-1z"/>
    <path class="fil0" d="M82 28c-1,0 -2,-1 -3,-1 -1,1 -1,1 0,1 0,0 1,0 2,0 0,1 0,1 1,1 0,0 0,0 0,0 0,0 0,0 0,0 0,-1 0,-1 0,-1z"/>
    <path class="fil0" d="M78 16c0,0 0,0 -1,0 0,0 0,0 0,0 0,1 0,1 -1,1 0,0 0,0 -1,1 0,0 0,0 0,0 1,0 2,-1 3,-1 0,-1 0,-1 0,-1z"/>
    <path class="fil0" d="M102 29c0,0 0,0 -1,1 0,0 0,0 -1,0 0,0 0,0 0,0 1,1 3,1 3,-1 0,0 0,0 -1,0z"/>
    <g>
     <path class="fil27" d="M78 28l0 -1c0,0 3,-1 4,1l0 1c0,0 -1,-2 -4,-1z"/>
     <path class="fil27" d="M75 17c0,0 1,0 2,-1l1 0c0,0 -1,1 -3,2l0 -1z"/>
     <path class="fil27" d="M100 29l0 1c0,0 2,0 3,-1l-1 0c0,0 -1,1 -2,0z"/>
     <path class="fil27" d="M71 42l0 0c0,0 2,1 3,0l0 0c0,0 -2,0 -3,0z"/>
     <path class="fil27" d="M94 40l-1 1c0,0 2,1 4,0l-1 -1c0,0 -1,1 -2,0z"/>
     <path class="fil27" d="M79 41c0,0 3,0 3,2l-1 0c0,0 0,-1 -2,-1l0 -1z"/>
     <path class="fil27" d="M79 49c0,0 1,1 3,0l-1 1c0,0 -1,0 -3,-1l1 0z"/>
     <path class="fil27" d="M66 49c0,0 2,1 2,3l0 0c0,0 0,-1 -2,-2l0 -1z"/>
    </g>
    <path class="fil1" d="M81 33c0,-3 5,-1 5,1 0,1 -6,1 -5,-1z"/>
    <path class="fil1" d="M91 26c-2,1 1,4 2,3 2,-1 -1,-3 -2,-3z"/>
    <path class="fil1" d="M75 22c-1,1 2,3 3,1 1,-2 -3,-2 -3,-1z"/>
    <path class="fil1" d="M89 33c0,1 1,2 1,1 1,-1 0,-2 -1,-1z"/>
    <path class="fil1" d="M75 41c0,-1 2,-2 2,-1 1,2 -2,2 -2,1z"/>
    <path class="fil1" d="M103 34c0,-1 3,0 3,1 -1,1 -4,1 -3,-1z"/>
    <path class="fil0" d="M78 22c-1,0 -1,0 -1,0 0,0 0,0 0,0 0,0 0,1 0,1 0,0 1,0 1,-1 0,0 0,0 0,0z"/>
    <path class="fil0" d="M92 20c0,0 0,0 0,0 0,0 -1,-1 -1,-1 0,0 0,1 0,1 0,0 0,0 0,0 0,0 1,1 1,1 0,0 0,-1 0,-1z"/>
    <path class="fil0" d="M96 24c0,-1 0,-1 -1,-1 0,0 0,0 0,0 -1,0 -1,0 -1,0 0,0 0,0 0,0 0,0 1,1 1,1 0,0 0,0 1,0 0,0 0,0 0,0z"/>
    <path class="fil0" d="M101 27c0,0 0,0 0,0 0,-1 -1,0 0,0 0,0 0,0 0,0 0,0 0,0 0,0 0,0 0,1 0,1 1,0 1,0 1,-1 0,0 0,0 -1,0z"/>
    <path class="fil0" d="M82 33c0,0 0,0 0,0 0,0 0,0 0,0 0,0 0,0 -1,0 0,0 0,0 0,0 0,0 0,0 0,0 0,0 0,0 0,0 0,0 0,0 0,0 0,0 0,0 0,0 0,0 1,0 1,0 0,1 0,1 0,1 0,-1 0,-1 0,-1 0,0 0,0 0,0z"/>
    <path class="fil0" d="M105 34c0,0 0,0 0,0 0,0 0,0 0,0 0,0 0,0 0,0 -1,0 -1,0 -1,0 0,0 0,0 0,0 0,0 0,0 0,1 0,0 0,0 0,0 0,0 0,0 0,0 0,0 0,0 0,0 0,0 0,0 0,0 0,0 0,0 1,0 -1,0 -1,0 0,0 0,0 0,0 0,0 0,0 0,0 0,0 0,0 0,0 1,0 0,0 -1,-1 -1,-1z"/>
    <path class="fil0" d="M105 30c0,0 0,0 0,-1 0,0 0,0 -1,0 0,0 0,0 0,0 0,1 0,1 1,2 0,0 0,0 0,0 1,-1 1,-1 0,-1z"/>
    <g>
     <path class="fil0" d="M68 46c0,0 0,0 0,0 0,0 0,0 0,0 0,0 0,0 0,0 -1,0 -1,0 -1,0 0,0 0,0 0,0 0,0 0,0 0,0 0,0 0,0 0,0 0,0 0,0 0,0 0,0 0,0 0,0 0,0 0,0 0,0 0,0 0,0 0,0 0,0 0,0 0,0 0,0 0,0 0,0 0,0 0,0 0,0 0,1 0,1 0,1 0,0 0,0 1,0 0,0 0,0 0,0 0,-1 0,-1 0,-1z"/>
     <path class="fil0" d="M67 46c0,0 0,0 0,0 0,0 0,0 0,0z"/>
    </g>
    <path class="fil28" d="M73 36c0,0 1,-5 1,-5l0 0c0,0 0,3 0,5l-1 0z"/>
    <path class="fil28" d="M84 37c0,0 5,0 6,0l0 1c0,0 -5,0 -6,0l0 -1z"/>
    <path class="fil28" d="M84 43c0,0 5,-1 6,0l0 -1c0,0 -5,1 -6,1 0,0 0,0 0,0z"/>
    <path class="fil28" d="M74 54c0,0 3,-2 3,-2 0,0 0,-1 0,-1 0,0 -3,2 -4,2 0,0 1,1 1,1z"/>
    <path class="fil28" d="M96 34c0,0 2,-1 2,-1 0,0 1,0 1,0 0,0 -2,1 -2,2 0,0 -1,-1 -1,-1z"/>
    <path class="fil28" d="M95 31c0,0 1,-1 2,-1l0 0 -2 1 0 0z"/>
    <path class="fil28" d="M83 21c0,0 0,3 0,4 0,0 0,0 1,0 0,0 0,-3 0,-3 0,0 0,0 0,0 -1,0 -1,-1 -1,-1z"/>
    <path class="fil28" d="M86 21c0,0 0,3 1,4 0,0 0,0 0,0 0,0 0,-2 -1,-4 0,0 0,0 0,0z"/>
    <path class="fil28" d="M72 19c0,0 0,2 0,3l1 0c0,0 0,-2 0,-3 0,0 -1,0 -1,0z"/>
    <path class="fil10" d="M84 5c0,0 6,2 11,5 4,3 8,6 9,7 0,1 1,7 0,8 -1,0 -4,-2 -5,-3 -1,-1 1,-6 0,-6 -1,-1 -2,1 -5,2 -3,0 -6,-3 -6,-5 0,-2 0,-4 -1,-4 0,0 0,1 -3,1 -1,0 0,-4 0,-5z"/>
   </g>
   <g>
    <g>
     <path class="fil0" d="M105 98c0,0 -16,-15 -24,-21 -8,-6 -16,-12 -17,-12 -1,0 -1,27 -1,29 0,2 0,14 0,18 0,4 1,6 1,7 1,1 13,4 20,-1 8,-4 23,-13 21,-20z"/>
     <path class="fil1" d="M102 96c0,0 -13,-12 -20,-17 -7,-6 -16,-11 -17,-11 -1,0 0,24 0,26 1,2 0,13 0,16 0,3 1,6 1,7 1,1 9,0 16,-4 7,-4 19,-11 20,-17z"/>
     <path class="fil2" d="M103 98c-2,1 -4,2 -6,5 -1,1 -1,2 -3,3 -1,1 -2,2 -3,2 -2,1 -3,2 -4,2 -2,1 -4,2 -5,3 -2,0 -3,1 -5,2 -1,0 -3,1 -4,2 -3,1 -6,-1 -9,1 -1,0 0,1 1,1 2,-1 5,0 7,0 0,0 0,0 1,0 6,-2 11,-5 17,-8 1,0 3,-1 4,-2 1,-1 2,-2 3,-3 2,-2 5,-5 7,-7 1,-1 0,-1 -1,-1z"/>
     <path class="fil2" d="M72 116c0,0 0,0 0,0 0,0 0,0 -1,0 0,0 0,0 0,0 -1,1 0,1 0,1 1,0 1,0 2,0 0,-1 0,-1 -1,-1z"/>
     <path class="fil3" d="M100 96c1,1 -3,5 -5,6 -1,2 -10,5 -11,7 -2,1 -6,4 -9,4 -3,1 -7,1 -7,0 -1,0 -2,-8 -1,-11 0,-3 0,-16 0,-20 0,-4 0,-8 1,-9 1,-1 8,4 9,6 2,1 7,6 9,8 2,1 12,6 14,9z"/>
     <path class="fil4" d="M111 102c0,1 -6,10 -17,17 -12,7 -25,10 -29,9 -4,-2 -3,-9 -1,-10 2,-1 8,0 9,0 1,0 10,-4 12,-6 2,-1 6,-4 9,-4 0,0 6,-6 7,-8 2,-1 3,-2 5,-3 1,0 5,2 5,5z"/>
     <g>
      <g>
       <g>
        <g>
         <path class="fil9" d="M73 118c0,0 0,0 0,0 0,1 0,1 0,1 0,0 0,0 0,0 0,0 0,0 0,0 0,1 0,1 0,1 0,0 0,0 0,0 -1,1 -1,1 -1,1 0,0 0,0 0,0 0,1 0,1 0,1 0,0 0,0 0,0 0,1 0,1 0,1 0,0 0,0 0,0 0,0 1,0 1,0 0,1 0,1 0,1 0,0 -1,0 -1,0 0,-1 0,-1 0,-1 0,0 0,0 0,0 0,0 0,0 0,-1 0,0 0,0 0,0 0,0 0,0 0,-1 0,0 0,0 0,0 0,0 0,0 0,-1 0,0 0,0 0,0 0,0 0,-1 0,-1 0,0 0,0 0,0 0,0 0,0 1,0 0,0 0,-1 0,-1 0,0 0,0 0,0z"/>
        </g>
       </g>
      </g>
     </g>
     <g>
      <g>
       <g>
        <g>
         <path class="fil9" d="M85 113c0,0 0,0 0,0 0,0 0,0 0,0 0,1 0,1 0,1 0,0 0,0 0,0 0,0 0,0 0,0 0,0 0,1 0,1 1,0 1,0 1,0 0,0 0,0 0,0 0,0 0,1 0,1 0,0 0,0 0,0 0,0 0,0 0,0 0,1 0,1 0,1 0,0 0,0 0,-1 0,0 0,0 0,0 0,0 0,0 -1,0 0,0 0,0 0,0 0,0 0,0 0,-1 0,0 0,0 0,0 0,0 0,0 0,0 0,-1 0,-1 0,-1 0,0 -1,0 -1,0 0,0 0,0 0,0 0,-1 1,-1 1,-1 0,0 0,0 0,0z"/>
        </g>
       </g>
      </g>
     </g>
     <g>
      <g>
       <g>
        <g>
         <path class="fil9" d="M95 108c0,0 0,0 0,0 0,0 0,0 0,0 0,0 0,0 1,0 0,0 0,0 0,0 0,0 0,0 0,0 0,0 1,1 1,1 0,0 0,0 0,0 0,0 0,0 0,0 0,0 1,0 1,1 0,0 0,0 0,0 0,0 0,0 0,0 0,0 0,0 0,1 0,0 0,0 0,0 0,0 0,0 0,0 0,0 0,0 0,0 0,0 0,0 0,0 0,0 0,0 0,-1 -1,0 -1,0 -1,0 0,0 0,0 0,0 0,0 0,0 0,0 0,0 0,0 -1,-1 0,0 0,0 0,0 0,0 0,0 0,0 0,0 0,0 0,0 0,0 -1,0 -1,0 0,-1 0,-1 0,-1 0,0 0,0 0,0 0,0 0,0 0,0z"/>
        </g>
       </g>
      </g>
     </g>
     <g>
      <g>
       <g>
        <g>
         <path class="fil9" d="M109 101c0,0 0,0 0,0 0,0 0,0 -1,0 0,0 0,0 0,0 0,-1 0,-1 0,-1 0,0 -1,0 -1,0 0,0 0,0 0,0 0,0 0,0 -1,0 0,0 0,0 0,0 0,0 0,0 -1,0 0,0 0,0 0,-1 0,0 0,0 0,0 0,0 -1,0 -1,0 0,0 0,0 0,0 0,0 0,0 0,0 0,0 0,0 0,0 0,0 0,0 0,0 0,0 1,0 1,0 0,0 0,0 0,0 0,0 0,0 1,0 0,0 0,0 0,0 0,0 0,0 1,0 0,0 0,0 0,0 0,0 1,0 1,1 0,0 0,0 0,0 0,0 0,0 0,0 0,0 1,0 1,0 0,1 0,1 0,1 0,0 0,0 0,0z"/>
        </g>
       </g>
      </g>
     </g>
     <path class="fil10" d="M103 100c2,0 6,0 6,3 0,2 -5,8 -7,8 -2,0 -5,-2 -5,-4 0,-1 5,-7 7,-7l-1 0z"/>
     <path class="fil10" d="M78 117c3,-1 6,-2 8,0 1,1 0,4 -4,6 -4,2 -8,1 -8,-1 -1,-2 0,-4 4,-5z"/>
     <path class="fil10" d="M67 119c3,0 4,0 4,1 0,1 1,4 -1,5 -3,1 -6,1 -7,-1 -1,-2 1,-4 1,-5 1,0 3,0 3,0z"/>
    </g>
    <path class="fil0" d="M78 77c-1,-1 -2,-3 -3,-3 -1,-1 -3,-1 -4,-1 -1,0 -2,0 -3,1 -2,2 -3,4 -2,7 2,2 4,4 6,4 3,0 6,-1 6,-4 0,-2 0,-3 0,-4zm-1 4l0 0c-1,3 -5,3 -7,2 -2,-2 -3,-5 -2,-7 1,-1 2,-2 3,-2 1,0 3,1 4,0 0,2 1,2 1,3 1,2 1,3 1,4z"/>
    <path class="fil0" d="M97 99c0,0 0,0 -1,0 0,1 0,2 -1,3 -1,1 -2,1 -4,1 -2,0 -4,-3 -5,-5 0,-2 1,-5 3,-6 2,-1 4,-1 6,-1 1,0 1,0 1,-1 -4,-2 -10,1 -11,5 0,2 0,5 2,7 1,2 3,3 6,3 2,-1 5,-3 4,-6z"/>
    <path class="fil0" d="M70 94c-2,0 -4,3 -6,5 0,0 1,1 1,0 2,-1 3,-3 6,-4 2,0 4,1 5,3 1,2 1,5 -1,7 -1,1 -1,1 -3,1 -1,1 -2,0 -3,0 0,0 -1,0 -1,1 2,1 5,1 6,0 2,-1 4,-3 4,-5 1,-5 -3,-9 -8,-8z"/>
    <path class="fil0" d="M72 89c0,0 0,0 0,0 -1,0 -1,1 -2,1 -1,0 -1,1 -2,1 0,1 -1,1 -1,2 1,0 1,1 1,1 1,0 1,0 1,0 0,-1 0,-2 0,-2 1,0 1,-1 2,-1 1,0 1,-1 1,-2z"/>
    <path class="fil0" d="M80 79c-1,0 -1,0 -1,0 0,1 0,1 -1,1 0,1 1,1 1,1 0,0 1,-1 1,-1 0,0 0,-1 0,-1 0,0 0,0 0,0z"/>
    <path class="fil0" d="M80 87c0,0 0,0 0,0 -1,-1 -2,0 -2,1 0,0 0,0 0,0 0,1 0,1 0,1 -1,0 -1,1 -1,1 1,0 1,0 1,0 0,0 0,0 1,0 0,-1 0,-1 0,-1 0,-1 0,-1 0,-1 0,-1 1,-1 1,-1z"/>
    <path class="fil0" d="M76 86c-1,0 -1,0 -1,0 0,0 0,0 -1,0 0,0 0,0 0,0 0,0 0,0 0,1 -1,0 0,1 0,1 1,-1 1,-1 1,-1 0,0 1,-1 1,-1z"/>
    <g>
     <g>
      <path class="fil29" d="M67 96c7,-6 15,5 8,11 -6,5 -15,-4 -8,-11z"/>
     </g>
     <g>
      <path class="fil30" d="M68 97c6,-6 14,4 7,10 -6,5 -15,-4 -7,-10z"/>
     </g>
     <path class="fil31" d="M71 98c0,0 0,-1 1,-1 1,-1 1,0 1,1 0,0 4,2 3,5 0,0 0,1 -1,2 -2,0 -4,3 -6,1 0,0 -2,-1 -2,-3 0,0 -2,-1 0,-3 1,-2 4,-2 4,-2z"/>
     <path class="fil32" d="M71 98c0,0 2,0 2,1 0,0 1,0 2,1 0,1 1,2 0,3 0,0 0,0 -1,1 -1,1 -2,2 -3,2 -2,0 -2,-2 -2,-2 0,0 -1,-1 -1,-1 0,-1 -1,0 -1,-1 -1,-2 0,-3 1,-3 1,-1 3,-1 3,-1z"/>
     <path class="fil29" d="M71 101c0,0 1,-3 0,-4 -1,0 -3,0 -5,2 -1,2 0,5 1,5 1,0 3,-1 3,-1 0,0 -3,0 -3,-3 1,-2 4,-2 4,1z"/>
     <path class="fil29" d="M72 101c0,0 0,-4 1,-4 1,-1 3,1 4,3 1,2 -1,3 -1,3 -1,0 -3,-1 -3,-1 0,0 3,1 2,-1 -1,-3 -2,-2 -3,0z"/>
     <path class="fil29" d="M70 103c0,-1 -2,1 -2,3 0,1 5,2 7,0 1,-3 -2,-3 -2,-3 0,0 2,2 -1,2 -3,1 -2,-1 -2,-2z"/>
     <g>
      <path class="fil33" d="M67 99c0,0 0,0 0,0 1,0 1,0 0,0z"/>
      <path class="fil33" d="M68 98c-1,0 -1,1 0,1 0,0 0,-1 0,-1z"/>
      <path class="fil33" d="M68 99c0,0 0,0 0,0 0,0 0,0 0,0z"/>
      <path class="fil33" d="M68 98c0,0 0,0 0,0 1,0 1,0 0,0z"/>
      <path class="fil33" d="M69 98c0,0 0,1 0,1 0,0 0,-1 0,-1z"/>
      <path class="fil33" d="M69 98c0,0 0,0 0,0 0,0 0,0 0,0z"/>
      <path class="fil33" d="M66 100c0,0 0,0 0,0 1,0 1,0 0,0z"/>
      <path class="fil33" d="M66 101c0,0 0,0 0,0 1,0 1,0 0,0z"/>
      <path class="fil33" d="M66 102c0,0 0,0 0,0 0,0 0,0 0,0z"/>
      <path class="fil33" d="M67 102c0,0 0,1 0,1 0,0 0,-1 0,-1z"/>
      <path class="fil33" d="M67 99c0,0 0,0 0,0 0,0 0,0 0,0z"/>
      <path class="fil33" d="M74 99c0,-1 0,-1 0,-1 0,0 0,0 0,0 -1,0 -1,1 -1,1 0,0 1,0 1,0 0,0 0,0 0,0 0,0 0,0 0,0z"/>
      <path class="fil33" d="M75 99c-1,0 -1,0 0,0 0,0 0,0 0,0z"/>
      <path class="fil33" d="M74 98c0,0 0,0 0,0 0,0 0,0 0,0z"/>
      <path class="fil33" d="M73 98c0,0 0,1 0,1 0,0 0,-1 0,-1z"/>
      <path class="fil33" d="M75 98c0,0 0,0 0,0 0,0 0,0 0,0z"/>
      <path class="fil33" d="M74 97c0,0 0,1 0,1 0,0 0,-1 0,-1z"/>
      <path class="fil33" d="M75 100c0,0 0,0 0,0 0,-1 0,0 0,0 0,0 0,0 0,0 0,0 0,0 0,0 1,0 1,0 0,0z"/>
      <path class="fil33" d="M76 99c-1,0 -1,0 0,0 0,0 0,0 0,0z"/>
      <path class="fil33" d="M76 100c0,0 0,1 0,1 0,0 0,-1 0,-1z"/>
      <path class="fil33" d="M76 102c-1,0 -1,0 0,0 0,0 0,0 0,0z"/>
      <path class="fil33" d="M76 102c0,0 0,0 0,0 1,0 1,0 0,0z"/>
      <path class="fil33" d="M75 102c0,0 0,1 0,1 1,0 1,-1 0,-1z"/>
      <path class="fil33" d="M69 104c0,0 0,0 0,0 0,0 0,0 0,0z"/>
      <path class="fil33" d="M70 105c-1,0 -1,0 0,0 0,0 0,0 0,0z"/>
      <path class="fil33" d="M69 105c0,0 0,0 0,0 0,0 0,0 0,0 0,0 0,0 0,0 0,0 0,0 0,0z"/>
      <path class="fil33" d="M70 106c-1,0 -1,0 0,0 0,0 0,0 0,0z"/>
      <path class="fil33" d="M70 106c0,0 0,0 0,0 0,0 0,0 0,0z"/>
      <path class="fil33" d="M70 106c0,0 0,0 0,0 0,0 0,1 0,1 1,0 1,-1 1,-1 0,0 0,0 -1,0z"/>
      <path class="fil33" d="M71 106c0,0 0,0 0,0 0,0 0,0 0,0 1,0 1,0 1,0 0,0 0,0 -1,0z"/>
      <path class="fil33" d="M72 105c0,0 0,1 0,1 0,0 0,-1 0,-1z"/>
      <path class="fil33" d="M73 106c0,0 0,0 0,0 0,0 0,0 0,0z"/>
      <path class="fil33" d="M73 105c0,0 0,0 0,0 1,0 1,0 0,0z"/>
      <path class="fil33" d="M73 106c0,0 0,0 0,0 1,0 1,0 0,0z"/>
      <path class="fil33" d="M74 104c0,0 0,0 0,0 0,0 0,0 0,0z"/>
      <path class="fil33" d="M74 104c0,0 0,0 0,0 0,0 0,0 0,0z"/>
      <path class="fil33" d="M74 105c0,0 0,1 0,1 0,0 0,-1 0,-1z"/>
      <path class="fil33" d="M72 106c0,0 0,0 0,0 0,0 0,0 0,0z"/>
     </g>
    </g>
    <g>
     <g>
      <path class="fil29" d="M89 92c7,-6 15,5 8,10 -6,6 -16,-4 -8,-10z"/>
     </g>
     <g>
      <path class="fil30" d="M89 92c7,-5 14,5 8,10 -6,5 -15,-4 -8,-10z"/>
     </g>
     <path class="fil31" d="M93 93c0,0 -1,-1 0,-1 1,0 2,0 2,1 0,1 4,3 2,5 0,0 1,1 -1,2 -1,1 -3,3 -6,1 0,0 -2,0 -1,-2 0,0 -2,-2 0,-4 1,-2 4,-2 4,-2z"/>
     <path class="fil32" d="M93 94c0,-1 1,-1 1,0 0,1 2,0 3,1 0,1 1,3 0,3 -1,0 0,1 -1,1 -1,1 -2,3 -4,2 -1,0 -1,-1 -1,-1 0,0 -1,-1 -1,-2 0,0 -2,1 -2,-1 0,-1 1,-2 2,-3 0,0 3,0 3,0z"/>
     <path class="fil29" d="M93 97c0,0 1,-3 0,-4 -1,-1 -3,-1 -5,1 -1,2 -1,5 1,5 1,0 2,-1 2,-1 0,0 -3,0 -2,-2 0,-2 3,-2 4,1z"/>
     <path class="fil29" d="M94 96c0,0 0,-3 1,-4 1,0 3,1 3,3 1,2 0,4 -1,4 0,0 -2,-1 -2,-1 0,0 3,0 2,-2 -1,-2 -3,-1 -3,0z"/>
     <path class="fil29" d="M92 98c0,0 -2,1 -2,3 0,1 5,2 6,0 1,-2 -2,-3 -2,-3 0,0 2,2 0,3 -3,0 -3,-2 -2,-3z"/>
     <g>
      <path class="fil33" d="M89 94c0,0 0,1 0,1 0,0 0,-1 0,-1z"/>
      <path class="fil33" d="M89 94c0,0 0,0 0,0 1,0 1,0 0,0z"/>
      <path class="fil33" d="M90 94c0,0 0,0 0,0 0,0 0,0 0,0z"/>
      <path class="fil33" d="M90 93c0,0 0,1 0,1 0,0 0,-1 0,-1z"/>
      <path class="fil33" d="M91 94c0,0 0,0 0,0 0,0 0,0 0,0z"/>
      <path class="fil33" d="M91 93c-1,0 -1,1 0,1 0,0 0,-1 0,-1z"/>
      <path class="fil33" d="M88 95c0,0 0,1 0,1 0,0 0,-1 0,-1z"/>
      <path class="fil33" d="M88 96c0,0 0,1 0,1 0,0 0,-1 0,-1z"/>
      <path class="fil33" d="M88 97c0,0 0,1 0,1 0,0 0,-1 0,-1z"/>
      <path class="fil33" d="M88 98c0,0 0,0 0,0 1,0 1,0 0,0z"/>
      <path class="fil33" d="M88 95c0,0 0,0 0,0 0,0 0,0 0,0z"/>
      <path class="fil33" d="M96 94c0,0 -1,0 -1,0 0,0 0,0 0,0 0,0 0,0 0,0 0,0 0,0 0,0 0,0 0,0 0,0 1,0 1,0 1,0z"/>
      <path class="fil33" d="M96 94c0,0 0,1 0,1 1,0 1,-1 0,-1z"/>
      <path class="fil33" d="M96 93c0,0 0,1 0,1 0,0 0,-1 0,-1z"/>
      <path class="fil33" d="M95 94c-1,0 -1,0 0,0 0,0 0,0 0,0z"/>
      <path class="fil33" d="M97 94c-1,0 -1,0 0,0 0,0 0,0 0,0z"/>
      <path class="fil33" d="M96 93c-1,0 -1,0 0,0 0,0 0,0 0,0z"/>
      <path class="fil33" d="M97 95c0,0 0,0 0,0 0,0 0,0 0,0 0,0 0,0 0,0 0,0 0,0 0,0 0,0 0,0 0,0z"/>
      <path class="fil33" d="M97 94c0,0 0,1 0,1 1,0 1,-1 0,-1z"/>
      <path class="fil33" d="M98 96c-1,0 -1,0 0,0 0,0 0,0 0,0z"/>
      <path class="fil33" d="M97 97c0,0 0,0 0,0 0,0 0,0 0,0z"/>
      <path class="fil33" d="M98 97c0,0 0,1 0,1 0,0 0,-1 0,-1z"/>
      <path class="fil33" d="M97 98c0,0 0,0 0,0 0,0 0,0 0,0z"/>
      <path class="fil33" d="M91 100c0,0 0,0 0,0 0,0 0,0 0,0z"/>
      <path class="fil33" d="M91 100c0,0 0,1 0,1 0,0 0,-1 0,-1z"/>
      <path class="fil33" d="M90 100c0,0 0,0 0,1 0,0 0,0 0,0 1,0 1,0 1,0 0,-1 0,-1 -1,-1z"/>
      <path class="fil33" d="M91 101c0,0 0,0 0,0 0,0 0,0 0,0z"/>
      <path class="fil33" d="M92 101c0,0 0,0 0,0 0,0 0,0 0,0z"/>
      <path class="fil33" d="M92 102c0,0 0,0 0,0 0,0 0,0 0,0 0,0 0,0 0,0 0,0 0,0 0,0z"/>
      <path class="fil33" d="M93 101c0,0 0,0 0,1 0,0 0,0 0,0 0,0 0,0 0,0 0,-1 0,-1 0,-1z"/>
      <path class="fil33" d="M94 101c-1,0 -1,0 0,0 0,0 0,0 0,0z"/>
      <path class="fil33" d="M94 101c0,0 0,1 0,1 1,0 1,-1 0,-1z"/>
      <path class="fil33" d="M95 100c0,0 0,1 0,1 0,0 0,-1 0,-1z"/>
      <path class="fil33" d="M95 101c0,0 0,0 0,0 0,0 0,0 0,0z"/>
      <path class="fil33" d="M95 99c0,0 0,1 0,1 1,0 1,-1 0,-1z"/>
      <path class="fil33" d="M96 100c0,0 0,0 0,0 0,0 0,0 0,0z"/>
      <path class="fil33" d="M96 101c-1,0 -1,0 0,0 0,0 0,0 0,0z"/>
      <path class="fil33" d="M94 102c0,0 0,0 0,0 0,0 0,0 0,0z"/>
     </g>
    </g>
    <g>
     <g>
      <path class="fil29" d="M67 79c0,-8 11,-7 11,0 0,7 -11,8 -11,0z"/>
     </g>
     <g>
      <path class="fil30" d="M67 79c0,-8 11,-7 11,0 0,7 -11,8 -11,0z"/>
     </g>
     <path class="fil31" d="M70 77c0,0 -1,0 -1,-1 1,-1 2,-1 2,-1 0,1 4,0 5,2 0,0 1,0 0,2 0,1 0,3 -2,4 0,0 -2,1 -3,0 0,0 -1,0 -2,-2 -1,-2 1,-4 1,-4z"/>
     <path class="fil32" d="M70 77c0,0 1,-1 1,-1 1,1 1,-1 2,0 1,0 2,0 2,1 0,1 1,0 1,1 -1,2 0,3 -1,4 -1,1 -2,0 -2,0 0,0 -1,0 -1,0 -1,-1 -1,1 -2,0 -1,-1 -1,-2 -1,-2 0,-1 1,-3 1,-3z"/>
     <path class="fil29" d="M72 79c0,0 -1,-2 -2,-2 -1,0 -2,2 -2,3 0,2 3,4 3,3 1,-1 1,-2 1,-2 0,0 -2,2 -3,0 -1,-1 1,-4 3,-2z"/>
     <path class="fil29" d="M72 78c0,0 -2,-2 -2,-3 1,-1 3,-1 4,0 2,0 2,2 2,2 0,1 -2,1 -2,1 0,0 2,-1 0,-2 -2,-1 -2,1 -2,2z"/>
     <path class="fil29" d="M73 80c0,0 -1,2 0,3 1,1 4,-2 4,-4 -1,-2 -3,0 -3,0 0,0 2,-1 1,2 -1,2 -2,0 -2,-1z"/>
     <g>
      <path class="fil33" d="M69 80c-1,0 0,0 0,0 0,0 0,0 0,0z"/>
      <path class="fil33" d="M68 79c0,1 0,1 1,1 0,-1 -1,-1 -1,-1z"/>
      <path class="fil33" d="M69 79c0,0 0,0 0,0 0,0 0,0 0,0z"/>
      <path class="fil33" d="M68 79c0,0 1,0 1,0 0,0 0,0 -1,0z"/>
      <path class="fil33" d="M69 79c0,0 0,0 0,0 1,0 0,-1 0,0z"/>
      <path class="fil33" d="M69 78c0,0 0,1 0,1 0,-1 0,-1 0,-1z"/>
      <path class="fil33" d="M69 81c0,0 0,1 0,0 0,0 0,0 0,0z"/>
      <path class="fil33" d="M69 82c0,0 0,0 1,0 0,0 0,-1 -1,0z"/>
      <path class="fil33" d="M70 82c0,1 0,1 0,1 0,-1 0,-1 0,-1z"/>
      <path class="fil33" d="M70 82c0,0 0,1 1,0 0,0 -1,0 -1,0z"/>
      <path class="fil33" d="M69 81c0,0 0,0 0,0 0,0 0,0 0,0z"/>
      <path class="fil33" d="M72 76c0,0 0,0 0,0 0,0 0,0 0,0 0,0 0,0 0,0 0,0 0,0 0,0 0,0 0,0 0,0 0,0 0,0 0,0z"/>
      <path class="fil33" d="M72 75c0,0 1,1 1,0 0,0 0,0 -1,0z"/>
      <path class="fil33" d="M72 75c0,0 0,0 0,0 0,0 0,0 0,0z"/>
      <path class="fil33" d="M71 76c0,0 0,0 0,0 1,0 0,0 0,0z"/>
      <path class="fil33" d="M72 75c0,0 0,0 0,0 1,0 0,0 0,0z"/>
      <path class="fil33" d="M71 75c0,0 0,0 0,0 0,0 0,0 0,0z"/>
      <path class="fil33" d="M73 75c0,0 0,0 0,0 0,0 0,0 0,1 1,0 1,0 1,-1 0,0 0,0 0,0 0,0 0,0 -1,0z"/>
      <path class="fil33" d="M73 75c0,0 0,0 1,0 0,0 -1,0 -1,0z"/>
      <path class="fil33" d="M74 75c0,1 0,1 1,1 0,-1 -1,-1 -1,-1z"/>
      <path class="fil33" d="M75 76c0,0 0,1 0,0 0,0 0,0 0,0z"/>
      <path class="fil33" d="M75 76c0,0 0,0 1,0 0,0 -1,0 -1,0z"/>
      <path class="fil33" d="M75 77c0,0 0,0 1,0 0,0 -1,0 -1,0z"/>
      <path class="fil33" d="M73 82c0,0 0,0 0,0 0,0 0,0 0,0z"/>
      <path class="fil33" d="M74 82c0,0 0,0 0,0 0,0 0,0 0,0z"/>
      <path class="fil33" d="M73 82c0,0 0,1 0,1 0,0 0,0 0,0 1,0 1,-1 0,-1 0,0 0,0 0,0z"/>
      <path class="fil33" d="M74 82c0,0 0,1 0,1 0,-1 0,-1 0,-1z"/>
      <path class="fil33" d="M74 82c0,0 0,0 1,0 0,0 -1,0 -1,0z"/>
      <path class="fil33" d="M75 82c0,0 0,0 0,0 0,0 0,0 0,0 0,0 0,0 0,0 0,0 0,0 0,0z"/>
      <path class="fil33" d="M75 81c0,0 0,1 0,1 0,0 1,0 1,0 0,-1 0,-1 0,-1 -1,0 -1,0 -1,0z"/>
      <path class="fil33" d="M75 81c0,0 0,0 1,0 0,0 -1,-1 -1,0z"/>
      <path class="fil33" d="M76 80c0,0 0,1 0,1 0,-1 0,-1 0,-1z"/>
      <path class="fil33" d="M76 79c-1,1 0,1 0,1 0,0 0,-1 0,-1z"/>
      <path class="fil33" d="M76 80c0,0 0,0 0,0 0,0 0,0 0,0z"/>
      <path class="fil33" d="M75 79c0,0 1,0 1,0 0,0 0,0 -1,0z"/>
      <path class="fil33" d="M76 78c0,1 0,1 0,1 0,0 0,-1 0,-1z"/>
      <path class="fil33" d="M76 79c0,0 0,1 0,0 1,0 0,0 0,0z"/>
      <path class="fil33" d="M76 81c0,0 0,0 0,0 0,0 0,0 0,0z"/>
     </g>
    </g>
    <g>
     <path class="fil34" d="M68 94c-1,-1 0,-2 1,-3 1,0 3,-2 3,-3 0,-1 1,0 1,1 0,0 -1,3 -2,3 -1,1 -1,0 -2,1 0,1 -1,1 -1,1z"/>
     <path class="fil34" d="M85 85c0,0 0,1 0,2 0,1 1,3 2,3 0,1 -1,3 -1,3 0,0 2,-1 3,-2 0,-1 -3,-2 -3,-3 0,-1 0,-3 -1,-3z"/>
     <path class="fil34" d="M66 109c0,0 -1,1 0,2 0,1 1,2 1,3 0,1 -1,3 -1,3 0,0 3,-1 3,-2 0,-2 -2,-3 -2,-4 -1,-1 0,-3 -1,-2z"/>
     <path class="fil34" d="M81 108c0,0 0,-2 1,-3 1,-1 2,-3 1,-4 0,-1 1,-1 1,0 1,2 1,4 0,4 -1,1 -2,2 -2,3 0,0 0,1 -1,0z"/>
     <path class="fil34" d="M67 70c0,1 -1,3 -1,4 -1,1 -2,2 -2,2 1,1 3,0 3,-1 1,-1 0,-2 0,-3 1,-1 1,-3 0,-2z"/>
     <path class="fil34" d="M81 87c-1,0 -1,0 -2,0 0,0 -1,1 -1,1 0,0 1,0 0,1 0,0 0,0 0,0 0,1 0,1 0,1 0,1 0,1 0,0 1,0 1,0 1,-1 0,0 0,0 0,0 0,-1 0,-1 0,-1 0,0 1,0 1,0 0,0 1,-1 1,-1 0,0 0,0 0,0z"/>
     <path class="fil34" d="M80 79c0,0 0,0 0,0 -1,0 -1,1 -1,1 0,0 -1,1 0,1 0,1 1,0 1,0 0,-1 0,-1 0,-2z"/>
     <path class="fil35" d="M88 91c0,-1 0,-1 0,-1 -1,-1 -1,-2 -2,-2 0,0 0,0 0,0 0,1 1,1 1,2 1,1 1,1 0,1 0,1 0,1 0,1 -1,0 -1,1 0,1 0,-1 1,-1 1,-2z"/>
     <path class="fil35" d="M80 87c0,0 -1,0 -1,1 0,0 0,0 0,1 0,0 0,0 -1,0 0,0 0,1 0,1 0,0 0,0 0,0 1,0 1,-1 1,-1 0,0 0,-1 0,-1 0,0 1,0 1,0 0,-1 0,-1 1,-1 0,0 -1,0 -1,0z"/>
     <path class="fil35" d="M72 89c0,0 0,0 0,0 -1,1 -1,2 -1,2 0,1 0,1 -1,1 -1,1 -1,1 -2,2 0,0 0,0 1,0 0,0 0,-1 1,-1 0,0 1,0 1,-1 1,0 1,-2 1,-3z"/>
     <path class="fil35" d="M84 102c0,-1 0,-1 0,0 0,0 0,1 -1,2 0,1 0,1 -1,2 0,1 -1,1 -1,2 1,0 1,0 1,0 0,-1 1,-2 2,-3 0,0 0,-1 0,-1 0,-1 0,-2 0,-2z"/>
     <path class="fil35" d="M69 114c0,-1 -1,-1 -1,-1 -1,-1 -2,-2 -2,-3 0,0 0,0 0,0 0,1 0,2 1,2 0,1 0,1 0,1 0,0 1,1 1,1 0,1 -1,1 -1,2 0,0 0,0 0,0 1,0 2,-1 2,-2z"/>
     <path class="fil35" d="M80 80c0,0 0,0 -1,0 0,1 0,1 0,1 0,0 0,0 0,0 1,0 1,-1 1,-1 0,0 0,0 0,0z"/>
     <path class="fil35" d="M67 72c0,0 0,0 0,0 0,1 0,2 0,3 -1,1 -1,1 -2,1 -1,0 -1,0 0,0 2,1 3,-2 2,-4z"/>
    </g>
    <path class="fil36" d="M83 97c0,1 -1,2 -2,2 -1,0 -2,-1 -2,-2 0,-1 1,-1 2,-1 1,0 2,0 2,1z"/>
    <path class="fil36" d="M84 84c0,1 0,2 -1,2 -1,0 -2,-1 -2,-2 0,-1 1,-2 2,-2 1,0 1,1 1,2z"/>
    <path class="fil36" d="M70 88c0,1 -1,1 -2,1 -1,0 -2,0 -2,-1 0,-1 1,-2 2,-2 1,0 2,1 2,2z"/>
    <path class="fil36" d="M76 110c0,1 -1,2 -2,2 -1,0 -1,-1 -1,-2 0,-1 0,-1 1,-1 1,0 2,0 2,1z"/>
    <path class="fil36" d="M90 106c0,1 -1,1 -2,1 -1,0 -1,0 -1,-1 0,-1 0,-2 1,-2 1,0 2,1 2,2z"/>
    <g>
     <path class="fil0" d="M83 91c0,0 0,0 0,0 0,0 0,0 0,0 0,0 0,0 0,0 0,0 0,0 0,0 0,0 0,0 0,0 0,0 0,0 0,0 0,0 0,0 -1,0 0,0 0,0 0,0 0,0 0,0 0,0 1,0 0,0 0,0l0 0c0,0 0,0 0,1 0,0 1,0 1,0 0,0 0,0 0,0 0,0 0,0 0,0 0,0 0,0 0,0 0,0 0,0 0,0 0,0 0,0 0,0 0,0 0,0 0,0 0,0 0,0 0,0 0,-1 0,-1 0,-1 0,0 0,0 0,0 0,0 0,0 0,0 0,0 0,0 0,0z"/>
     <path class="fil0" d="M83 92c0,0 0,0 0,0 0,0 0,0 0,0z"/>
    </g>
    <path class="fil0" d="M78 97c0,0 0,-1 0,-1 0,0 0,0 0,0 0,0 0,0 0,0 0,0 0,0 0,1 0,0 0,0 0,0 0,0 0,0 0,0 0,0 0,0 0,0 -1,0 -1,0 -1,0 0,0 0,0 1,0 0,0 0,0 0,0 0,0 0,0 0,0 0,0 0,0 0,0 0,0 0,0 0,0 0,0 0,0 0,0 0,0 0,0 0,0 0,0 0,0 0,0 0,0 1,0 0,0z"/>
    <path class="fil0" d="M80 112c0,0 0,0 -1,0 0,0 0,0 0,0 0,0 0,0 0,0 0,0 0,0 0,0 0,0 0,0 0,0 0,0 0,0 0,0 0,0 0,0 0,0 0,0 0,0 0,0 -1,0 -1,1 -1,1 1,0 2,0 2,0 0,0 0,-1 0,-1z"/>
    <path class="fil0" d="M86 109c0,0 0,0 -1,0 0,0 0,0 0,0 0,0 0,0 0,0 0,0 0,0 0,0 0,0 -1,0 -1,0 0,1 0,1 0,1 1,0 1,0 2,0 0,0 0,-1 0,-1z"/>
    <path class="fil0" d="M76 107c0,0 0,0 0,0 0,0 0,0 -1,0 0,0 0,1 0,1 0,0 0,0 0,0 0,0 0,0 0,1 0,0 1,0 1,-1 0,0 0,0 0,0 0,0 0,0 0,0 1,0 1,-1 0,-1z"/>
    <path class="fil0" d="M78 106c0,0 0,0 0,0 -1,0 -1,0 -1,1 0,0 0,0 0,0 0,0 0,0 0,0 1,0 1,0 1,0 0,0 0,0 0,0 0,0 0,0 0,0 0,0 0,0 0,0 0,0 0,0 0,0 0,0 0,0 0,0 0,0 0,0 0,0 0,0 0,-1 0,-1z"/>
    <path class="fil0" d="M89 85c0,0 0,0 -1,1 0,0 0,0 0,0 0,0 0,0 0,0 0,0 0,0 0,1 0,0 0,0 0,0 0,0 0,0 0,0 0,0 1,0 1,0 0,0 0,0 0,0 0,0 0,0 0,0 0,-1 0,-1 0,-1 0,0 0,0 0,-1z"/>
    <path class="fil1" d="M81 92c-1,-2 -6,0 -4,2 1,3 5,-1 4,-2z"/>
    <path class="fil1" d="M82 89c0,2 3,-1 2,-2 0,-1 -3,0 -2,2z"/>
    <path class="fil1" d="M77 111c0,3 3,1 3,-1 -1,-3 -4,-1 -3,1z"/>
    <path class="fil1" d="M68 111c-1,2 3,3 3,0 0,-2 -3,-1 -3,0z"/>
    <path class="fil1" d="M65 84c1,2 4,2 4,0 -1,-2 -4,-2 -4,0z"/>
    <path class="fil1" d="M78 85c0,1 3,0 2,-2 -1,-2 -3,0 -2,2z"/>
    <path class="fil1" d="M83 95c1,1 2,1 1,0 0,-1 -2,-1 -1,0z"/>
    <path class="fil10" d="M69 122c0,-3 2,-2 2,0 1,2 2,3 3,0 0,-3 14,-2 6,2 -7,3 -10,3 -13,2 -4,-1 2,-4 2,-4z"/>
    <path class="fil10" d="M97 109c0,0 2,2 1,2 -1,1 -1,0 -3,-1 -3,0 -7,2 -8,4 -1,2 -1,4 -1,5 1,1 3,1 8,-2 4,-2 9,-6 10,-7 2,-2 -6,-5 -7,-1z"/>
   </g>
  </g>
 </g>
</svg>
