<?xml version="1.0" encoding="UTF-8"?>
<!DOCTYPE svg PUBLIC "-//W3C//DTD SVG 1.1//EN" "http://www.w3.org/Graphics/SVG/1.1/DTD/svg11.dtd">
<!-- Creator: CorelDRAW X7 -->
<svg xmlns="http://www.w3.org/2000/svg" xml:space="preserve" width="118px" height="127px" version="1.1" style="shape-rendering:geometricPrecision; text-rendering:geometricPrecision; image-rendering:optimizeQuality; fill-rule:evenodd; clip-rule:evenodd"
viewBox="0 0 121 130"
 xmlns:xlink="http://www.w3.org/1999/xlink">
 <defs>
  <style type="text/css">
   <![CDATA[
    .fil5 {fill:none}
    .fil4 {fill:#FEFEFE}
    .fil1 {fill:#FEFEFE;fill-rule:nonzero}
    .fil2 {fill:#F7994B;fill-rule:nonzero}
    .fil3 {fill:#00AFEF;fill-rule:nonzero}
    .fil0 {fill:url(#id0);fill-rule:nonzero}
   ]]>
  </style>
  <linearGradient id="id0" gradientUnits="userSpaceOnUse" x1="25.1001" y1="106.221" x2="69.9364" y2="10.1583">
   <stop offset="0" style="stop-opacity:1; stop-color:#005F96"/>
   <stop offset="1" style="stop-opacity:1; stop-color:#0090E3"/>
  </linearGradient>
 </defs>
 <g id="Layer_x0020_1">
  <metadata id="CorelCorpID_0Corel-Layer"/>
  <g id="_687284912">
   <g>
    <path class="fil0" d="M92 9l0 98c0,4 -2,7 -5,7l-79 0c-3,0 -5,-3 -5,-7l0 -98c0,-4 2,-7 5,-7l79 0c3,0 5,3 5,7z"/>
    <path class="fil1" d="M28 85c0,0 -1,-1 -1,-2l0 -68c0,-1 1,-1 1,-1 1,0 2,0 2,1l0 68c0,1 -1,2 -2,2z"/>
    <path class="fil2" d="M28 26c5,0 8,3 8,7 0,4 -3,8 -8,8 -4,0 -7,-4 -7,-8 0,-4 3,-7 7,-7z"/>
    <path class="fil1" d="M48 85c-1,0 -2,-1 -2,-2l0 -47c0,0 1,-1 2,-1 0,0 1,1 1,1l0 47c0,1 -1,2 -1,2z"/>
    <path class="fil1" d="M48 45c-1,0 -2,-2 -2,-4l0 -26c0,-2 3,-2 3,0l0 26c0,2 -1,4 -1,4z"/>
    <path class="fil2" d="M48 52c4,0 7,4 7,8 0,4 -3,8 -7,8 -5,0 -8,-4 -8,-8 0,-4 3,-8 8,-8z"/>
    <path class="fil1" d="M67 85c-1,0 -2,-1 -2,-2l0 -36c0,-1 1,-2 2,-2 0,0 1,1 1,2l0 36c0,1 -1,2 -1,2z"/>
    <path class="fil1" d="M67 38c-1,0 -2,-1 -2,-2l0 -21c0,-1 1,-1 2,-1 0,0 1,0 1,1l0 21c0,1 -1,2 -1,2z"/>
    <path class="fil2" d="M67 49c-5,0 -8,-3 -8,-7 0,-5 3,-8 8,-8 4,0 7,3 7,8 0,4 -3,7 -7,7z"/>
    <g>
     <path class="fil3" d="M115 98c0,0 0,0 -1,0l-6 -1c0,-1 0,-2 -1,-3 1,-1 1,-2 2,-3 1,-1 1,-1 1,-2 1,0 1,0 1,0 0,-1 0,-1 0,-1 -1,-1 -3,-3 -6,-6 0,0 0,0 -1,0 0,0 0,0 0,0l-5 4c-1,-1 -2,-1 -3,-1l-1 -6c0,-1 0,-1 0,-1 0,0 0,0 -1,0l-7 0c0,0 -1,0 -1,1 0,1 -1,3 -1,6 -1,0 -2,0 -3,1l-4 -4c0,0 -1,0 -1,0 0,0 -1,1 -3,2 -2,2 -3,3 -3,4 0,0 0,0 0,1 0,0 0,0 0,0 1,2 2,3 3,5 0,1 -1,2 -1,3l-6 1c0,0 0,0 0,0 -1,0 -1,0 -1,1l0 7c0,0 0,0 1,0 0,1 0,1 0,1l6 1c0,1 1,2 1,3 0,0 -1,1 -1,2 -1,1 -2,2 -2,2 0,0 0,1 0,1 0,0 0,1 0,1 1,1 3,3 5,5 0,0 1,0 1,0 0,0 1,0 1,0l4 -3c1,0 2,1 3,1l1 6c0,0 0,0 0,0 1,1 1,1 1,1l7 0c1,0 1,-1 1,-1 1,-1 1,-3 1,-6 1,0 2,-1 3,-1l5 3c0,0 0,0 0,0 1,0 2,0 3,-2 2,-1 3,-2 4,-3 0,0 0,-1 0,-1 0,0 0,-1 0,-1 -2,-2 -3,-3 -4,-4 1,-1 1,-2 1,-3l6 -1c1,0 1,0 1,0 0,-1 0,-1 0,-1l0 -7c0,0 0,-1 0,-1zm-19 10c-1,2 -3,2 -5,2 -3,0 -4,0 -6,-2 -2,-2 -2,-3 -2,-6 0,-2 0,-4 2,-5 2,-2 3,-3 6,-3 2,0 4,1 5,3 2,1 3,3 3,5 0,3 -1,4 -3,6z"/>
     <circle class="fil4" cx="91" cy="102" r="8"/>
    </g>
    <path class="fil1" d="M3 104c0,-1 0,-1 0,-1l58 0c1,0 2,0 2,1 0,1 -1,2 -2,2l-58 0c0,0 0,-1 0,-2z"/>
   </g>
   <rect class="fil5" width="121" height="130"/>
  </g>
 </g>
</svg>
