<?xml version="1.0" encoding="UTF-8"?>
<!DOCTYPE svg PUBLIC "-//W3C//DTD SVG 1.1//EN" "http://www.w3.org/Graphics/SVG/1.1/DTD/svg11.dtd">
<!-- Creator: CorelDRAW X7 -->
<svg xmlns="http://www.w3.org/2000/svg" xml:space="preserve" width="118px" height="127px" version="1.1" style="shape-rendering:geometricPrecision; text-rendering:geometricPrecision; image-rendering:optimizeQuality; fill-rule:evenodd; clip-rule:evenodd"
viewBox="0 0 121 130"
 xmlns:xlink="http://www.w3.org/1999/xlink">
 <defs>
  <style type="text/css">
   <![CDATA[
    .fil5 {fill:none}
    .fil4 {fill:#FEFEFE}
    .fil1 {fill:#FEFEFE;fill-rule:nonzero}
    .fil2 {fill:#F7994B;fill-rule:nonzero}
    .fil3 {fill:#00AFEF;fill-rule:nonzero}
    .fil0 {fill:url(#id0);fill-rule:nonzero}
   ]]>
  </style>
  <linearGradient id="id0" gradientUnits="userSpaceOnUse" x1="25.2455" y1="106.264" x2="70.0164" y2="10.3438">
   <stop offset="0" style="stop-opacity:1; stop-color:#005F96"/>
   <stop offset="1" style="stop-opacity:1; stop-color:#0090E3"/>
  </linearGradient>
 </defs>
 <g id="Layer_x0020_1">
  <metadata id="CorelCorpID_0Corel-Layer"/>
  <g id="_687301952">
   <g>
    <path class="fil0" d="M92 9l0 98c0,4 -2,7 -5,7l-79 0c-3,0 -5,-3 -5,-7l0 -98c0,-4 2,-7 5,-7l79 0c3,0 5,3 5,7z"/>
    <path class="fil1" d="M28 13c-1,0 -1,1 -1,2l0 69c0,1 0,1 1,1 1,0 2,0 2,-1l0 -69c0,-1 -1,-2 -2,-2z"/>
    <path class="fil2" d="M28 73c5,0 8,-3 8,-7 0,-5 -3,-8 -8,-8 -4,0 -7,3 -7,8 0,4 3,7 7,7z"/>
    <path class="fil1" d="M48 13c-1,0 -2,1 -2,2l0 47c0,1 1,2 2,2 0,0 1,-1 1,-2l0 -47c0,-1 -1,-2 -1,-2z"/>
    <path class="fil1" d="M48 54c-1,0 -2,2 -2,4l0 26c0,2 3,2 3,0l0 -26c0,-2 -1,-4 -1,-4z"/>
    <path class="fil2" d="M48 46c4,0 7,-3 7,-7 0,-5 -3,-8 -7,-8 -5,0 -8,3 -8,8 0,4 3,7 8,7z"/>
    <path class="fil1" d="M67 13c-1,0 -2,1 -2,2l0 37c0,1 1,1 2,1 1,0 1,0 1,-1l0 -37c0,-1 0,-2 -1,-2z"/>
    <path class="fil1" d="M67 61c-1,0 -2,1 -2,2l0 21c0,1 1,1 2,1 1,0 1,0 1,-1l0 -21c0,-1 0,-2 -1,-2z"/>
    <path class="fil2" d="M67 50c-4,0 -8,3 -8,7 0,4 4,8 8,8 4,0 8,-4 8,-8 0,-4 -4,-7 -8,-7z"/>
    <g>
     <path class="fil3" d="M115 109c0,0 0,0 0,0l-5 -4c0,-1 0,-2 0,-3 0,0 1,-1 2,-1 1,-1 2,-1 3,-2 0,0 0,0 0,0 0,-1 0,-1 0,-1 0,-1 -1,-4 -2,-7 0,-1 0,-1 -1,-1 0,0 0,0 -1,0l-5 1c-1,0 -1,-1 -2,-2l1 -6c1,0 1,0 0,-1 0,0 0,0 0,0l-7 -3c0,0 -1,0 -1,0 -1,1 -2,3 -3,5 -1,0 -3,0 -4,0l-2 -5c0,0 -1,0 -1,-1 0,0 -1,1 -3,1 -3,1 -4,2 -5,2 0,0 0,0 0,1 0,0 -1,0 0,0 0,3 1,4 1,6 -1,1 -2,1 -3,2l-5 -2c-1,0 -1,0 -1,0 0,1 -1,1 -1,1l-3 7c0,0 0,0 0,0 0,1 0,1 1,1l5 3c0,1 -1,2 0,4 -1,0 -2,0 -3,1 -1,1 -2,1 -2,1 -1,0 -1,1 -1,1 0,0 0,0 0,1 0,1 1,3 3,7 0,0 0,0 0,0 0,0 1,0 1,0l5 -1c1,1 2,2 3,2l-2 6c0,0 0,1 0,1 0,0 0,0 1,1l6 3c1,0 1,0 1,-1 1,-1 2,-2 4,-5 1,0 2,0 3,0l3 5c0,1 0,1 0,1 1,0 2,0 4,-1 2,-1 3,-1 4,-2 0,0 1,0 1,0 0,0 0,-1 0,-1 -1,-2 -1,-4 -1,-5 0,-1 1,-2 2,-3l6 2c0,0 0,0 0,0 1,0 1,0 1,-1l3 -6c0,0 0,-1 0,-1zm-21 1c-2,1 -4,1 -6,0 -2,-1 -4,-2 -5,-4 0,-3 0,-5 1,-7 1,-2 2,-3 4,-4 3,-1 5,-1 7,0 2,1 3,3 4,5 1,2 1,4 0,6 -1,2 -3,4 -5,4z"/>
     <circle class="fil4" transform="matrix(0.143455 0.0667846 -0.0667849 0.143454 91.1987 102.742)" r="53"/>
    </g>
    <path class="fil1" d="M3 105c0,-1 0,-2 0,-2l58 0c2,0 3,1 3,2 0,0 -1,1 -3,1l-58 0c0,0 0,-1 0,-1z"/>
   </g>
   <rect class="fil5" width="121" height="130"/>
  </g>
 </g>
</svg>
