<?xml version="1.0" encoding="UTF-8"?>
<!DOCTYPE svg PUBLIC "-//W3C//DTD SVG 1.1//EN" "http://www.w3.org/Graphics/SVG/1.1/DTD/svg11.dtd">
<!-- Creator: CorelDRAW X7 -->
<svg xmlns="http://www.w3.org/2000/svg" xml:space="preserve" width="199px" height="151px" version="1.1" style="shape-rendering:geometricPrecision; text-rendering:geometricPrecision; image-rendering:optimizeQuality; fill-rule:evenodd; clip-rule:evenodd"
viewBox="0 0 199 151"
 xmlns:xlink="http://www.w3.org/1999/xlink">
 <defs>
  <style type="text/css">
   <![CDATA[
    .str0 {stroke:#373435;stroke-width:0.900004}
    .fil10 {fill:none}
    .fil1 {fill:#FEFEFE}
    .fil3 {fill:black}
    .fil0 {fill:#2887D2}
    .fil2 {fill:#EFAE74}
    .fil7 {fill:#FA0303}
    .fil6 {fill:#606062;fill-rule:nonzero}
    .fil8 {fill:#FFF212;fill-rule:nonzero}
    .fil9 {fill:url(#id0)}
    .fil4 {fill:url(#id1)}
    .fil5 {fill:url(#id2)}
   ]]>
  </style>
  <linearGradient id="id0" gradientUnits="userSpaceOnUse" x1="73.909" y1="56.7309" x2="98.7902" y2="50.4238">
   <stop offset="0" style="stop-opacity:1; stop-color:#04870F"/>
   <stop offset="1" style="stop-opacity:1; stop-color:#03690C"/>
  </linearGradient>
  <linearGradient id="id1" gradientUnits="userSpaceOnUse" x1="143.5" y1="132.028" x2="173.195" y2="94.289">
   <stop offset="0" style="stop-opacity:1; stop-color:black"/>
   <stop offset="1" style="stop-opacity:1; stop-color:#2D2E2E"/>
  </linearGradient>
  <linearGradient id="id2" gradientUnits="userSpaceOnUse" xlink:href="#id1" x1="122.136" y1="129.96" x2="148.714" y2="96.1835">
  </linearGradient>
 </defs>
 <g id="Layer_x0020_1">
  <metadata id="CorelCorpID_0Corel-Layer"/>
  <g id="_739123840">
   <g>
    <g>
     <polygon class="fil0" points="29,135 39,77 40,77 40,77 85,54 114,15 105,11 123,2 127,21 119,18 89,58 45,81 34,136 "/>
     <g>
      <path class="fil1 str0" d="M134 39c0,0 -2,1 -4,2 -2,2 -2,4 -2,4 0,0 0,3 0,3l3 -2 5 -4 -2 -3z"/>
      <g>
       <polygon class="fil2" points="127,44 130,48 136,42 134,39 "/>
       <g>
        <path class="fil3 str0" d="M115 33c1,0 -2,-2 1,-4 2,-2 1,-3 5,-5 3,-3 8,0 10,3 2,2 3,8 2,10 0,1 0,1 0,1 0,0 -4,0 -5,-1 0,-1 -4,0 -6,-1 -2,-2 -3,-4 -3,-4l-2 -1c0,0 -2,2 -2,2z"/>
        <path class="fil2" d="M127 45l-2 -2c0,0 -2,2 -3,2 -1,0 -2,-2 -2,-3 -1,-1 -1,-2 -1,-2l-2 0c0,0 0,0 0,-1 0,-2 1,-2 0,-3 0,0 -1,-3 -2,-4 0,0 0,0 0,0 1,-1 3,-2 4,-2 1,0 2,1 2,2 1,1 1,3 2,3 0,1 0,-1 0,-1 0,-1 0,-2 1,-2 1,-1 1,-1 2,1 0,1 2,4 3,4 0,1 4,1 4,1l1 2c0,0 -6,3 -7,5z"/>
        <path class="fil3" d="M116 30c0,0 0,0 0,2 0,1 0,0 1,1 0,1 0,1 0,1 0,0 0,-2 0,-2 0,0 -1,-2 -1,-2l0 0c0,0 1,1 1,1 0,1 0,1 0,2 0,0 1,1 1,1 0,0 0,-1 0,-1 0,-1 0,-1 0,-1 -1,-1 -1,-2 -1,-2 0,0 1,2 1,3 0,0 0,1 0,1 0,0 1,-1 1,-2 0,0 0,-1 0,-1l-1 -1 -1 -1 0 0 -1 1z"/>
        <path class="fil3" d="M128 35c0,0 0,1 1,2 0,1 0,1 0,2 1,1 1,1 1,1 0,0 -1,-2 -1,-3 1,0 0,-1 0,-1l0 -1c0,0 0,1 1,2 0,0 0,0 0,1 0,1 1,1 1,1 0,0 0,0 0,-1 0,0 -1,-1 -1,-1 0,-1 0,-2 0,-2 0,0 1,3 1,3 0,0 0,1 0,1 0,0 0,-1 1,-1 0,0 0,-2 0,-2l-1 -1 -1 -1 -1 0 -1 1z"/>
       </g>
      </g>
      <path class="fil4 str0" d="M140 91l16 -6c0,0 0,3 0,6 0,3 2,10 2,10 0,0 1,6 2,8 0,2 2,5 2,5l6 10 6 9 3 5c0,0 -1,1 -3,2 -1,1 -5,1 -6,1 0,0 0,0 0,0l0 -4c0,0 0,-1 -1,-2 -2,0 -10,-12 -10,-12 0,0 -5,-7 -6,-8 -1,-2 -4,-9 -4,-9l-5 -11 -2 -4z"/>
      <path class="fil2" d="M108 41c0,0 -1,0 -1,-1 0,-1 0,-2 0,-3 1,-1 2,-2 2,-3 0,-1 0,-1 0,-1 0,0 0,0 0,0 0,0 0,-1 0,-1 0,-1 0,-1 0,-1 0,0 1,-1 1,-1 -1,0 -1,0 -2,0 0,1 -3,6 -3,6l-2 5c0,0 0,0 0,1 0,0 0,0 1,1 1,1 2,3 2,3 0,0 1,-3 2,-4 0,0 0,0 0,0 0,0 0,0 0,-1z"/>
      <path class="fil2" d="M105 49c0,0 -2,-2 -3,-3 -1,-1 -1,-2 0,-3 0,0 1,-1 1,-1 -1,0 3,4 3,4 0,0 0,0 0,0 0,0 0,2 0,2l-1 1z"/>
      <path class="fil3 str0" d="M106 47c0,0 11,9 14,10 3,1 4,1 10,0 6,-1 8,-3 9,-4 1,-1 3,-4 1,-6 -1,-2 -2,-4 -5,-3 -3,0 -7,3 -8,4 -1,1 -3,2 -3,2l-15 -9c0,0 -2,2 -2,4 -1,1 -1,2 -1,2z"/>
      <path class="fil5 str0" d="M135 85c0,0 -4,5 -6,9 -1,4 -5,10 -6,13 -1,3 -1,3 0,6 1,3 7,20 7,20 0,0 0,2 1,3 0,1 1,1 1,1l0 2 0 1c0,0 3,1 4,1 2,0 4,-1 4,-1l-6 -22c0,0 -2,-6 -2,-6 0,-1 0,-1 1,-2 1,-2 10,-14 10,-14l6 -7 -14 -4z"/>
      <path class="fil3" d="M121 145c0,0 1,-2 5,-3 3,0 5,-3 5,-3l2 1c0,0 2,0 3,0 2,0 5,-1 5,-1 0,0 0,2 0,3 0,1 0,2 0,2l0 2 -6 0 0 -2c0,0 -3,1 -6,2 -2,0 -7,0 -8,0 0,0 0,-1 0,-1z"/>
      <path class="fil3 str0" d="M168 140c0,0 0,2 -2,4 -1,1 -3,1 -4,2 -1,1 -2,2 -1,2 1,0 3,0 5,0 2,-1 3,0 5,-2 2,-2 3,-2 3,-2l0 2 6 -3c0,0 -2,-4 -2,-5 -1,-1 -1,-1 -1,-1 0,0 -2,3 -5,3 -3,1 -4,0 -4,0z"/>
      <g>
       <g>
        <path class="fil3" d="M136 40c0,0 -3,2 -4,4 -1,2 -4,11 -5,14 -1,4 -1,6 0,12 1,6 5,16 6,17 1,0 4,5 5,6 2,0 11,-3 15,-5 3,-2 5,-2 5,-2 0,0 -5,-12 -6,-15 -1,-2 -2,-3 -2,-6 -1,-3 -3,-14 -5,-17 -2,-3 -7,-8 -9,-8z"/>
        <path id="1" class="fil6" d="M132 44l0 0 0 0 0 0 0 0 0 0 0 -1 1 0 0 0 0 0 0 0 0 -1 0 0 1 0 0 0 0 0 0 0 0 -1 0 0 1 0 0 0 0 0 0 0 0 -1 0 0 1 0 0 0 0 0 0 0 0 0 0 0 0 0 0 0 0 0 0 0 0 0 0 0 0 0 0 0 0 0 0 0 0 0 0 0 0 0 0 0 0 1 -1 0 0 0 0 0 0 0 0 0 0 0 0 1 -1 0 0 0 0 0 0 0 0 0 -1 1 0 0 0 0 0 0 0 0 0 1 -1 0 0 0 0 0 0 0 0 0zm-5 14l0 0 0 0 0 0 0 -1 0 0 1 0 0 -1 0 0 0 -1 0 0 0 -1 0 0 1 -1 0 0 0 -1 0 0 0 -1 0 0 1 -1 0 0 0 -1 0 0 0 -1 0 0 1 -1 0 0 0 -1 0 0 0 0 0 -1 0 0 1 0 0 -1 0 0 0 0 0 1 0 0 0 0 0 0 -1 1 0 0 0 1 0 0 0 0 0 1 -1 0 0 1 0 0 0 1 0 0 0 1 -1 0 0 1 0 0 0 1 0 0 0 1 -1 0 0 1 0 0 0 1 0 0 0 1 0 0 0 1 -1 0 0 0 0 0zm0 12l0 0 0 0 0 0 0 -1 0 0 0 -1 -1 0 0 -1 0 0 0 -1 0 0 0 0 0 -1 0 0 0 -1 0 0 0 0 0 -1 0 0 0 0 0 -1 0 0 0 0 0 -1 0 0 1 0 0 0 0 -1 0 0 0 0 0 -1 0 0 0 0 0 -1 0 0 0 1 0 0 0 0 0 1 0 0 0 0 0 1 0 0 0 0 0 0 0 1 0 0 0 0 0 1 0 0 0 0 0 1 0 0 0 0 0 1 0 0 0 1 0 0 0 0 0 1 0 0 0 1 0 0 0 1 0 0 0 1 0 0 0 0zm6 16l0 1 0 0 0 0 0 -1 -1 0 0 0 0 0 0 -1 0 0 0 0 -1 -1 0 0 0 -1 0 0 0 -1 -1 0 0 -1 0 -1 0 0 -1 -1 0 0 0 -1 0 -1 -1 0 0 -1 0 -1 0 0 0 -1 -1 -1 0 0 0 -1 0 -1 0 0 0 -1 0 0 0 1 0 0 0 1 1 1 0 0 0 1 0 0 0 1 0 1 1 0 0 1 0 1 0 0 1 1 0 1 0 0 0 1 1 1 0 0 0 1 0 0 1 1 0 0 0 1 0 0 0 0 0 1 1 0 0 0 0 0 0 0 0 0 0 0zm5 6l0 1 0 0 0 0 0 0 0 -1 0 0 -1 0 0 0 0 0 0 0 0 -1 -1 0 0 0 0 0 0 0 0 -1 -1 0 0 0 0 -1 0 0 0 0 -1 0 0 -1 0 0 0 0 0 0 0 0 -1 -1 0 0 0 0 0 0 0 0 0 0 0 0 0 -1 0 0 0 1 0 0 0 0 1 0 0 0 0 0 0 1 0 0 0 0 0 0 1 1 0 0 0 0 0 0 0 1 1 0 0 0 0 0 0 1 0 0 1 0 0 0 0 0 0 1 0 0 1 0 0 0 0 0 0 0 0 0 0 0 0 0zm15 -4l0 0 0 0 0 1 -1 0 0 0 -1 0 0 0 -1 1 0 0 -1 0 0 0 -1 0 0 0 -1 1 0 0 -1 0 -1 0 0 0 -1 0 0 1 -1 0 0 0 -1 0 0 0 -1 0 0 0 -1 0 0 1 0 0 -1 0 0 0 0 0 -1 0 0 0 0 -1 0 0 1 0 0 0 0 0 1 0 0 0 0 0 1 0 0 0 1 0 0 0 1 0 0 -1 1 0 0 0 1 0 0 0 1 0 0 0 1 -1 1 0 0 0 1 0 0 0 1 -1 0 0 1 0 0 0 1 0 0 -1 0 0 1 0 0 0zm5 -2l0 0 0 0 0 0 0 0 0 0 0 0 0 0 0 0 0 0 0 0 0 0 0 0 -1 0 0 0 0 0 0 0 0 0 0 0 0 0 -1 1 0 0 0 0 0 0 0 0 -1 0 0 0 0 0 0 0 -1 1 0 0 0 0 0 0 -1 0 0 0 0 0 0 0 0 0 1 0 0 -1 0 0 1 0 0 0 0 0 0 0 1 0 0 0 0 -1 0 0 0 0 1 0 0 0 0 0 0 0 0 0 0 0 0 0 0 0 1 0 0 0 0 0 0 0 0 -1 0 0 0 0 0 0 0 0 0 0 0 1zm-6 -15l0 0 0 0 0 0 0 1 0 0 1 1 0 0 0 0 0 1 0 1 1 0 0 1 0 0 0 1 1 0 0 1 0 1 1 0 0 1 0 1 0 0 1 1 0 0 0 1 0 0 0 1 1 0 0 0 0 1 0 0 0 0 0 0 0 0 0 1 0 0 0 0 0 0 0 -1 0 0 0 0 -1 0 0 -1 0 0 0 -1 0 0 -1 -1 0 0 0 -1 0 0 -1 -1 0 -1 0 0 0 -1 -1 0 0 -1 0 -1 0 0 -1 -1 0 0 0 -1 0 0 -1 -1 0 0 0 -1 0 0 0 0 0 -1 0 0zm-3 -6l1 0 0 0 0 0 0 0 0 1 0 0 0 0 0 0 0 0 0 1 0 0 0 0 0 0 0 0 0 1 0 0 0 0 0 0 1 0 0 0 0 1 0 0 0 0 0 0 0 0 0 0 0 1 0 0 0 0 1 0 0 0 0 1 0 0 0 0 0 0 0 0 0 0 -1 0 0 -1 0 0 0 0 0 0 0 0 0 -1 0 0 0 0 0 0 -1 0 0 0 0 -1 0 0 0 0 0 0 0 0 0 -1 0 0 0 0 0 0 0 0 0 -1 0 0 -1 0 0 0 0 0 0 -1 0 0 0 0 0 0zm-4 -17l0 0 0 0 0 1 0 0 1 0 0 1 0 0 0 1 0 0 1 1 0 0 0 1 0 0 0 1 0 1 1 0 0 1 0 1 0 0 0 1 0 0 1 1 0 1 0 0 0 1 0 0 0 1 0 0 0 1 0 0 1 1 0 0 0 0 0 1 -1 0 0 -1 0 0 0 0 0 -1 0 0 0 -1 0 0 0 -1 0 0 0 -1 -1 0 0 -1 0 -1 0 0 0 -1 0 0 0 -1 -1 -1 0 0 0 -1 0 0 0 -1 -1 -1 0 0 0 -1 0 0 0 -1 0 0 -1 -1 0 0 0 0 0 -1 0 0zm-9 -8l0 0 0 0 0 0 1 0 0 0 0 0 0 0 1 0 0 1 0 0 0 0 1 0 0 0 0 1 1 0 0 0 0 1 1 0 0 0 0 1 1 0 0 0 0 1 1 0 0 0 0 1 0 0 1 0 0 1 0 0 0 0 1 1 0 0 0 0 0 0 0 0 -1 0 0 -1 0 0 0 0 -1 -1 0 0 0 0 0 -1 -1 0 0 0 0 -1 -1 0 0 0 0 -1 -1 0 0 0 0 0 -1 -1 0 0 0 0 -1 -1 0 0 0 0 0 0 -1 0 0 -1 0 0 0 0 0 0 -1 0 0 0 0 0zm0 0l0 0 0 0 0 0z"/>
       </g>
       <path class="fil7" d="M127 45c0,0 0,1 0,2 -1,1 0,12 0,12 0,0 0,6 0,8 0,2 0,13 0,13 0,0 1,-2 1,-3 0,-1 0,-13 0,-13l0 -7 0 -10c0,0 0,-2 -1,-2z"/>
       <g>
        <path class="fil3" d="M143 46c0,0 2,4 3,7 0,2 1,7 1,10 0,2 3,8 3,9 1,2 6,14 6,14 0,0 -4,2 -7,3 -3,1 -5,2 -8,2 -2,-1 -8,-8 -9,-12 -1,-3 -4,-8 -4,-11 -1,-3 -2,-6 1,-14 2,-9 2,-8 2,-8 0,0 3,-4 4,-5 1,-1 1,-1 1,-1 0,0 4,3 6,5 1,1 1,1 1,1z"/>
        <path id="1" class="fil6" d="M146 53l-1 0 0 0 0 -1 0 0 0 0 0 0 0 -1 0 0 0 0 0 0 0 -1 0 0 0 0 -1 0 0 -1 0 0 0 0 0 0 0 -1 0 0 0 0 -1 0 0 0 0 -1 0 0 0 0 0 0 0 0 0 0 0 0 0 0 0 0 0 0 0 -1 0 0 0 0 0 0 0 0 0 0 0 1 0 0 0 0 0 0 0 0 1 0 0 0 0 1 0 0 0 0 0 0 0 0 0 1 0 0 1 0 0 0 0 1 0 0 0 0 0 1 0 0 0 0 0 0 1 1 0 0 0 0 0 0 0 1 0 0zm1 10l0 0 0 0 0 -1 0 0 0 0 0 0 0 -1 0 0 0 0 0 -1 0 0 0 0 0 -1 0 0 0 0 0 -1 0 0 -1 0 0 -1 0 0 0 0 0 -1 0 0 0 0 0 -1 0 0 0 0 0 -1 0 0 0 0 0 0 -1 -1 0 0 0 0 1 0 0 0 0 0 0 1 0 0 0 0 0 0 0 1 0 0 0 0 0 1 0 0 0 0 1 1 0 0 0 0 0 1 0 0 0 0 0 1 0 0 0 0 0 1 0 0 0 0 0 1 0 0 0 0 0 1 0 0 0 0 0 0 0 1 0 0zm3 9l0 1 0 0 0 -1 0 0 0 0 0 0 0 -1 0 0 0 0 -1 0 0 -1 0 0 0 0 0 -1 0 0 0 0 0 -1 -1 0 0 0 0 -1 0 0 0 0 0 -1 0 0 0 -1 -1 0 0 0 0 -1 0 0 0 0 0 0 0 -1 0 0 0 0 0 0 0 0 0 0 0 0 1 1 0 0 0 0 0 1 0 0 0 0 0 1 0 0 0 0 0 1 0 0 1 0 0 1 0 0 0 1 0 0 0 0 0 1 1 0 0 0 0 0 0 1 0 0 0 0 0 1 0 0 0 0 0 0 0 0 0 0zm6 15l0 -1 0 0 0 0 0 0 0 0 0 0 0 0 0 -1 -1 0 0 0 0 -1 0 0 0 -1 -1 0 0 -1 0 -1 0 0 -1 -1 0 0 0 -1 0 -1 -1 0 0 -1 0 0 0 -1 -1 0 0 -1 0 0 0 -1 0 0 -1 -1 0 0 0 0 0 0 0 -1 1 1 0 0 0 0 0 1 0 0 0 0 0 1 1 0 0 1 0 0 0 1 1 1 0 0 0 1 0 0 1 1 0 1 0 0 0 1 1 0 0 1 0 1 0 0 1 0 0 1 0 0 0 1 0 0 0 0 0 0 0 0 0 0 0 1zm-7 2l0 0 0 0 0 0 1 0 0 0 0 0 1 0 0 0 0 -1 0 0 1 0 0 0 0 0 1 0 0 0 0 0 1 -1 0 0 0 0 0 0 1 0 0 0 0 0 0 0 0 0 1 0 0 0 0 -1 0 0 0 0 0 0 0 0 0 0 0 0 0 1 0 0 0 0 0 0 0 0 0 0 0 0 0 0 0 0 0 0 -1 0 0 0 0 0 0 0 -1 0 0 1 0 0 0 0 -1 0 0 0 0 0 -1 0 0 0 0 0 0 1 -1 0 0 0 0 0 -1 0 0 0 0 0 -1 0 0 0 0 0zm-8 2l0 0 0 0 1 0 0 0 0 0 0 0 0 0 1 0 0 0 0 0 0 0 0 0 1 0 0 0 0 0 0 0 1 -1 0 0 0 0 0 0 0 0 1 0 0 0 0 0 0 0 1 0 0 0 0 0 1 -1 0 0 0 0 0 0 1 0 0 0 0 0 0 0 -1 1 0 0 0 0 0 0 -1 0 0 0 0 0 0 0 -1 0 0 0 0 0 0 0 -1 1 0 0 0 0 0 0 -1 0 0 0 0 0 0 0 -1 0 0 0 0 0 0 0 0 0 -1 0 0 0 0 0 0 0 -1 0 0 0 0 0zm-9 -12l0 0 0 0 0 1 0 0 0 0 1 1 0 0 0 1 0 0 1 0 0 1 0 0 1 1 0 0 0 1 1 0 0 1 0 0 1 1 0 0 0 0 1 1 0 0 0 0 1 1 0 0 0 0 1 1 0 0 0 0 1 0 0 0 0 1 0 0 0 0 0 0 0 0 -1 0 0 -1 0 0 0 0 -1 0 0 -1 0 0 -1 0 0 -1 0 0 -1 0 0 -1 -1 0 0 -1 0 0 -1 -1 0 0 0 -1 -1 0 0 0 0 -1 -1 0 0 -1 0 0 0 -1 -1 0 0 0 0 -1 0 0 0 -1 0 0zm-4 -11l0 0 0 0 0 0 0 1 0 0 0 0 0 1 0 0 0 0 1 1 0 0 0 0 0 1 0 0 0 1 0 0 0 0 1 1 0 0 0 0 0 1 0 0 0 0 1 1 0 0 0 1 0 0 0 0 0 1 0 0 1 0 0 1 0 0 0 0 0 0 0 0 -1 0 0 -1 0 0 0 0 0 -1 0 0 0 0 -1 -1 0 0 0 0 0 -1 0 0 0 -1 -1 0 0 0 0 -1 0 0 0 0 0 -1 0 0 -1 0 0 -1 0 0 0 -1 0 0 0 0 0 -1 0 0 0 0 0 -1 0 0 0 0zm0 -15l1 1 0 0 -1 0 0 1 0 1 0 0 0 1 0 1 -1 0 0 1 0 0 0 1 0 0 0 1 0 0 0 1 0 0 0 1 0 0 0 0 0 1 0 0 0 0 0 1 0 0 0 0 0 1 1 0 0 0 0 1 0 0 0 0 0 1 0 0 0 0 0 0 -1 -1 0 0 0 0 0 0 0 -1 0 0 0 0 0 -1 0 0 0 0 0 -1 0 0 0 -1 0 0 0 0 0 -1 0 0 0 -1 0 0 0 -1 0 0 0 -1 0 0 0 -1 0 0 0 -1 1 -1 0 0 0 -1 0 -1 0 -1 0 0zm3 -8l1 1 -1 -1 1 1 0 0 0 0 0 0 0 0 0 0 0 0 -1 0 0 0 0 0 0 0 0 0 0 0 0 0 0 0 0 1 0 0 0 0 0 0 0 0 0 1 0 0 0 1 -1 0 0 0 0 1 0 0 0 1 -1 1 0 0 0 1 0 1 -1 -1 1 0 0 -1 0 -1 0 0 1 -1 0 0 0 -1 0 0 0 -1 0 0 0 0 1 -1 0 0 0 0 0 0 0 -1 0 0 0 0 0 0 0 0 0 0 0 0 0 0 0 0 0 0 0 0 0 -1 0 0 0 0 0 0 0 1 1 0 -1 -1zm4 -4l0 0 0 0 0 0 0 0 0 0 0 0 0 0 0 1 -1 0 0 0 0 0 0 0 0 1 0 0 -1 0 0 0 0 0 0 1 0 0 0 0 0 0 -1 0 0 1 0 0 0 0 0 0 0 0 0 0 0 0 0 0 0 1 0 0 0 0 0 0 -1 -1 0 0 0 0 0 0 0 0 0 0 1 0 0 0 0 0 0 0 0 0 0 -1 0 0 0 0 0 0 1 0 0 -1 0 0 0 0 0 0 0 0 1 -1 0 0 0 0 0 0 0 0 0 -1 0 0 1 0 0 0 0 0 0 0 0 0 0 0zm1 -1l0 0 0 0 0 0 0 0 0 0 0 0 0 0 0 0 0 0 0 0 0 0 0 0 0 0 0 0 0 0 0 0 0 0 0 0 0 0 0 0 0 0 0 0 0 0 0 0 0 0 0 0 0 0 0 0 0 0 0 1 0 0 -1 0 0 0 0 0 0 0 0 0 0 -1 0 0 0 0 0 0 1 0 0 0 0 0 0 0 0 0 0 0 0 0 0 0 0 0 0 0 0 0 0 0 0 0 0 0 0 0 0 0 0 0 0 0 0 0 0 0 0 0 0 0 0 0 0 0 0 0 0 0 0 0 0 0zm6 5l-1 0 0 0 0 0 0 -1 0 0 0 0 0 0 0 0 -1 -1 0 0 0 0 0 0 -1 0 0 -1 0 0 0 0 0 0 -1 0 0 0 0 -1 0 0 0 0 -1 0 0 0 0 0 0 -1 0 0 0 0 -1 0 0 0 0 0 0 0 0 0 0 0 0 0 0 0 0 0 0 0 1 0 0 0 0 0 0 0 0 0 0 0 0 0 1 1 0 0 0 0 0 0 0 0 1 0 0 1 0 0 0 0 0 0 1 0 0 1 0 0 0 0 1 0 0 0 0 1 0 0 0 0 0 0 1 0 0 1 0 0zm1 1l0 0 0 0 0 1 0 0 0 -1 0 0 0 0 0 0 0 0 0 0 0 0 0 0 0 0 0 0 0 0 0 0 0 0 0 0 0 0 0 0 -1 0 0 0 0 0 0 0 0 0 0 0 0 0 0 0 0 -1 0 0 0 0 0 0 0 0 -1 0 1 0 0 0 0 0 0 0 0 0 0 0 0 0 0 0 0 1 1 0 0 0 0 0 0 0 0 0 0 0 0 0 0 0 0 0 0 0 0 0 0 0 0 0 0 0 0 0 0 0 0 0 0 0 0 0 0 0 0 0 0 0 0 0 0 0 0 0zm0 0l0 0 0 0 0 0z"/>
       </g>
       <path class="fil1 str0" d="M135 38c0,0 -2,2 -3,4 0,2 -2,3 -2,5 0,1 0,2 0,2 0,0 3,-4 5,-6 2,-2 1,-3 1,-3l-1 -2z"/>
      </g>
      <g>
       <path class="fil3" d="M105 50l13 9c0,0 1,1 2,2 1,0 6,-1 6,-1 0,0 9,-2 12,-4 4,-3 2,-8 1,-9 -1,-1 -1,-1 -3,-1 -2,0 -6,2 -9,4 -2,1 -3,1 -3,1l-15 -10c0,0 -3,2 -3,6 -1,3 -1,0 -1,3z"/>
       <path id="1" class="fil6" d="M118 59l-13 -9 0 0 13 9 0 0 0 0zm2 1l0 1 0 0 0 0 0 0 0 0 0 0 0 0 -1 0 0 0 0 -1 0 0 0 0 0 0 0 0 0 0 0 0 0 0 -1 0 0 0 0 0 0 0 0 0 0 0 0 0 0 -1 0 0 0 0 0 0 0 0 0 0 0 0 0 0 -1 0 0 0 1 0 0 0 0 0 0 0 0 0 0 0 0 0 0 0 0 0 0 0 0 0 0 0 0 0 0 0 0 1 1 0 0 0 0 0 0 0 0 0 0 0 0 0 0 0 0 0 0 0 1 0 0 0 0 0 0 0 0 0 0 0 0 0 0 0 0 0zm6 0l0 0 0 0 0 0 0 0 0 0 0 0 0 0 -1 0 0 0 0 0 0 0 0 0 0 0 -1 0 0 0 0 0 0 0 -1 0 0 0 0 1 0 0 -1 0 0 0 0 0 0 0 -1 0 0 0 0 0 0 0 0 0 -1 0 0 0 0 0 0 0 0 -1 0 0 0 0 0 0 1 0 0 0 0 0 0 0 0 0 1 0 0 0 0 0 0 0 1 0 0 0 0 0 0 0 1 0 0 0 0 0 0 0 0 0 1 0 0 0 0 0 0 0 0 0 0 0 1 0 0 0 0 0 0 0 0 0 0 0zm12 -5l1 1 0 0 -1 0 0 0 -1 0 0 1 0 0 -1 0 0 0 -1 0 0 1 -1 0 0 0 -1 0 -1 0 0 0 -1 1 0 0 -1 0 0 0 -1 0 0 0 -1 0 0 0 0 1 -1 0 0 0 0 0 -1 0 0 0 0 0 0 0 0 0 0 0 0 0 0 0 0 0 0 0 0 0 0 0 1 -1 0 0 0 0 1 0 0 0 0 0 1 0 0 0 1 0 0 0 1 -1 0 0 1 0 0 0 1 0 0 0 1 -1 0 0 1 0 0 0 1 0 0 -1 1 0 0 0 1 0 0 0 0 -1 0 0zm1 -8l0 0 0 0 0 0 1 1 0 0 0 0 0 0 0 0 0 0 0 1 0 0 0 0 0 1 1 0 0 0 0 0 0 1 0 0 0 0 0 1 0 0 0 0 0 1 0 0 -1 0 0 1 0 0 0 0 0 0 0 1 -1 0 0 0 0 0 0 1 -1 -1 1 0 0 0 0 0 0 -1 1 0 0 0 0 0 0 -1 0 0 0 0 0 0 0 -1 0 0 0 0 0 -1 0 0 0 0 0 -1 0 0 0 0 0 0 0 -1 0 0 0 0 0 0 0 -1 0 0 0 0 -1 0 0 0 0 0 0 -1 0 0zm-3 -1l0 0 0 0 0 0 0 0 0 0 1 0 0 0 0 0 0 0 0 0 0 0 0 0 0 0 1 0 0 0 0 0 0 0 0 0 0 0 0 0 0 0 0 0 0 0 0 0 1 0 0 1 0 0 0 0 0 0 0 0 0 0 0 0 0 0 0 0 0 0 0 0 0 0 0 0 0 0 0 0 0 0 -1 0 0 0 0 0 0 0 0 0 0 0 0 -1 0 0 0 0 0 0 0 0 0 0 0 0 -1 0 0 0 0 0 0 0 0 0 0 0 0 0 0 0 0 0 -1 0 0 0 0 0 0 0 0 0zm-9 4l0 -1 0 0 1 0 0 0 0 0 0 0 1 0 0 0 0 -1 1 0 0 0 0 0 1 0 0 0 0 -1 0 0 1 0 0 0 0 0 1 0 0 0 0 0 1 -1 0 0 0 0 0 0 1 0 0 0 0 0 0 0 1 0 0 0 0 0 0 0 0 0 0 0 0 0 0 0 -1 0 0 0 0 0 0 0 -1 0 0 1 0 0 0 0 -1 0 0 0 0 0 0 0 -1 0 0 0 0 1 -1 0 0 0 0 0 -1 0 0 0 0 0 -1 1 0 0 0 0 0 0 -1 0 0 0 0 1 -1 0 0 0zm-3 1l0 0 0 0 0 0 0 0 0 0 0 0 0 0 0 0 0 0 0 0 0 0 0 0 0 0 0 0 0 0 1 0 0 0 0 0 0 0 0 0 0 0 0 0 0 0 0 -1 1 0 0 0 0 0 0 0 0 0 0 0 1 0 0 0 0 0 0 -1 0 1 0 0 0 0 0 0 0 0 -1 0 0 0 0 1 0 0 0 0 -1 0 0 0 0 0 0 0 0 0 0 0 0 0 0 0 0 0 0 0 -1 0 0 0 0 0 0 0 0 0 0 0 0 0 0 0 0 0 0 0 0 0 0 0 0 0 0 0zm-15 -10l15 10 0 0 -15 -10 0 0 0 0zm-3 6l0 0 0 0 0 -1 0 0 0 0 0 -1 0 0 0 0 0 -1 0 0 1 0 0 0 0 -1 0 0 0 0 0 0 0 0 1 -1 0 0 0 0 0 0 0 0 0 0 0 -1 1 0 0 0 0 0 0 0 0 0 0 0 0 0 0 0 0 0 0 0 0 0 0 0 0 0 0 0 0 0 0 0 0 0 0 0 0 1 0 0 0 0 0 0 -1 0 0 0 0 0 0 0 0 1 0 0 0 0 -1 0 0 0 0 1 0 0 0 0 0 0 0 0 -1 1 0 0 0 0 0 1 0 0 0 0 0 1 0 0zm-1 3l0 0 -1 0 1 0 0 0 0 0 0 -1 0 0 0 0 0 0 0 0 0 0 0 0 0 0 0 0 0 0 0 0 0 0 0 0 0 0 0 0 0 0 0 0 0 -1 0 0 0 0 0 0 0 0 0 0 1 0 0 0 0 -1 0 0 0 0 0 0 0 0 0 0 0 0 0 1 0 0 0 0 0 0 0 0 0 0 0 1 0 0 0 0 -1 0 0 0 0 0 0 0 0 0 0 0 0 0 0 0 0 0 0 0 0 0 0 0 0 0 0 0 0 0 0 0 0 0 0 1 0 0 0 0 0 0 0 0zm0 0l-1 0 0 0 1 0z"/>
      </g>
     </g>
    </g>
    <g>
     <circle class="fil7" cx="32" cy="124" r="13"/>
     <path class="fil8" d="M34 127c0,-1 0,-1 0,-2 -1,0 -1,0 -2,0 0,-1 -1,-1 -2,-1 0,0 0,-1 -1,-1 0,0 0,-1 -1,-1 0,0 0,-1 0,-2 0,-1 1,-1 1,-2 1,-1 2,-1 3,-1l0 -1 0 -1 0 0 0 0c0,0 0,0 0,0l1 0c0,0 0,0 0,0l0 0 0 0 0 1 0 1c1,0 2,1 3,1 0,1 0,2 0,3l0 0 0 0c0,0 0,1 0,1l-1 0c-1,0 -1,-1 -1,-1l0 0 0 0 0 0 0 0 0 0c0,-1 0,-1 -1,-2 0,0 0,0 -1,0 0,0 -1,0 -1,0 0,1 0,1 0,1 0,1 0,1 0,2 0,0 1,0 2,0 0,1 1,1 1,1 1,0 1,1 2,1 0,0 0,1 0,1 0,1 0,1 0,2 0,1 0,1 0,2 -1,1 -2,1 -3,1l0 1c0,0 0,0 0,0l0 0c0,1 0,1 0,1l-1 0c0,0 0,0 0,-1l0 0c0,0 0,0 0,0l0 -1c-2,0 -3,0 -3,-1 -1,-1 -1,-2 -1,-3l0 0c0,0 0,-1 1,-1l0 0c1,0 1,1 1,1l0 0 0 0 0 0 0 0 0 0 0 0c0,1 0,1 1,2 0,0 1,0 1,0 1,0 1,0 1,0 1,-1 1,-1 1,-1z"/>
    </g>
    <g>
     <circle class="fil0" cx="45" cy="77" r="13"/>
     <path class="fil8" d="M47 80c0,0 -1,-1 -1,-1 0,0 -1,0 -1,-1 -1,0 -1,0 -2,0 0,-1 -1,-1 -1,-1 0,-1 -1,-1 -1,-1 0,-1 0,-1 0,-2 0,-1 0,-2 1,-2 1,-1 1,-1 2,-1l0 -1 0 -1 0 0 0 0c0,0 1,0 1,0l0 0c1,0 1,0 1,0l0 0 0 0 0 1 0 1c1,0 2,0 2,1 1,1 1,1 1,2l0 0 0 0c0,1 0,1 -1,1l-1 0c0,0 0,0 0,-1l0 0 0 0 0 0 0 0 0 0c0,0 -1,0 -1,-1 0,0 -1,0 -1,0 0,0 -1,0 -1,0 0,0 -1,1 -1,1 0,1 1,1 1,1 0,1 1,1 1,1 1,0 2,1 2,1 1,0 1,0 1,1 1,0 1,0 1,1 0,0 0,1 0,1 0,1 0,2 -1,3 0,0 -1,1 -2,1l0 0c0,0 0,0 0,1l0 0c0,0 -1,1 -1,1l0 0c-1,0 -1,-1 -1,-1l0 0c0,-1 0,-1 0,-1l0 0c-1,0 -2,-1 -3,-1 0,-1 -1,-2 -1,-3l0 0c0,0 1,-1 1,-1l1 0c1,0 1,1 1,1l0 0 0 0 0 0 0 0 0 0 0 0c0,1 0,1 0,1 1,1 1,1 2,1 0,0 1,0 1,-1 0,0 1,0 1,-1z"/>
    </g>
    <g>
     <circle class="fil9" cx="86" cy="54" r="13"/>
     <path class="fil8" d="M88 57c0,-1 0,-1 0,-2 -1,0 -1,0 -2,0 0,-1 -1,-1 -1,-1 -1,0 -1,-1 -1,-1 -1,0 -1,-1 -1,-1 0,0 -1,-1 -1,-1 0,-1 1,-2 1,-3 1,-1 2,-1 3,-1l0 -1 0 0 0 -1 0 0c0,0 0,0 0,0l1 0c0,0 0,0 0,0l0 0 0 1 0 0 0 1c1,0 2,1 3,1 0,1 1,2 1,3l0 0 0 0c0,0 -1,1 -1,1l-1 0c0,0 -1,-1 -1,-1l0 0 0 0 0 0 0 0 0 0c0,-1 0,-1 0,-1 -1,-1 -1,-1 -1,-1 -1,0 -1,0 -2,0 0,1 0,1 0,2 0,0 0,0 0,1 1,0 1,0 2,0 1,1 1,1 2,1 0,1 0,1 1,1 0,0 0,1 0,1 1,1 1,1 1,2 0,1 -1,1 -1,2 -1,1 -2,1 -3,1l0 1c0,0 0,0 0,0l0 0c0,1 0,1 0,1l-1 0c0,0 0,0 0,-1l0 0c0,0 0,0 0,0l0 -1c-1,0 -2,0 -3,-1 -1,-1 -1,-1 -1,-3l0 0c0,0 0,0 1,0l1 0c0,0 1,0 1,0l0 0 0 0 0 0 0 0 0 0 0 0c0,1 0,1 0,2 0,0 1,0 1,0 1,0 1,0 2,0 0,-1 0,-1 0,-1z"/>
    </g>
   </g>
   <rect class="fil10" width="199" height="151"/>
  </g>
 </g>
</svg>
