<?xml version="1.0" encoding="UTF-8"?>
<!DOCTYPE svg PUBLIC "-//W3C//DTD SVG 1.1//EN" "http://www.w3.org/Graphics/SVG/1.1/DTD/svg11.dtd">
<!-- Creator: CorelDRAW X7 -->
<svg xmlns="http://www.w3.org/2000/svg" xml:space="preserve" width="199px" height="151px" version="1.1" style="shape-rendering:geometricPrecision; text-rendering:geometricPrecision; image-rendering:optimizeQuality; fill-rule:evenodd; clip-rule:evenodd"
viewBox="0 0 199 151"
 xmlns:xlink="http://www.w3.org/1999/xlink">
 <defs>
  <style type="text/css">
   <![CDATA[
    .str0 {stroke:#373435;stroke-width:0.900004}
    .str4 {stroke:#848688;stroke-width:0.165355}
    .str5 {stroke:#373435;stroke-width:0.165355}
    .str3 {stroke:#373435;stroke-width:0.165355}
    .str1 {stroke:#373435;stroke-width:0.165355}
    .str2 {stroke:#848688;stroke-width:0.165355}
    .fil14 {fill:none}
    .fil4 {fill:#FEFEFE}
    .fil8 {fill:#ED3237}
    .fil9 {fill:#BE3437}
    .fil1 {fill:black}
    .fil0 {fill:#2887D2}
    .fil5 {fill:#EFAE74}
    .fil13 {fill:#FA0303}
    .fil11 {fill:#FFF212;fill-rule:nonzero}
    .fil2 {fill:url(#id0)}
    .fil12 {fill:url(#id1)}
    .fil7 {fill:url(#id2)}
    .fil6 {fill:url(#id3)}
    .fil3 {fill:url(#id4)}
    .fil10 {fill:url(#id5)}
   ]]>
  </style>
  <linearGradient id="id0" gradientUnits="userSpaceOnUse" x1="174.553" y1="127.375" x2="200.905" y2="93.885">
   <stop offset="0" style="stop-opacity:1; stop-color:black"/>
   <stop offset="1" style="stop-opacity:1; stop-color:#2D2E2E"/>
  </linearGradient>
  <linearGradient id="id1" gradientUnits="userSpaceOnUse" x1="87.7362" y1="76.0574" x2="112.617" y2="69.7503">
   <stop offset="0" style="stop-opacity:1; stop-color:#04870F"/>
   <stop offset="1" style="stop-opacity:1; stop-color:#03690C"/>
  </linearGradient>
  <linearGradient id="id2" gradientUnits="userSpaceOnUse" xlink:href="#id0" x1="173.707" y1="71.5715" x2="197.423" y2="41.4309">
  </linearGradient>
  <linearGradient id="id3" gradientUnits="userSpaceOnUse" xlink:href="#id0" x1="172.742" y1="128.226" x2="199.399" y2="94.3504">
  </linearGradient>
  <linearGradient id="id4" gradientUnits="userSpaceOnUse" xlink:href="#id0" x1="171.989" y1="73.0278" x2="191.662" y2="48.0274">
  </linearGradient>
  <linearGradient id="id5" gradientUnits="userSpaceOnUse" xlink:href="#id0" x1="177.874" y1="73.0278" x2="197.547" y2="48.0274">
  </linearGradient>
 </defs>
 <g id="Layer_x0020_1">
  <metadata id="CorelCorpID_0Corel-Layer"/>
  <g id="_737229720">
   <g>
    <g>
     <polygon class="fil0" points="14,125 48,74 48,74 48,74 99,72 141,48 135,40 154,40 150,59 145,52 101,77 51,80 18,128 "/>
     <g>
      <path class="fil1 str0" d="M174 145c0,0 2,-2 4,-2 2,-1 3,-1 4,-1 1,-1 2,-1 2,-1 0,0 3,1 5,1 2,0 4,-1 4,-1 0,0 0,2 0,3 0,1 0,2 -1,2 -1,0 -5,0 -5,0 0,0 -3,0 -4,1 -2,0 -6,1 -8,1 -1,-1 -2,-1 -1,-3z"/>
      <path class="fil2 str1" d="M179 80c0,0 0,2 1,5 0,2 2,12 2,19 0,8 1,8 1,14 0,6 0,18 0,18l0 5c0,0 3,1 6,1 2,0 4,-1 4,-1 0,0 0,-29 1,-34 0,-4 0,-16 1,-20 0,-4 1,-7 1,-7l-17 0z"/>
      <g>
       <path class="fil3 str2" d="M179 39c0,0 2,-2 4,-2 3,0 4,2 5,4 0,2 0,11 0,12 0,1 0,7 -1,9 0,2 -3,18 -3,19 0,1 -1,3 -1,3l-7 0c0,0 2,-12 2,-14 0,-2 1,-9 0,-12 0,-3 -1,-14 -1,-17 0,-2 2,-2 2,-2z"/>
       <polygon class="fil4 str0" points="177,84 177,85 183,85 183,84 "/>
       <path class="fil5" d="M175 89l1 0c0,0 0,0 0,1 0,1 0,1 0,1 1,0 2,0 2,0 0,0 0,0 0,0 1,0 1,0 1,0 0,0 0,0 1,0 0,0 0,0 0,0 0,0 1,0 1,0 1,-1 1,-2 1,-3 0,-2 0,-2 0,-3 0,0 0,-1 0,0 0,0 -5,0 -5,0 0,0 -1,0 -1,1 -1,0 -2,0 -1,3z"/>
      </g>
      <path class="fil6 str3" d="M177 80c0,0 0,3 1,5 0,3 2,13 2,20 0,7 1,7 1,13 0,6 0,19 0,19l0 4c0,0 3,2 5,1 3,0 5,0 5,0 0,0 0,-29 0,-34 1,-5 2,-17 2,-21 1,-4 2,-6 2,-6l-18 -1z"/>
      <path class="fil7" d="M192 31c0,0 3,4 3,8 1,4 2,11 1,14 0,3 0,18 0,19 0,2 0,10 0,10l-19 -1c0,0 -2,0 -2,-4 0,-5 0,-20 0,-20 0,0 0,-6 0,-8 1,-1 4,-10 5,-12 1,-1 12,-6 12,-6z"/>
      <g>
       <path class="fil8" d="M181 35c0,0 -1,0 -2,1 0,1 0,2 0,2 1,0 1,0 1,0 0,0 0,-1 1,-1 0,-1 1,-2 1,-2 0,0 0,0 -1,0z"/>
       <path class="fil9" d="M176 47c0,0 1,-5 2,-6 0,-1 1,-3 1,-3 0,-1 0,-1 0,-1 0,0 1,1 1,1 0,0 0,2 -1,3 0,0 -1,2 -1,2l-2 4z"/>
      </g>
      <path class="fil1" d="M191 29c0,0 1,2 1,2 -1,0 -11,6 -12,6 0,0 0,-2 1,-2 0,-1 3,-2 4,-3 1,0 5,-2 6,-3 0,0 0,0 0,0z"/>
      <path class="fil1 str0" d="M172 146c0,0 2,-2 4,-2 2,-1 3,-1 4,-2 1,0 1,-1 1,-1 0,0 3,1 6,1 2,0 3,0 3,0 0,0 1,2 1,3 0,1 0,2 -1,2 -1,0 -5,0 -5,0 0,0 -3,0 -5,0 -1,1 -5,1 -7,1 -1,0 -3,-1 -1,-2z"/>
      <g>
       <path class="fil10 str4" d="M184 39c0,0 2,-2 5,-2 3,0 4,2 4,4 1,2 0,11 0,12 0,1 1,7 0,9 0,2 -3,18 -3,19 0,1 -1,3 -1,3l-7 0c0,0 2,-12 2,-14 0,-2 1,-9 0,-12 0,-3 -1,-14 -1,-17 0,-2 1,-2 1,-2z"/>
       <polygon class="fil4 str0" points="183,84 183,85 189,85 189,84 "/>
       <path class="fil5" d="M181 89l0 0c0,0 0,0 1,1 0,1 0,1 0,1 1,0 2,0 2,0 0,0 0,0 0,0 0,0 1,0 1,0 0,0 0,0 1,0 0,0 0,0 0,0 0,0 1,0 1,0 1,-1 1,-2 1,-3 0,-2 0,-2 0,-3 0,0 0,-1 0,0 0,0 -5,0 -5,0 0,0 -1,0 -1,1 -1,0 -2,0 -1,3z"/>
      </g>
      <g>
       <path class="fil1 str0" d="M177 17c0,0 -1,-2 1,-3 3,-1 3,-2 7,-2 4,-1 6,3 7,6 1,3 -1,9 -1,10 -1,1 -2,1 -2,1 0,0 -3,-2 -3,-3 0,-1 -4,-1 -5,-3 -1,-2 -1,-5 -1,-5l-1 -1c0,0 -2,0 -2,0z"/>
       <path class="fil5" d="M182 33l-1 -3c0,0 -3,1 -3,0 -1,0 -1,-2 -1,-3 0,-1 0,-2 0,-2l-2 0c0,0 0,-1 1,-2 1,-1 1,-1 1,-2 0,0 0,-3 0,-4 0,0 0,0 0,-1 1,0 3,0 3,1 1,0 2,1 2,2 0,2 0,3 0,3 0,1 0,0 1,-1 0,-1 0,-2 1,-1 1,0 1,0 2,1 0,2 0,5 0,5 1,1 4,3 4,3l1 0c0,0 -7,2 -9,4z"/>
       <path class="fil4 str5" d="M191 29c0,0 -2,0 -4,1 -3,1 -5,2 -5,2l-1 3 10 -6z"/>
       <path class="fil1" d="M178 15c0,0 0,1 0,2 -1,1 -1,0 -1,1 1,1 1,1 1,1 0,0 0,-1 0,-2 0,0 0,-1 0,-1l0 0c0,0 1,0 1,1 -1,0 -1,1 -1,1 0,1 0,1 0,1 0,0 0,0 1,0 0,-1 0,-1 0,-2 0,0 0,-1 0,-1 0,0 0,2 0,2 0,1 0,1 0,1 0,0 0,0 1,0 0,-1 0,-2 0,-2l0 -1 -1 -1 0 0 -1 0z"/>
       <path class="fil1" d="M187 25c0,0 0,0 0,1 -1,1 -1,1 -1,2 1,1 1,1 1,1 0,0 0,-2 0,-2 0,0 0,-2 0,-2l0 0c0,0 1,1 1,1 0,1 -1,1 -1,2 0,0 0,1 0,1 0,0 0,0 1,-1 0,0 0,-1 0,-1 0,-1 0,-2 0,-2 0,0 0,3 0,3 0,0 0,1 0,1 0,0 0,-1 1,-1 0,0 0,-2 0,-2l0 0 0 -2 -1 0 -1 1z"/>
      </g>
     </g>
    </g>
    <g>
     <circle class="fil0" cx="49" cy="77" r="13"/>
     <path class="fil11" d="M51 80c0,0 0,-1 0,-1 0,0 -1,0 -2,-1 0,0 -1,0 -1,0 -1,-1 -1,-1 -1,-1 -1,-1 -1,-1 -1,-1 0,-1 0,-1 0,-2 0,-1 0,-2 0,-2 1,-1 2,-1 3,-1l0 -1 0 -1 0 0 0 0c0,0 0,0 0,0l1 0c0,0 0,0 0,0l0 0 0 0 0 1 0 1c2,0 2,0 3,1 0,1 1,1 1,2l0 0 0 0c0,1 -1,1 -1,1l-1 0c0,0 -1,0 -1,-1l0 0 0 0 0 0 0 0 0 0c0,0 0,0 0,-1 0,0 -1,0 -1,0 -1,0 -1,0 -2,0 0,0 0,1 0,1 0,1 0,1 0,1 1,1 1,1 2,1 1,0 1,1 2,1 0,0 1,0 1,1 0,0 0,0 1,1 0,0 0,1 0,1 0,1 -1,2 -1,3 -1,0 -2,1 -3,1l0 0c0,0 0,0 0,1l0 0c0,0 0,1 0,1l-1 0c0,0 0,-1 0,-1l0 0c0,-1 0,-1 0,-1l0 0c-1,0 -2,-1 -3,-1 -1,-1 -1,-2 -1,-3l0 0c0,0 0,-1 1,-1l1 0c0,0 1,1 1,1l0 0 0 0 0 0 0 0 0 0 0 0c0,1 0,1 0,1 0,1 1,1 2,1 0,0 0,0 1,-1 0,0 0,0 0,-1z"/>
    </g>
    <g>
     <circle class="fil12" cx="100" cy="73" r="13"/>
     <path class="fil11" d="M102 76c0,-1 0,-1 0,-1 -1,0 -1,-1 -2,-1 0,0 -1,0 -1,-1 -1,0 -1,0 -2,-1 0,0 0,0 0,-1 -1,0 -1,-1 -1,-1 0,-1 1,-2 1,-3 1,0 2,-1 3,-1l0 -1 0 0 0 0 0 0c0,0 0,-1 0,-1l1 0c0,0 0,1 0,1l0 0 0 0 0 0 0 1c1,0 2,1 3,2 0,0 1,1 1,2l0 0 0 0c0,1 -1,1 -1,1l-1 0c-1,0 -1,0 -1,-1l0 0 0 0 0 0 0 0 0 0c0,-1 0,-1 0,-1 -1,-1 -1,-1 -2,-1 0,0 0,0 -1,1 0,0 0,0 0,1 0,0 0,1 0,1 0,0 1,0 2,1 0,0 1,0 1,1 1,0 1,0 2,0 0,1 0,1 0,2 0,0 1,0 1,1 0,1 -1,2 -1,2 -1,1 -2,1 -3,1l0 1c0,0 0,0 0,0l0 1c0,0 0,0 0,0l-1 0c0,0 0,0 0,0l0 -1c0,0 0,0 0,0l0 0c-2,-1 -3,-1 -3,-2 -1,-1 -1,-1 -1,-2l0 0c0,-1 0,-1 1,-1l1 0c0,0 0,0 0,1l0 0 0 0 0 0 0 0 0 0 0 0c0,0 1,1 1,1 0,0 1,0 1,0 1,0 1,0 2,0 0,0 0,-1 0,-1z"/>
    </g>
    <g>
     <circle class="fil13" cx="15" cy="124" r="13"/>
     <path class="fil11" d="M17 127c0,-1 0,-1 0,-2 0,0 -1,0 -2,0 0,-1 -1,-1 -1,-1 -1,0 -1,-1 -1,-1 -1,0 -1,-1 -1,-1 0,0 0,-1 0,-2 0,-1 0,-1 0,-2 1,-1 2,-1 3,-1l0 -1 0 -1 0 0 0 0c0,0 0,0 0,0l1 0c0,0 0,0 0,0l0 0 0 0 0 1 0 1c1,0 2,1 3,1 0,1 1,2 1,3l0 0 0 0c0,0 -1,1 -1,1l-1 0c0,0 -1,-1 -1,-1l0 0 0 0 0 0 0 0 0 0c0,-1 0,-1 0,-2 -1,0 -1,0 -1,0 -1,0 -1,0 -2,0 0,1 0,1 0,1 0,1 0,1 0,2 1,0 1,0 2,0 1,1 1,1 2,1 0,0 1,1 1,1 0,0 0,1 1,1 0,1 0,1 0,2 0,1 -1,1 -1,2 -1,1 -2,1 -3,1l0 1c0,0 0,0 0,0l0 0c0,1 0,1 0,1l-1 0c0,0 0,0 0,-1l0 0c0,0 0,0 0,0l0 -1c-1,0 -2,0 -3,-1 -1,-1 -1,-2 -1,-3l0 0c0,0 0,-1 1,-1l1 0c0,0 1,1 1,1l0 0 0 0 0 0 0 0 0 0 0 0c0,1 0,1 0,2 0,0 1,0 2,0 0,0 0,0 1,0 0,-1 0,-1 0,-1z"/>
    </g>
   </g>
   <rect class="fil14" width="199" height="151"/>
  </g>
 </g>
</svg>
