<?xml version="1.0" encoding="UTF-8"?>
<!DOCTYPE svg PUBLIC "-//W3C//DTD SVG 1.1//EN" "http://www.w3.org/Graphics/SVG/1.1/DTD/svg11.dtd">
<!-- Creator: CorelDRAW X7 -->
<svg xmlns="http://www.w3.org/2000/svg" xml:space="preserve" width="188px" height="146px" version="1.1" style="shape-rendering:geometricPrecision; text-rendering:geometricPrecision; image-rendering:optimizeQuality; fill-rule:evenodd; clip-rule:evenodd"
viewBox="0 0 189 147"
 xmlns:xlink="http://www.w3.org/1999/xlink">
 <defs>
  <style type="text/css">
   <![CDATA[
    .str0 {stroke:#0098DA;stroke-width:0.904817}
    .str1 {stroke:#96989A;stroke-width:0.520091}
    .str2 {stroke:#96989A;stroke-width:0.520091}
    .fil13 {fill:none}
    .fil8 {fill:#FEFEFE}
    .fil9 {fill:#ED3237}
    .fil12 {fill:#0098DA}
    .fil2 {fill:black}
    .fil3 {fill:#033857}
    .fil4 {fill:#054F76}
    .fil11 {fill:#1CC8EB}
    .fil6 {fill:#2887D2}
    .fil7 {fill:#306FB6}
    .fil5 {fill:#4E8AC8}
    .fil1 {fill:#F9C9A9}
    .fil0 {fill:#FAC19B}
    .fil10 {fill:#FC4D44;fill-rule:nonzero}
   ]]>
  </style>
 </defs>
 <g id="Layer_x0020_1">
  <metadata id="CorelCorpID_0Corel-Layer"/>
  <g id="_597825744">
   <g>
    <path class="fil0" d="M45 87c0,0 0,5 0,6 0,0 2,7 8,9 5,2 8,0 9,-1 2,-1 4,-5 4,-5l0 -11 -21 0 0 2z"/>
    <path class="fil1" d="M69 87c2,-2 7,-8 9,-10 1,-3 2,-5 2,-6 1,-2 1,-6 1,-6 0,-1 1,0 1,0 0,0 2,1 2,-4 1,-5 2,-6 1,-7 -1,-1 -1,-3 -2,-2 -2,1 -2,3 -2,3 0,0 1,-20 1,-21 -1,-1 -2,-1 -7,-2 -5,0 -17,1 -19,1 0,0 -16,-1 -21,-1 -6,1 -7,1 -7,2 -1,1 0,21 0,21 0,0 0,-2 -1,-3 -2,-1 -2,1 -3,2 -1,1 0,2 1,7 1,5 3,4 3,4 0,0 0,-1 0,0 1,0 1,4 1,6 1,1 1,3 3,6 1,2 6,8 9,10 9,5 19,5 28,0z"/>
    <path class="fil2" d="M81 56c0,0 1,-10 2,-13 0,-4 0,-9 0,-10 0,-1 0,-2 1,-2 1,-1 3,-2 5,-4 1,-2 2,-5 2,-5 1,-1 0,1 -2,0 -2,-1 -3,-1 -6,-3 -3,-2 -8,-7 -13,-8 -5,-2 -10,-3 -16,-2 -6,0 -15,7 -21,10 -5,4 -8,8 -8,12 0,4 3,24 3,24 0,0 2,-9 3,-11 0,-2 1,-6 2,-8 0,-1 0,3 0,3 0,0 0,3 0,4 0,1 0,2 0,2 0,0 0,-4 1,-5 0,-1 1,1 1,1 0,0 1,-1 1,-2 0,-2 1,2 0,3 0,2 0,2 0,2 0,0 1,-2 1,-4 0,-3 0,-4 0,-4 0,-1 1,1 1,2 0,1 0,1 0,1 0,0 1,-2 1,-2 0,-1 0,-1 1,-1 2,1 8,4 15,4 8,-1 14,-2 15,-2 2,-1 2,1 1,1 -1,1 -1,1 -1,1 0,0 1,0 2,-1 0,0 1,1 1,2 0,1 -1,4 -1,4 0,0 1,-2 2,-3 0,-1 1,-2 1,-3 0,-1 0,-2 0,-2 0,0 0,3 0,3 0,1 1,-1 1,-2 0,0 1,-2 1,-2 0,-1 0,0 0,3 0,3 -1,5 -1,5 0,0 2,-2 2,-4 0,-2 1,-4 1,-4 0,0 1,9 1,13 0,3 1,7 1,7 0,1 0,0 0,0z"/>
    <g>
     <rect class="fil3 str0" x="18" y="50" width="7.88663" height="15.1154" rx="4" ry="3"/>
     <rect class="fil4" x="18" y="52" width="7.88663" height="13.1842" rx="4" ry="3"/>
     <rect class="fil5" x="21" y="48" width="7.88663" height="19.0405" rx="4" ry="4"/>
     <path class="fil6" d="M24 48c0,0 -1,-6 1,-14 2,-8 6,-15 13,-20 8,-5 13,-5 15,-5 2,0 3,0 3,0 0,0 -4,0 -6,1 -3,1 -6,2 -10,5 -4,3 -6,7 -8,10 -1,2 -2,4 -3,6 -1,3 -2,5 -2,8 0,3 0,6 0,7 0,2 0,3 0,3 0,0 -3,-1 -3,-1z"/>
     <path class="fil7" d="M22 50c0,0 0,-1 2,-1 0,0 0,0 0,0 1,0 3,1 3,2 0,2 0,6 0,8 0,3 0,5 0,6 0,0 0,2 -1,2 -1,0 -1,0 -1,0 1,0 1,0 2,-1 1,0 2,-1 2,-2 0,-1 0,-11 0,-11 0,0 0,-3 -2,-4 -1,-1 -1,-1 -2,-1 -1,0 -3,1 -3,2z"/>
    </g>
    <g>
     <rect class="fil3 str0" x="83" y="50" width="7.88663" height="15.1154" rx="4" ry="3"/>
     <rect class="fil4" x="83" y="52" width="7.88663" height="13.1842" rx="4" ry="3"/>
     <rect class="fil5" x="80" y="48" width="7.88663" height="19.0405" rx="4" ry="4"/>
     <path class="fil6" d="M81 32c0,0 2,5 2,8 0,3 0,5 0,7 0,1 0,2 0,2 0,0 2,0 2,0 0,-1 1,-4 1,-7 -1,-4 -1,-7 -2,-9 0,-2 -1,-3 -1,-3l-2 2z"/>
     <path class="fil6" d="M83 67c0,0 -1,4 -1,5 -4,5 -8,9 -15,11 -4,1 -3,0 -3,0l0 2c0,0 2,0 5,-1 3,-1 7,-3 8,-4 1,-1 3,-3 4,-4 1,-1 2,-4 3,-6 1,-2 1,-3 1,-3l-2 0z"/>
     <path class="fil7" d="M87 50c0,0 0,-1 -1,-1 -1,0 -1,0 -1,0 -1,0 -2,1 -3,2 0,2 0,6 0,8 0,3 0,5 0,6 0,0 0,2 1,2 1,0 1,0 1,0 -1,0 -1,0 -2,-1 -1,0 -1,-1 -2,-2 0,-1 0,-11 0,-11 0,0 0,-3 2,-4 1,-1 2,-1 3,-1 1,0 2,1 2,2z"/>
     <rect class="fil4" x="55" y="82" width="8.38981" height="4.97475" rx="2" ry="2"/>
     <rect class="fil3" x="57" y="83" width="6.86988" height="3.88907" rx="1" ry="1"/>
    </g>
   </g>
   <path class="fil8" d="M41 94c0,0 1,19 6,36 6,16 9,14 9,14 0,0 10,-14 12,-20 1,-7 1,-27 0,-27 -1,0 -8,5 -13,5 -5,0 -14,-8 -14,-8z"/>
   <path class="fil9" d="M54 103c0,0 -3,2 -3,3 -1,1 2,4 3,4 1,0 0,1 0,1 0,0 -5,19 -4,18 1,0 2,12 4,13 2,2 2,0 3,-2 2,-2 4,-14 4,-14 0,0 -3,-13 -3,-15 0,-2 3,-3 3,-4 0,-1 -2,-5 -7,-4z"/>
   <path class="fil2" d="M107 144c0,0 -2,-31 -5,-35 -3,-5 -9,-8 -22,-12 -12,-3 -13,-3 -13,-3 0,0 1,15 -4,26 -5,12 -8,21 -8,21 0,0 0,1 0,1 0,0 0,-1 0,-1 0,0 -3,-9 -8,-21 -5,-11 -4,-26 -4,-26 0,0 -1,0 -13,3 -13,4 -19,7 -22,12 -3,4 -5,35 -5,35 0,0 3,0 19,0 16,0 29,0 31,0 3,0 1,0 2,0 0,0 -2,0 2,0 3,0 13,0 31,0 18,0 19,0 19,0z"/>
   <polygon class="fil8 str1" points="45,92 55,102 50,111 43,102 39,95 "/>
   <polygon class="fil8 str2" points="66,92 55,102 61,111 67,102 72,95 "/>
  </g>
  <path class="fil10" d="M179 42c0,-10 0,-19 0,-29 0,-5 -4,-10 -10,-10 -20,0 -40,0 -60,0 -5,0 -9,5 -9,10 0,10 0,19 0,29 0,5 4,10 9,10 2,0 4,0 6,0 -4,6 -9,13 -13,20 10,-7 21,-14 31,-20 12,0 24,0 36,0 6,0 10,-5 10,-10z"/>
  <g id="_597831216">
   <g>
    <path class="fil6" d="M130 104l13 -1 0 4 8 0 8 0 0 -4 13 1c0,0 6,18 7,25 2,6 1,8 -1,11 -2,2 -7,2 -7,2 0,0 0,0 0,1 0,1 0,1 -1,1 -1,1 -7,1 -9,0 -1,0 0,-2 0,-2l-10 0 -10 0c0,0 1,2 0,2 -2,1 -8,1 -9,0 -1,0 -1,0 -1,-1 0,-1 0,-1 0,-1 0,0 -5,0 -6,-2 -2,-3 -3,-5 -2,-11 2,-7 7,-25 7,-25z"/>
    <circle class="fil8" cx="151" cy="123" r="10"/>
    <circle class="fil6" cx="151" cy="123" r="7"/>
    <path class="fil11" d="M116 109l14 -10 -3 -5c0,0 -1,0 -1,-1 -1,-1 3,-7 5,-9 3,-2 6,-4 6,-4 0,0 3,-3 6,-4 3,-2 9,-4 10,-3 1,0 0,1 0,1l4 5 15 -11c0,0 -3,-4 -4,-5 -2,-1 -8,-4 -16,-1 -9,3 -20,11 -20,11 0,0 -11,8 -16,15 -5,7 -5,14 -4,16 1,1 4,5 4,5z"/>
   </g>
   <path class="fil12" d="M185 72c0,5 -2,10 -6,14 -5,5 -11,8 -17,8l0 -3c5,0 11,-3 15,-7 3,-3 4,-7 5,-11l3 -1zm-9 1c-1,2 -2,5 -4,7 -3,3 -7,4 -10,5l0 -2c3,-1 6,-2 9,-5 1,-1 2,-3 3,-5l2 0zm4 0c-1,3 -2,7 -5,9 -4,4 -8,6 -13,7l0 -3c4,0 8,-2 11,-5 2,-3 4,-5 4,-8l3 0z"/>
  </g>
  <rect class="fil13" width="189" height="147"/>
 </g>
</svg>
