<?xml version="1.0" encoding="UTF-8"?>
<!DOCTYPE svg PUBLIC "-//W3C//DTD SVG 1.1//EN" "http://www.w3.org/Graphics/SVG/1.1/DTD/svg11.dtd">
<!-- Creator: CorelDRAW X7 -->
<svg xmlns="http://www.w3.org/2000/svg" xml:space="preserve" width="48px" height="45px" version="1.1" style="shape-rendering:geometricPrecision; text-rendering:geometricPrecision; image-rendering:optimizeQuality; fill-rule:evenodd; clip-rule:evenodd"
viewBox="0 0 48 45"
 xmlns:xlink="http://www.w3.org/1999/xlink">
 <defs>
  <style type="text/css">
   <![CDATA[
    .fil4 {fill:#FEFEFE}
    .fil1 {fill:#FEFEFE}
    .fil6 {fill:#F58634}
    .fil7 {fill:#ED3237}
    .fil3 {fill:#51A8B1}
    .fil0 {fill:#2887D2}
    .fil5 {fill:#2887D2}
    .fil8 {fill:#FFF212;fill-rule:nonzero}
    .fil2 {fill:#2887D2;fill-rule:nonzero}
   ]]>
  </style>
 </defs>
 <g id="Layer_x0020_1">
  <metadata id="CorelCorpID_0Corel-Layer"/>
  <g id="_811659968">
   <g>
    <g>
     <path class="fil0" d="M30 29l17 0c0,0 1,-1 1,-2l0 -25c0,-1 -1,-2 -1,-2l-17 0 0 0 -2 0 0 29 2 0z"/>
     <rect class="fil1" x="30" y="1" width="17.2807" height="26.381"/>
     <g>
      <g>
       <g>
        <polygon class="fil2" points="45,8 32,8 32,7 45,7 "/>
       </g>
       <g>
        <polygon class="fil2" points="38,25 38,8 39,8 39,25 "/>
       </g>
       <rect class="fil3" x="40" y="10" width="5.83099" height="0.832025"/>
       <rect class="fil3" x="40" y="12" width="5.83099" height="0.832025"/>
       <rect class="fil3" x="40" y="14" width="5.83099" height="0.832025"/>
       <rect class="fil3" x="32" y="16" width="5.83099" height="0.832025"/>
       <rect class="fil3" x="40" y="16" width="5.83099" height="0.832025"/>
       <rect class="fil3" x="32" y="10" width="5.83099" height="0.832025"/>
       <rect class="fil3" x="32" y="12" width="5.83099" height="0.832025"/>
       <rect class="fil3" x="32" y="14" width="5.83099" height="0.832025"/>
       <rect class="fil3" x="32" y="19" width="5.83099" height="0.832025"/>
       <rect class="fil3" x="40" y="19" width="5.83099" height="0.832025"/>
       <rect class="fil3" x="32" y="21" width="5.83099" height="0.832025"/>
       <rect class="fil3" x="40" y="21" width="5.83099" height="0.832025"/>
       <rect class="fil3" x="32" y="23" width="5.83099" height="0.832025"/>
       <rect class="fil3" x="40" y="23" width="5.83099" height="0.832025"/>
      </g>
      <path class="fil2" d="M34 6l0 -2 1 0c0,0 0,0 0,0 0,0 0,0 1,0 0,0 0,1 0,1l0 0c0,0 0,0 0,1 -1,0 -1,0 -1,0 0,0 0,0 0,0l-1 0zm0 -2l0 2 1 0c0,0 0,0 0,-1 0,0 0,0 0,0l0 0c0,0 0,-1 0,-1 0,0 0,0 0,0l-1 0z"/>
      <path class="fil2" d="M44 5c0,1 0,1 -1,1 0,0 0,0 0,0 -1,0 -1,0 -1,0 0,0 0,-1 0,-1l0 0c0,0 0,-1 0,-1 0,0 0,0 0,0 0,0 0,0 1,0 0,0 0,0 0,0 1,0 1,0 1,0l-1 0c0,0 0,0 0,0 0,0 0,0 0,0 -1,0 -1,0 -1,0 0,0 0,1 0,1l0 0c0,0 0,0 0,1 0,0 0,0 1,0 0,0 0,0 0,0 0,0 0,-1 0,-1l1 0z"/>
     </g>
    </g>
    <g id="_811659896">
     <g>
      <g>
       <g>
        <g>
         <path class="fil4" d="M25 10l0 30c0,0 -21,0 -21,0 0,1 0,-24 0,-24l4 -5 0 0c0,0 17,-1 17,-1z"/>
         <path id="1" class="fil2" d="M26 40l-1 0 0 0 0 -30 1 0 0 30zm0 0l0 0 -1 0 1 0zm-22 0l0 0 0 0 0 0 1 0 0 0 0 0 1 -1 1 0 0 0 1 0 1 0 1 0 1 0 1 0 1 0 1 0 1 0 1 0 1 0 1 0 1 0 1 0 0 0 1 1 1 0 1 0 0 0 1 0 0 0 1 0 0 0 0 0 0 0 0 0 0 0 0 0 0 0 -1 0 0 0 -1 0 0 0 -1 0 -1 0 -1 0 0 0 -1 0 -1 0 -1 0 -1 0 -1 0 -1 0 -1 0 -1 0 -1 0 -1 0 -1 0 -1 0 -1 0 0 0 -1 0 0 0 -1 0 0 1 -1 0 0 0 0 -1 0 0 0 0zm0 -23l0 -1 0 0 0 1 0 0 0 0 0 1 0 1 0 0 0 1 0 1 0 1 0 1 0 1 0 1 0 1 0 1 0 1 0 2 0 1 0 1 0 1 0 1 0 1 0 1 0 1 0 1 0 0 0 1 0 0 0 1 0 0 0 0 0 0 0 0 0 0 0 0 0 0 0 -1 0 0 0 -1 0 0 0 -1 0 -1 0 -1 0 -1 0 -1 0 -1 0 -1 0 -1 0 -2 0 -1 0 -1 0 -1 0 -1 0 -1 0 -1 0 -1 0 -1 0 -1 0 0 0 -1 0 -1 0 0 0 0 0 -1 0 0 0 0 0 1zm3 -6l0 -1 1 1 -4 6 0 -1 3 -5zm0 0l0 -1 0 0 0 1zm0 -1l1 0 0 1 0 0 -1 -1 0 0zm0 0l1 0 0 0 -1 0zm18 0l0 0 0 1 0 0 0 0 -1 0 0 0 0 0 -1 0 -1 0 0 0 -1 0 -1 0 0 0 -1 0 -1 0 -1 0 -1 0 0 0 -1 0 -1 0 -1 0 0 0 -1 0 -1 0 -1 0 0 0 -1 0 0 0 -1 0 0 0 0 0 0 0 0 0 0 -1 0 0 0 0 0 0 0 0 1 0 0 0 1 0 0 0 1 0 1 0 1 0 0 0 1 0 1 0 1 0 0 0 1 0 1 0 1 0 1 0 0 0 1 0 1 0 0 0 1 0 1 0 0 0 0 0 1 0 0 0 0 0 1 0 0 0 -1 0zm0 0l0 0 0 0 0 0z"/>
        </g>
        <g>
         <path class="fil5" d="M8 11l0 4c0,0 0,1 -1,1 0,0 -3,0 -3,0l4 -6 0 1z"/>
         <path id="1" class="fil2" d="M8 15l0 0 0 0 0 -4 0 0 0 4zm0 0l0 0 0 0 0 0zm-1 1l0 0 0 0 0 0 0 0 1 0 0 0 0 0 0 0 0 0 0 0 0 0 0 0 0 0 0 -1 0 0 0 0 0 0 0 0 0 0 0 0 0 0 0 0 0 0 0 0 0 0 0 0 0 0 0 0 0 0 0 0 0 0 0 0 0 0 0 0 0 0 0 0 0 0 0 0 0 0 0 0 0 0 0 0 0 0 0 0 0 0 0 0 0 0 0 0 0 0 0 0 0 0 0 0 0 0 0 1 0 0 0 0 0 0 0 0 0 0 0 0 0 0 0 0 0 0 0 0 -1 0 0 0 0 0 0 0zm-3 0l0 0 0 0 0 0 0 0 0 0 0 0 0 0 0 0 0 0 0 0 1 0 0 0 0 0 0 0 0 0 0 0 0 0 1 0 0 0 0 0 0 0 0 0 0 0 0 0 1 0 0 0 0 0 0 0 0 0 0 0 0 0 0 0 0 0 0 0 0 0 0 0 0 0 0 0 0 0 0 0 0 0 0 0 -1 0 0 0 0 0 0 0 0 0 0 0 0 0 -1 0 0 0 0 0 0 0 0 0 0 0 0 0 -1 0 0 0 0 0 0 0 0 0 0 0 0 0 0 0 0 0 0 0 0 0 0 0zm4 -6l0 0 0 0 -4 6 0 0 4 -6zm0 0l0 0 0 0 0 0zm0 1l0 0 0 0 0 -1 0 0 0 1zm0 0l0 0 0 0 0 0z"/>
        </g>
       </g>
       <rect class="fil5" transform="matrix(0.189891 -0.000681408 -0.000861621 -0.240108 7.02447 25.354)" width="81.2504" height="7.29213"/>
       <rect class="fil5" transform="matrix(0.189891 -0.000681408 -0.000861621 -0.240108 7.01284 22.1133)" width="81.2504" height="7.29213"/>
       <rect class="fil5" transform="matrix(0.129781 -0.000465709 -0.000861621 -0.240108 11.8845 18.6802)" width="81.2504" height="7.29213"/>
       <rect class="fil5" transform="matrix(0.189891 -0.000681408 -0.000861621 -0.240108 7.03689 28.8153)" width="81.2504" height="7.29213"/>
       <rect class="fil5" transform="matrix(0.189891 -0.000681408 -0.000861621 -0.240108 7.04931 32.2765)" width="81.2504" height="7.29213"/>
       <rect class="fil5" transform="matrix(0.189891 -0.000681408 -0.000861621 -0.240108 7.06158 35.6962)" width="81.2504" height="7.29213"/>
      </g>
      <g id="_811662176">
       <g>
        <path class="fil4" d="M23 12l0 30c0,0 -21,-1 -21,0 0,0 0,-24 0,-24l3 -6 0 0c0,0 18,0 18,0z"/>
        <path id="1" class="fil2" d="M23 42l0 0 -1 0 0 -30 1 0 0 30zm0 0l0 0 0 0 0 0zm-22 0l0 0 1 -1 0 0 0 0 0 0 1 0 1 0 0 0 1 0 1 0 1 0 0 0 1 0 1 0 1 0 1 0 1 0 1 0 1 0 1 0 1 0 1 0 1 0 1 0 0 0 1 0 1 0 0 0 1 0 0 0 1 0 0 0 0 0 0 1 0 0 0 0 -1 0 0 0 -1 0 0 0 -1 0 -1 0 0 0 -1 0 -1 0 -1 0 -1 0 -1 0 -1 0 -1 0 -1 0 -1 0 -1 0 -1 0 -1 0 0 0 -1 0 -1 0 -1 0 0 0 -1 0 0 0 -1 0 0 0 0 0 0 0 0 0 -1 0zm1 -24l0 0 0 0 0 0 0 0 0 1 0 0 0 1 0 1 0 1 0 0 0 1 0 1 0 1 0 2 0 1 0 1 0 1 0 1 0 1 0 1 0 1 0 1 0 1 0 1 0 1 0 1 0 1 0 0 0 1 0 0 0 1 0 0 -1 0 1 0 -1 0 0 0 0 -1 0 0 0 -1 0 0 0 -1 0 -1 0 -1 0 -1 0 -1 0 -1 0 -1 0 -1 0 -1 0 -1 0 -1 0 -1 0 -1 0 -2 0 -1 0 -1 0 -1 0 0 0 -1 0 -1 0 -1 0 0 0 -1 0 0 0 0 0 0 0 -1 1 1zm3 -6l0 0 0 1 -3 5 -1 -1 4 -5zm0 0l0 0 0 0 0 0zm0 0l0 0 0 0 0 1 0 -1 0 0zm0 0l0 0 0 0 0 0zm17 0l0 0 1 0 -1 0 0 0 0 0 0 0 -1 0 0 0 -1 0 -1 0 0 0 -1 0 -1 0 -1 0 0 0 -1 0 -1 0 -1 0 -1 0 0 0 -1 0 -1 0 -1 0 0 0 -1 0 -1 0 0 0 -1 0 0 0 0 0 -1 0 0 0 0 0 0 0 0 0 0 0 1 0 0 0 0 0 1 0 0 0 1 0 1 -1 0 0 1 0 1 0 1 0 0 0 1 0 1 0 1 0 1 0 0 0 1 0 1 0 1 0 0 0 1 0 1 0 0 0 1 0 0 0 0 0 1 0 0 0 0 1 0 0 -1 0zm1 0l0 0 0 0 0 0z"/>
       </g>
       <g>
        <path class="fil5" d="M5 12l0 4c0,0 1,1 0,2 -1,0 -4,0 -4,0l4 -6 0 0z"/>
        <path id="1" class="fil2" d="M6 16l-1 0 0 0 0 -4 0 0 1 4zm-1 0l0 0 0 0 0 0zm0 1l0 0 0 0 0 0 0 0 0 0 0 0 0 0 0 0 0 0 0 0 0 0 0 0 0 0 0 0 0 0 0 0 0 0 0 0 0 0 0 0 0 0 0 -1 0 0 0 0 0 0 0 0 0 0 0 0 0 0 0 0 0 0 0 0 0 0 1 0 0 0 0 0 0 0 0 0 0 0 0 0 0 0 0 0 0 0 0 0 0 0 0 1 0 0 -1 0 0 0 0 0 0 0 0 0 0 0 0 0 0 0 0 0 0 0 0 0 0 0 0 0 0 0 0 0 0 1 0 0 0 0 0 0 0 0 0 -1zm-4 1l0 0 0 0 0 0 0 0 1 0 0 0 0 0 0 0 0 0 0 0 0 0 0 0 0 0 0 0 1 0 0 0 0 0 0 0 0 0 0 0 0 0 1 0 0 0 0 0 0 0 0 0 0 0 0 0 0 0 1 0 0 0 0 0 0 -1 0 1 0 0 0 0 0 0 -1 0 0 0 0 0 0 0 0 0 0 0 0 0 0 0 -1 0 0 0 0 0 0 0 0 0 0 0 0 0 -1 0 0 0 0 0 0 0 0 0 0 0 0 0 0 0 0 0 0 0 -1 0 0 0 0 0 0 0 0 0 0 0zm4 -6l0 0 0 0 -4 6 0 0 4 -6zm0 0l0 0 0 0 0 0zm0 0l0 0 0 0 0 0 0 0 0 0zm0 0l0 0 0 0 0 0z"/>
       </g>
      </g>
     </g>
     <g>
      <rect class="fil3" x="7" y="17" width="10.6763" height="1.95925"/>
      <rect class="fil3" x="5" y="20" width="6.88829" height="1.95925"/>
      <rect class="fil3" x="14" y="20" width="6.56635" height="1.95925"/>
      <rect class="fil3" x="5" y="24" width="6.88829" height="1.95925"/>
      <rect class="fil3" x="14" y="24" width="6.56635" height="1.95925"/>
      <rect class="fil3" x="5" y="28" width="6.88829" height="1.95925"/>
      <rect class="fil3" x="14" y="28" width="6.56635" height="1.95925"/>
      <rect class="fil3" x="5" y="32" width="6.88829" height="1.95925"/>
      <rect class="fil3" x="14" y="32" width="6.56635" height="1.95925"/>
     </g>
    </g>
    <path class="fil6" d="M28 40c3,-2 6,-3 8,-5 -3,-2 -2,-1 -4,-3l10 0c1,4 1,7 1,10l0 0c-1,-1 -1,0 -2,-3 -6,5 -9,7 -18,6 -3,-1 -8,-3 -10,-6 2,0 2,1 4,1 3,2 7,1 11,0z"/>
   </g>
   <g>
    <circle class="fil7" cx="6" cy="39" r="6"/>
    <path class="fil8" d="M7 40c0,0 0,0 0,0 0,-1 -1,-1 -1,-1 0,0 -1,0 -1,0 0,0 0,-1 -1,-1 0,0 0,0 0,0 0,-1 0,-1 0,-1 0,-1 0,-1 0,-1 1,-1 1,-1 2,-1l0 -1 0 0 0 1c1,0 2,0 2,1 0,0 0,1 0,1l-1 0c0,0 0,-1 0,-1 -1,0 -1,0 -1,0 0,0 0,0 -1,0 0,0 0,1 0,1 0,0 0,0 0,0 1,1 1,1 1,1 1,0 1,0 1,0 0,1 1,1 1,1 0,0 0,0 0,0 0,1 0,1 0,1 0,1 0,1 0,2 -1,0 -1,0 -2,0l0 1 0 0 0 -1c-1,0 -2,0 -2,-1 0,0 -1,0 -1,-1l2 0c0,0 0,1 0,1 0,0 1,0 1,0 0,0 0,0 1,0 0,0 0,-1 0,-1z"/>
   </g>
  </g>
 </g>
</svg>
