<?xml version="1.0" encoding="UTF-8"?>
<!DOCTYPE svg PUBLIC "-//W3C//DTD SVG 1.1//EN" "http://www.w3.org/Graphics/SVG/1.1/DTD/svg11.dtd">
<!-- Creator: CorelDRAW X7 -->
<svg xmlns="http://www.w3.org/2000/svg" xml:space="preserve" width="48px" height="44px" version="1.1" style="shape-rendering:geometricPrecision; text-rendering:geometricPrecision; image-rendering:optimizeQuality; fill-rule:evenodd; clip-rule:evenodd"
viewBox="0 0 48 43"
 xmlns:xlink="http://www.w3.org/1999/xlink">
 <defs>
  <style type="text/css">
   <![CDATA[
    .fil1 {fill:#FEFEFE}
    .fil7 {fill:#ED3237}
    .fil3 {fill:#51A8B1}
    .fil0 {fill:#2887D2}
    .fil4 {fill:#2887D2}
    .fil5 {fill:white}
    .fil8 {fill:#FFF212;fill-rule:nonzero}
    .fil6 {fill:#F58634;fill-rule:nonzero}
    .fil2 {fill:#2887D2;fill-rule:nonzero}
   ]]>
  </style>
 </defs>
 <g id="Layer_x0020_1">
  <metadata id="CorelCorpID_0Corel-Layer"/>
  <g id="_794534496">
   <g>
    <path class="fil0" d="M28 27l18 0c1,0 2,0 2,-1l0 -24c0,-1 -1,-2 -2,-2l-18 0 0 0 -2 0 0 27 2 0z"/>
    <rect class="fil1" x="28" y="1" width="18.1417" height="25.1778"/>
    <g>
     <g>
      <g>
       <polygon class="fil2" points="45,6 30,6 30,6 45,6 "/>
      </g>
      <g>
       <polygon class="fil2" points="37,24 37,6 38,6 38,24 "/>
      </g>
      <rect class="fil3" x="39" y="8" width="6.12152" height="0.873487"/>
      <rect class="fil3" x="39" y="10" width="6.12152" height="0.873487"/>
      <rect class="fil3" x="39" y="13" width="6.12152" height="0.873487"/>
      <rect class="fil3" x="30" y="15" width="6.12152" height="0.873487"/>
      <rect class="fil3" x="39" y="15" width="6.12152" height="0.873487"/>
      <rect class="fil3" x="30" y="8" width="6.12152" height="0.873487"/>
      <rect class="fil3" x="30" y="10" width="6.12152" height="0.873487"/>
      <rect class="fil3" x="30" y="13" width="6.12152" height="0.873487"/>
      <rect class="fil3" x="30" y="18" width="6.12152" height="0.873487"/>
      <rect class="fil3" x="39" y="18" width="6.12152" height="0.873487"/>
      <rect class="fil3" x="30" y="20" width="6.12152" height="0.873487"/>
      <rect class="fil3" x="39" y="20" width="6.12152" height="0.873487"/>
      <rect class="fil4" x="30" y="23" width="6.12152" height="0.873487"/>
      <rect class="fil3" x="39" y="23" width="6.12152" height="0.873487"/>
     </g>
     <path class="fil2" d="M33 5l0 -3 0 0c1,0 1,0 1,0 0,1 0,1 0,1 1,0 1,0 1,0l0 1c0,0 0,0 -1,0 0,0 0,1 0,1 0,0 0,0 -1,0l0 0zm0 -2l0 1 0 0c1,0 1,0 1,0 0,0 0,0 0,0l0 -1c0,0 0,0 0,0 0,0 0,0 -1,0l0 0z"/>
     <path class="fil2" d="M43 4c0,0 0,0 0,1 -1,0 -1,0 -1,0 0,0 -1,0 -1,0 0,-1 0,-1 0,-1l0 -1c0,0 0,0 0,0 0,0 0,-1 0,-1 1,0 1,0 1,0 0,0 0,0 1,0 0,1 0,1 0,1l-1 0c0,0 0,0 0,0 0,0 0,0 0,0 0,0 0,0 0,0 -1,0 -1,0 -1,0l0 1c0,0 0,0 1,0 0,0 0,0 0,0 0,0 0,0 0,0 0,0 0,0 0,0l1 0z"/>
    </g>
   </g>
   <g>
    <g id="_794540088">
     <g>
      <polygon class="fil1" points="0,17 25,17 25,41 0,41 "/>
      <path id="1" class="fil2" d="M25 17l-25 0 0 -1 25 0 0 1 0 0zm0 -1l0 0 0 1 0 -1zm-1 25l0 -24 1 0 0 24 0 1 -1 -1zm1 0l0 1 0 0 0 -1zm-25 0l25 0 0 1 -25 0 0 -1 0 0zm0 1l0 0 0 -1 0 1zm1 -25l0 24 -1 0 0 -24 0 -1 1 1zm-1 0l0 -1 0 0 0 1z"/>
     </g>
     <path class="fil4" d="M25 16c0,0 0,0 0,0l0 -4c0,0 -1,-1 -1,-1l-23 0c0,0 -1,1 -1,1l0 4c0,0 0,0 0,0l25 0z"/>
     <circle class="fil5" cx="3" cy="14" r="1"/>
     <circle class="fil5" cx="6" cy="14" r="1"/>
     <circle class="fil5" cx="8" cy="14" r="1"/>
    </g>
    <g>
     <rect class="fil3" x="3" y="21" width="12.1467" height="1.19197"/>
     <rect class="fil3" x="3" y="24" width="12.1467" height="1.19197"/>
     <rect class="fil3" x="3" y="27" width="12.1467" height="1.19197"/>
     <rect class="fil3" x="3" y="30" width="12.1467" height="1.19197"/>
     <rect class="fil3" x="3" y="33" width="12.1467" height="1.19197"/>
    </g>
   </g>
   <path class="fil6" d="M18 26l13 0 0 4 6 -7 -6 -7 0 3 -13 0 0 7zm7 0m6 2m3 -2m0 -7m-3 -2m-6 2m-7 4"/>
   <g>
    <circle class="fil7" cx="21" cy="38" r="6"/>
    <path class="fil8" d="M22 39c0,0 0,0 0,0 0,0 0,-1 -1,-1 0,0 0,0 -1,0 0,0 0,0 0,0 0,-1 0,-1 -1,-1 0,0 0,-1 0,-1 0,0 0,-1 1,-1 0,-1 1,-1 1,-1l0 -1 1 0 0 1c0,0 1,1 1,1 1,0 1,1 1,1l-2 0c0,0 0,0 0,0 0,-1 0,-1 -1,-1 0,0 0,0 0,1 0,0 0,0 0,0 0,0 0,1 0,1 0,0 0,0 1,0 0,0 0,0 1,1 0,0 0,0 0,0 0,0 0,0 1,1 0,0 0,0 0,0 0,1 0,1 -1,2 0,0 -1,0 -1,0l0 1 -1 0 0 -1c-1,0 -1,0 -1,0 -1,-1 -1,-1 -1,-2l1 0c0,0 0,1 1,1 0,0 0,0 0,0 1,0 1,0 1,0 0,0 0,0 0,-1z"/>
   </g>
  </g>
 </g>
</svg>
