<?xml version="1.0" encoding="UTF-8"?>
<!DOCTYPE svg PUBLIC "-//W3C//DTD SVG 1.1//EN" "http://www.w3.org/Graphics/SVG/1.1/DTD/svg11.dtd">
<!-- Creator: CorelDRAW X7 -->
<svg xmlns="http://www.w3.org/2000/svg" xml:space="preserve" width="117px" height="111px" version="1.1" style="shape-rendering:geometricPrecision; text-rendering:geometricPrecision; image-rendering:optimizeQuality; fill-rule:evenodd; clip-rule:evenodd"
viewBox="0 0 116 111"
 xmlns:xlink="http://www.w3.org/1999/xlink">
 <defs>
  <style type="text/css">
   <![CDATA[
    .fil2 {fill:#2887D2}
    .fil4 {fill:#E32210}
    .fil3 {fill:#FEFEFE;fill-rule:nonzero}
    .fil5 {fill:#FFF212;fill-rule:nonzero}
    .fil6 {fill:#00AFEF;fill-rule:nonzero}
    .fil1 {fill:#2887D2;fill-rule:nonzero}
    .fil7 {fill:#FC4D44;fill-rule:nonzero}
    .fil0 {fill:url(#id0)}
   ]]>
  </style>
  <linearGradient id="id0" gradientUnits="userSpaceOnUse" x1="3.40603" y1="81.773" x2="58.1676" y2="32.2253">
   <stop offset="0" style="stop-opacity:1; stop-color:#DBEFFF"/>
   <stop offset="1" style="stop-opacity:1; stop-color:white"/>
  </linearGradient>
 </defs>
 <g id="Layer_x0020_1">
  <metadata id="CorelCorpID_0Corel-Layer"/>
  <g id="_746685920">
   <g>
    <path class="fil0" d="M1 16l0 -3c0,0 2,1 4,1 2,1 3,1 5,0 2,-1 3,-2 3,-2 0,0 2,2 4,3 3,0 6,-2 6,-2 1,0 1,-1 1,-1 0,0 3,3 6,3 4,0 6,-3 6,-3 0,0 2,3 6,3 3,0 5,-2 5,-3 1,0 1,3 6,3 4,0 6,-3 6,-3l0 67 0 17c0,0 1,4 2,5 1,0 -4,0 -4,0 0,0 -19,2 -24,1 -4,0 -22,-1 -28,-5 -6,-4 -4,-16 -4,-16l0 -65z"/>
    <g>
     <path class="fil1" d="M7 20l0 -2 0 0 1 0 0 0 0 0 0 0 1 0 0 0 0 0 0 0 0 0 1 0 0 -1 0 0 0 0 0 0 1 0 0 0 0 0 0 -1 0 0 0 0 0 0 1 0 0 0 0 0 0 0 0 0 0 0 0 -1 0 0 0 0 0 0 0 0 2 2 0 0 0 0 0 0 0 0 0 0 0 0 -1 0 0 0 0 0 0 0 0 1 0 0 0 0 0 0 -1 0 0 0 0 1 0 0 0 0 -1 0 0 0 0 0 -1 1 0 0 0 0 0 0 -1 0 0 0 0 0 -1 0 0 0 -1 0 0 0zm-5 -4l-2 0 2 0 0 0 0 0 0 0 0 0 0 0 0 0 1 0 0 0 0 0 0 0 0 0 0 1 0 0 0 0 0 0 1 0 0 0 0 0 0 0 0 1 1 0 0 0 0 0 0 0 1 0 0 0 0 0 0 0 0 0 1 0 0 0 0 0 0 2 0 0 0 0 -1 0 0 0 0 0 -1 0 0 0 0 0 -1 0 0 0 0 0 -1 -1 0 0 0 0 0 0 -1 0 0 0 0 -1 0 0 0 0 -1 0 0 0 0 0 0 0 0 -1 0 0 0 0 0 0 0 0 0 0 0 0 -1 0 2 -1zm0 74l-2 1 0 0 0 -1 0 -1 0 -2 0 -2 0 -2 0 -2 0 -2 0 -3 0 -3 0 -3 0 -3 0 -3 0 -3 0 -3 0 -4 0 -3 0 -3 0 -4 0 -3 0 -3 0 -3 0 -3 0 -3 0 -2 0 -2 0 -2 0 -2 0 -2 0 -1 0 -1 0 0 0 -1 2 0 0 1 0 0 0 1 0 1 0 2 0 2 0 2 0 2 0 3 0 2 0 3 0 3 0 3 0 3 0 4 0 3 0 3 0 4 0 3 0 3 0 3 0 3 0 3 0 3 0 3 0 2 0 2 0 2 0 2 0 2 0 1 0 0 0 0zm2 10l-1 1 0 0 0 0 0 0 -1 0 0 0 0 -1 0 0 0 0 -1 -1 0 0 0 0 0 -1 0 0 0 0 0 -1 0 0 0 -1 0 0 0 0 -1 -1 0 0 0 -1 0 0 0 0 0 -1 0 0 0 -1 0 0 0 0 0 -1 0 0 0 0 0 0 2 -1 0 1 0 0 0 0 0 1 0 0 0 0 0 1 0 0 0 0 0 1 1 0 0 0 0 1 0 0 0 1 0 0 0 0 0 1 0 0 0 0 0 1 0 0 0 0 1 0 0 1 0 0 0 0 0 0 0 0 0 0 0 1 0 0 0 0zm49 0l0 2 0 0 0 0 -1 0 -1 1 -1 0 -1 0 -1 0 -2 0 -2 0 -1 0 -2 0 -2 0 -2 0 -2 0 -2 0 -2 0 -2 0 -3 0 -2 0 -2 0 -2 0 -2 0 -2 0 -2 0 -2 0 -1 0 -2 0 -1 -1 -1 0 -1 0 -1 0 -1 0 -1 -1 1 -1 1 0 0 0 1 0 1 0 1 0 1 0 2 0 2 1 1 0 2 0 2 0 2 0 2 0 2 0 2 0 3 0 2 0 2 0 2 0 2 0 2 0 2 0 2 0 1 0 2 -1 2 0 1 0 1 0 1 0 1 0 0 0 1 0 0 0zm11 -1l0 2 0 0 0 0 0 0 0 0 0 0 -1 0 0 0 0 0 -1 0 0 0 0 0 -1 0 0 1 -1 0 0 0 0 0 -1 0 0 0 -1 0 0 0 -1 0 0 0 0 0 -1 0 0 0 -1 0 0 0 0 0 -1 0 0 0 0 0 -1 0 0 0 0 -2 0 0 0 0 1 0 0 0 0 0 1 0 0 0 1 0 0 0 0 0 1 0 0 0 1 0 0 0 1 0 0 0 0 0 1 -1 0 0 1 0 0 0 0 0 1 0 0 0 0 0 1 0 0 0 0 0 0 0 0 0 1 0 0 0 0 0zm-6 -4l2 0 0 0 0 0 0 1 0 0 0 0 0 1 0 0 0 0 1 0 0 0 0 1 0 0 0 0 1 0 0 0 0 0 0 0 0 0 1 0 0 0 0 0 0 0 1 0 0 0 0 0 0 0 0 0 0 1 1 0 0 1 0 0 0 1 -1 0 0 -2 0 0 -1 0 0 0 1 1 0 1 0 0 0 0 0 0 0 0 -1 0 0 0 0 0 0 -1 -1 0 0 0 0 0 -1 0 0 0 0 0 -1 0 0 0 0 -1 -1 0 0 0 0 -1 -1 0 0 0 0 -1 0 0 0 -1 0 -1 0 0 0 0zm2 -25l0 25 -2 0 0 -25 2 0zm0 -54l0 54 -2 0 0 -54 2 0zm-7 2l1 2 0 0 -1 0 0 0 -1 0 0 0 0 0 -1 0 0 0 0 0 -1 0 0 0 0 0 -1 -1 0 0 0 0 0 0 -1 0 0 0 0 -1 0 0 0 0 0 0 -1 0 0 0 0 0 0 -1 0 0 0 0 0 0 0 0 0 0 0 0 0 0 1 -1 0 0 0 0 0 0 0 0 1 0 0 0 0 0 0 0 0 0 0 0 0 0 0 1 0 0 0 0 1 0 0 0 0 0 0 0 0 0 1 1 0 0 0 0 0 0 0 0 1 0 0 0 0 0 0 0 1 0 0 0 0 0 0 0 0 0zm5 -3l2 2 0 0 0 0 0 0 0 0 0 0 0 0 0 0 0 0 -1 0 0 0 0 1 0 0 0 0 0 0 0 0 -1 0 0 1 0 0 0 0 -1 0 0 0 0 0 0 1 -1 0 0 0 0 0 -1 0 0 0 0 0 -1 0 0 0 0 0 -1 -2 1 0 0 0 0 0 0 0 1 0 0 0 0 0 0 0 1 0 0 0 0 -1 0 0 0 0 1 0 0 0 0 0 0 0 0 -1 0 0 0 0 1 0 0 0 0 0 0 0 0 0 0 0 0 0 0 -1 0 0 0 0 0 0 0 0zm-17 5l1 -2 0 0 0 0 0 0 0 0 1 0 0 0 0 0 0 0 1 0 0 0 0 0 0 0 0 0 1 -1 0 0 0 0 0 0 0 0 1 0 0 0 0 0 0 -1 0 0 0 0 0 0 0 0 0 0 1 0 0 0 0 0 0 0 0 0 0 0 1 1 0 0 0 0 0 0 0 0 0 0 0 0 0 0 0 1 0 0 0 0 -1 0 0 0 0 0 0 0 0 1 0 0 -1 0 0 0 0 0 0 0 -1 1 0 0 0 0 -1 0 0 0 0 0 -1 0 0 0 0 0 -1 0 0 0 -1 0 0 0zm-6 -3l2 -2 0 0 0 0 0 0 0 0 0 1 0 0 0 0 0 0 0 0 0 0 0 0 1 0 0 0 0 0 0 1 0 0 0 0 0 0 1 0 0 0 0 0 0 1 0 0 1 0 0 0 0 0 0 0 1 0 0 0 0 0 0 0 1 0 -1 2 0 0 0 0 -1 0 0 0 0 0 -1 0 0 0 0 0 -1 0 0 -1 0 0 0 0 -1 0 0 0 0 0 0 -1 -1 0 0 0 0 0 0 0 0 0 0 -1 0 0 -1 0 0 0 0 0 0 0 0 0 0 0 0 0 0 0 0 0zm-5 1l0 2 0 0 0 0 0 0 -1 0 0 0 0 0 -1 0 0 0 0 0 -1 0 0 0 0 0 -1 -1 0 0 0 0 0 0 -1 0 0 0 0 -1 0 0 0 0 -1 0 0 0 0 0 0 0 0 -1 0 0 0 0 0 0 0 0 0 0 0 0 0 0 1 -1 0 0 0 0 0 0 0 0 0 0 1 0 0 0 0 0 0 0 0 0 0 0 0 1 0 0 0 0 1 0 0 0 0 0 0 0 0 0 0 1 1 0 0 0 0 0 0 0 1 0 0 0 0 0 0 0 1 0 0 0 0 0 0 0 0 0zm5 -3l2 2 0 0 0 0 0 0 0 0 0 0 0 0 0 0 -1 0 0 0 0 0 0 1 0 0 0 0 0 0 -1 0 0 0 0 1 0 0 0 0 -1 0 0 0 0 0 0 1 -1 0 0 0 0 0 -1 0 0 0 0 0 -1 0 0 0 -1 0 0 -2 1 0 0 0 0 0 0 0 1 0 0 0 0 0 0 0 1 0 0 0 0 -1 0 0 0 0 0 0 1 0 0 0 0 0 0 -1 0 0 0 0 0 0 1 0 0 0 0 0 0 0 0 0 0 0 0 -1 0 0 0 0 0 0 0 0zm-17 5l1 -2 0 0 0 0 0 0 0 0 1 0 0 0 0 0 0 0 1 0 0 0 0 0 0 0 0 0 1 -1 0 0 0 0 0 0 0 0 0 0 1 0 0 0 0 -1 0 0 0 0 0 0 0 0 0 0 0 0 0 0 1 0 0 0 0 0 0 0 1 1 0 0 0 0 0 0 0 0 0 0 0 0 0 0 0 1 0 0 0 0 -1 0 0 0 0 0 0 0 0 1 -1 0 0 0 0 0 0 0 -1 0 0 1 0 0 0 0 -1 0 0 0 0 0 -1 0 0 0 0 0 -1 0 0 0 -1 0 0 0zm-6 -3l2 -2 0 0 0 0 0 0 0 0 0 1 0 0 0 0 0 0 0 0 0 0 0 0 1 0 0 0 0 0 0 1 0 0 0 0 0 0 1 0 0 0 0 0 0 1 0 0 1 0 0 0 0 0 0 0 0 0 1 0 0 0 0 0 1 0 -1 2 0 0 0 0 -1 0 0 0 0 0 -1 0 0 0 0 0 -1 0 0 -1 0 0 0 0 -1 0 0 0 0 0 0 -1 -1 0 0 0 0 0 0 0 0 0 0 -1 0 0 -1 0 0 0 0 0 0 0 0 0 0 0 0 0 0 0 0 0z"/>
    </g>
    <rect class="fil2" x="9" y="42" width="26.6312" height="3.98389"/>
    <rect class="fil2" x="9" y="53" width="26.6312" height="3.98389"/>
    <rect class="fil2" x="9" y="64" width="26.6312" height="3.98389"/>
   </g>
   <g id="_746686808">
    <g>
     <polygon class="fil1" points="116,3 116,13 116,88 52,88 52,3 "/>
     <g>
      <polygon class="fil3" points="113,1 113,12 113,84 49,84 49,1 "/>
      <path id="1" class="fil1" d="M112 12l0 -11 2 0 0 11 -2 0 0 0zm0 72l0 -72 2 0 0 72 -1 2 -1 -2zm2 0l0 2 -1 0 1 -2zm-65 -1l64 0 0 3 -64 0 -1 -2 1 -1zm0 3l-1 0 0 -2 1 2zm1 -85l0 83 -2 0 0 -83 1 -1 1 1zm-2 0l0 -1 1 0 -1 1zm65 2l-64 0 0 -3 64 0 1 1 -1 2zm0 -3l1 0 0 1 -1 -1z"/>
     </g>
    </g>
    <polygon class="fil1" points="100,15 98,15 98,8 96,9 96,8 100,6 100,6 "/>
    <path id="1" class="fil1" d="M101 28l-5 0 0 -2 2 -2c1,-1 1,-1 1,-2 0,0 0,0 0,0 0,-1 0,-1 0,-1 0,-1 0,-1 -1,-1 0,0 0,0 -1,1 0,0 0,0 0,1l-2 0c0,-1 1,-1 1,-2 0,0 0,0 1,-1 0,0 1,0 1,0 1,0 2,0 2,1 1,0 1,1 1,1 0,1 0,1 0,2 0,0 -1,1 -1,1l-2 2 3 0 0 2z"/>
    <path id="2" class="fil1" d="M96 40c0,-1 0,-1 0,-1 0,0 0,0 1,0 0,0 0,0 0,0 1,0 1,0 1,1 0,0 0,0 -1,0 0,0 0,1 0,1 -1,0 -1,-1 -1,-1 0,0 0,0 0,0z"/>
    <path id="3" class="fil1" d="M96 52c0,0 0,0 0,0 0,0 0,0 1,0 0,0 0,0 0,0 1,0 1,0 1,0 0,1 0,1 -1,1 0,0 0,0 0,0 -1,0 -1,0 -1,0 0,0 0,0 0,-1z"/>
    <path id="4" class="fil1" d="M96 65c0,0 0,0 0,0 0,-1 0,-1 1,-1 0,0 0,0 0,1 1,0 1,0 1,0 0,0 0,1 -1,1 0,0 0,0 0,0 -1,0 -1,0 -1,0 0,0 0,-1 0,-1z"/>
    <path id="5" class="fil1" d="M97 74l1 0c1,0 1,0 1,-1 0,0 0,0 0,0 0,-1 0,-1 0,-1 0,0 0,0 -1,0 0,0 0,0 0,0 -1,0 -1,0 -1,0l-2 0c0,0 1,0 1,-1 0,0 0,0 1,-1 0,0 1,0 1,0 1,0 2,0 2,1 1,0 1,1 1,2 0,0 0,0 0,1 0,0 -1,0 -1,0 0,1 1,1 1,1 0,1 0,1 0,1 0,1 0,2 -1,2 0,1 -1,1 -2,1 -1,0 -1,0 -2,-1 0,0 -1,-1 -1,-2l2 0c0,1 0,1 0,1 1,0 1,1 1,1 1,0 1,-1 1,-1 1,0 1,0 1,-1 0,0 -1,-1 -2,-1l-1 0 0 -1z"/>
    <path id="6" class="fil1" d="M108 75c0,1 0,2 0,3 -1,1 -2,1 -3,1 -1,0 -1,0 -2,-1 0,-1 -1,-1 -1,-3l0 -1c0,-1 1,-2 1,-3 1,-1 1,-1 2,-1 1,0 2,0 2,1 1,1 1,2 1,3l0 1zm-1 -1c0,-1 -1,-2 -1,-2 0,0 0,0 -1,0 0,0 0,0 -1,0 0,0 0,1 0,1l0 3c0,0 0,1 0,1 1,0 1,1 1,1 1,0 1,-1 1,-1 0,0 1,-1 1,-1l0 -2z"/>
    <rect class="fil2" x="75" y="9" width="16.2897" height="3.81776"/>
    <rect class="fil2" x="70" y="22" width="21.7539" height="3.81776"/>
    <rect class="fil2" x="80" y="72" width="11.6119" height="3.81776"/>
   </g>
   <g>
    <circle class="fil4" cx="58" cy="89" r="20"/>
    <path class="fil5" d="M61 93c0,0 0,-1 -1,-1 0,-1 -1,-1 -2,-2 -1,0 -2,0 -2,-1 -1,0 -2,0 -2,-1 -1,0 -1,-1 -1,-2 -1,0 -1,-1 -1,-2 0,-1 1,-2 2,-3 1,-1 2,-2 4,-2l0 -1 0 -1 0 0 0 0c0,-1 0,-1 0,-1l1 0c0,0 1,0 1,1l0 0 0 0 0 1 0 1c1,0 2,1 3,2 1,1 2,2 2,4l0 0 0 0c0,0 -1,1 -2,1l-1 0c-1,0 -1,-1 -1,-1l0 0 0 0 0 0 0 0 0 0c0,-1 0,-2 -1,-2 0,-1 -1,-1 -2,-1 0,0 -1,0 -1,1 -1,0 -1,1 -1,1 0,1 0,1 1,2 0,0 1,1 2,1 1,1 2,1 2,1 1,1 2,1 2,2 1,0 1,1 1,1 0,1 1,1 1,2 0,2 -1,3 -2,4 -1,1 -2,1 -4,1l0 1c0,0 0,0 0,1l0 0c0,1 0,1 0,1l-1 0c0,0 -1,0 -1,-1l0 0c0,-1 0,-1 0,-1l0 0c-2,-1 -3,-1 -4,-2 -1,-1 -1,-2 -1,-4l0 0c0,-1 0,-1 1,-1l1 0c1,0 1,0 1,1l0 0 0 0 0 0 0 0 0 0 0 0c0,1 1,1 1,2 1,0 1,1 2,1 1,0 2,-1 2,-1 1,0 1,-1 1,-2z"/>
   </g>
   <g>
    <path class="fil6" d="M55 67l0 0 1 0 0 0 0 0 0 0 1 0 0 1 -1 0 0 0 0 0 0 0 -1 0 0 0 0 -1zm-2 0l0 0 1 0 0 0 0 0 0 0 0 0 1 0 0 1 0 0 -1 0 0 0 0 0 0 0 -1 0 0 0 0 -1zm-2 1l0 0 0 0 1 0 0 -1 0 0 0 0 1 0 0 1 0 0 -1 0 0 0 0 0 0 0 -1 0 0 0 0 0zm-2 0l0 0 1 0 0 0 0 0 0 0 1 0 0 0 0 1 -1 0 0 0 0 0 0 0 -1 0 0 -1zm-2 1l1 0 1 0 0 0 -1 0 0 1 -1 -1zm-1 1l0 0 1 -1 0 1 0 0 -1 1 0 -1zm-2 1l0 0 1 -1 0 1 0 0 -1 1 0 -1zm-2 1l1 0 0 0 1 0 -1 1 0 0 -1 -1zm-1 2l0 -1 1 0 0 0 0 1 -1 0 0 0zm-1 1l0 0 0 -1 1 1 -1 0 0 1 0 -1zm-2 2l1 0 0 -1 1 0 -1 1 0 1 -1 -1zm-1 2l1 -1 0 0 1 0 -1 1 0 0 -1 0zm0 2l0 -1 0 0 1 0 -1 1 0 0 0 0zm-1 2l0 -1 0 -1 1 1 0 0 0 1 -1 0zm0 2l0 -1 0 -1 1 1 -1 0 0 1 0 0zm-1 2l0 -1 1 -1 0 0 0 1 0 1 -1 0zm0 2l0 -1 0 -1 1 0 0 1 0 1 -1 0zm0 2l0 0 0 -2 0 0 1 0 0 0 0 1 0 1 -1 0zm1 2l0 0 0 -1 0 -1 0 0 0 0 0 1 0 1 0 0zm0 2l0 0 0 -1 0 -1 1 0 0 1 0 1 0 0 -1 0zm1 1l0 0 0 -1 0 0 0 1 0 0 0 0zm0 1l0 -1 0 0 1 0 -1 1zm1 2l0 -1 -1 -1 1 0 0 0 0 1 0 1zm1 1l0 0 -1 -1 1 0 0 0 1 1 -1 0zm1 2l0 -1 -1 0 1 -1 0 1 1 0 -1 1zm2 1l-1 0 0 -1 0 0 1 1 0 0 0 0zm1 2l0 -1 -1 0 0 -1 1 1 0 0 0 1zm2 1l-1 0 0 -1 0 0 1 0 0 0 0 1zm1 1l0 0 -1 -1 1 0 0 0 1 0 -1 1zm2 1l0 0 -1 -1 0 0 1 0 1 0 -1 1zm2 1l0 0 -1 -1 0 0 1 0 0 0 0 1zm2 0l0 0 -1 0 0 -1 1 0 0 1 0 0zm2 1l0 -1 -1 0 0 0 1 0 0 0 0 1zm2 0l0 0 -1 0 0 -1 1 0 0 0 0 1zm2 0l0 0 -1 0 0 -1 1 0 0 0 0 1zm2 -1l0 0 -1 1 0 0 0 -1 0 0 1 0 0 0 0 0zm2 0l0 0 -1 0 0 0 0 0 0 0 1 -1 0 0 0 1zm2 -1l-1 1 0 0 0 -1 0 0 1 0 0 0z"/>
   </g>
   <g>
    <path class="fil6" d="M64 110l0 0 -1 0 0 0 0 1 0 0 -1 0 0 0 0 0 0 0 -1 0 0 0 0 0 0 0 -1 0 0 0 0 0 0 0 0 0 -1 0 0 0 0 0 0 0 -1 0 0 0 0 0 0 0 -1 0 0 0 0 0 0 0 -1 0 0 0 0 0 0 -3 0 0 0 0 1 0 0 0 0 0 0 0 1 0 0 0 0 0 0 0 0 0 1 0 0 0 0 0 0 0 0 0 1 0 0 0 0 0 0 0 0 0 1 0 0 0 0 0 0 0 1 0 0 0 0 0 0 0 0 -1 1 0 0 0 0 0 1 3zm15 -28l0 0 0 1 1 2 0 1 0 1 0 1 0 1 0 1 0 1 0 1 -1 1 0 1 0 2 -1 1 0 1 0 1 -1 0 0 1 -1 1 -1 1 0 1 -1 1 -1 1 -1 0 0 1 -1 1 -1 0 -1 1 -1 1 -1 0 -1 1 -1 0 -1 0 -1 -3 1 0 1 0 1 -1 0 0 1 -1 1 0 1 -1 1 0 0 -1 1 -1 1 0 0 -1 1 -1 0 0 1 -1 0 -1 1 -1 0 -1 1 -1 0 0 0 -1 0 -1 1 -1 0 -1 0 -1 0 -1 0 -1 0 -1 0 -1 -1 -1 0 -1 0 -1 0 0 3 -1zm-28 -15l1 0 1 -1 1 0 1 0 2 0 1 0 1 0 1 0 1 0 1 1 1 0 1 0 1 0 1 1 1 0 1 1 1 0 1 1 1 1 1 0 1 1 0 1 1 1 1 0 0 1 1 1 1 1 0 1 1 1 0 1 1 1 0 1 -3 1 0 -1 -1 -1 0 -1 0 -1 -1 0 0 -1 -1 -1 -1 -1 0 0 -1 -1 -1 -1 0 0 -1 -1 -1 -1 -1 0 0 0 -1 -1 -1 0 -1 -1 -1 0 -1 0 -1 0 -1 -1 0 0 -1 0 -1 0 -1 0 -1 0 -1 0 -1 0 -1 1 -1 0 -1 -3zm5 11l-22 -4 16 -17 6 21z"/>
   </g>
   <g>
    <path class="fil7" d="M72 13l-17 -8c-1,0 -1,0 -1,0l0 0c-1,0 -1,0 -1,0 -1,1 -1,2 -1,2l1 6 -5 1c-11,2 -18,13 -15,24 0,1 1,1 2,1 0,0 0,0 0,0 1,0 1,0 1,-1l1 -1c1,-6 6,-11 12,-12l7 -2 1 6c0,0 1,1 1,1 1,0 2,0 2,0l12 -14c1,-1 1,-1 1,-2 -1,-1 -1,-1 -1,-1z"/>
    <path id="1" class="fil3" d="M54 7l0 0 2 -4 16 8 -1 4 -17 -8zm0 0l0 0 0 0 0 0zm-1 -4l0 0 0 0 0 0 1 0 0 0 0 0 0 0 0 0 0 0 0 0 0 0 0 0 0 0 0 0 0 0 0 0 1 0 0 0 0 0 0 0 0 0 0 0 0 0 0 0 0 0 0 0 0 0 0 0 0 0 1 0 0 0 0 0 0 0 -2 4 0 0 0 0 0 0 0 0 0 0 0 0 0 0 0 0 0 0 0 0 0 0 0 0 0 0 0 0 0 0 0 0 0 0 0 0 0 0 0 0 0 0 0 0 0 0 0 0 0 0 0 0 0 0 0 0 0 0 0 0 0 0 0 0 0 0 -1 -4zm0 0l0 0 0 0 0 0zm1 4l-1 -4 0 0 0 0 1 4 0 0zm-1 -4l0 0 0 0 0 0zm-1 1l0 0 0 0 0 0 0 0 0 0 0 0 0 0 0 -1 0 0 0 0 0 0 0 0 0 0 0 0 0 0 0 0 0 0 0 0 0 0 0 0 0 0 1 0 0 0 0 0 0 0 0 0 0 0 0 0 0 0 0 0 0 0 0 0 0 0 1 4 0 0 0 0 0 0 0 0 0 0 0 0 0 0 0 0 0 0 0 0 0 0 0 0 0 0 0 0 0 0 0 0 0 0 0 0 0 0 0 0 0 0 0 0 0 0 0 0 0 0 0 0 0 0 0 0 0 0 0 0 0 0 0 0 0 0 -2 -3zm2 3l0 0 0 0 0 0zm-4 1l0 0 0 0 0 -1 0 0 0 0 0 0 0 0 0 0 0 0 0 -1 0 0 0 0 0 0 0 0 0 0 0 0 0 0 0 -1 0 0 0 0 0 0 1 0 0 0 0 0 0 0 0 -1 0 0 0 0 0 0 0 0 0 0 0 0 1 0 2 3 0 0 0 0 0 0 0 0 0 0 0 0 0 0 0 0 0 0 0 0 0 0 0 0 0 0 0 0 0 0 0 0 0 0 0 0 0 0 0 0 0 0 0 0 0 0 0 0 0 0 0 0 0 0 0 0 0 0 0 0 0 0 0 0 0 0 -4 1zm6 4l-2 3 -3 -2 -1 -5 4 -1 2 5zm0 0l0 2 -2 1 2 -3zm-7 4l-1 -4 0 0 5 -2 1 5 -5 1zm-18 22l0 0 -1 -1 0 -1 0 -1 0 -1 0 -1 0 -1 0 -1 1 -1 0 -2 0 -1 0 -1 1 -1 0 -1 1 -1 0 -1 1 0 0 -1 1 -1 1 -1 0 -1 1 -1 1 0 1 -1 1 -1 0 0 1 -1 1 0 1 -1 1 0 1 -1 2 0 1 0 1 4 -1 0 -1 0 -1 1 -1 0 -1 0 0 1 -1 0 -1 1 -1 0 0 1 -1 1 -1 0 0 1 -1 0 0 1 -1 1 0 1 0 0 -1 1 0 1 0 1 -1 1 0 0 0 1 0 1 0 1 0 1 0 1 0 1 0 1 0 1 0 0 0 0 -4 1zm4 4l0 0 -1 0 0 0 0 0 0 -1 0 0 0 0 -1 0 0 0 0 0 0 0 0 0 0 0 0 0 -1 0 0 0 0 0 0 0 0 -1 0 0 0 0 0 0 -1 0 0 0 0 0 0 0 0 -1 0 0 0 0 0 0 0 0 0 0 0 -1 4 -1 0 0 0 0 0 0 0 0 0 0 0 0 0 0 0 0 0 0 0 0 0 0 0 0 0 0 0 0 0 0 0 0 0 0 0 0 0 0 0 0 0 0 0 0 0 0 0 0 0 0 0 0 0 0 0 0 0 0 0 0 0 0 0 0 0 0 0 5zm0 0l0 0 0 0 0 0zm1 -1l0 0 0 0 0 0 -1 0 0 0 0 0 0 0 0 0 0 0 0 0 0 1 0 0 0 -1 0 1 0 0 0 0 0 0 0 0 0 0 0 0 0 0 0 0 0 0 0 0 0 0 0 0 0 0 0 0 0 0 0 0 0 0 0 0 0 0 0 -5 0 0 0 0 0 0 0 0 0 0 0 0 0 0 0 0 0 0 0 0 0 0 0 0 0 0 0 0 0 0 0 0 0 0 0 0 0 0 0 0 0 0 0 0 0 0 0 0 0 0 0 0 0 0 0 0 0 0 0 0 0 0 0 0 0 0 1 4zm-1 -4l0 0 -1 0 1 0zm4 1l0 0 0 1 -1 0 0 0 0 0 0 0 0 0 0 0 0 1 0 0 0 0 0 0 0 0 0 0 0 0 0 0 -1 0 0 0 0 1 0 0 0 0 0 0 0 0 0 0 0 0 -1 0 0 0 0 0 0 0 0 0 0 0 0 0 0 0 -1 -4 0 0 0 0 0 0 0 0 0 0 -1 0 1 0 -1 0 0 0 0 0 0 0 0 0 0 0 0 0 0 0 0 0 0 0 0 0 0 0 0 0 0 0 0 0 0 0 0 0 0 0 0 0 0 0 0 0 0 0 0 0 0 0 0 0 0 0 5 1zm-5 -1l0 0 0 1 0 -1zm1 -1l4 2 0 0 0 0 -5 -1 1 -1zm4 2l0 0 0 -1 0 1zm11 -11l0 0 -1 0 0 0 -1 0 0 1 -1 0 0 0 -1 0 0 0 -1 1 0 0 0 0 -1 0 0 1 -1 0 0 0 0 1 -1 0 0 0 0 1 -1 0 0 1 0 0 0 0 -1 1 0 0 0 1 0 0 -1 1 0 0 0 1 0 0 0 1 -4 -2 0 0 0 -1 0 0 0 -1 1 -1 0 0 0 -1 0 0 1 -1 0 0 1 -1 0 0 0 -1 1 0 0 -1 1 0 0 -1 1 0 0 -1 1 0 0 0 1 -1 0 0 1 0 0 -1 1 0 0 0 1 -1 1 0 0 0 1 0 1 0 0 0 1 4zm5 -6l3 2 -2 2 -6 2 -1 -4 6 -2zm0 0l3 0 0 2 -3 -2zm4 7l-4 1 0 0 -1 -5 4 -1 1 5zm-1 4l0 0 0 0 0 0 0 0 -1 0 0 0 0 0 0 0 0 0 0 0 0 0 0 0 -1 -1 0 0 0 0 0 0 0 0 0 0 0 0 0 0 0 0 0 0 0 -1 -1 0 0 0 0 0 0 0 0 0 0 0 0 0 0 -1 0 0 0 0 4 -1 0 0 0 0 0 0 0 0 0 0 0 0 0 0 0 0 0 0 0 0 0 0 0 0 0 0 0 0 0 0 0 0 0 0 0 0 0 0 0 0 0 0 0 0 0 0 0 0 0 0 0 0 0 0 0 0 0 0 0 0 0 0 0 0 0 0 -1 4zm4 -1l0 0 0 0 0 0 0 0 0 0 -1 0 0 1 0 0 0 0 0 0 0 0 0 0 0 0 0 0 -1 0 0 0 0 0 0 0 0 0 0 0 0 0 -1 0 0 0 0 0 0 0 0 0 0 0 0 0 -1 0 0 0 0 0 0 0 0 0 1 -4 0 0 0 0 0 0 0 0 0 0 0 0 0 0 0 0 0 0 0 0 0 0 0 0 0 0 0 0 0 0 0 0 0 0 0 0 0 0 0 0 0 0 0 0 0 0 0 0 0 0 0 0 0 0 0 0 0 0 0 0 0 0 0 0 0 0 3 3zm-3 -3l0 0 0 0 0 0zm12 -14l0 0 3 3 -12 14 -3 -3 12 -14zm4 -1l0 0 0 1 0 0 0 0 0 0 0 0 0 0 0 0 0 0 0 1 0 0 0 0 0 0 0 0 0 0 0 0 0 0 0 0 0 1 0 0 0 0 0 0 0 0 -1 0 0 0 0 0 0 0 0 0 0 1 0 0 0 0 0 0 0 0 -3 -3 0 0 0 0 0 0 0 0 -1 0 0 0 0 0 0 0 0 0 0 0 0 0 0 0 0 0 0 0 0 0 0 0 0 0 0 0 0 0 0 0 0 0 0 0 0 0 0 0 0 0 0 0 0 0 0 0 0 0 0 0 0 0 0 0 0 0 5 -1zm-3 -2l0 0 1 0 0 0 0 0 0 0 0 0 0 0 0 0 0 0 0 0 0 0 1 0 0 0 0 1 0 0 0 0 0 0 0 0 0 0 0 0 0 0 0 0 0 0 0 1 0 0 0 0 1 0 0 0 0 0 0 0 0 0 0 0 0 0 -5 1 0 0 0 0 0 0 0 0 0 1 0 0 0 0 0 0 0 0 0 0 1 0 -1 0 1 0 0 0 0 0 0 0 0 0 0 0 0 0 0 0 0 0 0 0 0 0 0 0 0 0 0 0 0 0 0 0 0 0 0 0 0 0 0 0 0 0 1 -4zm-1 4l0 0 0 0 0 0z"/>
   </g>
  </g>
 </g>
</svg>
