<?xml version="1.0" encoding="UTF-8"?>
<!DOCTYPE svg PUBLIC "-//W3C//DTD SVG 1.1//EN" "http://www.w3.org/Graphics/SVG/1.1/DTD/svg11.dtd">
<!-- Creator: CorelDRAW X7 -->
<svg xmlns="http://www.w3.org/2000/svg" xml:space="preserve" width="49px" height="48px" version="1.1" style="shape-rendering:geometricPrecision; text-rendering:geometricPrecision; image-rendering:optimizeQuality; fill-rule:evenodd; clip-rule:evenodd"
viewBox="0 0 50 49"
 xmlns:xlink="http://www.w3.org/1999/xlink">
 <defs>
  <style type="text/css">
   <![CDATA[
    .fil0 {fill:#FEFEFE}
    .fil5 {fill:#FFF212}
    .fil6 {fill:#ED3237}
    .fil3 {fill:#51A8B1}
    .fil4 {fill:black}
    .fil2 {fill:#2887D2}
    .fil7 {fill:#FFF212;fill-rule:nonzero}
    .fil1 {fill:#2887D2;fill-rule:nonzero}
   ]]>
  </style>
 </defs>
 <g id="Layer_x0020_1">
  <metadata id="CorelCorpID_0Corel-Layer"/>
  <g id="_805246400">
   <g>
    <g>
     <g>
      <g>
       <g>
        <path class="fil0" d="M49 1l0 39c0,0 -28,0 -28,0 0,1 0,-31 0,-31l4 -8 1 0c0,0 23,0 23,0z"/>
        <path id="1" class="fil1" d="M50 40l-1 1 -1 -1 0 -39 1 0 1 39zm0 0l0 1 -1 0 1 -1zm-30 0l0 0 1 0 0 0 0 0 1 -1 1 0 0 0 1 0 1 0 1 0 1 0 1 0 2 0 1 0 1 0 2 0 1 0 1 0 1 0 2 0 1 0 1 0 1 0 2 0 1 0 1 0 0 0 1 0 1 0 0 0 1 0 0 0 0 0 0 2 0 0 0 0 -1 0 0 0 -1 0 -1 0 0 0 -1 0 -1 0 -2 0 -1 0 -1 0 -1 0 -2 0 -1 0 -1 0 -1 0 -2 0 -1 0 -1 0 -2 0 -1 0 -1 0 -1 0 -1 0 -1 0 0 0 -1 0 -1 0 0 0 0 0 0 -1 0 0 -1 0zm1 -31l0 0 0 0 0 0 0 0 0 1 0 1 0 1 0 1 0 1 0 1 0 1 0 1 0 2 0 1 0 2 0 1 0 2 0 1 0 2 0 1 0 2 0 1 0 1 0 2 0 1 0 1 0 1 0 1 0 0 0 1 0 0 0 0 -1 0 1 0 -1 0 0 0 0 0 0 -1 0 0 0 -1 0 -1 0 -1 0 -1 0 -2 0 -1 0 -1 0 -2 0 -1 0 -2 0 -1 0 -2 0 -1 0 -2 0 -1 0 -2 0 -1 0 -1 0 -1 0 -1 0 -1 0 -1 0 -1 0 -1 0 0 0 0 0 0 0 -1 1 1zm4 -8l0 0 1 1 -5 7 -1 -1 5 -7zm0 0l0 0 0 0 0 0zm0 -1l1 0 0 1 0 1 -1 -1 0 -1zm0 0l0 0 1 0 -1 0zm23 1l0 0 1 1 0 0 -1 0 0 0 -1 0 0 0 -1 0 -1 0 -1 0 -1 0 -1 0 -1 0 -1 0 -1 0 -1 0 -1 0 -1 0 -1 0 -1 0 -1 0 -1 0 -1 0 -1 0 -1 0 -1 0 0 0 -1 0 0 0 -1 0 0 0 0 0 0 0 0 -2 0 0 0 0 0 0 1 0 0 0 1 0 0 0 1 0 1 0 1 0 1 0 1 0 1 0 1 0 1 0 1 0 1 0 1 0 1 0 1 0 1 0 1 0 1 0 1 0 1 0 1 0 0 0 1 0 0 0 1 0 0 0 0 1 0 0 -1 0zm1 0l0 0 0 0 0 0z"/>
       </g>
       <g>
        <path class="fil2" d="M25 1l1 5c0,0 0,2 -1,2 -1,1 -5,0 -5,0l5 -7 0 0z"/>
        <path id="1" class="fil1" d="M26 6l0 0 0 0 -1 -5 1 0 0 5zm0 0l0 0 0 0 0 0zm-1 2l0 0 0 0 0 0 0 0 0 0 0 0 0 0 0 0 0 0 0 0 1 0 0 0 0 0 0 -1 0 0 0 0 0 0 0 0 0 0 0 0 0 0 0 0 0 0 0 0 0 0 0 0 0 0 0 0 0 -1 0 0 0 0 0 0 0 0 0 0 0 0 0 0 0 0 0 0 0 1 0 0 0 0 0 0 0 0 0 0 0 0 0 0 0 0 0 0 0 0 0 0 0 0 0 0 0 1 0 0 0 0 0 0 0 0 0 0 0 0 0 0 -1 0 0 0 0 0 0 0 0 0 0 0 0 0 0 0zm-4 1l-1 -1 0 0 0 0 1 0 0 0 0 0 0 0 0 0 0 0 0 0 0 0 0 0 1 0 0 0 0 0 0 0 0 0 1 0 0 0 0 0 0 0 0 0 1 0 0 0 0 0 0 0 0 0 0 0 1 0 0 0 0 0 0 0 0 0 0 0 0 0 0 0 0 0 0 1 -1 0 0 0 0 0 0 0 0 0 0 0 -1 0 0 0 0 0 0 0 0 0 -1 0 0 0 0 0 0 0 0 0 -1 0 0 0 0 0 0 0 0 0 0 0 0 0 0 0 0 0 -1 0 0 0 0 0 0 -1 1 1zm4 -8l1 0 0 0 -5 8 -1 -1 5 -7zm0 0l1 -1 0 1 -1 0zm1 0l-1 0 0 0 0 0 1 0 0 0zm-1 0l0 0 0 0 0 0z"/>
       </g>
      </g>
      <rect class="fil2" transform="matrix(0.24819 -0.000890623 -0.00112615 -0.313829 24.5906 20.6925)" width="82.9431" height="7.44405"/>
      <rect class="fil2" transform="matrix(0.24819 -0.000890623 -0.00112615 -0.313829 24.5751 16.3685)" width="82.9431" height="7.44405"/>
      <rect class="fil2" transform="matrix(0.169626 -0.000608697 -0.00112615 -0.313829 31.0751 11.7878)" width="82.9431" height="7.44405"/>
      <rect class="fil2" transform="matrix(0.24819 -0.000890623 -0.00112615 -0.313829 24.6072 25.3107)" width="82.9431" height="7.44405"/>
      <rect class="fil2" transform="matrix(0.24819 -0.000890623 -0.00112615 -0.313829 24.6237 29.9289)" width="82.9431" height="7.44405"/>
      <rect class="fil2" transform="matrix(0.24819 -0.000890623 -0.00112615 -0.313829 24.6401 34.4916)" width="82.9431" height="7.44405"/>
     </g>
     <g>
      <g>
       <path class="fil0" d="M45 3l1 39c0,0 -29,0 -29,0 0,1 0,-31 0,-31l5 -8 0 0c0,0 23,0 23,0z"/>
       <path id="1" class="fil1" d="M46 42l0 1 -1 -1 0 -39 1 0 0 39zm0 0l0 1 0 0 0 -1zm-29 0l0 0 0 0 1 0 0 -1 1 0 0 0 1 0 1 0 1 0 1 0 1 0 1 0 1 0 2 0 1 0 1 0 1 0 2 0 1 0 1 0 2 0 1 0 1 0 1 0 1 0 1 0 1 0 1 0 0 0 1 0 0 0 1 0 0 0 0 2 0 0 -1 0 0 0 -1 0 0 0 -1 0 -1 0 -1 0 -1 0 -1 0 -1 0 -1 0 -2 0 -1 0 -1 0 -2 0 -1 0 -1 0 -1 0 -2 0 -1 0 -1 0 -1 0 -1 0 -1 0 -1 0 -1 0 0 0 -1 0 0 0 0 0 0 -1 0 0 -1 0zm1 -31l0 0 0 0 0 0 0 0 0 1 0 1 0 1 0 1 0 1 0 1 0 1 0 1 0 2 0 1 0 2 0 1 0 2 0 1 0 2 0 1 0 2 0 1 0 1 0 2 0 1 0 1 0 1 0 1 0 0 0 1 0 0 0 0 -1 0 1 0 -1 0 0 0 0 0 0 -1 0 0 0 -1 0 -1 0 -1 0 -1 0 -2 0 -1 0 -1 0 -2 0 -1 0 -2 0 -1 0 -2 0 -1 0 -2 0 -1 0 -2 0 -1 0 -1 0 -1 0 -1 0 -1 0 -1 0 -1 0 -1 0 0 0 0 0 0 0 -1 1 1zm3 -8l0 0 1 1 -4 7 -1 -1 4 -7zm0 0l0 0 0 0 0 0zm1 -1l0 0 1 1 -1 1 -1 -1 1 -1zm0 0l0 0 0 0 0 0zm23 1l0 0 0 1 0 0 0 0 -1 0 0 0 -1 0 0 0 -1 0 -1 0 -1 0 -1 0 -1 0 -1 0 -1 0 -1 0 -1 0 -1 0 -1 0 -1 0 -1 0 -1 0 -1 0 -1 0 -1 0 -1 0 -1 0 0 0 -1 0 0 0 -1 0 0 0 0 0 0 -2 0 0 0 0 1 0 0 0 1 0 0 0 1 0 1 0 1 0 1 0 1 0 1 0 1 0 1 0 1 0 1 0 1 0 1 0 1 0 1 0 1 0 1 0 1 0 1 0 1 0 0 0 1 0 1 0 0 0 0 0 0 0 1 1 0 0 -1 0zm0 0l0 0 0 0 0 0z"/>
      </g>
      <g>
       <path class="fil2" d="M22 3l0 5c0,0 1,2 0,2 -1,1 -5,0 -5,0l5 -7 0 0z"/>
       <path id="1" class="fil1" d="M23 8l-1 0 0 0 0 -5 0 0 1 5zm-1 0l0 0 0 0 0 0zm0 2l0 0 0 0 0 0 0 0 0 0 0 0 0 0 0 0 0 0 0 0 0 0 0 0 0 0 0 -1 0 0 0 0 0 0 0 0 0 0 0 0 0 0 0 0 0 0 0 0 0 0 0 0 0 0 0 -1 0 0 0 0 0 0 0 0 0 0 1 0 0 0 0 0 0 0 0 0 0 0 0 1 0 0 0 0 0 0 0 0 0 0 0 0 0 0 0 0 0 0 0 0 0 0 -1 0 0 0 0 1 0 0 0 0 0 0 0 0 0 0 0 0 0 0 0 0 0 0 0 0 0 0 0 0 0 0 0 0zm-5 1l0 -1 0 0 0 0 0 0 0 0 0 0 0 0 1 0 0 0 0 0 0 0 0 0 0 0 0 0 1 0 0 0 0 0 0 0 0 0 1 0 0 0 0 0 0 0 0 0 1 0 0 0 0 0 0 0 0 0 0 0 0 0 1 0 0 0 0 0 0 0 -1 0 0 0 0 0 0 0 0 1 0 0 0 0 -1 0 0 0 0 0 0 0 0 0 -1 0 0 0 0 0 0 0 0 0 -1 0 0 0 0 0 0 0 0 0 0 0 0 0 -1 0 0 0 0 0 0 0 0 0 0 0 0 0 0 -1 0 1zm5 -8l0 0 0 0 -5 8 0 -1 5 -7zm0 0l0 -1 0 1 0 0zm0 0l0 0 0 0 0 0 0 0 0 0zm0 0l0 0 0 0 0 0z"/>
      </g>
     </g>
    </g>
    <g>
     <rect class="fil3" x="25" y="10" width="14.2448" height="2.61415"/>
     <rect class="fil3" x="22" y="14" width="9.19065" height="2.61415"/>
     <rect class="fil3" x="33" y="14" width="8.7611" height="2.61415"/>
     <rect class="fil3" x="22" y="19" width="9.19065" height="2.61415"/>
     <rect class="fil3" x="33" y="19" width="8.7611" height="2.61415"/>
     <rect class="fil3" x="22" y="24" width="9.19065" height="2.61415"/>
     <rect class="fil3" x="33" y="24" width="8.7611" height="2.61415"/>
     <rect class="fil3" x="22" y="29" width="9.19065" height="2.61415"/>
     <rect class="fil3" x="33" y="29" width="8.7611" height="2.61415"/>
    </g>
   </g>
   <g>
    <path class="fil3" d="M2 31l17 0c-3,2 -4,5 -4,8 0,3 1,5 3,7l-16 0c-1,0 -2,-1 -2,-2l0 -11c0,-1 1,-2 2,-2z"/>
    <path class="fil4" d="M0 33l17 0c-1,1 -1,1 -1,2l-16 0 0 -2z"/>
    <g>
     <rect class="fil5" x="2" y="38" width="1.50775" height="1.67591"/>
     <rect class="fil5" x="4" y="38" width="1.50775" height="1.67591"/>
     <rect class="fil5" x="6" y="38" width="1.50775" height="1.67591"/>
     <rect class="fil5" x="8" y="38" width="1.50775" height="1.67591"/>
     <rect class="fil5" x="10" y="38" width="1.50775" height="1.67591"/>
     <rect class="fil5" x="12" y="38" width="1.50775" height="1.67591"/>
    </g>
    <circle class="fil6" cx="25" cy="39" r="10"/>
    <path class="fil7" d="M27 42c0,0 0,-1 0,-1 -1,0 -1,-1 -2,-1 0,0 -1,0 -1,0 0,-1 -1,-1 -1,-1 0,0 -1,-1 -1,-1 0,-1 0,-1 0,-1 0,-1 0,-2 1,-3 0,0 1,-1 2,-1l0 -1 1 0 0 1c1,0 2,1 3,2 0,0 0,1 0,2l-2 0c0,-1 0,-1 0,-1 -1,-1 -1,-1 -1,-1 -1,0 -1,0 -1,1 -1,0 -1,0 -1,1 0,0 0,0 1,0 0,1 0,1 1,1 0,0 1,1 1,1 1,0 1,0 1,1 1,0 1,0 1,1 0,0 0,0 0,1 0,1 0,2 -1,2 0,1 -1,1 -2,1l0 2 -1 0 0 -2c-1,0 -2,0 -3,-1 0,-1 -1,-2 -1,-3l3 0c0,1 0,1 0,2 1,0 1,0 2,0 0,0 0,0 1,0 0,0 0,-1 0,-1z"/>
   </g>
  </g>
 </g>
</svg>
