<?xml version="1.0" encoding="UTF-8"?>
<!DOCTYPE svg PUBLIC "-//W3C//DTD SVG 1.1//EN" "http://www.w3.org/Graphics/SVG/1.1/DTD/svg11.dtd">
<!-- Creator: CorelDRAW X7 -->
<svg xmlns="http://www.w3.org/2000/svg" xml:space="preserve" width="49px" height="48px" version="1.1" style="shape-rendering:geometricPrecision; text-rendering:geometricPrecision; image-rendering:optimizeQuality; fill-rule:evenodd; clip-rule:evenodd"
viewBox="0 0 50 49"
 xmlns:xlink="http://www.w3.org/1999/xlink">
 <defs>
  <style type="text/css">
   <![CDATA[
    .fil7 {fill:#FFF212}
    .fil2 {fill:#ED3237}
    .fil4 {fill:#51A8B1}
    .fil6 {fill:black}
    .fil5 {fill:#4E8AC8}
    .fil8 {fill:#FC4D44}
    .fil11 {fill:#FEFEFE;fill-rule:nonzero}
    .fil3 {fill:#FFF212;fill-rule:nonzero}
    .fil1 {fill:#2887D2;fill-rule:nonzero}
    .fil10 {fill:#4E901E;fill-rule:nonzero}
    .fil9 {fill:#7ED63E;fill-rule:nonzero}
    .fil0 {fill:url(#id0)}
   ]]>
  </style>
  <linearGradient id="id0" gradientUnits="userSpaceOnUse" x1="11.4578" y1="36.5281" x2="39.6714" y2="10.9997">
   <stop offset="0" style="stop-opacity:1; stop-color:#DBEFFF"/>
   <stop offset="1" style="stop-opacity:1; stop-color:white"/>
  </linearGradient>
 </defs>
 <g id="Layer_x0020_1">
  <metadata id="CorelCorpID_0Corel-Layer"/>
  <g id="_544802384">
   <path class="fil0" d="M10 3l0 -2c0,0 1,1 2,1 1,0 2,0 3,0 1,-1 1,-2 1,-2 0,0 1,2 3,2 1,0 2,-1 3,-1 0,0 0,0 0,0 0,0 1,1 3,1 2,0 3,-1 3,-1 0,0 1,1 3,1 2,0 3,-1 3,-1 0,0 1,1 3,1 2,0 3,-1 3,-1l0 34 0 9c0,0 0,2 1,2 1,1 -2,0 -2,0 0,0 -10,1 -12,1 -2,0 -11,0 -15,-3 -3,-2 -2,-8 -2,-8l0 -33z"/>
   <g>
    <g>
     <g>
      <path class="fil1" d="M14 3l-1 -2 0 0 1 0 0 0 0 0 0 0 0 0 0 0 0 0 0 0 1 0 0 0 0 0 0 0 0 0 0 0 0 0 0 0 0 0 0 0 0 -1 0 0 0 0 1 0 0 0 0 0 0 0 0 0 0 0 0 0 0 0 0 0 0 0 0 0 1 1 0 0 0 0 0 0 0 0 0 0 0 0 0 0 0 0 0 0 0 0 0 0 -1 0 0 0 0 1 0 0 0 0 0 0 0 0 0 0 0 0 -1 0 0 0 0 0 0 0 0 0 0 1 -1 0 0 0 0 0 0 0 0 0 0 0 0 0zm-3 -2l-1 0 1 -1 0 0 0 0 0 0 0 0 0 0 0 0 0 0 0 0 0 0 0 0 0 1 0 0 0 0 0 0 1 0 0 0 0 0 0 0 0 0 0 0 0 0 0 0 0 0 0 0 1 0 0 0 0 0 0 0 0 0 0 0 0 0 0 0 1 2 -1 0 0 0 0 0 0 0 0 0 -1 0 0 0 0 0 0 -1 0 0 0 0 -1 0 0 0 0 0 0 0 0 0 0 0 0 0 0 0 -1 0 0 0 0 -1 0 0 0 0 0 0 0 0 0 0 0 0 0 0 0 0 0 0 0 0 1 0zm0 40l-1 0 0 0 0 0 0 -1 0 -1 0 -1 0 -1 0 -1 0 -1 0 -2 0 -1 0 -2 0 -2 0 -1 0 -2 0 -2 0 -2 0 -2 0 -1 0 -2 0 -2 0 -2 0 -1 0 -2 0 -1 0 -2 0 -1 0 -1 0 -1 0 -1 0 -1 0 0 0 0 0 0 1 0 0 0 0 0 0 1 0 0 0 1 0 1 0 1 0 1 0 2 0 1 0 2 0 1 0 2 0 2 0 2 0 1 0 2 0 2 0 2 0 2 0 1 0 2 0 2 0 1 0 2 0 1 0 1 0 1 0 1 0 1 0 1 0 0 0 0zm28 5l0 1 0 0 0 0 -1 0 -1 0 -1 0 -1 0 -2 0 -1 1 -1 0 -1 0 -1 0 -1 0 -2 0 -1 0 -1 0 -1 -1 -1 0 -2 0 -1 0 -1 0 -1 0 -1 -1 -1 0 -1 0 -1 0 0 -1 -1 0 -1 -1 0 0 -1 -1 0 0 0 -1 0 -1 1 0 0 1 0 0 0 0 1 1 0 0 1 1 0 0 1 0 1 1 1 0 0 0 1 0 1 1 1 0 2 0 1 0 1 0 1 0 1 0 1 0 2 0 1 0 1 0 1 0 1 0 1 0 2 0 1 0 1 0 1 0 0 0 1 0 0 0zm4 -1l0 1 0 0 0 0 0 0 0 0 0 1 -1 0 0 0 0 0 0 0 0 0 0 0 0 0 0 0 0 0 0 0 0 0 -1 0 0 0 0 0 0 0 0 0 0 0 0 0 0 0 -1 0 0 0 0 0 0 0 0 0 0 0 0 0 0 0 -1 0 0 -1 0 0 1 0 0 0 0 0 0 0 0 0 0 0 0 0 0 -1 1 0 0 0 0 0 0 0 0 0 0 0 0 0 0 0 0 0 1 0 0 0 0 0 0 0 0 0 0 0 0 0 0 0 0 0 0 0 0 0 0 0 0 0 1 0 0 0zm-4 -2l2 0 0 0 0 0 0 1 0 0 0 0 0 0 0 0 0 0 0 0 0 1 0 0 0 0 0 0 0 0 0 0 1 0 0 0 0 0 0 0 0 0 0 0 0 0 0 0 0 0 0 0 1 0 0 0 0 0 0 0 0 0 0 1 0 0 0 0 0 -1 0 0 -1 0 1 1 0 0 0 0 0 0 0 0 -1 0 0 0 0 0 0 0 0 0 0 0 0 0 -1 0 0 0 0 0 0 0 0 0 0 0 -1 0 0 0 0 -1 0 0 0 0 0 0 0 0 -1 -1 0 0 0 0 0 0 0 -1 0 0zm2 -12l0 12 -2 0 0 -12 2 0 0 0zm0 -31l0 31 -2 0 0 -31 2 0zm-4 1l0 2 0 0 0 0 0 0 0 0 -1 0 0 0 0 0 0 0 0 0 0 -1 -1 0 0 0 0 0 0 0 0 0 0 0 0 0 0 0 -1 0 0 0 0 0 0 0 0 -1 0 0 0 0 0 0 0 0 0 0 0 0 0 0 0 0 0 0 0 0 1 -1 0 0 0 0 0 0 0 0 0 0 0 0 0 0 0 0 0 0 0 0 0 1 0 0 0 0 0 0 0 0 0 0 1 0 0 0 0 0 0 0 0 0 0 0 0 0 0 0 0 0 0 0 1 0 0 0 0 0 0 0 0 0 0 0 0 0zm3 -1l1 1 0 0 0 0 0 0 0 0 0 0 0 0 0 0 -1 0 0 0 0 0 0 0 0 0 0 0 0 1 0 0 0 0 0 0 0 0 -1 0 0 0 0 0 0 0 0 0 0 0 0 0 -1 1 0 0 0 0 0 0 0 0 0 0 -1 0 0 -2 0 0 0 0 1 0 0 0 0 0 0 0 0 0 0 0 0 0 0 0 1 0 0 0 0 0 0 0 0 0 0 0 0 0 0 0 0 -1 0 0 0 0 0 0 0 0 0 0 0 0 0 0 0 0 1 0 0 0 0 0 0 0 0 0zm-9 3l0 -2 0 0 0 0 0 0 1 0 0 0 0 0 0 0 0 0 0 0 0 0 0 0 0 0 1 0 0 0 0 0 0 0 0 0 0 0 0 0 0 0 0 0 0 0 0 -1 0 0 0 0 1 0 0 0 0 0 0 0 0 0 0 0 0 0 0 0 1 1 0 0 0 0 0 0 0 0 0 0 0 0 0 0 -1 0 0 0 0 0 0 1 0 0 0 0 0 0 0 0 0 0 0 0 -1 0 0 0 0 0 0 0 0 0 0 0 0 1 -1 0 0 0 0 0 0 0 0 0 -1 0 0 0 0 0 0 0zm-3 -2l1 -1 0 0 0 0 0 0 0 0 0 0 0 0 0 0 0 0 0 0 0 0 0 0 0 0 0 0 0 1 0 0 0 0 0 0 1 0 0 0 0 0 0 0 0 0 0 0 0 0 0 0 0 0 1 0 0 0 0 0 0 0 0 0 0 0 0 2 0 0 0 0 -1 0 0 0 0 0 0 0 0 -1 0 0 -1 0 0 0 0 0 0 0 0 0 0 0 0 0 0 0 -1 0 0 0 0 -1 0 0 0 0 0 0 0 0 0 0 0 0 0 0 0 0 0 0 0 0 0 0 0 0 0 0zm-3 0l0 2 0 0 0 0 0 0 0 0 0 0 -1 0 0 0 0 0 0 0 0 -1 0 0 -1 0 0 0 0 0 0 0 0 0 0 0 0 0 0 0 -1 0 0 0 0 0 0 -1 0 0 0 0 0 0 0 0 0 0 0 0 0 0 0 0 0 0 0 0 1 -1 0 0 0 0 0 0 0 0 0 0 0 0 0 0 0 0 0 0 0 0 0 1 0 0 0 0 0 0 0 0 1 0 0 0 0 0 0 0 0 0 0 0 0 0 0 0 0 0 0 0 1 0 0 0 0 0 0 0 0 0 0 0 0 0 0 0zm3 -1l1 1 0 0 0 0 0 0 0 0 0 0 0 0 0 0 0 0 0 0 -1 0 0 0 0 0 0 0 0 1 0 0 0 0 0 0 0 0 0 0 -1 0 0 0 0 0 0 0 0 0 0 0 0 1 -1 0 0 0 0 0 0 0 0 0 -1 0 0 -2 0 0 1 0 0 0 0 0 0 0 0 0 0 0 0 0 0 0 1 0 0 0 0 0 0 0 0 0 0 0 0 0 0 0 0 0 0 -1 0 0 0 0 0 0 0 0 1 0 0 0 0 0 0 0 0 0 0 0 0 0 0 0 0 0zm-9 3l0 -2 0 0 0 0 1 0 0 0 0 0 0 0 0 0 0 0 0 0 0 0 0 0 1 0 0 0 0 0 0 0 0 0 0 0 0 0 0 0 0 0 0 0 0 0 0 -1 1 0 0 0 0 0 0 0 0 0 0 0 0 0 0 0 0 0 0 0 1 1 0 0 0 0 0 0 0 0 0 0 0 0 0 0 0 0 0 0 -1 0 0 1 0 0 0 0 0 0 0 0 0 0 0 0 0 0 -1 0 0 0 0 0 0 0 0 0 0 1 0 0 -1 0 0 0 0 0 0 0 0 0 -1 0 0 0 0 0zm-3 -2l1 -1 0 0 0 0 0 0 0 0 0 0 0 0 0 0 0 0 0 0 0 0 0 0 0 0 0 0 0 1 0 0 1 0 0 0 0 0 0 0 0 0 0 0 0 0 0 0 0 0 0 0 0 0 1 0 0 0 0 0 0 0 0 0 0 0 0 2 0 0 0 0 0 0 -1 0 0 0 0 0 0 -1 0 0 0 0 -1 0 0 0 0 0 0 0 0 0 0 0 0 0 0 0 -1 0 0 -1 0 0 0 0 0 0 0 0 0 0 0 0 0 0 0 0 0 0 0 0 0 0 0 0 0 0z"/>
     </g>
     <g>
      <path class="fil2" d="M48 42c1,-3 1,-13 1,-13 0,0 -1,1 -3,1 -1,0 -1,0 -1,0 0,0 -1,1 -2,1 -1,0 -2,-1 -2,-1l-1 0 0 13c0,0 0,3 2,3 3,0 5,-1 6,-4z"/>
      <path id="1" class="fil1" d="M49 30l0 -1 0 0 0 0 0 0 0 1 1 0 0 0 0 0 0 1 0 0 0 0 0 1 0 0 0 1 0 0 0 1 0 0 0 1 0 0 -1 1 0 0 0 1 0 0 0 1 0 0 0 1 0 0 0 1 0 0 0 1 0 0 0 1 0 0 0 0 -1 0 0 0 0 -1 0 0 0 0 0 -1 0 0 0 -1 0 0 0 -1 0 0 0 -1 0 0 0 -1 0 0 0 -1 0 0 0 -1 0 0 0 -1 0 0 0 -1 0 0 0 -1 0 0 0 0 0 -1 0 0 0 0 0 0 0 0 0 -1 0 0 1 1zm-3 1l0 -1 0 0 0 0 1 0 0 0 0 0 0 0 0 0 0 0 0 0 0 0 0 0 0 0 1 0 0 0 0 0 0 -1 0 0 0 0 0 0 0 0 0 0 0 0 0 0 0 0 0 0 0 0 0 0 1 0 0 0 0 0 0 0 0 0 0 0 0 1 0 0 0 0 0 0 0 0 0 0 0 0 0 0 0 0 0 0 0 0 0 0 0 0 0 0 0 0 -1 0 0 0 0 0 0 1 0 0 0 0 0 0 0 0 0 0 -1 0 0 0 0 0 0 0 0 0 0 0 0 0 -1 0 0 0 0 0zm-1 -1l-1 -1 1 1 0 0 0 0 0 0 0 -1 0 0 0 1 0 -1 0 0 0 0 0 0 0 0 0 0 0 0 0 1 0 0 0 0 0 0 0 0 0 0 0 0 0 0 0 0 0 0 1 0 0 0 0 0 0 0 0 0 0 0 0 0 0 0 0 0 0 1 0 0 0 0 0 0 0 0 0 0 -1 0 0 0 0 0 0 0 0 0 0 0 0 0 0 0 0 -1 0 0 0 0 0 0 -1 0 0 0 0 0 0 0 0 0 0 0 0 0 0 0 0 0 0 0 0 0 0 0 0 0 0 0 0 0 1 0zm-2 1l0 -1 0 0 0 0 0 0 0 0 0 0 0 0 0 0 0 0 0 0 1 0 0 0 0 0 0 0 0 0 0 0 0 0 0 0 0 0 0 0 0 0 0 0 0 0 0 -1 0 0 0 0 0 0 0 0 0 0 0 0 0 0 0 0 0 0 0 0 1 1 0 0 0 0 0 0 0 0 0 0 0 0 0 0 0 0 0 0 0 0 0 0 0 0 0 0 0 0 0 0 0 1 -1 0 0 0 0 0 0 0 0 0 0 0 0 0 0 0 0 0 0 0 0 0 -1 0 0 0 0 0 0 0 0 0 0 0zm-2 -1l-1 -1 1 0 0 0 0 0 0 0 0 0 0 0 0 0 0 0 0 0 0 0 0 0 0 0 0 0 0 1 0 0 0 0 1 0 0 0 0 0 0 0 0 0 0 0 0 0 0 0 0 0 0 0 0 0 0 0 1 0 0 0 0 0 0 0 0 0 0 1 0 0 0 0 -1 0 0 0 0 0 0 0 0 0 0 0 0 0 0 0 -1 0 0 0 0 0 0 0 0 0 0 0 0 -1 0 0 0 0 0 0 0 0 0 0 -1 0 0 0 0 0 0 0 0 0 0 0 0 0 0 0 0 0 0 0 1 0zm-1 -1l0 0 1 1 -1 0 -1 0 1 -1zm-1 1l0 -1 1 0 -1 1zm0 13l0 -13 2 0 0 13 -2 0 0 0zm0 0l0 0 0 0 0 0zm3 2l0 1 0 0 0 0 0 0 -1 0 0 0 0 0 0 0 0 0 0 0 -1 0 0 0 0 -1 0 0 0 0 0 0 0 0 0 0 0 0 0 -1 0 0 0 0 0 0 0 0 0 0 0 0 0 0 -1 0 0 -1 0 0 0 0 0 0 0 0 0 0 2 0 0 0 0 0 0 0 0 0 0 0 0 0 0 0 0 1 0 0 0 0 0 0 0 0 0 0 0 0 0 0 0 0 0 0 0 1 0 0 0 0 0 0 0 0 0 0 0 0 0 0 0 0 1 0 0 0 0 0 0 0 0 0 0 0 0 0zm6 -3l1 0 0 0 0 1 -1 0 0 0 0 0 0 1 0 0 0 0 0 0 -1 0 0 1 0 0 0 0 0 0 -1 0 0 0 0 1 0 0 0 0 -1 0 0 0 0 0 0 0 -1 0 0 0 0 0 0 0 -1 0 0 0 0 0 0 0 -1 0 0 0 0 -1 0 0 0 0 1 0 0 0 0 0 0 0 1 0 0 0 0 0 0 0 0 0 1 0 0 0 0 0 0 0 0 0 1 0 0 -1 0 0 0 0 0 0 0 0 1 0 0 0 0 -1 0 0 0 0 0 0 0 0 0 -1 1 0 0 0 0 0z"/>
     </g>
    </g>
    <g id="_788251512">
     <circle class="fil2" cx="25" cy="13" r="8"/>
     <path class="fil3" d="M26 15c0,0 0,0 0,-1 0,0 0,0 -1,0 0,0 -1,-1 -1,-1 -1,0 -1,0 -1,0 0,-1 -1,-1 -1,-1 0,0 0,-1 0,-1 0,-1 0,-2 1,-2 0,-1 1,-1 2,-1l0 -1 1 0 0 1c1,0 1,0 2,1 0,1 0,1 0,2l-2 0c0,0 0,-1 0,-1 0,0 0,0 -1,0 0,0 0,0 -1,0 0,0 0,0 0,1 0,0 0,0 0,1 1,0 1,0 1,0 1,0 1,1 2,1 0,0 0,0 1,0 0,1 0,1 0,1 0,1 0,1 0,1 0,1 0,2 0,2 -1,1 -1,1 -2,1l0 1 -1 0 0 -1c-1,0 -2,0 -2,-1 -1,-1 -1,-1 -1,-2l2 0c0,0 0,1 0,1 0,0 1,0 1,0 1,0 1,0 1,0 0,0 0,0 0,-1z"/>
    </g>
    <g id="_788250480">
     <rect class="fil4" x="14" y="23" width="22.644" height="2.05255"/>
     <rect class="fil4" x="14" y="27" width="22.644" height="2.05255"/>
     <rect class="fil4" x="14" y="32" width="22.644" height="2.05255"/>
    </g>
    <rect class="fil4" x="14" y="37" width="22.644" height="2.05255"/>
    <g id="_544802648">
     <g>
      <rect class="fil5" x="2" y="29" width="16.6475" height="9.9883" rx="1" ry="1"/>
      <rect class="fil6" x="2" y="30" width="16.6475" height="0.876622"/>
      <g>
       <rect class="fil7" x="3" y="34" width="0.98396" height="1.09368"/>
       <rect class="fil7" x="4" y="34" width="0.98396" height="1.09368"/>
       <rect class="fil7" x="6" y="34" width="0.98396" height="1.09368"/>
       <rect class="fil7" x="7" y="34" width="0.98396" height="1.09368"/>
       <rect class="fil7" x="8" y="34" width="0.98396" height="1.09368"/>
       <rect class="fil7" x="10" y="34" width="0.98396" height="1.09368"/>
      </g>
     </g>
     <g>
      <rect class="fil8" y="31" width="16.6475" height="9.9883" rx="1" ry="1"/>
      <rect class="fil6" y="33" width="16.6475" height="0.876622"/>
      <g>
       <rect class="fil7" x="1" y="36" width="0.98396" height="1.09368"/>
       <rect class="fil7" x="2" y="36" width="0.98396" height="1.09368"/>
       <rect class="fil7" x="4" y="36" width="0.98396" height="1.09368"/>
       <rect class="fil7" x="5" y="36" width="0.98396" height="1.09368"/>
       <rect class="fil7" x="6" y="36" width="0.98396" height="1.09368"/>
       <rect class="fil7" x="8" y="36" width="0.98396" height="1.09368"/>
      </g>
     </g>
     <g>
      <g>
       <polygon class="fil9" points="8,46 31,46 31,34 8,34 "/>
       <path class="fil10" d="M29 37l0 6c-1,0 -2,1 -2,2l-16 0c0,-1 0,-2 -2,-2l0 -6c2,0 2,-1 2,-2l16 0c0,1 1,2 2,2z"/>
       <path class="fil11" d="M21 40c0,1 0,2 -2,2 -1,0 -2,-1 -2,-2 0,-1 1,-2 2,-2 2,0 2,1 2,2z"/>
       <path class="fil9" d="M8 38l0 8 8 0c-2,0 -4,-1 -6,-2 -1,-2 -2,-3 -2,-6z"/>
       <polygon class="fil11" points="24,41 26,41 26,40 24,40 "/>
       <polygon class="fil11" points="13,41 15,41 15,40 13,40 "/>
      </g>
      <g>
       <polygon class="fil9" points="5,49 27,49 27,37 5,37 "/>
       <path class="fil10" d="M26 40l0 5c-1,0 -2,1 -2,2l-16 0c0,-1 -1,-2 -2,-2l0 -5c1,0 2,-1 2,-2l16 0c0,1 1,2 2,2z"/>
       <path class="fil11" d="M18 43c0,1 -1,2 -2,2 -1,0 -2,-1 -2,-2 0,-1 1,-2 2,-2 1,0 2,1 2,2z"/>
       <path class="fil9" d="M5 41l0 8 7 0c-2,0 -3,-1 -5,-2 -1,-2 -2,-4 -2,-6z"/>
       <polygon class="fil11" points="21,43 23,43 23,42 21,42 "/>
       <polygon class="fil11" points="9,43 11,43 11,42 9,42 "/>
      </g>
     </g>
    </g>
   </g>
  </g>
 </g>
</svg>
