<?xml version="1.0" encoding="UTF-8"?>
<!DOCTYPE svg PUBLIC "-//W3C//DTD SVG 1.1//EN" "http://www.w3.org/Graphics/SVG/1.1/DTD/svg11.dtd">
<!-- Creator: CorelDRAW X7 -->
<svg xmlns="http://www.w3.org/2000/svg" xml:space="preserve" width="43px" height="49px" version="1.1" style="shape-rendering:geometricPrecision; text-rendering:geometricPrecision; image-rendering:optimizeQuality; fill-rule:evenodd; clip-rule:evenodd"
viewBox="0 0 43 48"
 xmlns:xlink="http://www.w3.org/1999/xlink">
 <defs>
  <style type="text/css">
   <![CDATA[
    .fil0 {fill:#FEFEFE}
    .fil9 {fill:#ED3237}
    .fil3 {fill:#51A8B1}
    .fil4 {fill:black}
    .fil8 {fill:black}
    .fil2 {fill:#2887D2}
    .fil7 {fill:#606062;fill-rule:nonzero}
    .fil10 {fill:#FFF212;fill-rule:nonzero}
    .fil6 {fill:#FFCC29;fill-rule:nonzero}
    .fil5 {fill:black;fill-rule:nonzero}
    .fil1 {fill:#2887D2;fill-rule:nonzero}
   ]]>
  </style>
 </defs>
 <g id="Layer_x0020_1">
  <metadata id="CorelCorpID_0Corel-Layer"/>
  <g id="_780844592">
   <g>
    <g>
     <g>
      <g>
       <g>
        <path class="fil0" d="M41 1l0 42c0,0 -30,-1 -30,0 0,1 0,-34 0,-34l5 -8 0 0c0,0 25,0 25,0z"/>
        <path id="1" class="fil1" d="M42 43l-1 1 0 -1 -1 -42 2 0 0 42zm0 0l0 1 -1 0 1 -1zm-32 0l0 0 1 -1 0 0 1 0 0 0 1 0 1 0 1 0 1 0 1 0 1 0 1 0 1 0 2 0 1 0 2 0 1 0 1 0 2 0 1 0 2 0 1 0 1 0 1 0 1 0 1 0 1 0 1 0 1 0 0 0 1 0 0 0 0 0 0 2 0 -1 0 0 -1 0 0 0 -1 0 -1 0 -1 0 -1 0 -1 0 -1 0 -1 0 -1 0 -2 0 -1 0 -2 0 -1 0 -1 0 -2 0 -1 0 -2 0 -1 0 -1 0 -1 0 -1 0 -1 0 -1 0 -1 0 -1 0 0 1 -1 0 0 0 0 -1 0 0 -1 0zm1 -34l0 0 0 0 0 0 0 1 0 0 0 1 0 1 0 1 0 1 0 2 0 1 0 1 0 2 0 2 0 1 0 2 0 1 0 2 0 2 0 1 0 2 0 1 0 2 0 1 0 1 0 1 0 1 0 1 0 1 0 0 0 1 0 0 -1 0 1 0 -1 0 0 0 0 -1 0 0 0 -1 0 -1 0 -1 0 -1 0 -1 0 -1 0 -2 0 -1 0 -2 0 -1 0 -2 0 -2 0 -1 0 -2 0 -1 0 -2 0 -2 0 -1 0 -1 0 -2 0 -1 0 -1 0 -1 0 -1 0 0 0 -1 0 0 0 0 0 0 1 0zm4 -8l0 0 1 1 -5 7 -1 0 5 -8zm0 0l0 0 0 0 0 0zm1 -1l0 0 0 1 0 1 -1 -1 1 -1zm0 0l0 0 0 0 0 0zm24 1l0 0 1 0 0 0 -1 0 0 0 -1 0 0 0 -1 0 -1 0 -1 0 -1 0 -1 0 -1 0 -1 0 -1 0 -1 0 -1 0 -2 0 -1 0 -1 0 -1 0 -1 0 -1 0 -1 0 -1 0 -1 0 -1 0 0 0 -1 0 0 0 -1 0 0 0 0 0 0 -1 0 0 0 0 1 0 0 0 1 0 0 0 1 0 1 0 1 0 1 0 1 0 1 0 1 0 1 0 1 0 2 0 1 0 1 0 1 0 1 0 1 0 1 0 1 0 1 0 1 0 1 0 0 0 1 0 0 0 1 0 0 0 1 1 0 0 -2 0zm2 0l0 0 0 0 0 0z"/>
       </g>
       <g>
        <path class="fil2" d="M16 1l0 6c0,0 1,1 0,2 -1,0 -5,0 -5,0l5 -8 0 0z"/>
        <path id="1" class="fil1" d="M17 7l-1 0 0 0 0 -6 0 0 1 6zm-1 0l0 0 0 0 0 0zm0 2l0 0 0 0 0 0 0 0 0 -1 0 0 0 0 0 0 0 0 0 0 0 0 0 0 0 0 0 0 0 0 0 0 0 0 0 -1 0 0 0 0 0 0 0 0 0 0 0 0 0 0 0 0 0 0 0 0 0 0 0 0 0 0 0 0 0 0 1 0 0 0 0 0 0 0 0 0 0 0 0 0 0 0 0 0 0 0 0 0 0 0 0 0 0 0 -1 0 0 1 0 0 0 0 0 0 0 0 0 0 0 0 0 0 0 0 0 0 0 0 0 0 0 1 0 0 0 0 0 0 0 0 0 0 0 0 0 0zm-5 0l0 0 0 0 0 0 0 0 0 0 0 0 0 0 0 0 0 0 0 0 1 0 0 0 0 0 0 0 0 0 1 0 0 0 0 0 0 0 0 0 1 0 0 0 0 0 0 0 0 0 1 0 0 0 0 0 0 0 0 0 0 0 0 0 1 0 0 0 -1 0 0 0 0 0 0 0 0 0 0 0 0 0 -1 0 0 0 0 0 0 0 0 0 -1 0 0 0 0 0 0 0 0 0 -1 0 0 0 0 0 0 0 0 0 -1 0 0 0 0 0 0 0 0 0 0 0 0 0 0 0 0 0 0 0 0 0 0 0zm5 -8l0 0 0 0 -5 8 0 0 5 -8zm0 0l0 -1 0 1 0 0zm0 0l0 0 0 0 0 0 0 0 0 0zm0 0l0 0 0 0 0 0z"/>
       </g>
      </g>
      <rect class="fil2" transform="matrix(0.27169 -0.000974934 -0.00123278 -0.343538 15.0817 21.9209)" width="80.8124" height="7.25281"/>
      <rect class="fil2" transform="matrix(0.27169 -0.000974934 -0.00123278 -0.343538 15.0651 17.3092)" width="80.8124" height="7.25281"/>
      <rect class="fil2" transform="matrix(0.185687 -0.00066632 -0.00123278 -0.343538 21.9978 12.4236)" width="80.8124" height="7.25281"/>
      <rect class="fil2" transform="matrix(0.27169 -0.000974934 -0.00123278 -0.343538 15.0993 26.8464)" width="80.8124" height="7.25281"/>
      <rect class="fil2" transform="matrix(0.27169 -0.000974934 -0.00123278 -0.343538 15.117 31.772)" width="80.8124" height="7.25281"/>
      <rect class="fil2" transform="matrix(0.27169 -0.000974934 -0.00123278 -0.343538 15.1345 36.6383)" width="80.8124" height="7.25281"/>
     </g>
     <g>
      <g>
       <path class="fil0" d="M37 3l1 42c0,0 -31,-1 -31,0 0,1 0,-34 0,-34l5 -8 1 0c0,0 24,0 24,0z"/>
       <path id="1" class="fil1" d="M38 45l0 1 -1 -1 0 -42 1 0 0 42zm0 0l0 1 0 0 0 -1zm-31 0l0 0 0 -1 1 0 0 0 1 0 0 0 1 0 1 0 1 0 1 0 1 0 2 0 1 0 1 0 2 0 1 0 1 0 2 0 1 0 2 0 1 0 1 0 2 0 1 0 1 0 1 0 1 0 1 0 0 0 1 0 0 0 0 0 1 0 0 2 -1 0 0 0 0 0 -1 0 0 0 -1 0 -1 0 -1 0 -1 -1 -1 0 -2 0 -1 0 -1 0 -2 0 -1 0 -2 0 -1 0 -1 0 -2 0 -1 0 -1 0 -2 0 -1 0 -1 0 -1 0 -1 0 -1 1 0 0 -1 0 0 0 0 0 0 -1 0 0 -1 0zm1 -34l0 0 0 0 0 0 0 1 0 1 0 0 0 1 0 1 0 2 0 1 0 1 0 2 0 1 0 2 0 1 0 2 0 1 0 2 0 2 0 1 0 2 0 1 0 2 0 1 0 1 0 1 0 1 0 1 0 1 0 0 0 1 0 0 -1 0 1 0 -1 0 0 0 0 0 0 -1 0 -1 0 -1 0 -1 0 -1 0 -1 0 -1 0 -2 0 -1 0 -2 0 -1 0 -2 0 -2 0 -1 0 -2 0 -1 0 -2 0 -1 0 -2 0 -1 0 -1 0 -2 0 -1 0 -1 0 0 0 -1 0 -1 0 0 0 0 0 0 1 0zm4 -8l0 0 1 1 -5 7 -1 0 5 -8zm0 0l0 0 0 0 0 0zm0 -1l0 0 1 1 0 1 -1 -1 0 -1zm0 0l0 0 0 0 0 0zm25 1l0 0 0 1 0 0 0 0 -1 -1 0 0 -1 0 -1 0 -1 0 0 0 -1 0 -1 0 -1 0 -2 0 -1 0 -1 0 -1 0 -1 0 -1 1 -2 0 -1 0 -1 0 -1 0 -1 0 -1 0 0 0 -1 0 -1 0 0 0 -1 0 0 0 0 0 0 0 -1 -2 1 0 0 0 0 0 1 0 0 0 1 0 1 0 0 0 1 0 1 0 1 0 1 0 1 0 2 0 1 0 1 0 1 0 1 0 1 0 2 0 1 0 1 0 1 0 0 0 1 0 1 0 1 0 0 0 1 0 0 0 0 0 1 1 0 0 -1 0zm0 0l0 0 0 0 0 0z"/>
      </g>
      <g>
       <path class="fil2" d="M12 3l1 6c0,0 0,2 -1,2 -1,0 -5,0 -5,0l5 -8 0 0z"/>
       <path id="1" class="fil1" d="M13 9l0 0 0 0 -1 -6 1 0 0 6zm0 0l0 0 0 0 0 0zm-1 2l0 0 0 0 0 0 0 0 0 0 0 0 0 -1 0 0 0 0 0 0 1 0 0 0 0 0 0 0 0 0 0 0 0 0 0 0 0 -1 0 0 0 0 0 0 0 0 0 0 0 0 0 0 0 0 0 0 0 0 0 0 0 0 0 0 0 0 0 0 0 0 0 0 0 0 0 0 0 0 0 0 0 0 0 0 0 0 0 0 0 0 0 0 0 0 0 1 0 0 0 0 0 0 0 0 0 0 0 0 0 0 0 0 0 0 0 0 0 1 -1 0 0 0 0 0 0 0 0 0 0 0 0 0 0 0 0 0zm-5 0l0 0 0 0 0 0 0 0 0 0 0 0 0 0 1 0 0 0 0 0 0 0 0 0 0 0 1 0 0 0 0 0 0 0 0 0 1 0 0 0 0 0 0 0 0 0 1 0 0 0 0 0 0 0 0 0 0 0 1 0 0 0 0 0 0 0 0 0 0 0 0 0 0 0 -1 0 0 0 0 0 0 0 0 0 0 0 -1 0 0 0 0 0 0 0 0 0 -1 0 0 0 0 0 0 0 0 0 -1 0 0 0 0 0 0 0 0 0 0 0 -1 0 0 0 0 0 0 0 0 0 0 0 0 0 0 0 0 0zm5 -8l1 0 0 0 -6 8 0 0 5 -8zm0 0l1 -1 0 1 -1 0zm1 0l-1 0 0 0 0 0 1 0 0 0zm-1 0l0 0 0 0 0 0z"/>
      </g>
     </g>
    </g>
    <g>
     <rect class="fil3" x="12" y="12" width="20.971" height="2.78811"/>
     <rect class="fil3" x="23" y="16" width="9.80241" height="2.78811"/>
     <rect class="fil3" x="12" y="16" width="9.34427" height="2.78811"/>
     <rect class="fil3" x="23" y="22" width="9.80241" height="2.78811"/>
     <rect class="fil3" x="12" y="22" width="9.34427" height="2.78811"/>
     <rect class="fil3" x="23" y="27" width="9.80241" height="2.78811"/>
     <rect class="fil3" x="12" y="27" width="9.34427" height="2.78811"/>
     <rect class="fil3" x="23" y="32" width="9.80241" height="2.78811"/>
     <rect class="fil3" x="12" y="32" width="9.34427" height="2.78811"/>
    </g>
   </g>
   <g>
    <g>
     <path class="fil4" d="M29 42l0 0c0,0 0,0 0,1l-1 1 0 1c0,-1 0,-1 0,-1l1 -1c0,0 0,-1 0,-1z"/>
     <path class="fil5" d="M29 43c0,0 0,0 0,0l0 0c-1,0 -1,0 -1,0l1 -4c0,0 0,0 0,0l2 1c0,0 0,0 0,0l-2 3z"/>
     <path class="fil6" d="M30 42l0 -2 -1 -1c0,0 0,0 0,0l-1 4c0,0 0,0 1,0l0 0c0,0 0,0 0,0 1,-1 1,-1 1,-1 0,0 0,0 0,0z"/>
     <path class="fil5" d="M41 7l-2 -1c0,0 0,0 0,0l1 -2c0,-1 0,-1 0,-1l2 1c0,0 0,0 0,1l-1 2c0,0 0,0 0,0z"/>
     <path class="fil6" d="M41 5c0,0 0,0 0,0 0,0 0,0 0,0l0 -2 -1 0c0,0 0,0 0,1l-1 2c0,0 0,0 0,0l2 1c0,0 0,0 0,0l1 -2 -1 0z"/>
     <path class="fil7" d="M31 40l-2 0c0,0 -1,-1 0,-2l9 -31c1,0 1,-1 1,-1l2 1c0,0 1,1 0,1l-9 31c-1,1 -1,1 -1,1z"/>
     <path class="fil5" d="M31 39c-1,-1 -1,-1 -1,-2l10 -30 -1 -1c0,0 0,1 -1,1l-9 31c-1,1 0,2 0,2l2 0c0,0 0,0 1,-1l0 0 -1 0z"/>
     <polygon class="fil6" points="31,29 34,30 33,35 30,34 "/>
     <polygon class="fil6" points="30,34 31,29 33,30 31,35 "/>
     <polygon class="fil6" points="38,7 41,8 34,30 31,29 "/>
     <polygon class="fil5" points="38,7 32,29 31,29 33,30 40,7 "/>
    </g>
    <path class="fil8" d="M41 7l2 0 -2 6c0,0 0,0 0,-1l1 -4 -1 -1c0,0 0,0 0,0z"/>
   </g>
   <g>
    <circle class="fil9" cx="9" cy="39" r="9"/>
    <path class="fil10" d="M10 42c0,0 0,-1 0,-1 0,0 -1,0 -1,-1 -1,0 -1,0 -1,0 -1,0 -1,-1 -1,-1 -1,0 -1,0 -1,-1 0,0 0,-1 0,-1 0,-1 0,-2 0,-2 1,-1 2,-1 3,-1l0 -2 1 0 0 2c1,0 1,0 2,1 0,1 1,1 1,2l-3 0c0,0 0,-1 0,-1 0,0 -1,0 -1,0 0,0 -1,0 -1,0 0,0 0,1 0,1 0,0 0,1 0,1 0,0 1,0 1,1 1,0 1,0 2,0 0,0 0,1 1,1 0,0 0,1 0,1 0,0 1,1 1,1 0,1 -1,2 -1,2 -1,1 -1,1 -2,1l0 2 -2 0 0 -2c-1,0 -1,0 -2,-1 0,-1 -1,-1 -1,-2l2 0c0,0 1,1 1,1 0,0 0,0 1,0 0,0 1,0 1,0 0,0 0,-1 0,-1z"/>
   </g>
  </g>
 </g>
</svg>
