<?xml version="1.0" encoding="UTF-8"?>
<!DOCTYPE svg PUBLIC "-//W3C//DTD SVG 1.1//EN" "http://www.w3.org/Graphics/SVG/1.1/DTD/svg11.dtd">
<!-- Creator: CorelDRAW X7 -->
<svg xmlns="http://www.w3.org/2000/svg" xml:space="preserve" width="36px" height="48px" version="1.1" style="shape-rendering:geometricPrecision; text-rendering:geometricPrecision; image-rendering:optimizeQuality; fill-rule:evenodd; clip-rule:evenodd"
viewBox="0 0 36 47"
 xmlns:xlink="http://www.w3.org/1999/xlink">
 <defs>
  <style type="text/css">
   <![CDATA[
    .fil0 {fill:#FEFEFE}
    .fil3 {fill:#51A8B1}
    .fil2 {fill:#2887D2}
    .fil5 {fill:#E32210}
    .fil6 {fill:#FFF212;fill-rule:nonzero}
    .fil4 {fill:#ED3237;fill-rule:nonzero}
    .fil1 {fill:#2887D2;fill-rule:nonzero}
   ]]>
  </style>
 </defs>
 <g id="Layer_x0020_1">
  <metadata id="CorelCorpID_0Corel-Layer"/>
  <g id="_306936088">
   <g>
    <g>
     <g>
      <g>
       <g>
        <path class="fil0" d="M1 6l-1 36c0,0 26,0 26,1 0,0 0,-29 0,-29l-4 -7 0 0c0,0 -21,-1 -21,-1z"/>
        <path id="1" class="fil1" d="M0 42l0 -36 1 0 0 36 -1 1 0 -1zm0 1l0 0 0 -1 0 1zm27 0l-1 0 0 0 0 0 0 0 0 0 -1 0 0 0 -1 0 -1 0 -1 0 -1 0 -1 0 -1 0 -1 0 -1 0 -1 0 -1 0 -2 0 -1 0 -1 0 -1 0 -1 0 -1 0 -2 0 -1 0 -1 0 0 0 -1 0 -1 0 0 0 -1 0 0 0 0 0 -1 0 0 -1 1 0 0 0 0 0 1 0 0 0 1 0 1 0 0 0 1 0 1 0 1 0 2 0 1 0 1 0 1 0 1 0 2 0 1 0 1 0 1 0 1 0 1 0 1 0 1 0 1 0 1 0 1 0 0 0 1 0 0 0 0 0 1 1 0 0zm-1 -29l1 -1 0 1 0 0 0 0 0 0 0 1 0 0 0 1 0 1 0 1 0 1 0 1 0 2 0 1 0 1 0 2 0 1 0 1 0 2 0 1 0 1 0 2 0 1 0 1 0 1 0 1 0 1 0 1 0 1 0 1 0 0 0 0 0 1 -1 0 1 0 -1 0 0 -1 0 0 0 0 0 -1 0 -1 0 -1 0 -1 0 -1 0 -1 0 -1 0 -1 0 -2 0 -1 0 -1 0 -2 0 -1 0 -1 0 -2 0 -1 0 -1 0 -2 0 -1 0 -1 0 -1 0 -1 0 -1 0 0 0 -1 0 0 0 0 0 0 0 0zm-4 -8l5 7 -1 1 -4 -7 0 -1 0 0zm0 0l0 0 0 0 0 0zm0 0l0 0 0 1 0 0 0 -1 0 0zm0 0l0 0 0 0 0 0zm-21 0l-1 0 0 0 1 0 0 0 0 0 0 0 1 0 1 0 0 0 1 0 1 0 1 0 0 0 1 0 1 0 1 0 1 0 1 0 1 0 1 0 1 0 1 0 1 0 1 0 1 0 1 0 0 0 1 0 0 0 1 0 0 0 1 0 0 0 0 0 0 1 0 0 0 0 -1 0 0 0 -1 0 0 0 -1 0 0 0 -1 0 -1 0 -1 0 -1 0 -1 0 -1 0 -1 0 -1 0 -1 0 -1 0 -1 0 -1 0 -1 0 0 0 -1 0 -1 0 -1 0 0 0 -1 0 0 0 -1 0 0 0 0 0 0 -1 0 0zm-1 0l0 0 0 0 0 0z"/>
       </g>
       <g>
        <path class="fil2" d="M22 7l0 5c0,0 -1,1 0,1 1,1 4,0 4,0l-4 -7 0 1z"/>
        <path id="1" class="fil1" d="M21 12l1 -5 0 0 0 5 0 0 -1 0zm1 0l0 0 0 0 0 0zm0 1l0 0 0 0 0 0 0 0 0 0 0 0 0 0 0 0 0 0 0 0 0 0 0 0 0 0 0 0 0 0 0 0 0 -1 0 0 -1 0 0 0 0 0 0 0 0 0 0 0 0 0 0 0 0 0 0 0 0 0 0 0 0 0 0 0 0 0 0 0 1 0 0 0 0 0 0 0 0 0 0 0 0 0 0 0 0 0 0 0 0 0 0 0 0 0 0 0 0 0 0 0 0 0 0 0 0 0 0 1 0 0 0 0 0 0 0 0 0 0 0 0 0 0 0 0 0 0 0 0 0 0 0 0 0 0 0 0zm4 1l1 -1 -1 1 0 0 0 0 0 0 0 0 0 0 0 0 0 0 0 0 0 0 0 0 0 0 -1 0 0 0 0 0 0 0 0 0 0 0 -1 0 0 0 0 0 0 0 0 0 -1 0 0 0 0 0 0 0 0 -1 0 0 0 0 -1 0 0 0 0 0 0 0 0 0 0 0 1 0 0 0 0 0 0 0 0 0 0 0 0 0 1 0 0 0 0 0 0 0 0 0 1 0 0 0 0 0 0 0 0 0 0 0 1 0 0 0 0 0 0 0 0 0 0 0 0 0 0 0 0 0 0 0 0 0 0 0 0 1zm-4 -8l5 7 -1 1 -4 -8 0 0 0 0zm0 0l0 0 0 0 0 0zm0 1l0 -1 0 0 0 1 0 0 0 0zm0 0l0 0 0 0 0 0z"/>
       </g>
      </g>
      <rect class="fil2" transform="matrix(-0.236888 -0.000850066 0.00107487 -0.299538 22.6886 24.5587)" width="79.1268" height="7.10154"/>
      <rect class="fil2" transform="matrix(-0.236888 -0.000850066 0.00107487 -0.299538 22.7028 20.6215)" width="79.1268" height="7.10154"/>
      <rect class="fil2" transform="matrix(-0.161901 -0.000580979 0.00107487 -0.299538 16.7842 16.4506)" width="79.1268" height="7.10154"/>
      <rect class="fil2" transform="matrix(-0.236888 -0.000850066 0.00107487 -0.299538 22.6736 28.7638)" width="79.1268" height="7.10154"/>
      <rect class="fil2" transform="matrix(-0.236888 -0.000850066 0.00107487 -0.299538 22.6585 32.9689)" width="79.1268" height="7.10154"/>
      <rect class="fil2" transform="matrix(-0.236888 -0.000850066 0.00107487 -0.299538 22.6436 37.1235)" width="79.1268" height="7.10154"/>
     </g>
     <g>
      <g>
       <path class="fil0" d="M4 8l0 36c0,0 25,0 25,0 0,1 0,-29 0,-29l-4 -6 0 -1c0,0 -21,0 -21,0z"/>
       <path id="1" class="fil1" d="M3 44l0 -36 1 0 0 36 0 1 -1 -1zm1 1l-1 0 0 -1 1 1zm26 -1l-1 0 0 0 0 1 0 0 0 0 -1 0 0 0 -1 0 -1 0 -1 0 -1 0 -1 0 -1 0 -1 0 -1 0 -1 0 -1 0 -2 0 -1 0 -1 0 -1 0 -1 0 -1 0 -1 0 -2 0 0 0 -1 0 -1 0 -1 0 0 0 -1 0 0 0 0 0 0 0 0 -1 0 0 0 0 0 0 1 0 0 0 1 0 1 0 1 0 0 0 1 -1 2 0 1 0 1 0 1 0 1 0 1 0 2 0 1 0 1 0 1 0 1 0 1 0 1 0 1 0 1 0 1 0 1 1 0 0 1 0 0 0 0 0 1 0 0 0zm-1 -28l1 -1 0 0 0 0 0 1 0 0 0 1 0 0 0 1 0 1 0 1 0 1 0 1 0 1 0 2 0 1 0 1 0 2 0 1 0 1 0 2 0 1 0 2 0 1 0 1 0 1 0 1 0 1 0 1 0 1 0 0 0 1 0 0 0 0 -1 0 1 0 -1 0 0 0 0 0 0 -1 0 0 0 -1 0 -1 0 -1 0 -1 0 -1 0 -1 0 -1 0 -2 0 -1 0 -2 0 -1 0 -1 0 -2 0 -1 0 -1 0 -2 0 -1 0 -1 0 -1 0 -1 0 -1 0 -1 0 0 0 -1 0 0 0 -1 0 0 0 1zm-3 -8l4 7 -1 1 -4 -7 0 -1 1 0zm-1 0l0 0 1 0 -1 0zm0 0l0 0 0 1 0 0 0 -1 0 0zm0 0l0 0 0 0 0 0zm-21 0l-1 0 0 0 1 0 0 0 0 0 1 0 0 0 1 0 0 0 1 0 1 0 1 0 0 0 1 0 1 0 1 0 1 0 1 0 1 0 1 0 1 0 1 0 1 0 1 0 1 0 1 0 0 0 1 0 0 0 1 0 0 0 1 0 0 0 0 0 0 1 0 0 0 0 -1 0 0 0 -1 0 0 0 -1 0 0 0 -1 0 -1 0 -1 0 -1 0 -1 0 -1 0 -1 0 -1 0 -1 0 -1 0 -1 0 -1 0 -1 0 0 0 -1 0 -1 0 -1 0 0 0 -1 0 0 0 -1 0 0 0 0 0 0 -1 0 0zm0 0l0 0 0 0 0 0z"/>
      </g>
      <g>
       <path class="fil2" d="M25 9l0 4c0,0 0,2 0,2 1,0 5,0 5,0l-5 -7 0 1z"/>
       <path id="1" class="fil1" d="M25 13l0 -4 0 0 0 4 0 0 0 0zm0 0l0 0 0 0 0 0zm0 2l0 0 0 0 0 0 0 0 0 0 0 0 0 0 0 0 0 0 0 0 0 0 0 0 0 0 0 -1 0 0 0 0 0 0 0 0 0 0 0 0 0 0 0 0 0 0 0 0 0 0 0 0 0 0 0 -1 0 0 0 0 0 0 0 0 0 0 0 0 0 0 0 0 0 0 0 0 0 0 0 0 0 0 0 1 0 0 0 0 0 0 0 0 0 0 0 0 0 0 0 0 0 0 0 0 0 0 0 0 0 0 0 0 0 1 0 0 0 0 0 0 0 0 0 0 0 0 0 0 0 0 0 0 0 0 0 0zm4 0l1 0 0 0 0 0 -1 0 0 0 0 0 0 0 0 0 0 0 0 0 0 0 0 0 0 0 -1 0 0 0 0 0 0 0 0 0 0 0 -1 0 0 0 0 0 0 0 0 0 0 0 -1 0 0 0 0 0 0 0 0 0 0 0 0 0 -1 0 0 0 0 0 0 0 1 0 0 0 0 0 0 0 0 0 0 0 0 0 1 0 0 0 0 0 0 0 0 0 0 0 1 0 0 0 0 0 0 0 0 0 0 0 1 0 0 0 0 0 0 0 0 0 0 0 0 0 0 0 0 0 0 0 1 0 0 0 -1 0zm-4 -7l5 7 -1 0 -4 -7 0 0 0 0zm0 0l0 0 0 0 0 0zm0 1l0 -1 0 0 0 1 0 0 0 0zm0 0l0 0 0 0 0 0z"/>
      </g>
     </g>
    </g>
    <g>
     <rect class="fil3" x="8" y="20" width="17.9034" height="2.38031"/>
     <rect class="fil3" x="8" y="24" width="8.36852" height="2.38031"/>
     <rect class="fil3" x="18" y="24" width="7.97739" height="2.38031"/>
     <rect class="fil3" x="8" y="29" width="8.36852" height="2.38031"/>
     <rect class="fil3" x="18" y="29" width="7.97739" height="2.38031"/>
     <rect class="fil3" x="8" y="33" width="8.36852" height="2.38031"/>
     <rect class="fil3" x="18" y="33" width="7.97739" height="2.38031"/>
     <rect class="fil3" x="8" y="38" width="8.36852" height="2.38031"/>
     <rect class="fil3" x="18" y="38" width="7.97739" height="2.38031"/>
    </g>
   </g>
   <path class="fil4" d="M12 18l0 -12 -4 0 7 -6 7 6 -4 0 0 12 -6 0zm0 -6m-2 -6m2 -3m6 0m2 3m-2 6m-3 6"/>
   <g>
    <circle class="fil5" cx="28" cy="39" r="8"/>
    <path class="fil6" d="M29 41c0,0 0,0 0,0 0,-1 -1,-1 -1,-1 0,0 -1,0 -1,-1 -1,0 -1,0 -1,0 0,0 -1,-1 -1,-1 0,0 0,-1 0,-1 0,-1 0,-1 1,-2 0,0 1,0 2,-1l0 -1 1 0 0 1c0,1 1,1 1,1 1,1 1,2 1,2l-2 0c0,0 0,0 0,-1 0,0 -1,0 -1,0 0,0 -1,0 -1,0 0,0 0,1 0,1 0,0 0,1 0,1 0,0 1,0 1,0 1,1 1,1 2,1 0,0 0,0 0,1 1,0 1,0 1,0 0,1 0,1 0,1 0,1 0,2 -1,2 0,1 -1,1 -1,1l0 1 -1 0 0 -1c-1,0 -2,0 -2,-1 -1,-1 -1,-1 -1,-2l2 0c0,0 0,1 0,1 0,0 1,0 1,0 0,0 1,0 1,0 0,0 0,0 0,-1z"/>
   </g>
  </g>
 </g>
</svg>
