<?xml version="1.0" encoding="UTF-8"?>
<!DOCTYPE svg PUBLIC "-//W3C//DTD SVG 1.1//EN" "http://www.w3.org/Graphics/SVG/1.1/DTD/svg11.dtd">
<!-- Creator: CorelDRAW X7 -->
<svg xmlns="http://www.w3.org/2000/svg" xml:space="preserve" width="50px" height="50px" version="1.1" style="shape-rendering:geometricPrecision; text-rendering:geometricPrecision; image-rendering:optimizeQuality; fill-rule:evenodd; clip-rule:evenodd"
viewBox="0 0 50 50"
 xmlns:xlink="http://www.w3.org/1999/xlink">
 <defs>
  <style type="text/css">
   <![CDATA[
    .fil0 {fill:none}
    .fil1 {fill:#FEFEFE;fill-rule:nonzero}
    .fil3 {fill:#FFCC29;fill-rule:nonzero}
    .fil2 {fill:#ED3237;fill-rule:nonzero}
    .fil8 {fill:#00A859;fill-rule:nonzero}
    .fil4 {fill:#ABABB0;fill-rule:nonzero}
    .fil6 {fill:#F0A71F;fill-rule:nonzero}
    .fil5 {fill:#FC4D44;fill-rule:nonzero}
    .fil7 {fill:#F4F4F4;fill-rule:nonzero}
   ]]>
  </style>
 </defs>
 <g id="Layer_x0020_1">
  <metadata id="CorelCorpID_0Corel-Layer"/>
  <rect class="fil0" width="50" height="50"/>
  <g id="_809307432">
   <g>
    <path class="fil1" d="M44 3c0,-1 -1,-2 -2,-2l-25 0 0 0 -11 0 0 10 0 0 0 3 0 33c0,1 1,2 2,2l9 0 25 0c1,0 2,-1 2,-2l0 -24 0 -20z"/>
    <path id="1" class="fil2" d="M42 2l0 -2 0 0 1 0 0 0 0 0 0 0 0 0 0 0 0 0 0 0 1 0 0 0 0 0 0 1 0 0 0 0 0 0 0 0 0 0 0 0 0 0 1 0 0 0 0 0 0 1 0 0 0 0 0 0 0 0 0 0 0 0 0 0 0 1 0 0 -2 0 0 0 0 0 0 0 0 0 0 -1 0 0 0 0 0 0 0 0 0 0 0 0 0 0 0 0 0 0 0 0 0 0 0 0 0 0 0 0 0 0 0 0 0 0 0 0 0 0 0 0 0 0 0 0 0 0 -1 0 0 0 0 0 0 0 0 0zm0 -2l0 0 0 0 0 0zm-25 0l25 0 0 2 -25 0 0 0 0 -2zm0 1l0 0 0 0 0 0 0 1 0 -1zm-11 -1l11 0 0 2 -11 0 -1 -1 1 -1zm-1 1l0 -1 1 0 -1 1zm0 10l0 -10 2 0 0 10 0 0 -2 0zm1 0l0 0 0 0 0 0 1 0 -1 0zm-1 3l0 -3 2 0 0 3 0 0 -2 0zm0 33l0 -33 2 0 0 33 -2 0 0 0zm0 0l0 0 0 0 0 0zm3 1l0 2 0 0 -1 0 0 0 0 0 0 0 0 0 0 0 0 0 0 0 -1 0 0 0 0 0 0 -1 0 0 0 0 0 0 0 0 0 0 0 0 0 0 -1 0 0 0 0 0 0 -1 0 0 0 0 0 0 0 0 0 0 0 0 0 0 0 -1 0 0 2 0 0 0 0 0 0 0 0 0 0 1 0 0 0 0 0 0 0 0 0 0 0 0 0 0 0 0 0 0 0 0 0 0 0 0 0 0 0 0 0 0 0 0 0 0 0 0 0 0 0 0 0 0 0 0 0 0 1 0 0 0 0 0 0 0 0 0zm0 2l0 0 0 0 0 0zm9 0l-9 0 0 -2 9 0 0 0 0 2zm25 0l-25 0 0 -2 25 0 0 0 0 2zm1 -3l2 0 0 0 0 0 0 1 0 0 0 0 0 0 0 0 0 0 0 0 0 0 0 1 0 0 0 0 -1 0 0 0 0 0 0 0 0 0 0 0 0 0 0 0 0 1 0 0 0 0 -1 0 0 0 0 0 0 0 0 0 0 0 0 0 0 0 -1 0 0 -2 0 0 0 0 0 0 1 0 0 0 0 0 0 0 0 0 0 0 0 0 0 0 0 0 0 0 0 0 0 0 0 0 0 0 0 0 0 0 0 0 0 0 0 0 0 0 0 0 0 0 0 0 0 0 0 -1 0 0 0 0 0 0 0 0 0 0zm2 -24l0 24 -2 0 0 -24 0 0 2 0zm0 -20l0 20 -2 0 0 -20 2 0 0 0zm0 0l0 0 0 0 0 0z"/>
   </g>
   <g id="_809308320">
    <polygon class="fil3" points="10,40 11,32 16,34 18,39 "/>
    <polygon class="fil4" points="28,15 31,12 38,19 35,22 "/>
    <path class="fil5" d="M35 10c0,0 -1,0 -1,0 -1,0 -2,0 -2,1l-1 1 7 7 1 -1c1,-1 2,-4 1,-6 -1,-1 -3,-3 -5,-2z"/>
    <path class="fil6" d="M28 15l-17 17 5 3 10 -11 -10 11 1 2 1 2 17 -17 0 0 -1 -2 -6 -5zm0 7l2 -2 -2 2z"/>
    <path class="fil7" d="M18 33c-1,0 -1,0 -1,0 0,-1 0,-1 0,-1l9 -9c0,0 1,-1 1,0 0,0 0,0 0,0 1,0 0,1 0,1l-9 9c0,0 0,0 0,0z"/>
    <path class="fil7" d="M29 22c0,0 -1,0 -1,-1 0,0 0,0 0,-1l2 -1c0,0 0,0 1,0 0,1 0,1 0,1l-1 2c-1,0 -1,0 -1,0z"/>
   </g>
   <path class="fil2" d="M22 40l19 0c0,0 1,1 1,2 0,0 -1,1 -1,1l-19 0c-1,0 -1,-1 -1,-1 0,-1 0,-2 1,-2z"/>
   <path class="fil2" d="M28 34l13 0c0,0 1,1 1,1 0,1 -1,2 -1,2l-13 0c-1,0 -1,-1 -1,-2 0,0 0,-1 1,-1z"/>
   <path class="fil2" d="M34 28l7 0c0,0 1,0 1,1 0,1 -1,1 -1,1l-7 0c0,0 -1,0 -1,-1 0,-1 1,-1 1,-1z"/>
   <path class="fil8" d="M17 16c0,-1 0,-1 0,-1 -1,-1 -1,-1 -2,-1 0,0 -1,-1 -2,-1 0,0 0,0 -1,-1 0,0 0,-1 -1,-1 0,0 0,-1 0,-2 0,-1 0,-2 1,-2 1,-1 2,-1 3,-1l0 -2 1 0 0 2c1,0 2,0 3,1 1,1 1,2 1,3l-3 0c0,-1 0,-1 0,-2 -1,0 -1,0 -2,0 0,0 0,0 -1,0 0,1 0,1 0,1 0,1 0,1 0,2 1,0 1,0 2,0 1,1 1,1 2,1 0,1 1,1 1,1 0,1 0,1 1,1 0,1 0,1 0,2 0,1 0,2 -1,3 -1,0 -2,1 -3,1l0 2 -1 0 0 -2c-2,0 -3,-1 -3,-2 -1,0 -1,-1 -1,-3l2 0c0,1 0,2 1,2 0,0 1,1 1,1 1,0 1,-1 2,-1 0,0 0,-1 0,-1z"/>
  </g>
 </g>
</svg>
