<?xml version="1.0" encoding="UTF-8"?>
<!DOCTYPE svg PUBLIC "-//W3C//DTD SVG 1.1//EN" "http://www.w3.org/Graphics/SVG/1.1/DTD/svg11.dtd">
<!-- Creator: CorelDRAW X7 -->
<svg xmlns="http://www.w3.org/2000/svg" xml:space="preserve" width="48px" height="49px" version="1.1" style="shape-rendering:geometricPrecision; text-rendering:geometricPrecision; image-rendering:optimizeQuality; fill-rule:evenodd; clip-rule:evenodd"
viewBox="0 0 47 48"
 xmlns:xlink="http://www.w3.org/1999/xlink">
 <defs>
  <style type="text/css">
   <![CDATA[
    .fil7 {fill:#FFCC29}
    .fil5 {fill:#51A8B1}
    .fil2 {fill:#2887D2}
    .fil3 {fill:#E32210}
    .fil10 {fill:#FEFEFE;fill-rule:nonzero}
    .fil4 {fill:#FFF212;fill-rule:nonzero}
    .fil6 {fill:#ED3237;fill-rule:nonzero}
    .fil1 {fill:#2887D2;fill-rule:nonzero}
    .fil9 {fill:#4E901E;fill-rule:nonzero}
    .fil8 {fill:#7ED63E;fill-rule:nonzero}
    .fil0 {fill:url(#id0)}
   ]]>
  </style>
  <linearGradient id="id0" gradientUnits="userSpaceOnUse" x1="1.80862" y1="38.3751" x2="26.6121" y2="15.9328">
   <stop offset="0" style="stop-opacity:1; stop-color:#DBEFFF"/>
   <stop offset="1" style="stop-opacity:1; stop-color:white"/>
  </linearGradient>
 </defs>
 <g id="Layer_x0020_1">
  <metadata id="CorelCorpID_0Corel-Layer"/>
  <g id="_788089200">
   <g>
    <path class="fil0" d="M1 9l0 -2c0,0 1,1 1,1 1,0 2,0 3,0 1,-1 1,-1 1,-1 0,0 1,1 2,1 1,0 3,-1 3,-1 0,0 0,0 0,0 0,0 1,1 3,1 2,0 3,-1 3,-1 0,0 1,1 2,1 2,0 3,-1 3,-1 0,0 0,1 2,1 2,0 3,-1 3,-1l0 30 0 8c0,0 0,2 1,2 0,0 -2,0 -2,0 0,0 -9,1 -11,1 -2,-1 -10,-1 -12,-3 -3,-2 -2,-7 -2,-7l0 -29z"/>
    <g>
     <g>
      <path class="fil1" d="M4 9l0 -2 0 0 0 0 0 0 0 0 0 0 0 0 0 0 0 0 0 0 0 0 1 0 0 0 0 0 0 0 0 0 0 0 0 0 0 0 0 0 0 0 0 0 0 -1 0 0 0 0 0 0 0 0 0 0 0 0 0 0 0 0 0 0 0 0 0 0 2 1 0 0 0 0 0 0 0 0 0 0 0 0 0 0 0 0 -1 0 0 0 0 0 0 1 0 0 0 0 0 0 0 0 0 0 0 0 0 0 0 0 -1 0 0 0 0 0 0 1 0 0 0 0 0 0 -1 0 0 0 0 0 0 0 0 0 0 0zm-2 -2l-2 0 1 -1 0 0 0 0 1 0 0 0 0 0 0 0 0 0 0 0 0 1 0 0 0 0 0 0 0 0 0 0 0 0 0 0 0 0 0 0 0 0 0 0 0 0 1 0 0 0 0 0 0 0 0 0 0 0 0 0 0 0 0 0 0 0 1 0 0 2 -1 0 0 0 0 0 0 0 0 0 0 0 -1 0 0 0 0 0 0 0 0 -1 0 0 0 0 -1 0 0 0 0 0 0 0 0 0 0 0 0 0 0 0 0 0 0 0 0 0 -1 -1 0 0 0 0 0 0 0 0 0 0 0 0 0 0 2 0zm0 35l-2 0 0 0 0 0 0 -1 0 0 0 -1 0 -1 0 -1 0 -1 0 -2 0 -1 0 -1 0 -2 0 -1 0 -2 0 -1 0 -2 0 -2 0 -1 0 -2 0 -1 0 -2 0 -1 0 -2 0 -1 0 -1 0 -1 0 -1 0 -1 0 -1 0 0 0 -1 0 0 0 0 2 0 0 0 0 0 0 1 0 0 0 1 0 1 0 1 0 1 0 1 0 1 0 2 0 1 0 2 0 1 0 2 0 1 0 2 0 2 0 1 0 2 0 1 0 2 0 1 0 1 0 2 0 1 0 1 0 1 0 1 0 0 0 1 0 0 0 0zm24 4l0 2 0 0 0 0 -1 0 -1 0 -1 0 -1 0 -1 0 -1 0 -1 0 -1 0 -1 0 -1 0 -1 0 -1 0 -1 0 -1 0 -1 0 -1 0 -1 0 -1 0 -1 -1 -1 0 -1 0 -1 0 -1 -1 0 0 -1 0 0 -1 -1 0 0 -1 -1 0 0 -1 0 -1 2 0 0 1 0 0 0 0 0 1 1 0 0 0 1 1 0 0 1 0 0 1 1 0 1 0 1 0 1 0 1 0 1 1 1 0 1 0 1 0 1 0 1 0 1 0 1 0 1 0 1 0 1 0 1 0 1 0 1 -1 1 0 0 0 1 0 0 0zm3 0l0 1 0 0 0 0 0 0 0 0 0 0 0 0 0 0 0 0 0 0 0 0 0 0 0 0 0 0 -1 0 0 0 0 0 0 0 0 1 0 0 0 0 0 0 0 0 0 0 -1 0 0 0 0 0 0 0 0 0 0 0 0 0 0 0 0 0 -1 0 0 -2 0 0 0 0 1 0 0 0 0 0 0 0 0 0 0 0 0 0 0 0 0 0 1 0 0 0 0 0 0 0 0 0 0 0 0 0 0 0 0 0 0 0 0 0 1 0 0 0 0 0 0 0 0 0 0 0 0 0 0 0 0 0 0 0 0 0zm-3 -2l2 0 0 0 0 0 0 1 0 0 0 0 0 0 0 0 0 0 0 0 0 0 0 0 0 0 0 0 0 1 0 0 0 0 0 0 1 0 0 0 0 0 0 0 0 0 0 0 0 0 0 0 0 0 0 0 0 0 0 0 0 0 1 1 0 0 -1 0 0 -1 0 0 0 0 0 1 0 0 0 0 0 0 0 0 0 0 0 0 0 0 0 0 0 0 -1 0 0 0 0 0 0 0 0 0 0 0 -1 0 0 0 0 0 0 0 0 -1 0 0 0 0 -1 0 0 0 0 -1 0 0 0 0 0 0 0 -1 0 0zm2 -11l0 11 -2 0 0 -11 2 0zm0 -26l0 26 -2 0 0 -26 2 0zm-4 0l1 2 0 0 -1 0 0 0 0 0 0 0 0 0 -1 0 0 0 0 0 0 0 0 0 0 -1 0 0 -1 0 0 0 0 0 0 0 0 0 0 0 0 0 0 0 0 0 0 0 -1 0 0 0 0 -1 0 0 0 0 0 0 0 0 0 0 0 0 0 0 1 -1 0 0 0 0 0 0 0 0 0 0 0 0 0 0 1 0 0 1 0 0 0 0 0 0 0 0 0 0 0 0 0 0 0 0 0 0 0 0 0 0 0 0 0 0 1 0 0 0 0 0 0 0 0 0 0 0 0 0 0 0 0 0 0 0 0 0zm2 -1l2 1 0 0 0 0 0 0 0 0 0 0 0 0 -1 0 0 0 0 0 0 0 0 0 0 1 0 0 0 0 0 0 0 0 0 0 0 0 0 0 -1 0 0 0 0 0 0 0 0 1 0 0 0 0 -1 0 0 0 0 0 0 0 0 0 0 0 -1 -2 1 0 0 0 0 0 0 0 0 0 0 0 0 0 0 0 0 0 0 0 0 0 1 0 0 0 0 0 0 0 0 0 0 0 0 0 0 0 0 0 0 -1 0 0 0 0 0 0 0 0 0 0 0 0 0 0 0 0 0 0 0 0 0 0zm-7 3l0 -2 0 0 0 0 0 0 0 0 1 0 0 0 0 0 0 0 0 0 0 0 0 0 0 0 0 0 0 0 0 0 1 0 0 0 0 0 0 0 0 0 0 0 0 0 0 0 0 0 0 -1 0 0 0 0 0 0 0 0 0 0 0 0 0 0 0 0 1 1 0 0 0 0 0 0 0 0 0 0 0 0 0 0 0 1 0 0 0 0 0 0 0 0 0 0 0 0 0 0 -1 0 0 0 0 0 0 0 0 0 0 0 0 1 0 0 -1 0 0 0 0 0 0 0 0 0 0 0 -1 0 0 0 0 0 0 0zm-3 -2l1 -1 0 0 0 0 0 0 0 0 0 0 0 0 0 0 0 0 0 0 0 0 0 0 0 1 1 0 0 0 0 0 0 0 0 0 0 0 0 0 0 0 0 0 0 0 0 0 0 0 0 0 1 0 0 0 0 0 0 0 0 0 0 0 0 0 0 2 0 0 0 0 -1 0 0 0 0 0 0 0 0 0 0 0 0 -1 -1 0 0 0 0 0 0 0 0 0 0 0 0 0 0 0 0 0 -1 0 0 0 0 -1 0 0 0 0 0 0 0 0 0 0 0 0 0 0 0 0 0 0 0 0 0 0zm-2 0l0 2 0 0 0 0 0 0 0 0 -1 0 0 0 0 0 0 0 0 0 0 0 -1 0 0 -1 0 0 0 0 0 0 0 0 0 0 0 0 -1 0 0 0 0 0 0 0 0 0 0 0 0 0 0 -1 0 0 0 0 0 0 0 0 0 0 0 0 0 0 1 -1 0 0 0 0 0 0 0 0 0 0 0 0 0 0 0 0 0 1 0 0 0 0 0 0 0 0 0 0 0 0 1 0 0 0 0 0 0 0 0 0 0 0 0 0 0 0 0 0 0 0 0 0 0 0 1 0 0 0 0 0 0 0 0 0 0 0zm2 -1l1 1 0 0 0 0 0 0 0 0 0 0 0 0 0 0 0 0 0 0 0 0 0 0 0 1 0 0 0 0 0 0 -1 0 0 0 0 0 0 0 0 0 0 0 0 0 0 0 -1 1 0 0 0 0 0 0 0 0 0 0 -1 0 0 0 0 0 0 -2 0 0 0 0 0 0 0 0 1 0 0 0 0 0 0 0 0 0 0 0 0 0 0 0 0 0 0 0 0 0 0 0 0 0 1 0 0 0 0 0 0 -1 0 0 0 0 0 0 0 0 0 0 0 0 0 0 0 0 0 0 0 0 0 0zm-7 3l0 -2 0 0 0 0 0 0 0 0 0 0 0 0 0 0 0 0 0 0 1 0 0 0 0 0 0 0 0 0 0 0 0 0 0 0 0 0 0 0 0 0 0 0 0 0 0 0 1 0 0 -1 0 0 0 0 0 0 0 0 0 0 0 0 0 0 0 0 1 1 0 0 0 0 0 0 0 0 0 0 0 0 0 0 0 1 0 0 0 0 -1 0 0 0 0 0 0 0 0 0 0 0 0 0 0 0 0 0 0 0 -1 0 0 1 0 0 0 0 0 0 0 0 0 0 -1 0 0 0 0 0 0 0 0 0 0 0zm-4 -2l2 -1 0 0 0 0 0 0 0 0 0 0 0 0 0 0 0 0 0 0 0 0 0 0 0 1 0 0 0 0 0 0 0 0 0 0 0 0 0 0 1 0 0 0 0 0 0 0 0 0 0 0 0 0 0 0 0 0 0 0 0 0 1 0 0 0 0 2 -1 0 0 0 0 0 0 0 0 0 0 0 -1 0 0 0 0 -1 0 0 0 0 0 0 0 0 -1 0 0 0 0 0 0 0 0 0 0 0 0 0 0 -1 0 0 0 0 0 0 0 0 0 0 0 0 0 0 -1 0 0 0 0 0 0 0z"/>
     </g>
     <g>
      <path class="fil2" d="M34 43c1,-3 1,-11 1,-11 0,0 -1,1 -3,1 -1,0 -1,-1 -1,-1 0,0 -1,1 -2,1 -1,0 -2,-1 -2,-1l0 0 0 12c0,0 0,3 2,3 2,0 4,-1 5,-4z"/>
      <path id="1" class="fil1" d="M35 32l0 0 0 0 0 0 0 0 0 0 0 0 0 1 0 0 0 0 0 0 0 1 0 0 0 0 0 1 0 0 0 1 0 0 0 1 0 0 0 1 0 0 0 1 0 0 0 0 0 1 0 0 0 1 0 0 0 1 0 0 0 0 -1 1 0 0 0 0 0 0 0 0 0 0 0 -1 0 0 0 0 0 -1 0 0 0 -1 0 0 0 -1 0 0 0 -1 1 0 0 0 0 -1 0 0 0 -1 0 0 0 -1 0 0 0 -1 0 0 0 0 0 -1 0 0 0 0 0 0 0 -1 0 0 0 0 0 0 0 0 0 0zm-3 1l0 0 0 0 1 0 0 0 0 0 0 0 0 0 0 0 0 0 0 0 0 0 0 0 1 0 0 -1 0 0 0 0 0 0 0 0 0 0 0 0 0 0 0 0 0 0 0 0 0 0 0 0 0 0 1 0 0 0 0 0 0 0 0 0 0 0 0 0 0 0 0 0 0 0 0 0 0 0 0 0 0 0 0 0 0 0 0 0 0 1 0 0 -1 0 0 0 0 0 0 0 0 0 0 0 0 0 0 0 0 0 0 0 0 0 -1 0 0 0 0 0 0 0 0 0 0 0 0 0 0 0 0 0 -1 0 0 0zm-1 -1l0 0 0 0 0 0 0 0 0 0 0 0 0 0 0 0 0 0 0 0 0 0 0 0 0 0 0 0 0 0 0 0 0 0 0 0 0 0 0 0 0 0 1 0 0 1 0 0 0 0 0 0 0 0 0 0 0 0 0 0 0 0 0 0 0 0 0 0 0 0 0 0 0 0 0 0 0 0 0 0 0 0 0 0 0 0 -1 0 0 0 0 0 0 0 0 0 0 0 0 0 0 0 0 0 0 0 0 0 0 0 0 0 0 0 0 0 0 -1 0 0 0 0 0 0 0 0 0 0 0 0 0 0 0 0 0 0zm-2 1l0 0 0 0 0 0 1 0 0 0 0 0 0 0 0 0 0 0 0 0 0 0 0 0 0 0 0 0 0 0 0 0 0 0 0 0 1 0 0 -1 0 0 0 0 0 0 0 0 0 0 0 0 0 0 0 0 0 0 0 0 0 0 0 0 0 0 0 0 0 0 0 0 0 0 0 0 0 0 0 0 0 1 0 0 0 0 0 0 0 0 0 0 0 0 0 0 0 0 0 0 0 0 0 0 0 0 0 0 0 0 -1 0 0 0 0 0 0 0 0 0 0 0 0 0 0 0 0 0 0 0 0 0 -1 0 0 0zm-1 -1l-1 0 1 0 0 0 0 0 0 0 0 0 0 0 0 0 0 0 0 0 0 0 0 0 0 0 0 0 0 0 0 0 0 0 0 1 0 0 0 0 0 0 0 0 0 0 1 0 0 0 0 0 0 0 0 0 0 0 0 0 0 0 0 0 0 0 0 0 0 0 0 0 0 0 0 0 0 0 0 0 0 0 0 0 0 0 -1 0 0 0 0 0 0 0 0 0 0 0 0 0 0 0 0 0 0 0 0 0 0 0 0 0 0 0 -1 0 0 0 0 0 0 0 0 -1 0 0 0 0 0 0 0 0 0 0 1 0zm-1 0l0 0 1 0 -1 1 0 -1 0 0zm0 0l0 0 0 0 0 0zm0 12l0 -12 0 0 0 12 0 0 0 0zm0 0l0 0 0 0 0 0zm2 2l0 1 0 0 -1 0 0 0 0 0 0 0 0 0 0 0 0 0 0 -1 -1 0 0 0 0 0 0 0 0 0 0 0 0 0 0 0 0 -1 0 0 0 0 0 0 0 0 0 0 0 0 0 0 0 0 0 0 0 -1 0 0 0 0 0 0 0 0 0 0 0 0 0 0 0 0 0 0 0 0 0 0 0 0 0 1 0 0 0 0 0 0 0 0 0 0 0 0 0 0 0 0 0 0 0 0 1 1 0 0 0 0 0 0 0 0 0 0 0 0 0 0 0 0 0 0 0 0 0 0 0 0 1 0 0 0 0 0zm5 -3l0 0 0 0 0 1 0 0 0 0 0 0 0 0 0 1 0 0 -1 0 0 0 0 0 0 0 0 1 0 0 -1 0 0 0 0 0 0 0 0 0 -1 0 0 0 0 1 0 0 0 0 -1 0 0 0 0 0 0 0 0 0 -1 0 0 0 0 0 0 0 0 -1 0 0 0 0 0 0 1 0 0 0 0 0 0 0 0 0 1 0 0 0 0 0 0 0 0 0 0 0 1 0 0 0 0 0 0 -1 0 0 0 0 1 0 0 0 0 0 0 0 0 0 0 -1 0 0 0 0 1 0 0 0 0 0 0 -1 0 0z"/>
     </g>
    </g>
    <g id="_788062080">
     <circle class="fil3" cx="14" cy="18" r="7"/>
     <path class="fil4" d="M15 20c0,-1 0,-1 0,-1 0,0 -1,0 -1,-1 -1,0 -1,0 -1,0 -1,0 -1,0 -1,-1 0,0 -1,0 -1,0 0,-1 0,-1 0,-1 0,-1 0,-2 1,-2 0,0 1,-1 2,-1l0 -1 0 0 0 1c1,0 2,1 2,1 0,1 1,1 1,2l-2 0c0,0 0,-1 0,-1 -1,0 -1,0 -1,0 0,0 -1,0 -1,0 0,0 0,0 0,1 0,0 0,0 0,0 0,1 1,1 1,1 1,0 1,0 1,0 1,1 1,1 1,1 0,0 0,0 0,1 1,0 1,0 1,1 0,0 -1,1 -1,1 0,1 -1,1 -2,1l0 1 -1 0 0 -1c0,0 -1,0 -1,-1 -1,0 -1,-1 -1,-2l2 0c0,1 0,1 0,1 0,1 0,1 1,1 0,0 0,0 1,-1 0,0 0,0 0,0z"/>
    </g>
    <g id="_788060736">
     <rect class="fil5" x="4" y="26" width="19.9062" height="1.80442"/>
     <rect class="fil5" x="4" y="30" width="19.9062" height="1.80442"/>
     <rect class="fil5" x="4" y="34" width="19.9062" height="1.80442"/>
    </g>
    <rect class="fil5" x="4" y="39" width="19.9062" height="1.80442"/>
   </g>
   <path class="fil6" d="M36 17l0 -13 2 0 -4 -4 -4 4 2 0 0 13 4 0zm0 -7m1 -6m-1 -2m-4 0m-1 2m1 6m2 7"/>
   <path class="fil1" d="M40 1l0 14 -2 0 4 3 4 -3 -2 0 0 -14 -4 0zm0 7m-1 7m1 2m4 0m1 -2m-1 -7m-2 -7"/>
   <g>
    <g id="_788091264">
     <rect class="fil7" x="37" y="23" width="10.0342" height="2.14072"/>
     <rect class="fil7" x="37" y="21" width="10.0342" height="2.14072"/>
     <rect class="fil7" x="36" y="26" width="10.0342" height="2.14072"/>
     <rect class="fil7" x="37" y="28" width="10.0342" height="2.14072"/>
     <rect class="fil7" x="37" y="31" width="10.0342" height="2.14072"/>
    </g>
    <g id="_788091696">
     <rect class="fil7" x="25" y="28" width="10.0342" height="2.14072"/>
     <rect class="fil7" x="25" y="31" width="10.0342" height="2.14072"/>
    </g>
   </g>
   <g>
    <g id="_788089872">
     <polygon class="fil8" points="23,45 47,45 47,32 23,32 "/>
     <path class="fil9" d="M45 36l0 5c-1,0 -2,1 -2,3l-16 0c0,-2 -1,-3 -3,-3l0 -5c2,0 3,-1 3,-2l16 0c0,1 1,2 2,2z"/>
     <path class="fil10" d="M37 39c0,1 -1,2 -2,2 -1,0 -2,-1 -2,-2 0,-2 1,-3 2,-3 1,0 2,1 2,3z"/>
     <path class="fil8" d="M23 37l0 8 8 0c-2,0 -4,-1 -6,-2 -1,-2 -2,-4 -2,-6z"/>
     <polygon class="fil10" points="40,39 42,39 42,38 40,38 "/>
     <polygon class="fil10" points="28,39 30,39 30,38 28,38 "/>
    </g>
    <g id="_788088792">
     <polygon class="fil8" points="20,48 43,48 43,35 20,35 "/>
     <path class="fil9" d="M42 39l0 5c-1,0 -2,1 -2,2l-17 0c0,-1 -1,-2 -2,-2l0 -5c1,0 2,-1 2,-3l17 0c0,2 1,3 2,3z"/>
     <path class="fil10" d="M33 41c0,1 -1,2 -2,2 -1,0 -2,-1 -2,-2 0,-1 1,-2 2,-2 1,0 2,1 2,2z"/>
     <path class="fil8" d="M20 40l0 8 8 0c-3,0 -5,-1 -6,-3 -2,-1 -2,-3 -2,-5z"/>
     <polygon class="fil10" points="36,42 38,42 38,41 36,41 "/>
     <polygon class="fil10" points="24,42 26,42 26,41 24,41 "/>
    </g>
   </g>
  </g>
 </g>
</svg>
