<?xml version="1.0" encoding="UTF-8"?>
<!DOCTYPE svg PUBLIC "-//W3C//DTD SVG 1.1//EN" "http://www.w3.org/Graphics/SVG/1.1/DTD/svg11.dtd">
<!-- Creator: CorelDRAW X7 -->
<svg xmlns="http://www.w3.org/2000/svg" xml:space="preserve" width="49px" height="40px" version="1.1" style="shape-rendering:geometricPrecision; text-rendering:geometricPrecision; image-rendering:optimizeQuality; fill-rule:evenodd; clip-rule:evenodd"
viewBox="0 0 49 40"
 xmlns:xlink="http://www.w3.org/1999/xlink">
 <defs>
  <style type="text/css">
   <![CDATA[
    .fil4 {fill:#FEFEFE}
    .fil0 {fill:#FEFEFE}
    .fil5 {fill:#51A8B1}
    .fil2 {fill:#2887D2}
    .fil6 {fill:#E32210}
    .fil3 {fill:white}
    .fil7 {fill:#FFF212;fill-rule:nonzero}
    .fil1 {fill:#2887D2;fill-rule:nonzero}
   ]]>
  </style>
 </defs>
 <g id="Layer_x0020_1">
  <metadata id="CorelCorpID_0Corel-Layer"/>
  <g id="_544807952">
   <g>
    <g>
     <g>
      <polygon class="fil0" points="0,7 49,7 49,39 0,39 "/>
      <path id="1" class="fil1" d="M49 7l-49 0 0 -1 49 0 0 1 0 0zm0 -1l0 0 0 1 0 -1zm-1 33l0 -32 1 0 0 32 0 1 -1 -1zm1 0l0 1 0 0 0 -1zm-49 0l49 0 0 1 -49 0 0 -1 0 0zm0 1l0 0 0 -1 0 1zm1 -33l0 32 -1 0 0 -32 0 -1 1 1zm-1 0l0 -1 0 0 0 1z"/>
     </g>
     <path class="fil2" d="M48 6c0,0 1,0 1,0l0 -5c0,0 -1,-1 -2,-1l-45 0c-1,0 -2,1 -2,1l0 5c0,0 1,0 1,0l47 0z"/>
     <circle class="fil3" cx="5" cy="3" r="1"/>
     <circle class="fil3" cx="9" cy="3" r="1"/>
     <circle class="fil3" cx="12" cy="3" r="1"/>
    </g>
    <g>
     <polygon class="fil1" points="24,39 24,7 26,7 26,39 "/>
    </g>
   </g>
   <g>
    <g id="_544813448">
     <g>
      <polygon class="fil0" points="5,16 21,16 21,30 5,30 "/>
      <path id="1" class="fil1" d="M21 16l-16 0 0 -1 16 0 0 1 0 0zm0 -1l0 0 0 1 0 -1zm-1 15l0 -14 1 0 0 14 0 1 -1 -1zm1 0l0 1 0 0 0 -1zm-16 0l16 0 0 1 -16 0 -1 -1 1 0zm0 1l-1 0 0 -1 1 1zm0 -15l0 14 -1 0 0 -14 1 -1 0 1zm-1 0l0 -1 1 0 -1 1z"/>
     </g>
     <path class="fil2" d="M21 15c0,0 0,0 0,0l0 -2c0,0 -1,0 -1,0l-14 0c-1,0 -1,0 -1,0l0 2c0,0 0,0 0,0l16 0z"/>
    </g>
    <g>
     <rect class="fil2" x="8" y="17" width="10.6241" height="0.851477"/>
     <rect class="fil2" x="8" y="20" width="10.6241" height="0.851477"/>
     <rect class="fil2" x="8" y="22" width="10.6241" height="0.851477"/>
     <rect class="fil2" x="8" y="24" width="10.6241" height="0.851477"/>
     <rect class="fil2" x="8" y="26" width="4.79118" height="0.851477"/>
    </g>
   </g>
   <g>
    <polygon class="fil1" points="2,39 49,39 49,40 2,40 "/>
   </g>
   <g>
    <g>
     <g>
      <g id="_544810568">
       <g>
        <g>
         <path class="fil4" d="M30 12l0 17c0,0 13,-1 13,0 0,0 0,-14 0,-14l-2 -3 0 0c0,0 -11,0 -11,0z"/>
         <path id="1" class="fil1" d="M30 29l0 -17 1 0 0 17 -1 0 0 0zm0 0l0 0 0 0 0 0zm14 0l-1 0 0 0 0 0 0 0 0 0 0 0 -1 0 0 0 0 0 -1 0 0 0 -1 0 0 0 -1 0 -1 0 0 0 -1 0 0 0 -1 0 -1 0 0 0 -1 0 0 0 -1 0 0 0 -1 0 0 0 -1 0 0 0 0 0 -1 0 0 0 0 0 0 0 0 -1 0 0 0 0 0 0 1 0 0 0 0 0 1 0 0 0 1 0 0 0 1 0 0 0 1 0 0 0 1 0 1 0 0 0 1 0 0 0 1 0 1 0 0 0 1 0 0 0 1 0 0 0 0 0 1 0 0 0 0 0 0 0 1 1 0 0zm-1 -13l1 -1 0 0 0 0 0 0 0 1 0 0 0 0 0 1 0 0 0 0 0 1 0 1 0 0 0 1 0 0 0 1 0 1 0 0 0 1 0 0 0 1 0 1 0 0 0 1 0 0 0 1 0 0 0 1 0 0 0 0 0 1 0 0 0 0 -1 0 1 0 -1 0 0 0 0 0 0 -1 0 0 0 0 0 -1 0 0 0 -1 0 0 0 -1 0 0 0 -1 0 -1 0 0 0 -1 0 0 0 -1 0 -1 0 0 0 -1 0 0 0 -1 0 -1 0 0 0 0 0 -1 0 0 0 0 0 -1 0 0 0 0 0 1zm-2 -4l3 3 -1 1 -2 -3 0 -1 0 0zm0 0l0 0 0 0 0 0zm0 0l0 0 0 1 0 0 0 -2 0 1zm0 -1l0 0 0 1 0 -1zm-10 1l-1 0 0 0 0 -1 0 0 0 0 1 0 0 0 0 0 0 0 1 0 0 0 1 0 0 0 1 0 0 0 1 0 0 0 1 0 0 0 1 0 0 0 1 0 0 0 0 0 1 0 0 0 1 0 0 0 0 0 0 0 1 0 0 0 0 0 0 0 0 2 0 0 0 0 0 0 -1 0 0 0 0 0 0 0 -1 0 0 0 -1 0 0 0 0 0 -1 0 0 0 -1 0 0 0 -1 0 0 0 -1 0 0 0 -1 0 0 0 -1 0 0 0 -1 0 0 0 0 0 0 0 -1 0 0 0 0 0 1 -1 0 0zm0 0l0 0 0 0 0 0z"/>
        </g>
        <g>
         <path class="fil2" d="M41 12l0 2c0,0 0,1 0,1 1,0 2,0 2,0l-2 -3 0 0z"/>
         <path id="1" class="fil1" d="M41 14l0 -2 0 0 0 2 0 0 0 0zm0 0l0 0 0 0 0 0zm0 1l0 0 0 0 0 0 0 0 0 0 0 0 0 0 0 0 0 0 0 0 0 0 0 0 0 0 0 0 0 0 0 0 0 0 0 0 0 0 0 0 0 0 0 0 0 0 0 0 0 0 0 0 0 -1 0 0 0 0 0 0 0 0 0 0 0 0 0 0 0 0 0 0 0 0 0 0 0 0 0 0 0 0 0 0 0 1 0 0 0 0 0 0 0 0 0 0 0 0 0 0 0 0 0 0 0 0 0 0 0 0 0 0 0 0 0 0 0 0 0 0 0 0 0 0 0 0 0 0 0 0 0 0 0 0 0 0zm2 0l0 0 0 0 0 0 0 0 0 0 0 0 0 0 0 0 0 0 0 0 0 0 0 0 0 0 0 0 0 0 0 0 0 0 -1 0 0 0 0 0 0 0 0 0 0 0 0 0 0 0 0 0 0 0 0 0 -1 0 0 0 0 0 0 0 0 0 0 0 0 0 0 0 0 0 0 0 0 0 0 0 1 0 0 0 0 0 0 0 0 0 0 0 0 0 0 0 0 0 0 0 0 0 1 0 0 0 0 0 0 0 0 0 0 0 0 0 0 0 0 0 0 0 0 0 0 0 0 0 0 0 0 0 0 0 0 0zm-2 -3l2 3 0 0 -2 -3 0 0 0 0zm0 0l0 0 0 0 0 0zm0 0l0 0 0 0 0 0 0 0 0 0zm0 0l0 0 0 0 0 0z"/>
        </g>
       </g>
       <rect class="fil2" transform="matrix(-0.117796 -0.000382939 0.000534493 -0.134936 41.3841 20.4332)" width="81.3262" height="7.29893"/>
       <rect class="fil2" transform="matrix(-0.117796 -0.000382939 0.000534493 -0.134936 41.3913 18.6102)" width="81.3262" height="7.29893"/>
       <rect class="fil2" transform="matrix(-0.0805077 -0.00026172 0.000534493 -0.134936 38.3664 16.6791)" width="81.3262" height="7.29893"/>
       <rect class="fil2" transform="matrix(-0.117796 -0.000382939 0.000534493 -0.134936 41.3764 22.3802)" width="81.3262" height="7.29893"/>
       <rect class="fil2" transform="matrix(-0.117796 -0.000382939 0.000534493 -0.134936 41.3687 24.3271)" width="81.3262" height="7.29893"/>
       <rect class="fil2" transform="matrix(-0.117796 -0.000382939 0.000534493 -0.134936 41.3611 26.2507)" width="81.3262" height="7.29893"/>
      </g>
      <g>
       <g>
        <path class="fil4" d="M32 13l0 17c0,0 13,-1 13,0 0,0 0,-14 0,-14l-2 -3 0 0c0,0 -11,0 -11,0z"/>
        <path id="1" class="fil1" d="M31 30l0 -17 1 0 0 17 0 0 -1 0zm1 0l-1 0 0 0 1 0zm13 0l-1 0 0 0 1 0 0 0 -1 0 0 0 0 0 0 0 -1 0 0 0 -1 0 0 0 -1 0 0 0 -1 0 -1 0 0 0 -1 0 0 0 -1 0 -1 0 0 0 -1 0 0 0 -1 0 0 0 -1 0 0 0 -1 0 0 0 0 0 0 0 0 0 0 0 0 -1 0 0 0 0 0 0 0 0 0 0 1 0 0 0 1 0 0 0 1 0 0 0 1 0 0 0 1 0 1 0 0 0 1 0 0 0 1 0 1 0 0 0 1 0 0 0 1 0 0 0 1 0 0 0 0 0 0 0 1 0 0 0 0 1 0 0zm-1 -13l1 -1 0 0 0 0 0 0 0 0 0 1 0 0 0 0 0 1 0 0 0 1 0 0 0 1 0 0 0 1 0 1 0 0 0 1 0 1 0 0 0 1 0 1 0 0 0 1 0 0 0 1 0 0 0 0 0 1 0 0 0 0 0 1 0 0 -1 0 1 0 -1 0 0 0 0 -1 0 0 0 0 0 -1 0 0 0 0 0 -1 0 0 0 -1 0 -1 0 0 0 -1 0 0 0 -1 0 -1 0 0 0 -1 0 -1 0 0 0 -1 0 0 0 -1 0 0 0 -1 0 0 0 0 0 -1 0 0 0 0 0 0 0 1zm-1 -4l2 3 -1 1 -2 -3 1 -1 0 0zm0 0l0 0 0 0 0 0zm0 -1l0 1 -1 1 0 -1 1 -1 0 0zm0 0l0 0 0 0 0 0zm-11 1l-1 0 0 0 1 -1 0 0 0 0 0 0 0 0 1 0 0 0 0 0 1 0 0 0 1 0 0 0 1 0 0 0 1 0 0 0 1 0 0 0 1 0 0 0 1 0 0 0 0 0 1 0 0 0 1 0 0 0 0 0 0 0 0 0 0 0 1 0 0 2 -1 0 0 0 0 0 0 0 0 0 0 0 -1 0 0 0 -1 0 0 0 0 0 -1 0 0 0 -1 0 0 0 -1 0 0 0 -1 0 0 0 -1 0 0 0 -1 0 0 0 -1 0 0 0 0 0 -1 0 0 0 0 0 0 0 0 0 0 -1 0 0zm0 0l0 0 0 0 0 0z"/>
       </g>
       <g>
        <path class="fil2" d="M43 13l-1 2c0,0 0,1 1,1 0,0 2,0 2,0l-2 -3 0 0z"/>
        <path id="1" class="fil1" d="M42 15l0 -2 1 0 -1 2 0 0 0 0zm0 0l0 0 0 0 0 0zm1 1l0 0 0 0 0 0 0 0 0 0 0 0 0 0 0 0 -1 0 0 0 0 0 0 0 0 0 0 0 0 0 0 0 0 0 0 0 0 0 0 0 0 0 0 -1 0 0 0 0 0 0 0 0 0 0 0 0 0 0 0 0 0 0 0 0 0 0 0 0 0 0 0 0 0 0 0 0 0 0 0 0 0 0 0 0 0 0 0 0 0 0 0 0 0 0 0 0 0 1 0 0 0 0 0 0 0 0 0 0 0 0 0 0 1 0 0 0 0 0 0 0 0 0 0 0 0 0 0 0 0 0 0 0 0 0 0 0zm2 0l0 0 0 0 0 0 0 0 0 0 0 0 0 0 0 0 0 0 0 0 0 0 -1 0 0 0 0 0 0 0 0 0 0 0 0 0 0 0 0 0 0 0 0 0 0 0 -1 0 0 0 0 0 0 0 0 0 0 0 0 0 0 0 0 0 0 0 0 0 0 0 0 0 0 0 0 0 0 0 0 0 0 0 0 0 0 0 0 0 0 0 1 0 0 0 0 0 0 0 0 0 0 0 0 0 0 0 0 0 0 0 0 0 0 0 1 0 0 0 0 0 0 0 0 0 0 0 0 0 0 0 0 0 0 0 0 0zm-2 -3l2 3 0 0 -3 -3 0 0 1 0zm-1 0l0 0 1 0 -1 0zm0 0l0 0 1 0 0 0 0 0 -1 0zm1 0l0 0 0 0 0 0z"/>
       </g>
      </g>
     </g>
     <g>
      <rect class="fil5" x="34" y="17" width="9.15017" height="1.10209"/>
      <rect class="fil5" x="34" y="19" width="4.27703" height="1.10209"/>
      <rect class="fil5" x="39" y="19" width="4.07713" height="1.10209"/>
      <rect class="fil5" x="34" y="21" width="4.27703" height="1.10209"/>
      <rect class="fil5" x="39" y="21" width="4.07713" height="1.10209"/>
      <rect class="fil5" x="34" y="23" width="4.27703" height="1.10209"/>
      <rect class="fil5" x="39" y="23" width="4.07713" height="1.10209"/>
      <rect class="fil5" x="34" y="26" width="4.27703" height="1.10209"/>
      <rect class="fil5" x="39" y="26" width="4.07713" height="1.10209"/>
     </g>
    </g>
    <g>
     <circle class="fil6" cx="34" cy="29" r="6"/>
     <path class="fil7" d="M35 31c0,0 -1,0 -1,-1 0,0 0,0 0,0 -1,0 -1,0 -1,0 -1,-1 -1,-1 -1,-1 0,0 0,0 0,0 0,-1 -1,-1 -1,-1 0,-1 1,-1 1,-2 0,0 1,0 1,0l0 -1 1 0 0 1c1,0 1,0 1,1 1,0 1,0 1,1l-1 0c0,0 -1,-1 -1,-1 0,0 0,0 0,0 -1,0 -1,0 -1,0 0,0 0,1 0,1 0,0 0,0 0,0 0,1 0,1 1,1 0,0 1,0 1,0 0,0 0,1 0,1 1,0 1,0 1,0 0,1 0,1 0,1 0,1 0,1 -1,1 0,1 0,1 -1,1l0 1 -1 0 0 -1c0,0 -1,0 -1,-1 -1,0 -1,-1 -1,-1l2 0c0,0 0,0 0,1 0,0 0,0 1,0 0,0 0,0 0,0 0,0 1,-1 1,-1z"/>
    </g>
   </g>
  </g>
 </g>
</svg>
