<?xml version="1.0" encoding="UTF-8"?>
<!DOCTYPE svg PUBLIC "-//W3C//DTD SVG 1.1//EN" "http://www.w3.org/Graphics/SVG/1.1/DTD/svg11.dtd">
<!-- Creator: CorelDRAW X7 -->
<svg xmlns="http://www.w3.org/2000/svg" xml:space="preserve" width="48px" height="38px" version="1.1" style="shape-rendering:geometricPrecision; text-rendering:geometricPrecision; image-rendering:optimizeQuality; fill-rule:evenodd; clip-rule:evenodd"
viewBox="0 0 48 38"
 xmlns:xlink="http://www.w3.org/1999/xlink">
 <defs>
  <style type="text/css">
   <![CDATA[
    .fil2 {fill:#FEFEFE}
    .fil7 {fill:#FEFEFE}
    .fil10 {fill:#FFF212}
    .fil4 {fill:#51A8B1}
    .fil9 {fill:black}
    .fil0 {fill:#2887D2}
    .fil8 {fill:#4E8AC8}
    .fil5 {fill:#E32210}
    .fil11 {fill:#FC4D44}
    .fil1 {fill:white}
    .fil14 {fill:#FEFEFE;fill-rule:nonzero}
    .fil6 {fill:#FFF212;fill-rule:nonzero}
    .fil3 {fill:#2887D2;fill-rule:nonzero}
    .fil13 {fill:#4E901E;fill-rule:nonzero}
    .fil12 {fill:#7ED63E;fill-rule:nonzero}
   ]]>
  </style>
 </defs>
 <g id="Layer_x0020_1">
  <metadata id="CorelCorpID_0Corel-Layer"/>
  <g id="_787609272">
   <polygon class="fil0" points="32,38 16,38 24,29 "/>
   <g>
    <rect class="fil0" y="23" width="48" height="4.78512" rx="2" ry="2"/>
    <g>
     <circle class="fil1" cx="39" cy="26" r="1"/>
     <circle class="fil1" cx="41" cy="26" r="1"/>
     <circle class="fil1" cx="44" cy="26" r="1"/>
    </g>
   </g>
   <g>
    <g>
     <g>
      <g>
       <g>
        <g>
         <path class="fil2" d="M31 3l0 18c0,0 12,-1 12,0 0,0 0,-15 0,-15l-2 -3 0 0c0,0 -10,0 -10,0z"/>
         <path id="1" class="fil3" d="M30 21l0 -18 1 0 0 18 0 0 -1 0zm1 0l-1 0 0 0 1 0zm12 0l-1 0 0 0 0 0 0 0 0 0 0 0 0 0 -1 0 0 0 0 0 -1 0 0 0 -1 0 0 0 -1 0 0 0 -1 0 0 0 -1 0 0 0 -1 0 0 0 -1 0 0 0 -1 0 0 0 -1 0 0 0 0 0 -1 0 0 0 0 0 0 0 0 0 0 -1 0 0 0 0 0 0 0 0 1 0 0 0 0 0 1 0 0 0 1 0 0 0 1 0 0 0 1 0 0 0 1 0 0 0 1 0 0 0 1 0 0 0 1 0 0 0 1 0 0 0 0 0 1 0 0 0 0 0 0 0 1 0 0 1 0 0zm-1 -15l1 0 0 0 0 0 0 0 0 1 0 0 0 0 0 1 0 0 0 0 0 1 0 1 0 0 0 1 0 1 0 0 0 1 0 1 0 0 0 1 0 1 0 0 0 1 0 0 0 1 0 1 0 0 0 1 0 0 0 0 0 0 0 1 0 0 -1 0 1 0 -1 0 0 0 0 -1 0 0 0 0 0 -1 0 0 0 0 0 -1 0 -1 0 0 0 -1 0 0 0 -1 0 -1 0 0 0 -1 0 -1 0 0 0 -1 0 -1 0 0 0 -1 0 -1 0 0 0 0 0 -1 0 0 0 0 0 -1 0 0 0 0 0 0zm-1 -4l2 4 -1 0 -2 -3 1 -1 0 0zm0 0l0 0 0 0 0 0zm0 0l0 0 -1 1 0 0 1 -1 0 0zm0 0l0 0 0 0 0 0zm-10 1l-1 0 0 0 1 -1 0 0 0 0 0 0 1 0 0 0 0 0 0 0 1 0 0 0 1 0 0 0 0 0 1 0 0 0 1 0 0 0 1 0 0 0 1 0 0 0 0 0 1 0 0 0 0 0 1 0 0 0 0 0 0 0 0 0 1 0 0 0 0 1 0 0 -1 0 0 0 0 0 0 0 0 0 -1 0 0 0 0 0 -1 0 0 0 -1 0 0 0 0 0 -1 0 0 0 -1 0 0 0 -1 0 0 0 0 0 -1 0 0 0 -1 0 0 0 0 0 0 0 -1 0 0 0 0 0 0 0 0 0 0 0zm0 0l0 0 0 0 0 0z"/>
        </g>
        <g>
         <path class="fil0" d="M41 3l-1 2c0,0 0,1 1,1 0,0 2,0 2,0l-2 -3 0 0z"/>
         <path id="1" class="fil3" d="M40 5l1 -2 0 0 -1 2 0 0 0 0zm0 0l0 0 0 0 0 0zm1 1l0 0 0 0 0 0 0 0 0 0 0 0 0 0 0 0 0 0 -1 0 0 0 0 0 0 0 0 0 0 0 0 0 0 0 0 0 0 0 0 -1 0 0 0 0 0 0 0 0 0 0 0 0 0 0 0 0 0 0 0 0 0 0 0 0 0 0 0 0 0 0 0 0 0 0 0 0 0 0 0 0 0 0 0 0 0 0 0 0 0 0 0 0 0 0 0 0 0 0 0 1 0 0 0 0 0 0 1 0 0 0 0 0 0 0 0 0 0 0 0 0 0 0 0 0 0 0 0 0 0 0 0 0 0 0 0 0zm2 0l0 0 0 0 0 0 0 0 0 0 0 0 0 0 -1 0 0 0 0 0 0 0 0 0 0 0 0 0 0 0 0 0 0 0 0 0 0 0 0 0 0 0 0 0 -1 0 0 0 0 0 0 0 0 0 0 0 0 0 0 0 0 0 0 0 0 0 0 0 0 0 0 0 0 0 0 0 0 0 0 0 0 0 0 0 0 0 0 0 0 0 0 0 1 0 0 0 0 0 0 0 0 0 0 0 0 0 0 0 0 0 0 0 0 0 0 0 0 0 0 0 0 0 1 0 0 0 0 0 0 0 0 0 0 0 0 0zm-2 -3l2 3 0 0 -2 -3 0 0 0 0zm0 0l0 -1 0 1 0 0zm0 0l0 0 0 0 0 0 0 0 0 0zm0 0l0 0 0 0 0 0z"/>
        </g>
       </g>
       <rect class="fil0" transform="matrix(-0.104404 -0.000414137 0.000473729 -0.14593 40.9272 11.6824)" width="81.2504" height="7.29213"/>
       <rect class="fil0" transform="matrix(-0.104404 -0.000414137 0.000473729 -0.14593 40.9336 9.7128)" width="81.2504" height="7.29213"/>
       <rect class="fil0" transform="matrix(-0.0713551 -0.000283043 0.000473729 -0.14593 38.2551 7.62626)" width="81.2504" height="7.29213"/>
       <rect class="fil0" transform="matrix(-0.104404 -0.000414137 0.000473729 -0.14593 40.9203 13.786)" width="81.2504" height="7.29213"/>
       <rect class="fil0" transform="matrix(-0.104404 -0.000414137 0.000473729 -0.14593 40.9135 15.8897)" width="81.2504" height="7.29213"/>
       <rect class="fil0" transform="matrix(-0.104404 -0.000414137 0.000473729 -0.14593 40.9068 17.968)" width="81.2504" height="7.29213"/>
      </g>
      <g>
       <g>
        <path class="fil2" d="M32 4l0 17c0,0 12,0 12,1 0,0 0,-15 0,-15l-2 -3 0 0c0,0 -10,-1 -10,0z"/>
        <path id="1" class="fil3" d="M32 21l0 -17 1 0 0 18 -1 0 0 -1zm0 1l0 0 0 -1 0 1zm12 0l-1 0 0 0 1 0 0 0 0 0 -1 0 0 0 0 0 -1 0 0 0 0 0 -1 0 0 0 -1 0 0 0 -1 0 0 0 -1 0 0 0 -1 0 -1 0 0 0 -1 0 0 0 0 0 -1 0 0 0 -1 0 0 0 0 0 0 0 -1 0 0 0 0 0 0 -1 0 0 0 0 1 0 0 0 0 0 0 0 1 0 0 0 0 0 1 0 0 0 1 0 0 0 1 0 1 0 0 0 1 0 0 0 1 0 0 0 1 0 0 0 1 0 0 0 0 0 1 0 0 0 0 0 1 0 0 0 0 0 0 1 0 0zm0 -15l0 0 0 0 0 0 0 0 0 0 0 1 0 0 0 0 0 1 0 0 0 1 0 0 0 1 0 1 0 0 0 1 0 1 0 0 0 1 0 1 0 1 0 0 0 1 0 0 0 1 0 0 0 1 0 0 0 1 0 0 0 0 0 0 0 1 -1 0 1 0 -1 0 0 -1 0 0 0 0 0 0 0 -1 0 0 0 -1 0 0 0 -1 0 0 0 -1 0 0 1 -1 0 -1 0 -1 0 0 0 -1 0 -1 0 0 0 -1 0 -1 0 0 0 -1 0 0 0 -1 0 0 0 0 0 -1 0 0 0 0 0 0 0 0zm-2 -4l2 4 0 0 -2 -3 0 -1 0 0zm0 0l0 0 0 0 0 0zm0 0l0 0 0 1 0 0 0 -1 0 0zm0 0l0 0 0 0 0 0zm-9 1l-1 0 0 0 0 -1 0 0 1 0 0 0 0 0 0 0 0 0 1 0 0 0 1 0 0 0 0 0 1 0 0 0 1 0 0 0 1 0 0 0 0 0 1 0 0 0 1 0 0 0 0 0 1 0 0 0 0 0 1 0 0 0 0 0 0 0 0 0 0 1 0 0 0 0 0 0 0 0 -1 0 0 0 0 0 -1 0 0 0 0 0 -1 0 0 0 -1 0 0 0 0 0 -1 0 0 0 -1 0 0 0 -1 0 0 0 0 0 -1 0 0 0 -1 0 0 0 0 0 0 0 0 0 -1 0 0 0 1 0 0 0zm0 0l0 0 0 0 0 0z"/>
       </g>
       <g>
        <path class="fil0" d="M42 4l0 2c0,0 0,1 0,1 1,0 2,0 2,0l-2 -4 0 1z"/>
        <path id="1" class="fil3" d="M42 6l0 -2 0 0 0 2 0 0 0 0zm0 0l0 0 0 0 0 0zm0 1l0 0 0 0 0 0 0 0 0 0 0 0 0 0 0 0 0 0 0 0 0 0 0 0 0 0 0 0 0 0 0 0 0 0 0 -1 0 0 0 0 0 0 0 0 0 0 0 0 0 0 0 0 0 0 0 0 0 0 0 0 0 0 0 0 0 0 0 0 0 0 0 0 0 0 0 0 0 0 0 0 0 0 0 0 0 0 0 0 0 0 0 0 0 0 0 0 0 0 0 0 0 0 0 0 0 1 0 0 0 0 0 0 0 0 0 0 0 0 0 0 0 0 0 0 0 0 0 0 0 0 0 0 0 0 0 0zm2 0l0 0 0 0 0 0 0 0 0 0 0 0 0 0 0 0 0 0 0 0 0 0 0 0 0 0 0 0 -1 0 0 0 0 0 0 0 0 0 0 0 0 0 0 0 0 0 0 0 0 0 0 0 0 0 -1 0 0 0 0 0 0 0 0 0 0 0 0 0 0 0 0 0 0 0 0 0 0 0 0 0 0 0 1 0 0 0 0 0 0 0 0 0 0 0 0 0 0 0 0 0 0 0 0 0 0 0 0 0 1 0 0 0 0 0 0 0 0 0 0 0 0 0 0 0 0 0 0 0 0 0 0 0 0 0 0 0zm-2 -4l2 4 0 0 -2 -4 0 0 0 0zm0 0l0 0 0 0 0 0zm0 1l0 -1 0 0 0 1 0 0 0 0zm0 0l0 0 0 0 0 0z"/>
       </g>
      </g>
     </g>
     <g>
      <rect class="fil4" x="34" y="8" width="8.10236" height="1.19077"/>
      <rect class="fil4" x="34" y="10" width="3.78726" height="1.19077"/>
      <rect class="fil4" x="39" y="10" width="3.61025" height="1.19077"/>
      <rect class="fil4" x="34" y="13" width="3.78726" height="1.19077"/>
      <rect class="fil4" x="39" y="13" width="3.61025" height="1.19077"/>
      <rect class="fil4" x="34" y="15" width="3.78726" height="1.19077"/>
      <rect class="fil4" x="39" y="15" width="3.61025" height="1.19077"/>
      <rect class="fil4" x="34" y="17" width="3.78726" height="1.19077"/>
      <rect class="fil4" x="39" y="17" width="3.61025" height="1.19077"/>
     </g>
    </g>
    <g>
     <circle class="fil5" cx="33" cy="5" r="5"/>
     <path class="fil6" d="M34 6c0,0 -1,-1 -1,-1 0,0 0,0 0,0 0,0 -1,0 -1,0 0,0 0,-1 0,-1 -1,0 -1,0 -1,0 0,0 0,-1 0,-1 0,0 0,-1 1,-1 0,0 0,0 1,0l0 -1 0 0 0 1c1,0 1,0 1,0 0,1 1,1 1,1l-1 0c0,0 -1,0 -1,0 0,0 0,0 0,0 0,0 -1,0 -1,0 0,0 0,0 0,0 0,0 0,1 0,1 0,0 1,0 1,0 0,0 1,0 1,0 0,1 0,1 0,1 0,0 0,0 1,0 0,0 0,1 0,1 0,0 -1,1 -1,1 0,0 0,0 -1,0l0 1 0 0 0 -1c-1,0 -1,0 -2,0 0,-1 0,-1 0,-1l1 0c0,0 0,0 0,0 0,0 1,0 1,0 0,0 0,0 0,0 0,0 1,0 1,0z"/>
    </g>
   </g>
   <g>
    <g>
     <g>
      <g>
       <polygon class="fil7" points="6,4 18,4 18,16 6,16 "/>
       <path id="1" class="fil3" d="M18 4l-12 0 0 -1 12 0 1 1 -1 0zm0 -1l1 0 0 1 -1 -1zm0 13l0 -12 1 0 0 12 -1 0 0 0zm1 0l0 0 -1 0 1 0zm-13 -1l12 0 0 1 -12 0 -1 0 1 -1zm0 1l-1 0 0 0 1 0zm0 -12l0 12 -1 0 0 -12 1 -1 0 1zm-1 0l0 -1 1 0 -1 1z"/>
      </g>
      <path class="fil0" d="M18 3c0,0 0,0 0,0l0 -1c0,-1 0,-1 0,-1l-12 0c0,0 0,0 0,1l0 1c0,0 0,0 0,0l12 0z"/>
     </g>
     <g>
      <rect class="fil0" x="8" y="5" width="8.64479" height="0.692848"/>
      <rect class="fil0" x="8" y="7" width="8.64479" height="0.692848"/>
      <rect class="fil0" x="8" y="9" width="8.64479" height="0.692848"/>
      <rect class="fil0" x="8" y="10" width="8.64479" height="0.692848"/>
      <rect class="fil0" x="8" y="12" width="3.89858" height="0.692848"/>
     </g>
    </g>
    <g>
     <g>
      <rect class="fil8" x="12" y="13" width="8.53228" height="5.65891" rx="1" ry="1"/>
      <rect class="fil9" x="12" y="14" width="8.53228" height="0.496653"/>
      <g>
       <rect class="fil10" x="12" y="15" width="0.504305" height="0.61963"/>
       <rect class="fil10" x="13" y="15" width="0.504305" height="0.61963"/>
       <rect class="fil10" x="14" y="15" width="0.504305" height="0.61963"/>
       <rect class="fil10" x="14" y="15" width="0.504305" height="0.61963"/>
       <rect class="fil10" x="15" y="15" width="0.504305" height="0.61963"/>
       <rect class="fil10" x="16" y="15" width="0.504305" height="0.61963"/>
      </g>
     </g>
     <g>
      <rect class="fil11" x="11" y="14" width="8.53228" height="5.65891" rx="1" ry="1"/>
      <rect class="fil9" x="11" y="15" width="8.53228" height="0.496653"/>
      <g>
       <rect class="fil10" x="11" y="17" width="0.504305" height="0.61963"/>
       <rect class="fil10" x="12" y="17" width="0.504305" height="0.61963"/>
       <rect class="fil10" x="13" y="17" width="0.504305" height="0.61963"/>
       <rect class="fil10" x="13" y="17" width="0.504305" height="0.61963"/>
       <rect class="fil10" x="14" y="17" width="0.504305" height="0.61963"/>
       <rect class="fil10" x="15" y="17" width="0.504305" height="0.61963"/>
      </g>
     </g>
    </g>
    <g>
     <g>
      <polygon class="fil12" points="6,21 17,21 17,14 6,14 "/>
      <path class="fil13" d="M17 16l0 3c-1,0 -1,0 -1,1l-9 0c0,-1 0,-1 -1,-1l0 -3c1,0 1,-1 1,-2l9 0c0,1 0,2 1,2z"/>
      <path class="fil14" d="M13 17c0,1 -1,1 -2,1 0,0 -1,0 -1,-1 0,0 1,-1 1,-1 1,0 2,1 2,1z"/>
      <path class="fil12" d="M6 16l0 5 4 0c-1,0 -2,-1 -3,-2 -1,0 -1,-2 -1,-3z"/>
      <polygon class="fil14" points="14,17 15,17 15,17 14,17 "/>
      <polygon class="fil14" points="8,17 9,17 9,17 8,17 "/>
     </g>
     <g>
      <polygon class="fil12" points="4,22 15,22 15,15 4,15 "/>
      <path class="fil13" d="M15 17l0 3c-1,0 -1,1 -1,1l-8 0c0,0 -1,-1 -1,-1l0 -3c0,0 1,0 1,-1l8 0c0,1 0,1 1,1z"/>
      <path class="fil14" d="M11 19c0,0 -1,1 -1,1 -1,0 -1,-1 -1,-1 0,-1 0,-2 1,-2 0,0 1,1 1,2z"/>
      <path class="fil12" d="M4 18l0 4 4 0c-1,0 -2,0 -3,-1 -1,-1 -1,-2 -1,-3z"/>
      <polygon class="fil14" points="12,19 13,19 13,18 12,18 "/>
      <polygon class="fil14" points="6,19 7,19 7,18 6,18 "/>
     </g>
    </g>
   </g>
  </g>
 </g>
</svg>
