<?xml version="1.0" encoding="UTF-8"?>
<!DOCTYPE svg PUBLIC "-//W3C//DTD SVG 1.1//EN" "http://www.w3.org/Graphics/SVG/1.1/DTD/svg11.dtd">
<!-- Creator: CorelDRAW X7 -->
<svg xmlns="http://www.w3.org/2000/svg" xml:space="preserve" width="50px" height="50px" version="1.1" style="shape-rendering:geometricPrecision; text-rendering:geometricPrecision; image-rendering:optimizeQuality; fill-rule:evenodd; clip-rule:evenodd"
viewBox="0 0 50 50"
 xmlns:xlink="http://www.w3.org/1999/xlink">
 <defs>
  <style type="text/css">
   <![CDATA[
    .str0 {stroke:#ED3237;stroke-width:0.900028}
    .fil0 {fill:none}
    .fil1 {fill:#FEFEFE}
    .fil3 {fill:#ED3237}
    .fil5 {fill:#00A859}
    .fil2 {fill:#ED3237;fill-rule:nonzero}
    .fil4 {fill:#2887D2;fill-rule:nonzero}
   ]]>
  </style>
 </defs>
 <g id="Layer_x0020_1">
  <metadata id="CorelCorpID_0Corel-Layer"/>
  <rect class="fil0" width="50" height="50"/>
  <g id="_772072280">
   <g>
    <g>
     <polygon class="fil1" points="1,12 23,12 23,38 1,38 "/>
     <path id="1" class="fil2" d="M23 13l-22 0 0 -2 22 0 0 1 0 1zm0 -2l0 0 0 1 0 -1zm-1 27l0 -26 1 0 0 26 0 1 -1 -1zm1 0l0 1 0 0 0 -1zm-22 -1l22 0 0 2 -22 0 -1 -1 1 -1zm0 2l-1 0 0 -1 1 1zm1 -27l0 26 -2 0 0 -26 1 -1 1 1zm-2 0l0 -1 1 0 -1 1z"/>
    </g>
    <g>
     <rect class="fil3 str0" x="4" y="17" width="9.94089" height="2.25593"/>
     <rect class="fil3 str0" x="4" y="24" width="9.94089" height="2.3078"/>
     <rect class="fil3 str0" x="4" y="31" width="9.94089" height="2.21549"/>
    </g>
    <g>
     <g>
      <path class="fil2" d="M20 17l-3 0 0 -1 3 0 1 1 -1 0zm0 -1l1 0 0 1 -1 -1zm0 3l0 -2 1 0 0 2 -1 0 0 0zm1 0l0 0 -1 0 1 0zm-4 -1l3 0 0 1 -3 0 -1 0 1 -1zm0 1l-1 0 0 0 1 0zm0 -2l0 2 -1 0 0 -2 1 -1 0 1zm-1 0l0 -1 1 0 -1 1z"/>
     </g>
     <g>
      <path class="fil2" d="M20 25l-3 0 0 -1 3 0 1 0 -1 1zm0 -1l1 0 0 0 -1 0zm0 3l0 -3 1 0 0 3 -1 0 0 0zm1 0l0 0 -1 0 1 0zm-4 -1l3 0 0 1 -3 0 -1 0 1 -1zm0 1l-1 0 0 0 1 0zm0 -3l0 3 -1 0 0 -3 1 0 0 0zm-1 0l0 0 1 0 -1 0z"/>
     </g>
     <g>
      <path class="fil2" d="M20 32l-3 0 0 -1 3 0 1 0 -1 1zm0 -1l1 0 0 0 -1 0zm0 2l0 -2 1 0 0 2 -1 1 0 -1zm1 0l0 1 -1 0 1 -1zm-4 0l3 0 0 1 -3 0 -1 -1 1 0zm0 1l-1 0 0 -1 1 1zm0 -3l0 2 -1 0 0 -2 1 0 0 0zm-1 0l0 0 1 0 -1 0z"/>
     </g>
    </g>
   </g>
   <g>
    <g>
     <polygon class="fil1" points="27,12 49,12 49,38 27,38 "/>
     <path id="1" class="fil4" d="M49 13l-22 0 0 -2 22 0 1 1 -1 1zm0 -2l1 0 0 1 -1 -1zm-1 27l0 -26 2 0 0 26 -1 1 -1 -1zm2 0l0 1 -1 0 1 -1zm-23 -1l22 0 0 2 -22 0 0 -1 0 -1zm0 2l0 0 0 -1 0 1zm1 -27l0 26 -1 0 0 -26 0 -1 1 1zm-1 0l0 -1 0 0 0 1z"/>
    </g>
    <g>
     <rect class="fil5" x="30" y="17" width="9.94089" height="2.25593"/>
     <rect class="fil5" x="30" y="24" width="9.94089" height="2.3078"/>
     <rect class="fil5" x="30" y="31" width="9.94089" height="2.21549"/>
    </g>
    <path class="fil5" d="M47 15l0 0c0,0 0,0 -1,0l-2 3 -1 -1c0,0 0,0 0,0l0 0c-1,0 -1,1 0,1l1 1c0,0 0,0 0,0l0 0c1,0 1,0 1,0l2 -3c1,0 1,0 0,-1z"/>
    <path class="fil5" d="M47 23l0 0c0,0 0,0 -1,0l-2 3 -1 -1c0,0 0,0 0,0l0 0c-1,0 -1,1 0,1l1 1c0,0 0,0 0,0l0 0c1,0 1,0 1,0l2 -3c1,0 1,-1 0,-1z"/>
    <path class="fil5" d="M47 30l0 0c0,-1 0,-1 -1,0l-2 3 -1 -1c0,-1 0,-1 0,0l0 0c-1,0 -1,0 0,0l1 1c0,1 0,1 0,0l0 0c1,0 1,0 1,0l2 -2c1,-1 1,-1 0,-1z"/>
   </g>
  </g>
 </g>
</svg>
