<?xml version="1.0" encoding="UTF-8"?>
<!DOCTYPE svg PUBLIC "-//W3C//DTD SVG 1.1//EN" "http://www.w3.org/Graphics/SVG/1.1/DTD/svg11.dtd">
<!-- Creator: CorelDRAW X7 -->
<svg xmlns="http://www.w3.org/2000/svg" xml:space="preserve" width="48px" height="39px" version="1.1" style="shape-rendering:geometricPrecision; text-rendering:geometricPrecision; image-rendering:optimizeQuality; fill-rule:evenodd; clip-rule:evenodd"
viewBox="0 0 48 39"
 xmlns:xlink="http://www.w3.org/1999/xlink">
 <defs>
  <style type="text/css">
   <![CDATA[
    .fil1 {fill:#FEFEFE}
    .fil4 {fill:#FEFEFE}
    .fil7 {fill:#FFF212}
    .fil3 {fill:#51A8B1}
    .fil6 {fill:black}
    .fil2 {fill:#2887D2}
    .fil5 {fill:#4E8AC8}
    .fil13 {fill:#E32210}
    .fil8 {fill:#FC4D44}
    .fil12 {fill:white}
    .fil11 {fill:#FEFEFE;fill-rule:nonzero}
    .fil14 {fill:#FFF212;fill-rule:nonzero}
    .fil0 {fill:#2887D2;fill-rule:nonzero}
    .fil10 {fill:#4E901E;fill-rule:nonzero}
    .fil9 {fill:#7ED63E;fill-rule:nonzero}
   ]]>
  </style>
 </defs>
 <g id="Layer_x0020_1">
  <metadata id="CorelCorpID_0Corel-Layer"/>
  <g id="_461250600">
   <g>
    <g>
     <polygon class="fil0" points="24,39 24,3 25,3 25,39 "/>
    </g>
    <g>
     <g>
      <g>
       <g>
        <g>
         <g>
          <path class="fil1" d="M30 13l0 24c0,0 15,-1 15,0 0,0 0,-20 0,-20l-2 -4 -1 0c0,0 -12,0 -12,0z"/>
          <path id="1" class="fil0" d="M29 37l0 -24 1 0 0 24 0 0 -1 0zm1 0l-1 0 0 0 1 0zm15 0l-1 0 0 0 1 0 0 0 0 0 -1 0 0 0 0 0 -1 0 0 0 -1 0 -1 0 0 0 -1 0 -1 0 0 0 -1 0 -1 0 0 0 -1 0 -1 0 -1 0 0 0 -1 0 0 0 -1 0 0 0 -1 0 0 0 -1 0 0 0 0 0 0 0 0 0 0 -1 0 0 0 0 0 0 0 0 1 0 0 0 1 0 0 0 1 0 0 0 1 0 0 0 1 0 1 0 1 0 0 0 1 0 1 0 0 0 1 0 1 0 0 0 1 0 1 0 0 0 1 0 0 0 0 0 1 0 0 0 0 0 0 1 0 0zm0 -19l0 -1 1 0 0 1 0 0 0 0 0 0 0 1 0 0 0 1 0 1 0 0 0 1 0 1 0 1 0 1 0 0 0 1 0 1 0 1 0 1 0 1 0 1 0 1 0 0 0 1 0 1 0 1 0 0 -1 1 0 0 0 0 0 1 0 0 -1 0 1 0 -1 0 0 0 0 -1 0 0 0 0 0 -1 0 0 0 -1 0 -1 1 -1 0 0 0 -1 0 -1 0 -1 0 -1 0 -1 0 -1 0 -1 0 0 0 -1 0 -1 0 -1 0 -1 0 0 0 -1 0 -1 0 0 0 -1 0 0 0 0 0 0 0 -1 0 1zm-2 -5l2 4 0 1 -3 -5 1 0 0 0zm0 0l0 0 0 0 0 0zm0 -1l0 1 -1 1 0 -1 0 -1 1 0zm-1 0l1 0 0 0 -1 0zm-12 1l-1 0 0 0 1 -1 0 0 0 0 0 0 1 0 0 0 0 0 1 0 0 0 1 0 0 0 1 0 0 0 1 0 0 0 1 0 1 0 0 0 1 0 0 0 1 0 0 0 1 0 0 0 1 0 0 0 1 0 0 0 0 0 0 0 0 0 0 0 0 2 0 0 0 0 0 0 0 0 0 0 -1 0 0 0 -1 0 0 0 -1 -1 0 0 -1 0 0 0 -1 0 0 0 -1 0 -1 0 0 0 -1 0 0 0 -1 0 0 0 -1 0 0 0 -1 0 0 0 0 0 -1 0 0 0 0 0 0 0 0 0 0 0zm0 0l0 0 0 0 0 0z"/>
         </g>
         <g>
          <path class="fil2" d="M42 13l0 3c0,0 0,1 1,1 0,1 2,0 2,0l-3 -4 0 0z"/>
          <path id="1" class="fil0" d="M42 16l0 -3 0 0 0 3 0 0 0 0zm0 0l0 0 0 0 0 0zm1 1l0 0 0 0 0 0 0 0 -1 0 0 0 0 0 0 0 0 0 0 0 0 0 0 0 0 0 0 0 0 0 0 0 0 0 0 0 0 0 0 0 0 0 0 0 0 -1 0 0 0 0 0 0 0 0 0 0 0 0 0 0 0 0 0 0 0 0 0 0 0 0 0 0 0 0 0 0 0 0 0 0 0 0 0 0 0 0 0 0 0 0 0 0 0 1 0 0 0 0 0 0 0 0 0 0 0 0 0 0 0 0 0 0 0 0 0 0 0 0 0 0 0 0 0 0 1 0 0 0 0 0 0 0 0 0 0 0zm2 0l0 0 0 1 0 0 0 0 0 0 0 0 0 0 0 0 0 0 0 0 0 0 0 0 0 0 -1 0 0 0 0 0 0 0 0 0 0 0 0 0 0 0 0 0 0 0 -1 0 0 -1 0 0 0 0 0 0 0 0 0 0 0 0 0 0 0 0 0 0 0 0 0 0 0 0 0 0 0 0 0 0 0 0 0 0 0 0 0 0 0 0 1 0 0 0 0 0 0 0 0 0 0 0 0 0 0 0 0 0 0 0 1 0 0 0 0 0 0 0 0 0 0 0 0 0 0 0 0 0 0 0 0 0 0 0 0 0zm-3 -4l3 4 0 0 -3 -4 0 0 0 0zm0 0l0 0 0 0 0 0zm0 0l0 0 0 0 0 0 0 0 0 0zm0 0l0 0 0 0 0 0z"/>
         </g>
        </g>
        <rect class="fil2" transform="matrix(-0.137611 -0.000545851 0.000624406 -0.192342 42.8796 24.7657)" width="81.2504" height="7.29213"/>
        <rect class="fil2" transform="matrix(-0.137611 -0.000545851 0.000624406 -0.192342 42.888 22.1697)" width="81.2504" height="7.29213"/>
        <rect class="fil2" transform="matrix(-0.0940508 -0.000373063 0.000624406 -0.192342 39.3576 19.4195)" width="81.2504" height="7.29213"/>
        <rect class="fil2" transform="matrix(-0.137611 -0.000545851 0.000624406 -0.192342 42.8706 27.5384)" width="81.2504" height="7.29213"/>
        <rect class="fil2" transform="matrix(-0.137611 -0.000545851 0.000624406 -0.192342 42.8616 30.3111)" width="81.2504" height="7.29213"/>
        <rect class="fil2" transform="matrix(-0.137611 -0.000545851 0.000624406 -0.192342 42.8527 33.0504)" width="81.2504" height="7.29213"/>
       </g>
       <g>
        <g>
         <path class="fil1" d="M32 14l-1 24c0,0 16,-1 16,0 0,0 0,-19 0,-19l-3 -5 0 0c0,0 -12,0 -12,0z"/>
         <path id="1" class="fil0" d="M31 38l0 -24 1 0 0 24 -1 0 0 0zm0 0l0 0 0 0 0 0zm16 0l-1 0 0 0 1 0 0 0 -1 0 0 0 0 0 -1 0 0 0 -1 0 0 0 -1 0 0 0 -1 0 -1 0 0 0 -1 0 -1 0 -1 0 0 0 -1 0 -1 0 0 0 -1 0 -1 0 0 0 -1 0 0 0 -1 0 0 0 0 0 0 0 -1 0 0 0 0 -1 0 0 1 0 0 0 0 0 0 0 1 0 0 0 1 0 0 0 1 0 1 0 0 0 1 0 1 0 0 0 1 0 1 0 1 0 0 0 1 0 1 0 0 0 1 0 0 0 1 0 0 0 1 0 0 0 0 0 1 0 0 0 0 1 0 0zm-1 -19l1 -1 0 1 0 0 0 0 0 0 0 1 0 0 0 0 0 1 0 1 0 0 0 1 0 1 0 1 0 1 0 1 0 1 0 0 0 1 0 1 0 1 0 1 0 1 0 1 0 0 0 1 0 1 0 0 0 1 0 0 0 0 0 1 0 0 -1 0 1 0 -1 0 0 0 0 -1 0 0 0 0 0 -1 0 0 0 -1 0 -1 0 0 0 -1 0 -1 0 -1 0 -1 0 -1 0 -1 0 0 0 -1 0 -1 0 -1 0 -1 0 -1 0 -1 0 0 0 -1 0 -1 0 0 0 -1 0 0 0 0 0 0 0 0 0 0zm-1 -5l2 4 -1 1 -2 -4 1 -1 0 0zm0 0l0 0 0 0 0 0zm0 0l0 0 -1 1 0 -1 0 -1 1 1zm-1 -1l0 0 1 1 -1 -1zm-12 1l-1 0 0 0 1 -1 0 0 0 0 0 0 0 0 1 0 0 0 1 0 0 0 0 0 1 0 1 0 0 0 1 0 0 0 1 0 0 0 1 0 1 0 0 0 1 0 0 0 1 0 0 0 1 0 0 0 0 0 1 0 0 0 0 0 0 0 0 0 0 2 0 0 0 0 0 0 0 0 -1 0 0 0 0 0 -1 0 0 0 -1 0 0 0 -1 0 0 0 -1 0 -1 0 0 0 -1 0 0 0 -1 0 0 0 -1 0 -1 0 0 0 0 0 -1 0 0 0 -1 0 0 0 0 0 0 0 0 0 0 -1 0 0zm-1 0l0 0 0 0 0 0z"/>
        </g>
        <g>
         <path class="fil2" d="M44 14l0 3c0,0 0,1 0,2 1,0 3,0 3,0l-3 -5 0 0z"/>
         <path id="1" class="fil0" d="M44 17l0 -3 0 0 0 3 0 0 0 0zm0 1l0 1 0 0 0 0 0 0 0 -1 0 0 0 0 0 0 0 0 0 0 0 0 0 0 0 0 0 0 0 0 0 0 0 0 0 0 0 0 0 0 0 0 0 0 0 0 0 0 0 0 0 0 0 -1 0 0 0 0 0 0 0 0 0 0 0 0 0 0 0 0 0 0 0 0 0 0 0 0 0 0 0 0 0 0 0 1 0 0 0 0 0 0 0 0 0 0 0 0 0 0 0 0 0 0 0 0 0 0 0 0 0 0 0 0 0 0 0 0 0 0 0 0 0 0 0 0 0 0 0 0 0 0 0 0 0 0zm3 1l0 0 0 0 0 0 0 0 0 0 0 0 0 0 0 0 0 0 0 0 0 0 -1 0 0 0 0 0 0 0 0 0 0 0 0 0 0 0 0 0 0 0 -1 0 0 0 0 0 0 0 0 0 0 0 0 0 0 0 0 0 0 0 0 0 0 0 -1 0 0 -1 1 0 0 0 0 1 0 0 0 0 0 0 0 0 0 0 0 0 0 0 0 0 0 0 1 0 0 0 0 0 0 0 0 0 0 0 0 0 0 0 0 0 0 0 1 0 0 0 0 0 0 0 0 0 0 0 0 0 0 0 0 0 0 0 0 0zm-3 -5l3 5 0 0 -3 -5 0 0 0 0zm0 0l0 0 0 0 0 0zm0 0l0 0 0 0 0 0 0 0 0 0zm0 0l0 0 0 0 0 0z"/>
        </g>
       </g>
      </g>
      <g>
       <rect class="fil3" x="34" y="20" width="10.6795" height="1.56948"/>
       <rect class="fil3" x="34" y="23" width="4.99186" height="1.56948"/>
       <rect class="fil3" x="40" y="23" width="4.75855" height="1.56948"/>
       <rect class="fil3" x="34" y="26" width="4.99186" height="1.56948"/>
       <rect class="fil3" x="40" y="26" width="4.75855" height="1.56948"/>
       <rect class="fil3" x="34" y="29" width="4.99186" height="1.56948"/>
       <rect class="fil3" x="40" y="29" width="4.75855" height="1.56948"/>
       <rect class="fil3" x="34" y="32" width="4.99186" height="1.56948"/>
       <rect class="fil3" x="40" y="32" width="4.75855" height="1.56948"/>
      </g>
     </g>
     <g>
      <g>
       <g id="_805236248">
        <g>
         <polygon class="fil4" points="2,14 19,14 19,30 2,30 "/>
         <path id="1" class="fil0" d="M19 15l-17 0 0 -1 17 0 1 0 -1 1zm0 -1l1 0 0 0 -1 0zm0 16l0 -16 1 0 0 16 -1 1 0 -1zm1 0l0 1 -1 0 1 -1zm-18 0l17 0 0 1 -17 0 0 -1 0 0zm0 1l0 0 0 -1 0 1zm1 -17l0 16 -1 0 0 -16 0 0 1 0zm-1 0l0 0 0 0 0 0z"/>
        </g>
        <path class="fil2" d="M19 14c0,0 0,0 0,0l0 -2c0,-1 0,-1 0,-1l-16 0c-1,0 -1,0 -1,1l0 2c0,0 0,0 0,0l17 0z"/>
       </g>
       <g>
        <rect class="fil2" x="5" y="16" width="11.4679" height="0.919091"/>
        <rect class="fil2" x="5" y="19" width="11.4679" height="0.919091"/>
        <rect class="fil2" x="5" y="21" width="11.4679" height="0.919091"/>
        <rect class="fil2" x="5" y="24" width="11.4679" height="0.919091"/>
        <rect class="fil2" x="5" y="26" width="5.17171" height="0.919091"/>
       </g>
      </g>
      <g>
       <g>
        <rect class="fil5" x="10" y="27" width="11.3186" height="7.50678" rx="1" ry="1"/>
        <rect class="fil6" x="10" y="28" width="11.3186" height="0.658832"/>
        <g id="_805228784">
         <rect class="fil7" x="11" y="30" width="0.668994" height="0.821965"/>
         <rect class="fil7" x="12" y="30" width="0.668994" height="0.821965"/>
         <rect class="fil7" x="13" y="30" width="0.668994" height="0.821965"/>
         <rect class="fil7" x="14" y="30" width="0.668994" height="0.821965"/>
         <rect class="fil7" x="15" y="30" width="0.668994" height="0.821965"/>
         <rect class="fil7" x="16" y="30" width="0.668994" height="0.821965"/>
        </g>
       </g>
       <g>
        <rect class="fil8" x="9" y="29" width="11.3186" height="7.50678" rx="1" ry="1"/>
        <rect class="fil6" x="9" y="30" width="11.3186" height="0.658832"/>
        <g id="_805223816">
         <rect class="fil7" x="10" y="32" width="0.668994" height="0.821965"/>
         <rect class="fil7" x="11" y="32" width="0.668994" height="0.821965"/>
         <rect class="fil7" x="12" y="32" width="0.668994" height="0.821965"/>
         <rect class="fil7" x="13" y="32" width="0.668994" height="0.821965"/>
         <rect class="fil7" x="14" y="32" width="0.668994" height="0.821965"/>
         <rect class="fil7" x="14" y="32" width="0.668994" height="0.821965"/>
        </g>
       </g>
      </g>
      <g>
       <g>
        <polygon class="fil9" points="2,37 18,37 18,28 2,28 "/>
        <path class="fil10" d="M17 30l0 4c-1,0 -2,1 -2,2l-10 0c0,-1 -1,-2 -2,-2l0 -4c1,0 2,0 2,-1l10 0c0,1 1,1 2,1z"/>
        <path class="fil11" d="M11 32c0,1 0,2 -1,2 -1,0 -1,-1 -1,-2 0,0 0,-1 1,-1 1,0 1,1 1,1z"/>
        <path class="fil9" d="M2 31l0 6 6 0c-2,0 -3,-1 -4,-2 -1,-1 -2,-2 -2,-4z"/>
        <polygon class="fil11" points="13,33 14,33 14,32 13,32 "/>
        <polygon class="fil11" points="5,33 7,33 7,32 5,32 "/>
       </g>
       <g>
        <polygon class="fil9" points="0,39 15,39 15,30 0,30 "/>
        <path class="fil10" d="M15 32l0 4c-1,0 -2,1 -2,2l-11 0c0,-1 0,-2 -1,-2l0 -4c1,0 1,0 1,-1l11 0c0,1 1,1 2,1z"/>
        <path class="fil11" d="M9 34c0,1 -1,2 -1,2 -1,0 -2,-1 -2,-2 0,0 1,-1 2,-1 0,0 1,1 1,1z"/>
        <path class="fil9" d="M0 33l0 6 5 0c-1,0 -3,-1 -3,-2 -1,-1 -2,-2 -2,-4z"/>
        <polygon class="fil11" points="11,35 12,35 12,34 11,34 "/>
        <polygon class="fil11" points="3,35 5,35 5,34 3,34 "/>
       </g>
      </g>
     </g>
     <rect class="fil2" x="2" width="46.48" height="5.598" rx="1" ry="1"/>
    </g>
   </g>
   <g>
    <circle class="fil12" cx="38" cy="3" r="1"/>
    <circle class="fil12" cx="41" cy="3" r="1"/>
    <circle class="fil12" cx="45" cy="3" r="1"/>
   </g>
   <g>
    <circle class="fil13" cx="32" cy="14" r="5"/>
    <path class="fil14" d="M33 16c0,0 0,-1 0,-1 0,0 -1,0 -1,0 0,0 0,0 -1,0 0,-1 0,-1 0,-1 0,0 0,0 -1,0 0,0 0,-1 0,-1 0,0 0,-1 1,-1 0,0 0,0 1,0l0 -1 0 0 0 1c1,0 1,0 2,0 0,0 0,1 0,1l-1 0c0,0 0,0 0,0 -1,0 -1,-1 -1,-1 0,0 0,0 0,1 -1,0 -1,0 -1,0 0,0 0,0 1,1 0,0 0,0 0,0 1,0 1,0 1,0 0,0 0,1 0,1 1,0 1,0 1,0 0,0 0,1 0,1 0,0 0,1 0,1 -1,0 -1,0 -2,0l0 1 0 0 0 -1c-1,0 -1,0 -1,0 -1,-1 -1,-1 -1,-2l1 0c0,1 0,1 0,1 1,0 1,0 1,0 0,0 0,0 1,0 0,0 0,0 0,0z"/>
   </g>
  </g>
 </g>
</svg>
