<?xml version="1.0" encoding="UTF-8"?>
<!DOCTYPE svg PUBLIC "-//W3C//DTD SVG 1.1//EN" "http://www.w3.org/Graphics/SVG/1.1/DTD/svg11.dtd">
<!-- Creator: CorelDRAW X7 -->
<svg xmlns="http://www.w3.org/2000/svg" xml:space="preserve" width="36px" height="48px" version="1.1" style="shape-rendering:geometricPrecision; text-rendering:geometricPrecision; image-rendering:optimizeQuality; fill-rule:evenodd; clip-rule:evenodd"
viewBox="0 0 36 47"
 xmlns:xlink="http://www.w3.org/1999/xlink">
 <defs>
  <style type="text/css">
   <![CDATA[
    .fil7 {fill:#FEFEFE}
    .fil0 {fill:#FEFEFE}
    .fil4 {fill:#00A859}
    .fil2 {fill:#2887D2}
    .fil3 {fill:white}
    .fil5 {fill:#FFF212;fill-rule:nonzero}
    .fil1 {fill:#2887D2;fill-rule:nonzero}
    .fil6 {fill:url(#id0);fill-rule:nonzero}
   ]]>
  </style>
  <linearGradient id="id0" gradientUnits="userSpaceOnUse" x1="11.9378" y1="15.0062" x2="20.8563" y2="46.9193">
   <stop offset="0" style="stop-opacity:1; stop-color:#1CC8EB"/>
   <stop offset="0.631373" style="stop-opacity:1; stop-color:#0E96E0"/>
   <stop offset="1" style="stop-opacity:1; stop-color:#0063D4"/>
  </linearGradient>
 </defs>
 <g id="Layer_x0020_1">
  <metadata id="CorelCorpID_0Corel-Layer"/>
  <g id="_306928744">
   <g>
    <g>
     <path class="fil0" d="M10 6l14 2c0,3 2,4 5,5 0,0 0,0 1,0l-3 14 -20 -4 3 -17z"/>
     <path id="1" class="fil1" d="M23 9l-13 -3 0 0 14 2 0 0 -1 1zm1 -1l0 0 0 0 0 0zm5 4l0 1 0 0 0 0 -1 0 0 0 0 0 0 0 -1 0 0 0 0 0 0 -1 -1 0 0 0 0 0 0 0 0 0 -1 0 0 0 0 -1 0 0 0 0 0 0 -1 0 0 -1 0 0 0 0 0 0 0 0 0 0 0 -1 -1 0 0 0 0 0 0 -1 1 0 0 0 0 1 0 0 0 0 0 0 0 0 1 0 0 1 0 0 0 0 0 0 0 0 0 0 0 1 1 0 0 0 0 0 0 0 0 0 0 0 1 1 0 0 0 0 0 0 0 0 1 0 0 0 0 0 0 0 0 0 1 0 0 0 0 0zm1 1l-1 0 1 0 0 0 0 0 0 0 0 0 0 0 0 0 0 0 -1 0 0 0 0 0 0 0 0 0 0 0 0 0 0 0 0 0 0 0 0 0 0 0 0 0 0 0 0 0 0 0 0 0 0 0 0 0 0 0 0 0 0 0 0 0 0 0 0 0 0 -1 0 0 0 0 0 0 0 0 0 0 0 0 0 0 0 0 0 0 0 0 0 0 0 0 0 0 0 0 0 0 0 0 0 0 0 0 0 0 0 0 0 0 1 0 0 0 0 0 0 0 0 0 0 0 0 0 0 0 0 0 0 0 0 0 0 1zm0 -1l0 0 0 1 0 -1zm-3 15l2 -14 1 0 -2 14 -1 0 0 0zm1 0l0 0 -1 0 1 0zm-21 -4l21 3 -1 1 -20 -3 -1 -1 1 0zm0 1l-1 0 0 -1 1 1zm3 -18l-3 17 -1 0 3 -17 1 0 0 0zm-1 0l0 0 1 0 -1 0z"/>
    </g>
    <path class="fil2" d="M23 5l-12 -2c0,-1 -1,0 -1,0l0 2c0,0 0,0 0,1l13 2c0,-1 0,-2 0,-3 0,0 0,0 0,0z"/>
    <circle class="fil3" transform="matrix(0.0580796 0.00949977 -0.00949985 0.0580791 12.403 4.3603)" r="12"/>
    <circle class="fil3" transform="matrix(0.0580796 0.00949977 -0.00949985 0.0580791 14.3281 4.67518)" r="12"/>
    <circle class="fil3" transform="matrix(0.0580796 0.00949977 -0.00949985 0.0580791 16.2532 4.99006)" r="12"/>
    <g>
     <rect class="fil2" transform="matrix(0.38662 0.0632374 -0.0356794 0.218132 11.1418 9.37338)" width="26.5933" height="4.62528"/>
     <rect class="fil2" transform="matrix(0.38662 0.0632374 -0.0356794 0.218132 10.7181 11.9637)" width="26.5933" height="4.62528"/>
     <rect class="fil2" transform="matrix(0.38662 0.0632374 -0.0356794 0.218132 10.2833 14.622)" width="26.5933" height="4.62528"/>
     <rect class="fil2" transform="matrix(0.38662 0.0632374 -0.0356794 0.218132 9.84853 17.2802)" width="26.5933" height="4.62528"/>
     <rect class="fil2" transform="matrix(0.38662 0.0632374 -0.0356794 0.218132 9.43285 19.8216)" width="26.5933" height="4.62528"/>
    </g>
    <g>
     <circle class="fil4" transform="matrix(0.210331 0.0344028 -0.0344031 0.21033 29.9748 6.02492)" r="28"/>
     <path class="fil5" d="M31 8c0,0 0,-1 0,-1 -1,0 -1,0 -1,0 0,-1 -1,-1 -1,-1 0,0 0,0 -1,0 0,-1 0,-1 0,-1 0,0 0,-1 0,-1 0,-1 0,-1 1,-1 0,-1 1,-1 1,-1l1 -1 0 0 0 1c1,1 1,1 1,1 1,1 1,1 1,2l-2 0c0,-1 0,-1 0,-1 0,0 0,0 -1,0 0,-1 0,0 0,0 0,0 0,0 0,0 -1,1 0,1 0,1 0,0 0,0 0,0 1,1 1,1 1,1 0,0 1,0 1,1 0,0 0,0 0,0 0,1 0,1 0,1 0,1 0,1 -1,1 0,1 -1,1 -1,1l0 1 -1 0 0 -1c-1,0 -1,-1 -1,-1 -1,-1 -1,-1 -1,-2l2 0c0,1 0,1 0,1 0,0 0,1 1,1 0,0 0,0 0,0 1,-1 1,-1 1,-1z"/>
    </g>
   </g>
   <g id="_306928624">
    <path class="fil6" d="M10 41c-2,0 -3,1 -3,3 0,2 1,3 3,3 2,0 3,-1 3,-3 0,-2 -1,-3 -3,-3zm-10 -26l0 3 3 0 6 12 -2 4c0,1 0,1 0,2 0,2 1,3 3,3l20 0 0 -3 -20 0c0,0 0,0 0,0l0 -1 2 -2 12 0c1,0 2,-1 3,-2l5 -11c1,0 1,0 1,-1 0,0 -1,-1 -2,-1l-24 0 -2 -3 -5 0zm26 26c-2,0 -3,1 -3,3 0,2 1,3 3,3 2,0 4,-1 4,-3 0,-2 -2,-3 -4,-3z"/>
    <rect class="fil7" x="10" y="21" width="17.9019" height="1.54789" rx="1" ry="1"/>
    <rect class="fil7" x="11" y="25" width="14.8061" height="1.54789" rx="1" ry="1"/>
    <rect class="fil7" x="13" y="28" width="10.9027" height="1.54789" rx="0" ry="1"/>
   </g>
  </g>
 </g>
</svg>
