<?xml version="1.0" encoding="UTF-8"?>
<!DOCTYPE svg PUBLIC "-//W3C//DTD SVG 1.1//EN" "http://www.w3.org/Graphics/SVG/1.1/DTD/svg11.dtd">
<!-- Creator: CorelDRAW X7 -->
<svg xmlns="http://www.w3.org/2000/svg" xml:space="preserve" width="50px" height="50px" version="1.1" style="shape-rendering:geometricPrecision; text-rendering:geometricPrecision; image-rendering:optimizeQuality; fill-rule:evenodd; clip-rule:evenodd"
viewBox="0 0 50 50"
 xmlns:xlink="http://www.w3.org/1999/xlink">
 <defs>
  <style type="text/css">
   <![CDATA[
    .fil0 {fill:none}
    .fil5 {fill:#FEFEFE}
    .fil1 {fill:#FEFEFE}
    .fil3 {fill:#2887D2}
    .fil2 {fill:#2887D2;fill-rule:nonzero}
    .fil4 {fill:url(#id0);fill-rule:nonzero}
   ]]>
  </style>
  <linearGradient id="id0" gradientUnits="userSpaceOnUse" x1="20.181" y1="14.8139" x2="29.8179" y2="49.3031">
   <stop offset="0" style="stop-opacity:1; stop-color:#1CC8EB"/>
   <stop offset="0.631373" style="stop-opacity:1; stop-color:#0E96E0"/>
   <stop offset="1" style="stop-opacity:1; stop-color:#0063D4"/>
  </linearGradient>
 </defs>
 <g id="Layer_x0020_1">
  <metadata id="CorelCorpID_0Corel-Layer"/>
  <rect class="fil0" width="50" height="50"/>
  <g id="_876512168">
   <g>
    <g>
     <path class="fil1" d="M21 1c10,1 11,2 21,3l-4 20 -21 -3 4 -20z"/>
     <path id="1" class="fil2" d="M43 4l-2 0 1 0 -1 0 -1 0 -1 0 0 0 -1 0 -1 0 0 0 -1 0 -1 -1 0 0 -1 0 0 0 -1 0 0 0 -1 0 -1 0 0 0 -1 0 0 0 -1 0 0 0 -1 0 0 -1 -1 0 -1 0 0 0 -1 0 -1 0 0 0 -1 0 -1 0 -1 0 0 -2 1 1 1 0 1 0 1 0 0 0 1 0 1 0 0 0 1 0 0 0 1 1 1 0 0 0 1 0 0 0 1 0 0 0 1 0 0 0 1 0 0 0 1 0 0 0 1 0 1 1 0 0 1 0 1 0 1 0 0 0 1 0 1 0 1 1zm-1 -1l1 0 0 1 -1 -1zm-5 20l4 -19 2 0 -5 20 -1 0 0 -1zm1 1l0 0 -1 0 1 0zm-20 -4l20 3 -1 1 -20 -3 0 0 1 -1zm-1 1l0 0 0 0 0 0zm5 -20l-4 20 -1 0 4 -20 0 -1 1 1zm-1 0l0 -1 0 0 0 1z"/>
    </g>
    <g>
     <rect class="fil3" transform="matrix(0.513398 0.07082 -0.0473791 0.244288 23.3652 4.82455)" width="26.9536" height="4.68794"/>
     <rect class="fil3" transform="matrix(0.513398 0.07082 -0.0473791 0.244288 22.7949 7.76482)" width="26.9536" height="4.68794"/>
     <rect class="fil3" transform="matrix(0.513398 0.07082 -0.0473791 0.244288 22.2097 10.7821)" width="26.9536" height="4.68794"/>
     <rect class="fil3" transform="matrix(0.513398 0.07082 -0.0473791 0.244288 21.6245 13.7994)" width="26.9536" height="4.68794"/>
     <rect class="fil3" transform="matrix(0.513398 0.07082 -0.0473791 0.244288 21.0651 16.6841)" width="26.9536" height="4.68794"/>
    </g>
   </g>
   <g id="_876512648">
    <g>
     <path class="fil1" d="M19 3c9,2 11,2 20,3l-4 20 -20 -3 4 -20z"/>
     <path id="1" class="fil2" d="M40 6l-1 0 0 1 -1 0 -1 -1 0 0 -1 0 -1 0 -1 0 0 0 -1 0 0 0 -1 0 -1 0 0 0 -1 0 0 -1 -1 0 0 0 -1 0 0 0 -1 0 0 0 -1 0 0 0 -1 0 -1 0 0 0 -1 0 -1 -1 0 0 -1 0 -1 0 -1 0 -1 0 1 -1 1 0 0 0 1 0 1 0 1 0 0 0 1 1 1 0 0 0 1 0 0 0 1 0 0 0 1 0 0 0 1 0 0 0 1 0 1 0 0 1 1 0 0 0 1 0 0 0 1 0 1 0 0 0 1 0 1 0 1 0 0 0 1 1 1 0zm-1 0l1 0 0 0 -1 0zm-5 20l5 -20 1 0 -4 20 -1 0 -1 0zm2 0l-1 1 0 -1 1 0zm-21 -3l20 2 0 1 -20 -2 -1 -1 1 0zm0 1l-1 0 0 -1 1 1zm4 -21l-4 20 -1 0 4 -20 1 0 0 0zm-1 0l0 0 1 0 -1 0z"/>
    </g>
    <g id="_876512456">
     <rect class="fil3" transform="matrix(0.513398 0.07082 -0.0473791 0.244288 20.6797 7.17908)" width="26.9536" height="4.68794"/>
     <rect class="fil3" transform="matrix(0.513398 0.07082 -0.0473791 0.244288 20.1095 10.7759)" width="26.9536" height="4.68794"/>
     <rect class="fil3" transform="matrix(0.513398 0.07082 -0.0473791 0.244288 19.135 14.1215)" width="26.9536" height="4.68794"/>
     <rect class="fil3" transform="matrix(0.513398 0.07082 -0.0473791 0.244288 18.3796 19.0386)" width="26.9536" height="4.68794"/>
    </g>
   </g>
   <g>
    <path class="fil4" d="M15 42c-2,0 -4,2 -4,4 0,1 2,3 4,3 2,0 3,-2 3,-3 0,-2 -1,-4 -3,-4zm-11 -27l0 4 4 0 6 12 -2 4c-1,1 -1,2 -1,2 0,2 2,4 4,4l27 0 0 -4 -27 0c0,0 0,0 0,0l0 0 2 -3 19 0c2,0 3,-1 3,-2l6 -11c1,0 1,0 1,-1 0,-1 -1,-1 -2,-1l-32 0 -2 -4 -6 0zm34 27c-2,0 -3,2 -3,4 0,1 1,3 3,3 2,0 3,-2 3,-3 0,-2 -1,-4 -3,-4z"/>
    <rect class="fil5" x="15" y="22" width="25.6784" height="1.59935" rx="1" ry="1"/>
    <rect class="fil5" x="17" y="26" width="21.2378" height="1.59935" rx="1" ry="1"/>
    <rect class="fil5" x="20" y="29" width="15.6387" height="1.59935" rx="1" ry="1"/>
   </g>
  </g>
 </g>
</svg>
