<?xml version="1.0" encoding="UTF-8"?>
<!DOCTYPE svg PUBLIC "-//W3C//DTD SVG 1.1//EN" "http://www.w3.org/Graphics/SVG/1.1/DTD/svg11.dtd">
<!-- Creator: CorelDRAW X7 -->
<svg xmlns="http://www.w3.org/2000/svg" xml:space="preserve" width="48px" height="36px" version="1.1" style="shape-rendering:geometricPrecision; text-rendering:geometricPrecision; image-rendering:optimizeQuality; fill-rule:evenodd; clip-rule:evenodd"
viewBox="0 0 48 36"
 xmlns:xlink="http://www.w3.org/1999/xlink">
 <defs>
  <style type="text/css">
   <![CDATA[
    .fil8 {fill:#FEFEFE}
    .fil3 {fill:#B8E5FA}
    .fil7 {fill:#00AFEF}
    .fil1 {fill:#2887D2}
    .fil4 {fill:#FC4D44}
    .fil0 {fill:#51A8B1;fill-rule:nonzero}
    .fil6 {fill:#2887D2;fill-rule:nonzero}
    .fil2 {fill:url(#id0)}
    .fil5 {fill:url(#id1)}
   ]]>
  </style>
  <linearGradient id="id0" gradientUnits="userSpaceOnUse" x1="16.3394" y1="14.8772" x2="31.6512" y2="14.8772">
   <stop offset="0" style="stop-opacity:1; stop-color:#EEDEC5"/>
   <stop offset="0.368627" style="stop-opacity:1; stop-color:#F6EEE2"/>
   <stop offset="1" style="stop-opacity:1; stop-color:white"/>
  </linearGradient>
  <linearGradient id="id1" gradientUnits="userSpaceOnUse" x1="11.126" y1="28.9594" x2="36.9035" y2="28.9594">
   <stop offset="0" style="stop-opacity:1; stop-color:#CBE1F4"/>
   <stop offset="0.368627" style="stop-opacity:1; stop-color:#E5F0F9"/>
   <stop offset="1" style="stop-opacity:1; stop-color:white"/>
  </linearGradient>
 </defs>
 <g id="Layer_x0020_1">
  <metadata id="CorelCorpID_0Corel-Layer"/>
  <g id="_815224080">
   <path class="fil0" d="M17 24c-1,-1 -3,-2 -5,-3 0,0 0,0 0,0l0 -2c0,0 0,0 0,0 0,-1 1,-2 1,-3 1,0 1,0 1,-1l0 -2c0,0 0,-1 0,-1l0 -2c0,0 0,-2 -1,-3 -1,-1 -2,-1 -4,-1 -2,0 -2,0 -3,1 -1,0 -1,-1 -2,0 -1,1 0,3 0,3l0 2c-1,0 -1,1 -1,1l0 2c0,0 0,1 1,1 0,2 1,3 1,3l0 2c0,0 0,0 0,0l-4 2c0,1 -1,1 -1,1l0 4c0,0 17,1 17,0 0,0 0,-4 0,-4z"/>
   <path class="fil0" d="M48 24c-1,-1 -3,-2 -5,-3 0,0 -1,0 -1,0l0 -2c1,0 1,0 1,0 0,-1 1,-2 1,-3 1,0 1,0 1,-1l0 -2c0,0 0,-1 0,-1l0 -2c0,0 0,-2 -1,-3 -1,-1 -3,-1 -5,-1 -2,0 -1,0 -2,1 -1,0 -1,-1 -2,0 -1,1 -1,3 -1,3l0 2c0,0 0,1 0,1l0 2c0,0 0,1 1,1 0,2 1,3 1,3l0 2c0,0 0,0 0,0l-4 2c-1,1 -1,1 -1,1l0 4c0,0 17,1 17,0 0,0 0,-4 0,-4z"/>
   <g>
    <g>
     <path class="fil1" d="M16 6l0 3c0,1 0,1 0,1 -1,1 -1,2 -1,2 0,1 0,1 1,1l0 1c0,0 0,0 0,0 1,0 1,1 1,2l1 1c0,0 0,0 0,0 0,0 0,0 0,0l0 1c1,0 1,1 2,1l1 1c0,0 0,0 0,0 0,0 0,0 1,0 0,0 0,1 1,1 1,0 2,0 3,-1 1,0 2,0 2,-1 1,0 1,-1 2,-1 1,-1 0,-1 1,-2 0,-1 0,-1 0,-1 0,0 0,0 0,-1 1,0 1,0 1,0 0,0 1,-1 1,-1 0,-1 0,-2 0,-2 -1,-1 -1,-1 -1,-1 0,-1 0,-1 0,-2 0,-3 0,-5 -2,-6 -1,0 -1,0 -1,-1 0,0 -1,0 -1,0 -4,-2 -10,-1 -12,4 0,0 0,1 0,1z"/>
     <path class="fil2" d="M24 20c1,0 2,-1 3,-1 1,-1 1,-1 2,-2 0,0 0,0 0,0 0,0 1,-1 1,-1 0,0 0,0 0,-1l0 0c1,-1 0,-1 1,-2 0,0 0,0 0,-1 1,0 1,0 1,-1 0,0 -1,0 -1,0 0,-1 0,-1 0,-1 0,0 0,0 0,0 -1,0 -1,2 -3,1l-2 -1c-1,0 -4,0 -5,1 0,0 -2,0 -2,0 -1,0 -1,0 -1,-1 0,0 -1,0 -1,0l0 1c-1,0 -1,0 -1,0 0,1 1,2 1,2 1,1 1,1 1,2 0,0 0,1 0,1 1,1 1,1 2,2 0,1 0,0 1,1l1 0c1,1 1,1 2,1z"/>
     <path class="fil3" d="M17 6c0,1 0,2 1,2 3,-2 8,-3 12,-1 0,0 0,1 1,1 0,-2 0,-3 -1,-5 -1,-1 -1,-1 -2,-1 -3,-2 -7,-1 -10,1l0 0c0,1 -1,2 -1,3z"/>
     <path class="fil4" d="M18 9c0,0 0,0 0,0l1 1c0,0 0,0 1,0 1,0 1,0 2,-1 1,0 3,0 4,0l2 1c1,0 1,0 2,-1 0,0 0,0 0,0 -4,-2 -9,-2 -12,0z"/>
     <path class="fil1" d="M21 11c0,0 -1,0 0,1 0,0 0,0 0,0 0,1 0,1 1,1 0,-1 0,-2 -1,-2z"/>
     <path class="fil1" d="M27 12c0,0 0,-1 0,-1 -1,0 -1,1 -1,2 1,0 1,-1 1,-1z"/>
    </g>
    <g>
     <path class="fil5" d="M19 23c0,0 -6,1 -7,2 -1,1 -1,9 -1,9 0,0 0,2 2,2 1,0 9,0 11,0 1,0 10,0 11,0 2,0 2,-2 2,-2 0,0 0,-8 -1,-9 -1,-1 -7,-2 -7,-2 0,0 -1,-1 -2,-1 -1,0 -3,0 -3,0 -1,0 -2,0 -3,0 -2,0 -3,1 -2,1z"/>
     <path id="1" class="fil6" d="M12 25l0 -1 0 0 0 0 0 0 0 0 0 0 1 0 0 0 0 0 0 0 1 -1 0 0 0 0 0 0 1 0 0 0 0 0 1 0 0 0 0 0 0 0 1 -1 0 0 0 0 1 0 0 0 0 0 0 0 0 0 0 0 1 0 0 0 0 0 0 0 0 1 0 0 0 0 0 0 0 0 0 0 -1 0 0 0 0 0 0 0 0 1 -1 0 0 0 0 0 0 0 -1 0 0 0 0 0 -1 0 0 0 0 0 0 0 -1 1 0 0 0 0 -1 0 0 0 0 0 0 0 0 0 -1 0 0 0 0 0 0 0zm0 9l-1 0 0 0 0 0 0 0 0 0 0 0 0 0 0 0 0 -1 -1 0 0 0 0 -1 0 0 0 -1 0 0 0 0 0 -1 1 0 0 -1 0 0 0 0 0 -1 0 0 0 -1 0 0 0 -1 0 0 0 0 0 0 0 -1 0 0 0 0 0 -1 1 0 0 1 0 0 0 0 0 0 0 1 0 0 0 0 0 0 0 1 0 0 0 0 0 1 0 0 0 1 0 0 0 0 0 1 0 0 0 1 0 0 0 0 0 1 0 0 0 1 0 0 0 0 0 0 0 1 0 0 0 0 0 0 0 0 0 0 0 0zm1 1l0 1 0 0 -1 0 0 0 0 0 0 0 0 0 0 0 0 0 -1 0 0 0 0 0 0 0 0 0 0 0 0 0 0 -1 0 0 0 0 0 0 0 0 0 0 0 0 0 0 0 0 0 0 0 0 0 0 0 -1 0 0 0 0 0 0 0 0 0 0 1 0 0 0 0 0 0 0 0 0 0 0 0 0 0 0 0 0 0 0 0 1 0 0 0 0 0 0 0 0 0 0 0 0 0 0 0 0 0 0 0 0 0 0 0 0 0 0 0 0 0 0 0 0 0 0 0 0 0 0 1 0 0 0 0 0 0 0zm11 0l0 1 0 0 0 0 -1 0 0 0 0 0 0 0 -1 0 0 0 0 0 -1 0 0 0 -1 0 0 0 0 0 -1 0 0 0 -1 0 0 0 -1 0 0 0 -1 0 0 0 0 0 -1 0 0 0 -1 0 0 0 0 0 -1 0 0 0 0 0 0 0 0 0 0 -1 0 0 0 0 0 0 0 0 1 0 0 0 0 0 1 0 0 0 1 0 0 0 0 0 1 0 0 0 1 0 0 0 1 0 0 0 0 0 1 0 0 0 1 0 0 0 1 0 0 0 0 0 1 0 0 0 0 0 0 0 1 0 0 0 0 0zm0 0l0 0 0 0 0 0zm11 0l0 1 0 0 0 0 0 0 0 0 -1 0 0 0 0 0 -1 0 0 0 0 0 -1 0 0 0 -1 0 0 0 0 0 -1 0 0 0 -1 0 0 0 -1 0 0 0 -1 0 0 0 -1 0 0 0 0 0 -1 0 0 0 0 0 -1 0 0 0 0 0 0 0 0 -1 0 0 0 0 0 0 1 0 0 0 0 0 1 0 0 0 0 0 1 0 0 0 1 0 0 0 1 0 0 0 1 0 0 0 1 0 0 0 0 0 1 0 0 0 1 0 0 0 0 0 1 0 0 0 0 0 1 0 0 0 0 0 0 0 0 0zm1 -1l1 0 0 0 0 0 0 0 0 0 0 0 0 0 0 0 0 1 0 0 0 0 0 0 0 0 0 0 0 0 0 0 0 0 0 0 0 0 0 1 0 0 0 0 0 0 0 0 0 0 0 0 -1 0 0 0 0 0 0 0 0 0 0 0 0 0 -1 0 0 -1 0 0 0 0 1 0 0 0 0 0 0 0 0 0 0 0 0 0 0 0 0 0 0 0 0 0 0 0 0 0 0 0 0 0 0 0 0 0 0 0 0 0 0 0 0 -1 0 0 0 0 0 0 0 0 0 0 0 0 0 0 0 0 0 0 0 0zm0 -9l0 -1 0 0 1 0 0 1 0 0 0 0 0 0 0 1 0 0 0 0 0 1 0 0 0 1 0 0 0 1 0 0 1 0 0 1 0 0 0 1 0 0 0 0 0 1 0 0 0 1 0 0 0 0 0 1 0 0 0 0 0 0 0 0 -1 0 0 0 -1 0 0 0 0 0 0 0 0 0 0 0 0 -1 0 0 0 0 0 0 0 -1 0 0 0 -1 0 0 0 0 0 -1 0 0 0 -1 0 0 0 0 0 -1 0 0 0 -1 0 0 0 0 0 -1 0 0 0 0 0 0 0 -1 0 0 0 0 0 0 0 0zm-7 -3l0 1 0 -1 0 0 0 0 0 0 0 0 0 0 1 0 0 0 0 0 0 0 0 0 1 0 0 0 0 1 1 0 0 0 0 0 1 0 0 0 0 0 0 0 1 0 0 0 0 0 1 1 0 0 0 0 0 0 1 0 0 0 0 0 0 0 0 0 0 1 0 0 0 0 -1 0 0 0 0 0 0 0 0 0 -1 0 0 0 0 0 -1 -1 0 0 0 0 -1 0 0 0 0 0 0 0 -1 0 0 0 0 0 -1 0 0 0 0 -1 0 0 -1 0 0 0 0 0 0 0 0 0 0 0 0 0 0 0 0 -1zm-2 1l0 -2 0 0 0 0 0 1 1 0 0 0 0 0 0 0 0 0 0 0 0 0 0 0 0 0 0 0 1 0 0 0 0 0 0 0 0 0 0 0 0 0 0 0 0 0 0 0 0 0 0 0 0 0 0 0 1 0 -1 1 0 0 0 0 0 0 0 0 0 -1 0 0 0 0 0 0 0 0 -1 1 1 0 0 0 0 0 0 0 0 0 0 0 0 0 0 0 -1 0 0 0 0 0 0 0 0 0 0 0 0 0 0 0 0 0 0 0 0 0 0 0 0 0 -1 0 0 0 0 0 0 0 0 0 0 0 0 0zm-3 0l0 -1 0 0 0 0 0 0 0 0 0 0 0 0 0 0 0 0 0 0 0 0 1 0 0 0 0 0 0 0 0 0 0 -1 0 0 0 0 0 0 1 0 0 0 0 0 0 0 0 0 0 0 0 0 0 0 1 0 0 0 0 0 0 0 0 0 0 0 0 2 0 0 0 0 0 0 0 0 0 0 -1 0 0 0 0 0 0 0 0 0 0 0 0 0 0 0 0 0 -1 0 0 0 0 0 0 0 0 0 0 0 0 0 0 0 0 0 -1 0 0 0 0 0 0 0 0 0 0 0 0 0 0 0 0 0 0 0zm0 0l0 0 0 0 0 0zm-3 0l-1 -2 0 0 1 0 0 0 0 0 0 0 0 0 0 0 0 0 0 0 1 0 0 0 0 0 0 0 0 0 0 0 0 0 0 0 0 0 1 1 0 0 0 0 0 0 0 0 0 0 0 0 0 0 0 0 1 0 0 0 0 0 0 0 0 0 0 0 0 1 0 0 0 0 -1 0 0 0 0 0 0 0 0 0 0 0 0 0 0 0 0 0 0 0 0 0 -1 0 0 0 0 0 0 0 0 0 0 0 0 0 0 0 0 0 0 0 -1 0 0 0 0 0 0 0 0 0 0 0 0 0 0 0 0 0 0 0zm-2 0l0 -1 0 1 0 0 0 0 0 0 0 0 -1 -1 0 0 0 0 1 0 0 0 0 0 0 0 0 0 0 0 0 0 0 0 0 0 0 0 0 0 0 0 0 0 0 0 0 0 1 0 0 0 0 0 0 0 0 0 0 0 0 0 0 0 0 -1 0 0 1 2 0 0 -1 0 0 0 0 0 0 0 0 0 0 0 0 0 0 0 0 0 0 0 0 0 0 0 -1 0 0 0 0 0 0 0 0 0 0 0 0 0 0 0 0 0 0 0 0 0 0 0 0 0 0 0 0 -1 0 0 0 0 0 0 0 0 0 1z"/>
    </g>
    <path class="fil1" d="M24 22l0 0 -1 2c0,0 0,0 0,0 0,0 1,0 1,1 0,0 -2,11 -2,11l2 0 0 0 2 0c0,0 -2,-11 -2,-11 0,-1 1,-1 1,-1 0,0 0,0 0,0l-1 -2z"/>
    <g>
     <path class="fil7" d="M20 20l-1 2 3 3 2 -3c0,0 -2,-1 -3,-1 -1,-1 0,-1 -1,-1z"/>
     <path class="fil7" d="M28 20l1 2 -3 3 -2 -3c0,0 2,-1 3,-1 1,-1 0,-1 1,-1z"/>
    </g>
    <rect class="fil8" x="28" y="28" width="6.26363" height="3.54033"/>
    <g>
     <rect class="fil1" x="31" y="29" width="1.86095" height="0.49934"/>
     <rect class="fil1" x="29" y="29" width="1.86095" height="1.49768"/>
     <rect class="fil1" x="31" y="30" width="2.45135" height="0.49934"/>
    </g>
   </g>
  </g>
 </g>
</svg>
