<?xml version="1.0" encoding="UTF-8"?>
<!DOCTYPE svg PUBLIC "-//W3C//DTD SVG 1.1//EN" "http://www.w3.org/Graphics/SVG/1.1/DTD/svg11.dtd">
<!-- Creator: CorelDRAW X7 -->
<svg xmlns="http://www.w3.org/2000/svg" xml:space="preserve" width="49px" height="42px" version="1.1" style="shape-rendering:geometricPrecision; text-rendering:geometricPrecision; image-rendering:optimizeQuality; fill-rule:evenodd; clip-rule:evenodd"
viewBox="0 0 48 42"
 xmlns:xlink="http://www.w3.org/1999/xlink">
 <defs>
  <style type="text/css">
   <![CDATA[
    .fil10 {fill:#FEFEFE}
    .fil1 {fill:#A98F71}
    .fil5 {fill:#B8E5FA}
    .fil9 {fill:#00AFEF}
    .fil3 {fill:#2887D2}
    .fil0 {fill:#F0A71F}
    .fil6 {fill:#FC4D44}
    .fil2 {fill:#FFCB68}
    .fil8 {fill:#2887D2;fill-rule:nonzero}
    .fil7 {fill:url(#id0)}
    .fil4 {fill:url(#id1)}
   ]]>
  </style>
  <linearGradient id="id0" gradientUnits="userSpaceOnUse" x1="0.654804" y1="33.226" x2="30.2289" y2="33.226">
   <stop offset="0" style="stop-opacity:1; stop-color:#CBE1F4"/>
   <stop offset="0.368627" style="stop-opacity:1; stop-color:#E5F0F9"/>
   <stop offset="1" style="stop-opacity:1; stop-color:white"/>
  </linearGradient>
  <linearGradient id="id1" gradientUnits="userSpaceOnUse" x1="6.63488" y1="17.0683" x2="24.2031" y2="17.0683">
   <stop offset="0" style="stop-opacity:1; stop-color:#EEDEC5"/>
   <stop offset="0.368627" style="stop-opacity:1; stop-color:#F6EEE2"/>
   <stop offset="1" style="stop-opacity:1; stop-color:white"/>
  </linearGradient>
 </defs>
 <g id="Layer_x0020_1">
  <metadata id="CorelCorpID_0Corel-Layer"/>
  <g id="_803263096">
   <g>
    <rect class="fil0" x="28" y="17" width="20.2576" height="20.2574"/>
    <rect class="fil1" x="35" y="19" width="6.6017" height="1.17551"/>
   </g>
   <g>
    <rect class="fil2" x="21" y="20" width="20.2576" height="20.2574"/>
    <rect class="fil1" x="28" y="21" width="6.6017" height="1.17551"/>
   </g>
   <g>
    <g>
     <path class="fil3" d="M7 7l0 3c0,1 -1,1 -1,2 -1,0 -1,1 0,2 0,0 0,1 0,1l0 1c0,0 1,0 1,0 0,0 0,2 1,2l0 2c0,0 0,0 0,0 0,0 0,0 0,0l1 0c0,1 1,2 2,2l1 1c0,0 0,0 0,0 0,0 0,0 1,0 0,0 0,1 1,1 1,0 3,0 4,-1 1,0 1,0 2,-1 1,0 1,-1 2,-2 1,-1 0,0 1,-2 0,0 0,0 1,-1 0,0 0,0 0,-1 0,0 0,0 0,0 1,0 1,-1 1,-2 0,0 0,-1 0,-2 0,0 0,0 0,0 -1,-1 -1,-2 -1,-3 0,-4 0,-5 -2,-7 0,0 -1,0 -1,0 0,-1 -1,-1 -1,-1 -5,-2 -12,-1 -13,5 -1,0 0,1 0,1z"/>
     <path class="fil4" d="M16 23c1,0 2,-1 3,-2 1,0 1,-1 2,-1 0,0 0,0 0,-1 1,0 1,0 1,-1 0,0 0,0 0,0l1 -1c0,-1 0,-1 1,-2 0,0 0,0 0,-1 0,0 0,0 0,-1 0,0 0,-1 0,-1 0,0 0,0 0,0 -1,0 -1,0 -1,-1 -1,1 -1,2 -3,2l-2 -1c-1,0 -5,0 -6,0 0,0 -2,1 -2,1 -1,0 -1,-1 -2,-1 0,0 0,-1 0,-1l-1 1c0,0 0,1 0,1 0,1 0,2 1,2 0,1 0,1 0,2 0,0 1,1 1,2 0,0 1,1 2,1 0,1 0,1 1,2l1 0c1,1 2,1 3,1z"/>
     <path class="fil5" d="M8 7c0,1 -1,2 0,2 4,-2 10,-3 14,-1 0,1 1,1 1,1 0,-2 1,-4 -1,-5 -1,-1 -1,-1 -2,-2 -3,-2 -9,-1 -11,1l0 1c-1,1 -1,2 -1,3z"/>
     <path class="fil6" d="M8 10c0,0 0,0 0,0l1 1c1,1 1,0 2,0 1,0 1,0 2,0 1,0 4,0 5,0l2 0c2,1 1,0 2,0 1,-1 1,-1 1,-1 -5,-2 -10,-2 -15,0z"/>
     <path class="fil3" d="M12 13c0,0 -1,0 -1,1 1,0 1,0 1,0 0,0 0,0 1,0 1,0 0,-2 -1,-1z"/>
     <path class="fil3" d="M19 14c0,-1 0,-1 0,-1 -2,-1 -2,1 -1,1 1,1 1,0 1,0z"/>
    </g>
    <g>
     <path class="fil7" d="M10 26c0,0 -7,2 -8,2 -2,1 -1,11 -1,11 0,0 0,2 1,2 2,0 11,0 13,0 2,0 12,0 13,0 2,0 2,-2 2,-2 0,0 1,-10 -1,-11 -1,0 -8,-2 -8,-2 0,0 -1,0 -2,-1 -1,0 -3,0 -4,1 -1,-1 -2,-1 -3,-1 -2,1 -3,1 -2,1z"/>
     <path id="1" class="fil8" d="M2 29l-1 -1 0 0 0 0 1 0 0 0 0 -1 0 0 1 0 0 0 0 0 0 0 1 0 0 0 0 0 1 0 0 -1 0 0 1 0 0 0 1 0 0 0 0 0 0 0 1 0 0 0 0 0 1 -1 0 0 0 0 0 0 0 0 0 0 0 0 0 0 1 2 0 0 0 0 0 0 -1 0 0 0 0 0 0 0 0 0 -1 0 0 0 0 0 0 0 -1 0 0 0 0 0 -1 0 0 1 0 0 -1 0 0 0 0 0 -1 0 0 0 0 0 -1 0 0 1 0 0 0 0 -1 0 0 0 0 0 0 0 0 0zm-1 10l-1 0 0 0 0 0 0 0 0 0 0 0 0 0 0 -1 0 0 0 0 0 -1 0 0 0 0 0 -1 0 0 0 -1 0 0 0 -1 0 0 0 -1 0 0 0 -1 0 0 0 -1 0 0 0 -1 0 0 0 0 0 -1 1 0 0 0 0 -1 0 0 0 0 1 1 0 0 0 0 0 0 0 0 0 1 0 0 0 0 0 1 0 0 -1 0 0 1 0 0 0 1 0 0 0 1 0 0 0 1 0 0 0 1 0 0 0 1 0 0 0 0 0 1 0 0 0 0 0 1 0 0 0 0 0 0 0 0 0 0 0 0zm1 1l0 2 0 0 0 0 0 0 0 0 0 0 -1 0 0 -1 0 0 0 0 0 0 0 0 0 0 0 0 0 0 -1 0 0 0 0 -1 0 0 0 0 0 0 0 0 0 0 0 0 0 0 0 0 0 0 0 0 0 0 0 -1 0 0 0 0 0 0 0 0 1 0 0 0 0 0 0 0 0 0 0 0 0 0 0 0 0 1 0 0 0 0 0 0 0 0 0 0 0 0 0 0 0 0 1 0 0 0 0 0 0 0 0 0 0 0 0 0 0 0 0 0 0 0 0 0 0 0 0 0 0 0 0 0 0 0 0 0zm13 0l0 2 0 0 0 0 0 0 -1 0 0 0 0 0 -1 0 0 0 0 0 -1 0 0 0 -1 0 0 0 -1 0 0 0 -1 0 0 0 -1 0 0 0 -1 0 0 0 -1 0 0 0 -1 0 0 0 -1 0 0 0 0 0 -1 0 0 0 0 0 0 0 -1 0 0 -2 1 0 0 0 0 0 0 0 1 0 0 0 0 0 1 0 0 0 1 0 0 0 1 0 0 0 1 0 0 0 1 0 0 0 1 0 0 0 1 0 0 0 1 0 0 0 1 0 0 0 0 0 1 0 0 0 0 0 1 0 0 0 0 0 0 0zm0 0l0 0 0 0 0 0zm13 0l0 2 0 0 0 0 0 0 0 0 -1 0 0 0 0 0 -1 0 0 0 -1 0 0 0 -1 0 0 0 -1 0 0 0 -1 0 0 0 -1 0 0 0 -1 0 0 0 -1 0 0 0 -1 0 0 0 -1 0 0 0 0 0 -1 0 0 0 0 0 -1 0 0 0 0 -2 0 0 1 0 0 0 0 0 1 0 0 0 0 0 1 0 0 0 1 0 0 0 1 0 0 0 1 0 0 0 1 0 0 0 1 0 0 0 1 0 0 0 1 0 0 0 1 0 0 0 1 0 0 0 0 0 1 0 0 0 0 0 0 0 0 0zm2 -1l1 0 0 0 0 0 0 0 0 0 0 0 0 1 0 0 0 0 0 0 0 0 0 0 0 0 0 0 0 0 0 0 0 0 0 0 -1 1 0 0 0 0 0 0 0 0 0 0 0 0 0 0 0 0 0 0 -1 1 0 0 0 0 0 0 0 0 -1 0 0 -2 0 0 1 0 0 0 0 0 0 0 0 0 0 0 0 0 0 0 0 0 0 0 0 0 0 0 0 0 0 0 0 0 0 0 0 0 0 0 0 0 0 0 0 0 1 0 0 0 0 -1 0 0 0 0 0 0 0 0 0 0 0 0 0 0 0 0zm-1 -10l1 -1 0 0 0 0 0 0 0 1 0 0 0 0 0 1 1 0 0 0 0 1 0 0 0 1 0 0 0 1 0 0 0 1 0 0 0 1 0 0 0 1 0 0 0 1 0 0 0 0 0 1 0 0 0 0 0 1 0 0 0 0 0 0 0 0 0 0 -1 0 0 0 0 0 0 0 0 0 0 0 0 -1 0 0 0 0 0 -1 0 0 0 0 0 -1 0 0 0 -1 0 0 0 -1 0 0 0 -1 -1 0 0 -1 0 0 0 -1 0 0 0 0 0 -1 0 0 0 0 0 -1 0 0 0 0 0 0 0 0 0 0zm-8 -4l0 2 0 -2 0 0 0 0 0 0 0 0 1 0 0 0 0 0 0 1 1 0 0 0 0 0 0 0 1 0 0 0 0 0 1 0 0 0 1 0 0 1 0 0 1 0 0 0 0 0 1 0 0 0 0 0 1 0 0 0 0 1 0 0 0 0 1 0 -1 1 0 0 0 0 -1 0 0 0 0 0 0 0 0 -1 -1 0 0 0 0 0 -1 0 0 0 0 0 -1 0 0 0 -1 -1 0 0 0 0 -1 0 0 0 0 0 0 0 -1 0 0 0 0 0 0 0 -1 0 0 0 0 0 0 0 0 0 0 0 0 -2zm-2 1l0 -1 0 0 0 0 0 0 0 0 1 0 0 0 0 0 0 0 0 0 0 0 0 0 0 0 0 0 1 0 0 0 0 0 0 0 0 0 0 0 0 0 0 0 0 0 0 0 0 0 0 0 0 0 0 0 1 1 -1 1 0 0 0 0 0 0 0 0 0 -2 0 0 0 0 0 0 0 0 0 1 0 0 0 0 0 0 0 0 0 0 0 0 0 0 0 0 0 0 0 0 -1 0 0 0 0 0 0 0 0 0 0 0 0 0 0 0 0 0 0 0 0 0 -1 0 0 0 0 0 0 0 0 0 0 0 0 0zm-4 0l0 -1 0 0 0 0 0 0 0 0 0 0 0 0 1 0 0 0 0 0 0 0 0 0 0 0 0 0 0 0 1 0 0 0 0 0 0 0 0 0 0 0 0 0 1 0 0 0 0 0 0 0 0 0 0 0 0 0 1 0 0 0 0 0 0 0 0 0 0 1 0 0 0 0 0 0 -1 0 0 0 0 0 0 0 0 0 0 0 0 0 0 0 -1 0 0 0 0 0 0 0 0 0 0 0 0 0 0 0 -1 0 0 0 0 0 0 0 0 0 0 0 0 0 0 0 0 0 -1 0 0 0 0 0 0 0 0 0zm0 0l0 0 0 0 0 0zm-3 0l-1 -1 0 0 1 0 0 0 0 0 0 0 0 0 0 0 0 0 0 0 1 0 0 0 0 0 0 0 0 0 0 0 0 0 1 0 0 0 0 0 0 0 0 0 0 0 0 0 0 0 1 0 0 0 0 0 0 0 0 0 0 0 0 0 0 0 0 0 0 1 0 0 0 0 0 0 0 0 0 0 0 0 -1 0 0 0 0 0 0 0 0 0 0 0 0 0 0 0 0 0 -1 0 0 0 0 0 0 0 0 0 0 0 0 0 0 0 -1 0 0 0 0 0 0 0 0 0 0 0 0 0 0 0 0 0 0 0zm-2 1l-1 -2 1 2 0 0 0 0 -1 0 0 0 0 -1 0 -1 0 0 0 0 0 0 0 0 0 0 0 0 0 0 1 0 0 0 0 0 0 0 0 0 0 0 0 0 0 0 0 0 0 0 0 0 1 0 0 0 0 0 0 0 0 0 0 0 0 0 0 0 1 1 -1 0 0 0 0 0 0 0 0 0 0 0 0 0 0 0 0 0 0 0 -1 0 0 0 0 0 0 0 0 0 0 0 0 0 0 0 0 0 0 0 0 0 0 0 0 0 0 0 0 0 0 0 0 0 0 -1 -1 0 0 0 0 0 0 0 1 2z"/>
    </g>
    <path class="fil3" d="M15 26l0 0 -1 1c0,0 0,1 1,1 0,0 0,0 0,0 0,1 -1,13 -1,13l1 0 0 0 2 0c0,0 -1,-12 -1,-13 0,0 0,0 0,0 0,0 1,-1 1,-1l-2 -1z"/>
    <g>
     <path class="fil9" d="M11 23l-1 2 4 3 1 -3c0,0 -2,-1 -3,-1 -1,-1 0,-1 -1,-1z"/>
     <path class="fil9" d="M20 23l1 2 -4 3 -2 -3c0,0 3,-1 4,-1 1,-1 0,-1 1,-1z"/>
    </g>
    <rect class="fil10" x="21" y="32" width="7.18648" height="4.0619"/>
    <g>
     <rect class="fil3" x="24" y="34" width="2.13514" height="0.572905"/>
     <rect class="fil3" x="21" y="34" width="2.13514" height="1.71832"/>
     <rect class="fil3" x="24" y="35" width="2.81252" height="0.572905"/>
    </g>
   </g>
  </g>
 </g>
</svg>
