<?xml version="1.0" encoding="UTF-8"?>
<!DOCTYPE svg PUBLIC "-//W3C//DTD SVG 1.1//EN" "http://www.w3.org/Graphics/SVG/1.1/DTD/svg11.dtd">
<!-- Creator: CorelDRAW X7 -->
<svg xmlns="http://www.w3.org/2000/svg" xml:space="preserve" width="50px" height="50px" version="1.1" style="shape-rendering:geometricPrecision; text-rendering:geometricPrecision; image-rendering:optimizeQuality; fill-rule:evenodd; clip-rule:evenodd"
viewBox="0 0 50 50"
 xmlns:xlink="http://www.w3.org/1999/xlink">
 <defs>
  <style type="text/css">
   <![CDATA[
    .fil0 {fill:none}
    .fil11 {fill:#FEFEFE}
    .fil2 {fill:#A98F71}
    .fil6 {fill:#B8E5FA}
    .fil10 {fill:#00AFEF}
    .fil4 {fill:#2887D2}
    .fil3 {fill:#F0A71F}
    .fil7 {fill:#FC4D44}
    .fil1 {fill:#FFCB68}
    .fil9 {fill:#2887D2;fill-rule:nonzero}
    .fil8 {fill:url(#id0)}
    .fil5 {fill:url(#id1)}
   ]]>
  </style>
  <linearGradient id="id0" gradientUnits="userSpaceOnUse" x1="0.999244" y1="37.3051" x2="29.7564" y2="37.3051">
   <stop offset="0" style="stop-opacity:1; stop-color:#CBE1F4"/>
   <stop offset="0.368627" style="stop-opacity:1; stop-color:#E5F0F9"/>
   <stop offset="1" style="stop-opacity:1; stop-color:white"/>
  </linearGradient>
  <linearGradient id="id1" gradientUnits="userSpaceOnUse" x1="6.81399" y1="21.596" x2="23.8968" y2="21.596">
   <stop offset="0" style="stop-opacity:1; stop-color:#EEDEC5"/>
   <stop offset="0.368627" style="stop-opacity:1; stop-color:#F6EEE2"/>
   <stop offset="1" style="stop-opacity:1; stop-color:white"/>
  </linearGradient>
 </defs>
 <g id="Layer_x0020_1">
  <metadata id="CorelCorpID_0Corel-Layer"/>
  <rect class="fil0" width="50" height="50"/>
  <g id="_876509960">
   <g>
    <g>
     <rect class="fil1" x="26" y="19" width="19.6969" height="19.6969"/>
     <rect class="fil2" x="32" y="20" width="6.41895" height="1.14298"/>
    </g>
    <path class="fil3" d="M26 19l4 -2 19 0 -4 2c0,0 -19,0 -19,0z"/>
    <path class="fil3" d="M45 38l4 -2c0,0 0,-19 0,-19 0,0 -4,2 -4,2l0 19z"/>
   </g>
   <g>
    <g>
     <rect class="fil1" x="21" y="24" width="19.6969" height="19.6969"/>
     <rect class="fil2" x="27" y="25" width="6.41895" height="1.14298"/>
    </g>
    <path class="fil3" d="M21 24l4 -2 19 0 -4 2c0,0 -19,0 -19,0z"/>
    <path class="fil3" d="M40 44l4 -3c0,0 0,-19 0,-19 0,0 -4,2 -4,2l0 20z"/>
   </g>
   <g>
    <g>
     <path class="fil4" d="M7 12l0 3c0,1 0,1 -1,1 0,1 0,2 0,3 0,0 0,0 0,0l1 1c0,0 0,1 0,1 0,0 0,1 1,2l0 1c0,0 0,0 1,0 0,0 0,0 0,0l0 1c0,0 1,1 2,1l1 1c0,0 0,0 0,0 0,1 0,0 1,1 0,0 0,0 1,0 1,0 3,0 4,0 1,-1 1,-1 2,-2 1,0 1,0 2,-1 1,-2 0,-1 1,-3 0,0 0,0 0,0 0,-1 1,-1 1,-1 0,-1 0,-1 0,-1 0,0 1,-1 1,-1 0,-1 0,-2 0,-2 0,0 0,0 0,-1 -1,-1 -1,-1 -1,-3 0,-3 0,-4 -2,-6 -1,0 -1,0 -1,0 -1,-1 -1,-1 -1,-1 -5,-2 -12,-1 -13,4 0,1 0,2 0,2z"/>
     <path class="fil5" d="M15 27c2,0 3,0 4,-1 1,-1 1,-1 1,-2 1,0 1,0 1,0 0,-1 1,-1 1,-1 0,-1 0,-1 0,-1l0 -1c1,-1 1,-1 1,-2 1,0 1,0 1,0 0,0 0,-1 0,-1 0,0 0,-1 0,-1 -1,0 -1,0 -1,-1 0,0 0,0 0,0 -1,0 -1,2 -3,1l-2 0c-1,0 -5,0 -6,0 0,0 -2,0 -2,0 -1,0 -1,0 -2,0 0,-1 0,-1 0,-1l-1 1c0,0 0,0 0,1 0,1 0,1 1,2 0,0 0,1 0,1 0,1 1,2 1,2 1,1 1,1 2,2 0,1 0,0 1,1l1 1c1,0 2,0 2,0z"/>
     <path class="fil6" d="M8 12c0,1 0,2 0,2 4,-2 10,-3 14,-1 0,0 0,0 1,1 0,-2 0,-4 -1,-6 -1,-1 -1,0 -2,-1 -3,-2 -8,-1 -11,1l0 1c-1,0 -1,2 -1,3z"/>
     <path class="fil7" d="M8 15c0,0 0,0 0,0l1 1c1,1 1,0 2,0 1,0 1,0 2,0 1,-1 4,-1 5,0l2 0c1,1 1,0 2,-1 0,0 1,0 0,0 -4,-3 -9,-3 -14,0z"/>
     <path class="fil4" d="M12 17c0,0 -1,1 0,1 0,1 0,1 0,1 0,0 0,0 1,0 1,0 0,-2 -1,-2z"/>
     <path class="fil4" d="M19 19c0,-1 0,-2 0,-2 -2,0 -2,2 -1,2 1,0 1,0 1,0z"/>
    </g>
    <g>
     <path class="fil8" d="M2 33c-1,0 -1,10 -1,10 0,0 0,2 2,2 1,0 10,0 12,0 2,0 11,0 13,0 2,0 2,-2 2,-2 0,0 0,-10 -1,-10 -1,-1 -8,-3 -10,-3 -1,-1 -3,0 -4,0 -1,0 -2,-1 -3,0 -2,0 -9,2 -10,3z"/>
     <path id="1" class="fil9" d="M1 43l0 0 0 0 0 0 0 0 0 0 0 0 0 0 0 -1 0 0 0 0 0 -1 0 0 0 0 0 -1 0 0 0 -1 0 0 0 -1 0 0 0 -1 0 0 0 -1 0 0 0 -1 0 0 0 0 0 -1 0 0 0 0 0 -1 0 0 0 0 0 -1 1 0 0 1 0 0 0 0 0 0 0 0 0 1 0 0 0 0 0 1 0 0 0 1 0 0 0 0 -1 1 0 0 0 1 0 0 0 1 0 0 0 1 0 0 0 1 0 0 0 0 0 1 0 0 0 0 0 1 0 0 0 0 0 0 0 0 0 0 0 0zm2 2l0 0 0 0 0 0 -1 0 0 0 0 0 0 0 0 0 0 0 -1 0 0 0 0 0 0 0 0 0 0 0 0 -1 0 0 0 0 0 0 0 0 0 0 0 0 0 0 0 0 0 0 0 0 0 0 0 -1 0 0 0 0 0 0 0 0 0 0 0 0 0 0 0 0 0 0 0 0 0 0 0 0 0 0 0 0 0 0 0 1 0 0 1 0 0 0 0 0 0 0 0 0 0 0 0 0 0 0 0 0 0 0 0 0 0 0 0 0 0 0 0 0 0 0 0 0 0 0 0 0 0 1 1 0 0 0 0 0zm12 0l0 0 0 0 0 0 0 0 -1 0 0 0 0 0 -1 0 0 0 0 0 -1 0 0 0 -1 0 0 0 -1 0 0 0 -1 0 0 0 -1 0 0 0 -1 0 0 0 -1 0 0 0 -1 0 0 0 0 0 -1 0 0 0 0 0 -1 0 0 0 0 0 0 0 0 0 0 0 0 0 0 0 1 0 0 0 0 0 1 0 0 0 0 0 1 0 0 0 1 0 0 0 1 0 0 0 1 0 0 0 1 0 0 0 1 0 0 0 1 0 0 0 1 0 0 0 0 0 1 0 0 0 0 0 1 0 0 0 0 0 0 0zm0 0l0 0 0 0 0 0zm13 0l0 0 0 0 0 0 0 0 -1 0 0 0 0 0 -1 0 0 0 0 0 -1 0 0 0 -1 0 0 0 -1 0 0 0 -1 0 0 0 -1 0 0 0 -1 0 0 0 -1 0 0 0 -1 0 0 0 -1 0 0 0 -1 0 0 0 0 0 0 0 -1 0 0 0 0 0 0 0 1 0 0 0 0 0 0 0 1 0 0 0 1 0 0 0 1 0 0 0 1 0 0 0 1 0 0 0 1 0 0 0 1 0 0 0 1 0 0 0 1 0 0 0 1 0 0 0 0 0 1 0 0 0 0 0 1 0 0 0 0 0 0 0zm1 -2l1 0 0 0 0 0 0 0 0 0 0 0 0 0 0 0 0 1 0 0 0 0 0 0 0 0 0 0 0 0 0 0 0 0 0 0 0 0 0 0 0 1 0 0 0 0 -1 0 0 0 0 0 0 0 0 0 0 0 0 0 0 0 -1 0 0 0 0 0 0 0 0 0 0 0 0 -1 0 0 1 0 0 0 0 0 0 0 0 0 0 0 0 0 0 0 0 0 0 0 0 0 0 0 0 0 0 0 0 0 0 0 0 0 0 0 0 0 0 -1 0 0 0 0 0 0 0 0 0 0 0 0 0 0 0 0 0 0zm0 -10l0 -1 0 0 0 0 0 1 1 0 0 0 0 1 0 0 0 0 0 1 0 0 0 0 0 1 0 0 0 1 0 0 0 1 0 0 0 1 0 0 0 1 0 0 0 1 0 0 0 0 0 1 0 0 0 0 0 1 0 0 0 0 0 0 0 0 0 0 -1 0 0 0 0 0 0 0 0 0 0 0 0 -1 0 0 0 0 0 -1 0 0 0 0 0 -1 0 0 0 -1 0 0 0 -1 0 0 0 -1 0 0 0 -1 0 0 0 0 0 -1 0 0 0 -1 0 0 0 0 0 -1 0 0 0 0 0 0 0 0 0 0zm-10 -3l0 -1 0 0 0 0 0 0 1 0 0 0 0 1 0 0 1 0 0 0 1 0 0 0 0 0 1 0 0 0 1 0 0 1 0 0 1 0 0 0 1 0 0 0 0 0 1 0 0 0 0 1 1 0 0 0 0 0 0 0 1 0 0 0 0 0 0 0 0 1 0 0 -1 0 0 0 0 0 0 0 0 0 -1 -1 0 0 0 0 -1 0 0 0 0 0 -1 0 0 0 -1 0 0 -1 0 0 -1 0 0 0 -1 0 0 0 0 0 -1 0 0 0 0 -1 -1 0 0 0 0 0 -1 0 0 0 0 0 0 0 0 0zm-4 0l0 -1 0 0 0 0 0 0 0 0 0 0 0 0 1 0 0 0 0 0 0 0 0 0 0 0 0 0 0 0 0 0 1 0 0 0 0 0 0 0 0 0 0 0 0 0 1 0 0 0 0 0 0 0 0 0 0 0 0 0 0 0 1 0 0 0 0 0 0 1 0 0 0 0 -1 0 0 0 0 0 0 0 0 0 0 0 0 0 0 0 -1 0 0 0 0 0 0 0 0 0 0 0 0 0 0 0 -1 0 0 0 0 0 0 0 0 0 0 0 0 0 0 0 0 0 -1 0 0 0 0 0 0 0 0 0 0 0zm0 0l0 0 0 0 0 0zm-3 0l-1 -1 0 0 1 0 0 0 0 0 0 0 0 0 0 0 0 0 0 0 1 0 0 0 0 0 0 0 0 0 0 0 0 0 1 0 0 0 0 0 0 0 0 0 0 0 0 0 0 0 0 0 1 0 0 0 0 0 0 0 0 0 0 0 0 0 0 0 0 1 0 0 0 0 0 0 0 0 0 0 0 0 -1 0 0 0 0 0 0 0 0 0 0 0 0 0 0 0 0 0 -1 0 0 0 0 0 0 0 0 0 0 0 0 0 0 0 -1 0 0 0 0 0 0 0 0 0 0 0 0 0 0 0 0 0 0 0zm-10 3l0 -1 0 0 0 0 0 0 0 0 0 0 1 0 0 0 0 0 0 0 1 -1 0 0 0 0 1 0 0 0 0 0 1 0 0 0 1 0 0 -1 0 0 1 0 0 0 1 0 0 0 0 0 1 0 0 0 0 0 1 -1 0 0 0 0 0 0 0 0 1 1 -1 0 0 0 0 0 0 0 -1 0 0 0 0 0 -1 1 0 0 0 0 -1 0 0 0 0 0 -1 0 0 0 -1 0 0 1 0 0 -1 0 0 0 0 0 -1 0 0 0 0 0 -1 0 0 1 0 0 0 0 -1 0 0 0 0 0 0 0 0 0z"/>
    </g>
    <path class="fil4" d="M15 30l0 0 -1 2c0,0 0,0 1,0 0,0 0,0 0,0 0,1 -1,13 -1,13l1 0 0 0 2 0c0,0 -1,-12 -1,-13 0,0 0,0 0,0 0,0 1,0 1,0l-2 -2z"/>
    <g>
     <path class="fil10" d="M11 27l-1 2 4 3 1 -2c0,0 -2,-2 -3,-2 -1,0 0,-1 -1,-1z"/>
     <path class="fil10" d="M20 27l1 2 -4 3 -2 -2c0,0 2,-2 3,-2 1,0 1,-1 2,-1z"/>
    </g>
    <rect class="fil11" x="20" y="37" width="6.98755" height="3.94951"/>
    <g>
     <rect class="fil4" x="23" y="38" width="2.07603" height="0.557053"/>
     <rect class="fil4" x="21" y="38" width="2.07603" height="1.67078"/>
     <rect class="fil4" x="23" y="39" width="2.73467" height="0.557053"/>
    </g>
   </g>
  </g>
 </g>
</svg>
