<?xml version="1.0" encoding="UTF-8"?>
<!DOCTYPE svg PUBLIC "-//W3C//DTD SVG 1.1//EN" "http://www.w3.org/Graphics/SVG/1.1/DTD/svg11.dtd">
<!-- Creator: CorelDRAW X7 -->
<svg xmlns="http://www.w3.org/2000/svg" xml:space="preserve" width="120px" height="120px" version="1.1" style="shape-rendering:geometricPrecision; text-rendering:geometricPrecision; image-rendering:optimizeQuality; fill-rule:evenodd; clip-rule:evenodd"
viewBox="0 0 120 120"
 xmlns:xlink="http://www.w3.org/1999/xlink">
 <defs>
  <style type="text/css">
   <![CDATA[
    .fil0 {fill:none}
    .fil1 {fill:#2887D2;fill-rule:nonzero}
   ]]>
  </style>
 </defs>
 <g id="Layer_x0020_1">
  <metadata id="CorelCorpID_0Corel-Layer"/>
  <rect class="fil0" width="120" height="120"/>
  <path class="fil1" d="M15 100c25,22 61,25 88,3 0,0 1,-1 1,-1l1 -1c-6,-8 -17,-11 -26,-16 -2,-1 -3,-2 -3,-5l0 -7c0,0 1,-1 2,-2 2,-4 4,-8 6,-12 3,-2 5,-5 5,-9l0 -8c0,-2 -1,-5 -2,-6l0 -12c0,-1 1,-8 -5,-14 -4,-5 -12,-8 -22,-8 -11,0 -9,4 -13,6 -3,1 -6,-2 -9,2 -6,6 -4,13 -4,14l0 12c-2,1 -2,4 -2,6l0 8c0,3 1,6 3,7 2,8 6,14 8,16l0 7c0,2 -1,4 -3,5l-20 11c-2,1 -3,3 -5,4z"/>
 </g>
</svg>
