<?xml version="1.0" encoding="UTF-8"?>
<!DOCTYPE svg PUBLIC "-//W3C//DTD SVG 1.1//EN" "http://www.w3.org/Graphics/SVG/1.1/DTD/svg11.dtd">
<!-- Creator: CorelDRAW X7 -->
<svg xmlns="http://www.w3.org/2000/svg" xml:space="preserve" width="120px" height="120px" version="1.1" style="shape-rendering:geometricPrecision; text-rendering:geometricPrecision; image-rendering:optimizeQuality; fill-rule:evenodd; clip-rule:evenodd"
viewBox="0 0 120 120"
 xmlns:xlink="http://www.w3.org/1999/xlink">
 <defs>
  <style type="text/css">
   <![CDATA[
    .fil0 {fill:none}
    .fil1 {fill:#A98F71;fill-rule:nonzero}
    .fil2 {fill:#2887D2;fill-rule:nonzero}
   ]]>
  </style>
 </defs>
 <g id="Layer_x0020_1">
  <metadata id="CorelCorpID_0Corel-Layer"/>
  <rect class="fil0" width="120" height="120"/>
  <g id="_998111152">
   <path class="fil1" d="M87 104l-48 0c-2,0 -3,-2 -3,-3 0,-2 1,-4 3,-4l48 0c2,0 3,2 3,4 0,1 -1,3 -3,3z"/>
   <path class="fil1" d="M34 118c0,0 0,0 -1,0 -1,-1 -2,-2 -2,-4l14 -44c0,-1 2,-2 3,-2 2,1 3,3 2,4l-13 44c0,1 -2,2 -3,2z"/>
   <path class="fil1" d="M92 118c-2,0 -3,-1 -3,-2l-14 -44c0,-1 1,-3 2,-4 2,0 4,1 4,2l14 44c0,2 -1,3 -3,4 0,0 0,0 0,0z"/>
   <path class="fil2" d="M47 48l-3 -36c0,-5 -5,-10 -11,-10l-3 0c-4,0 -7,3 -7,7l5 50c1,10 9,19 20,19l42 0c4,0 7,-3 7,-7l0 -1c0,-7 -6,-13 -13,-13l-27 0c-5,0 -9,-4 -10,-9z"/>
   <path class="fil2" d="M31 2l-1 0c-4,0 -7,3 -7,7l5 50c1,10 9,19 20,19l26 0c-35,-6 -39,-18 -43,-76z"/>
  </g>
 </g>
</svg>
