<?xml version="1.0" encoding="UTF-8"?>
<!DOCTYPE svg PUBLIC "-//W3C//DTD SVG 1.1//EN" "http://www.w3.org/Graphics/SVG/1.1/DTD/svg11.dtd">
<!-- Creator: CorelDRAW X7 -->
<svg xmlns="http://www.w3.org/2000/svg" xml:space="preserve" width="120px" height="120px" version="1.1" style="shape-rendering:geometricPrecision; text-rendering:geometricPrecision; image-rendering:optimizeQuality; fill-rule:evenodd; clip-rule:evenodd"
viewBox="0 0 120 120"
 xmlns:xlink="http://www.w3.org/1999/xlink">
 <defs>
  <style type="text/css">
   <![CDATA[
    .fil0 {fill:none}
    .fil1 {fill:#2887D2}
    .fil2 {fill:#FEFEFE;fill-rule:nonzero}
   ]]>
  </style>
 </defs>
 <g id="Layer_x0020_1">
  <metadata id="CorelCorpID_0Corel-Layer"/>
  <rect class="fil0" width="120" height="120"/>
  <g id="_672748264">
   <rect class="fil1" x="17" y="2" width="86.2765" height="116.002" rx="11" ry="11"/>
   <path class="fil2" d="M76 21c9,9 9,23 -1,32 -1,2 -4,3 -6,5l-1 39 -10 9 -9 -10 6 -5 -6 -6 6 -5 -6 -6 1 -17c-2,-1 -4,-3 -6,-5 -9,-9 -9,-23 1,-32 9,-9 23,-8 31,1zm-22 12c4,3 8,3 12,0 3,-3 3,-8 0,-11 -3,-4 -8,-4 -11,-1 -3,3 -4,8 -1,12z"/>
  </g>
 </g>
</svg>
